<svg width="36" height="39" viewBox="0 0 36 39" fill="none" xmlns="http://www.w3.org/2000/svg">
<g filter="url(#filter0_bi_2078_2344)">
<path d="M10.9478 9.00128C10.9096 8.67566 10.7993 8.36255 10.625 8.08456C10.4053 7.73755 10.1172 7.43862 9.77813 7.2059C9.2815 6.87154 8.72736 6.63115 8.14342 6.49675L7.76164 6.39643L7.41457 6.30995V3.77775C7.57479 3.77768 7.73294 3.81374 7.8772 3.88324C8.02145 3.95273 8.14806 4.05385 8.24754 4.17903C8.47429 4.4523 8.59717 4.79648 8.59461 5.15109C8.59205 5.5057 10.6465 5.59723 10.6319 5.15109C10.6174 4.70494 10.5098 4.2667 10.3161 3.86423C10.149 3.51722 9.91279 3.20769 9.62194 2.95444C9.32597 2.70487 8.9874 2.51036 8.62238 2.3802C8.23169 2.23826 7.82481 2.1453 7.4111 2.10346C7.4111 2.10346 7.42845 1.49994 7.4111 0.999944C7.39958 0.668071 6.56538 0.667903 6.56077 0.999944C6.55383 1.49994 6.56077 2.10346 6.56077 2.10346C6.13604 2.12987 5.71688 2.21366 5.31478 2.35253C4.92719 2.48347 4.56631 2.68265 4.24927 2.9406C3.92121 3.20986 3.65909 3.55016 3.48287 3.93561C3.30665 4.32106 3.22097 4.7415 3.23236 5.16493C3.21822 5.57735 3.30144 5.98732 3.47531 6.36184C3.63319 6.67052 3.8557 6.94184 4.1278 7.15747C4.40814 7.37594 4.72074 7.54981 5.05448 7.67291C5.40155 7.8009 5.74862 7.91506 6.0957 8.01884C6.19288 8.03959 6.27964 8.06035 6.36294 8.08456C6.42785 8.1026 6.49159 8.12455 6.55383 8.15029V11.1391C6.13113 11.0626 5.74425 10.8528 5.45014 10.5407C5.29489 10.3623 5.17736 10.1546 5.10461 9.9299C5.03185 9.70521 5.00535 9.46819 5.02672 9.23305C5.04808 8.99791 2.90264 8.10532 2.99982 9.23305C3.097 10.3608 3.44407 11.2152 4.04103 11.7964C4.73367 12.4135 5.625 12.7632 6.55383 12.7823C6.55383 12.7823 6.49982 13.4999 6.55383 13.9999C6.58949 14.3301 7.38804 14.3316 7.40416 13.9999C7.42845 13.4999 7.40416 12.7927 7.40416 12.7927C8.0187 12.7669 8.62128 12.6149 9.17422 12.3464C9.58805 12.1438 9.96099 11.867 10.2744 11.53C10.7095 11.0544 10.9658 10.4431 10.9998 9.80037C10.9971 9.53326 10.9797 9.2665 10.9478 9.00128ZM6.56077 6.11969C6.20312 6.05996 5.86441 5.91782 5.57162 5.70457C5.46745 5.61256 5.38577 5.49801 5.33284 5.36971C5.2799 5.2414 5.25711 5.10272 5.2662 4.96429C5.26134 4.78424 5.29815 4.60551 5.37379 4.44193C5.44225 4.29758 5.5432 4.17091 5.6688 4.07179C5.79235 3.97161 5.9336 3.89535 6.08528 3.84694C6.23849 3.80147 6.39745 3.77817 6.5573 3.77775L6.56077 6.11969ZM8.81674 10.3366C8.72744 10.4969 8.60986 10.6399 8.46967 10.7586C8.31793 10.8738 8.14779 10.9627 7.96641 11.0215C7.79206 11.0813 7.61167 11.1219 7.42845 11.1426V8.38552C7.84965 8.47818 8.24984 8.64829 8.60849 8.88712C8.72838 8.98957 8.8223 9.1188 8.88261 9.26427C8.94292 9.40974 8.96792 9.56735 8.95557 9.72427C8.96391 9.93365 8.91598 10.1415 8.81674 10.3262V10.3366Z" fill="#F1F1F1" fill-opacity="0.1"/>
<path d="M10.9478 9.00128C10.9096 8.67566 10.7993 8.36255 10.625 8.08456C10.4053 7.73755 10.1172 7.43862 9.77813 7.2059C9.2815 6.87154 8.72736 6.63115 8.14342 6.49675L7.76164 6.39643L7.41457 6.30995V3.77775C7.57479 3.77768 7.73294 3.81374 7.8772 3.88324C8.02145 3.95273 8.14806 4.05385 8.24754 4.17903C8.47429 4.4523 8.59717 4.79648 8.59461 5.15109C8.59205 5.5057 10.6465 5.59723 10.6319 5.15109C10.6174 4.70494 10.5098 4.2667 10.3161 3.86423C10.149 3.51722 9.91279 3.20769 9.62194 2.95444C9.32597 2.70487 8.9874 2.51036 8.62238 2.3802C8.23169 2.23826 7.82481 2.1453 7.4111 2.10346C7.4111 2.10346 7.42845 1.49994 7.4111 0.999944C7.39958 0.668071 6.56538 0.667903 6.56077 0.999944C6.55383 1.49994 6.56077 2.10346 6.56077 2.10346C6.13604 2.12987 5.71688 2.21366 5.31478 2.35253C4.92719 2.48347 4.56631 2.68265 4.24927 2.9406C3.92121 3.20986 3.65909 3.55016 3.48287 3.93561C3.30665 4.32106 3.22097 4.7415 3.23236 5.16493C3.21822 5.57735 3.30144 5.98732 3.47531 6.36184C3.63319 6.67052 3.8557 6.94184 4.1278 7.15747C4.40814 7.37594 4.72074 7.54981 5.05448 7.67291C5.40155 7.8009 5.74862 7.91506 6.0957 8.01884C6.19288 8.03959 6.27964 8.06035 6.36294 8.08456C6.42785 8.1026 6.49159 8.12455 6.55383 8.15029V11.1391C6.13113 11.0626 5.74425 10.8528 5.45014 10.5407C5.29489 10.3623 5.17736 10.1546 5.10461 9.9299C5.03185 9.70521 5.00535 9.46819 5.02672 9.23305C5.04808 8.99791 2.90264 8.10532 2.99982 9.23305C3.097 10.3608 3.44407 11.2152 4.04103 11.7964C4.73367 12.4135 5.625 12.7632 6.55383 12.7823C6.55383 12.7823 6.49982 13.4999 6.55383 13.9999C6.58949 14.3301 7.38804 14.3316 7.40416 13.9999C7.42845 13.4999 7.40416 12.7927 7.40416 12.7927C8.0187 12.7669 8.62128 12.6149 9.17422 12.3464C9.58805 12.1438 9.96099 11.867 10.2744 11.53C10.7095 11.0544 10.9658 10.4431 10.9998 9.80037C10.9971 9.53326 10.9797 9.2665 10.9478 9.00128ZM6.56077 6.11969C6.20312 6.05996 5.86441 5.91782 5.57162 5.70457C5.46745 5.61256 5.38577 5.49801 5.33284 5.36971C5.2799 5.2414 5.25711 5.10272 5.2662 4.96429C5.26134 4.78424 5.29815 4.60551 5.37379 4.44193C5.44225 4.29758 5.5432 4.17091 5.6688 4.07179C5.79235 3.97161 5.9336 3.89535 6.08528 3.84694C6.23849 3.80147 6.39745 3.77817 6.5573 3.77775L6.56077 6.11969ZM8.81674 10.3366C8.72744 10.4969 8.60986 10.6399 8.46967 10.7586C8.31793 10.8738 8.14779 10.9627 7.96641 11.0215C7.79206 11.0813 7.61167 11.1219 7.42845 11.1426V8.38552C7.84965 8.47818 8.24984 8.64829 8.60849 8.88712C8.72838 8.98957 8.8223 9.1188 8.88261 9.26427C8.94292 9.40974 8.96792 9.56735 8.95557 9.72427C8.96391 9.93365 8.91598 10.1415 8.81674 10.3262V10.3366Z" fill="url(#paint0_linear_2078_2344)"/>
<path d="M7.98539 11.0784C8.17299 11.0175 8.34897 10.9256 8.50595 10.8064L8.506 10.8064L8.50844 10.8044C8.65414 10.681 8.77634 10.5324 8.86915 10.3658L8.87674 10.3521V10.3411C8.97566 10.1514 9.02356 9.93924 9.01566 9.72542C9.0281 9.56023 9.00152 9.39441 8.93804 9.24129C8.8741 9.08707 8.77454 8.9501 8.64748 8.84151L8.64776 8.84118L8.64175 8.83718C8.27689 8.59422 7.8698 8.42118 7.44134 8.32692L7.36845 8.31089V8.38552V11.1426V11.2097L7.43518 11.2022C7.62256 11.1811 7.80706 11.1395 7.98539 11.0784ZM7.98539 11.0784C7.98555 11.0784 7.98571 11.0783 7.98588 11.0783L7.96641 11.0215L7.98492 11.0786C7.98508 11.0785 7.98523 11.0785 7.98539 11.0784ZM7.42845 11.1426L7.42172 11.083C7.42397 11.0827 7.42621 11.0824 7.42845 11.0822V11.1426ZM7.42845 11.1426H7.48845V11.1351C7.46849 11.1378 7.44849 11.1403 7.42845 11.1426ZM10.8882 9.00826L10.8882 9.00845C10.9198 9.27087 10.937 9.5348 10.9398 9.79909C10.9062 10.4272 10.6555 11.0244 10.2303 11.4893C9.92194 11.8209 9.55502 12.0931 9.14786 12.2925C8.60238 12.5574 8.00791 12.7073 7.40164 12.7327L7.34215 12.7352L7.34419 12.7947L7.34419 12.7947L7.3442 12.7948L7.34421 12.7952L7.34426 12.7967L7.34445 12.8027L7.34518 12.8258L7.34759 12.9125C7.34949 12.9864 7.35176 13.0902 7.35327 13.2096C7.3563 13.4485 7.35628 13.7489 7.34423 13.997C7.34156 14.0519 7.30744 14.0982 7.24132 14.1333C7.1746 14.1688 7.08253 14.1882 6.98638 14.1881C6.89033 14.188 6.79663 14.1685 6.72701 14.1326C6.65752 14.0967 6.61949 14.0491 6.61348 13.9935C6.58692 13.7476 6.58682 13.4465 6.59355 13.2053C6.59691 13.085 6.60194 12.9802 6.60614 12.9056C6.60824 12.8683 6.61012 12.8385 6.61148 12.8181L6.61309 12.7947L6.61352 12.7887L6.61363 12.7872L6.61365 12.7869L6.61366 12.7868L6.61366 12.7868L6.61842 12.7236L6.55506 12.7223C5.64094 12.7035 4.76374 12.3595 4.08193 11.7525C3.49907 11.1845 3.15593 10.3458 3.0596 9.2279C3.04822 9.09589 3.07015 8.99984 3.11148 8.93026C3.15257 8.86105 3.21635 8.81209 3.29987 8.7803C3.47037 8.71539 3.71461 8.72552 3.97228 8.78064C4.22769 8.83528 4.48599 8.93186 4.67835 9.02884C4.77472 9.07742 4.85247 9.12508 4.90451 9.16631C4.93069 9.18705 4.9483 9.20456 4.95856 9.21812C4.96386 9.22511 4.96591 9.22933 4.96665 9.23109C4.94513 9.47317 4.97263 9.71709 5.04752 9.94839C5.12278 10.1808 5.24433 10.3956 5.40489 10.5801L5.40485 10.5801L5.40647 10.5818C5.7094 10.9033 6.10784 11.1193 6.54314 11.1982L6.61383 11.211V11.1391V8.15029V8.11017L6.57676 8.09484C6.51239 8.06822 6.44646 8.04552 6.37934 8.02685C6.29495 8.00233 6.2075 7.9814 6.11058 7.96066C5.76533 7.85738 5.42023 7.74384 5.07524 7.61662C4.74738 7.49569 4.44029 7.32489 4.16488 7.1103C3.89988 6.90026 3.68314 6.63607 3.52925 6.33554C3.35967 5.96984 3.27852 5.5696 3.29232 5.16698L3.29243 5.16698L3.29233 5.16331C3.28119 4.74904 3.36502 4.33769 3.53743 3.96056C3.70984 3.58346 3.96627 3.25052 4.28725 2.98706C4.59869 2.73367 4.95322 2.53801 5.33399 2.40937L5.33437 2.40924C5.73135 2.27214 6.14517 2.18941 6.5645 2.16334L6.62142 2.1598L6.62077 2.10277L6.56077 2.10346L6.62077 2.10276L6.62077 2.10274L6.62077 2.10266L6.62076 2.10234L6.62075 2.10104L6.62069 2.09591L6.62048 2.07594L6.61979 2.00084C6.61925 1.93652 6.6186 1.84554 6.61817 1.73895C6.6173 1.52572 6.6173 1.25025 6.62077 1.00078C6.6215 0.947612 6.65419 0.90184 6.72185 0.866319C6.78995 0.830569 6.88474 0.810967 6.98334 0.810977C7.0819 0.810986 7.17726 0.830595 7.24637 0.866489C7.31522 0.902248 7.34928 0.94854 7.35113 1.00203C7.35977 1.25072 7.35977 1.52558 7.35761 1.73859C7.35653 1.84502 7.3549 1.93586 7.35355 2.00008L7.35183 2.07504L7.35131 2.09493L7.35117 2.10004L7.35113 2.10132L7.35113 2.10163L7.35112 2.10171L7.35112 2.10173L7.34952 2.15753L7.40506 2.16315C7.81384 2.20449 8.21586 2.29634 8.60189 2.43659L8.60222 2.43671C8.96034 2.56442 9.29251 2.75522 9.5829 3.00001C9.86746 3.24785 10.0985 3.55074 10.262 3.89027C10.4521 4.28521 10.5577 4.71526 10.572 5.15305C10.5729 5.18188 10.5586 5.21247 10.5134 5.24506C10.4674 5.27823 10.3966 5.30755 10.3045 5.33104C10.1213 5.37779 9.87196 5.39704 9.61911 5.39139C9.36651 5.38574 9.11546 5.35534 8.92945 5.30548C8.83598 5.28042 8.76269 5.25141 8.71422 5.22058C8.66354 5.18833 8.65452 5.16397 8.65461 5.15152C8.65727 4.78296 8.52962 4.42527 8.29412 4.1412C8.18906 4.00916 8.05544 3.9025 7.90324 3.82918C7.75085 3.75577 7.58378 3.71768 7.41454 3.71775L7.35457 3.71778V3.77775V6.30995V6.35683L7.40006 6.36817L7.74639 6.45446L7.74713 6.45465L8.12817 6.55478L8.12816 6.55481L8.12996 6.55522C8.70666 6.68795 9.25392 6.92534 9.74438 7.25552C10.0766 7.4836 10.3589 7.77654 10.5742 8.11656C10.7438 8.38697 10.851 8.69154 10.8882 9.00826ZM6.55089 6.17887L6.62088 6.19056L6.62077 6.1196L6.6173 3.77766L6.61721 3.71759L6.55714 3.71775C6.39157 3.71819 6.22691 3.74232 6.06821 3.78942L6.06821 3.7894L6.06704 3.78978C5.90838 3.84042 5.7606 3.92017 5.63132 4.02494C5.49862 4.12973 5.39194 4.26363 5.31957 4.41622L5.31933 4.41675C5.24021 4.58787 5.20149 4.77479 5.20615 4.96314C5.19694 5.10981 5.22129 5.25666 5.27737 5.39259C5.33381 5.52938 5.42087 5.65147 5.5319 5.74954L5.53172 5.74974L5.5363 5.75307C5.83663 5.97181 6.18406 6.11761 6.55089 6.17887Z" stroke="url(#paint1_linear_2078_2344)" stroke-opacity="0.1" stroke-width="0.12"/>
</g>
<g filter="url(#filter1_bi_2078_2344)">
<ellipse cx="18" cy="26.6667" rx="4" ry="4.66667" fill="#F1F1F1" fill-opacity="0.1"/>
<ellipse cx="18" cy="26.6667" rx="4" ry="4.66667" fill="url(#paint2_linear_2078_2344)" fill-opacity="0.2"/>
<path d="M21.9 26.6667C21.9 29.2038 20.14 31.2333 18 31.2333C15.86 31.2333 14.1 29.2038 14.1 26.6667C14.1 24.1295 15.86 22.1 18 22.1C20.14 22.1 21.9 24.1295 21.9 26.6667Z" stroke="url(#paint3_linear_2078_2344)" stroke-opacity="0.1" stroke-width="0.2"/>
</g>
<g filter="url(#filter2_bi_2078_2344)">
<path d="M18 28.6666C21.5556 28.6666 26 28.1177 26 25.5555C26 22.9932 22.4183 19.3333 18 19.3333C13.5817 19.3333 10 22.9932 10 25.5555C10 28.1177 14.4444 28.6666 18 28.6666Z" fill="#F1F1F1" fill-opacity="0.1"/>
<path d="M18 28.6666C21.5556 28.6666 26 28.1177 26 25.5555C26 22.9932 22.4183 19.3333 18 19.3333C13.5817 19.3333 10 22.9932 10 25.5555C10 28.1177 14.4444 28.6666 18 28.6666Z" fill="url(#paint4_linear_2078_2344)"/>
<path d="M25.94 25.5555C25.94 26.176 25.6719 26.675 25.2106 27.0773C24.7475 27.4811 24.0901 27.7868 23.3164 28.0143C21.7692 28.4693 19.7761 28.6066 18 28.6066C16.2239 28.6066 14.2308 28.4693 12.6836 28.0143C11.9099 27.7868 11.2525 27.4811 10.7894 27.0773C10.3281 26.675 10.06 26.176 10.06 25.5555C10.06 24.2991 10.9411 22.7587 12.3821 21.5292C13.8208 20.3016 15.8074 19.3933 18 19.3933C20.1926 19.3933 22.1792 20.3016 23.6179 21.5292C25.0589 22.7587 25.94 24.2991 25.94 25.5555Z" stroke="url(#paint5_linear_2078_2344)" stroke-opacity="0.1" stroke-width="0.12"/>
</g>
<g filter="url(#filter3_bi_2078_2344)">
<circle cx="18" cy="14" r="4" fill="#F1F1F1" fill-opacity="0.1"/>
<circle cx="18" cy="14" r="4" fill="url(#paint6_linear_2078_2344)"/>
<circle cx="18" cy="14" r="3.94" stroke="url(#paint7_linear_2078_2344)" stroke-opacity="0.1" stroke-width="0.12"/>
</g>
<path d="M16.1195 4.3652C16.0414 3.67414 16.5385 3.04595 17.2333 3.01632C20.5837 2.87345 23.9167 3.6694 26.8512 5.32659C30.1522 7.19074 32.7803 10.0495 34.3609 13.4952C35.9415 16.941 36.3938 20.7978 35.6533 24.5157C34.9129 28.2337 33.0175 31.6229 30.2374 34.2002C27.4573 36.7775 23.9345 38.4113 20.1712 38.8686C16.4079 39.3258 12.5963 38.5833 9.27994 36.7468C5.96353 34.9102 3.31162 32.0735 1.70234 28.6411C0.27172 25.5897 -0.269995 22.2061 0.125732 18.8761C0.207801 18.1855 0.87177 17.7373 1.55495 17.8674V17.8674C2.23813 17.9975 2.68105 18.6568 2.60685 19.3483C2.30558 22.1557 2.77726 25.001 3.98265 27.572C5.36677 30.5242 7.64763 32.964 10.5 34.5435C13.3524 36.1231 16.6307 36.7618 19.8674 36.3685C23.1041 35.9752 26.1341 34.57 28.5252 32.3533C30.9163 30.1366 32.5465 27.2216 33.1833 24.0238C33.8202 20.8261 33.4311 17.5089 32.0717 14.5453C30.7123 11.5817 28.4519 9.12288 25.6128 7.51956C23.1403 6.12327 20.3388 5.43785 17.5167 5.52603C16.8215 5.54775 16.1976 5.05626 16.1195 4.3652V4.3652Z" fill="url(#paint8_linear_2078_2344)"/>
<defs>
<filter id="filter0_bi_2078_2344" x="1.19658" y="-1.04902" width="11.6033" height="17.0971" filterUnits="userSpaceOnUse" color-interpolation-filters="sRGB">
<feFlood flood-opacity="0" result="BackgroundImageFix"/>
<feGaussianBlur in="BackgroundImageFix" stdDeviation="0.9"/>
<feComposite in2="SourceAlpha" operator="in" result="effect1_backgroundBlur_2078_2344"/>
<feBlend mode="normal" in="SourceGraphic" in2="effect1_backgroundBlur_2078_2344" result="shape"/>
<feColorMatrix in="SourceAlpha" type="matrix" values="0 0 0 0 0 0 0 0 0 0 0 0 0 0 0 0 0 0 127 0" result="hardAlpha"/>
<feOffset dy="0.3"/>
<feGaussianBlur stdDeviation="0.6"/>
<feComposite in2="hardAlpha" operator="arithmetic" k2="-1" k3="1"/>
<feColorMatrix type="matrix" values="0 0 0 0 1 0 0 0 0 1 0 0 0 0 1 0 0 0 0.15 0"/>
<feBlend mode="normal" in2="shape" result="effect2_innerShadow_2078_2344"/>
</filter>
<filter id="filter1_bi_2078_2344" x="11" y="19" width="14" height="15.3335" filterUnits="userSpaceOnUse" color-interpolation-filters="sRGB">
<feFlood flood-opacity="0" result="BackgroundImageFix"/>
<feGaussianBlur in="BackgroundImageFix" stdDeviation="1.5"/>
<feComposite in2="SourceAlpha" operator="in" result="effect1_backgroundBlur_2078_2344"/>
<feBlend mode="normal" in="SourceGraphic" in2="effect1_backgroundBlur_2078_2344" result="shape"/>
<feColorMatrix in="SourceAlpha" type="matrix" values="0 0 0 0 0 0 0 0 0 0 0 0 0 0 0 0 0 0 127 0" result="hardAlpha"/>
<feOffset dy="0.5"/>
<feGaussianBlur stdDeviation="1"/>
<feComposite in2="hardAlpha" operator="arithmetic" k2="-1" k3="1"/>
<feColorMatrix type="matrix" values="0 0 0 0 1 0 0 0 0 1 0 0 0 0 1 0 0 0 0.15 0"/>
<feBlend mode="normal" in2="shape" result="effect2_innerShadow_2078_2344"/>
</filter>
<filter id="filter2_bi_2078_2344" x="8.2" y="17.5333" width="19.6" height="12.9333" filterUnits="userSpaceOnUse" color-interpolation-filters="sRGB">
<feFlood flood-opacity="0" result="BackgroundImageFix"/>
<feGaussianBlur in="BackgroundImageFix" stdDeviation="0.9"/>
<feComposite in2="SourceAlpha" operator="in" result="effect1_backgroundBlur_2078_2344"/>
<feBlend mode="normal" in="SourceGraphic" in2="effect1_backgroundBlur_2078_2344" result="shape"/>
<feColorMatrix in="SourceAlpha" type="matrix" values="0 0 0 0 0 0 0 0 0 0 0 0 0 0 0 0 0 0 127 0" result="hardAlpha"/>
<feOffset dy="0.3"/>
<feGaussianBlur stdDeviation="0.6"/>
<feComposite in2="hardAlpha" operator="arithmetic" k2="-1" k3="1"/>
<feColorMatrix type="matrix" values="0 0 0 0 1 0 0 0 0 1 0 0 0 0 1 0 0 0 0.15 0"/>
<feBlend mode="normal" in2="shape" result="effect2_innerShadow_2078_2344"/>
</filter>
<filter id="filter3_bi_2078_2344" x="12.2" y="8.2" width="11.6" height="11.6" filterUnits="userSpaceOnUse" color-interpolation-filters="sRGB">
<feFlood flood-opacity="0" result="BackgroundImageFix"/>
<feGaussianBlur in="BackgroundImageFix" stdDeviation="0.9"/>
<feComposite in2="SourceAlpha" operator="in" result="effect1_backgroundBlur_2078_2344"/>
<feBlend mode="normal" in="SourceGraphic" in2="effect1_backgroundBlur_2078_2344" result="shape"/>
<feColorMatrix in="SourceAlpha" type="matrix" values="0 0 0 0 0 0 0 0 0 0 0 0 0 0 0 0 0 0 127 0" result="hardAlpha"/>
<feOffset dy="0.3"/>
<feGaussianBlur stdDeviation="0.6"/>
<feComposite in2="hardAlpha" operator="arithmetic" k2="-1" k3="1"/>
<feColorMatrix type="matrix" values="0 0 0 0 1 0 0 0 0 1 0 0 0 0 1 0 0 0 0.15 0"/>
<feBlend mode="normal" in2="shape" result="effect2_innerShadow_2078_2344"/>
</filter>
<linearGradient id="paint0_linear_2078_2344" x1="3.00049" y1="0.999939" x2="12.7927" y2="2.53005" gradientUnits="userSpaceOnUse">
<stop stop-color="#62BDFF"/>
<stop offset="1" stop-color="#3864FF"/>
</linearGradient>
<linearGradient id="paint1_linear_2078_2344" x1="3.24668" y1="1.36448" x2="10.9998" y2="1.36448" gradientUnits="userSpaceOnUse">
<stop stop-color="#7EE5FF"/>
<stop offset="1" stop-color="#41A9FF"/>
</linearGradient>
<linearGradient id="paint2_linear_2078_2344" x1="14" y1="22" x2="23.5777" y2="24.0845" gradientUnits="userSpaceOnUse">
<stop stop-color="#82E8FF"/>
<stop offset="1" stop-color="#379FFF"/>
</linearGradient>
<linearGradient id="paint3_linear_2078_2344" x1="14.25" y1="22.4242" x2="22" y2="22.4242" gradientUnits="userSpaceOnUse">
<stop stop-color="#7EE5FF"/>
<stop offset="1" stop-color="#41A9FF"/>
</linearGradient>
<linearGradient id="paint4_linear_2078_2344" x1="10" y1="19.3333" x2="26.8668" y2="26.6752" gradientUnits="userSpaceOnUse">
<stop stop-color="#62BDFF"/>
<stop offset="1" stop-color="#3864FF"/>
</linearGradient>
<linearGradient id="paint5_linear_2078_2344" x1="10.5" y1="19.7575" x2="26" y2="19.7575" gradientUnits="userSpaceOnUse">
<stop stop-color="#7EE5FF"/>
<stop offset="1" stop-color="#41A9FF"/>
</linearGradient>
<linearGradient id="paint6_linear_2078_2344" x1="14" y1="10" x2="23.4238" y2="12.3929" gradientUnits="userSpaceOnUse">
<stop stop-color="#62BDFF"/>
<stop offset="1" stop-color="#3864FF"/>
</linearGradient>
<linearGradient id="paint7_linear_2078_2344" x1="14.25" y1="10.3636" x2="22" y2="10.3636" gradientUnits="userSpaceOnUse">
<stop stop-color="#7EE5FF"/>
<stop offset="1" stop-color="#41A9FF"/>
</linearGradient>
<linearGradient id="paint8_linear_2078_2344" x1="15.9909" y1="39" x2="15.9901" y2="3.39339" gradientUnits="userSpaceOnUse">
<stop stop-color="#62BDFF"/>
<stop offset="1" stop-color="#3864FF"/>
</linearGradient>
</defs>
</svg>
