<svg width="38" height="38" viewBox="0 0 38 38" fill="none" xmlns="http://www.w3.org/2000/svg">
<path fill-rule="evenodd" clip-rule="evenodd" d="M12.1523 11.9911L14.8183 16.6364H14.3626C13.9027 16.6364 13.4502 16.6756 13.0087 16.7512L9.0089 9.91232C8.55974 9.14434 8.68833 8.26253 9.1733 7.65282C6.75823 8.32868 5.45414 11.1824 6.81235 13.5163L9.56023 18.2381C8.15066 19.2962 7.09103 20.8177 6.62165 22.617L3.91304 33H2.45454C1.09894 33 0 34.0989 0 35.4545C0 36.8102 1.09894 37.9091 2.45454 37.9091H33.5455C34.9011 37.9091 36 36.8102 36 35.4545C36 34.0989 34.9011 33 33.5455 33H32.087L29.3783 22.617C28.9612 21.0178 28.0776 19.6379 26.8966 18.6079L29.8597 13.5163C31.2188 11.1808 29.912 8.32478 27.4938 7.65144C27.9796 8.2612 28.1087 9.14376 27.6593 9.91232L23.5862 16.8766C23.0984 16.7542 22.5945 16.6768 22.0796 16.6485L24.7526 11.9911C26.2831 9.32442 24.358 6 21.2834 6H15.6215C12.5469 6 10.6218 9.32442 12.1523 11.9911ZM18 34.6364C22.5187 34.6364 26.1818 30.9732 26.1818 26.4545C26.1818 21.9358 22.5187 18.2727 18 18.2727C13.4813 18.2727 9.81818 21.9358 9.81818 26.4545C9.81818 30.9732 13.4813 34.6364 18 34.6364Z" fill="url(#paint0_linear_2078_308)"/>
<g filter="url(#filter0_bi_2078_308)">
<path d="M21.2302 27.7288C21.199 27.4524 21.1088 27.1867 20.9662 26.9508C20.7865 26.6563 20.5509 26.4026 20.2736 26.2051C19.8674 25.9214 19.4142 25.7173 18.9366 25.6033L18.6244 25.5181L18.3405 25.4447V23.2958C18.4716 23.2957 18.6009 23.3263 18.7189 23.3853C18.8369 23.4443 18.9404 23.5301 19.0218 23.6363C19.2072 23.8682 19.3077 24.1603 19.3056 24.4613C19.3036 24.7622 20.9838 24.8399 20.9719 24.4613C20.96 24.0826 20.872 23.7107 20.7136 23.3692C20.5769 23.0747 20.3837 22.812 20.1459 22.5971C19.9038 22.3852 19.6269 22.2202 19.3284 22.1097C19.0088 21.9893 18.6761 21.9104 18.3377 21.8749C18.3377 21.8749 18.3519 21.3627 18.3377 20.9383C18.3283 20.6567 17.646 20.6565 17.6423 20.9383C17.6366 21.3627 17.6423 21.8749 17.6423 21.8749C17.2949 21.8973 16.9521 21.9684 16.6232 22.0862C16.3062 22.1974 16.0111 22.3664 15.7518 22.5853C15.4835 22.8138 15.2691 23.1026 15.125 23.4297C14.9809 23.7568 14.9108 24.1137 14.9201 24.473C14.9086 24.823 14.9766 25.1709 15.1188 25.4888C15.2479 25.7508 15.4299 25.981 15.6525 26.164C15.8817 26.3494 16.1374 26.497 16.4103 26.6014C16.6942 26.7101 16.9781 26.8069 17.2619 26.895C17.3414 26.9126 17.4124 26.9302 17.4805 26.9508C17.5336 26.9661 17.5857 26.9847 17.6366 27.0066V29.5431C17.2909 29.4781 16.9745 29.3001 16.7339 29.0352C16.607 28.8839 16.5109 28.7076 16.4513 28.5169C16.3918 28.3262 16.3702 28.125 16.3876 27.9255C16.4051 27.7259 14.6505 26.9684 14.7299 27.9255C14.8094 28.8825 15.0933 29.6077 15.5815 30.1009C16.148 30.6246 16.8769 30.9214 17.6366 30.9376C17.6366 30.9376 17.5924 31.5466 17.6366 31.971C17.6658 32.2512 18.3189 32.2525 18.332 31.971C18.3519 31.5466 18.332 30.9464 18.332 30.9464C18.8346 30.9245 19.3275 30.7956 19.7797 30.5677C20.1181 30.3957 20.4231 30.1608 20.6795 29.8748C21.0353 29.4711 21.245 28.9524 21.2727 28.4069C21.2705 28.1803 21.2563 27.9539 21.2302 27.7288ZM17.6423 25.2833C17.3498 25.2326 17.0728 25.112 16.8333 24.931C16.7481 24.8529 16.6813 24.7557 16.638 24.6468C16.5947 24.5379 16.5761 24.4202 16.5835 24.3027C16.5795 24.1499 16.6096 23.9983 16.6715 23.8594C16.7275 23.7369 16.8101 23.6294 16.9128 23.5453C17.0138 23.4603 17.1293 23.3956 17.2534 23.3545C17.3787 23.3159 17.5087 23.2961 17.6394 23.2958L17.6423 25.2833ZM19.4873 28.862C19.4143 28.998 19.3181 29.1194 19.2035 29.2201C19.0794 29.3179 18.9402 29.3933 18.7919 29.4433C18.6493 29.494 18.5017 29.5285 18.3519 29.546V27.2062C18.6964 27.2848 19.0237 27.4292 19.317 27.6319C19.4151 27.7188 19.4919 27.8285 19.5412 27.952C19.5905 28.0754 19.611 28.2092 19.6009 28.3424C19.6077 28.52 19.5685 28.6964 19.4873 28.8532V28.862Z" fill="#F1F1F1" fill-opacity="0.1"/>
<path d="M21.2302 27.7288C21.199 27.4524 21.1088 27.1867 20.9662 26.9508C20.7865 26.6563 20.5509 26.4026 20.2736 26.2051C19.8674 25.9214 19.4142 25.7173 18.9366 25.6033L18.6244 25.5181L18.3405 25.4447V23.2958C18.4716 23.2957 18.6009 23.3263 18.7189 23.3853C18.8369 23.4443 18.9404 23.5301 19.0218 23.6363C19.2072 23.8682 19.3077 24.1603 19.3056 24.4613C19.3036 24.7622 20.9838 24.8399 20.9719 24.4613C20.96 24.0826 20.872 23.7107 20.7136 23.3692C20.5769 23.0747 20.3837 22.812 20.1459 22.5971C19.9038 22.3852 19.6269 22.2202 19.3284 22.1097C19.0088 21.9893 18.6761 21.9104 18.3377 21.8749C18.3377 21.8749 18.3519 21.3627 18.3377 20.9383C18.3283 20.6567 17.646 20.6565 17.6423 20.9383C17.6366 21.3627 17.6423 21.8749 17.6423 21.8749C17.2949 21.8973 16.9521 21.9684 16.6232 22.0862C16.3062 22.1974 16.0111 22.3664 15.7518 22.5853C15.4835 22.8138 15.2691 23.1026 15.125 23.4297C14.9809 23.7568 14.9108 24.1137 14.9201 24.473C14.9086 24.823 14.9766 25.1709 15.1188 25.4888C15.2479 25.7508 15.4299 25.981 15.6525 26.164C15.8817 26.3494 16.1374 26.497 16.4103 26.6014C16.6942 26.7101 16.9781 26.8069 17.2619 26.895C17.3414 26.9126 17.4124 26.9302 17.4805 26.9508C17.5336 26.9661 17.5857 26.9847 17.6366 27.0066V29.5431C17.2909 29.4781 16.9745 29.3001 16.7339 29.0352C16.607 28.8839 16.5109 28.7076 16.4513 28.5169C16.3918 28.3262 16.3702 28.125 16.3876 27.9255C16.4051 27.7259 14.6505 26.9684 14.7299 27.9255C14.8094 28.8825 15.0933 29.6077 15.5815 30.1009C16.148 30.6246 16.8769 30.9214 17.6366 30.9376C17.6366 30.9376 17.5924 31.5466 17.6366 31.971C17.6658 32.2512 18.3189 32.2525 18.332 31.971C18.3519 31.5466 18.332 30.9464 18.332 30.9464C18.8346 30.9245 19.3275 30.7956 19.7797 30.5677C20.1181 30.3957 20.4231 30.1608 20.6795 29.8748C21.0353 29.4711 21.245 28.9524 21.2727 28.4069C21.2705 28.1803 21.2563 27.9539 21.2302 27.7288ZM17.6423 25.2833C17.3498 25.2326 17.0728 25.112 16.8333 24.931C16.7481 24.8529 16.6813 24.7557 16.638 24.6468C16.5947 24.5379 16.5761 24.4202 16.5835 24.3027C16.5795 24.1499 16.6096 23.9983 16.6715 23.8594C16.7275 23.7369 16.8101 23.6294 16.9128 23.5453C17.0138 23.4603 17.1293 23.3956 17.2534 23.3545C17.3787 23.3159 17.5087 23.2961 17.6394 23.2958L17.6423 25.2833ZM19.4873 28.862C19.4143 28.998 19.3181 29.1194 19.2035 29.2201C19.0794 29.3179 18.9402 29.3933 18.7919 29.4433C18.6493 29.494 18.5017 29.5285 18.3519 29.546V27.2062C18.6964 27.2848 19.0237 27.4292 19.317 27.6319C19.4151 27.7188 19.4919 27.8285 19.5412 27.952C19.5905 28.0754 19.611 28.2092 19.6009 28.3424C19.6077 28.52 19.5685 28.6964 19.4873 28.8532V28.862Z" fill="url(#paint1_linear_2078_308)"/>
<path d="M17.4975 26.8932C17.4282 26.8724 17.3565 26.8546 17.2773 26.837C16.9953 26.7494 16.7135 26.6532 16.4318 26.5454C16.1649 26.4432 15.9148 26.2989 15.6904 26.1175C15.4749 25.9403 15.2985 25.7172 15.1731 25.4633C15.035 25.1541 14.9688 24.8156 14.9801 24.475L14.9802 24.475L14.9801 24.4715C14.971 24.1209 15.0394 23.7729 15.1799 23.4539C15.3204 23.135 15.5293 22.8536 15.7906 22.6311C16.0444 22.4169 16.3331 22.2515 16.6431 22.1428L16.6431 22.1428L16.6435 22.1427C16.9671 22.0267 17.3044 21.9568 17.6461 21.9347L17.7029 21.9311L17.7023 21.8742L17.6423 21.8749L17.7023 21.8742L17.7023 21.8742L17.7023 21.8741L17.7023 21.8738L17.7023 21.8727L17.7022 21.8684L17.702 21.8514L17.7015 21.7877C17.701 21.7331 17.7005 21.6559 17.7001 21.5655C17.6994 21.3845 17.6994 21.1508 17.7023 20.9391C17.7028 20.8974 17.7272 20.8613 17.7799 20.8325C17.8334 20.8034 17.9088 20.787 17.9879 20.7871C18.0669 20.7871 18.1428 20.8034 18.1971 20.8327C18.2509 20.8617 18.2763 20.8983 18.2777 20.9403C18.2848 21.1513 18.2848 21.3844 18.283 21.5651C18.2822 21.6554 18.2808 21.7325 18.2797 21.787L18.2783 21.8506L18.2779 21.8674L18.2778 21.8718L18.2777 21.8728L18.2777 21.8731L18.2777 21.8732L18.2777 21.8732L18.3377 21.8749L18.2777 21.8732L18.2762 21.9287L18.3314 21.9345C18.6647 21.9695 18.9924 22.0472 19.3072 22.1659L19.3075 22.166C19.599 22.2738 19.8694 22.435 20.106 22.6419C20.3376 22.8513 20.5259 23.1073 20.6591 23.3944C20.8141 23.7286 20.9002 24.0926 20.9119 24.4632C20.9126 24.4846 20.9026 24.5081 20.8677 24.5343C20.8317 24.5612 20.7754 24.5856 20.7009 24.6053C20.5526 24.6446 20.35 24.6609 20.1438 24.6561C19.9379 24.6513 19.7337 24.6256 19.5829 24.5837C19.507 24.5626 19.4484 24.5384 19.4102 24.5131C19.3702 24.4867 19.3656 24.4685 19.3656 24.4617C19.3678 24.1474 19.263 23.8421 19.069 23.5993C18.9823 23.4862 18.8718 23.3946 18.7457 23.3316C18.6195 23.2685 18.4809 23.2357 18.3405 23.2358L18.2805 23.2358V23.2958V25.4447V25.4912L18.3255 25.5028L18.6086 25.576L18.6094 25.5762L18.9209 25.6612L18.9208 25.6612L18.9227 25.6616C19.3928 25.7739 19.839 25.9747 20.239 26.2541C20.5095 26.4468 20.7395 26.6944 20.9149 26.9819C21.0529 27.2104 21.1403 27.4677 21.1705 27.7355L21.1706 27.7357C21.1964 27.9581 21.2105 28.1817 21.2127 28.4057C21.1853 28.9371 20.9809 29.4421 20.6347 29.8349C20.3833 30.1154 20.0843 30.3456 19.7526 30.5141C19.308 30.7382 18.8235 30.8649 18.3294 30.8864L18.2701 30.889L18.2721 30.9484L18.2721 30.9484L18.2721 30.9485L18.2721 30.9488L18.2721 30.95L18.2723 30.9551L18.2729 30.9748L18.2748 31.0483C18.2764 31.111 18.2783 31.199 18.2795 31.3003C18.282 31.5031 18.2819 31.7578 18.2721 31.9682C18.2701 32.0115 18.2444 32.0482 18.1929 32.0766C18.1405 32.1055 18.0674 32.1217 17.9904 32.1216C17.9134 32.1215 17.8389 32.1053 17.7841 32.0759C17.7297 32.0467 17.7009 32.0087 17.6963 31.9648C17.6746 31.7566 17.6745 31.5014 17.68 31.2968C17.6828 31.1948 17.6869 31.1059 17.6903 31.0426C17.692 31.011 17.6935 30.9857 17.6947 30.9684L17.696 30.9486L17.6963 30.9436L17.6964 30.9423L17.6964 30.942L17.6964 30.9419L17.6964 30.9419L17.701 30.8789L17.6379 30.8776C16.8936 30.8617 16.179 30.5711 15.6232 30.0577C15.1487 29.5778 14.8684 28.8683 14.7897 27.9205C14.7805 27.8094 14.7984 27.7296 14.8311 27.6723C14.8636 27.6156 14.9138 27.5756 14.9799 27.5495C15.1158 27.4958 15.3125 27.5037 15.5225 27.5503C15.7303 27.5964 15.9405 27.678 16.097 27.7599C16.1754 27.8009 16.2383 27.8409 16.2801 27.8753C16.3011 27.8926 16.3148 27.9068 16.3226 27.9174C16.3252 27.9211 16.3267 27.9236 16.3275 27.9251C16.3101 28.1308 16.3327 28.3381 16.3941 28.5347C16.4559 28.7329 16.5558 28.9163 16.688 29.0738L16.6879 29.0738L16.6895 29.0755C16.9387 29.3499 17.2667 29.5346 17.6255 29.6021L17.6966 29.6154V29.5431V27.0066V26.967L17.6603 26.9514C17.6072 26.9287 17.5528 26.9092 17.4975 26.8932ZM17.4975 26.8932C17.4973 26.8932 17.4972 26.8932 17.4971 26.8931L17.4805 26.9508L17.4978 26.8934C17.4977 26.8933 17.4976 26.8933 17.4975 26.8932ZM18.3405 23.2958C18.3408 23.2958 18.3411 23.2958 18.3413 23.2958H18.4005V23.2979C18.5109 23.3057 18.619 23.3353 18.7189 23.3853C18.8369 23.4443 18.9404 23.5301 19.0218 23.6363L18.3405 23.2958ZM18.3405 23.2958V25.4447L18.6244 25.5181L18.3405 23.2958ZM20.1459 22.5971C19.9038 22.3852 19.6269 22.2202 19.3284 22.1097L20.7136 23.3692C20.5769 23.0747 20.3837 22.812 20.1459 22.5971ZM17.632 25.3424L17.7024 25.3546L17.7023 25.2832L17.6994 23.2957L17.6993 23.2356L17.6393 23.2358C17.5026 23.2361 17.3667 23.2568 17.2357 23.2971L17.2357 23.2971L17.2345 23.2975C17.1033 23.341 16.9812 23.4094 16.8744 23.4991C16.7647 23.5891 16.6766 23.7039 16.6169 23.8345L16.6169 23.8345L16.6167 23.835C16.5515 23.9812 16.5197 24.1408 16.5235 24.3016C16.5159 24.427 16.536 24.5526 16.5822 24.669C16.6288 24.7861 16.7008 24.8909 16.7927 24.9752L16.7926 24.9754L16.7971 24.9789C17.0441 25.1655 17.33 25.2901 17.632 25.3424ZM19.5402 28.8904L19.5473 28.8771V28.8676C19.6282 28.7059 19.6674 28.5253 19.6609 28.3435C19.6711 28.2023 19.6492 28.0606 19.5969 27.9297C19.5442 27.7977 19.462 27.6803 19.3568 27.587L19.3571 27.5867L19.3511 27.5825C19.0516 27.3756 18.7172 27.2281 18.3653 27.1477L18.2919 27.131V27.2062V29.546V29.6135L18.3589 29.6056C18.5131 29.5876 18.6648 29.5521 18.8115 29.5C18.9662 29.4478 19.1113 29.3691 19.2406 29.2673L19.2406 29.2673L19.2431 29.2652C19.3632 29.1597 19.4638 29.0327 19.5402 28.8904Z" stroke="url(#paint2_linear_2078_308)" stroke-opacity="0.1" stroke-width="0.12"/>
</g>
<g filter="url(#filter1_bii_2078_308)">
<mask id="path-4-inside-1_2078_308" fill="white">
<path fill-rule="evenodd" clip-rule="evenodd" d="M3.17274 11H1.82659V12.8378L0 12.8378V14.192H1.82659V16.0299H3.17274V14.192H5V12.8378L3.17274 12.8378V11Z"/>
</mask>
<path fill-rule="evenodd" clip-rule="evenodd" d="M3.17274 11H1.82659V12.8378L0 12.8378V14.192H1.82659V16.0299H3.17274V14.192H5V12.8378L3.17274 12.8378V11Z" fill="#1D1D1D" fill-opacity="0.05"/>
<path fill-rule="evenodd" clip-rule="evenodd" d="M3.17274 11H1.82659V12.8378L0 12.8378V14.192H1.82659V16.0299H3.17274V14.192H5V12.8378L3.17274 12.8378V11Z" fill="url(#paint3_linear_2078_308)" fill-opacity="0.2"/>
<path d="M1.82659 11V10H0.826586V11H1.82659ZM3.17274 11H4.17274V10H3.17274V11ZM1.82659 12.8378L1.82659 13.8378L2.82659 13.8378V12.8378H1.82659ZM0 12.8378L6.52634e-08 11.8378L-1 11.8378V12.8378H0ZM0 14.192H-1V15.192H0V14.192ZM1.82659 14.192H2.82659V13.192H1.82659V14.192ZM1.82659 16.0299H0.826586V17.0299H1.82659V16.0299ZM3.17274 16.0299V17.0299H4.17274V16.0299H3.17274ZM3.17274 14.192V13.192H2.17274V14.192H3.17274ZM5 14.192V15.192H6V14.192H5ZM5 12.8378H6V11.8378L5 11.8378V12.8378ZM3.17274 12.8378H2.17274V13.8378H3.17274V12.8378ZM1.82659 12H3.17274V10H1.82659V12ZM2.82659 12.8378V11H0.826586V12.8378H2.82659ZM-6.52634e-08 13.8378H1.82659L1.82659 11.8378L6.52634e-08 11.8378L-6.52634e-08 13.8378ZM1 14.192V12.8378H-1V14.192H1ZM1.82659 13.192H0V15.192H1.82659V13.192ZM2.82659 16.0299V14.192H0.826586V16.0299H2.82659ZM3.17274 15.0299H1.82659V17.0299H3.17274V15.0299ZM2.17274 14.192V16.0299H4.17274V14.192H2.17274ZM5 13.192H3.17274V15.192H5V13.192ZM4 12.8378V14.192H6V12.8378H4ZM3.17274 13.8378L5 13.8378V11.8378L3.17274 11.8378V13.8378ZM2.17274 11V12.8378H4.17274V11H2.17274Z" fill="url(#paint4_linear_2078_308)" fill-opacity="0.1" mask="url(#path-4-inside-1_2078_308)"/>
</g>
<g filter="url(#filter2_bii_2078_308)">
<mask id="path-6-inside-2_2078_308" fill="white">
<path fill-rule="evenodd" clip-rule="evenodd" d="M30.3767 0H28.9439V1.95621L27 1.95621V3.39761H28.9439V5.3538H30.3767V3.39761H32.322V1.95621L30.3767 1.95621V0Z"/>
</mask>
<path fill-rule="evenodd" clip-rule="evenodd" d="M30.3767 0H28.9439V1.95621L27 1.95621V3.39761H28.9439V5.3538H30.3767V3.39761H32.322V1.95621L30.3767 1.95621V0Z" fill="#1D1D1D" fill-opacity="0.05"/>
<path fill-rule="evenodd" clip-rule="evenodd" d="M30.3767 0H28.9439V1.95621L27 1.95621V3.39761H28.9439V5.3538H30.3767V3.39761H32.322V1.95621L30.3767 1.95621V0Z" fill="url(#paint5_linear_2078_308)" fill-opacity="0.2"/>
<path d="M28.9439 0V-1H27.9439V0H28.9439ZM30.3767 0H31.3767V-1H30.3767V0ZM28.9439 1.95621L28.9439 2.95621L29.9439 2.95621V1.95621H28.9439ZM27 1.95621L27 0.956208L26 0.956207V1.95621H27ZM27 3.39761H26V4.39761H27V3.39761ZM28.9439 3.39761H29.9439V2.39761H28.9439V3.39761ZM28.9439 5.3538H27.9439V6.3538H28.9439V5.3538ZM30.3767 5.3538V6.3538H31.3767V5.3538H30.3767ZM30.3767 3.39761V2.39761H29.3767V3.39761H30.3767ZM32.322 3.39761V4.39761H33.322V3.39761H32.322ZM32.322 1.95621H33.322V0.956208L32.322 0.956208V1.95621ZM30.3767 1.95621H29.3767V2.95621H30.3767V1.95621ZM28.9439 1H30.3767V-1H28.9439V1ZM29.9439 1.95621V0H27.9439V1.95621H29.9439ZM27 2.95621H28.9439L28.9439 0.956208L27 0.956208L27 2.95621ZM28 3.39761V1.95621H26V3.39761H28ZM28.9439 2.39761H27V4.39761H28.9439V2.39761ZM29.9439 5.3538V3.39761H27.9439V5.3538H29.9439ZM30.3767 4.3538H28.9439V6.3538H30.3767V4.3538ZM29.3767 3.39761V5.3538H31.3767V3.39761H29.3767ZM32.322 2.39761H30.3767V4.39761H32.322V2.39761ZM31.322 1.95621V3.39761H33.322V1.95621H31.322ZM30.3767 2.95621L32.322 2.95621V0.956208L30.3767 0.956208V2.95621ZM29.3767 0V1.95621H31.3767V0H29.3767Z" fill="url(#paint6_linear_2078_308)" fill-opacity="0.1" mask="url(#path-6-inside-2_2078_308)"/>
</g>
<g filter="url(#filter3_bii_2078_308)">
<mask id="path-8-inside-3_2078_308" fill="white">
<path fill-rule="evenodd" clip-rule="evenodd" d="M35.7379 23H34.5761V24.5861L33 24.5861V25.7548H34.5761V27.3409H35.7379V25.7548H37.3151V24.5861L35.7379 24.5861V23Z"/>
</mask>
<path fill-rule="evenodd" clip-rule="evenodd" d="M35.7379 23H34.5761V24.5861L33 24.5861V25.7548H34.5761V27.3409H35.7379V25.7548H37.3151V24.5861L35.7379 24.5861V23Z" fill="#1D1D1D" fill-opacity="0.05"/>
<path fill-rule="evenodd" clip-rule="evenodd" d="M35.7379 23H34.5761V24.5861L33 24.5861V25.7548H34.5761V27.3409H35.7379V25.7548H37.3151V24.5861L35.7379 24.5861V23Z" fill="url(#paint7_linear_2078_308)" fill-opacity="0.2"/>
<path d="M34.5761 23V22H33.5761V23H34.5761ZM35.7379 23H36.7379V22H35.7379V23ZM34.5761 24.5861L34.5761 25.5861H35.5761V24.5861H34.5761ZM33 24.5861L33 23.5861L32 23.5861V24.5861H33ZM33 25.7548H32V26.7548H33V25.7548ZM34.5761 25.7548H35.5761V24.7548H34.5761V25.7548ZM34.5761 27.3409H33.5761V28.3409H34.5761V27.3409ZM35.7379 27.3409V28.3409H36.7379V27.3409H35.7379ZM35.7379 25.7548V24.7548H34.7379V25.7548H35.7379ZM37.3151 25.7548V26.7548H38.3151V25.7548H37.3151ZM37.3151 24.5861H38.3151V23.5861L37.3151 23.5861V24.5861ZM35.7379 24.5861H34.7379V25.5861H35.7379V24.5861ZM34.5761 24H35.7379V22H34.5761V24ZM35.5761 24.5861V23H33.5761V24.5861H35.5761ZM33 25.5861L34.5761 25.5861L34.5761 23.5861L33 23.5861L33 25.5861ZM34 25.7548V24.5861H32V25.7548H34ZM34.5761 24.7548H33V26.7548H34.5761V24.7548ZM35.5761 27.3409V25.7548H33.5761V27.3409H35.5761ZM35.7379 26.3409H34.5761V28.3409H35.7379V26.3409ZM34.7379 25.7548V27.3409H36.7379V25.7548H34.7379ZM37.3151 24.7548H35.7379V26.7548H37.3151V24.7548ZM36.3151 24.5861V25.7548H38.3151V24.5861H36.3151ZM35.7379 25.5861H37.3151V23.5861L35.7379 23.5861V25.5861ZM34.7379 23V24.5861H36.7379V23H34.7379Z" fill="url(#paint8_linear_2078_308)" fill-opacity="0.1" mask="url(#path-8-inside-3_2078_308)"/>
</g>
<defs>
<filter id="filter0_bi_2078_308" x="12.9273" y="18.9271" width="10.1454" height="15.0546" filterUnits="userSpaceOnUse" color-interpolation-filters="sRGB">
<feFlood flood-opacity="0" result="BackgroundImageFix"/>
<feGaussianBlur in="BackgroundImageFix" stdDeviation="0.9"/>
<feComposite in2="SourceAlpha" operator="in" result="effect1_backgroundBlur_2078_308"/>
<feBlend mode="normal" in="SourceGraphic" in2="effect1_backgroundBlur_2078_308" result="shape"/>
<feColorMatrix in="SourceAlpha" type="matrix" values="0 0 0 0 0 0 0 0 0 0 0 0 0 0 0 0 0 0 127 0" result="hardAlpha"/>
<feOffset dy="0.3"/>
<feGaussianBlur stdDeviation="0.6"/>
<feComposite in2="hardAlpha" operator="arithmetic" k2="-1" k3="1"/>
<feColorMatrix type="matrix" values="0 0 0 0 1 0 0 0 0 1 0 0 0 0 1 0 0 0 0.15 0"/>
<feBlend mode="normal" in2="shape" result="effect2_innerShadow_2078_308"/>
</filter>
<filter id="filter1_bii_2078_308" x="-4" y="7" width="13" height="13.0298" filterUnits="userSpaceOnUse" color-interpolation-filters="sRGB">
<feFlood flood-opacity="0" result="BackgroundImageFix"/>
<feGaussianBlur in="BackgroundImageFix" stdDeviation="2"/>
<feComposite in2="SourceAlpha" operator="in" result="effect1_backgroundBlur_2078_308"/>
<feBlend mode="normal" in="SourceGraphic" in2="effect1_backgroundBlur_2078_308" result="shape"/>
<feColorMatrix in="SourceAlpha" type="matrix" values="0 0 0 0 0 0 0 0 0 0 0 0 0 0 0 0 0 0 127 0" result="hardAlpha"/>
<feOffset dy="0.666667"/>
<feGaussianBlur stdDeviation="1.33333"/>
<feComposite in2="hardAlpha" operator="arithmetic" k2="-1" k3="1"/>
<feColorMatrix type="matrix" values="0 0 0 0 1 0 0 0 0 1 0 0 0 0 1 0 0 0 0.15 0"/>
<feBlend mode="normal" in2="shape" result="effect2_innerShadow_2078_308"/>
<feColorMatrix in="SourceAlpha" type="matrix" values="0 0 0 0 0 0 0 0 0 0 0 0 0 0 0 0 0 0 127 0" result="hardAlpha"/>
<feOffset dy="-4"/>
<feGaussianBlur stdDeviation="3"/>
<feComposite in2="hardAlpha" operator="arithmetic" k2="-1" k3="1"/>
<feColorMatrix type="matrix" values="0 0 0 0 1 0 0 0 0 1 0 0 0 0 1 0 0 0 0.15 0"/>
<feBlend mode="normal" in2="effect2_innerShadow_2078_308" result="effect3_innerShadow_2078_308"/>
</filter>
<filter id="filter2_bii_2078_308" x="23" y="-4" width="13.322" height="13.354" filterUnits="userSpaceOnUse" color-interpolation-filters="sRGB">
<feFlood flood-opacity="0" result="BackgroundImageFix"/>
<feGaussianBlur in="BackgroundImageFix" stdDeviation="2"/>
<feComposite in2="SourceAlpha" operator="in" result="effect1_backgroundBlur_2078_308"/>
<feBlend mode="normal" in="SourceGraphic" in2="effect1_backgroundBlur_2078_308" result="shape"/>
<feColorMatrix in="SourceAlpha" type="matrix" values="0 0 0 0 0 0 0 0 0 0 0 0 0 0 0 0 0 0 127 0" result="hardAlpha"/>
<feOffset dy="0.666667"/>
<feGaussianBlur stdDeviation="1.33333"/>
<feComposite in2="hardAlpha" operator="arithmetic" k2="-1" k3="1"/>
<feColorMatrix type="matrix" values="0 0 0 0 1 0 0 0 0 1 0 0 0 0 1 0 0 0 0.15 0"/>
<feBlend mode="normal" in2="shape" result="effect2_innerShadow_2078_308"/>
<feColorMatrix in="SourceAlpha" type="matrix" values="0 0 0 0 0 0 0 0 0 0 0 0 0 0 0 0 0 0 127 0" result="hardAlpha"/>
<feOffset dy="-4"/>
<feGaussianBlur stdDeviation="3"/>
<feComposite in2="hardAlpha" operator="arithmetic" k2="-1" k3="1"/>
<feColorMatrix type="matrix" values="0 0 0 0 1 0 0 0 0 1 0 0 0 0 1 0 0 0 0.15 0"/>
<feBlend mode="normal" in2="effect2_innerShadow_2078_308" result="effect3_innerShadow_2078_308"/>
</filter>
<filter id="filter3_bii_2078_308" x="29" y="19" width="12.3151" height="12.3408" filterUnits="userSpaceOnUse" color-interpolation-filters="sRGB">
<feFlood flood-opacity="0" result="BackgroundImageFix"/>
<feGaussianBlur in="BackgroundImageFix" stdDeviation="2"/>
<feComposite in2="SourceAlpha" operator="in" result="effect1_backgroundBlur_2078_308"/>
<feBlend mode="normal" in="SourceGraphic" in2="effect1_backgroundBlur_2078_308" result="shape"/>
<feColorMatrix in="SourceAlpha" type="matrix" values="0 0 0 0 0 0 0 0 0 0 0 0 0 0 0 0 0 0 127 0" result="hardAlpha"/>
<feOffset dy="0.666667"/>
<feGaussianBlur stdDeviation="1.33333"/>
<feComposite in2="hardAlpha" operator="arithmetic" k2="-1" k3="1"/>
<feColorMatrix type="matrix" values="0 0 0 0 1 0 0 0 0 1 0 0 0 0 1 0 0 0 0.15 0"/>
<feBlend mode="normal" in2="shape" result="effect2_innerShadow_2078_308"/>
<feColorMatrix in="SourceAlpha" type="matrix" values="0 0 0 0 0 0 0 0 0 0 0 0 0 0 0 0 0 0 127 0" result="hardAlpha"/>
<feOffset dy="-4"/>
<feGaussianBlur stdDeviation="3"/>
<feComposite in2="hardAlpha" operator="arithmetic" k2="-1" k3="1"/>
<feColorMatrix type="matrix" values="0 0 0 0 1 0 0 0 0 1 0 0 0 0 1 0 0 0 0.15 0"/>
<feBlend mode="normal" in2="effect2_innerShadow_2078_308" result="effect3_innerShadow_2078_308"/>
</filter>
<linearGradient id="paint0_linear_2078_308" x1="1.77962e-07" y1="20.1737" x2="35.6066" y2="20.1728" gradientUnits="userSpaceOnUse">
<stop stop-color="#62BDFF"/>
<stop offset="1" stop-color="#3864FF"/>
</linearGradient>
<linearGradient id="paint1_linear_2078_308" x1="14.7305" y1="20.9383" x2="22.7527" y2="22.1464" gradientUnits="userSpaceOnUse">
<stop stop-color="#62BDFF"/>
<stop offset="1" stop-color="#3864FF"/>
</linearGradient>
<linearGradient id="paint2_linear_2078_308" x1="14.9318" y1="21.2477" x2="21.2727" y2="21.2477" gradientUnits="userSpaceOnUse">
<stop stop-color="#7EE5FF"/>
<stop offset="1" stop-color="#41A9FF"/>
</linearGradient>
<linearGradient id="paint3_linear_2078_308" x1="0" y1="11" x2="5.89407" y2="12.4877" gradientUnits="userSpaceOnUse">
<stop stop-color="white"/>
<stop offset="1" stop-color="#4470FF"/>
</linearGradient>
<linearGradient id="paint4_linear_2078_308" x1="0.15625" y1="11.2286" x2="5" y2="11.2286" gradientUnits="userSpaceOnUse">
<stop stop-color="#FFC282"/>
<stop offset="1" stop-color="#FF4980"/>
</linearGradient>
<linearGradient id="paint5_linear_2078_308" x1="27" y1="0" x2="33.2737" y2="1.58354" gradientUnits="userSpaceOnUse">
<stop stop-color="white"/>
<stop offset="1" stop-color="#4470FF"/>
</linearGradient>
<linearGradient id="paint6_linear_2078_308" x1="27.1663" y1="0.243354" x2="32.322" y2="0.243355" gradientUnits="userSpaceOnUse">
<stop stop-color="#FFC282"/>
<stop offset="1" stop-color="#FF4980"/>
</linearGradient>
<linearGradient id="paint7_linear_2078_308" x1="33" y1="23" x2="38.0867" y2="24.2839" gradientUnits="userSpaceOnUse">
<stop stop-color="white"/>
<stop offset="1" stop-color="#4470FF"/>
</linearGradient>
<linearGradient id="paint8_linear_2078_308" x1="33.1348" y1="23.1973" x2="37.3151" y2="23.1973" gradientUnits="userSpaceOnUse">
<stop stop-color="#FFC282"/>
<stop offset="1" stop-color="#FF4980"/>
</linearGradient>
</defs>
</svg>
