<svg width="44" height="45" viewBox="0 0 44 45" fill="none" xmlns="http://www.w3.org/2000/svg">
<g filter="url(#filter0_bii_2078_1636)">
<ellipse rx="8.32993" ry="8.36957" transform="matrix(0.863957 -0.503565 0.496443 0.868069 11.3517 11.4599)" fill="#1D1D1D" fill-opacity="0.05"/>
<ellipse rx="8.32993" ry="8.36957" transform="matrix(0.863957 -0.503565 0.496443 0.868069 11.3517 11.4599)" fill="url(#paint0_linear_2078_1636)" fill-opacity="0.2"/>
<path d="M18.4332 7.33235C20.6917 11.2815 19.351 16.3302 15.4405 18.6095C11.5301 20.8888 6.5287 19.5365 4.27021 15.5874C2.01172 11.6382 3.3524 6.58951 7.26289 4.31024C11.1734 2.03098 16.1747 3.3832 18.4332 7.33235Z" stroke="url(#paint1_linear_2078_1636)" stroke-opacity="0.1" stroke-width="0.266667"/>
</g>
<path d="M27.8571 33.3333L21 33.3333L21 34.5L21 35.6667L27.8571 35.6667L27.8571 38L33 34.5L27.8571 31L27.8571 33.3333Z" fill="#F1F1F1" fill-opacity="0.1"/>
<path d="M27.8571 33.3333L21 33.3333L21 34.5L21 35.6667L27.8571 35.6667L27.8571 38L33 34.5L27.8571 31L27.8571 33.3333Z" fill="url(#paint2_linear_2078_1636)"/>
<path d="M27.8571 33.3333L21 33.3333L21 34.5L21 35.6667L27.8571 35.6667L27.8571 38L33 34.5L27.8571 31L27.8571 33.3333Z" stroke="white" stroke-opacity="0.1" stroke-linecap="round" stroke-linejoin="round"/>
<path d="M27.8571 33.3333L21 33.3333L21 34.5L21 35.6667L27.8571 35.6667L27.8571 38L33 34.5L27.8571 31L27.8571 33.3333Z" stroke="url(#paint3_linear_2078_1636)" stroke-linecap="round" stroke-linejoin="round"/>
<path d="M19.1429 41.6667L26 41.6667L26 40.5L26 39.3333L19.1429 39.3333L19.1429 37L14 40.5L19.1429 44L19.1429 41.6667Z" fill="#F1F1F1" fill-opacity="0.1"/>
<path d="M19.1429 41.6667L26 41.6667L26 40.5L26 39.3333L19.1429 39.3333L19.1429 37L14 40.5L19.1429 44L19.1429 41.6667Z" fill="url(#paint4_linear_2078_1636)"/>
<path d="M19.1429 41.6667L26 41.6667L26 40.5L26 39.3333L19.1429 39.3333L19.1429 37L14 40.5L19.1429 44L19.1429 41.6667Z" stroke="white" stroke-opacity="0.1" stroke-linecap="round" stroke-linejoin="round"/>
<path d="M19.1429 41.6667L26 41.6667L26 40.5L26 39.3333L19.1429 39.3333L19.1429 37L14 40.5L19.1429 44L19.1429 41.6667Z" stroke="url(#paint5_linear_2078_1636)" stroke-linecap="round" stroke-linejoin="round"/>
<g filter="url(#filter1_bi_2078_1636)">
<mask id="path-5-inside-1_2078_1636" fill="white">
<path fill-rule="evenodd" clip-rule="evenodd" d="M6.29289 10.2929C6 10.5858 6 11.0572 6 12V26C6 26.9428 6 27.4142 6.29289 27.7071C6.58579 28 7.05719 28 8 28H42C42.9428 28 43.4142 28 43.7071 27.7071C44 27.4142 44 26.9428 44 26V12C44 11.0572 44 10.5858 43.7071 10.2929C43.4142 10 42.9428 10 42 10H8C7.05719 10 6.58579 10 6.29289 10.2929ZM25 26C28.866 26 32 22.866 32 19C32 15.134 28.866 12 25 12C21.134 12 18 15.134 18 19C18 22.866 21.134 26 25 26Z"/>
</mask>
<path fill-rule="evenodd" clip-rule="evenodd" d="M6.29289 10.2929C6 10.5858 6 11.0572 6 12V26C6 26.9428 6 27.4142 6.29289 27.7071C6.58579 28 7.05719 28 8 28H42C42.9428 28 43.4142 28 43.7071 27.7071C44 27.4142 44 26.9428 44 26V12C44 11.0572 44 10.5858 43.7071 10.2929C43.4142 10 42.9428 10 42 10H8C7.05719 10 6.58579 10 6.29289 10.2929ZM25 26C28.866 26 32 22.866 32 19C32 15.134 28.866 12 25 12C21.134 12 18 15.134 18 19C18 22.866 21.134 26 25 26Z" fill="#F1F1F1" fill-opacity="0.1"/>
<path fill-rule="evenodd" clip-rule="evenodd" d="M6.29289 10.2929C6 10.5858 6 11.0572 6 12V26C6 26.9428 6 27.4142 6.29289 27.7071C6.58579 28 7.05719 28 8 28H42C42.9428 28 43.4142 28 43.7071 27.7071C44 27.4142 44 26.9428 44 26V12C44 11.0572 44 10.5858 43.7071 10.2929C43.4142 10 42.9428 10 42 10H8C7.05719 10 6.58579 10 6.29289 10.2929ZM25 26C28.866 26 32 22.866 32 19C32 15.134 28.866 12 25 12C21.134 12 18 15.134 18 19C18 22.866 21.134 26 25 26Z" fill="url(#paint6_linear_2078_1636)"/>
<path d="M6.29289 27.7071L6.15147 27.8485L6.15147 27.8485L6.29289 27.7071ZM43.7071 27.7071L43.8485 27.8485V27.8485L43.7071 27.7071ZM6.2 12C6.2 11.5229 6.20042 11.1853 6.23483 10.9294C6.26846 10.6792 6.33122 10.5374 6.43431 10.4343L6.15147 10.1515C5.96167 10.3413 5.87799 10.5816 5.8384 10.8761C5.79958 11.1648 5.8 11.5342 5.8 12H6.2ZM6.2 26V12H5.8V26H6.2ZM6.43431 27.5657C6.33122 27.4626 6.26846 27.3208 6.23483 27.0706C6.20042 26.8147 6.2 26.4771 6.2 26H5.8C5.8 26.4657 5.79958 26.8352 5.8384 27.1239C5.87799 27.4184 5.96167 27.6587 6.15147 27.8485L6.43431 27.5657ZM8 27.8C7.52294 27.8 7.18527 27.7996 6.92938 27.7652C6.67924 27.7315 6.53741 27.6688 6.43431 27.5657L6.15147 27.8485C6.34127 28.0383 6.58159 28.122 6.87608 28.1616C7.16482 28.2004 7.53425 28.2 8 28.2V27.8ZM42 27.8H8V28.2H42V27.8ZM43.5657 27.5657C43.4626 27.6688 43.3208 27.7315 43.0706 27.7652C42.8147 27.7996 42.4771 27.8 42 27.8V28.2C42.4658 28.2 42.8352 28.2004 43.1239 28.1616C43.4184 28.122 43.6587 28.0383 43.8485 27.8485L43.5657 27.5657ZM43.8 26C43.8 26.4771 43.7996 26.8147 43.7652 27.0706C43.7315 27.3208 43.6688 27.4626 43.5657 27.5657L43.8485 27.8485C44.0383 27.6587 44.122 27.4184 44.1616 27.1239C44.2004 26.8352 44.2 26.4657 44.2 26H43.8ZM43.8 12V26H44.2V12H43.8ZM43.5657 10.4343C43.6688 10.5374 43.7315 10.6792 43.7652 10.9294C43.7996 11.1853 43.8 11.5229 43.8 12H44.2C44.2 11.5342 44.2004 11.1648 44.1616 10.8761C44.122 10.5816 44.0383 10.3413 43.8485 10.1515L43.5657 10.4343ZM42 10.2C42.4771 10.2 42.8147 10.2004 43.0706 10.2348C43.3208 10.2685 43.4626 10.3312 43.5657 10.4343L43.8485 10.1515C43.6587 9.96167 43.4184 9.87799 43.1239 9.8384C42.8352 9.79958 42.4658 9.8 42 9.8V10.2ZM8 10.2H42V9.8H8V10.2ZM6.43431 10.4343C6.53741 10.3312 6.67924 10.2685 6.92938 10.2348C7.18527 10.2004 7.52294 10.2 8 10.2V9.8C7.53425 9.8 7.16482 9.79958 6.87608 9.8384C6.58159 9.87799 6.34127 9.96167 6.15147 10.1515L6.43431 10.4343ZM31.8 19C31.8 22.7555 28.7555 25.8 25 25.8V26.2C28.9764 26.2 32.2 22.9765 32.2 19H31.8ZM25 12.2C28.7555 12.2 31.8 15.2445 31.8 19H32.2C32.2 15.0236 28.9764 11.8 25 11.8V12.2ZM18.2 19C18.2 15.2445 21.2445 12.2 25 12.2V11.8C21.0235 11.8 17.8 15.0236 17.8 19H18.2ZM25 25.8C21.2445 25.8 18.2 22.7555 18.2 19H17.8C17.8 22.9765 21.0235 26.2 25 26.2V25.8Z" fill="url(#paint7_linear_2078_1636)" fill-opacity="0.1" mask="url(#path-5-inside-1_2078_1636)"/>
</g>
<g filter="url(#filter2_bi_2078_1636)">
<path d="M26.974 19.9239C26.9549 19.7235 26.8998 19.5308 26.8126 19.3598C26.7027 19.1462 26.5587 18.9623 26.3892 18.8191C26.1408 18.6133 25.8638 18.4654 25.5718 18.3827L25.3809 18.3209C25.2778 18.2893 25.2074 18.1941 25.2074 18.0862V16.9526C25.2074 16.8183 25.3232 16.7058 25.4387 16.7743C25.5108 16.8171 25.5741 16.8793 25.6239 16.9564C25.6475 16.9915 25.6689 17.0285 25.688 17.0671C25.811 17.3163 26.0236 17.5546 26.3015 17.5546C26.5834 17.5546 26.8153 17.3193 26.7477 17.0455C26.7239 16.9488 26.6939 16.8542 26.6581 16.7626C26.5746 16.5491 26.4565 16.3586 26.3111 16.2028C26.1631 16.0492 25.9938 15.9295 25.8113 15.8494C25.6159 15.762 25.2056 15.7422 25.2056 15.6791V15.2126C25.2056 15.0952 25.1105 15 24.9931 15C24.8757 15 24.7805 15.0952 24.7805 15.2126V15.6791C24.7805 15.7344 24.3585 15.7469 24.1575 15.8324C23.9637 15.9129 23.7832 16.0355 23.6247 16.1943C23.4607 16.3599 23.3296 16.5694 23.2415 16.8066C23.1534 17.0438 23.1106 17.3025 23.1163 17.5631C23.1092 17.8169 23.1508 18.0692 23.2377 18.2996C23.3167 18.4896 23.4279 18.6566 23.564 18.7892C23.7042 18.9237 23.8605 19.0307 24.0273 19.1064C24.2009 19.1852 24.3744 19.2555 24.5479 19.3193C24.5965 19.3321 24.6399 19.3449 24.6816 19.3598C24.7423 19.3805 24.779 19.4388 24.7821 19.5029C24.8007 19.8898 24.8596 21.2377 24.777 21.2395C24.6806 21.2416 24.3722 21.0633 24.2252 20.8712C24.1475 20.7615 24.0888 20.6336 24.0524 20.4954C23.993 20.2695 23.8145 20.0665 23.5809 20.0665H23.5058C23.2323 20.0665 23.0123 20.2994 23.0622 20.5683C23.146 21.0197 23.2988 21.3782 23.5206 21.644C23.8431 21.9976 24.2517 22.2085 24.6815 22.2454C24.7345 22.2499 24.777 22.2931 24.777 22.3464V22.7874C24.777 22.9048 24.8722 23 24.9896 23C25.107 23 25.2022 22.9048 25.2022 22.7874V22.3464C25.2022 22.2963 25.2414 22.2553 25.2912 22.2503C25.5675 22.2224 25.8375 22.1317 26.0872 21.9824C26.2941 21.8577 26.4806 21.6874 26.6373 21.48C26.8549 21.1873 26.983 20.8112 27 20.4156C26.9986 20.2513 26.9899 20.0871 26.974 19.9239ZM24.7805 18.1506C24.7805 18.2281 24.4323 18.0264 24.2859 17.8952C24.2338 17.8385 24.193 17.768 24.1665 17.6891C24.14 17.6101 24.1286 17.5248 24.1332 17.4396C24.1308 17.3288 24.1492 17.2188 24.187 17.1181C24.2212 17.0293 24.2717 16.9514 24.3345 16.8904C24.3963 16.8287 24.4669 16.7818 24.5427 16.752C24.6677 16.7064 24.7789 16.8169 24.779 16.95C24.7795 17.3451 24.7805 18.0938 24.7805 18.1506ZM25.9085 20.7424C25.9085 20.7445 25.908 20.7466 25.9071 20.7486C25.8626 20.846 25.8043 20.933 25.7349 21.0053C25.6591 21.0762 25.574 21.1309 25.4833 21.1671C25.3961 21.2039 25.2143 21.3086 25.2143 21.2416V19.545C25.2143 19.4002 25.625 19.7067 25.8043 19.8536C25.8643 19.9167 25.9112 19.9962 25.9414 20.0857C25.9716 20.1753 25.9841 20.2722 25.9779 20.3688C25.982 20.4966 25.9585 20.6234 25.9097 20.7363C25.9089 20.7382 25.9085 20.7403 25.9085 20.7424Z" fill="#F1F1F1" fill-opacity="0.1"/>
<path d="M26.974 19.9239C26.9549 19.7235 26.8998 19.5308 26.8126 19.3598C26.7027 19.1462 26.5587 18.9623 26.3892 18.8191C26.1408 18.6133 25.8638 18.4654 25.5718 18.3827L25.3809 18.3209C25.2778 18.2893 25.2074 18.1941 25.2074 18.0862V16.9526C25.2074 16.8183 25.3232 16.7058 25.4387 16.7743C25.5108 16.8171 25.5741 16.8793 25.6239 16.9564C25.6475 16.9915 25.6689 17.0285 25.688 17.0671C25.811 17.3163 26.0236 17.5546 26.3015 17.5546C26.5834 17.5546 26.8153 17.3193 26.7477 17.0455C26.7239 16.9488 26.6939 16.8542 26.6581 16.7626C26.5746 16.5491 26.4565 16.3586 26.3111 16.2028C26.1631 16.0492 25.9938 15.9295 25.8113 15.8494C25.6159 15.762 25.2056 15.7422 25.2056 15.6791V15.2126C25.2056 15.0952 25.1105 15 24.9931 15C24.8757 15 24.7805 15.0952 24.7805 15.2126V15.6791C24.7805 15.7344 24.3585 15.7469 24.1575 15.8324C23.9637 15.9129 23.7832 16.0355 23.6247 16.1943C23.4607 16.3599 23.3296 16.5694 23.2415 16.8066C23.1534 17.0438 23.1106 17.3025 23.1163 17.5631C23.1092 17.8169 23.1508 18.0692 23.2377 18.2996C23.3167 18.4896 23.4279 18.6566 23.564 18.7892C23.7042 18.9237 23.8605 19.0307 24.0273 19.1064C24.2009 19.1852 24.3744 19.2555 24.5479 19.3193C24.5965 19.3321 24.6399 19.3449 24.6816 19.3598C24.7423 19.3805 24.779 19.4388 24.7821 19.5029C24.8007 19.8898 24.8596 21.2377 24.777 21.2395C24.6806 21.2416 24.3722 21.0633 24.2252 20.8712C24.1475 20.7615 24.0888 20.6336 24.0524 20.4954C23.993 20.2695 23.8145 20.0665 23.5809 20.0665H23.5058C23.2323 20.0665 23.0123 20.2994 23.0622 20.5683C23.146 21.0197 23.2988 21.3782 23.5206 21.644C23.8431 21.9976 24.2517 22.2085 24.6815 22.2454C24.7345 22.2499 24.777 22.2931 24.777 22.3464V22.7874C24.777 22.9048 24.8722 23 24.9896 23C25.107 23 25.2022 22.9048 25.2022 22.7874V22.3464C25.2022 22.2963 25.2414 22.2553 25.2912 22.2503C25.5675 22.2224 25.8375 22.1317 26.0872 21.9824C26.2941 21.8577 26.4806 21.6874 26.6373 21.48C26.8549 21.1873 26.983 20.8112 27 20.4156C26.9986 20.2513 26.9899 20.0871 26.974 19.9239ZM24.7805 18.1506C24.7805 18.2281 24.4323 18.0264 24.2859 17.8952C24.2338 17.8385 24.193 17.768 24.1665 17.6891C24.14 17.6101 24.1286 17.5248 24.1332 17.4396C24.1308 17.3288 24.1492 17.2188 24.187 17.1181C24.2212 17.0293 24.2717 16.9514 24.3345 16.8904C24.3963 16.8287 24.4669 16.7818 24.5427 16.752C24.6677 16.7064 24.7789 16.8169 24.779 16.95C24.7795 17.3451 24.7805 18.0938 24.7805 18.1506ZM25.9085 20.7424C25.9085 20.7445 25.908 20.7466 25.9071 20.7486C25.8626 20.846 25.8043 20.933 25.7349 21.0053C25.6591 21.0762 25.574 21.1309 25.4833 21.1671C25.3961 21.2039 25.2143 21.3086 25.2143 21.2416V19.545C25.2143 19.4002 25.625 19.7067 25.8043 19.8536C25.8643 19.9167 25.9112 19.9962 25.9414 20.0857C25.9716 20.1753 25.9841 20.2722 25.9779 20.3688C25.982 20.4966 25.9585 20.6234 25.9097 20.7363C25.9089 20.7382 25.9085 20.7403 25.9085 20.7424Z" fill="url(#paint8_linear_2078_1636)"/>
<path d="M26.9143 19.9297L26.9142 19.9296C26.8958 19.7364 26.8427 19.5511 26.7592 19.3871C26.6527 19.1802 26.5135 19.0027 26.3506 18.8651C26.1084 18.6644 25.8388 18.5206 25.5554 18.4404L25.5533 18.4398L25.5533 18.4397L25.3629 18.3781C25.2348 18.3386 25.1474 18.2203 25.1474 18.0862V16.9526C25.1474 16.8692 25.1831 16.7901 25.2412 16.7414C25.3018 16.6906 25.3872 16.674 25.4693 16.7227C25.55 16.7706 25.6197 16.8394 25.6739 16.9233C25.699 16.9606 25.7217 16.9998 25.7418 17.0405C25.8625 17.2849 26.0598 17.4946 26.3015 17.4946C26.5544 17.4946 26.7454 17.2867 26.6895 17.0599L26.9143 19.9297ZM26.9143 19.9297C26.93 20.0907 26.9386 20.2525 26.94 20.4146C26.9232 20.7986 26.7987 21.1622 26.5893 21.4441C26.4369 21.6457 26.2561 21.8106 26.0563 21.931C25.8138 22.0759 25.5523 22.1636 25.2852 22.1906C25.2066 22.1985 25.1422 22.2637 25.1422 22.3464V22.7874C25.1422 22.8717 25.0739 22.94 24.9896 22.94C24.9053 22.94 24.837 22.8717 24.837 22.7874V22.3464C24.837 22.2597 24.7684 22.1926 24.6866 22.1856C24.2739 22.1502 23.8792 21.9476 23.5658 21.6045C23.3529 21.3489 23.2036 21.0012 23.1212 20.5573C23.0791 20.3303 23.2646 20.1265 23.5058 20.1265H23.5809C23.7765 20.1265 23.9387 20.2991 23.9944 20.5106C24.0325 20.6554 24.0941 20.7899 24.1762 20.9059L24.1761 20.9059L24.1775 20.9077C24.2569 21.0113 24.377 21.1083 24.4879 21.1788C24.5437 21.2143 24.5987 21.244 24.6469 21.2649C24.6925 21.2847 24.7402 21.3003 24.7783 21.2995C24.8033 21.2989 24.8204 21.2853 24.8293 21.2752C24.838 21.2654 24.8432 21.2546 24.8464 21.2466C24.8531 21.2302 24.8576 21.2102 24.8609 21.19C24.8678 21.1486 24.8723 21.0913 24.8752 21.0244C24.8811 20.8898 24.8809 20.7076 24.8775 20.5145C24.8708 20.128 24.8514 19.6936 24.842 19.5C24.838 19.4159 24.7891 19.3331 24.701 19.303L24.6816 19.3598M26.9143 19.9297L26.6023 16.7845C26.5213 16.5776 26.4072 16.3939 26.2675 16.244C26.1247 16.0959 25.9619 15.981 25.7872 15.9043L25.7868 15.9042C25.7011 15.8659 25.5669 15.8408 25.4412 15.8173C25.4355 15.8162 25.4298 15.8152 25.4242 15.8141C25.3614 15.8024 25.3009 15.7907 25.256 15.7776C25.234 15.7712 25.2115 15.7633 25.1935 15.7528C25.1796 15.7447 25.1456 15.7221 25.1456 15.6791V15.2126C25.1456 15.1283 25.0773 15.06 24.9931 15.06C24.9088 15.06 24.8405 15.1283 24.8405 15.2126V15.6791C24.8405 15.7034 24.8284 15.721 24.8182 15.7313C24.8084 15.7412 24.7971 15.7477 24.7882 15.752C24.7702 15.7607 24.7478 15.7673 24.7255 15.7727C24.6799 15.7836 24.6182 15.7934 24.5538 15.8037C24.4202 15.8249 24.2731 15.8484 24.181 15.8876L24.1805 15.8878L24.1805 15.8878C23.9945 15.9651 23.8206 16.083 23.6673 16.2366C23.5098 16.3957 23.3831 16.5976 23.2978 16.8275C23.2124 17.0573 23.1707 17.3085 23.1763 17.5618L23.1763 17.5647L23.1762 17.5647C23.1694 17.8106 23.2097 18.0548 23.2935 18.2775C23.3696 18.4601 23.4762 18.6198 23.6057 18.7461C23.7412 18.8761 23.8919 18.9791 24.0521 19.0518C24.2233 19.1295 24.3946 19.1989 24.566 19.262C24.6145 19.2748 24.6588 19.2879 24.7018 19.3033L24.6816 19.3598M24.6816 19.3598C24.6399 19.3449 24.5965 19.3321 24.5479 19.3193M24.6816 19.3598C24.7423 19.3805 24.779 19.4388 24.7821 19.5029C24.8007 19.8898 24.8596 21.2377 24.777 21.2395L24.5479 19.3193M24.5479 19.3193C24.3744 19.2555 24.2009 19.1852 24.0273 19.1064L24.5479 19.3193ZM24.1575 15.8324C24.2572 15.79 24.4113 15.7655 24.5413 15.7449C24.6733 15.724 24.7805 15.7069 24.7805 15.6791V15.2126C24.7805 15.0952 24.8757 15 24.9931 15C25.1105 15 25.2056 15.0952 25.2056 15.2126V15.6791C25.2056 15.7123 25.3195 15.7336 25.4558 15.759C25.5783 15.7818 25.7188 15.8081 25.8113 15.8494C25.9938 15.9295 26.1631 16.0492 26.3111 16.2028L24.1575 15.8324ZM24.1575 15.8324C23.9637 15.9129 23.7832 16.0355 23.6247 16.1943L24.1575 15.8324ZM25.5061 21.2226C25.6039 21.1835 25.6951 21.1247 25.7759 21.0492L25.7759 21.0492L25.7782 21.0469C25.8526 20.9693 25.9146 20.8767 25.9617 20.7735L25.9617 20.7735C25.9646 20.7671 25.9666 20.7603 25.9676 20.7535C26.0177 20.6347 26.0418 20.5025 26.0379 20.3698C26.0442 20.2665 26.0307 20.1628 25.9983 20.0666C25.9656 19.9695 25.9143 19.8822 25.8478 19.8123L25.8482 19.812L25.8424 19.8072C25.7519 19.7331 25.602 19.6178 25.4735 19.5388C25.4106 19.5001 25.347 19.4665 25.2963 19.4534C25.2726 19.4472 25.2388 19.442 25.2078 19.4559C25.1904 19.4637 25.1757 19.4767 25.1661 19.4945C25.1571 19.5114 25.1543 19.5292 25.1543 19.545V21.2416C25.1543 21.265 25.1633 21.2917 25.1887 21.3089C25.2098 21.3231 25.233 21.3241 25.2472 21.3233C25.2764 21.3218 25.3099 21.3103 25.3383 21.299C25.3685 21.287 25.401 21.2718 25.4303 21.2579C25.435 21.2556 25.4397 21.2534 25.4442 21.2512C25.4683 21.2398 25.4892 21.2298 25.5061 21.2226ZM25.5061 21.2226C25.5059 21.2227 25.5057 21.2228 25.5055 21.2228L25.4833 21.1671M25.5061 21.2226C25.5063 21.2225 25.5065 21.2225 25.5066 21.2224L25.4833 21.1671M25.4833 21.1671C25.574 21.1309 25.6591 21.0762 25.7349 21.0053L25.2143 19.545V21.2416C25.2143 21.2945 25.3275 21.2405 25.418 21.1972C25.4423 21.1857 25.4649 21.1749 25.4833 21.1671ZM24.2417 17.9358L24.2415 17.936L24.2459 17.9398C24.3235 18.0094 24.4513 18.0952 24.5595 18.1539C24.6132 18.183 24.6659 18.2076 24.7072 18.2195C24.7263 18.225 24.7514 18.2304 24.7751 18.2264C24.7881 18.2243 24.8057 18.2184 24.8202 18.2031C24.8355 18.1869 24.8405 18.1672 24.8405 18.1506L24.839 16.9499C24.8389 16.8672 24.8045 16.7897 24.7475 16.7391C24.6893 16.6874 24.6074 16.6645 24.5221 16.6956L24.5221 16.6956L24.5208 16.6962C24.4369 16.7291 24.3595 16.7807 24.2924 16.8476C24.223 16.9151 24.168 17.0005 24.131 17.0966L24.131 17.0966L24.1308 17.097C24.0905 17.2044 24.0709 17.3212 24.0732 17.4387C24.0685 17.5305 24.0809 17.6226 24.1096 17.7082C24.1385 17.7944 24.1835 17.8724 24.2417 17.9358Z" stroke="url(#paint9_linear_2078_1636)" stroke-opacity="0.1" stroke-width="0.12"/>
</g>
<defs>
<filter id="filter0_bii_2078_1636" x="-0.959717" y="-0.930664" width="24.6228" height="24.7812" filterUnits="userSpaceOnUse" color-interpolation-filters="sRGB">
<feFlood flood-opacity="0" result="BackgroundImageFix"/>
<feGaussianBlur in="BackgroundImageFix" stdDeviation="2"/>
<feComposite in2="SourceAlpha" operator="in" result="effect1_backgroundBlur_2078_1636"/>
<feBlend mode="normal" in="SourceGraphic" in2="effect1_backgroundBlur_2078_1636" result="shape"/>
<feColorMatrix in="SourceAlpha" type="matrix" values="0 0 0 0 0 0 0 0 0 0 0 0 0 0 0 0 0 0 127 0" result="hardAlpha"/>
<feOffset dy="0.666667"/>
<feGaussianBlur stdDeviation="1.33333"/>
<feComposite in2="hardAlpha" operator="arithmetic" k2="-1" k3="1"/>
<feColorMatrix type="matrix" values="0 0 0 0 1 0 0 0 0 1 0 0 0 0 1 0 0 0 0.15 0"/>
<feBlend mode="normal" in2="shape" result="effect2_innerShadow_2078_1636"/>
<feColorMatrix in="SourceAlpha" type="matrix" values="0 0 0 0 0 0 0 0 0 0 0 0 0 0 0 0 0 0 127 0" result="hardAlpha"/>
<feOffset dy="-4"/>
<feGaussianBlur stdDeviation="3"/>
<feComposite in2="hardAlpha" operator="arithmetic" k2="-1" k3="1"/>
<feColorMatrix type="matrix" values="0 0 0 0 1 0 0 0 0 1 0 0 0 0 1 0 0 0 0.15 0"/>
<feBlend mode="normal" in2="effect2_innerShadow_2078_1636" result="effect3_innerShadow_2078_1636"/>
</filter>
<filter id="filter1_bi_2078_1636" x="3" y="7" width="44" height="24" filterUnits="userSpaceOnUse" color-interpolation-filters="sRGB">
<feFlood flood-opacity="0" result="BackgroundImageFix"/>
<feGaussianBlur in="BackgroundImageFix" stdDeviation="1.5"/>
<feComposite in2="SourceAlpha" operator="in" result="effect1_backgroundBlur_2078_1636"/>
<feBlend mode="normal" in="SourceGraphic" in2="effect1_backgroundBlur_2078_1636" result="shape"/>
<feColorMatrix in="SourceAlpha" type="matrix" values="0 0 0 0 0 0 0 0 0 0 0 0 0 0 0 0 0 0 127 0" result="hardAlpha"/>
<feOffset dy="0.5"/>
<feGaussianBlur stdDeviation="1"/>
<feComposite in2="hardAlpha" operator="arithmetic" k2="-1" k3="1"/>
<feColorMatrix type="matrix" values="0 0 0 0 1 0 0 0 0 1 0 0 0 0 1 0 0 0 0.15 0"/>
<feBlend mode="normal" in2="shape" result="effect2_innerShadow_2078_1636"/>
</filter>
<filter id="filter2_bi_2078_1636" x="21.2551" y="13.2" width="7.54495" height="11.6" filterUnits="userSpaceOnUse" color-interpolation-filters="sRGB">
<feFlood flood-opacity="0" result="BackgroundImageFix"/>
<feGaussianBlur in="BackgroundImageFix" stdDeviation="0.9"/>
<feComposite in2="SourceAlpha" operator="in" result="effect1_backgroundBlur_2078_1636"/>
<feBlend mode="normal" in="SourceGraphic" in2="effect1_backgroundBlur_2078_1636" result="shape"/>
<feColorMatrix in="SourceAlpha" type="matrix" values="0 0 0 0 0 0 0 0 0 0 0 0 0 0 0 0 0 0 127 0" result="hardAlpha"/>
<feOffset dy="0.3"/>
<feGaussianBlur stdDeviation="0.6"/>
<feComposite in2="hardAlpha" operator="arithmetic" k2="-1" k3="1"/>
<feColorMatrix type="matrix" values="0 0 0 0 1 0 0 0 0 1 0 0 0 0 1 0 0 0 0.15 0"/>
<feBlend mode="normal" in2="shape" result="effect2_innerShadow_2078_1636"/>
</filter>
<linearGradient id="paint0_linear_2078_1636" x1="0" y1="0" x2="19.636" y2="4.96234" gradientUnits="userSpaceOnUse">
<stop stop-color="white"/>
<stop offset="1" stop-color="#4470FF"/>
</linearGradient>
<linearGradient id="paint1_linear_2078_1636" x1="0.827523" y1="8.78748" x2="14.837" y2="0.775535" gradientUnits="userSpaceOnUse">
<stop stop-color="#FFC282"/>
<stop offset="1" stop-color="#FF4980"/>
</linearGradient>
<linearGradient id="paint2_linear_2078_1636" x1="33" y1="31" x2="31.7278" y2="39.589" gradientUnits="userSpaceOnUse">
<stop stop-color="#62BDFF"/>
<stop offset="1" stop-color="#3864FF"/>
</linearGradient>
<linearGradient id="paint3_linear_2078_1636" x1="33" y1="31" x2="31.7278" y2="39.589" gradientUnits="userSpaceOnUse">
<stop stop-color="#62BDFF"/>
<stop offset="1" stop-color="#3864FF"/>
</linearGradient>
<linearGradient id="paint4_linear_2078_1636" x1="14" y1="44" x2="15.2722" y2="35.411" gradientUnits="userSpaceOnUse">
<stop stop-color="#62BDFF"/>
<stop offset="1" stop-color="#3864FF"/>
</linearGradient>
<linearGradient id="paint5_linear_2078_1636" x1="14" y1="44" x2="15.2722" y2="35.411" gradientUnits="userSpaceOnUse">
<stop stop-color="#62BDFF"/>
<stop offset="1" stop-color="#3864FF"/>
</linearGradient>
<linearGradient id="paint6_linear_2078_1636" x1="6" y1="10" x2="43.0132" y2="29.8409" gradientUnits="userSpaceOnUse">
<stop stop-color="#62BDFF"/>
<stop offset="1" stop-color="#3864FF"/>
</linearGradient>
<linearGradient id="paint7_linear_2078_1636" x1="7.1875" y1="10.8182" x2="44" y2="10.8182" gradientUnits="userSpaceOnUse">
<stop stop-color="#7EE5FF"/>
<stop offset="1" stop-color="#41A9FF"/>
</linearGradient>
<linearGradient id="paint8_linear_2078_1636" x1="22.9586" y1="15.0352" x2="27.8947" y2="15.6618" gradientUnits="userSpaceOnUse">
<stop stop-color="#62BDFF"/>
<stop offset="1" stop-color="#3864FF"/>
</linearGradient>
<linearGradient id="paint9_linear_2078_1636" x1="23.125" y1="15.3636" x2="27" y2="15.3636" gradientUnits="userSpaceOnUse">
<stop stop-color="#7EE5FF"/>
<stop offset="1" stop-color="#41A9FF"/>
</linearGradient>
</defs>
</svg>
