<svg width="24" height="24" viewBox="0 0 24 24" fill="none" xmlns="http://www.w3.org/2000/svg">
<g filter="url(#filter0_bi_3146_9421)">
<rect x="7" y="18" width="10" height="3" rx="1.06667" fill="#F1F1F1" fill-opacity="0.1"/>
<rect x="7" y="18" width="10" height="3" rx="1.06667" fill="url(#paint0_linear_3146_9421)" fill-opacity="0.2"/>
<rect x="7.07111" y="18.0711" width="9.85778" height="2.85778" rx="0.995556" stroke="url(#paint1_linear_3146_9421)" stroke-opacity="0.1" stroke-width="0.142222"/>
</g>
<g filter="url(#filter1_bi_3146_9421)">
<path d="M18.8869 9.62868L13.3869 4.33493C12.6125 3.58956 11.3875 3.58956 10.6131 4.33493L5.11306 9.62868C4.72134 10.0057 4.5 10.526 4.5 11.0697V17.5C4.5 18.6046 5.39543 19.5 6.5 19.5H17.5C18.6046 19.5 19.5 18.6046 19.5 17.5V11.0697C19.5 10.526 19.2787 10.0057 18.8869 9.62868Z" fill="#F1F1F1" fill-opacity="0.1"/>
<path d="M18.8869 9.62868L13.3869 4.33493C12.6125 3.58956 11.3875 3.58956 10.6131 4.33493L5.11306 9.62868C4.72134 10.0057 4.5 10.526 4.5 11.0697V17.5C4.5 18.6046 5.39543 19.5 6.5 19.5H17.5C18.6046 19.5 19.5 18.6046 19.5 17.5V11.0697C19.5 10.526 19.2787 10.0057 18.8869 9.62868Z" fill="url(#paint2_linear_3146_9421)"/>
<path d="M13.3573 4.36567L18.8573 9.65942C19.2407 10.0284 19.4573 10.5376 19.4573 11.0697V17.5C19.4573 18.581 18.581 19.4573 17.5 19.4573H6.5C5.41899 19.4573 4.54267 18.581 4.54267 17.5V11.0697C4.54267 10.5376 4.75929 10.0284 5.14265 9.65942L10.6427 4.36567C11.4005 3.6362 12.5995 3.6362 13.3573 4.36567Z" stroke="url(#paint3_linear_3146_9421)" stroke-opacity="0.1" stroke-width="0.0853333"/>
</g>
<g filter="url(#filter2_i_3146_9421)">
<rect x="7.5" y="15" width="9" height="3" rx="1.33333" fill="white" fill-opacity="0.1"/>
</g>
<defs>
<filter id="filter0_bi_3146_9421" x="4.86667" y="15.8667" width="14.2667" height="7.26667" filterUnits="userSpaceOnUse" color-interpolation-filters="sRGB">
<feFlood flood-opacity="0" result="BackgroundImageFix"/>
<feGaussianBlur in="BackgroundImageFix" stdDeviation="1.06667"/>
<feComposite in2="SourceAlpha" operator="in" result="effect1_backgroundBlur_3146_9421"/>
<feBlend mode="normal" in="SourceGraphic" in2="effect1_backgroundBlur_3146_9421" result="shape"/>
<feColorMatrix in="SourceAlpha" type="matrix" values="0 0 0 0 0 0 0 0 0 0 0 0 0 0 0 0 0 0 127 0" result="hardAlpha"/>
<feOffset dy="0.355556"/>
<feGaussianBlur stdDeviation="0.711111"/>
<feComposite in2="hardAlpha" operator="arithmetic" k2="-1" k3="1"/>
<feColorMatrix type="matrix" values="0 0 0 0 1 0 0 0 0 1 0 0 0 0 1 0 0 0 0.15 0"/>
<feBlend mode="normal" in2="shape" result="effect2_innerShadow_3146_9421"/>
</filter>
<filter id="filter1_bi_3146_9421" x="3.22" y="2.49588" width="17.56" height="18.2841" filterUnits="userSpaceOnUse" color-interpolation-filters="sRGB">
<feFlood flood-opacity="0" result="BackgroundImageFix"/>
<feGaussianBlur in="BackgroundImageFix" stdDeviation="0.64"/>
<feComposite in2="SourceAlpha" operator="in" result="effect1_backgroundBlur_3146_9421"/>
<feBlend mode="normal" in="SourceGraphic" in2="effect1_backgroundBlur_3146_9421" result="shape"/>
<feColorMatrix in="SourceAlpha" type="matrix" values="0 0 0 0 0 0 0 0 0 0 0 0 0 0 0 0 0 0 127 0" result="hardAlpha"/>
<feOffset dy="0.213333"/>
<feGaussianBlur stdDeviation="0.426667"/>
<feComposite in2="hardAlpha" operator="arithmetic" k2="-1" k3="1"/>
<feColorMatrix type="matrix" values="0 0 0 0 1 0 0 0 0 1 0 0 0 0 1 0 0 0 0.15 0"/>
<feBlend mode="normal" in2="shape" result="effect2_innerShadow_3146_9421"/>
</filter>
<filter id="filter2_i_3146_9421" x="7.5" y="15" width="9" height="3.66667" filterUnits="userSpaceOnUse" color-interpolation-filters="sRGB">
<feFlood flood-opacity="0" result="BackgroundImageFix"/>
<feBlend mode="normal" in="SourceGraphic" in2="BackgroundImageFix" result="shape"/>
<feColorMatrix in="SourceAlpha" type="matrix" values="0 0 0 0 0 0 0 0 0 0 0 0 0 0 0 0 0 0 127 0" result="hardAlpha"/>
<feOffset dy="0.666667"/>
<feGaussianBlur stdDeviation="0.333333"/>
<feComposite in2="hardAlpha" operator="arithmetic" k2="-1" k3="1"/>
<feColorMatrix type="matrix" values="0 0 0 0 1 0 0 0 0 1 0 0 0 0 1 0 0 0 0.5 0"/>
<feBlend mode="normal" in2="shape" result="effect1_innerShadow_3146_9421"/>
</filter>
<linearGradient id="paint0_linear_3146_9421" x1="7" y1="18" x2="14.3056" y2="24.1834" gradientUnits="userSpaceOnUse">
<stop stop-color="#82E8FF"/>
<stop offset="1" stop-color="#379FFF"/>
</linearGradient>
<linearGradient id="paint1_linear_3146_9421" x1="7.3125" y1="18.1364" x2="17" y2="18.1364" gradientUnits="userSpaceOnUse">
<stop stop-color="#7EE5FF"/>
<stop offset="1" stop-color="#41A9FF"/>
</linearGradient>
<linearGradient id="paint2_linear_3146_9421" x1="4.5" y1="3" x2="22.3573" y2="7.12208" gradientUnits="userSpaceOnUse">
<stop stop-color="#62BDFF"/>
<stop offset="1" stop-color="#3864FF"/>
</linearGradient>
<linearGradient id="paint3_linear_3146_9421" x1="4.96875" y1="3.75" x2="19.5" y2="3.75" gradientUnits="userSpaceOnUse">
<stop stop-color="#7EE5FF"/>
<stop offset="1" stop-color="#41A9FF"/>
</linearGradient>
</defs>
</svg>
