<svg width="24" height="24" viewBox="0 0 24 24" fill="none" xmlns="http://www.w3.org/2000/svg">
<g filter="url(#filter0_bi_2187_517)">
<rect x="7.00005" y="18" width="10" height="3" rx="1.06667" fill="#F1F1F1" fill-opacity="0.1"/>
<rect x="7.00005" y="18" width="10" height="3" rx="1.06667" fill="url(#paint0_linear_2187_517)" fill-opacity="0.2"/>
<rect x="7.07116" y="18.0711" width="9.85778" height="2.85778" rx="0.995556" stroke="url(#paint1_linear_2187_517)" stroke-opacity="0.1" stroke-width="0.142222"/>
</g>
<g filter="url(#filter1_bi_2187_517)">
<path d="M19.173 9.90405L12.7397 3.71196C12.3267 3.31443 11.6733 3.31443 11.2603 3.71196L4.82694 9.90404C4.61802 10.1051 4.49997 10.3826 4.49997 10.6726V18.4333C4.49997 19.0224 4.97753 19.5 5.56664 19.5H18.4333C19.0224 19.5 19.5 19.0224 19.5 18.4333V10.6726C19.5 10.3826 19.3819 10.1051 19.173 9.90405Z" fill="#F1F1F1" fill-opacity="0.1"/>
<path d="M19.173 9.90405L12.7397 3.71196C12.3267 3.31443 11.6733 3.31443 11.2603 3.71196L4.82694 9.90404C4.61802 10.1051 4.49997 10.3826 4.49997 10.6726V18.4333C4.49997 19.0224 4.97753 19.5 5.56664 19.5H18.4333C19.0224 19.5 19.5 19.0224 19.5 18.4333V10.6726C19.5 10.3826 19.3819 10.1051 19.173 9.90405Z" fill="url(#paint2_linear_2187_517)" fill-opacity="0.2"/>
<path d="M12.6904 3.7632L19.1237 9.95528C19.3187 10.143 19.4289 10.4019 19.4289 10.6726V18.4333C19.4289 18.9832 18.9831 19.4289 18.4333 19.4289H5.56664C5.01681 19.4289 4.57108 18.9832 4.57108 18.4333V10.6726C4.57108 10.4019 4.68126 10.143 4.87625 9.95528L11.3096 3.7632C11.6951 3.39217 12.3049 3.39217 12.6904 3.7632Z" stroke="url(#paint3_linear_2187_517)" stroke-opacity="0.1" stroke-width="0.142222"/>
</g>
<g filter="url(#filter2_i_2187_517)">
<rect x="7.5" y="15" width="9" height="3" rx="1.33333" fill="white" fill-opacity="0.1"/>
</g>
<defs>
<filter id="filter0_bi_2187_517" x="4.86671" y="15.8667" width="14.2667" height="7.26667" filterUnits="userSpaceOnUse" color-interpolation-filters="sRGB">
<feFlood flood-opacity="0" result="BackgroundImageFix"/>
<feGaussianBlur in="BackgroundImageFix" stdDeviation="1.06667"/>
<feComposite in2="SourceAlpha" operator="in" result="effect1_backgroundBlur_2187_517"/>
<feBlend mode="normal" in="SourceGraphic" in2="effect1_backgroundBlur_2187_517" result="shape"/>
<feColorMatrix in="SourceAlpha" type="matrix" values="0 0 0 0 0 0 0 0 0 0 0 0 0 0 0 0 0 0 127 0" result="hardAlpha"/>
<feOffset dy="0.355556"/>
<feGaussianBlur stdDeviation="0.711111"/>
<feComposite in2="hardAlpha" operator="arithmetic" k2="-1" k3="1"/>
<feColorMatrix type="matrix" values="0 0 0 0 1 0 0 0 0 1 0 0 0 0 1 0 0 0 0.15 0"/>
<feBlend mode="normal" in2="shape" result="effect2_innerShadow_2187_517"/>
</filter>
<filter id="filter1_bi_2187_517" x="2.36664" y="1.28048" width="19.2667" height="20.3528" filterUnits="userSpaceOnUse" color-interpolation-filters="sRGB">
<feFlood flood-opacity="0" result="BackgroundImageFix"/>
<feGaussianBlur in="BackgroundImageFix" stdDeviation="1.06667"/>
<feComposite in2="SourceAlpha" operator="in" result="effect1_backgroundBlur_2187_517"/>
<feBlend mode="normal" in="SourceGraphic" in2="effect1_backgroundBlur_2187_517" result="shape"/>
<feColorMatrix in="SourceAlpha" type="matrix" values="0 0 0 0 0 0 0 0 0 0 0 0 0 0 0 0 0 0 127 0" result="hardAlpha"/>
<feOffset dy="0.355556"/>
<feGaussianBlur stdDeviation="0.711111"/>
<feComposite in2="hardAlpha" operator="arithmetic" k2="-1" k3="1"/>
<feColorMatrix type="matrix" values="0 0 0 0 1 0 0 0 0 1 0 0 0 0 1 0 0 0 0.15 0"/>
<feBlend mode="normal" in2="shape" result="effect2_innerShadow_2187_517"/>
</filter>
<filter id="filter2_i_2187_517" x="7.5" y="15" width="9" height="3.66667" filterUnits="userSpaceOnUse" color-interpolation-filters="sRGB">
<feFlood flood-opacity="0" result="BackgroundImageFix"/>
<feBlend mode="normal" in="SourceGraphic" in2="BackgroundImageFix" result="shape"/>
<feColorMatrix in="SourceAlpha" type="matrix" values="0 0 0 0 0 0 0 0 0 0 0 0 0 0 0 0 0 0 127 0" result="hardAlpha"/>
<feOffset dy="0.666667"/>
<feGaussianBlur stdDeviation="0.333333"/>
<feComposite in2="hardAlpha" operator="arithmetic" k2="-1" k3="1"/>
<feColorMatrix type="matrix" values="0 0 0 0 1 0 0 0 0 1 0 0 0 0 1 0 0 0 0.5 0"/>
<feBlend mode="normal" in2="shape" result="effect1_innerShadow_2187_517"/>
</filter>
<linearGradient id="paint0_linear_2187_517" x1="7.00005" y1="18" x2="14.3056" y2="24.1834" gradientUnits="userSpaceOnUse">
<stop stop-color="#82E8FF"/>
<stop offset="1" stop-color="#379FFF"/>
</linearGradient>
<linearGradient id="paint1_linear_2187_517" x1="7.31255" y1="18.1364" x2="17" y2="18.1364" gradientUnits="userSpaceOnUse">
<stop stop-color="#7EE5FF"/>
<stop offset="1" stop-color="#41A9FF"/>
</linearGradient>
<linearGradient id="paint2_linear_2187_517" x1="4.49997" y1="3" x2="22.3572" y2="7.12208" gradientUnits="userSpaceOnUse">
<stop stop-color="#82E8FF"/>
<stop offset="1" stop-color="#379FFF"/>
</linearGradient>
<linearGradient id="paint3_linear_2187_517" x1="4.96872" y1="3.75" x2="19.5" y2="3.75" gradientUnits="userSpaceOnUse">
<stop stop-color="#7EE5FF"/>
<stop offset="1" stop-color="#41A9FF"/>
</linearGradient>
</defs>
</svg>
