<svg width="48" height="48" viewBox="0 0 48 48" fill="none" xmlns="http://www.w3.org/2000/svg">
<g filter="url(#filter0_bii_2078_630)">
<mask id="path-2-inside-1_2078_630" fill="white">
<path fill-rule="evenodd" clip-rule="evenodd" d="M34.9178 41.9994C40.4404 41.9994 44.9542 37.5224 44.9997 31.9997C45.0451 26.477 40.6049 22 35.0822 22C29.5596 22 25.0458 26.477 25.0003 31.9997C24.9549 37.5224 29.3951 41.9994 34.9178 41.9994ZM38.5121 28.55C38.1285 28.0885 37.4663 28.0509 37.033 28.4661L31.42 33.8438C30.9867 34.2589 30.9464 34.9695 31.3299 35.431C31.7135 35.8925 32.3757 35.9301 32.809 35.5149L38.422 30.1372C38.8553 29.7221 38.8956 29.0115 38.5121 28.55ZM33.5338 29.0255C33.5338 29.6938 33.0292 30.2356 32.4067 30.2356C31.7842 30.2356 31.2796 29.6938 31.2796 29.0255C31.2796 28.3572 31.7842 27.8154 32.4067 27.8154C33.0292 27.8154 33.5338 28.3572 33.5338 29.0255ZM37.3579 36.2859C37.9803 36.2859 38.4849 35.7441 38.4849 35.0758C38.4849 34.4075 37.9803 33.8657 37.3579 33.8657C36.7354 33.8657 36.2308 34.4075 36.2308 35.0758C36.2308 35.7441 36.7354 36.2859 37.3579 36.2859Z"/>
</mask>
<path fill-rule="evenodd" clip-rule="evenodd" d="M34.9178 41.9994C40.4404 41.9994 44.9542 37.5224 44.9997 31.9997C45.0451 26.477 40.6049 22 35.0822 22C29.5596 22 25.0458 26.477 25.0003 31.9997C24.9549 37.5224 29.3951 41.9994 34.9178 41.9994ZM38.5121 28.55C38.1285 28.0885 37.4663 28.0509 37.033 28.4661L31.42 33.8438C30.9867 34.2589 30.9464 34.9695 31.3299 35.431C31.7135 35.8925 32.3757 35.9301 32.809 35.5149L38.422 30.1372C38.8553 29.7221 38.8956 29.0115 38.5121 28.55ZM33.5338 29.0255C33.5338 29.6938 33.0292 30.2356 32.4067 30.2356C31.7842 30.2356 31.2796 29.6938 31.2796 29.0255C31.2796 28.3572 31.7842 27.8154 32.4067 27.8154C33.0292 27.8154 33.5338 28.3572 33.5338 29.0255ZM37.3579 36.2859C37.9803 36.2859 38.4849 35.7441 38.4849 35.0758C38.4849 34.4075 37.9803 33.8657 37.3579 33.8657C36.7354 33.8657 36.2308 34.4075 36.2308 35.0758C36.2308 35.7441 36.7354 36.2859 37.3579 36.2859Z" fill="url(#paint0_linear_2078_630)"/>
<path d="M44.9997 31.9997L45.2663 32.0019L44.9997 31.9997ZM25.0003 31.9997L25.267 32.0019L25.0003 31.9997ZM37.033 28.4661L36.8486 28.2735L37.033 28.4661ZM38.5121 28.55L38.307 28.7204V28.7205L38.5121 28.55ZM31.42 33.8438L31.6045 34.0363L31.42 33.8438ZM31.3299 35.431L31.535 35.2606L31.3299 35.431ZM32.809 35.5149L32.9934 35.7075H32.9934L32.809 35.5149ZM38.422 30.1372L38.2375 29.9447V29.9447L38.422 30.1372ZM44.733 31.9975C44.6888 37.3738 40.294 41.7327 34.9178 41.7327V42.2661C40.5869 42.2661 45.2197 37.671 45.2663 32.0019L44.733 31.9975ZM35.0822 22.2667C40.4567 22.2667 44.7772 26.6229 44.733 31.9975L45.2663 32.0019C45.3129 26.3311 40.753 21.7333 35.0822 21.7333V22.2667ZM25.267 32.0019C25.3112 26.6256 29.706 22.2667 35.0822 22.2667V21.7333C29.4131 21.7333 24.7803 26.3284 24.7337 31.9975L25.267 32.0019ZM34.9178 41.7327C29.5433 41.7327 25.2228 37.3765 25.267 32.0019L24.7337 31.9975C24.6871 37.6683 29.247 42.2661 34.9178 42.2661V41.7327ZM37.2175 28.6586C37.5391 28.3505 38.0223 28.3779 38.307 28.7204L38.7172 28.3796C38.2347 27.7991 37.3935 27.7514 36.8486 28.2735L37.2175 28.6586ZM31.6045 34.0363L37.2175 28.6586L36.8486 28.2735L31.2355 33.6512L31.6045 34.0363ZM31.535 35.2606C31.2409 34.9067 31.2722 34.3546 31.6045 34.0363L31.2355 33.6512C30.7011 34.1632 30.6518 35.0323 31.1248 35.6015L31.535 35.2606ZM32.6245 35.3224C32.3029 35.6305 31.8197 35.6031 31.535 35.2606L31.1248 35.6015C31.6073 36.1819 32.4484 36.2296 32.9934 35.7075L32.6245 35.3224ZM38.2375 29.9447L32.6245 35.3224L32.9934 35.7075L38.6065 30.3298L38.2375 29.9447ZM38.307 28.7205C38.6011 29.0743 38.5697 29.6264 38.2375 29.9447L38.6065 30.3298C39.1409 29.8178 39.1902 28.9487 38.7172 28.3795L38.307 28.7205ZM32.4067 30.5022C33.194 30.5022 33.8004 29.8229 33.8004 29.0255H33.2671C33.2671 29.5647 32.8644 29.9689 32.4067 29.9689V30.5022ZM31.013 29.0255C31.013 29.8229 31.6194 30.5022 32.4067 30.5022V29.9689C31.949 29.9689 31.5463 29.5647 31.5463 29.0255H31.013ZM32.4067 27.5488C31.6194 27.5488 31.013 28.2281 31.013 29.0255H31.5463C31.5463 28.4863 31.949 28.0821 32.4067 28.0821V27.5488ZM33.8004 29.0255C33.8004 28.2281 33.194 27.5488 32.4067 27.5488V28.0821C32.8644 28.0821 33.2671 28.4863 33.2671 29.0255H33.8004ZM38.2183 35.0758C38.2183 35.615 37.8155 36.0192 37.3579 36.0192V36.5525C38.1451 36.5525 38.7516 35.8732 38.7516 35.0758H38.2183ZM37.3579 34.1324C37.8155 34.1324 38.2183 34.5366 38.2183 35.0758H38.7516C38.7516 34.2784 38.1451 33.599 37.3579 33.599V34.1324ZM36.4975 35.0758C36.4975 34.5366 36.9002 34.1324 37.3579 34.1324V33.599C36.5706 33.599 35.9641 34.2784 35.9641 35.0758H36.4975ZM37.3579 36.0192C36.9002 36.0192 36.4975 35.615 36.4975 35.0758H35.9641C35.9641 35.8732 36.5706 36.5525 37.3579 36.5525V36.0192Z" fill="url(#paint1_linear_2078_630)" fill-opacity="0.1" mask="url(#path-2-inside-1_2078_630)"/>
</g>
<g filter="url(#filter1_bii_2078_630)">
<mask id="path-4-inside-2_2078_630" fill="white">
<path fill-rule="evenodd" clip-rule="evenodd" d="M12.9178 26C18.4404 26 22.9542 21.5229 22.9997 16C23.0451 10.4772 18.6049 6 13.0822 6C7.55957 6 3.04576 10.4772 3.00035 16C2.95493 21.5229 7.39511 26 12.9178 26ZM16.3246 16.5143C16.4802 16.7587 16.5787 17.034 16.6128 17.3203C16.6413 17.5534 16.6568 17.788 16.6592 18.0228C16.6289 18.5879 16.4001 19.1252 16.0116 19.5434C15.7317 19.8397 15.3988 20.083 15.0293 20.2611C14.5739 20.4789 14.0808 20.6095 13.5763 20.6462C13.5052 20.6514 13.4489 20.7097 13.4489 20.7811V21.3352C13.4489 21.5449 13.279 21.7148 13.0693 21.7148C12.8597 21.7148 12.6897 21.5449 12.6897 21.3352V20.7811C12.6897 20.7051 12.6289 20.6434 12.5531 20.6389C11.7734 20.593 11.0306 20.2903 10.4463 19.7776C10.086 19.4322 9.82767 18.9771 9.67128 18.4122C9.62885 18.259 9.60763 18.1823 9.6159 18.0771C9.6324 17.8669 9.8111 17.6321 10.0092 17.5601C10.1085 17.524 10.2121 17.524 10.4193 17.524H10.7054C11.0387 17.524 11.2917 17.8201 11.3958 18.1367C11.4608 18.3342 11.5657 18.5168 11.7043 18.6736C11.9669 18.948 12.5175 19.2028 12.6897 19.1997C12.8345 19.1972 12.7359 17.3431 12.7008 16.7514C12.6943 16.6414 12.6256 16.5434 12.5193 16.5143C12.4449 16.493 12.3675 16.4748 12.2807 16.4566C11.9708 16.3653 11.661 16.265 11.3511 16.1524C11.0531 16.0442 10.774 15.8913 10.5237 15.6993C10.2808 15.5097 10.0821 15.2712 9.94116 14.9998C9.78593 14.6705 9.71163 14.3101 9.72425 13.9475C9.71408 13.5753 9.79058 13.2056 9.94791 12.8668C10.1052 12.5279 10.3393 12.2287 10.6322 11.992C10.9152 11.7652 11.2374 11.5901 11.5835 11.475C11.7616 11.4145 12.0367 11.3795 12.2688 11.3501C12.5046 11.3201 12.6959 11.2959 12.6959 11.256V10.6655C12.6959 10.4558 12.8659 10.2859 13.0755 10.2859C13.2852 10.2859 13.4551 10.4558 13.4551 10.6655V11.256C13.4551 11.3035 13.6585 11.3339 13.9019 11.3702C14.1205 11.4028 14.3715 11.4403 14.5366 11.4993C14.8625 11.6138 15.1648 11.7848 15.429 12.0042C15.6887 12.2268 15.8996 12.499 16.0488 12.804C16.086 12.8801 16.1196 12.9577 16.1496 13.0364C16.2054 13.1826 16.2332 13.2558 16.2181 13.3985C16.2005 13.565 16.0423 13.7947 15.8929 13.8704C15.765 13.9354 15.6465 13.9354 15.4095 13.9354C15.211 13.9354 15.1117 13.9354 15.048 13.9213C14.9675 13.9036 14.938 13.8999 14.9125 13.8876C14.887 13.8754 14.8655 13.8547 14.8013 13.8032C14.7504 13.7623 14.5741 13.543 14.2214 13.1044L14.2213 13.1044C14.215 13.0964 14.2085 13.0886 14.2019 13.0808C14.1131 12.9707 14.0001 12.8818 13.8713 12.8207C13.6583 12.7197 13.4582 12.9191 13.4582 13.1548V14.6351C13.4582 14.8225 13.5862 14.9856 13.7681 15.0302L14.109 15.1184C14.6303 15.2366 15.1251 15.4479 15.5685 15.7419C15.8712 15.9465 16.1284 16.2093 16.3246 16.5143ZM11.8128 14.422C12.0742 14.6094 12.6959 14.8976 12.6959 14.7869C12.6959 14.7096 12.6944 13.7348 12.6935 13.1546C12.6931 12.9188 12.4978 12.7227 12.2714 12.7888C12.136 12.8314 12.0099 12.8984 11.8996 12.9865C11.7874 13.0736 11.6973 13.185 11.6362 13.3119C11.5686 13.4557 11.5358 13.6129 11.5401 13.7711C11.532 13.8928 11.5523 14.0148 11.5996 14.1276C11.6469 14.2404 11.7198 14.3411 11.8128 14.422ZM14.7078 18.4982C14.7093 18.4956 14.7101 18.4926 14.7101 18.4895C14.7101 18.4866 14.7109 18.4837 14.7123 18.4811C14.7994 18.3197 14.8415 18.1385 14.8341 17.9559C14.8451 17.8179 14.8228 17.6794 14.7689 17.5515C14.7151 17.4236 14.6312 17.31 14.5242 17.2199C14.204 17.0099 13.4706 16.5721 13.4706 16.7789V19.2028C13.4706 19.2783 13.6726 19.2011 13.8344 19.1394C13.8777 19.1229 13.9181 19.1074 13.9509 19.0963C14.1129 19.0446 14.2648 18.9665 14.4003 18.8652C14.5242 18.7618 14.6284 18.6375 14.7078 18.4982Z"/>
</mask>
<path fill-rule="evenodd" clip-rule="evenodd" d="M12.9178 26C18.4404 26 22.9542 21.5229 22.9997 16C23.0451 10.4772 18.6049 6 13.0822 6C7.55957 6 3.04576 10.4772 3.00035 16C2.95493 21.5229 7.39511 26 12.9178 26ZM16.3246 16.5143C16.4802 16.7587 16.5787 17.034 16.6128 17.3203C16.6413 17.5534 16.6568 17.788 16.6592 18.0228C16.6289 18.5879 16.4001 19.1252 16.0116 19.5434C15.7317 19.8397 15.3988 20.083 15.0293 20.2611C14.5739 20.4789 14.0808 20.6095 13.5763 20.6462C13.5052 20.6514 13.4489 20.7097 13.4489 20.7811V21.3352C13.4489 21.5449 13.279 21.7148 13.0693 21.7148C12.8597 21.7148 12.6897 21.5449 12.6897 21.3352V20.7811C12.6897 20.7051 12.6289 20.6434 12.5531 20.6389C11.7734 20.593 11.0306 20.2903 10.4463 19.7776C10.086 19.4322 9.82767 18.9771 9.67128 18.4122C9.62885 18.259 9.60763 18.1823 9.6159 18.0771C9.6324 17.8669 9.8111 17.6321 10.0092 17.5601C10.1085 17.524 10.2121 17.524 10.4193 17.524H10.7054C11.0387 17.524 11.2917 17.8201 11.3958 18.1367C11.4608 18.3342 11.5657 18.5168 11.7043 18.6736C11.9669 18.948 12.5175 19.2028 12.6897 19.1997C12.8345 19.1972 12.7359 17.3431 12.7008 16.7514C12.6943 16.6414 12.6256 16.5434 12.5193 16.5143C12.4449 16.493 12.3675 16.4748 12.2807 16.4566C11.9708 16.3653 11.661 16.265 11.3511 16.1524C11.0531 16.0442 10.774 15.8913 10.5237 15.6993C10.2808 15.5097 10.0821 15.2712 9.94116 14.9998C9.78593 14.6705 9.71163 14.3101 9.72425 13.9475C9.71408 13.5753 9.79058 13.2056 9.94791 12.8668C10.1052 12.5279 10.3393 12.2287 10.6322 11.992C10.9152 11.7652 11.2374 11.5901 11.5835 11.475C11.7616 11.4145 12.0367 11.3795 12.2688 11.3501C12.5046 11.3201 12.6959 11.2959 12.6959 11.256V10.6655C12.6959 10.4558 12.8659 10.2859 13.0755 10.2859C13.2852 10.2859 13.4551 10.4558 13.4551 10.6655V11.256C13.4551 11.3035 13.6585 11.3339 13.9019 11.3702C14.1205 11.4028 14.3715 11.4403 14.5366 11.4993C14.8625 11.6138 15.1648 11.7848 15.429 12.0042C15.6887 12.2268 15.8996 12.499 16.0488 12.804C16.086 12.8801 16.1196 12.9577 16.1496 13.0364C16.2054 13.1826 16.2332 13.2558 16.2181 13.3985C16.2005 13.565 16.0423 13.7947 15.8929 13.8704C15.765 13.9354 15.6465 13.9354 15.4095 13.9354C15.211 13.9354 15.1117 13.9354 15.048 13.9213C14.9675 13.9036 14.938 13.8999 14.9125 13.8876C14.887 13.8754 14.8655 13.8547 14.8013 13.8032C14.7504 13.7623 14.5741 13.543 14.2214 13.1044L14.2213 13.1044C14.215 13.0964 14.2085 13.0886 14.2019 13.0808C14.1131 12.9707 14.0001 12.8818 13.8713 12.8207C13.6583 12.7197 13.4582 12.9191 13.4582 13.1548V14.6351C13.4582 14.8225 13.5862 14.9856 13.7681 15.0302L14.109 15.1184C14.6303 15.2366 15.1251 15.4479 15.5685 15.7419C15.8712 15.9465 16.1284 16.2093 16.3246 16.5143ZM11.8128 14.422C12.0742 14.6094 12.6959 14.8976 12.6959 14.7869C12.6959 14.7096 12.6944 13.7348 12.6935 13.1546C12.6931 12.9188 12.4978 12.7227 12.2714 12.7888C12.136 12.8314 12.0099 12.8984 11.8996 12.9865C11.7874 13.0736 11.6973 13.185 11.6362 13.3119C11.5686 13.4557 11.5358 13.6129 11.5401 13.7711C11.532 13.8928 11.5523 14.0148 11.5996 14.1276C11.6469 14.2404 11.7198 14.3411 11.8128 14.422ZM14.7078 18.4982C14.7093 18.4956 14.7101 18.4926 14.7101 18.4895C14.7101 18.4866 14.7109 18.4837 14.7123 18.4811C14.7994 18.3197 14.8415 18.1385 14.8341 17.9559C14.8451 17.8179 14.8228 17.6794 14.7689 17.5515C14.7151 17.4236 14.6312 17.31 14.5242 17.2199C14.204 17.0099 13.4706 16.5721 13.4706 16.7789V19.2028C13.4706 19.2783 13.6726 19.2011 13.8344 19.1394C13.8777 19.1229 13.9181 19.1074 13.9509 19.0963C14.1129 19.0446 14.2648 18.9665 14.4003 18.8652C14.5242 18.7618 14.6284 18.6375 14.7078 18.4982Z" fill="url(#paint2_linear_2078_630)"/>
<path d="M22.9997 16L23.2663 16.0022L22.9997 16ZM3.00035 16L3.267 16.0022L3.00035 16ZM16.6128 17.3203L16.348 17.3518L16.3481 17.3527L16.6128 17.3203ZM16.3246 16.5143L16.5495 16.3711L16.5489 16.3701L16.3246 16.5143ZM16.6592 18.0228L16.9255 18.0371L16.926 18.0286L16.9259 18.02L16.6592 18.0228ZM16.0116 19.5434L16.2055 19.7265L16.207 19.7249L16.0116 19.5434ZM15.0293 20.2611L15.1443 20.5017L15.1451 20.5013L15.0293 20.2611ZM13.5763 20.6462L13.5957 20.9122H13.5957L13.5763 20.6462ZM12.5531 20.6389L12.5688 20.3727L12.5688 20.3727L12.5531 20.6389ZM10.4463 19.7776L10.2615 19.9703L10.2704 19.978L10.4463 19.7776ZM9.67128 18.4122L9.92828 18.3411L9.67128 18.4122ZM9.6159 18.0771L9.88175 18.0979V18.0979L9.6159 18.0771ZM10.0092 17.5601L9.91814 17.3094H9.91813L10.0092 17.5601ZM11.3958 18.1367L11.1425 18.22V18.22L11.3958 18.1367ZM11.7043 18.6736L11.5044 18.8504L11.5117 18.858L11.7043 18.6736ZM12.6897 19.1997L12.6945 19.4664H12.6945L12.6897 19.1997ZM12.7008 16.7514L12.967 16.7355V16.7355L12.7008 16.7514ZM12.5193 16.5143L12.4459 16.7707L12.4489 16.7715L12.5193 16.5143ZM12.2807 16.4566L12.2054 16.7124L12.2155 16.7153L12.2258 16.7175L12.2807 16.4566ZM11.3511 16.1524L11.2601 16.4031L11.2601 16.4031L11.3511 16.1524ZM10.5237 15.6993L10.3597 15.9095L10.3614 15.9108L10.5237 15.6993ZM9.94116 14.9998L9.69978 15.1136L9.70451 15.1227L9.94116 14.9998ZM9.72425 13.9475L9.99075 13.9568L9.99104 13.9485L9.99081 13.9403L9.72425 13.9475ZM10.6322 11.992L10.4654 11.7839L10.4646 11.7846L10.6322 11.992ZM11.5835 11.475L11.6677 11.728L11.6694 11.7275L11.5835 11.475ZM12.2688 11.3501L12.3024 11.6146H12.3024L12.2688 11.3501ZM13.9019 11.3702L13.9413 11.1065L13.9413 11.1065L13.9019 11.3702ZM14.5366 11.4993L14.4468 11.7504L14.4483 11.7509L14.5366 11.4993ZM15.429 12.0042L15.6026 11.8017L15.5994 11.799L15.429 12.0042ZM16.0488 12.804L16.2884 12.6869L16.2883 12.6869L16.0488 12.804ZM16.1496 13.0364L15.9004 13.1314L15.9004 13.1314L16.1496 13.0364ZM16.2181 13.3985L15.953 13.3704V13.3704L16.2181 13.3985ZM15.8929 13.8704L16.0136 14.1083H16.0136L15.8929 13.8704ZM15.048 13.9213L15.1053 13.6609L15.048 13.9213ZM14.9125 13.8876L15.0277 13.6471L15.0277 13.6471L14.9125 13.8876ZM14.8013 13.8032L14.6343 14.0111L14.8013 13.8032ZM14.2214 13.1044L14.4292 12.9373L14.428 12.9358L14.2214 13.1044ZM14.2213 13.1044L14.0135 13.2715L14.0148 13.273L14.2213 13.1044ZM14.2019 13.0808L13.9944 13.2483L13.998 13.2526L14.2019 13.0808ZM13.8713 12.8207L13.757 13.0617L13.8713 12.8207ZM13.7681 15.0302L13.8349 14.772L13.8317 14.7712L13.7681 15.0302ZM14.109 15.1184L14.0421 15.3767L14.05 15.3785L14.109 15.1184ZM15.5685 15.7419L15.7178 15.5209L15.7158 15.5196L15.5685 15.7419ZM11.8128 14.422L11.6378 14.6232L11.6472 14.6314L11.6574 14.6387L11.8128 14.422ZM12.6935 13.1546L12.4269 13.1551V13.1551L12.6935 13.1546ZM12.2714 12.7888L12.1966 12.5328L12.1915 12.5344L12.2714 12.7888ZM11.8996 12.9865L12.0632 13.1971L12.0659 13.1949L11.8996 12.9865ZM11.6362 13.3119L11.3959 13.1962L11.3948 13.1986L11.6362 13.3119ZM11.5401 13.7711L11.8062 13.7889L11.807 13.7764L11.8067 13.7638L11.5401 13.7711ZM11.5996 14.1276L11.8456 14.0245L11.5996 14.1276ZM14.7078 18.4982L14.4762 18.3661L14.4762 18.3661L14.7078 18.4982ZM14.7123 18.4811L14.4776 18.3544L14.4776 18.3544L14.7123 18.4811ZM14.8341 17.9559L14.5683 17.9346L14.567 17.9506L14.5676 17.9667L14.8341 17.9559ZM14.7689 17.5515L14.5232 17.655V17.655L14.7689 17.5515ZM14.5242 17.2199L14.6959 17.0159L14.6837 17.0056L14.6704 16.9969L14.5242 17.2199ZM13.8344 19.1394L13.9295 19.3885L13.9295 19.3885L13.8344 19.1394ZM13.9509 19.0963L13.8698 18.8423L13.8656 18.8437L13.9509 19.0963ZM14.4003 18.8652L14.5599 19.0788L14.5656 19.0745L14.571 19.07L14.4003 18.8652ZM22.733 15.9978C22.6888 21.3743 18.294 25.7333 12.9178 25.7333V26.2667C18.5869 26.2667 23.2197 21.6714 23.2663 16.0022L22.733 15.9978ZM13.0822 6.26667C18.4567 6.26667 22.7772 10.6231 22.733 15.9978L23.2663 16.0022C23.3129 10.3312 18.753 5.73333 13.0822 5.73333V6.26667ZM3.267 16.0022C3.31121 10.6257 7.70601 6.26667 13.0822 6.26667V5.73333C7.41314 5.73333 2.78031 10.3286 2.73369 15.9978L3.267 16.0022ZM12.9178 25.7333C7.54326 25.7333 3.22281 21.3769 3.267 16.0022L2.73369 15.9978C2.68706 21.6688 7.24696 26.2667 12.9178 26.2667V25.7333ZM16.8776 17.2887C16.8387 16.9625 16.7266 16.6491 16.5495 16.3711L16.0997 16.6576C16.2339 16.8684 16.3186 17.1055 16.348 17.3518L16.8776 17.2887ZM16.9259 18.02C16.9234 17.7753 16.9072 17.5309 16.8775 17.2879L16.3481 17.3527C16.3754 17.576 16.3903 17.8006 16.3926 18.0256L16.9259 18.02ZM16.207 19.7249C16.6375 19.2614 16.8918 18.6651 16.9255 18.0371L16.393 18.0085C16.366 18.5107 16.1626 18.989 15.8162 19.3619L16.207 19.7249ZM15.1451 20.5013C15.5437 20.3092 15.9031 20.0466 16.2055 19.7265L15.8177 19.3603C15.5603 19.6328 15.2539 19.8568 14.9135 20.0209L15.1451 20.5013ZM13.5957 20.9122C14.1332 20.873 14.6588 20.7339 15.1443 20.5017L14.9143 20.0206C14.489 20.2239 14.0283 20.3459 13.557 20.3802L13.5957 20.9122ZM13.7156 20.7811C13.7156 20.8548 13.6587 20.9076 13.5957 20.9122L13.557 20.3802C13.3518 20.3952 13.1823 20.5647 13.1823 20.7811H13.7156ZM13.7156 21.3352V20.7811H13.1823V21.3352H13.7156ZM13.0693 21.9815C13.4263 21.9815 13.7156 21.6922 13.7156 21.3352H13.1823C13.1823 21.3976 13.1317 21.4482 13.0693 21.4482V21.9815ZM12.4231 21.3352C12.4231 21.6922 12.7124 21.9815 13.0693 21.9815V21.4482C13.007 21.4482 12.9564 21.3976 12.9564 21.3352H12.4231ZM12.4231 20.7811V21.3352H12.9564V20.7811H12.4231ZM12.5374 20.9051C12.4789 20.9017 12.4231 20.8528 12.4231 20.7811H12.9564C12.9564 20.5574 12.779 20.3851 12.5688 20.3727L12.5374 20.9051ZM10.2704 19.978C10.8998 20.5302 11.6991 20.8558 12.5374 20.9051L12.5688 20.3727C11.8477 20.3303 11.1614 20.0503 10.6221 19.5771L10.2704 19.978ZM9.41428 18.4834C9.58122 19.0864 9.8612 19.5861 10.2617 19.9701L10.6308 19.5851C10.3108 19.2783 10.0741 18.8679 9.92828 18.3411L9.41428 18.4834ZM9.35005 18.0562C9.33749 18.2161 9.37415 18.3384 9.41428 18.4834L9.92828 18.3411C9.88355 18.1795 9.87778 18.1485 9.88175 18.0979L9.35005 18.0562ZM9.91813 17.3094C9.75986 17.3669 9.62667 17.4811 9.53222 17.6053C9.43776 17.7295 9.36324 17.8883 9.35005 18.0562L9.88175 18.0979C9.88507 18.0557 9.90814 17.992 9.95668 17.9282C10.0052 17.8644 10.0604 17.8252 10.1002 17.8107L9.91813 17.3094ZM10.4193 17.2574C10.2297 17.2574 10.0714 17.2538 9.91814 17.3094L10.1002 17.8107C10.1455 17.7943 10.1945 17.7907 10.4193 17.7907V17.2574ZM10.7054 17.2574H10.4193V17.7907H10.7054V17.2574ZM11.6492 18.0534C11.5301 17.6912 11.2092 17.2574 10.7054 17.2574V17.7907C10.8682 17.7907 11.0534 17.9489 11.1425 18.22L11.6492 18.0534ZM11.9041 18.497C11.7894 18.3672 11.7027 18.2162 11.6492 18.0534L11.1425 18.22C11.2189 18.4522 11.3421 18.6665 11.5046 18.8502L11.9041 18.497ZM12.685 18.9331C12.692 18.933 12.6631 18.9317 12.5875 18.9055C12.521 18.8824 12.4391 18.8474 12.3518 18.803C12.1727 18.7119 11.999 18.5958 11.897 18.4892L11.5117 18.858C11.6723 19.0258 11.9052 19.1743 12.1101 19.2784C12.2148 19.3317 12.3192 19.3769 12.4126 19.4093C12.4968 19.4386 12.6013 19.468 12.6945 19.4664L12.685 18.9331ZM12.4346 16.7672C12.4521 17.0623 12.4853 17.6695 12.4961 18.2019C12.5016 18.4693 12.5012 18.7113 12.4913 18.884C12.4862 18.9724 12.4791 19.0309 12.4724 19.0626C12.4685 19.0807 12.4682 19.0733 12.4776 19.0552C12.4781 19.0541 12.5359 18.9358 12.685 18.9331L12.6945 19.4664C12.8617 19.4634 12.9356 19.3303 12.9506 19.3015C12.9745 19.2557 12.9868 19.2076 12.994 19.1736C13.0095 19.1011 13.0182 19.0097 13.0237 18.9147C13.0349 18.7205 13.0348 18.4615 13.0293 18.1911C13.0183 17.6479 12.9846 17.0322 12.967 16.7355L12.4346 16.7672ZM12.4489 16.7715C12.4455 16.7706 12.442 16.7689 12.439 16.7669C12.4361 16.7649 12.4345 16.763 12.4338 16.7621C12.4327 16.7606 12.4343 16.7622 12.4346 16.7672L12.967 16.7355C12.9548 16.5294 12.8226 16.3209 12.5897 16.2571L12.4489 16.7715ZM12.2258 16.7175C12.309 16.735 12.3798 16.7518 12.4459 16.7707L12.5927 16.258C12.5101 16.2343 12.4259 16.2146 12.3356 16.1956L12.2258 16.7175ZM11.2601 16.4031C11.5757 16.5177 11.8909 16.6198 12.2054 16.7124L12.356 16.2007C12.0508 16.1109 11.7462 16.0122 11.4421 15.9018L11.2601 16.4031ZM10.3614 15.9108C10.6334 16.1196 10.9366 16.2856 11.2601 16.4031L11.4421 15.9018C11.1697 15.8028 10.9146 15.6631 10.6861 15.4877L10.3614 15.9108ZM9.70451 15.1227C9.86326 15.4284 10.0868 15.6966 10.3597 15.9095L10.6878 15.4891C10.4748 15.3228 10.301 15.114 10.1778 14.8769L9.70451 15.1227ZM9.45774 13.9383C9.44364 14.3434 9.52668 14.746 9.69995 15.1135L10.1824 14.8861C10.0452 14.5951 9.97962 14.2768 9.99075 13.9568L9.45774 13.9383ZM9.70604 12.7545C9.53139 13.1306 9.44638 13.5412 9.45768 13.9548L9.99081 13.9403C9.98178 13.6094 10.0498 13.2807 10.1898 12.9791L9.70604 12.7545ZM10.4646 11.7846C10.1402 12.0467 9.88068 12.3784 9.70604 12.7545L10.1898 12.9791C10.3298 12.6775 10.5383 12.4107 10.7998 12.1994L10.4646 11.7846ZM11.4993 11.222C11.1235 11.347 10.7733 11.5373 10.4654 11.7839L10.7989 12.2001C11.0572 11.9932 11.3514 11.8333 11.6677 11.728L11.4993 11.222ZM12.2352 11.0855C12.0141 11.1136 11.7072 11.1513 11.4976 11.2225L11.6694 11.7275C11.8159 11.6776 12.0593 11.6455 12.3024 11.6146L12.2352 11.0855ZM12.4293 11.256C12.4293 11.1438 12.4982 11.08 12.5212 11.0617C12.5352 11.0505 12.5471 11.0438 12.5534 11.0405C12.5601 11.037 12.5648 11.0351 12.5664 11.0345C12.568 11.0339 12.5561 11.0381 12.5207 11.0448C12.4535 11.0577 12.3565 11.0701 12.2352 11.0855L12.3024 11.6146C12.4168 11.6001 12.5334 11.5854 12.6209 11.5687C12.6628 11.5607 12.7134 11.5494 12.7583 11.5321C12.7794 11.524 12.8168 11.508 12.8534 11.4789C12.8877 11.4516 12.9626 11.3783 12.9626 11.256H12.4293ZM12.4293 10.6655V11.256H12.9626V10.6655H12.4293ZM13.0755 10.0192C12.7186 10.0192 12.4293 10.3086 12.4293 10.6655H12.9626C12.9626 10.6031 13.0132 10.5526 13.0755 10.5526V10.0192ZM13.7218 10.6655C13.7218 10.3086 13.4325 10.0192 13.0755 10.0192V10.5526C13.1379 10.5526 13.1885 10.6031 13.1885 10.6655H13.7218ZM13.7218 11.256V10.6655H13.1885V11.256H13.7218ZM13.9413 11.1065C13.8158 11.0877 13.715 11.0725 13.6451 11.057C13.6083 11.0488 13.5963 11.0439 13.5984 11.0448C13.5985 11.0449 13.6188 11.0533 13.643 11.0751C13.6675 11.0972 13.7218 11.1579 13.7218 11.256H13.1885C13.1885 11.366 13.2491 11.438 13.2857 11.4711C13.3219 11.5038 13.36 11.5226 13.383 11.5328C13.4308 11.5539 13.4849 11.5677 13.5294 11.5776C13.622 11.5982 13.7446 11.6164 13.8625 11.634L13.9413 11.1065ZM14.6264 11.2483C14.431 11.1783 14.1495 11.1375 13.9413 11.1065L13.8625 11.634C14.0916 11.6681 14.3121 11.7022 14.4468 11.7504L14.6264 11.2483ZM15.5994 11.799C15.3106 11.5593 14.9805 11.3726 14.6249 11.2477L14.4483 11.7509C14.7445 11.855 15.0189 12.0103 15.2587 12.2093L15.5994 11.799ZM16.2883 12.6869C16.123 12.3489 15.8897 12.0478 15.6026 11.8017L15.2555 12.2066C15.4878 12.4058 15.6761 12.649 15.8092 12.9212L16.2883 12.6869ZM16.3988 12.9414C16.3659 12.8552 16.3291 12.7702 16.2884 12.6869L15.8092 12.9211C15.8429 12.99 15.8733 13.0601 15.9004 13.1314L16.3988 12.9414ZM16.4833 13.4265C16.5056 13.2159 16.4558 13.091 16.3988 12.9414L15.9004 13.1314C15.9549 13.2743 15.9609 13.2956 15.953 13.3704L16.4833 13.4265ZM16.0136 14.1083C16.1422 14.043 16.2498 13.9282 16.3245 13.8198C16.3992 13.7114 16.4682 13.57 16.4833 13.4265L15.953 13.3704C15.9505 13.3936 15.9315 13.4502 15.8854 13.5172C15.8392 13.5842 15.793 13.6221 15.7723 13.6326L16.0136 14.1083ZM15.4095 14.202C15.6296 14.202 15.8179 14.2076 16.0136 14.1083L15.7723 13.6326C15.7121 13.6632 15.6634 13.6687 15.4095 13.6687V14.202ZM14.9906 14.1817C15.0907 14.2038 15.2295 14.202 15.4095 14.202V13.6687C15.1925 13.6687 15.1328 13.667 15.1053 13.6609L14.9906 14.1817ZM14.7973 14.1281C14.8377 14.1475 14.8751 14.1567 14.9006 14.1625C14.9136 14.1654 14.9282 14.1685 14.9418 14.1713C14.9561 14.1743 14.9719 14.1776 14.9906 14.1817L15.1053 13.6609C15.0838 13.6562 15.0658 13.6524 15.0511 13.6493C15.0358 13.6461 15.0263 13.6441 15.0186 13.6424C15.0029 13.6388 15.0128 13.64 15.0277 13.6471L14.7973 14.1281ZM14.6343 14.0111C14.6492 14.023 14.6617 14.0333 14.6731 14.0426C14.6838 14.0514 14.6953 14.0608 14.7057 14.0691C14.7262 14.0853 14.7568 14.1088 14.7973 14.1281L15.0277 13.6471C15.0426 13.6543 15.0498 13.6612 15.0371 13.6512C15.0309 13.6463 15.0234 13.6402 15.0113 13.6302C14.9998 13.6207 14.9855 13.6091 14.9683 13.5952L14.6343 14.0111ZM14.0136 13.2715C14.1894 13.4902 14.3229 13.6562 14.4187 13.7725C14.4665 13.8305 14.5065 13.8781 14.5387 13.9146C14.5661 13.9458 14.601 13.9843 14.6343 14.0111L14.9683 13.5952C14.9762 13.6016 14.9699 13.5973 14.9389 13.5622C14.9127 13.5323 14.877 13.4901 14.8303 13.4334C14.7371 13.3201 14.606 13.1572 14.4292 12.9373L14.0136 13.2715ZM14.0148 13.273L14.0148 13.2731L14.428 12.9358L14.4279 12.9357L14.0148 13.273ZM13.998 13.2526C14.0033 13.2589 14.0084 13.2651 14.0135 13.2715L14.4292 12.9373C14.4215 12.9277 14.4137 12.9183 14.4058 12.9089L13.998 13.2526ZM13.757 13.0617C13.8499 13.1057 13.931 13.1696 13.9944 13.2483L14.4094 12.9133C14.2953 12.7718 14.1503 12.6579 13.9856 12.5798L13.757 13.0617ZM13.7249 13.1548C13.7249 13.1334 13.7295 13.1132 13.737 13.0962C13.7446 13.0789 13.7537 13.0681 13.7599 13.0627C13.7658 13.0575 13.7666 13.0592 13.761 13.0602C13.7537 13.0614 13.751 13.0588 13.757 13.0617L13.9856 12.5798C13.7722 12.4786 13.5568 12.5325 13.4098 12.6603C13.2711 12.781 13.1916 12.9651 13.1916 13.1548H13.7249ZM13.7249 14.6351V13.1548H13.1916V14.6351H13.7249ZM13.8317 14.7712C13.769 14.7558 13.7249 14.6997 13.7249 14.6351H13.1916C13.1916 14.9453 13.4034 15.2153 13.7046 15.2892L13.8317 14.7712ZM14.1758 14.8602L13.8349 14.772L13.7013 15.2884L14.0422 15.3766L14.1758 14.8602ZM15.7158 15.5196C15.2454 15.2077 14.7206 14.9836 14.1679 14.8583L14.05 15.3785C14.54 15.4895 15.0048 15.6881 15.4211 15.9641L15.7158 15.5196ZM16.5489 16.3701C16.333 16.0344 16.0502 15.7456 15.7178 15.5209L15.4192 15.9628C15.6922 16.1473 15.9238 16.3841 16.1003 16.6586L16.5489 16.3701ZM12.4293 14.7869C12.4293 14.7232 12.4556 14.6514 12.5163 14.5999C12.5662 14.5575 12.6164 14.5486 12.6333 14.5464C12.6656 14.5421 12.6793 14.5488 12.6546 14.5431C12.6163 14.5342 12.5481 14.5105 12.4586 14.4716C12.2814 14.3947 12.0787 14.2845 11.9682 14.2053L11.6574 14.6387C11.8083 14.7469 12.0472 14.8745 12.2462 14.9609C12.3448 15.0036 12.4484 15.0429 12.5348 15.0628C12.5725 15.0715 12.6368 15.084 12.7041 15.075C12.7386 15.0704 12.8024 15.0566 12.8615 15.0064C12.9314 14.947 12.9626 14.8644 12.9626 14.7869H12.4293ZM12.4269 13.1551C12.4278 13.7354 12.4293 14.7099 12.4293 14.7869H12.9626C12.9626 14.7093 12.9611 13.7341 12.9602 13.1542L12.4269 13.1551ZM12.3462 13.0448C12.3575 13.0415 12.3636 13.0424 12.367 13.0433C12.3714 13.0444 12.3787 13.0475 12.3877 13.0557C12.4072 13.0734 12.4268 13.109 12.4269 13.1551L12.9602 13.1542C12.9599 12.9645 12.8816 12.784 12.7467 12.6613C12.6076 12.5347 12.4076 12.4712 12.1966 12.5329L12.3462 13.0448ZM12.0659 13.1949C12.1504 13.1275 12.2472 13.076 12.3514 13.0432L12.1915 12.5344C12.0248 12.5868 11.8694 12.6694 11.7332 12.7781L12.0659 13.1949ZM11.8764 13.4276C11.9195 13.3381 11.9833 13.2591 12.0632 13.1971L11.7359 12.7759C11.5916 12.8881 11.4751 13.0319 11.3959 13.1962L11.8764 13.4276ZM11.8067 13.7638C11.8035 13.6473 11.8277 13.5315 11.8776 13.4253L11.3948 13.1986C11.3096 13.3799 11.2681 13.5784 11.2735 13.7784L11.8067 13.7638ZM11.8456 14.0245C11.8142 13.9498 11.8008 13.8692 11.8062 13.7889L11.274 13.7534C11.2632 13.9165 11.2905 14.0798 11.3537 14.2306L11.8456 14.0245ZM11.9878 14.2208C11.9254 14.1665 11.8769 14.0993 11.8456 14.0245L11.3537 14.2306C11.4169 14.3815 11.5142 14.5156 11.6378 14.6232L11.9878 14.2208ZM14.4435 18.4895C14.4435 18.4467 14.4545 18.4041 14.4762 18.3661L14.9395 18.6303C14.9642 18.587 14.9768 18.5384 14.9768 18.4895H14.4435ZM14.4776 18.3544C14.4555 18.3954 14.4435 18.4417 14.4435 18.4895H14.9768C14.9768 18.5315 14.9662 18.572 14.9469 18.6078L14.4776 18.3544ZM14.5676 17.9667C14.5731 18.1012 14.5421 18.2349 14.4776 18.3544L14.9469 18.6078C15.0567 18.4044 15.1099 18.1758 15.1005 17.9451L14.5676 17.9667ZM14.5232 17.655C14.5605 17.7436 14.5759 17.8394 14.5683 17.9346L15.0999 17.9771C15.1143 17.7965 15.0851 17.6151 15.0147 17.448L14.5232 17.655ZM14.3525 17.4239C14.4275 17.4871 14.4858 17.5663 14.5232 17.655L15.0147 17.448C14.9443 17.2809 14.835 17.1329 14.6959 17.0159L14.3525 17.4239ZM13.7373 16.7789C13.7373 16.8053 13.7312 16.8503 13.7002 16.8963C13.6684 16.9437 13.6257 16.9691 13.5927 16.9809C13.5414 16.9993 13.5105 16.9869 13.5362 16.9922C13.5746 17.0001 13.6505 17.0287 13.7597 17.0824C13.9688 17.1853 14.2218 17.3405 14.378 17.4429L14.6704 16.9969C14.5064 16.8894 14.2326 16.7207 13.995 16.6038C13.8808 16.5477 13.7534 16.4925 13.6442 16.4699C13.5962 16.46 13.5055 16.4456 13.4128 16.4788C13.3591 16.4981 13.3004 16.5351 13.2577 16.5987C13.2158 16.6609 13.204 16.7267 13.204 16.7789H13.7373ZM13.7373 19.2028V16.7789H13.204V19.2028H13.7373ZM13.7393 18.8903C13.6531 18.9232 13.5791 18.9509 13.5276 18.9637C13.4964 18.9715 13.5056 18.9652 13.5346 18.9684C13.5503 18.9702 13.6019 18.9779 13.6529 19.0216C13.7147 19.0744 13.7373 19.146 13.7373 19.2028H13.204C13.204 19.2785 13.2329 19.3641 13.3063 19.4269C13.3691 19.4806 13.4377 19.4942 13.4749 19.4984C13.5468 19.5065 13.6166 19.4912 13.6561 19.4814C13.746 19.459 13.8539 19.4174 13.9295 19.3885L13.7393 18.8903ZM13.8656 18.8437C13.8267 18.8568 13.7809 18.8744 13.7393 18.8903L13.9295 19.3885C13.9744 19.3714 14.0094 19.3581 14.0363 19.349L13.8656 18.8437ZM14.2406 18.6516C14.129 18.7351 14.0037 18.7996 13.8698 18.8423L14.0321 19.3504C14.2221 19.2897 14.4006 19.1979 14.5599 19.0788L14.2406 18.6516ZM14.4762 18.3661C14.4126 18.4776 14.3291 18.5773 14.2295 18.6604L14.571 19.07C14.7193 18.9463 14.8442 18.7975 14.9395 18.6303L14.4762 18.3661Z" fill="url(#paint3_linear_2078_630)" fill-opacity="0.1" mask="url(#path-4-inside-2_2078_630)"/>
</g>
<path fill-rule="evenodd" clip-rule="evenodd" d="M24.142 13.2214C23.9527 13.3387 23.9527 13.6142 24.142 13.7315L27.6546 15.9075C27.8545 16.0313 28.1126 15.8875 28.1126 15.6524V14.8501H30.0013C32.2104 14.8501 34.0013 16.6409 34.0013 18.8501V21.0003H36.0013V18.8501C36.0013 15.5364 33.315 12.8501 30.0013 12.8501H28.1126V11.3005C28.1126 11.0654 27.8545 10.9216 27.6546 11.0454L24.142 13.2214Z" fill="url(#paint4_linear_2078_630)"/>
<path fill-rule="evenodd" clip-rule="evenodd" d="M23.858 34.7786C24.0473 34.6613 24.0473 34.3858 23.858 34.2685L20.3454 32.0925C20.1455 31.9687 19.8874 32.1125 19.8874 32.3476V33.1499H17.9987C15.7896 33.1499 13.9987 31.3591 13.9987 29.1499V26.9997H11.9987V29.1499C11.9987 32.4636 14.685 35.1499 17.9987 35.1499H19.8874V36.6995C19.8874 36.9346 20.1455 37.0784 20.3454 36.9546L23.858 34.7786Z" fill="url(#paint5_linear_2078_630)"/>
<defs>
<filter id="filter0_bii_2078_630" x="21" y="18" width="28" height="27.9995" filterUnits="userSpaceOnUse" color-interpolation-filters="sRGB">
<feFlood flood-opacity="0" result="BackgroundImageFix"/>
<feGaussianBlur in="BackgroundImageFix" stdDeviation="2"/>
<feComposite in2="SourceAlpha" operator="in" result="effect1_backgroundBlur_2078_630"/>
<feBlend mode="normal" in="SourceGraphic" in2="effect1_backgroundBlur_2078_630" result="shape"/>
<feColorMatrix in="SourceAlpha" type="matrix" values="0 0 0 0 0 0 0 0 0 0 0 0 0 0 0 0 0 0 127 0" result="hardAlpha"/>
<feOffset dy="0.666667"/>
<feGaussianBlur stdDeviation="1.33333"/>
<feComposite in2="hardAlpha" operator="arithmetic" k2="-1" k3="1"/>
<feColorMatrix type="matrix" values="0 0 0 0 1 0 0 0 0 1 0 0 0 0 1 0 0 0 0.15 0"/>
<feBlend mode="normal" in2="shape" result="effect2_innerShadow_2078_630"/>
<feColorMatrix in="SourceAlpha" type="matrix" values="0 0 0 0 0 0 0 0 0 0 0 0 0 0 0 0 0 0 127 0" result="hardAlpha"/>
<feOffset dy="-4"/>
<feGaussianBlur stdDeviation="3"/>
<feComposite in2="hardAlpha" operator="arithmetic" k2="-1" k3="1"/>
<feColorMatrix type="matrix" values="0 0 0 0 1 0 0 0 0 1 0 0 0 0 1 0 0 0 0.15 0"/>
<feBlend mode="normal" in2="effect2_innerShadow_2078_630" result="effect3_innerShadow_2078_630"/>
</filter>
<filter id="filter1_bii_2078_630" x="-1" y="2" width="28" height="28" filterUnits="userSpaceOnUse" color-interpolation-filters="sRGB">
<feFlood flood-opacity="0" result="BackgroundImageFix"/>
<feGaussianBlur in="BackgroundImageFix" stdDeviation="2"/>
<feComposite in2="SourceAlpha" operator="in" result="effect1_backgroundBlur_2078_630"/>
<feBlend mode="normal" in="SourceGraphic" in2="effect1_backgroundBlur_2078_630" result="shape"/>
<feColorMatrix in="SourceAlpha" type="matrix" values="0 0 0 0 0 0 0 0 0 0 0 0 0 0 0 0 0 0 127 0" result="hardAlpha"/>
<feOffset dy="0.666667"/>
<feGaussianBlur stdDeviation="1.33333"/>
<feComposite in2="hardAlpha" operator="arithmetic" k2="-1" k3="1"/>
<feColorMatrix type="matrix" values="0 0 0 0 1 0 0 0 0 1 0 0 0 0 1 0 0 0 0.15 0"/>
<feBlend mode="normal" in2="shape" result="effect2_innerShadow_2078_630"/>
<feColorMatrix in="SourceAlpha" type="matrix" values="0 0 0 0 0 0 0 0 0 0 0 0 0 0 0 0 0 0 127 0" result="hardAlpha"/>
<feOffset dy="-4"/>
<feGaussianBlur stdDeviation="3"/>
<feComposite in2="hardAlpha" operator="arithmetic" k2="-1" k3="1"/>
<feColorMatrix type="matrix" values="0 0 0 0 1 0 0 0 0 1 0 0 0 0 1 0 0 0 0.15 0"/>
<feBlend mode="normal" in2="effect2_innerShadow_2078_630" result="effect3_innerShadow_2078_630"/>
</filter>
<linearGradient id="paint0_linear_2078_630" x1="25" y1="30.8835" x2="44.7814" y2="30.8831" gradientUnits="userSpaceOnUse">
<stop stop-color="#62BDFF"/>
<stop offset="1" stop-color="#3864FF"/>
</linearGradient>
<linearGradient id="paint1_linear_2078_630" x1="25.625" y1="22.9091" x2="45" y2="22.9091" gradientUnits="userSpaceOnUse">
<stop stop-color="#FFC282"/>
<stop offset="1" stop-color="#FF4980"/>
</linearGradient>
<linearGradient id="paint2_linear_2078_630" x1="3" y1="14.8838" x2="22.7814" y2="14.8834" gradientUnits="userSpaceOnUse">
<stop stop-color="#62BDFF"/>
<stop offset="1" stop-color="#3864FF"/>
</linearGradient>
<linearGradient id="paint3_linear_2078_630" x1="3.625" y1="6.90909" x2="23" y2="6.90909" gradientUnits="userSpaceOnUse">
<stop stop-color="#FFC282"/>
<stop offset="1" stop-color="#FF4980"/>
</linearGradient>
<linearGradient id="paint4_linear_2078_630" x1="24" y1="15.442" x2="35.8701" y2="15.4417" gradientUnits="userSpaceOnUse">
<stop stop-color="#62BDFF"/>
<stop offset="1" stop-color="#3864FF"/>
</linearGradient>
<linearGradient id="paint5_linear_2078_630" x1="24" y1="32.558" x2="12.1299" y2="32.5583" gradientUnits="userSpaceOnUse">
<stop stop-color="#62BDFF"/>
<stop offset="1" stop-color="#3864FF"/>
</linearGradient>
</defs>
</svg>
