<svg width="38" height="39" viewBox="0 0 38 39" fill="none" xmlns="http://www.w3.org/2000/svg">
<g filter="url(#filter0_bii_2077_19003)">
<ellipse rx="6.19897" ry="6.22847" transform="matrix(0.863957 -0.503565 0.496444 0.868069 13.4477 12.0283)" fill="#1D1D1D" fill-opacity="0.05"/>
<ellipse rx="6.19897" ry="6.22847" transform="matrix(0.863957 -0.503565 0.496444 0.868069 13.4477 12.0283)" fill="url(#paint0_linear_2077_19003)" fill-opacity="0.2"/>
<path d="M18.6882 8.97388C20.3596 11.8965 19.3673 15.6327 16.4736 17.3193C13.5799 19.0059 9.87873 18.0054 8.20728 15.0828C6.53583 12.1601 7.52813 8.42394 10.4218 6.73732C13.3155 5.0507 17.0167 6.05122 18.6882 8.97388Z" stroke="url(#paint1_linear_2077_19003)" stroke-opacity="0.1" stroke-width="0.266667"/>
</g>
<path fill-rule="evenodd" clip-rule="evenodd" d="M25.3488 9.82903L22.148 15.4061C22.5299 15.4817 22.9031 15.5846 23.2651 15.713L26.2802 10.5578C26.653 9.92035 26.6278 9.20449 26.3311 8.6309C28.0529 9.71631 28.8088 12.0623 27.66 14.0364L25.8199 17.1984C27.0166 18.2313 27.912 19.6213 28.3329 21.2346L30.1522 28.2085H31.3068C32.38 28.2085 33.25 29.0785 33.25 30.1517C33.25 31.2249 32.38 32.0949 31.3068 32.0949H6.69318C5.61999 32.0949 4.75 31.2249 4.75 30.1517C4.75 29.0785 5.61999 28.2085 6.69318 28.2085H7.84783L9.66711 21.2346C10.1293 19.4629 11.1638 17.9605 12.5412 16.9047L10.872 14.0364C9.72418 12.064 10.4777 9.72043 12.1964 8.63376C11.9011 9.20687 11.8766 9.92141 12.2488 10.5578L15.18 15.5697C15.6109 15.4448 16.0555 15.3553 16.5101 15.3042L13.3678 9.82903C12.6025 8.4957 13.5651 6.8335 15.1024 6.8335H23.6142C25.1515 6.8335 26.114 8.49571 25.3488 9.82903ZM19 29.504C22.5773 29.504 25.4773 26.604 25.4773 23.0267C25.4773 19.4494 22.5773 16.5494 19 16.5494C15.4227 16.5494 12.5227 19.4494 12.5227 23.0267C12.5227 26.604 15.4227 29.504 19 29.504Z" fill="url(#paint2_linear_2077_19003)"/>
<g filter="url(#filter1_bi_2077_19003)">
<path d="M21.5572 24.0357C21.5325 23.8169 21.4611 23.6066 21.3482 23.4198C21.206 23.1867 21.0195 22.9858 20.7999 22.8295C20.4784 22.6048 20.1196 22.4433 19.7415 22.353L19.4943 22.2856L19.2696 22.2275V20.5262C19.3733 20.5262 19.4757 20.5504 19.5691 20.5971C19.6625 20.6438 19.7445 20.7117 19.8089 20.7958C19.9557 20.9794 20.0353 21.2107 20.0336 21.4489C20.032 21.6872 21.3622 21.7487 21.3527 21.4489C21.3433 21.1492 21.2737 20.8547 21.1482 20.5843C21.04 20.3512 20.8871 20.1432 20.6988 19.9731C20.5072 19.8054 20.288 19.6747 20.0516 19.5873C19.7987 19.4919 19.5352 19.4295 19.2674 19.4014C19.2674 19.4014 19.2786 18.9959 19.2674 18.6599C19.2599 18.437 18.7198 18.4369 18.7168 18.6599C18.7123 18.9959 18.7168 19.4014 18.7168 19.4014C18.4418 19.4191 18.1704 19.4754 17.9101 19.5687C17.6591 19.6567 17.4255 19.7905 17.2202 19.9638C17.0078 20.1447 16.8381 20.3733 16.724 20.6323C16.6099 20.8913 16.5544 21.1737 16.5618 21.4582C16.5526 21.7353 16.6065 22.0108 16.7191 22.2624C16.8213 22.4698 16.9654 22.6521 17.1415 22.7969C17.3231 22.9437 17.5255 23.0605 17.7415 23.1432C17.9663 23.2292 18.191 23.3059 18.4157 23.3757C18.4786 23.3896 18.5348 23.4035 18.5887 23.4198C18.6307 23.4319 18.672 23.4467 18.7123 23.464V25.472C18.4386 25.4206 18.1881 25.2797 17.9977 25.07C17.8972 24.9501 17.8211 24.8106 17.774 24.6596C17.7269 24.5087 17.7097 24.3494 17.7236 24.1914C17.7374 24.0334 16.3483 23.4338 16.4112 24.1914C16.4741 24.9491 16.6989 25.5232 17.0854 25.9136C17.5338 26.3282 18.1109 26.5632 18.7123 26.576C18.7123 26.576 18.6773 27.0582 18.7123 27.3941C18.7354 27.6159 19.2524 27.617 19.2629 27.3941C19.2786 27.0582 19.2629 26.583 19.2629 26.583C19.6608 26.5657 20.0509 26.4636 20.4089 26.2832C20.6769 26.147 20.9183 25.9611 21.1213 25.7347C21.403 25.4151 21.5689 25.0044 21.5909 24.5726C21.5892 24.3931 21.5779 24.2139 21.5572 24.0357ZM18.7168 22.0997C18.4852 22.0596 18.2659 21.9641 18.0764 21.8208C18.0089 21.759 17.956 21.682 17.9218 21.5958C17.8875 21.5096 17.8727 21.4164 17.8786 21.3234C17.8755 21.2025 17.8993 21.0824 17.9483 20.9725C17.9926 20.8755 18.058 20.7904 18.1393 20.7238C18.2193 20.6565 18.3107 20.6053 18.4089 20.5727C18.5081 20.5422 18.6111 20.5265 18.7146 20.5262L18.7168 22.0997ZM20.1775 24.9328C20.1196 25.0405 20.0435 25.1366 19.9527 25.2164C19.8545 25.2938 19.7443 25.3535 19.6269 25.393C19.514 25.4332 19.3972 25.4605 19.2786 25.4744V23.622C19.5513 23.6843 19.8104 23.7986 20.0426 23.959C20.1203 24.0279 20.1811 24.1147 20.2201 24.2124C20.2592 24.3101 20.2754 24.416 20.2674 24.5215C20.2728 24.6621 20.2417 24.8017 20.1775 24.9259V24.9328Z" fill="#F1F1F1" fill-opacity="0.1"/>
<path d="M21.5572 24.0357C21.5325 23.8169 21.4611 23.6066 21.3482 23.4198C21.206 23.1867 21.0195 22.9858 20.7999 22.8295C20.4784 22.6048 20.1196 22.4433 19.7415 22.353L19.4943 22.2856L19.2696 22.2275V20.5262C19.3733 20.5262 19.4757 20.5504 19.5691 20.5971C19.6625 20.6438 19.7445 20.7117 19.8089 20.7958C19.9557 20.9794 20.0353 21.2107 20.0336 21.4489C20.032 21.6872 21.3622 21.7487 21.3527 21.4489C21.3433 21.1492 21.2737 20.8547 21.1482 20.5843C21.04 20.3512 20.8871 20.1432 20.6988 19.9731C20.5072 19.8054 20.288 19.6747 20.0516 19.5873C19.7987 19.4919 19.5352 19.4295 19.2674 19.4014C19.2674 19.4014 19.2786 18.9959 19.2674 18.6599C19.2599 18.437 18.7198 18.4369 18.7168 18.6599C18.7123 18.9959 18.7168 19.4014 18.7168 19.4014C18.4418 19.4191 18.1704 19.4754 17.9101 19.5687C17.6591 19.6567 17.4255 19.7905 17.2202 19.9638C17.0078 20.1447 16.8381 20.3733 16.724 20.6323C16.6099 20.8913 16.5544 21.1737 16.5618 21.4582C16.5526 21.7353 16.6065 22.0108 16.7191 22.2624C16.8213 22.4698 16.9654 22.6521 17.1415 22.7969C17.3231 22.9437 17.5255 23.0605 17.7415 23.1432C17.9663 23.2292 18.191 23.3059 18.4157 23.3757C18.4786 23.3896 18.5348 23.4035 18.5887 23.4198C18.6307 23.4319 18.672 23.4467 18.7123 23.464V25.472C18.4386 25.4206 18.1881 25.2797 17.9977 25.07C17.8972 24.9501 17.8211 24.8106 17.774 24.6596C17.7269 24.5087 17.7097 24.3494 17.7236 24.1914C17.7374 24.0334 16.3483 23.4338 16.4112 24.1914C16.4741 24.9491 16.6989 25.5232 17.0854 25.9136C17.5338 26.3282 18.1109 26.5632 18.7123 26.576C18.7123 26.576 18.6773 27.0582 18.7123 27.3941C18.7354 27.6159 19.2524 27.617 19.2629 27.3941C19.2786 27.0582 19.2629 26.583 19.2629 26.583C19.6608 26.5657 20.0509 26.4636 20.4089 26.2832C20.6769 26.147 20.9183 25.9611 21.1213 25.7347C21.403 25.4151 21.5689 25.0044 21.5909 24.5726C21.5892 24.3931 21.5779 24.2139 21.5572 24.0357ZM18.7168 22.0997C18.4852 22.0596 18.2659 21.9641 18.0764 21.8208C18.0089 21.759 17.956 21.682 17.9218 21.5958C17.8875 21.5096 17.8727 21.4164 17.8786 21.3234C17.8755 21.2025 17.8993 21.0824 17.9483 20.9725C17.9926 20.8755 18.058 20.7904 18.1393 20.7238C18.2193 20.6565 18.3107 20.6053 18.4089 20.5727C18.5081 20.5422 18.6111 20.5265 18.7146 20.5262L18.7168 22.0997ZM20.1775 24.9328C20.1196 25.0405 20.0435 25.1366 19.9527 25.2164C19.8545 25.2938 19.7443 25.3535 19.6269 25.393C19.514 25.4332 19.3972 25.4605 19.2786 25.4744V23.622C19.5513 23.6843 19.8104 23.7986 20.0426 23.959C20.1203 24.0279 20.1811 24.1147 20.2201 24.2124C20.2592 24.3101 20.2754 24.416 20.2674 24.5215C20.2728 24.6621 20.2417 24.8017 20.1775 24.9259V24.9328Z" fill="url(#paint3_linear_2077_19003)"/>
<path d="M18.6057 23.3623C18.5507 23.3457 18.4938 23.3315 18.4311 23.3176C18.2083 23.2484 17.9856 23.1724 17.763 23.0872C17.5529 23.0068 17.3561 22.8932 17.1795 22.7504C17.0103 22.6113 16.8718 22.4362 16.7734 22.2369C16.6649 21.9939 16.6129 21.7279 16.6217 21.4602L16.6218 21.4602L16.6218 21.4567C16.6146 21.181 16.6684 20.9073 16.7789 20.6565C16.8894 20.4057 17.0536 20.1845 17.259 20.0096C17.4587 19.8409 17.686 19.7108 17.9299 19.6253L17.9299 19.6253L17.9303 19.6252C18.1854 19.5338 18.4513 19.4786 18.7207 19.4612L18.7774 19.4576L18.7768 19.4007L18.7768 19.4007L18.7768 19.4006L18.7768 19.4004L18.7768 19.3995L18.7768 19.3961L18.7766 19.3827L18.7762 19.3323C18.7758 19.2891 18.7754 19.228 18.7751 19.1564C18.7746 19.0132 18.7746 18.8282 18.7768 18.6607C18.7772 18.6337 18.7925 18.6085 18.8317 18.5872C18.8718 18.5654 18.9292 18.5527 18.9904 18.5527C19.0515 18.5527 19.1094 18.5654 19.1501 18.5873C19.1903 18.609 19.2065 18.6346 19.2074 18.662C19.213 18.8287 19.213 19.013 19.2116 19.156C19.2109 19.2275 19.2098 19.2884 19.209 19.3315L19.2078 19.3818L19.2075 19.3952L19.2074 19.3986L19.2074 19.3994L19.2074 19.3996L19.2074 19.3997L19.2074 19.3997L19.2674 19.4014L19.2074 19.3997L19.2058 19.4552L19.2611 19.461C19.5238 19.4886 19.7823 19.5499 20.0305 19.6434L20.0308 19.6436C20.2601 19.7284 20.4728 19.8552 20.6589 20.0179C20.841 20.1825 20.989 20.3838 21.0938 20.6096C21.2158 20.8726 21.2836 21.1591 21.2928 21.4508C21.2931 21.4624 21.2884 21.4775 21.2627 21.4967C21.2361 21.5167 21.1933 21.5354 21.135 21.5509C21.0192 21.5816 20.8601 21.5945 20.6975 21.5907C20.5352 21.5869 20.3746 21.5666 20.2565 21.5338C20.197 21.5172 20.152 21.4985 20.1233 21.4796C20.1091 21.4702 20.1011 21.4622 20.0971 21.4565C20.0934 21.4514 20.0936 21.4494 20.0936 21.4493C20.0954 21.1977 20.0115 20.9533 19.8562 20.7589C19.7864 20.6679 19.6975 20.5942 19.596 20.5434C19.4943 20.4926 19.3827 20.4662 19.2696 20.4662L19.2096 20.4663V20.5262V22.2275V22.274L19.2546 22.2856L19.4789 22.3436L19.7257 22.4109L19.7257 22.4109L19.7276 22.4114C20.0982 22.4999 20.45 22.6582 20.7653 22.8785C20.978 23.03 21.1589 23.2248 21.297 23.451C21.4053 23.6302 21.4739 23.8322 21.4976 24.0424L21.4976 24.0426C21.518 24.2181 21.5291 24.3946 21.5309 24.5714C21.5092 24.9891 21.3485 25.386 21.0764 25.6948C20.8784 25.9157 20.6429 26.097 20.3817 26.2297L20.4089 26.2832M18.6057 23.3623C18.65 23.3751 18.6935 23.3906 18.736 23.4088L18.7723 23.4244V23.464V25.472V25.5444L18.7012 25.531C18.4145 25.4771 18.1523 25.3295 17.9533 25.1103L17.9517 25.1086L17.9517 25.1085C17.8461 24.9826 17.7662 24.8359 17.7167 24.6775C17.6681 24.5216 17.6499 24.3573 17.6631 24.1941C17.6628 24.1936 17.6624 24.1931 17.6619 24.1924C17.6567 24.1852 17.6467 24.1747 17.6305 24.1613C17.5983 24.1349 17.5494 24.1037 17.4877 24.0714C17.3647 24.0071 17.1993 23.9429 17.036 23.9066C16.8703 23.8699 16.7177 23.8643 16.6137 23.9054C16.5635 23.9252 16.5262 23.9552 16.5022 23.9972C16.4778 24.0398 16.4639 24.1003 16.471 24.1865C16.5332 24.9348 16.7543 25.4933 17.1271 25.8705C17.5648 26.2747 18.1275 26.5035 18.7136 26.516L18.7767 26.5174L18.7722 26.5804L18.7722 26.5804L18.7722 26.5804L18.7721 26.5806L18.7721 26.5816L18.7718 26.5856L18.7708 26.6012C18.7699 26.6149 18.7687 26.6348 18.7673 26.6598C18.7646 26.7099 18.7613 26.7801 18.7592 26.8607C18.7548 27.0225 18.7549 27.2239 18.772 27.3879C18.7751 27.4173 18.7942 27.4443 18.835 27.4661C18.8761 27.4882 18.933 27.5008 18.9924 27.5009C19.0519 27.5009 19.1076 27.4884 19.1467 27.4668C19.1849 27.4457 19.2016 27.42 19.2029 27.3913C19.2107 27.2251 19.2107 27.0238 19.2088 26.8633C19.2078 26.7832 19.2063 26.7136 19.2051 26.664L19.2035 26.6058L19.2031 26.5903L19.2029 26.5863L19.2029 26.5853L19.2029 26.585L19.2029 26.585L19.2029 26.585L19.2009 26.5256L19.2603 26.523C19.6496 26.5061 20.0315 26.4062 20.3819 26.2296L20.4089 26.2832M18.6057 23.3623C18.6056 23.3622 18.6055 23.3622 18.6053 23.3622L18.5887 23.4198L18.606 23.3624C18.6059 23.3623 18.6058 23.3623 18.6057 23.3623ZM20.4089 26.2832C20.6769 26.147 20.9183 25.9611 21.1213 25.7347L17.9977 25.07C17.8972 24.9501 17.8211 24.8106 17.774 24.6596C17.7269 24.5087 17.7097 24.3494 17.7236 24.1914C17.7374 24.0334 16.3483 23.4338 16.4112 24.1914C16.4741 24.9491 16.6989 25.5232 17.0854 25.9136C17.5189 26.3144 18.0726 26.5473 18.6523 26.574L18.6524 26.5732L18.6524 26.5721L18.6525 26.5718L18.6525 26.5717L18.6525 26.5717L18.7123 26.576L18.711 26.636C18.7102 26.636 18.7094 26.636 18.7085 26.6359C18.7006 26.7754 18.6848 27.13 18.7123 27.3941C18.7354 27.6159 19.2524 27.617 19.2629 27.3941C19.2786 27.0582 19.2629 26.583 19.2629 26.583C19.6608 26.5657 20.0509 26.4636 20.4089 26.2832ZM19.2696 20.5262C19.2698 20.5262 19.27 20.5262 19.2702 20.5262H19.3296V20.5289C19.4126 20.5364 19.4938 20.5595 19.5691 20.5971C19.6625 20.6438 19.7445 20.7117 19.8089 20.7958L19.2696 20.5262ZM19.2696 20.5262V22.2275L19.4943 22.2856L19.2696 20.5262ZM19.6465 25.4497C19.7704 25.408 19.8864 25.345 19.9899 25.2635L19.9899 25.2636L19.9924 25.2614C20.0886 25.1769 20.1692 25.0752 20.2303 24.9612L20.2375 24.9479V24.9402C20.3015 24.8112 20.3324 24.6674 20.3274 24.5226C20.3355 24.4092 20.3179 24.2954 20.2758 24.1901C20.2334 24.0839 20.1672 23.9893 20.0824 23.9141L20.0827 23.9138L20.0767 23.9097C19.8383 23.7449 19.5722 23.6275 19.292 23.5635L19.2186 23.5468V23.622V25.4744V25.5418L19.2856 25.534C19.4085 25.5196 19.5296 25.4913 19.6465 25.4497ZM19.6465 25.4497C19.6467 25.4497 19.6469 25.4496 19.647 25.4495L19.6269 25.393L19.646 25.4499C19.6462 25.4498 19.6464 25.4498 19.6465 25.4497ZM19.2786 25.4744L19.2716 25.4148C19.2739 25.4145 19.2763 25.4142 19.2786 25.4139V25.4744ZM19.2786 25.4744H19.3386V25.4662C19.3187 25.4693 19.2987 25.472 19.2786 25.4744ZM20.6988 19.9731C20.5072 19.8054 20.288 19.6747 20.0516 19.5873L21.1482 20.5843C21.04 20.3512 20.8871 20.1432 20.6988 19.9731ZM18.7066 22.1588L18.7769 22.171L18.7768 22.0996L18.7746 20.5262L18.7745 20.4661L18.7144 20.4662C18.605 20.4665 18.4961 20.4831 18.3913 20.5154L18.3913 20.5154L18.3901 20.5158C18.2847 20.5507 18.1866 20.6056 18.101 20.6776C18.0126 20.7501 17.9417 20.8425 17.8937 20.9475L17.8937 20.9475L17.8935 20.9481C17.8412 21.0654 17.8156 21.1934 17.8186 21.3223C17.8126 21.4232 17.8288 21.5243 17.866 21.618C17.9036 21.7125 17.9616 21.797 18.0358 21.865L18.0356 21.8652L18.0402 21.8687C18.2373 22.0176 18.4655 22.117 18.7066 22.1588Z" stroke="url(#paint4_linear_2077_19003)" stroke-opacity="0.1" stroke-width="0.12"/>
</g>
<defs>
<filter id="filter0_bii_2077_19003" x="3.26251" y="1.78418" width="20.3704" height="20.4883" filterUnits="userSpaceOnUse" color-interpolation-filters="sRGB">
<feFlood flood-opacity="0" result="BackgroundImageFix"/>
<feGaussianBlur in="BackgroundImageFix" stdDeviation="2"/>
<feComposite in2="SourceAlpha" operator="in" result="effect1_backgroundBlur_2077_19003"/>
<feBlend mode="normal" in="SourceGraphic" in2="effect1_backgroundBlur_2077_19003" result="shape"/>
<feColorMatrix in="SourceAlpha" type="matrix" values="0 0 0 0 0 0 0 0 0 0 0 0 0 0 0 0 0 0 127 0" result="hardAlpha"/>
<feOffset dy="0.666667"/>
<feGaussianBlur stdDeviation="1.33333"/>
<feComposite in2="hardAlpha" operator="arithmetic" k2="-1" k3="1"/>
<feColorMatrix type="matrix" values="0 0 0 0 1 0 0 0 0 1 0 0 0 0 1 0 0 0 0.15 0"/>
<feBlend mode="normal" in2="shape" result="effect2_innerShadow_2077_19003"/>
<feColorMatrix in="SourceAlpha" type="matrix" values="0 0 0 0 0 0 0 0 0 0 0 0 0 0 0 0 0 0 127 0" result="hardAlpha"/>
<feOffset dy="-4"/>
<feGaussianBlur stdDeviation="3"/>
<feComposite in2="hardAlpha" operator="arithmetic" k2="-1" k3="1"/>
<feColorMatrix type="matrix" values="0 0 0 0 1 0 0 0 0 1 0 0 0 0 1 0 0 0 0.15 0"/>
<feBlend mode="normal" in2="effect2_innerShadow_2077_19003" result="effect3_innerShadow_2077_19003"/>
</filter>
<filter id="filter1_bi_2077_19003" x="14.6091" y="16.6927" width="8.78182" height="12.6684" filterUnits="userSpaceOnUse" color-interpolation-filters="sRGB">
<feFlood flood-opacity="0" result="BackgroundImageFix"/>
<feGaussianBlur in="BackgroundImageFix" stdDeviation="0.9"/>
<feComposite in2="SourceAlpha" operator="in" result="effect1_backgroundBlur_2077_19003"/>
<feBlend mode="normal" in="SourceGraphic" in2="effect1_backgroundBlur_2077_19003" result="shape"/>
<feColorMatrix in="SourceAlpha" type="matrix" values="0 0 0 0 0 0 0 0 0 0 0 0 0 0 0 0 0 0 127 0" result="hardAlpha"/>
<feOffset dy="0.3"/>
<feGaussianBlur stdDeviation="0.6"/>
<feComposite in2="hardAlpha" operator="arithmetic" k2="-1" k3="1"/>
<feColorMatrix type="matrix" values="0 0 0 0 1 0 0 0 0 1 0 0 0 0 1 0 0 0 0.15 0"/>
<feBlend mode="normal" in2="shape" result="effect2_innerShadow_2077_19003"/>
</filter>
<linearGradient id="paint0_linear_2077_19003" x1="0" y1="0" x2="14.6128" y2="3.69288" gradientUnits="userSpaceOnUse">
<stop stop-color="white"/>
<stop offset="1" stop-color="#4470FF"/>
</linearGradient>
<linearGradient id="paint1_linear_2077_19003" x1="5.61583" y1="10.0396" x2="16.0414" y2="4.07725" gradientUnits="userSpaceOnUse">
<stop stop-color="#FFC282"/>
<stop offset="1" stop-color="#FF4980"/>
</linearGradient>
<linearGradient id="paint2_linear_2077_19003" x1="4.75" y1="18.0544" x2="32.9386" y2="18.0537" gradientUnits="userSpaceOnUse">
<stop stop-color="#62BDFF"/>
<stop offset="1" stop-color="#3864FF"/>
</linearGradient>
<linearGradient id="paint3_linear_2077_19003" x1="16.4116" y1="18.6599" x2="22.7626" y2="19.6163" gradientUnits="userSpaceOnUse">
<stop stop-color="#62BDFF"/>
<stop offset="1" stop-color="#3864FF"/>
</linearGradient>
<linearGradient id="paint4_linear_2077_19003" x1="16.5711" y1="18.9049" x2="21.5909" y2="18.9049" gradientUnits="userSpaceOnUse">
<stop stop-color="#7EE5FF"/>
<stop offset="1" stop-color="#41A9FF"/>
</linearGradient>
</defs>
</svg>
