<svg width="40" height="41" viewBox="0 0 40 41" fill="none" xmlns="http://www.w3.org/2000/svg">
<g filter="url(#filter0_bii_2078_2383)">
<mask id="path-1-inside-1_2078_2383" fill="white">
<path d="M19.9993 2.66446C19.9993 1.7052 19.9993 1.22558 20.3284 0.930537C20.6575 0.635495 21.1037 0.683929 21.9959 0.780797C23.9374 0.99156 25.8435 1.48548 27.6527 2.24981C30.0792 3.27486 32.2839 4.76618 34.141 6.63862C35.9981 8.51106 37.4712 10.728 38.4763 13.1627C39.2257 14.9782 39.7039 16.8883 39.8987 18.8314C39.9883 19.7245 40.033 20.171 39.7353 20.4976C39.4375 20.8243 38.9579 20.8204 37.9987 20.8125L21.9993 20.6809C21.0565 20.6732 20.5851 20.6693 20.2922 20.374C19.9993 20.0787 19.9993 19.6073 19.9993 18.6645L19.9993 2.66446Z"/>
</mask>
<path d="M19.9993 2.66446C19.9993 1.7052 19.9993 1.22558 20.3284 0.930537C20.6575 0.635495 21.1037 0.683929 21.9959 0.780797C23.9374 0.99156 25.8435 1.48548 27.6527 2.24981C30.0792 3.27486 32.2839 4.76618 34.141 6.63862C35.9981 8.51106 37.4712 10.728 38.4763 13.1627C39.2257 14.9782 39.7039 16.8883 39.8987 18.8314C39.9883 19.7245 40.033 20.171 39.7353 20.4976C39.4375 20.8243 38.9579 20.8204 37.9987 20.8125L21.9993 20.6809C21.0565 20.6732 20.5851 20.6693 20.2922 20.374C19.9993 20.0787 19.9993 19.6073 19.9993 18.6645L19.9993 2.66446Z" fill="#1D1D1D" fill-opacity="0.05"/>
<path d="M19.9993 2.66446C19.9993 1.7052 19.9993 1.22558 20.3284 0.930537C20.6575 0.635495 21.1037 0.683929 21.9959 0.780797C23.9374 0.99156 25.8435 1.48548 27.6527 2.24981C30.0792 3.27486 32.2839 4.76618 34.141 6.63862C35.9981 8.51106 37.4712 10.728 38.4763 13.1627C39.2257 14.9782 39.7039 16.8883 39.8987 18.8314C39.9883 19.7245 40.033 20.171 39.7353 20.4976C39.4375 20.8243 38.9579 20.8204 37.9987 20.8125L21.9993 20.6809C21.0565 20.6732 20.5851 20.6693 20.2922 20.374C19.9993 20.0787 19.9993 19.6073 19.9993 18.6645L19.9993 2.66446Z" fill="url(#paint0_linear_2078_2383)" fill-opacity="0.2"/>
<path d="M19.9993 2.66446C19.9993 1.7052 19.9993 1.22558 20.3284 0.930537C20.6575 0.635495 21.1037 0.683929 21.9959 0.780797C23.9374 0.99156 25.8435 1.48548 27.6527 2.24981C30.0792 3.27486 32.2839 4.76618 34.141 6.63862C35.9981 8.51106 37.4712 10.728 38.4763 13.1627C39.2257 14.9782 39.7039 16.8883 39.8987 18.8314C39.9883 19.7245 40.033 20.171 39.7353 20.4976C39.4375 20.8243 38.9579 20.8204 37.9987 20.8125L21.9993 20.6809C21.0565 20.6732 20.5851 20.6693 20.2922 20.374C19.9993 20.0787 19.9993 19.6073 19.9993 18.6645L19.9993 2.66446Z" stroke="url(#paint1_linear_2078_2383)" stroke-opacity="0.1" stroke-width="0.533333" mask="url(#path-1-inside-1_2078_2383)"/>
</g>
<circle cx="20.2978" cy="20.7978" r="17.2978" fill="url(#paint2_linear_2078_2383)"/>
<g filter="url(#filter1_bii_2078_2383)">
<mask id="path-3-inside-2_2078_2383" fill="white">
<path d="M19.9993 2.66446C19.9993 1.7052 19.9993 1.22558 20.3284 0.930537C20.6575 0.635495 21.1037 0.683929 21.9959 0.780797C23.9374 0.99156 25.8435 1.48548 27.6527 2.24981C30.0792 3.27486 32.2839 4.76618 34.141 6.63862C35.9981 8.51106 37.4712 10.728 38.4763 13.1627C39.2257 14.9782 39.7039 16.8883 39.8987 18.8314C39.9883 19.7245 40.033 20.171 39.7353 20.4976C39.4375 20.8243 38.9579 20.8204 37.9987 20.8125L21.9993 20.6809C21.0565 20.6732 20.5851 20.6693 20.2922 20.374C19.9993 20.0787 19.9993 19.6073 19.9993 18.6645L19.9993 2.66446Z"/>
</mask>
<path d="M19.9993 2.66446C19.9993 1.7052 19.9993 1.22558 20.3284 0.930537C20.6575 0.635495 21.1037 0.683929 21.9959 0.780797C23.9374 0.99156 25.8435 1.48548 27.6527 2.24981C30.0792 3.27486 32.2839 4.76618 34.141 6.63862C35.9981 8.51106 37.4712 10.728 38.4763 13.1627C39.2257 14.9782 39.7039 16.8883 39.8987 18.8314C39.9883 19.7245 40.033 20.171 39.7353 20.4976C39.4375 20.8243 38.9579 20.8204 37.9987 20.8125L21.9993 20.6809C21.0565 20.6732 20.5851 20.6693 20.2922 20.374C19.9993 20.0787 19.9993 19.6073 19.9993 18.6645L19.9993 2.66446Z" fill="#1D1D1D" fill-opacity="0.05"/>
<path d="M19.9993 2.66446C19.9993 1.7052 19.9993 1.22558 20.3284 0.930537C20.6575 0.635495 21.1037 0.683929 21.9959 0.780797C23.9374 0.99156 25.8435 1.48548 27.6527 2.24981C30.0792 3.27486 32.2839 4.76618 34.141 6.63862C35.9981 8.51106 37.4712 10.728 38.4763 13.1627C39.2257 14.9782 39.7039 16.8883 39.8987 18.8314C39.9883 19.7245 40.033 20.171 39.7353 20.4976C39.4375 20.8243 38.9579 20.8204 37.9987 20.8125L21.9993 20.6809C21.0565 20.6732 20.5851 20.6693 20.2922 20.374C19.9993 20.0787 19.9993 19.6073 19.9993 18.6645L19.9993 2.66446Z" fill="url(#paint3_linear_2078_2383)" fill-opacity="0.2"/>
<path d="M19.9993 2.66446C19.9993 1.7052 19.9993 1.22558 20.3284 0.930537C20.6575 0.635495 21.1037 0.683929 21.9959 0.780797C23.9374 0.99156 25.8435 1.48548 27.6527 2.24981C30.0792 3.27486 32.2839 4.76618 34.141 6.63862C35.9981 8.51106 37.4712 10.728 38.4763 13.1627C39.2257 14.9782 39.7039 16.8883 39.8987 18.8314C39.9883 19.7245 40.033 20.171 39.7353 20.4976C39.4375 20.8243 38.9579 20.8204 37.9987 20.8125L21.9993 20.6809C21.0565 20.6732 20.5851 20.6693 20.2922 20.374C19.9993 20.0787 19.9993 19.6073 19.9993 18.6645L19.9993 2.66446Z" stroke="url(#paint4_linear_2078_2383)" stroke-opacity="0.1" stroke-width="0.533333" mask="url(#path-3-inside-2_2078_2383)"/>
</g>
<defs>
<filter id="filter0_bii_2078_2383" x="15.9993" y="-3.29395" width="27.9666" height="28.1084" filterUnits="userSpaceOnUse" color-interpolation-filters="sRGB">
<feFlood flood-opacity="0" result="BackgroundImageFix"/>
<feGaussianBlur in="BackgroundImageFix" stdDeviation="2"/>
<feComposite in2="SourceAlpha" operator="in" result="effect1_backgroundBlur_2078_2383"/>
<feBlend mode="normal" in="SourceGraphic" in2="effect1_backgroundBlur_2078_2383" result="shape"/>
<feColorMatrix in="SourceAlpha" type="matrix" values="0 0 0 0 0 0 0 0 0 0 0 0 0 0 0 0 0 0 127 0" result="hardAlpha"/>
<feOffset dy="0.666667"/>
<feGaussianBlur stdDeviation="1.33333"/>
<feComposite in2="hardAlpha" operator="arithmetic" k2="-1" k3="1"/>
<feColorMatrix type="matrix" values="0 0 0 0 1 0 0 0 0 1 0 0 0 0 1 0 0 0 0.15 0"/>
<feBlend mode="normal" in2="shape" result="effect2_innerShadow_2078_2383"/>
<feColorMatrix in="SourceAlpha" type="matrix" values="0 0 0 0 0 0 0 0 0 0 0 0 0 0 0 0 0 0 127 0" result="hardAlpha"/>
<feOffset dy="-4"/>
<feGaussianBlur stdDeviation="3"/>
<feComposite in2="hardAlpha" operator="arithmetic" k2="-1" k3="1"/>
<feColorMatrix type="matrix" values="0 0 0 0 1 0 0 0 0 1 0 0 0 0 1 0 0 0 0.15 0"/>
<feBlend mode="normal" in2="effect2_innerShadow_2078_2383" result="effect3_innerShadow_2078_2383"/>
</filter>
<filter id="filter1_bii_2078_2383" x="15.9993" y="-3.29395" width="27.9666" height="28.1084" filterUnits="userSpaceOnUse" color-interpolation-filters="sRGB">
<feFlood flood-opacity="0" result="BackgroundImageFix"/>
<feGaussianBlur in="BackgroundImageFix" stdDeviation="2"/>
<feComposite in2="SourceAlpha" operator="in" result="effect1_backgroundBlur_2078_2383"/>
<feBlend mode="normal" in="SourceGraphic" in2="effect1_backgroundBlur_2078_2383" result="shape"/>
<feColorMatrix in="SourceAlpha" type="matrix" values="0 0 0 0 0 0 0 0 0 0 0 0 0 0 0 0 0 0 127 0" result="hardAlpha"/>
<feOffset dy="0.666667"/>
<feGaussianBlur stdDeviation="1.33333"/>
<feComposite in2="hardAlpha" operator="arithmetic" k2="-1" k3="1"/>
<feColorMatrix type="matrix" values="0 0 0 0 1 0 0 0 0 1 0 0 0 0 1 0 0 0 0.15 0"/>
<feBlend mode="normal" in2="shape" result="effect2_innerShadow_2078_2383"/>
<feColorMatrix in="SourceAlpha" type="matrix" values="0 0 0 0 0 0 0 0 0 0 0 0 0 0 0 0 0 0 127 0" result="hardAlpha"/>
<feOffset dy="-4"/>
<feGaussianBlur stdDeviation="3"/>
<feComposite in2="hardAlpha" operator="arithmetic" k2="-1" k3="1"/>
<feColorMatrix type="matrix" values="0 0 0 0 1 0 0 0 0 1 0 0 0 0 1 0 0 0 0.15 0"/>
<feBlend mode="normal" in2="effect2_innerShadow_2078_2383" result="effect3_innerShadow_2078_2383"/>
</filter>
<linearGradient id="paint0_linear_2078_2383" x1="0" y1="40.5" x2="12.3031" y2="-6.43147" gradientUnits="userSpaceOnUse">
<stop stop-color="white"/>
<stop offset="1" stop-color="#4470FF"/>
</linearGradient>
<linearGradient id="paint1_linear_2078_2383" x1="1.81812" y1="39.265" x2="2.13676" y2="0.517565" gradientUnits="userSpaceOnUse">
<stop stop-color="#FFC282"/>
<stop offset="1" stop-color="#FF4980"/>
</linearGradient>
<linearGradient id="paint2_linear_2078_2383" x1="3" y1="18.8671" x2="37.2176" y2="18.8663" gradientUnits="userSpaceOnUse">
<stop stop-color="#62BDFF"/>
<stop offset="1" stop-color="#3864FF"/>
</linearGradient>
<linearGradient id="paint3_linear_2078_2383" x1="0" y1="40.5" x2="12.3031" y2="-6.43147" gradientUnits="userSpaceOnUse">
<stop stop-color="white"/>
<stop offset="1" stop-color="#4470FF"/>
</linearGradient>
<linearGradient id="paint4_linear_2078_2383" x1="1.81812" y1="39.265" x2="2.13676" y2="0.517565" gradientUnits="userSpaceOnUse">
<stop stop-color="#FFC282"/>
<stop offset="1" stop-color="#FF4980"/>
</linearGradient>
</defs>
</svg>
