<svg width="24" height="24" viewBox="0 0 24 24" fill="none" xmlns="http://www.w3.org/2000/svg">
<g filter="url(#filter0_bi_2791_4899)">
<path d="M10.1712 11.6418C9.96296 11.4335 9.62527 11.4335 9.41699 11.6418L8.55359 12.5052C8.34531 12.7135 8.34531 13.0512 8.55359 13.2595L8.55882 13.2647C8.67647 13.3824 8.67647 13.5588 8.55882 13.6765L7.5 14.7353C7.38235 14.8529 7.20588 14.8529 7.08823 14.7353L3.08824 10.7353C2.97059 10.6176 2.97059 10.4412 3.08824 10.3235L4.14706 9.26471C4.26471 9.14706 4.44118 9.14706 4.55882 9.26471L4.56405 9.26993C4.77233 9.47821 5.11002 9.47821 5.3183 9.26993L9.26993 5.3183C9.47821 5.11002 9.47821 4.77233 9.26993 4.56405L9.26471 4.55882C9.14706 4.44118 9.14706 4.26471 9.26471 4.14706L10.3235 3.08824C10.4412 2.97059 10.6176 2.97059 10.7353 3.08824L14.7353 7.08823C14.8529 7.20588 14.8529 7.38235 14.7353 7.5L13.6765 8.55882C13.5588 8.67647 13.3824 8.67647 13.2647 8.55882L13.2595 8.55359C13.0512 8.34531 12.7135 8.34531 12.5052 8.55359L11.6418 9.41699C11.4335 9.62527 11.4335 9.96296 11.6418 10.1712L20.9118 19.4412C21.0294 19.5588 21.0294 19.7353 20.9118 19.8529L19.8529 20.9118C19.7353 21.0294 19.5588 21.0294 19.4412 20.9118L10.1712 11.6418Z" fill="#F1F1F1" fill-opacity="0.1"/>
<path d="M10.1712 11.6418C9.96296 11.4335 9.62527 11.4335 9.41699 11.6418L8.55359 12.5052C8.34531 12.7135 8.34531 13.0512 8.55359 13.2595L8.55882 13.2647C8.67647 13.3824 8.67647 13.5588 8.55882 13.6765L7.5 14.7353C7.38235 14.8529 7.20588 14.8529 7.08823 14.7353L3.08824 10.7353C2.97059 10.6176 2.97059 10.4412 3.08824 10.3235L4.14706 9.26471C4.26471 9.14706 4.44118 9.14706 4.55882 9.26471L4.56405 9.26993C4.77233 9.47821 5.11002 9.47821 5.3183 9.26993L9.26993 5.3183C9.47821 5.11002 9.47821 4.77233 9.26993 4.56405L9.26471 4.55882C9.14706 4.44118 9.14706 4.26471 9.26471 4.14706L10.3235 3.08824C10.4412 2.97059 10.6176 2.97059 10.7353 3.08824L14.7353 7.08823C14.8529 7.20588 14.8529 7.38235 14.7353 7.5L13.6765 8.55882C13.5588 8.67647 13.3824 8.67647 13.2647 8.55882L13.2595 8.55359C13.0512 8.34531 12.7135 8.34531 12.5052 8.55359L11.6418 9.41699C11.4335 9.62527 11.4335 9.96296 11.6418 10.1712L20.9118 19.4412C21.0294 19.5588 21.0294 19.7353 20.9118 19.8529L19.8529 20.9118C19.7353 21.0294 19.5588 21.0294 19.4412 20.9118L10.1712 11.6418Z" fill="url(#paint0_linear_2791_4899)"/>
<path d="M10.2014 11.6117C9.97647 11.3867 9.61177 11.3867 9.38682 11.6117L8.52342 12.4751C8.29848 12.7 8.29848 13.0647 8.52342 13.2896L8.52865 13.2949C8.62964 13.3959 8.62964 13.5453 8.52865 13.6463L7.46983 14.7051C7.36885 14.8061 7.21939 14.8061 7.1184 14.7051L3.11841 10.7051C3.01742 10.6041 3.01742 10.4547 3.11841 10.3537L4.17723 9.29488C4.27821 9.19389 4.42767 9.19389 4.52865 9.29488L4.53388 9.3001C4.75882 9.52505 5.12353 9.52505 5.34847 9.3001L9.3001 5.34847C9.52505 5.12353 9.52505 4.75882 9.3001 4.53388L9.29488 4.52865C9.19389 4.42767 9.19389 4.27821 9.29488 4.17723L10.3537 3.11841C10.4547 3.01742 10.6041 3.01742 10.7051 3.11841L14.7051 7.1184C14.8061 7.21939 14.8061 7.36885 14.7051 7.46983L13.6463 8.52865C13.5453 8.62964 13.3959 8.62964 13.2949 8.52865L13.2896 8.52342C13.0647 8.29848 12.7 8.29848 12.4751 8.52342L11.6117 9.38682C11.3867 9.61177 11.3867 9.97647 11.6117 10.2014L20.8816 19.4713C20.9826 19.5723 20.9826 19.7218 20.8816 19.8228L19.8228 20.8816C19.7218 20.9826 19.5723 20.9826 19.4713 20.8816L10.2014 11.6117Z" stroke="url(#paint1_linear_2791_4899)" stroke-opacity="0.1" stroke-width="0.0853333"/>
</g>
<defs>
<filter id="filter0_bi_2791_4899" x="1.72" y="1.72" width="20.56" height="20.56" filterUnits="userSpaceOnUse" color-interpolation-filters="sRGB">
<feFlood flood-opacity="0" result="BackgroundImageFix"/>
<feGaussianBlur in="BackgroundImageFix" stdDeviation="0.64"/>
<feComposite in2="SourceAlpha" operator="in" result="effect1_backgroundBlur_2791_4899"/>
<feBlend mode="normal" in="SourceGraphic" in2="effect1_backgroundBlur_2791_4899" result="shape"/>
<feColorMatrix in="SourceAlpha" type="matrix" values="0 0 0 0 0 0 0 0 0 0 0 0 0 0 0 0 0 0 127 0" result="hardAlpha"/>
<feOffset dy="0.213333"/>
<feGaussianBlur stdDeviation="0.426667"/>
<feComposite in2="hardAlpha" operator="arithmetic" k2="-1" k3="1"/>
<feColorMatrix type="matrix" values="0 0 0 0 1 0 0 0 0 1 0 0 0 0 1 0 0 0 0.15 0"/>
<feBlend mode="normal" in2="shape" result="effect2_innerShadow_2791_4899"/>
</filter>
<linearGradient id="paint0_linear_2791_4899" x1="3" y1="3" x2="24.2034" y2="8.38395" gradientUnits="userSpaceOnUse">
<stop stop-color="#62BDFF"/>
<stop offset="1" stop-color="#3864FF"/>
</linearGradient>
<linearGradient id="paint1_linear_2791_4899" x1="3.5625" y1="3.81818" x2="21" y2="3.81818" gradientUnits="userSpaceOnUse">
<stop stop-color="#7EE5FF"/>
<stop offset="1" stop-color="#41A9FF"/>
</linearGradient>
</defs>
</svg>
