<svg width="24" height="24" viewBox="0 0 24 24" fill="none" xmlns="http://www.w3.org/2000/svg">
<g filter="url(#filter0_bi_3192_892)">
<path d="M10.2969 11.7675C10.0192 11.4898 9.56899 11.4898 9.29129 11.7675L8.55882 12.5C8.34766 12.7112 8.34765 13.0535 8.55882 13.2647C8.67647 13.3824 8.67647 13.5588 8.55882 13.6765L7.5 14.7353C7.38235 14.8529 7.20588 14.8529 7.08823 14.7353L3.08824 10.7353C2.97059 10.6176 2.97059 10.4412 3.08824 10.3235L4.14706 9.26471C4.26471 9.14706 4.44118 9.14706 4.55882 9.26471C4.76999 9.47587 5.11236 9.47587 5.32353 9.26471L9.26471 5.32353C9.47587 5.11236 9.47587 4.76999 9.26471 4.55882C9.14706 4.44118 9.14706 4.26471 9.26471 4.14706L10.3235 3.08824C10.4412 2.97059 10.6176 2.97059 10.7353 3.08824L14.7353 7.08823C14.8529 7.20588 14.8529 7.38235 14.7353 7.5L13.6765 8.55882C13.5588 8.67647 13.3824 8.67647 13.2647 8.55882C13.0535 8.34765 12.7112 8.34765 12.5 8.55882L11.7675 9.29129C11.4898 9.56899 11.4898 10.0192 11.7675 10.2969L20.9118 19.4412C21.0294 19.5588 21.0294 19.7353 20.9118 19.8529L19.8529 20.9118C19.7353 21.0294 19.5588 21.0294 19.4412 20.9118L10.2969 11.7675Z" fill="#F1F1F1" fill-opacity="0.1"/>
<path d="M10.2969 11.7675C10.0192 11.4898 9.56899 11.4898 9.29129 11.7675L8.55882 12.5C8.34766 12.7112 8.34765 13.0535 8.55882 13.2647C8.67647 13.3824 8.67647 13.5588 8.55882 13.6765L7.5 14.7353C7.38235 14.8529 7.20588 14.8529 7.08823 14.7353L3.08824 10.7353C2.97059 10.6176 2.97059 10.4412 3.08824 10.3235L4.14706 9.26471C4.26471 9.14706 4.44118 9.14706 4.55882 9.26471C4.76999 9.47587 5.11236 9.47587 5.32353 9.26471L9.26471 5.32353C9.47587 5.11236 9.47587 4.76999 9.26471 4.55882C9.14706 4.44118 9.14706 4.26471 9.26471 4.14706L10.3235 3.08824C10.4412 2.97059 10.6176 2.97059 10.7353 3.08824L14.7353 7.08823C14.8529 7.20588 14.8529 7.38235 14.7353 7.5L13.6765 8.55882C13.5588 8.67647 13.3824 8.67647 13.2647 8.55882C13.0535 8.34765 12.7112 8.34765 12.5 8.55882L11.7675 9.29129C11.4898 9.56899 11.4898 10.0192 11.7675 10.2969L20.9118 19.4412C21.0294 19.5588 21.0294 19.7353 20.9118 19.8529L19.8529 20.9118C19.7353 21.0294 19.5588 21.0294 19.4412 20.9118L10.2969 11.7675Z" fill="url(#paint0_linear_3192_892)" fill-opacity="0.2"/>
<path d="M10.3305 11.734C10.0343 11.4378 9.55398 11.4378 9.25776 11.734L8.5253 12.4665C8.29562 12.6962 8.29562 13.0685 8.5253 13.2982C8.62443 13.3974 8.62443 13.5438 8.5253 13.6429L7.46648 14.7018C7.36734 14.8009 7.22089 14.8009 7.12176 14.7018L3.12176 10.7018C3.02262 10.6026 3.02262 10.4562 3.12176 10.3571L4.18058 9.29823C4.27971 9.19909 4.42617 9.19909 4.5253 9.29823C4.75498 9.52791 5.12737 9.52791 5.35705 9.29823L9.29823 5.35705C9.52791 5.12737 9.52791 4.75498 9.29823 4.5253C9.19909 4.42617 9.19909 4.27971 9.29823 4.18058L10.3571 3.12176C10.4562 3.02262 10.6026 3.02262 10.7018 3.12176L14.7018 7.12176C14.8009 7.22089 14.8009 7.36734 14.7018 7.46648L13.6429 8.5253C13.5438 8.62443 13.3974 8.62443 13.2982 8.5253C13.0685 8.29562 12.6962 8.29562 12.4665 8.5253L11.734 9.25776C11.4378 9.55398 11.4378 10.0343 11.734 10.3305L20.8782 19.4747C20.9774 19.5738 20.9774 19.7203 20.8782 19.8194L19.8194 20.8782C19.7203 20.9774 19.5738 20.9774 19.4747 20.8782L10.3305 11.734Z" stroke="url(#paint1_linear_3192_892)" stroke-opacity="0.1" stroke-width="0.0948148"/>
</g>
<defs>
<filter id="filter0_bi_3192_892" x="1.57778" y="1.57778" width="20.8444" height="20.8444" filterUnits="userSpaceOnUse" color-interpolation-filters="sRGB">
<feFlood flood-opacity="0" result="BackgroundImageFix"/>
<feGaussianBlur in="BackgroundImageFix" stdDeviation="0.711111"/>
<feComposite in2="SourceAlpha" operator="in" result="effect1_backgroundBlur_3192_892"/>
<feBlend mode="normal" in="SourceGraphic" in2="effect1_backgroundBlur_3192_892" result="shape"/>
<feColorMatrix in="SourceAlpha" type="matrix" values="0 0 0 0 0 0 0 0 0 0 0 0 0 0 0 0 0 0 127 0" result="hardAlpha"/>
<feOffset dy="0.237037"/>
<feGaussianBlur stdDeviation="0.474074"/>
<feComposite in2="hardAlpha" operator="arithmetic" k2="-1" k3="1"/>
<feColorMatrix type="matrix" values="0 0 0 0 1 0 0 0 0 1 0 0 0 0 1 0 0 0 0.15 0"/>
<feBlend mode="normal" in2="shape" result="effect2_innerShadow_3192_892"/>
</filter>
<linearGradient id="paint0_linear_3192_892" x1="3" y1="3" x2="24.2034" y2="8.38395" gradientUnits="userSpaceOnUse">
<stop stop-color="#82E8FF"/>
<stop offset="1" stop-color="#379FFF"/>
</linearGradient>
<linearGradient id="paint1_linear_3192_892" x1="3.5625" y1="3.81818" x2="21" y2="3.81818" gradientUnits="userSpaceOnUse">
<stop stop-color="#7EE5FF"/>
<stop offset="1" stop-color="#41A9FF"/>
</linearGradient>
</defs>
</svg>
