<svg width="36" height="42" viewBox="0 0 36 42" fill="none" xmlns="http://www.w3.org/2000/svg">
<g filter="url(#filter0_bii_2078_1897)">
<ellipse rx="16.2011" ry="7.79178" transform="matrix(-0.989063 -0.147495 0.155624 -0.987816 18.2355 33.0864)" fill="#1D1D1D" fill-opacity="0.05"/>
<ellipse rx="16.2011" ry="7.79178" transform="matrix(-0.989063 -0.147495 0.155624 -0.987816 18.2355 33.0864)" fill="url(#paint0_linear_2078_1897)" fill-opacity="0.2"/>
<path d="M2.34351 30.7165C2.66583 28.6705 4.69456 27.0379 7.80081 26.0815C10.8969 25.1281 15.0178 24.8637 19.4274 25.5213C23.8369 26.1789 27.6872 27.632 30.3477 29.4438C33.0169 31.2615 34.4499 33.4104 34.1276 35.4563C33.8053 37.5023 31.7765 39.1349 28.6703 40.0914C25.5742 41.0447 21.4533 41.3091 17.0437 40.6516C12.6342 39.994 8.78385 38.5408 6.12336 36.729C3.45415 34.9113 2.02118 32.7625 2.34351 30.7165Z" stroke="url(#paint1_linear_2078_1897)" stroke-opacity="0.1" stroke-width="0.266667"/>
</g>
<g filter="url(#filter1_bi_2078_1897)">
<path d="M23.0598 24.0283C22.6555 24.0283 22.4534 24.0283 22.2791 24.1967C22.2262 24.2477 22.1534 24.3615 22.1292 24.4309C22.0495 24.6598 22.1102 24.7913 22.2316 25.0541C23.0236 26.7688 25.7541 28.0317 29.0007 28.0317C32.262 28.0317 35.0031 26.7563 35.7798 25.0288C35.8876 24.789 35.9415 24.6692 35.8761 24.4539C35.8504 24.3693 35.763 24.2343 35.6964 24.1762C35.5269 24.0283 35.3407 24.0283 34.9681 24.0283C34.6379 24.0283 34.4728 24.0283 34.3411 23.9586C34.2739 23.9231 34.2141 23.8751 34.1648 23.8172C34.0683 23.7038 34.0325 23.5426 33.9608 23.2202L29.4175 2.77354C29.4171 2.77114 29.4155 2.76954 29.4147 2.76714C29.3612 2.50766 29.3344 2.37793 29.2681 2.27968C29.2019 2.18164 29.1083 2.10534 28.9989 2.06037C28.8893 2.0153 28.7568 2.0153 28.4918 2.0153H21.7196C21.3584 2.0153 21.1779 2.0153 21.0485 1.94863C20.9191 1.88195 20.7715 1.67468 20.4762 1.26013C19.9331 0.497773 19.0437 0 18.0362 0C17.0284 0 16.1389 0.497774 15.5958 1.26013C15.3005 1.67468 15.1528 1.88195 15.0235 1.94863C14.8941 2.0153 14.7136 2.0153 14.3524 2.0153H7.52636C7.31342 2.0153 7.20695 2.0153 7.11662 2.04463C6.97442 2.0908 6.85458 2.1884 6.78057 2.3183C6.73357 2.40082 6.71201 2.50508 6.66889 2.71362L6.66551 2.72999C6.57765 3.15489 6.79729 2.09263 6.79726 2.09278C6.79173 2.11944 6.8017 2.07263 6.79588 2.09923C6.79585 2.09938 6.74299 2.34038 6.63727 2.82238L2.04861 23.2027C1.9754 23.5279 1.93879 23.6904 1.84041 23.8043C1.79232 23.8599 1.73442 23.9062 1.66958 23.9409C1.53694 24.0119 1.37028 24.0119 1.03697 24.0119C0.658708 24.0119 0.469577 24.0119 0.299091 24.1634C0.23504 24.2203 0.150335 24.3515 0.124836 24.4333C0.0569657 24.6511 0.112072 24.773 0.222283 25.017C1.00178 26.7422 3.74113 28.0153 7.00048 28.0153C10.2751 28.0153 13.0252 26.7297 13.7892 24.9916C13.8864 24.7705 13.935 24.6599 13.8801 24.4559C13.854 24.359 13.7548 24.2071 13.6766 24.1442C13.5119 24.0119 13.3382 24.0119 12.9908 24.0119C12.6788 24.0119 12.5228 24.0119 12.3968 23.9494C12.3197 23.9112 12.2517 23.8568 12.1974 23.7899C12.1088 23.6807 12.0746 23.5285 12.0061 23.224L8.01522 5.48032C7.86332 4.80499 7.78737 4.46732 7.96752 4.24216C8.14767 4.01699 8.49377 4.01699 9.18597 4.01699H14.3733C14.7307 4.01699 14.9094 4.01699 15.038 4.08264C15.1665 4.14829 15.3141 4.35224 15.6093 4.76014C15.7925 5.01327 16.0142 5.2366 16.2659 5.42155C16.7121 5.74933 16.9352 5.91322 17 6.05345C17.0649 6.19367 17.0511 6.38809 17.0235 6.77693L15.2557 31.6823C15.2182 32.211 15.1994 32.4753 15.0266 32.6363C14.8538 32.7973 14.5888 32.7973 14.0587 32.7973H7.26927C6.70358 32.7973 6.42074 32.7973 6.245 32.973C6.06927 33.1488 6.06927 33.4316 6.06927 33.9973V34.8C6.06927 35.3657 6.06927 35.6485 6.245 35.8243C6.42074 36 6.70358 36 7.26927 36H28.8027C29.3684 36 29.6513 36 29.827 35.8243C30.0027 35.6485 30.0027 35.3657 30.0027 34.8V33.9973C30.0027 33.4316 30.0027 33.1488 29.827 32.973C29.6513 32.7973 29.3684 32.7973 28.8027 32.7973H21.9941C21.4637 32.7973 21.1985 32.7973 21.0256 32.6362C20.8528 32.4751 20.8342 32.2105 20.797 31.6814L19.0475 6.77681C19.0201 6.38809 19.0065 6.19373 19.0714 6.05361C19.1363 5.91348 19.3594 5.74964 19.8057 5.42194C20.0578 5.23684 20.2797 5.01323 20.4631 4.75976C20.7581 4.35212 20.9056 4.14831 21.0341 4.08265C21.1627 4.01699 21.3414 4.01699 21.6988 4.01699H26.8638C27.5544 4.01699 27.8997 4.01699 28.0799 4.24159C28.26 4.46619 28.1851 4.80329 28.0351 5.47748L24.0944 23.1985C24.018 23.542 23.9798 23.7138 23.8729 23.8315C23.8304 23.8784 23.7808 23.9182 23.7258 23.9495C23.5877 24.0283 23.4117 24.0283 23.0598 24.0283ZM4.18703 24.0119C3.4947 24.0119 3.14853 24.0119 2.96838 23.7867C2.78824 23.5615 2.86427 23.2237 3.01633 22.5483L5.85599 9.93535C6.3167 7.88899 6.54706 6.86581 7.02705 6.86586C7.50704 6.86591 7.73717 7.88914 8.19744 9.9356L11.0342 22.5486C11.1861 23.2239 11.262 23.5616 11.0819 23.7867C10.9018 24.0119 10.5557 24.0119 9.86346 24.0119H4.18703ZM18.0362 4.40172C17.2642 4.40172 16.6362 3.77359 16.6362 3.00133C16.6362 2.22948 17.2642 1.60135 18.0362 1.60135C18.8082 1.60135 19.4358 2.22948 19.4358 3.00133C19.4358 3.77359 18.8082 4.40172 18.0362 4.40172ZM27.8548 9.97404C28.3151 7.90415 28.5452 6.8692 29.0265 6.86925C29.5078 6.8693 29.7377 7.90429 30.1976 9.97427L32.9955 22.568C33.1453 23.2421 33.2202 23.5792 33.0401 23.8037C32.8599 24.0283 32.5146 24.0283 31.8241 24.0283H26.2256C25.535 24.0283 25.1896 24.0283 25.0095 23.8037C24.8294 23.5791 24.9043 23.242 25.0543 22.5678L27.8548 9.97404Z" fill="#F1F1F1" fill-opacity="0.1"/>
<path d="M23.0598 24.0283C22.6555 24.0283 22.4534 24.0283 22.2791 24.1967C22.2262 24.2477 22.1534 24.3615 22.1292 24.4309C22.0495 24.6598 22.1102 24.7913 22.2316 25.0541C23.0236 26.7688 25.7541 28.0317 29.0007 28.0317C32.262 28.0317 35.0031 26.7563 35.7798 25.0288C35.8876 24.789 35.9415 24.6692 35.8761 24.4539C35.8504 24.3693 35.763 24.2343 35.6964 24.1762C35.5269 24.0283 35.3407 24.0283 34.9681 24.0283C34.6379 24.0283 34.4728 24.0283 34.3411 23.9586C34.2739 23.9231 34.2141 23.8751 34.1648 23.8172C34.0683 23.7038 34.0325 23.5426 33.9608 23.2202L29.4175 2.77354C29.4171 2.77114 29.4155 2.76954 29.4147 2.76714C29.3612 2.50766 29.3344 2.37793 29.2681 2.27968C29.2019 2.18164 29.1083 2.10534 28.9989 2.06037C28.8893 2.0153 28.7568 2.0153 28.4918 2.0153H21.7196C21.3584 2.0153 21.1779 2.0153 21.0485 1.94863C20.9191 1.88195 20.7715 1.67468 20.4762 1.26013C19.9331 0.497773 19.0437 0 18.0362 0C17.0284 0 16.1389 0.497774 15.5958 1.26013C15.3005 1.67468 15.1528 1.88195 15.0235 1.94863C14.8941 2.0153 14.7136 2.0153 14.3524 2.0153H7.52636C7.31342 2.0153 7.20695 2.0153 7.11662 2.04463C6.97442 2.0908 6.85458 2.1884 6.78057 2.3183C6.73357 2.40082 6.71201 2.50508 6.66889 2.71362L6.66551 2.72999C6.57765 3.15489 6.79729 2.09263 6.79726 2.09278C6.79173 2.11944 6.8017 2.07263 6.79588 2.09923C6.79585 2.09938 6.74299 2.34038 6.63727 2.82238L2.04861 23.2027C1.9754 23.5279 1.93879 23.6904 1.84041 23.8043C1.79232 23.8599 1.73442 23.9062 1.66958 23.9409C1.53694 24.0119 1.37028 24.0119 1.03697 24.0119C0.658708 24.0119 0.469577 24.0119 0.299091 24.1634C0.23504 24.2203 0.150335 24.3515 0.124836 24.4333C0.0569657 24.6511 0.112072 24.773 0.222283 25.017C1.00178 26.7422 3.74113 28.0153 7.00048 28.0153C10.2751 28.0153 13.0252 26.7297 13.7892 24.9916C13.8864 24.7705 13.935 24.6599 13.8801 24.4559C13.854 24.359 13.7548 24.2071 13.6766 24.1442C13.5119 24.0119 13.3382 24.0119 12.9908 24.0119C12.6788 24.0119 12.5228 24.0119 12.3968 23.9494C12.3197 23.9112 12.2517 23.8568 12.1974 23.7899C12.1088 23.6807 12.0746 23.5285 12.0061 23.224L8.01522 5.48032C7.86332 4.80499 7.78737 4.46732 7.96752 4.24216C8.14767 4.01699 8.49377 4.01699 9.18597 4.01699H14.3733C14.7307 4.01699 14.9094 4.01699 15.038 4.08264C15.1665 4.14829 15.3141 4.35224 15.6093 4.76014C15.7925 5.01327 16.0142 5.2366 16.2659 5.42155C16.7121 5.74933 16.9352 5.91322 17 6.05345C17.0649 6.19367 17.0511 6.38809 17.0235 6.77693L15.2557 31.6823C15.2182 32.211 15.1994 32.4753 15.0266 32.6363C14.8538 32.7973 14.5888 32.7973 14.0587 32.7973H7.26927C6.70358 32.7973 6.42074 32.7973 6.245 32.973C6.06927 33.1488 6.06927 33.4316 6.06927 33.9973V34.8C6.06927 35.3657 6.06927 35.6485 6.245 35.8243C6.42074 36 6.70358 36 7.26927 36H28.8027C29.3684 36 29.6513 36 29.827 35.8243C30.0027 35.6485 30.0027 35.3657 30.0027 34.8V33.9973C30.0027 33.4316 30.0027 33.1488 29.827 32.973C29.6513 32.7973 29.3684 32.7973 28.8027 32.7973H21.9941C21.4637 32.7973 21.1985 32.7973 21.0256 32.6362C20.8528 32.4751 20.8342 32.2105 20.797 31.6814L19.0475 6.77681C19.0201 6.38809 19.0065 6.19373 19.0714 6.05361C19.1363 5.91348 19.3594 5.74964 19.8057 5.42194C20.0578 5.23684 20.2797 5.01323 20.4631 4.75976C20.7581 4.35212 20.9056 4.14831 21.0341 4.08265C21.1627 4.01699 21.3414 4.01699 21.6988 4.01699H26.8638C27.5544 4.01699 27.8997 4.01699 28.0799 4.24159C28.26 4.46619 28.1851 4.80329 28.0351 5.47748L24.0944 23.1985C24.018 23.542 23.9798 23.7138 23.8729 23.8315C23.8304 23.8784 23.7808 23.9182 23.7258 23.9495C23.5877 24.0283 23.4117 24.0283 23.0598 24.0283ZM4.18703 24.0119C3.4947 24.0119 3.14853 24.0119 2.96838 23.7867C2.78824 23.5615 2.86427 23.2237 3.01633 22.5483L5.85599 9.93535C6.3167 7.88899 6.54706 6.86581 7.02705 6.86586C7.50704 6.86591 7.73717 7.88914 8.19744 9.9356L11.0342 22.5486C11.1861 23.2239 11.262 23.5616 11.0819 23.7867C10.9018 24.0119 10.5557 24.0119 9.86346 24.0119H4.18703ZM18.0362 4.40172C17.2642 4.40172 16.6362 3.77359 16.6362 3.00133C16.6362 2.22948 17.2642 1.60135 18.0362 1.60135C18.8082 1.60135 19.4358 2.22948 19.4358 3.00133C19.4358 3.77359 18.8082 4.40172 18.0362 4.40172ZM27.8548 9.97404C28.3151 7.90415 28.5452 6.8692 29.0265 6.86925C29.5078 6.8693 29.7377 7.90429 30.1976 9.97427L32.9955 22.568C33.1453 23.2421 33.2202 23.5792 33.0401 23.8037C32.8599 24.0283 32.5146 24.0283 31.8241 24.0283H26.2256C25.535 24.0283 25.1896 24.0283 25.0095 23.8037C24.8294 23.5791 24.9043 23.242 25.0543 22.5678L27.8548 9.97404Z" fill="url(#paint2_linear_2078_1897)"/>
<path d="M29.359 2.78656C29.3589 2.78629 29.3588 2.78602 29.3588 2.78575L29.359 2.78656ZM29.3578 2.78608C29.3586 2.7885 29.3595 2.79064 29.3603 2.79244L33.9023 23.2333L33.9029 23.2362C33.9382 23.3949 33.9655 23.5179 33.9963 23.6152C34.0275 23.714 34.0637 23.791 34.1191 23.8561C34.1733 23.9198 34.2391 23.9726 34.313 24.0117C34.3887 24.0517 34.4717 24.0703 34.5749 24.0794C34.6765 24.0883 34.8026 24.0883 34.9652 24.0883H34.9681C35.3475 24.0883 35.5077 24.0912 35.657 24.2214C35.6843 24.2452 35.7193 24.2883 35.7512 24.3377C35.7832 24.3871 35.8082 24.4367 35.8187 24.4714C35.8487 24.5703 35.8506 24.6437 35.8342 24.7195C35.8171 24.7988 35.7798 24.8824 35.7251 25.0042C35.345 25.8496 34.48 26.5919 33.2974 27.1233C32.116 27.6542 30.6239 27.9717 29.0007 27.9717C27.3848 27.9717 25.899 27.6573 24.7201 27.1311C23.5401 26.6044 22.6737 25.8683 22.2861 25.029C22.2244 24.8955 22.1823 24.8036 22.1636 24.7171C22.1458 24.6346 22.1493 24.5558 22.1859 24.4507C22.1958 24.4222 22.2173 24.3809 22.2439 24.3392C22.2706 24.2976 22.2991 24.2607 22.3207 24.2398C22.4742 24.0916 22.6479 24.0883 23.0598 24.0883H23.0629C23.2362 24.0883 23.3705 24.0883 23.4785 24.0782C23.5883 24.0679 23.6762 24.0469 23.7555 24.0017C23.816 23.9672 23.8706 23.9234 23.9174 23.8718C23.9787 23.8042 24.0184 23.723 24.0522 23.6181C24.0855 23.5148 24.1147 23.3837 24.1523 23.2144L24.153 23.2115L28.0937 5.49051L28.0948 5.48543C28.1688 5.15263 28.2258 4.89641 28.2411 4.69549C28.2566 4.49194 28.2304 4.3334 28.1267 4.20405C28.0229 4.0747 27.8739 4.01474 27.6718 3.98568C27.4724 3.95699 27.2099 3.95699 26.869 3.95699H26.8638H21.6988H21.6961C21.5197 3.95699 21.3837 3.95699 21.276 3.96538C21.1673 3.97384 21.0814 3.99115 21.0068 4.02921C20.9304 4.06825 20.8546 4.14456 20.7645 4.25504C20.6736 4.36652 20.5622 4.52054 20.4157 4.72291L20.4145 4.72459C20.2347 4.97301 20.0172 5.19218 19.7702 5.37358L19.7683 5.37495C19.5467 5.53765 19.3782 5.66138 19.2572 5.76196C19.1373 5.86154 19.0556 5.94494 19.0169 6.02839C18.9793 6.10973 18.9662 6.20325 18.9648 6.32131C18.9635 6.43847 18.9739 6.58626 18.9874 6.77827L18.9876 6.78102L20.7372 31.6856L20.7375 31.6901C20.7558 31.9509 20.77 32.1525 20.8017 32.3087C20.8339 32.4675 20.8856 32.5877 20.9847 32.6801C21.0838 32.7725 21.2073 32.8157 21.368 32.8367C21.5261 32.8573 21.7282 32.8573 21.9896 32.8573H21.9941H28.8027C29.0873 32.8573 29.2946 32.8574 29.4531 32.8787C29.6098 32.8998 29.7097 32.9406 29.7846 33.0155C29.8594 33.0903 29.9002 33.1902 29.9213 33.3469C29.9426 33.5054 29.9427 33.7128 29.9427 33.9973V34.8C29.9427 35.0845 29.9426 35.2919 29.9213 35.4504C29.9002 35.6071 29.8594 35.707 29.7846 35.7818C29.7097 35.8567 29.6098 35.8975 29.4531 35.9186C29.2946 35.9399 29.0873 35.94 28.8027 35.94H7.26927C6.98473 35.94 6.77736 35.9399 6.6189 35.9186C6.46216 35.8975 6.36229 35.8567 6.28743 35.7818C6.21257 35.707 6.17177 35.6071 6.1507 35.4504C6.1294 35.2919 6.12927 35.0845 6.12927 34.8V33.9973C6.12927 33.7128 6.1294 33.5054 6.1507 33.3469C6.17177 33.1902 6.21257 33.0903 6.28743 33.0155C6.36229 32.9406 6.46216 32.8998 6.6189 32.8787C6.77736 32.8574 6.98473 32.8573 7.26927 32.8573H14.0587H14.0632C14.3244 32.8573 14.5264 32.8573 14.6844 32.8367C14.845 32.8157 14.9684 32.7725 15.0675 32.6802C15.1666 32.5879 15.2184 32.4679 15.2507 32.3092C15.2825 32.153 15.2968 31.9516 15.3152 31.691L15.3156 31.6865L17.0833 6.78118L17.0835 6.77849C17.0971 6.58639 17.1076 6.43854 17.1064 6.32132C17.1052 6.20322 17.0921 6.10966 17.0545 6.02826C17.0159 5.94476 16.9341 5.86131 16.8143 5.7617C16.6933 5.66107 16.5248 5.53729 16.3033 5.37453L16.3015 5.3732C16.0547 5.19194 15.8375 4.97306 15.6579 4.72496L15.6567 4.72318C15.5101 4.52072 15.3986 4.36664 15.3077 4.25512C15.2175 4.14458 15.1417 4.06823 15.0653 4.0292C14.9907 3.99115 14.9048 3.97384 14.7961 3.96538C14.6884 3.95699 14.5524 3.95699 14.376 3.95699H14.3733H9.18597H9.18074C8.83906 3.95699 8.576 3.95699 8.37618 3.98575C8.17374 4.01488 8.02442 4.07499 7.92067 4.20467C7.81692 4.33435 7.79104 4.49322 7.80704 4.69712C7.82283 4.89839 7.88055 5.15503 7.95553 5.48838L7.95668 5.49349L11.9476 23.2372L11.9482 23.2399C11.9819 23.3898 12.0081 23.506 12.037 23.5982C12.0664 23.6917 12.0999 23.765 12.1508 23.8277C12.2105 23.9012 12.2853 23.9611 12.3702 24.0032C12.4425 24.0391 12.5214 24.0557 12.6191 24.0639C12.7153 24.0719 12.8344 24.0719 12.988 24.0719H12.9908C13.3444 24.0719 13.494 24.0744 13.639 24.191C13.6711 24.2168 13.7115 24.2647 13.7476 24.3201C13.7838 24.3755 13.8114 24.4317 13.8221 24.4715C13.8474 24.5654 13.8482 24.6343 13.833 24.7047C13.8171 24.7783 13.7836 24.8552 13.7343 24.9675C13.3604 25.8179 12.4965 26.5653 11.3116 27.1005C10.1279 27.6353 8.63034 27.9553 7.00048 27.9553C5.37822 27.9553 3.88707 27.6384 2.706 27.1083C1.52374 26.5777 0.658448 25.8366 0.276961 24.9923C0.221 24.8684 0.18286 24.7833 0.165424 24.7027C0.148769 24.6256 0.150931 24.5512 0.182118 24.4512C0.192577 24.4176 0.216937 24.3696 0.247916 24.3216C0.278895 24.2736 0.312675 24.2316 0.338948 24.2082C0.48906 24.0748 0.651747 24.0719 1.03697 24.0719H1.03993C1.20409 24.0719 1.33127 24.0719 1.43383 24.0628C1.53799 24.0535 1.62171 24.0346 1.69789 23.9938C1.76921 23.9556 1.8329 23.9047 1.8858 23.8435C1.9423 23.7781 1.97919 23.7006 2.01109 23.601C2.0425 23.503 2.07044 23.3789 2.1065 23.2187L2.10715 23.2159L6.69285 2.84871C6.69634 2.84692 6.6999 2.84485 6.70352 2.84247L6.70352 2.84246L6.70352 2.84245L6.70353 2.84244L6.70354 2.84238L6.70359 2.84211L6.7038 2.8411L6.7047 2.83675L6.70779 2.82181L6.72426 2.74214L6.72765 2.72577C6.77165 2.51294 6.79155 2.42024 6.83271 2.348C6.89931 2.23109 7.00717 2.14325 7.13515 2.1017C7.21423 2.07602 7.30904 2.0753 7.52636 2.0753H14.3524H14.3551C14.5334 2.0753 14.6708 2.0753 14.7796 2.06678C14.8893 2.05819 14.976 2.04062 15.051 2.00196C15.1279 1.96231 15.2039 1.88473 15.2942 1.77242C15.3853 1.65909 15.4968 1.5025 15.6434 1.29674L15.6447 1.29494C16.177 0.547664 17.0487 0.06 18.0362 0.06C19.0234 0.06 19.895 0.547659 20.4273 1.29494L20.4285 1.29665C20.5751 1.50246 20.6867 1.65907 20.7778 1.77242C20.8681 1.88473 20.9441 1.96231 21.021 2.00196C21.096 2.04062 21.1827 2.05819 21.2924 2.06678C21.4012 2.0753 21.5386 2.0753 21.7169 2.0753H21.7196H28.4918C28.7623 2.0753 28.8801 2.07641 28.9761 2.11586C29.0745 2.15634 29.1588 2.22501 29.2183 2.31324C29.2764 2.39925 29.3013 2.51439 29.356 2.77927L29.3556 2.77935L29.3578 2.78608ZM2.92153 23.8241C3.02528 23.9539 3.17462 24.014 3.37709 24.0431C3.57695 24.0719 3.84004 24.0719 4.18177 24.0719H4.18703H9.86346H9.86872C10.2104 24.0719 10.4734 24.0719 10.6732 24.0431C10.8757 24.014 11.025 23.9539 11.1287 23.8242C11.2325 23.6945 11.2584 23.5357 11.2424 23.3318C11.2266 23.1305 11.1689 22.8739 11.0939 22.5405L11.0928 22.5354L8.25598 9.92244L8.25493 9.91779C8.02567 8.89846 7.85253 8.12861 7.67641 7.6139C7.5883 7.35641 7.49771 7.1573 7.39563 7.02166C7.29261 6.88478 7.17239 6.80587 7.02705 6.80586C6.88171 6.80584 6.76148 6.88472 6.65843 7.02158C6.55632 7.15719 6.46569 7.35629 6.37752 7.61376C6.20129 8.12842 6.02798 8.89822 5.79851 9.91747L5.79745 9.92217L2.9578 22.5351L2.95666 22.5402C2.88159 22.8736 2.8238 23.1303 2.80797 23.3316C2.79192 23.5355 2.81778 23.6944 2.92153 23.8241ZM16.5762 3.00133C16.5762 3.80671 17.231 4.46172 18.0362 4.46172C18.8414 4.46172 19.4958 3.80669 19.4958 3.00133C19.4958 2.19637 18.8414 1.54135 18.0362 1.54135C17.2311 1.54135 16.5762 2.19635 16.5762 3.00133ZM29.0265 6.80925C28.8806 6.80924 28.7601 6.88911 28.657 7.02741C28.5548 7.16449 28.4641 7.36578 28.3759 7.62617C28.1997 8.14672 28.0265 8.92534 27.7972 9.95643L27.7962 9.96102L24.9957 22.5548L24.9945 22.5599C24.9205 22.8927 24.8636 23.1489 24.8483 23.3498C24.8328 23.5533 24.859 23.7119 24.9627 23.8412C25.0664 23.9706 25.2155 24.0305 25.4176 24.0596C25.617 24.0883 25.8795 24.0883 26.2204 24.0883H26.2256H31.8241H31.8294C32.1702 24.0883 32.4326 24.0883 32.632 24.0596C32.8341 24.0306 32.9831 23.9706 33.0869 23.8413C33.1906 23.712 33.2168 23.5534 33.2013 23.3499C33.1861 23.149 33.1292 22.8928 33.0552 22.56L33.0541 22.555L30.2562 9.96126L30.2551 9.95658C30.0261 8.92549 29.8531 8.14686 29.6769 7.6263C29.5888 7.36589 29.4982 7.16459 29.396 7.02748C29.2929 6.88916 29.1724 6.80926 29.0265 6.80925Z" stroke="url(#paint3_linear_2078_1897)" stroke-opacity="0.1" stroke-width="0.12"/>
</g>
<defs>
<filter id="filter0_bii_2078_1897" x="-1.83496" y="21.0249" width="40.1411" height="24.123" filterUnits="userSpaceOnUse" color-interpolation-filters="sRGB">
<feFlood flood-opacity="0" result="BackgroundImageFix"/>
<feGaussianBlur  in="BackgroundImageFix" stdDeviation="2"/>
<feComposite in2="SourceAlpha" operator="in" result="effect1_backgroundBlur_2078_1897"/>
<feBlend mode="normal" in="SourceGraphic" in2="effect1_backgroundBlur_2078_1897" result="shape"/>
<feColorMatrix in="SourceAlpha" type="matrix" values="0 0 0 0 0 0 0 0 0 0 0 0 0 0 0 0 0 0 127 0" result="hardAlpha"/>
<feOffset dy="0.666667"/>
<feGaussianBlur stdDeviation="1.33333"/>
<feComposite in2="hardAlpha" operator="arithmetic" k2="-1" k3="1"/>
<feColorMatrix type="matrix" values="0 0 0 0 1 0 0 0 0 1 0 0 0 0 1 0 0 0 0.15 0"/>
<feBlend mode="normal" in2="shape" result="effect2_innerShadow_2078_1897"/>
<feColorMatrix in="SourceAlpha" type="matrix" values="0 0 0 0 0 0 0 0 0 0 0 0 0 0 0 0 0 0 127 0" result="hardAlpha"/>
<feOffset dy="-4"/>
<feGaussianBlur stdDeviation="3"/>
<feComposite in2="hardAlpha" operator="arithmetic" k2="-1" k3="1"/>
<feColorMatrix type="matrix" values="0 0 0 0 1 0 0 0 0 1 0 0 0 0 1 0 0 0 0.15 0"/>
<feBlend mode="normal" in2="effect2_innerShadow_2078_1897" result="effect3_innerShadow_2078_1897"/>
</filter>
<filter id="filter1_bi_2078_1897" x="-1.70479" y="-1.8" width="39.4093" height="39.6" filterUnits="userSpaceOnUse" color-interpolation-filters="sRGB">
<feFlood flood-opacity="0" result="BackgroundImageFix"/>
<feGaussianBlur  in="BackgroundImageFix" stdDeviation="0.9"/>
<feComposite in2="SourceAlpha" operator="in" result="effect1_backgroundBlur_2078_1897"/>
<feBlend mode="normal" in="SourceGraphic" in2="effect1_backgroundBlur_2078_1897" result="shape"/>
<feColorMatrix in="SourceAlpha" type="matrix" values="0 0 0 0 0 0 0 0 0 0 0 0 0 0 0 0 0 0 127 0" result="hardAlpha"/>
<feOffset dy="0.3"/>
<feGaussianBlur stdDeviation="0.6"/>
<feComposite in2="hardAlpha" operator="arithmetic" k2="-1" k3="1"/>
<feColorMatrix type="matrix" values="0 0 0 0 1 0 0 0 0 1 0 0 0 0 1 0 0 0 0.15 0"/>
<feBlend mode="normal" in2="shape" result="effect2_innerShadow_2078_1897"/>
</filter>
<linearGradient id="paint0_linear_2078_1897" x1="0" y1="0" x2="31.7732" y2="16.775" gradientUnits="userSpaceOnUse">
<stop stop-color="white"/>
<stop offset="1" stop-color="#4470FF"/>
</linearGradient>
<linearGradient id="paint1_linear_2078_1897" x1="32.1556" y1="42.3238" x2="1.14945" y2="37.439" gradientUnits="userSpaceOnUse">
<stop stop-color="#FFC282"/>
<stop offset="1" stop-color="#FF4980"/>
</linearGradient>
<linearGradient id="paint2_linear_2078_1897" x1="0" y1="0" x2="42.4069" y2="10.7679" gradientUnits="userSpaceOnUse">
<stop stop-color="#62BDFF"/>
<stop offset="1" stop-color="#3864FF"/>
</linearGradient>
<linearGradient id="paint3_linear_2078_1897" x1="1.125" y1="1.63636" x2="36" y2="1.63636" gradientUnits="userSpaceOnUse">
<stop stop-color="#7EE5FF"/>
<stop offset="1" stop-color="#41A9FF"/>
</linearGradient>
</defs>
</svg>
