<svg width="20" height="21" viewBox="0 0 20 21" fill="none" xmlns="http://www.w3.org/2000/svg">
<path d="M4.81012 14.8252C4.91257 13.3909 6.21465 12.3455 7.64812 12.4588C8.35271 12.5146 9.11942 12.5559 9.84352 12.5559C10.6505 12.5559 11.5518 12.5046 12.3722 12.4392C13.8006 12.3254 15.0862 13.3735 15.1883 14.8027V14.8027C15.3117 16.5306 13.9432 18.0003 12.2109 18.0003H9.84352H7.76654C6.04644 18.0003 4.68757 16.5409 4.81012 14.8252V14.8252Z" stroke="white" stroke-width="1.4"/>
<path d="M7.08333 6.75016C7.08333 5.13933 8.38916 3.8335 9.99999 3.8335V3.8335C11.6108 3.8335 12.9167 5.13933 12.9167 6.75016V7.16683C12.9167 8.54754 11.7974 9.66683 10.4167 9.66683V9.66683H9.58333V9.66683C8.20262 9.66683 7.08333 8.54754 7.08333 7.16683V6.75016Z" stroke="white" stroke-width="1.4"/>
<path d="M17.0833 12.167C17.0833 12.167 18.3333 12.6817 18.3333 14.2503C18.3333 15.819 17.0833 16.3337 17.0833 16.3337" stroke="white" stroke-width="1.4" stroke-linecap="round" stroke-linejoin="round"/>
<path d="M2.91666 12.167C2.91666 12.167 1.66666 12.5837 1.66666 14.2503C1.66666 15.917 2.91666 16.3337 2.91666 16.3337" stroke="white" stroke-width="1.4" stroke-linecap="round" stroke-linejoin="round"/>
<path d="M15 4.25C15 4.25 16.6667 4.59546 16.6667 6.33333C16.6667 8.07121 15 8.41667 15 8.41667" stroke="white" stroke-width="1.4" stroke-linecap="round" stroke-linejoin="round"/>
<path d="M5 4.25C5 4.25 3.33333 4.52853 3.33333 6.33333C3.33333 8.13813 5 8.41667 5 8.41667" stroke="white" stroke-width="1.4" stroke-linecap="round" stroke-linejoin="round"/>
</svg>
