<svg width="44" height="37" viewBox="0 0 44 37" fill="none" xmlns="http://www.w3.org/2000/svg">
<g filter="url(#filter0_bii_2078_746)">
<ellipse rx="10.6092" ry="10.6597" transform="matrix(-0.863957 0.503565 0.496443 0.868069 21.4583 14.5957)" fill="#1D1D1D" fill-opacity="0.05"/>
<ellipse rx="10.6092" ry="10.6597" transform="matrix(-0.863957 0.503565 0.496443 0.868069 21.4583 14.5957)" fill="url(#paint0_linear_2078_746)" fill-opacity="0.2"/>
<path d="M12.4076 19.871C15.294 24.9181 21.686 26.6465 26.684 23.7333C31.6821 20.8202 33.3954 14.3675 30.509 9.32047C27.6226 4.2734 21.2306 2.545 16.2326 5.45816C11.2345 8.37131 9.52124 14.824 12.4076 19.871Z" stroke="url(#paint1_linear_2078_746)" stroke-opacity="0.1" stroke-width="0.266667"/>
</g>
<g filter="url(#filter1_bi_2078_746)">
<path d="M24.9482 16.6168C24.91 16.2661 24.7998 15.929 24.6254 15.6296C24.4057 15.2559 24.1176 14.934 23.7786 14.6833C23.2819 14.3233 22.7278 14.0644 22.1438 13.9196L21.7621 13.8116C21.5573 13.7567 21.415 13.5711 21.415 13.3591V11.4725C21.415 11.2068 21.6418 10.9827 21.8776 11.1051C22.0219 11.1799 22.1485 11.2888 22.248 11.4236C22.2717 11.4544 22.2943 11.4861 22.3157 11.5185C22.6535 12.0291 22.8224 12.2845 22.9012 12.3453C22.9849 12.41 22.9741 12.4042 23.0742 12.4383C23.1684 12.4705 23.3128 12.4705 23.6017 12.4705C23.9709 12.4705 24.1555 12.4705 24.313 12.3565C24.4 12.2935 24.4977 12.1596 24.5312 12.0575C24.5918 11.8728 24.5476 11.7345 24.4591 11.4578C24.4184 11.3308 24.3709 11.2062 24.3165 11.0846C24.1494 10.7109 23.9132 10.3776 23.6224 10.1048C23.3264 9.83608 22.9878 9.62661 22.6228 9.48643C22.2321 9.33357 21.4115 9.29883 21.4115 9.1884V8.42516C21.4115 8.19035 21.2212 8 20.9864 8C20.7515 8 20.5612 8.19035 20.5612 8.42516V9.1884C20.5612 9.28516 19.7173 9.30707 19.3152 9.45663C18.9276 9.59765 18.5667 9.81215 18.2497 10.0899C17.9216 10.3799 17.6595 10.7464 17.4833 11.1615C17.3071 11.5766 17.2214 12.0294 17.2328 12.4854C17.2186 12.9295 17.3019 13.371 17.4757 13.7743C17.6336 14.1068 17.8561 14.399 18.1282 14.6312C18.4086 14.8665 18.7212 15.0537 19.0549 15.1863C19.402 15.3241 19.7491 15.447 20.0961 15.5588C20.1933 15.5812 20.2801 15.6035 20.3634 15.6296C20.4833 15.6655 20.5589 15.7782 20.5657 15.9032C20.6043 16.609 20.7176 18.9159 20.5543 18.9191C20.3614 18.9228 19.7447 18.6108 19.4506 18.2746C19.2953 18.0826 19.1778 17.8589 19.105 17.6169C19.0342 17.3814 18.9988 17.2637 18.9868 17.2349C18.8754 16.9685 18.7828 16.8996 18.4956 16.8697C18.4645 16.8664 18.3991 16.8664 18.2682 16.8664H18.0115C17.6843 16.8664 17.5208 16.8664 17.3861 16.9401C17.2561 17.0113 17.1355 17.1636 17.096 17.3065C17.055 17.4544 17.0873 17.5914 17.1517 17.8655C17.3242 18.5988 17.6208 19.1859 18.0415 19.6269C18.6924 20.2515 19.5188 20.6217 20.387 20.6811C20.4798 20.6875 20.5543 20.7631 20.5543 20.8561V21.5748C20.5543 21.8096 20.7446 22 20.9794 22C21.2142 22 21.4046 21.8096 21.4046 21.5748V20.8561C21.4046 20.7687 21.4734 20.6971 21.5606 20.6899C22.1209 20.6434 22.6686 20.484 23.1746 20.2193C23.5885 20.001 23.9614 19.703 24.2749 19.3401C24.7099 18.8278 24.9663 18.1696 25.0002 17.4774C24.9975 17.1897 24.9801 16.9024 24.9482 16.6168ZM20.5612 13.5136C20.5612 13.6491 19.8648 13.2962 19.572 13.0665C19.4679 12.9674 19.3862 12.8441 19.3333 12.7059C19.2803 12.5677 19.2575 12.4184 19.2666 12.2693C19.2618 12.0754 19.2986 11.8829 19.3742 11.7068C19.4427 11.5513 19.5436 11.4149 19.6692 11.3081C19.7928 11.2003 19.934 11.1181 20.0857 11.066C20.338 10.9854 20.558 11.2059 20.5584 11.4708C20.5594 12.175 20.5612 13.4169 20.5612 13.5136ZM22.8172 18.0491C22.8172 18.0529 22.8163 18.0565 22.8145 18.0599C22.7256 18.2305 22.6089 18.3827 22.4701 18.5093C22.3184 18.6334 22.1482 18.7291 21.9668 18.7924C21.7925 18.8568 21.4289 19.04 21.4289 18.9228V15.9537C21.4289 15.7004 22.2503 16.2367 22.6089 16.4939C22.7288 16.6042 22.8227 16.7434 22.883 16.9C22.9433 17.0567 22.9683 17.2264 22.956 17.3954C22.9643 17.6191 22.9172 17.841 22.8196 18.0387C22.818 18.042 22.8172 18.0455 22.8172 18.0491Z" fill="#F1F1F1" fill-opacity="0.1"/>
<path d="M24.9482 16.6168C24.91 16.2661 24.7998 15.929 24.6254 15.6296C24.4057 15.2559 24.1176 14.934 23.7786 14.6833C23.2819 14.3233 22.7278 14.0644 22.1438 13.9196L21.7621 13.8116C21.5573 13.7567 21.415 13.5711 21.415 13.3591V11.4725C21.415 11.2068 21.6418 10.9827 21.8776 11.1051C22.0219 11.1799 22.1485 11.2888 22.248 11.4236C22.2717 11.4544 22.2943 11.4861 22.3157 11.5185C22.6535 12.0291 22.8224 12.2845 22.9012 12.3453C22.9849 12.41 22.9741 12.4042 23.0742 12.4383C23.1684 12.4705 23.3128 12.4705 23.6017 12.4705C23.9709 12.4705 24.1555 12.4705 24.313 12.3565C24.4 12.2935 24.4977 12.1596 24.5312 12.0575C24.5918 11.8728 24.5476 11.7345 24.4591 11.4578C24.4184 11.3308 24.3709 11.2062 24.3165 11.0846C24.1494 10.7109 23.9132 10.3776 23.6224 10.1048C23.3264 9.83608 22.9878 9.62661 22.6228 9.48643C22.2321 9.33357 21.4115 9.29883 21.4115 9.1884V8.42516C21.4115 8.19035 21.2212 8 20.9864 8C20.7515 8 20.5612 8.19035 20.5612 8.42516V9.1884C20.5612 9.28516 19.7173 9.30707 19.3152 9.45663C18.9276 9.59765 18.5667 9.81215 18.2497 10.0899C17.9216 10.3799 17.6595 10.7464 17.4833 11.1615C17.3071 11.5766 17.2214 12.0294 17.2328 12.4854C17.2186 12.9295 17.3019 13.371 17.4757 13.7743C17.6336 14.1068 17.8561 14.399 18.1282 14.6312C18.4086 14.8665 18.7212 15.0537 19.0549 15.1863C19.402 15.3241 19.7491 15.447 20.0961 15.5588C20.1933 15.5812 20.2801 15.6035 20.3634 15.6296C20.4833 15.6655 20.5589 15.7782 20.5657 15.9032C20.6043 16.609 20.7176 18.9159 20.5543 18.9191C20.3614 18.9228 19.7447 18.6108 19.4506 18.2746C19.2953 18.0826 19.1778 17.8589 19.105 17.6169C19.0342 17.3814 18.9988 17.2637 18.9868 17.2349C18.8754 16.9685 18.7828 16.8996 18.4956 16.8697C18.4645 16.8664 18.3991 16.8664 18.2682 16.8664H18.0115C17.6843 16.8664 17.5208 16.8664 17.3861 16.9401C17.2561 17.0113 17.1355 17.1636 17.096 17.3065C17.055 17.4544 17.0873 17.5914 17.1517 17.8655C17.3242 18.5988 17.6208 19.1859 18.0415 19.6269C18.6924 20.2515 19.5188 20.6217 20.387 20.6811C20.4798 20.6875 20.5543 20.7631 20.5543 20.8561V21.5748C20.5543 21.8096 20.7446 22 20.9794 22C21.2142 22 21.4046 21.8096 21.4046 21.5748V20.8561C21.4046 20.7687 21.4734 20.6971 21.5606 20.6899C22.1209 20.6434 22.6686 20.484 23.1746 20.2193C23.5885 20.001 23.9614 19.703 24.2749 19.3401C24.7099 18.8278 24.9663 18.1696 25.0002 17.4774C24.9975 17.1897 24.9801 16.9024 24.9482 16.6168ZM20.5612 13.5136C20.5612 13.6491 19.8648 13.2962 19.572 13.0665C19.4679 12.9674 19.3862 12.8441 19.3333 12.7059C19.2803 12.5677 19.2575 12.4184 19.2666 12.2693C19.2618 12.0754 19.2986 11.8829 19.3742 11.7068C19.4427 11.5513 19.5436 11.4149 19.6692 11.3081C19.7928 11.2003 19.934 11.1181 20.0857 11.066C20.338 10.9854 20.558 11.2059 20.5584 11.4708C20.5594 12.175 20.5612 13.4169 20.5612 13.5136ZM22.8172 18.0491C22.8172 18.0529 22.8163 18.0565 22.8145 18.0599C22.7256 18.2305 22.6089 18.3827 22.4701 18.5093C22.3184 18.6334 22.1482 18.7291 21.9668 18.7924C21.7925 18.8568 21.4289 19.04 21.4289 18.9228V15.9537C21.4289 15.7004 22.2503 16.2367 22.6089 16.4939C22.7288 16.6042 22.8227 16.7434 22.883 16.9C22.9433 17.0567 22.9683 17.2264 22.956 17.3954C22.9643 17.6191 22.9172 17.841 22.8196 18.0387C22.818 18.042 22.8172 18.0455 22.8172 18.0491Z" fill="url(#paint2_linear_2078_746)"/>
<path d="M24.8886 16.6235L24.8885 16.6233C24.8513 16.2809 24.7436 15.9519 24.5736 15.6599C24.358 15.2931 24.0754 14.9774 23.7431 14.7318C23.2527 14.3762 22.7056 14.1207 22.1294 13.9779L22.1275 13.9774L22.1275 13.9774L21.7465 13.8696C21.7464 13.8695 21.7462 13.8695 21.7461 13.8694C21.5154 13.8073 21.355 13.5981 21.355 13.3591V11.4725C21.355 11.3234 21.4184 11.1839 21.5188 11.0977C21.6213 11.0098 21.7631 10.9781 21.9053 11.0518C22.0577 11.1309 22.1912 11.2458 22.2959 11.3875C22.3204 11.4193 22.3437 11.452 22.3658 11.4854C22.5349 11.741 22.661 11.9317 22.7548 12.0663C22.8017 12.1335 22.8399 12.1859 22.8709 12.2249C22.9027 12.2649 22.9243 12.2873 22.9378 12.2978C22.9418 12.3009 22.9455 12.3037 22.949 12.3064C22.9846 12.334 22.9966 12.3432 23.01 12.3504C23.0233 12.3576 23.0377 12.3625 23.0803 12.377C23.0845 12.3784 23.0889 12.3799 23.0936 12.3815C23.1325 12.3948 23.1853 12.4026 23.2678 12.4065C23.35 12.4104 23.4567 12.4105 23.6017 12.4105C23.7878 12.4105 23.9218 12.4104 24.0292 12.3967C24.1343 12.3833 24.2094 12.3573 24.2778 12.3079C24.3146 12.2812 24.3566 12.2371 24.3937 12.1863C24.4308 12.1354 24.46 12.082 24.4742 12.0388C24.5277 11.8757 24.4917 11.7567 24.4019 11.4761L24.8886 16.6235ZM24.8886 16.6235C24.9202 16.9065 24.9375 17.1912 24.9402 17.4762C24.9065 18.1549 24.6551 18.7997 24.2293 19.301C23.9207 19.6583 23.5537 19.9515 23.1468 20.1661C22.6477 20.4271 22.1079 20.5843 21.5556 20.6301C21.4388 20.6397 21.3446 20.7361 21.3446 20.8561V21.5748C21.3446 21.7765 21.1811 21.94 20.9794 21.94C20.7777 21.94 20.6143 21.7765 20.6143 21.5748V20.8561C20.6143 20.7298 20.5136 20.6296 20.3911 20.6212C19.5379 20.5629 18.725 20.1992 18.084 19.5846C17.6727 19.153 17.3806 18.5765 17.2101 17.8517C17.1445 17.5726 17.1178 17.4525 17.1538 17.3225C17.189 17.1952 17.2991 17.0562 17.4149 16.9927C17.4725 16.9612 17.5382 16.9442 17.6322 16.9354C17.7274 16.9265 17.8468 16.9264 18.0115 16.9264H18.2682C18.4015 16.9264 18.4623 16.9265 18.4893 16.9293C18.6306 16.9441 18.7119 16.9676 18.7713 17.0118C18.8307 17.056 18.8766 17.127 18.9314 17.2581C18.936 17.2691 18.9469 17.3022 18.9665 17.3661C18.9857 17.4283 19.0121 17.5163 19.0476 17.6341L19.0476 17.6342C19.1225 17.8834 19.2437 18.1141 19.4039 18.3123L19.4039 18.3124L19.4054 18.3141C19.5588 18.4894 19.7931 18.6555 20.0112 18.7767C20.1207 18.8377 20.2277 18.8881 20.3205 18.9233C20.4109 18.9577 20.4949 18.9803 20.5554 18.9791C20.5798 18.9786 20.5985 18.967 20.6107 18.9551C20.6224 18.9437 20.6303 18.9301 20.636 18.9181C20.6474 18.894 20.6556 18.8628 20.6622 18.8289C20.6754 18.7599 20.6844 18.6634 20.6903 18.5489C20.7022 18.3189 20.7021 18.0065 20.6957 17.6735C20.6829 17.007 20.6449 16.253 20.6256 15.8999C20.6177 15.7541 20.5288 15.6167 20.381 15.5722M24.8886 16.6235L24.2617 11.1091C24.0978 10.7426 23.8664 10.416 23.5817 10.1489C23.2912 9.8852 22.9591 9.67983 22.6013 9.54244L22.6009 9.5423C22.4223 9.4724 22.1469 9.42742 21.8992 9.38697C21.8864 9.38487 21.8736 9.38279 21.861 9.38071C21.7347 9.36003 21.6171 9.34015 21.531 9.3182C21.4884 9.30733 21.4496 9.29502 21.4203 9.2801C21.4057 9.27268 21.3902 9.26296 21.3776 9.24982C21.3645 9.23623 21.3515 9.21551 21.3515 9.1884V8.42516C21.3515 8.22349 21.188 8.06 20.9864 8.06C20.7847 8.06 20.6212 8.22349 20.6212 8.42516V9.1884C20.6212 9.21838 20.6044 9.23919 20.5912 9.2508C20.578 9.26237 20.5621 9.27061 20.5476 9.27678C20.5182 9.28931 20.479 9.29963 20.4354 9.30881C20.3475 9.32734 20.2271 9.34412 20.0972 9.36214L20.0966 9.36224C19.8328 9.39886 19.5294 9.44098 19.3361 9.51286L19.3357 9.51301C18.9553 9.65141 18.6009 9.86201 18.2894 10.135C17.9682 10.4188 17.7113 10.7778 17.5385 11.1849C17.3657 11.5921 17.2816 12.0363 17.2928 12.4839L17.2928 12.4873L17.2928 12.4873C17.2789 12.9224 17.3604 13.3547 17.5304 13.7496C17.6847 14.0741 17.9019 14.3591 18.167 14.5854C18.4425 14.8165 18.7495 15.0004 19.0771 15.1305C19.4219 15.2675 19.7669 15.3897 20.1121 15.5009C20.209 15.5232 20.2965 15.5458 20.381 15.5722M20.381 15.5722C20.3811 15.5723 20.3812 15.5723 20.3813 15.5723L20.3634 15.6296M20.381 15.5722C20.3808 15.5722 20.3807 15.5721 20.3806 15.5721L20.3634 15.6296M20.3634 15.6296C20.2801 15.6035 20.1933 15.5812 20.0961 15.5588L20.5543 18.9191C20.7176 18.9159 20.6043 16.609 20.5657 15.9032C20.5589 15.7782 20.4833 15.6655 20.3634 15.6296ZM23.0161 17.3965C23.0285 17.2199 23.0022 17.0425 22.939 16.8785C22.8755 16.7135 22.7764 16.5665 22.6496 16.4497L22.6499 16.4494L22.6439 16.4451C22.4637 16.3159 22.1663 16.1158 21.9128 15.9795C21.7872 15.912 21.6672 15.8571 21.5761 15.8365C21.532 15.8266 21.4836 15.8218 21.443 15.8378C21.4209 15.8464 21.4009 15.8614 21.3871 15.8838C21.3737 15.9055 21.3689 15.93 21.3689 15.9537V18.9228C21.3689 18.956 21.3835 18.987 21.4143 19.0052C21.4396 19.0202 21.4687 19.0219 21.4912 19.0209C21.5374 19.0188 21.5955 19.0021 21.6522 18.9824C21.7104 18.9622 21.7737 18.9362 21.8323 18.9119C21.8416 18.908 21.8507 18.9042 21.8597 18.9004C21.908 18.8803 21.9517 18.862 21.9871 18.8489C22.1751 18.7832 22.3512 18.6841 22.5081 18.5558L22.5081 18.5558L22.5105 18.5536C22.6547 18.4222 22.7756 18.2643 22.8677 18.0876L22.8677 18.0876C22.8725 18.0785 22.8754 18.0687 22.8766 18.0588M23.0161 17.3965C23.016 17.3976 23.0159 17.3987 23.0158 17.3998L22.956 17.3954L23.016 17.3932C23.016 17.3943 23.016 17.3954 23.0161 17.3965ZM23.0161 17.3965C23.024 17.6264 22.976 17.8546 22.8766 18.0588M22.8766 18.0588C22.877 18.0556 22.8772 18.0524 22.8772 18.0491C22.8772 18.0549 22.8758 18.0604 22.8734 18.0653C22.8745 18.0631 22.8755 18.0609 22.8766 18.0588ZM19.5307 13.11L19.5305 13.1102L19.535 13.1137C19.686 13.2321 19.9374 13.38 20.1507 13.4812C20.2571 13.5317 20.3575 13.5723 20.4331 13.5914C20.4696 13.6006 20.5075 13.6067 20.5394 13.6021C20.5558 13.5997 20.5768 13.5935 20.5941 13.5774C20.6133 13.5596 20.6212 13.5361 20.6212 13.5136C20.6212 13.4168 20.6194 12.1749 20.6184 11.4707C20.6182 11.3221 20.5565 11.1844 20.4567 11.0943C20.3559 11.0033 20.2159 10.9614 20.0674 11.0088L20.0674 11.0088L20.0662 11.0093C19.9071 11.0639 19.7592 11.1499 19.6301 11.2627C19.4975 11.3754 19.3912 11.5192 19.3193 11.6826L19.3191 11.6831C19.2403 11.8665 19.2019 12.0667 19.2066 12.2682C19.1974 12.4249 19.2215 12.5819 19.2772 12.7274C19.3333 12.8736 19.4199 13.0046 19.5307 13.11Z" stroke="url(#paint3_linear_2078_746)" stroke-opacity="0.1" stroke-width="0.12"/>
</g>
<rect y="19.2637" width="4.64542" height="15.7059" fill="url(#paint4_linear_2078_746)"/>
<rect y="19.2637" width="4.64542" height="15.7059" fill="#F1F1F1" fill-opacity="0.1"/>
<rect x="0.1" y="19.3637" width="4.44542" height="15.5059" stroke="url(#paint5_linear_2078_746)" stroke-opacity="0.1" stroke-width="0.2"/>
<path d="M5.97388 34.1953V20.1484H14.1587L24.1131 21.8075C24.6662 21.9181 25.3298 23.0242 25.3298 23.909C25.3298 24.7939 24.7768 26.0105 23.7813 26.0105H14.1587C13.8268 26.0105 13.7162 26.4529 13.7162 26.6741C13.7162 26.8954 13.9375 27.2272 14.1587 27.2272H25.9934C27.6746 27.2272 36.4272 23.0979 40.5933 21.0333C41.3676 20.6496 42.8054 21.3651 43.1372 22.0287C43.4691 22.6924 43.6903 24.1302 43.0266 24.6833C37.2014 28.4438 24.998 35.965 22.1222 36.0756C19.2465 36.1862 10.2137 34.9695 5.97388 34.1953Z" fill="#F1F1F1" fill-opacity="0.1"/>
<path d="M5.97388 34.1953V20.1484H14.1587L24.1131 21.8075C24.6662 21.9181 25.3298 23.0242 25.3298 23.909C25.3298 24.7939 24.7768 26.0105 23.7813 26.0105H14.1587C13.8268 26.0105 13.7162 26.4529 13.7162 26.6741C13.7162 26.8954 13.9375 27.2272 14.1587 27.2272H25.9934C27.6746 27.2272 36.4272 23.0979 40.5933 21.0333C41.3676 20.6496 42.8054 21.3651 43.1372 22.0287C43.4691 22.6924 43.6903 24.1302 43.0266 24.6833C37.2014 28.4438 24.998 35.965 22.1222 36.0756C19.2465 36.1862 10.2137 34.9695 5.97388 34.1953Z" fill="url(#paint6_linear_2078_746)"/>
<path d="M5.97388 34.1953V20.1484H14.1587L24.1131 21.8075C24.6662 21.9181 25.3298 23.0242 25.3298 23.909C25.3298 24.7939 24.7768 26.0105 23.7813 26.0105H14.1587C13.8268 26.0105 13.7162 26.4529 13.7162 26.6741C13.7162 26.8954 13.9375 27.2272 14.1587 27.2272H25.9934C27.6746 27.2272 36.4272 23.0979 40.5933 21.0333C41.3676 20.6496 42.8054 21.3651 43.1372 22.0287C43.4691 22.6924 43.6903 24.1302 43.0266 24.6833C37.2014 28.4438 24.998 35.965 22.1222 36.0756C19.2465 36.1862 10.2137 34.9695 5.97388 34.1953Z" stroke="url(#paint7_linear_2078_746)" stroke-opacity="0.1" stroke-width="0.2" stroke-linecap="round" stroke-linejoin="round"/>
<defs>
<filter id="filter0_bii_2078_746" x="6.87268" y="-0.0908203" width="29.1713" height="29.373" filterUnits="userSpaceOnUse" color-interpolation-filters="sRGB">
<feFlood flood-opacity="0" result="BackgroundImageFix"/>
<feGaussianBlur in="BackgroundImageFix" stdDeviation="2"/>
<feComposite in2="SourceAlpha" operator="in" result="effect1_backgroundBlur_2078_746"/>
<feBlend mode="normal" in="SourceGraphic" in2="effect1_backgroundBlur_2078_746" result="shape"/>
<feColorMatrix in="SourceAlpha" type="matrix" values="0 0 0 0 0 0 0 0 0 0 0 0 0 0 0 0 0 0 127 0" result="hardAlpha"/>
<feOffset dy="0.666667"/>
<feGaussianBlur stdDeviation="1.33333"/>
<feComposite in2="hardAlpha" operator="arithmetic" k2="-1" k3="1"/>
<feColorMatrix type="matrix" values="0 0 0 0 1 0 0 0 0 1 0 0 0 0 1 0 0 0 0.15 0"/>
<feBlend mode="normal" in2="shape" result="effect2_innerShadow_2078_746"/>
<feColorMatrix in="SourceAlpha" type="matrix" values="0 0 0 0 0 0 0 0 0 0 0 0 0 0 0 0 0 0 127 0" result="hardAlpha"/>
<feOffset dy="-4"/>
<feGaussianBlur stdDeviation="3"/>
<feComposite in2="hardAlpha" operator="arithmetic" k2="-1" k3="1"/>
<feColorMatrix type="matrix" values="0 0 0 0 1 0 0 0 0 1 0 0 0 0 1 0 0 0 0.15 0"/>
<feBlend mode="normal" in2="effect2_innerShadow_2078_746" result="effect3_innerShadow_2078_746"/>
</filter>
<filter id="filter1_bi_2078_746" x="15.2778" y="6.2" width="11.5225" height="17.6" filterUnits="userSpaceOnUse" color-interpolation-filters="sRGB">
<feFlood flood-opacity="0" result="BackgroundImageFix"/>
<feGaussianBlur in="BackgroundImageFix" stdDeviation="0.9"/>
<feComposite in2="SourceAlpha" operator="in" result="effect1_backgroundBlur_2078_746"/>
<feBlend mode="normal" in="SourceGraphic" in2="effect1_backgroundBlur_2078_746" result="shape"/>
<feColorMatrix in="SourceAlpha" type="matrix" values="0 0 0 0 0 0 0 0 0 0 0 0 0 0 0 0 0 0 127 0" result="hardAlpha"/>
<feOffset dy="0.3"/>
<feGaussianBlur stdDeviation="0.6"/>
<feComposite in2="hardAlpha" operator="arithmetic" k2="-1" k3="1"/>
<feColorMatrix type="matrix" values="0 0 0 0 1 0 0 0 0 1 0 0 0 0 1 0 0 0 0.15 0"/>
<feBlend mode="normal" in2="shape" result="effect2_innerShadow_2078_746"/>
</filter>
<linearGradient id="paint0_linear_2078_746" x1="0" y1="0" x2="25.0089" y2="6.32015" gradientUnits="userSpaceOnUse">
<stop stop-color="white"/>
<stop offset="1" stop-color="#4470FF"/>
</linearGradient>
<linearGradient id="paint1_linear_2078_746" x1="25.2405" y1="1.17511" x2="7.39768" y2="11.3793" gradientUnits="userSpaceOnUse">
<stop stop-color="#FFC282"/>
<stop offset="1" stop-color="#FF4980"/>
</linearGradient>
<linearGradient id="paint2_linear_2078_746" x1="16.9175" y1="8.06152" x2="26.742" y2="9.48702" gradientUnits="userSpaceOnUse">
<stop stop-color="#62BDFF"/>
<stop offset="1" stop-color="#3864FF"/>
</linearGradient>
<linearGradient id="paint3_linear_2078_746" x1="17.2502" y1="8.63636" x2="25.0002" y2="8.63636" gradientUnits="userSpaceOnUse">
<stop stop-color="#7EE5FF"/>
<stop offset="1" stop-color="#41A9FF"/>
</linearGradient>
<linearGradient id="paint4_linear_2078_746" x1="2.29641e-08" y1="26.2401" x2="4.59466" y2="26.2401" gradientUnits="userSpaceOnUse">
<stop stop-color="#62BDFF"/>
<stop offset="1" stop-color="#3864FF"/>
</linearGradient>
<linearGradient id="paint5_linear_2078_746" x1="0.145169" y1="19.9776" x2="4.64542" y2="19.9776" gradientUnits="userSpaceOnUse">
<stop stop-color="#7EE5FF"/>
<stop offset="1" stop-color="#41A9FF"/>
</linearGradient>
<linearGradient id="paint6_linear_2078_746" x1="5.97388" y1="27.2263" x2="43.0468" y2="27.2243" gradientUnits="userSpaceOnUse">
<stop stop-color="#62BDFF"/>
<stop offset="1" stop-color="#3864FF"/>
</linearGradient>
<linearGradient id="paint7_linear_2078_746" x1="7.14521" y1="20.8727" x2="43.4564" y2="20.8727" gradientUnits="userSpaceOnUse">
<stop stop-color="#7EE5FF"/>
<stop offset="1" stop-color="#41A9FF"/>
</linearGradient>
</defs>
</svg>
