<svg width="48" height="48" viewBox="0 0 48 48" fill="none" xmlns="http://www.w3.org/2000/svg">
<g filter="url(#filter0_bi_2218_10718)">
<path d="M31.4121 26.4252C31.3477 25.8992 31.1617 25.3934 30.8675 24.9444C30.4967 24.3838 30.0106 23.9009 29.4384 23.525C28.6003 22.9849 27.6652 22.5966 26.6798 22.3795L26.0356 22.2174C25.917 22.1891 25.8577 22.175 25.8078 22.153C25.6259 22.0728 25.4955 21.9076 25.4597 21.7121C25.4499 21.6585 25.4499 21.5975 25.4499 21.4756V18.7925C25.4499 18.6849 25.4499 18.631 25.4849 18.5331C25.5559 18.3343 25.8928 18.1187 26.1031 18.1374C26.2067 18.1466 26.2147 18.1503 26.2306 18.1576C26.474 18.2699 26.6877 18.4332 26.8555 18.6354C26.9669 18.7639 27.0633 18.902 27.1441 19.0474C27.5115 19.7091 27.6953 20.0399 27.8361 20.1228C27.977 20.2057 28.2014 20.2057 28.6503 20.2057H29.6375C30.2389 20.2057 30.5395 20.2057 30.7195 19.9658C30.8995 19.7258 30.8274 19.4782 30.6831 18.9829C30.5976 18.6895 30.485 18.403 30.3462 18.1269C30.0642 17.5664 29.6656 17.0664 29.1748 16.6573C28.6754 16.2541 28.104 15.9399 27.4881 15.7296C27.095 15.5929 26.6923 15.4844 26.2831 15.4047C25.9709 15.3438 25.8148 15.3134 25.717 15.2498C25.6066 15.178 25.5371 15.0937 25.4877 14.9716C25.444 14.8634 25.444 14.7204 25.444 14.4343V14.2175C25.444 14.1083 25.444 14.0538 25.437 14.0081C25.3969 13.7498 25.1942 13.5471 24.9359 13.5071C24.8903 13.5 24.8357 13.5 24.7266 13.5C24.6175 13.5 24.5629 13.5 24.5172 13.5071C24.2589 13.5471 24.0562 13.7498 24.0162 14.0081C24.0091 14.0538 24.0091 14.1083 24.0091 14.2175V14.4178C24.0091 14.6999 24.0091 14.841 23.9679 14.9464C23.9156 15.0802 23.8392 15.1702 23.7157 15.2436C23.6185 15.3014 23.4624 15.3272 23.1501 15.3788C22.728 15.4485 22.3121 15.5508 21.9065 15.6849C21.2524 15.8965 20.6435 16.2182 20.1085 16.6349C19.5548 17.0699 19.1125 17.6196 18.8151 18.2422C18.5178 18.8649 18.3732 19.544 18.3924 20.228C18.3686 20.8943 18.509 21.5565 18.8024 22.1615C19.0688 22.6602 19.4443 23.0985 19.9035 23.4468C20.3765 23.7997 20.9041 24.0806 21.4672 24.2794C22.0529 24.4862 22.6386 24.6706 23.2243 24.8382C23.3883 24.8717 23.5347 24.9053 23.6753 24.9444C23.8732 24.9971 23.9974 25.1851 23.9974 25.3899V28.4527C23.9974 29.1318 23.9974 29.4714 23.6821 29.6413C23.3667 29.8113 23.1378 29.6606 22.6801 29.3593C22.4833 29.2298 22.3004 29.0801 22.1349 28.9119C21.8729 28.6239 21.6746 28.2883 21.5518 27.9253C21.3603 27.359 21.2645 27.0758 21.1667 26.9772C21.1034 26.9133 21.0851 26.9002 21.0042 26.8606C20.8795 26.7996 20.6792 26.7996 20.2786 26.7996H19.3129C18.6823 26.7996 18.3671 26.7996 18.1869 27.0272C18.0067 27.2548 18.0728 27.535 18.2049 28.0954C18.4867 29.2904 19.0041 30.2387 19.757 30.9404C20.6823 31.7296 21.8177 32.248 23.0283 32.4451C23.4315 32.5107 23.633 32.5435 23.7476 32.6259C23.8349 32.6886 23.8866 32.7494 23.9346 32.8458C23.9974 32.972 23.9974 33.1503 23.9974 33.5068V33.7825C23.9974 33.8917 23.9974 33.9462 24.0045 33.9919C24.0445 34.2502 24.2472 34.4529 24.5055 34.4929C24.5512 34.5 24.6057 34.5 24.7149 34.5C24.824 34.5 24.8785 34.5 24.9242 34.4929C25.1825 34.4529 25.3852 34.2502 25.4252 33.9919C25.4323 33.9462 25.4323 33.8917 25.4323 33.7825V33.5053C25.4323 33.1531 25.4323 32.977 25.4957 32.8503C25.5428 32.7561 25.5959 32.6936 25.6813 32.632C25.7962 32.5491 25.9916 32.5174 26.3825 32.4538C27.0875 32.3392 27.7735 32.1292 28.4193 31.8289C29.1176 31.5016 29.747 31.0545 30.2759 30.5101C31.0101 29.7417 31.4427 28.7544 31.5 27.7161C31.4954 27.2846 31.4661 26.8537 31.4121 26.4252ZM24.0069 20.3611C24.008 21.0351 24.0085 21.3721 23.7128 21.5465C23.4171 21.7209 23.1725 21.5853 22.6833 21.3139C22.5653 21.2484 22.4507 21.177 22.3399 21.0998C22.1641 20.9511 22.0263 20.7661 21.937 20.5588C21.8476 20.3516 21.8092 20.1276 21.8245 19.9039C21.8163 19.6131 21.8784 19.3244 22.0061 19.0601C22.1216 18.8269 22.292 18.6223 22.5039 18.4622C22.7124 18.3004 22.9508 18.1772 23.2067 18.099C23.2906 18.0751 23.3326 18.0632 23.4284 18.0671C23.6394 18.0756 23.908 18.2782 23.9741 18.4787C24.0042 18.5698 24.0043 18.6445 24.0045 18.7941L24.0069 20.3611ZM27.8161 28.5737C27.8161 28.5793 27.8146 28.5848 27.8118 28.5896C27.6616 28.8456 27.4647 29.074 27.2304 29.264C26.9743 29.4501 26.6872 29.5936 26.3811 29.6887C26.2296 29.7384 26.1538 29.7633 26.0416 29.7574C25.8333 29.7463 25.5894 29.5697 25.514 29.3753C25.4733 29.2705 25.4733 29.165 25.4733 28.9539V26.9096C25.4733 26.2071 25.4733 25.8559 25.755 25.6796C26.0367 25.5033 26.3142 25.6382 26.8693 25.908C27.074 26.0075 27.2729 26.1186 27.4646 26.2408C27.667 26.4063 27.8254 26.6151 27.9272 26.8501C28.029 27.0851 28.0712 27.3396 28.0503 27.5931C28.0643 27.9286 27.9848 28.2616 27.8201 28.5583C27.8174 28.563 27.8161 28.5683 27.8161 28.5737Z" fill="#F1F1F1" fill-opacity="0.1"/>
<path d="M31.4121 26.4252C31.3477 25.8992 31.1617 25.3934 30.8675 24.9444C30.4967 24.3838 30.0106 23.9009 29.4384 23.525C28.6003 22.9849 27.6652 22.5966 26.6798 22.3795L26.0356 22.2174C25.917 22.1891 25.8577 22.175 25.8078 22.153C25.6259 22.0728 25.4955 21.9076 25.4597 21.7121C25.4499 21.6585 25.4499 21.5975 25.4499 21.4756V18.7925C25.4499 18.6849 25.4499 18.631 25.4849 18.5331C25.5559 18.3343 25.8928 18.1187 26.1031 18.1374C26.2067 18.1466 26.2147 18.1503 26.2306 18.1576C26.474 18.2699 26.6877 18.4332 26.8555 18.6354C26.9669 18.7639 27.0633 18.902 27.1441 19.0474C27.5115 19.7091 27.6953 20.0399 27.8361 20.1228C27.977 20.2057 28.2014 20.2057 28.6503 20.2057H29.6375C30.2389 20.2057 30.5395 20.2057 30.7195 19.9658C30.8995 19.7258 30.8274 19.4782 30.6831 18.9829C30.5976 18.6895 30.485 18.403 30.3462 18.1269C30.0642 17.5664 29.6656 17.0664 29.1748 16.6573C28.6754 16.2541 28.104 15.9399 27.4881 15.7296C27.095 15.5929 26.6923 15.4844 26.2831 15.4047C25.9709 15.3438 25.8148 15.3134 25.717 15.2498C25.6066 15.178 25.5371 15.0937 25.4877 14.9716C25.444 14.8634 25.444 14.7204 25.444 14.4343V14.2175C25.444 14.1083 25.444 14.0538 25.437 14.0081C25.3969 13.7498 25.1942 13.5471 24.9359 13.5071C24.8903 13.5 24.8357 13.5 24.7266 13.5C24.6175 13.5 24.5629 13.5 24.5172 13.5071C24.2589 13.5471 24.0562 13.7498 24.0162 14.0081C24.0091 14.0538 24.0091 14.1083 24.0091 14.2175V14.4178C24.0091 14.6999 24.0091 14.841 23.9679 14.9464C23.9156 15.0802 23.8392 15.1702 23.7157 15.2436C23.6185 15.3014 23.4624 15.3272 23.1501 15.3788C22.728 15.4485 22.3121 15.5508 21.9065 15.6849C21.2524 15.8965 20.6435 16.2182 20.1085 16.6349C19.5548 17.0699 19.1125 17.6196 18.8151 18.2422C18.5178 18.8649 18.3732 19.544 18.3924 20.228C18.3686 20.8943 18.509 21.5565 18.8024 22.1615C19.0688 22.6602 19.4443 23.0985 19.9035 23.4468C20.3765 23.7997 20.9041 24.0806 21.4672 24.2794C22.0529 24.4862 22.6386 24.6706 23.2243 24.8382C23.3883 24.8717 23.5347 24.9053 23.6753 24.9444C23.8732 24.9971 23.9974 25.1851 23.9974 25.3899V28.4527C23.9974 29.1318 23.9974 29.4714 23.6821 29.6413C23.3667 29.8113 23.1378 29.6606 22.6801 29.3593C22.4833 29.2298 22.3004 29.0801 22.1349 28.9119C21.8729 28.6239 21.6746 28.2883 21.5518 27.9253C21.3603 27.359 21.2645 27.0758 21.1667 26.9772C21.1034 26.9133 21.0851 26.9002 21.0042 26.8606C20.8795 26.7996 20.6792 26.7996 20.2786 26.7996H19.3129C18.6823 26.7996 18.3671 26.7996 18.1869 27.0272C18.0067 27.2548 18.0728 27.535 18.2049 28.0954C18.4867 29.2904 19.0041 30.2387 19.757 30.9404C20.6823 31.7296 21.8177 32.248 23.0283 32.4451C23.4315 32.5107 23.633 32.5435 23.7476 32.6259C23.8349 32.6886 23.8866 32.7494 23.9346 32.8458C23.9974 32.972 23.9974 33.1503 23.9974 33.5068V33.7825C23.9974 33.8917 23.9974 33.9462 24.0045 33.9919C24.0445 34.2502 24.2472 34.4529 24.5055 34.4929C24.5512 34.5 24.6057 34.5 24.7149 34.5C24.824 34.5 24.8785 34.5 24.9242 34.4929C25.1825 34.4529 25.3852 34.2502 25.4252 33.9919C25.4323 33.9462 25.4323 33.8917 25.4323 33.7825V33.5053C25.4323 33.1531 25.4323 32.977 25.4957 32.8503C25.5428 32.7561 25.5959 32.6936 25.6813 32.632C25.7962 32.5491 25.9916 32.5174 26.3825 32.4538C27.0875 32.3392 27.7735 32.1292 28.4193 31.8289C29.1176 31.5016 29.747 31.0545 30.2759 30.5101C31.0101 29.7417 31.4427 28.7544 31.5 27.7161C31.4954 27.2846 31.4661 26.8537 31.4121 26.4252ZM24.0069 20.3611C24.008 21.0351 24.0085 21.3721 23.7128 21.5465C23.4171 21.7209 23.1725 21.5853 22.6833 21.3139C22.5653 21.2484 22.4507 21.177 22.3399 21.0998C22.1641 20.9511 22.0263 20.7661 21.937 20.5588C21.8476 20.3516 21.8092 20.1276 21.8245 19.9039C21.8163 19.6131 21.8784 19.3244 22.0061 19.0601C22.1216 18.8269 22.292 18.6223 22.5039 18.4622C22.7124 18.3004 22.9508 18.1772 23.2067 18.099C23.2906 18.0751 23.3326 18.0632 23.4284 18.0671C23.6394 18.0756 23.908 18.2782 23.9741 18.4787C24.0042 18.5698 24.0043 18.6445 24.0045 18.7941L24.0069 20.3611ZM27.8161 28.5737C27.8161 28.5793 27.8146 28.5848 27.8118 28.5896C27.6616 28.8456 27.4647 29.074 27.2304 29.264C26.9743 29.4501 26.6872 29.5936 26.3811 29.6887C26.2296 29.7384 26.1538 29.7633 26.0416 29.7574C25.8333 29.7463 25.5894 29.5697 25.514 29.3753C25.4733 29.2705 25.4733 29.165 25.4733 28.9539V26.9096C25.4733 26.2071 25.4733 25.8559 25.755 25.6796C26.0367 25.5033 26.3142 25.6382 26.8693 25.908C27.074 26.0075 27.2729 26.1186 27.4646 26.2408C27.667 26.4063 27.8254 26.6151 27.9272 26.8501C28.029 27.0851 28.0712 27.3396 28.0503 27.5931C28.0643 27.9286 27.9848 28.2616 27.8201 28.5583C27.8174 28.563 27.8161 28.5683 27.8161 28.5737Z" fill="url(#paint0_linear_2218_10718)"/>
<path d="M31.3526 26.4327L31.3526 26.4325C31.2893 25.9158 31.1066 25.4188 30.8174 24.9774C30.4513 24.4239 29.9711 23.9468 29.4057 23.5753C28.5738 23.0392 27.6454 22.6536 26.6669 22.4381L26.6652 22.4377L26.6652 22.4376L26.0217 22.2758L26.0209 22.2756L26.0144 22.274C25.9027 22.2474 25.8385 22.2321 25.7836 22.2079C25.5835 22.1196 25.4401 21.938 25.4007 21.7229C25.3899 21.6639 25.3899 21.5979 25.3899 21.4831V21.4756V18.7925V18.7911C25.3899 18.6832 25.3899 18.6206 25.4284 18.5129C25.4704 18.3953 25.5853 18.2826 25.7094 18.2031C25.8336 18.1236 25.9841 18.0666 26.1085 18.0776C26.2103 18.0867 26.2288 18.0907 26.2557 18.1031C26.5069 18.219 26.7276 18.3876 26.9013 18.5966M31.3526 26.4327L26.8555 18.6354M31.3526 26.4327C31.4062 26.8582 31.4353 27.2862 31.44 27.7147C31.383 28.7376 30.9567 29.7106 30.2328 30.4684C29.709 31.0075 29.0858 31.4502 28.394 31.7745C27.7532 32.0724 27.0725 32.2808 26.3728 32.3946L26.3703 32.395C26.177 32.4264 26.0288 32.4505 25.9147 32.4773C25.8004 32.504 25.7135 32.5348 25.6462 32.5833C25.5529 32.6506 25.4934 32.7206 25.442 32.8235C25.4053 32.8969 25.3886 32.9816 25.3804 33.0887C25.3723 33.1948 25.3723 33.3288 25.3723 33.5027V33.5053V33.7825C25.3723 33.8939 25.3721 33.9427 25.366 33.9827C25.3299 34.2152 25.1475 34.3976 24.915 34.4336C24.8751 34.4398 24.8262 34.44 24.7149 34.44C24.6035 34.44 24.5546 34.4398 24.5147 34.4336C24.2822 34.3976 24.0998 34.2152 24.0638 33.9827C24.0576 33.9427 24.0574 33.8939 24.0574 33.7825V33.5068V33.5042C24.0574 33.3282 24.0574 33.1926 24.0494 33.0855C24.0413 32.9775 24.0248 32.8924 23.9883 32.819C23.936 32.714 23.8779 32.6456 23.7826 32.5771C23.7154 32.5288 23.6268 32.4979 23.5097 32.4708C23.3927 32.4436 23.2399 32.4188 23.0404 32.3863L23.038 32.3859C21.8384 32.1906 20.7135 31.677 19.797 30.8956C19.0548 30.2035 18.5428 29.2668 18.2633 28.0816C18.1968 27.7993 18.1488 27.595 18.1387 27.4328C18.1288 27.274 18.1557 27.1633 18.2339 27.0645C18.3113 26.9668 18.4186 26.9145 18.5904 26.8873C18.7647 26.8598 18.9956 26.8596 19.3129 26.8596H20.2786C20.4798 26.8596 20.6276 26.8597 20.7409 26.8671C20.8546 26.8746 20.9263 26.8893 20.9778 26.9145C21.0181 26.9342 21.0389 26.9455 21.057 26.9585C21.0752 26.9716 21.0925 26.9876 21.1241 27.0195C21.163 27.0587 21.2076 27.1425 21.2682 27.2977C21.3277 27.45 21.399 27.6608 21.495 27.9445C21.6205 28.3155 21.8231 28.6582 22.0905 28.9523L22.0905 28.9523L22.0922 28.954C22.2607 29.1252 22.4469 29.2776 22.6471 29.4095L22.6538 29.4139C22.877 29.5608 23.0538 29.6771 23.2146 29.7337C23.3836 29.7931 23.5373 29.7875 23.7105 29.6942C23.8875 29.5988 23.9747 29.4539 24.0167 29.2501C24.0574 29.0531 24.0574 28.7934 24.0574 28.46V28.4527V25.3899C24.0574 25.1623 23.919 24.9473 23.691 24.8865L31.3526 26.4327ZM26.9013 18.5966C26.9014 18.5968 26.9016 18.597 26.9017 18.5971L26.8555 18.6354M26.9013 18.5966C26.9011 18.5965 26.901 18.5963 26.9009 18.5961L26.8555 18.6354M26.9013 18.5966C27.0151 18.728 27.1139 18.8694 27.1965 19.0183C27.3806 19.3497 27.5175 19.5962 27.626 19.7704C27.6802 19.8574 27.7264 19.9249 27.7669 19.9752C27.808 20.026 27.8405 20.0557 27.8666 20.0711C27.9251 20.1055 28.0055 20.1254 28.1325 20.1355C28.2594 20.1456 28.4249 20.1457 28.6503 20.1457H29.6375C29.9404 20.1457 30.1597 20.1455 30.3263 20.1166C30.4892 20.0883 30.5934 20.0338 30.6715 19.9298C30.7511 19.8237 30.7757 19.7172 30.7631 19.5754C30.7502 19.4288 30.6983 19.2496 30.6255 18.9997C30.541 18.7098 30.4298 18.4267 30.2926 18.1539M26.8555 18.6354C26.9669 18.7639 27.0633 18.902 27.1441 19.0474C27.5115 19.7091 27.6953 20.0399 27.8361 20.1228C27.977 20.2057 28.2014 20.2057 28.6503 20.2057H29.6375C30.2389 20.2057 30.5395 20.2057 30.7195 19.9658C30.8995 19.7258 30.8274 19.4782 30.6831 18.9829C30.5976 18.6895 30.485 18.403 30.3462 18.1269M30.2926 18.1539C30.2926 18.1539 30.2926 18.1539 30.2926 18.1539L30.3462 18.1269M30.2926 18.1539L30.3462 18.1269M30.2926 18.1539L30.3462 18.1269M29.1368 16.7036C29.1369 16.7037 29.137 16.7038 29.1372 16.704L29.1748 16.6573L29.1364 16.7034C29.1365 16.7034 29.1366 16.7035 29.1368 16.7036ZM20.1454 16.6822C20.1455 16.6822 20.1455 16.6821 20.1455 16.6821L20.1085 16.6349L20.1453 16.6822C20.1454 16.6822 20.1454 16.6822 20.1454 16.6822ZM18.8559 22.1343C18.8557 22.1339 18.8555 22.1336 18.8553 22.1332L18.8024 22.1615L18.8564 22.1353C18.8562 22.135 18.856 22.1346 18.8559 22.1343ZM19.9395 23.3988C19.9395 23.3988 19.9394 23.3987 19.9393 23.3987L19.9035 23.4468L19.9397 23.399C19.9397 23.3989 19.9396 23.3989 19.9395 23.3988ZM23.2386 24.7799C23.2378 24.7797 23.2371 24.7796 23.2363 24.7794L23.2243 24.8382L23.2408 24.7805C23.2401 24.7803 23.2393 24.7801 23.2386 24.7799ZM22.3012 21.1456L22.301 21.1458L22.3056 21.149C22.418 21.2274 22.5344 21.2999 22.6542 21.3664L22.6607 21.37C22.8998 21.5026 23.0882 21.6071 23.254 21.655C23.4273 21.7051 23.5797 21.6947 23.7433 21.5982C23.91 21.4999 23.9911 21.3545 24.0301 21.1525C24.0679 20.9565 24.0675 20.699 24.0669 20.3678L24.0669 20.361L24.0645 18.794L24.0645 18.7872C24.0643 18.6438 24.0642 18.5601 24.0311 18.4599C23.993 18.3442 23.8995 18.2343 23.7917 18.153C23.6839 18.0717 23.5525 18.012 23.4308 18.0071C23.3255 18.0029 23.2762 18.0169 23.1903 18.0413L23.1903 18.0413L23.1892 18.0416C22.9265 18.1219 22.6817 18.2483 22.4674 18.4146C22.2483 18.5802 22.072 18.7919 21.9523 19.0335L21.952 19.034C21.8207 19.306 21.7565 19.6032 21.7645 19.9027C21.749 20.135 21.7892 20.3675 21.8819 20.5826C21.9749 20.7986 22.1184 20.9911 22.3012 21.1456ZM27.2656 29.3125L27.2657 29.3126L27.2682 29.3106C27.508 29.1161 27.7096 28.8823 27.8635 28.6199C27.8704 28.6081 27.8745 28.595 27.8757 28.5816C28.043 28.278 28.124 27.9376 28.1104 27.5943C28.1314 27.3322 28.0874 27.069 27.9823 26.8262C27.8766 26.5823 27.7122 26.3658 27.5026 26.1944L27.5029 26.1941L27.4969 26.1902C27.3032 26.0667 27.1023 25.9545 26.8955 25.854L26.8894 25.851C26.6171 25.7187 26.4045 25.6154 26.2248 25.5685C26.0389 25.5199 25.8812 25.5299 25.7232 25.6288C25.5631 25.7289 25.4865 25.879 25.4495 26.0868C25.4133 26.2896 25.4133 26.5574 25.4133 26.9032V26.9096V28.9539L25.4133 28.9655C25.4133 29.1655 25.4133 29.2817 25.458 29.397C25.501 29.5077 25.5897 29.6091 25.6928 29.6837C25.7959 29.7584 25.9198 29.811 26.0384 29.8173C26.1619 29.8238 26.2475 29.7957 26.3938 29.7476L26.3989 29.746C26.3991 29.7459 26.3992 29.7459 26.3993 29.7458C26.7114 29.6489 27.0043 29.5024 27.2656 29.3125Z" stroke="url(#paint1_linear_2218_10718)" stroke-opacity="0.1" stroke-width="0.12"/>
</g>
<g filter="url(#filter1_bi_2218_10718)">
<path d="M32.4801 38.7145C32.6915 39.0818 32.7972 39.2654 32.7794 39.4553C32.7725 39.5297 32.7487 39.6104 32.7141 39.6766C32.626 39.8458 32.4468 39.938 32.0882 40.1223C29.1846 41.6152 25.9164 42.2414 22.6644 41.9162C19.0672 41.5566 15.6734 40.0513 12.9664 37.6148C10.2594 35.1783 8.37731 31.9348 7.58824 28.3466C6.89479 25.1931 7.07661 21.9147 8.10043 18.8739C8.15598 18.7089 8.18375 18.6264 8.19141 18.5865C8.26986 18.1774 7.96034 17.8369 7.54562 17.8762C7.50514 17.88 7.42903 17.8978 7.27683 17.9334C7.00677 17.9961 6.72328 17.9471 6.48874 17.7972C6.2542 17.6472 6.08781 17.4087 6.02618 17.1339C5.96455 16.8592 6.01273 16.5708 6.16011 16.3322C6.3075 16.0936 6.54202 15.9243 6.81208 15.8617L10.3891 15.0276C10.6588 14.9638 10.9425 15.0116 11.1776 15.1604C11.4112 15.3122 11.5778 15.5503 11.6424 15.8245L12.4622 19.4686C12.523 19.7433 12.4741 20.0314 12.3262 20.2694C12.1784 20.5075 11.9437 20.6761 11.6737 20.7382C11.5957 20.7486 11.5167 20.7486 11.4387 20.7382C11.2033 20.7372 10.9752 20.6553 10.7913 20.5059C10.6075 20.3564 10.4786 20.1481 10.4256 19.9149C10.3633 19.6694 10.0297 19.6539 9.95408 19.8957C9.09444 22.6451 9.01276 25.5915 9.72715 28.3951C10.5098 31.4669 12.2096 34.2161 14.5923 36.2641C16.9749 38.3122 19.9233 39.5582 23.0311 39.8306C25.7832 40.0718 28.5405 39.539 31.005 38.3005C31.4127 38.0956 31.6166 37.9931 31.7932 38.0127C31.8688 38.0211 31.9325 38.0402 32.0002 38.0748C32.1585 38.1557 32.2657 38.3419 32.4801 38.7145Z" fill="#F1F1F1" fill-opacity="0.1"/>
<path d="M32.4801 38.7145C32.6915 39.0818 32.7972 39.2654 32.7794 39.4553C32.7725 39.5297 32.7487 39.6104 32.7141 39.6766C32.626 39.8458 32.4468 39.938 32.0882 40.1223C29.1846 41.6152 25.9164 42.2414 22.6644 41.9162C19.0672 41.5566 15.6734 40.0513 12.9664 37.6148C10.2594 35.1783 8.37731 31.9348 7.58824 28.3466C6.89479 25.1931 7.07661 21.9147 8.10043 18.8739C8.15598 18.7089 8.18375 18.6264 8.19141 18.5865C8.26986 18.1774 7.96034 17.8369 7.54562 17.8762C7.50514 17.88 7.42903 17.8978 7.27683 17.9334C7.00677 17.9961 6.72328 17.9471 6.48874 17.7972C6.2542 17.6472 6.08781 17.4087 6.02618 17.1339C5.96455 16.8592 6.01273 16.5708 6.16011 16.3322C6.3075 16.0936 6.54202 15.9243 6.81208 15.8617L10.3891 15.0276C10.6588 14.9638 10.9425 15.0116 11.1776 15.1604C11.4112 15.3122 11.5778 15.5503 11.6424 15.8245L12.4622 19.4686C12.523 19.7433 12.4741 20.0314 12.3262 20.2694C12.1784 20.5075 11.9437 20.6761 11.6737 20.7382C11.5957 20.7486 11.5167 20.7486 11.4387 20.7382C11.2033 20.7372 10.9752 20.6553 10.7913 20.5059C10.6075 20.3564 10.4786 20.1481 10.4256 19.9149C10.3633 19.6694 10.0297 19.6539 9.95408 19.8957C9.09444 22.6451 9.01276 25.5915 9.72715 28.3951C10.5098 31.4669 12.2096 34.2161 14.5923 36.2641C16.9749 38.3122 19.9233 39.5582 23.0311 39.8306C25.7832 40.0718 28.5405 39.539 31.005 38.3005C31.4127 38.0956 31.6166 37.9931 31.7932 38.0127C31.8688 38.0211 31.9325 38.0402 32.0002 38.0748C32.1585 38.1557 32.2657 38.3419 32.4801 38.7145Z" fill="url(#paint2_linear_2218_10718)"/>
<path d="M6.82565 15.9201L6.8257 15.9201L10.4027 15.0861L10.4029 15.086C10.6568 15.0259 10.9237 15.0708 11.1452 15.2109C11.3654 15.3542 11.5228 15.5788 11.5839 15.8379C11.5839 15.838 11.5839 15.8381 11.584 15.8382L12.4036 19.4816C12.4036 19.4816 12.4036 19.4816 12.4036 19.4817C12.461 19.7411 12.4148 20.0131 12.2753 20.2378C12.1362 20.4616 11.916 20.6201 11.663 20.6791C11.5911 20.6885 11.5184 20.6883 11.4466 20.6788L11.4467 20.6783L11.439 20.6782C11.2174 20.6773 11.0025 20.6002 10.8292 20.4593C10.6558 20.3184 10.5342 20.1219 10.4842 19.9016L10.4842 19.9016L10.4838 19.9001C10.4077 19.6005 9.99183 19.5739 9.89682 19.8778C9.03386 22.6378 8.95187 25.5955 9.66901 28.4099C10.4547 31.4935 12.1611 34.2535 14.5532 36.3097C16.9453 38.3658 19.9054 39.6169 23.0258 39.8904C25.7891 40.1326 28.5575 39.5976 31.0319 38.3541C31.2368 38.2511 31.3868 38.1758 31.5077 38.1282C31.6283 38.0808 31.7126 38.0641 31.7866 38.0723C31.855 38.0799 31.9116 38.0969 31.9729 38.1282C32.0397 38.1623 32.0993 38.2203 32.1702 38.32C32.2415 38.4204 32.3203 38.5571 32.4281 38.7444C32.5345 38.9292 32.6118 39.0637 32.6608 39.1755C32.7092 39.2861 32.7273 39.3688 32.7197 39.4497C32.7135 39.5164 32.6919 39.5896 32.6609 39.6489C32.6232 39.7214 32.5651 39.7799 32.4693 39.8439C32.3721 39.9088 32.2413 39.9761 32.0608 40.0689C29.1674 41.5565 25.9108 42.1805 22.6704 41.8565C19.086 41.4982 15.7041 39.9982 13.0066 37.5702C10.309 35.1421 8.43324 31.9098 7.64684 28.3337C6.95573 25.1909 7.13695 21.9235 8.15729 18.8931L8.16148 18.8806C8.21333 18.7267 8.2419 18.6418 8.25034 18.5978C8.33631 18.1494 7.99451 17.7734 7.53996 17.8165C7.49539 17.8207 7.41651 17.8391 7.27439 17.8724L7.26326 17.875C7.26325 17.875 7.26323 17.875 7.26321 17.875C7.00897 17.934 6.74204 17.8879 6.52106 17.7466C6.30002 17.6053 6.14294 17.3803 6.08473 17.1208C6.02651 16.8613 6.07205 16.5889 6.21116 16.3637C6.35025 16.1386 6.57137 15.9791 6.82565 15.9201Z" stroke="url(#paint3_linear_2218_10718)" stroke-opacity="0.1" stroke-width="0.12"/>
</g>
<g filter="url(#filter2_bi_2218_10718)">
<path d="M15.575 9.32869C15.3378 8.93833 15.2193 8.74316 15.241 8.54105C15.2485 8.47228 15.2704 8.39793 15.3014 8.33611C15.3926 8.15445 15.5887 8.05919 15.981 7.86868C19.0413 6.38231 22.4841 5.75928 25.9098 6.08377C29.7068 6.44341 33.2892 7.94872 36.1466 10.3852C39.004 12.8217 40.9906 16.0652 41.8235 19.6534C42.5509 22.7871 42.3659 26.0443 41.3031 29.0689C41.228 29.2826 41.1904 29.3895 41.182 29.4449C41.1227 29.8323 41.4025 30.1478 41.7942 30.1353C41.8502 30.1335 41.9508 30.1112 42.1522 30.0666C42.4373 30.0039 42.7365 30.0529 42.9841 30.2028C43.2317 30.3528 43.4073 30.5913 43.4724 30.8661C43.5374 31.1408 43.4866 31.4292 43.331 31.6678C43.1754 31.9064 42.9279 32.0757 42.6428 32.1383L38.8671 32.9724C38.5823 33.0362 38.2829 32.9884 38.0347 32.8396C37.7882 32.6878 37.6123 32.4497 37.5442 32.1755L36.6788 28.5314C36.6146 28.2567 36.6662 27.9686 36.8223 27.7306C36.9784 27.4925 37.2261 27.3239 37.5111 27.2618C37.5934 27.2514 37.6768 27.2514 37.7591 27.2618C38.0076 27.2628 38.2484 27.3447 38.4425 27.4941C38.6366 27.6436 38.7726 27.8519 38.8285 28.0851C38.8968 28.34 39.2429 28.3568 39.3256 28.1063C40.2336 25.3563 40.32 22.4092 39.5658 19.6049C38.7396 16.5331 36.9454 13.7839 34.4304 11.7359C31.9153 9.68781 28.8032 8.44177 25.5228 8.16938C22.5903 7.9259 19.6524 8.47113 17.0324 9.73475C16.628 9.92978 16.4258 10.0273 16.2487 10.0043C16.1829 9.99574 16.1269 9.97916 16.0671 9.95053C15.906 9.87345 15.7956 9.69187 15.575 9.32869Z" fill="#F1F1F1" fill-opacity="0.1"/>
<path d="M15.575 9.32869C15.3378 8.93833 15.2193 8.74316 15.241 8.54105C15.2485 8.47228 15.2704 8.39793 15.3014 8.33611C15.3926 8.15445 15.5887 8.05919 15.981 7.86868C19.0413 6.38231 22.4841 5.75928 25.9098 6.08377C29.7068 6.44341 33.2892 7.94872 36.1466 10.3852C39.004 12.8217 40.9906 16.0652 41.8235 19.6534C42.5509 22.7871 42.3659 26.0443 41.3031 29.0689C41.228 29.2826 41.1904 29.3895 41.182 29.4449C41.1227 29.8323 41.4025 30.1478 41.7942 30.1353C41.8502 30.1335 41.9508 30.1112 42.1522 30.0666C42.4373 30.0039 42.7365 30.0529 42.9841 30.2028C43.2317 30.3528 43.4073 30.5913 43.4724 30.8661C43.5374 31.1408 43.4866 31.4292 43.331 31.6678C43.1754 31.9064 42.9279 32.0757 42.6428 32.1383L38.8671 32.9724C38.5823 33.0362 38.2829 32.9884 38.0347 32.8396C37.7882 32.6878 37.6123 32.4497 37.5442 32.1755L36.6788 28.5314C36.6146 28.2567 36.6662 27.9686 36.8223 27.7306C36.9784 27.4925 37.2261 27.3239 37.5111 27.2618C37.5934 27.2514 37.6768 27.2514 37.7591 27.2618C38.0076 27.2628 38.2484 27.3447 38.4425 27.4941C38.6366 27.6436 38.7726 27.8519 38.8285 28.0851C38.8968 28.34 39.2429 28.3568 39.3256 28.1063C40.2336 25.3563 40.32 22.4092 39.5658 19.6049C38.7396 16.5331 36.9454 13.7839 34.4304 11.7359C31.9153 9.68781 28.8032 8.44177 25.5228 8.16938C22.5903 7.9259 19.6524 8.47113 17.0324 9.73475C16.628 9.92978 16.4258 10.0273 16.2487 10.0043C16.1829 9.99574 16.1269 9.97916 16.0671 9.95053C15.906 9.87345 15.7956 9.69187 15.575 9.32869Z" fill="url(#paint4_linear_2218_10718)"/>
<path d="M42.6299 32.0798L42.6299 32.0797C42.9 32.0203 43.134 31.8601 43.2807 31.635C43.4274 31.41 43.4752 31.1385 43.414 30.8799C43.3527 30.6213 43.1872 30.396 42.953 30.2542C42.7188 30.1123 42.4353 30.0658 42.1652 30.1252L42.6299 32.0798ZM42.6299 32.0798L38.8541 32.9138L38.8539 32.9138C38.5842 32.9743 38.3007 32.929 38.0659 32.7883C37.8326 32.6446 37.6668 32.4197 37.6025 32.1614C37.6025 32.1613 37.6024 32.1612 37.6024 32.1611L36.7372 28.5177C36.7372 28.5177 36.7372 28.5176 36.7372 28.5175C36.6768 28.259 36.7254 27.9879 36.8725 27.7634C37.0192 27.5396 37.2523 27.3803 37.5213 27.321C37.5977 27.3115 37.6752 27.3116 37.7516 27.3213L37.7516 27.3217L37.7589 27.3218C37.9944 27.3227 38.2223 27.4004 38.4059 27.5417C38.5893 27.683 38.7175 27.8795 38.7701 28.0991L38.7701 28.0991L38.7705 28.1007C38.853 28.4086 39.2797 28.4366 39.3826 28.1251C40.2942 25.3641 40.381 22.405 39.6237 19.5893C38.7942 16.5051 36.9929 13.7451 34.4683 11.6893C31.9437 9.63352 28.8201 8.38296 25.5277 8.10959C22.5847 7.86522 19.636 8.41241 17.0063 9.68071C16.8031 9.77873 16.6544 9.85038 16.5344 9.89506C16.4148 9.93957 16.3308 9.95445 16.2564 9.94479C16.197 9.93706 16.1471 9.92229 16.093 9.89641C16.0249 9.86383 15.964 9.80779 15.8914 9.7109C15.8182 9.61337 15.7372 9.48015 15.6263 9.29753C15.507 9.10115 15.4202 8.95818 15.3654 8.83918C15.3112 8.72144 15.2914 8.63354 15.3007 8.54748C15.3073 8.48585 15.3272 8.41843 15.355 8.36303C15.3941 8.28526 15.4564 8.22324 15.5607 8.15619C15.6665 8.08824 15.8098 8.01854 16.0072 7.92265C19.0576 6.44111 22.4893 5.82005 25.9042 6.1435C29.6891 6.502 33.2598 8.00251 36.1076 10.4309C38.9555 12.8592 40.9351 16.0915 41.7651 19.667C42.4899 22.7896 42.3056 26.0351 41.2465 29.049L41.2462 29.0498C41.2089 29.156 41.1806 29.2366 41.1605 29.2975C41.1408 29.3576 41.1277 29.4026 41.1226 29.4358C41.0577 29.8603 41.3669 30.209 41.7961 30.1953C41.8295 30.1942 41.873 30.1872 41.9304 30.1759C41.9884 30.1644 42.0644 30.1475 42.1644 30.1253L42.1651 30.1252L42.6299 32.0798Z" stroke="url(#paint5_linear_2218_10718)" stroke-opacity="0.1" stroke-width="0.12"/>
</g>
<defs>
<filter id="filter0_bi_2218_10718" x="16.2768" y="11.7" width="17.0232" height="24.6" filterUnits="userSpaceOnUse" color-interpolation-filters="sRGB">
<feFlood flood-opacity="0" result="BackgroundImageFix"/>
<feGaussianBlur in="BackgroundImageFix" stdDeviation="0.9"/>
<feComposite in2="SourceAlpha" operator="in" result="effect1_backgroundBlur_2218_10718"/>
<feBlend mode="normal" in="SourceGraphic" in2="effect1_backgroundBlur_2218_10718" result="shape"/>
<feColorMatrix in="SourceAlpha" type="matrix" values="0 0 0 0 0 0 0 0 0 0 0 0 0 0 0 0 0 0 127 0" result="hardAlpha"/>
<feOffset dy="0.3"/>
<feGaussianBlur stdDeviation="0.6"/>
<feComposite in2="hardAlpha" operator="arithmetic" k2="-1" k3="1"/>
<feColorMatrix type="matrix" values="0 0 0 0 1 0 0 0 0 1 0 0 0 0 1 0 0 0 0.15 0"/>
<feBlend mode="normal" in2="shape" result="effect2_innerShadow_2218_10718"/>
</filter>
<filter id="filter1_bi_2218_10718" x="4.2" y="13.2" width="30.3814" height="30.6" filterUnits="userSpaceOnUse" color-interpolation-filters="sRGB">
<feFlood flood-opacity="0" result="BackgroundImageFix"/>
<feGaussianBlur in="BackgroundImageFix" stdDeviation="0.9"/>
<feComposite in2="SourceAlpha" operator="in" result="effect1_backgroundBlur_2218_10718"/>
<feBlend mode="normal" in="SourceGraphic" in2="effect1_backgroundBlur_2218_10718" result="shape"/>
<feColorMatrix in="SourceAlpha" type="matrix" values="0 0 0 0 0 0 0 0 0 0 0 0 0 0 0 0 0 0 127 0" result="hardAlpha"/>
<feOffset dy="0.3"/>
<feGaussianBlur stdDeviation="0.6"/>
<feComposite in2="hardAlpha" operator="arithmetic" k2="-1" k3="1"/>
<feColorMatrix type="matrix" values="0 0 0 0 1 0 0 0 0 1 0 0 0 0 1 0 0 0 0.15 0"/>
<feBlend mode="normal" in2="shape" result="effect2_innerShadow_2218_10718"/>
</filter>
<filter id="filter2_bi_2218_10718" x="13.4385" y="4.2" width="31.8615" height="30.6" filterUnits="userSpaceOnUse" color-interpolation-filters="sRGB">
<feFlood flood-opacity="0" result="BackgroundImageFix"/>
<feGaussianBlur in="BackgroundImageFix" stdDeviation="0.9"/>
<feComposite in2="SourceAlpha" operator="in" result="effect1_backgroundBlur_2218_10718"/>
<feBlend mode="normal" in="SourceGraphic" in2="effect1_backgroundBlur_2218_10718" result="shape"/>
<feColorMatrix in="SourceAlpha" type="matrix" values="0 0 0 0 0 0 0 0 0 0 0 0 0 0 0 0 0 0 127 0" result="hardAlpha"/>
<feOffset dy="0.3"/>
<feGaussianBlur stdDeviation="0.6"/>
<feComposite in2="hardAlpha" operator="arithmetic" k2="-1" k3="1"/>
<feColorMatrix type="matrix" values="0 0 0 0 1 0 0 0 0 1 0 0 0 0 1 0 0 0 0.15 0"/>
<feBlend mode="normal" in2="shape" result="effect2_innerShadow_2218_10718"/>
</filter>
<linearGradient id="paint0_linear_2218_10718" x1="18" y1="13.5" x2="34.4886" y2="16.1915" gradientUnits="userSpaceOnUse">
<stop stop-color="#62BDFF"/>
<stop offset="1" stop-color="#3864FF"/>
</linearGradient>
<linearGradient id="paint1_linear_2218_10718" x1="18.4219" y1="14.4545" x2="31.5" y2="14.4545" gradientUnits="userSpaceOnUse">
<stop stop-color="#7EE5FF"/>
<stop offset="1" stop-color="#41A9FF"/>
</linearGradient>
<linearGradient id="paint2_linear_2218_10718" x1="6" y1="15" x2="37.8052" y2="23.0759" gradientUnits="userSpaceOnUse">
<stop stop-color="#62BDFF"/>
<stop offset="1" stop-color="#3864FF"/>
</linearGradient>
<linearGradient id="paint3_linear_2218_10718" x1="6.84375" y1="16.2273" x2="33" y2="16.2273" gradientUnits="userSpaceOnUse">
<stop stop-color="#7EE5FF"/>
<stop offset="1" stop-color="#41A9FF"/>
</linearGradient>
<linearGradient id="paint4_linear_2218_10718" x1="43.5" y1="33" x2="10.1585" y2="24.0636" gradientUnits="userSpaceOnUse">
<stop stop-color="#62BDFF"/>
<stop offset="1" stop-color="#3864FF"/>
</linearGradient>
<linearGradient id="paint5_linear_2218_10718" x1="42.6094" y1="31.7727" x2="15" y2="31.7727" gradientUnits="userSpaceOnUse">
<stop stop-color="#7EE5FF"/>
<stop offset="1" stop-color="#41A9FF"/>
</linearGradient>
</defs>
</svg>
