<svg width="21" height="20" viewBox="0 0 21 20" fill="none" xmlns="http://www.w3.org/2000/svg">
<path fill-rule="evenodd" clip-rule="evenodd" d="M7.87791 0.833252H12.8538V2.49992H7.87791V0.833252ZM9.53656 11.6666V6.66658H11.1952V11.6666H9.53656ZM16.196 6.15825L17.3737 4.97492C17.017 4.54992 16.6273 4.14992 16.2043 3.79992L15.0267 4.98325C13.7412 3.94992 12.124 3.33325 10.3659 3.33325C6.24415 3.33325 2.90198 6.69159 2.90198 10.8333C2.90198 14.9749 6.23585 18.3333 10.3659 18.3333C14.4959 18.3333 17.8298 14.9749 17.8298 10.8333C17.8298 9.06659 17.2161 7.44159 16.196 6.15825ZM4.56062 10.8333C4.56062 14.0583 7.1564 16.6666 10.3659 16.6666C13.5754 16.6666 16.1711 14.0583 16.1711 10.8333C16.1711 7.60825 13.5754 4.99992 10.3659 4.99992C7.1564 4.99992 4.56062 7.60825 4.56062 10.8333Z" fill="white"/>
</svg>
