<svg width="20" height="21" viewBox="0 0 20 21" fill="none" xmlns="http://www.w3.org/2000/svg">
<path d="M15 12.9998C15 12.9998 17.5 12.5832 17.5 14.5123C17.9167 17.9998 15 17.5832 15 17.5832" stroke="#F0F4F8" stroke-width="1.4" stroke-linecap="round" stroke-linejoin="round"/>
<path d="M13.0929 3.95342C13.0929 3.95342 14.8807 3.82744 15.1226 5.85291C15.3645 7.87838 13.5871 8.09067 13.5871 8.09067" stroke="#F0F4F8" stroke-width="1.4" stroke-linecap="round" stroke-linejoin="round"/>
<path d="M2.70785 15.0899C2.82052 13.5125 4.25284 12.3649 5.83017 12.4784C6.4593 12.5237 7.12609 12.5554 7.7602 12.5554C8.48116 12.5554 9.27733 12.5144 10.0239 12.4591C11.5965 12.3425 13.0115 13.4944 13.1239 15.0673V15.0673C13.2371 16.6519 11.982 17.9998 10.3933 17.9998H7.7602H5.41733C3.8409 17.9998 2.59554 16.6623 2.70785 15.0899V15.0899Z" stroke="#F0F4F8" stroke-width="1.4"/>
<path d="M5 6.74968C5 5.13884 6.30584 3.83301 7.91667 3.83301V3.83301C9.5275 3.83301 10.8333 5.13884 10.8333 6.74967V7.16634C10.8333 8.54705 9.71405 9.66634 8.33333 9.66634V9.66634H7.5V9.66634C6.11929 9.66634 5 8.54705 5 7.16634V6.74968Z" stroke="#F0F4F8" stroke-width="1.4"/>
</svg>
