<svg width="38" height="39" viewBox="0 0 38 39" fill="none" xmlns="http://www.w3.org/2000/svg">
<g filter="url(#filter0_bii_2077_18962)">
<ellipse rx="6.19897" ry="6.22847" transform="matrix(0.863957 -0.503565 0.496444 0.868069 8.44773 23.2783)" fill="#1D1D1D" fill-opacity="0.05"/>
<ellipse rx="6.19897" ry="6.22847" transform="matrix(0.863957 -0.503565 0.496444 0.868069 8.44773 23.2783)" fill="url(#paint0_linear_2077_18962)" fill-opacity="0.2"/>
<path d="M13.6882 20.2239C15.3596 23.1465 14.3673 26.8827 11.4736 28.5693C8.57991 30.2559 4.87873 29.2554 3.20728 26.3328C1.53583 23.4101 2.52813 19.6739 5.42184 17.9873C8.31554 16.3007 12.0167 17.3012 13.6882 20.2239Z" stroke="url(#paint1_linear_2077_18962)" stroke-opacity="0.1" stroke-width="0.266667"/>
</g>
<g filter="url(#filter1_bi_2077_18962)">
<rect x="5.54166" y="13.958" width="11.0833" height="11.0833" rx="1" fill="#F1F1F1" fill-opacity="0.1"/>
<rect x="5.54166" y="13.958" width="11.0833" height="11.0833" rx="1" fill="url(#paint2_linear_2077_18962)"/>
<rect x="5.64166" y="14.058" width="10.8833" height="10.8833" rx="0.9" stroke="url(#paint3_linear_2077_18962)" stroke-opacity="0.1" stroke-width="0.2"/>
</g>
<g filter="url(#filter2_bi_2077_18962)">
<rect x="24.5417" y="6.0415" width="7.91667" height="7.91667" rx="1" fill="#F1F1F1" fill-opacity="0.1"/>
<rect x="24.5417" y="6.0415" width="7.91667" height="7.91667" rx="1" fill="url(#paint4_linear_2077_18962)"/>
<rect x="24.6417" y="6.1415" width="7.71667" height="7.71667" rx="0.9" stroke="url(#paint5_linear_2077_18962)" stroke-opacity="0.1" stroke-width="0.2"/>
</g>
<g filter="url(#filter3_bi_2077_18962)">
<rect x="24.5417" y="25.0415" width="7.91667" height="7.91667" rx="1" fill="#F1F1F1" fill-opacity="0.1"/>
<rect x="24.5417" y="25.0415" width="7.91667" height="7.91667" rx="1" fill="url(#paint6_linear_2077_18962)"/>
<rect x="24.6417" y="25.1415" width="7.71667" height="7.71667" rx="0.9" stroke="url(#paint7_linear_2077_18962)" stroke-opacity="0.1" stroke-width="0.2"/>
</g>
<g filter="url(#filter4_i_2077_18962)">
<path fill-rule="evenodd" clip-rule="evenodd" d="M20.8114 10.8457C20.6404 10.9162 20.5836 10.9696 20.5671 10.9912C20.567 10.9913 20.5669 10.9914 20.5669 10.9916V11.0012V11.0109V11.0207V11.0305V11.0403V11.0503V11.0603V11.0703V11.0804V11.0906V11.1008V11.111V11.1214V11.1318V11.1422V11.1527V11.1633V11.1739V11.1845V11.1953V11.206V11.2169V11.2278V11.2387V11.2497V11.2608V11.2719V11.283V11.2942V11.3055V11.3168V11.3282V11.3396V11.3511V11.3627V11.3743V11.3859V11.3976V11.4093V11.4211V11.433V11.4449V11.4568V11.4689V11.4809V11.493V11.5052V11.5174V11.5296V11.542V11.5543V11.5667V11.5792V11.5917V11.6043V11.6169V11.6295V11.6422V11.655V11.6678V11.6807V11.6936V11.7065V11.7195V11.7326V11.7457V11.7588V11.772V11.7852V11.7985V11.8118V11.8252V11.8387V11.8521V11.8656V11.8792V11.8928V11.9065V11.9202V11.9339V11.9477V11.9615V11.9754V11.9893V12.0033V12.0173V12.0314V12.0455V12.0596V12.0738V12.088V12.1023V12.1166V12.131V12.1454V12.1598V12.1743V12.1888V12.2034V12.218V12.2327V12.2474V12.2621V12.2769V12.2917V12.3066V12.3215V12.3364V12.3514V12.3664V12.3815V12.3966V12.4117V12.4269V12.4421V12.4573V12.4726V12.488V12.5033V12.5188V12.5342V12.5497V12.5652V12.5808V12.5964V12.612V12.6277V12.6434V12.6592V12.6749V12.6908V12.7066V12.7225V12.7384V12.7544V12.7704V12.7864V12.8025V12.8186V12.8347V12.8509V12.8671V12.8834V12.8997V12.916V12.9323V12.9487V12.9651V12.9815V12.998V13.0145V13.0311V13.0477V13.0643V13.0809V13.0976V13.1143V13.131V13.1478V13.1646V13.1814V13.1983V13.2152V13.2321V13.249V13.266V13.283V13.3001V13.3172V13.3343V13.3514V13.3686V13.3858V13.403V13.4202V13.4375V13.4548V13.4721V13.4895V13.5069V13.5243V13.5418V13.5592V13.5767V13.5943V13.6118V13.6294V13.647V13.6646V13.6823V13.7V13.7177V13.7354V13.7532V13.771V13.7888V13.8066V13.8245V13.8424V13.8603V13.8782V13.8962V13.9141V13.9321V13.9502V13.9682V13.9863V14.0044V14.0225V14.0407V14.0588V14.077V14.0952V14.1135V14.1317V14.15V14.1683V14.1866V14.205V14.2233V14.2417V14.2601V14.2785V14.297V14.3154V14.3339V14.3524V14.3709V14.3895V14.4081V14.4266V14.4452V14.4638V14.4825V14.5011V14.5198V14.5385V14.5572V14.5759V14.5947V14.6134V14.6322V14.651V14.6698V14.6886V14.7075V14.7264V14.7452V14.7641V14.783V14.802V14.8209V14.8398V14.8588V14.8778V14.8968V14.9158V14.9348V14.9539V14.9729V14.992V15.0111V15.0302V15.0493V15.0684V15.0875V15.1067V15.1259V15.145V15.1642V15.1834V15.2026V15.2218V15.2411V15.2603V15.2796V15.2988V15.3181V15.3374V15.3567V15.376V15.3953V15.4147V15.434V15.4533V15.4727V15.4921V15.5114V15.5308V15.5502V15.5696V15.589V15.6084V15.6279V15.6473V15.6668V15.6862V15.7057V15.7251V15.7446V15.7641V15.7836V15.803V15.8225V15.842V15.8616V15.8811V15.9006V15.9201V15.9397V15.9592V15.9787V15.9983V16.0178V16.0374V16.0569V16.0765V16.0961V16.1156V16.1352V16.1548V16.1744V16.194V16.2136V16.2331V16.2527V16.2723V16.2919V16.3115V16.3311V16.3507V16.3703V16.3899V16.4095V16.4291V16.4488V16.4684V16.488V16.5076V16.5272V16.5468V16.5664V16.586V16.6056V16.6252V16.6448V16.6644V16.684V16.7036V16.7232V16.7428V16.7624V16.782V16.8016V16.8212V16.8408V16.8604V16.88V16.8995V16.9191V16.9387V16.9582V16.9778V16.9974V17.0169V17.0365V17.056V17.0756V17.0951V17.1146V17.1341V17.1537V17.1732V17.1927V17.2122V17.2317V17.2512V17.2707V17.2901V17.3096V17.3291V17.3485V17.368V17.3874V17.4068V17.4263V17.4457V17.4651V17.4845V17.5039V17.5233V17.5426V17.562V17.5813V17.6007V17.62V17.6393V17.6587V17.678V17.6973V17.7165V17.7358V17.7551V17.7743V17.7936V17.8128V17.832V17.8512V17.8704V17.8896V17.9088V17.9279V17.9471V17.9662V17.9853V18.0044V18.0235V18.0426V18.0617V18.0807V18.0997V18.1188V18.1378V18.1568V18.1757V18.1947V18.2137V18.2326V18.2515V18.2704V18.2893V18.3082V18.327V18.3459V18.3647V18.3835V18.4023V18.4211V18.4398V18.4586V18.4773V18.496V18.5147V18.5333V18.552V18.5706V18.5892V18.6078V18.6264V18.6449V18.6635V18.682V18.7005V18.719V18.7374V18.7559V18.7743V18.7927V18.811V18.8294V18.8477V18.866V18.8843V18.9026V18.9209V18.9391V18.9573V18.9755V18.9936V19.0118V19.0299V19.048V19.066V19.0841V19.1021V19.1201V19.1381V19.156V19.174V19.1919V19.2097V19.2167V19.2276V19.2454V19.2632V19.281V19.2988V19.3165V19.3342V19.3519V19.3695V19.3871V19.4047V19.4223V19.4398V19.4574V19.4749V19.4923V19.5098V19.5272V19.5445V19.5619V19.5792V19.5965V19.6138V19.631V19.6482V19.6654V19.6826V19.6997V19.7167V19.7168V19.7338V19.7509V19.7681V19.7852V19.8025V19.8197V19.837V19.8543V19.8716V19.8889V19.9063V19.9237V19.9412V19.9586V19.9761V19.9936V20.0112V20.0287V20.0463V20.064V20.0816V20.0993V20.117V20.1347V20.1525V20.1702V20.188V20.2059V20.2168V20.2237V20.2416V20.2595V20.2774V20.2954V20.3133V20.3313V20.3494V20.3674V20.3855V20.4036V20.4217V20.4398V20.458V20.4761V20.4943V20.5126V20.5308V20.5491V20.5674V20.5857V20.604V20.6224V20.6407V20.6591V20.6776V20.696V20.7144V20.7329V20.7514V20.7699V20.7885V20.807V20.8256V20.8442V20.8628V20.8814V20.9001V20.9187V20.9374V20.9561V20.9748V20.9936V21.0123V21.0311V21.0499V21.0687V21.0875V21.1063V21.1252V21.1441V21.1629V21.1818V21.2008V21.2197V21.2386V21.2576V21.2766V21.2956V21.3146V21.3336V21.3526V21.3717V21.3908V21.4098V21.4289V21.448V21.4671V21.4863V21.5054V21.5246V21.5437V21.5629V21.5821V21.6013V21.6205V21.6398V21.659V21.6782V21.6975V21.7168V21.7361V21.7553V21.7747V21.794V21.8133V21.8326V21.852V21.8713V21.8907V21.91V21.9294V21.9488V21.9682V21.9876V22.007V22.0265V22.0459V22.0653V22.0848V22.1042V22.1237V22.1432V22.1626V22.1821V22.2016V22.2211V22.2406V22.2601V22.2796V22.2991V22.3186V22.3382V22.3577V22.3772V22.3968V22.4163V22.4359V22.4554V22.475V22.4946V22.5141V22.5337V22.5533V22.5729V22.5924V22.612V22.6316V22.6512V22.6708V22.6904V22.71V22.7296V22.7492V22.7688V22.7884V22.808V22.8276V22.8472V22.8668V22.8864V22.906V22.9256V22.9452V22.9649V22.9845V23.0041V23.0237V23.0433V23.0629V23.0825V23.1021V23.1217V23.1413V23.1609V23.1805V23.2001V23.2196V23.2392V23.2588V23.2784V23.298V23.3175V23.3371V23.3567V23.3762V23.3958V23.4153V23.4349V23.4544V23.474V23.4935V23.513V23.5326V23.5521V23.5716V23.5911V23.6106V23.6301V23.6496V23.6691V23.6886V23.708V23.7275V23.7469V23.7664V23.7858V23.8053V23.8247V23.8441V23.8635V23.8829V23.9023V23.9217V23.9411V23.9604V23.9798V23.9991V24.0185V24.0378V24.0571V24.0764V24.0957V24.115V24.1343V24.1535V24.1728V24.192V24.2113V24.2305V24.2497V24.2689V24.2881V24.3072V24.3264V24.3455V24.3647V24.3838V24.4029V24.422V24.4411V24.4602V24.4792V24.4982V24.5173V24.5363V24.5553V24.5743V24.5932V24.6122V24.6311V24.65V24.6689V24.6878V24.7067V24.7256V24.7444V24.7632V24.7821V24.8008V24.8196V24.8384V24.8571V24.8758V24.8946V24.9132V24.9319V24.9506V24.9692V24.9878V25.0064V25.025V25.0435V25.0621V25.0806V25.0991V25.1176V25.1361V25.1545V25.1729V25.1913V25.2097V25.2281V25.2464V25.2647V25.283V25.3013V25.3195V25.3378V25.356V25.3742V25.3923V25.4105V25.4286V25.4467V25.4648V25.4828V25.5009V25.5189V25.5368V25.5548V25.5727V25.5906V25.6085V25.6264V25.6442V25.662V25.6798V25.6976V25.7153V25.733V25.7507V25.7684V25.786V25.8036V25.8212V25.8387V25.8562V25.8737V25.8912V25.9087V25.9261V25.9435V25.9608V25.9782V25.9955V26.0127V26.03V26.0472V26.0644V26.0815V26.0987V26.1158V26.1329V26.1499V26.1669V26.1839V26.2008V26.2178V26.2347V26.2515V26.2683V26.2851V26.3019V26.3186V26.3354V26.352V26.3687V26.3853V26.4018V26.4184V26.4349V26.4514V26.4678V26.4842V26.5006V26.5169V26.5333V26.5495V26.5658V26.582V26.5982V26.6143V26.6304V26.6465V26.6625V26.6785V26.6945V26.7104V26.7263V26.7421V26.758V26.7737V26.7895V26.8052V26.8209V26.8365V26.8521V26.8677V26.8832V26.8987V26.9141V26.9295V26.9449V26.9602V26.9755V26.9908V27.006V27.0212V27.0363V27.0514V27.0665V27.0815V27.0965V27.1114V27.1263V27.1412V27.156V27.1708V27.1855V27.2002V27.2148V27.2294V27.244V27.2585V27.273V27.2875V27.3019V27.3162V27.3305V27.3448V27.359V27.3732V27.3874V27.4015V27.4155V27.4295V27.4435V27.4574V27.4713V27.4851V27.4989V27.5127V27.5264V27.54V27.5536V27.5672V27.5807V27.5942V27.6076V27.621V27.6343V27.6476V27.6608V27.674V27.6871V27.7002V27.7133V27.7263V27.7392V27.7521V27.765V27.7778V27.7906V27.8033V27.8159V27.8285V27.8411V27.8536V27.8661V27.8785V27.8908V27.9031V27.9154V27.9276V27.9398V27.9519V27.9639V27.9759V27.9879V27.9998V28.0117V28.0234V28.0352V28.0469V28.0585V28.0701V28.0817V28.0931V28.1046V28.1159V28.1273V28.1385V28.1497V28.1609V28.172V28.1831V28.1941V28.205V28.2159V28.2267V28.2375V28.2482V28.2589V28.2695V28.2801V28.2906V28.301V28.3114V28.3217V28.332V28.3422V28.3524V28.3625V28.3725V28.3825V28.3924V28.4023V28.4121V28.4218V28.4315V28.4412C20.5669 28.4413 20.567 28.4414 20.5671 28.4415C20.5836 28.4631 20.6403 28.5165 20.8114 28.587C21.085 28.6997 21.4921 28.7827 21.9739 28.8379C22.8324 28.9362 23.7964 28.9337 24.366 28.9321C24.4629 28.932 24.5416 29.0105 24.5416 29.1074L24.5416 29.7606C24.5416 29.8552 24.465 29.9319 24.3704 29.9322C23.8066 29.9339 22.7817 29.937 21.8601 29.8314C21.3523 29.7732 20.8344 29.6781 20.4303 29.5115C20.0633 29.3602 19.5669 29.0512 19.5669 28.4603V28.4508V28.4412V28.4315V28.4218V28.4121V28.4023V28.3924V28.3825V28.3725V28.3625V28.3524V28.3422V28.332V28.3217V28.3114V28.301V28.2906V28.2801V28.2695V28.2589V28.2482V28.2375V28.2267V28.2159V28.205V28.1941V28.1831V28.172V28.1609V28.1497V28.1385V28.1273V28.1159V28.1046V28.0931V28.0817V28.0701V28.0585V28.0469V28.0352V28.0234V28.0117V27.9998V27.9879V27.9759V27.9639V27.9519V27.9398V27.9276V27.9154V27.9031V27.8908V27.8785V27.8661V27.8536V27.8411V27.8285V27.8159V27.8033V27.7906V27.7778V27.765V27.7521V27.7392V27.7263V27.7133V27.7002V27.6871V27.674V27.6608V27.6476V27.6343V27.621V27.6076V27.5942V27.5807V27.5672V27.5536V27.54V27.5264V27.5127V27.4989V27.4851V27.4713V27.4574V27.4435V27.4295V27.4155V27.4015V27.3874V27.3732V27.359V27.3448V27.3305V27.3162V27.3019V27.2875V27.273V27.2585V27.244V27.2294V27.2148V27.2002V27.1855V27.1708V27.156V27.1412V27.1263V27.1114V27.0965V27.0815V27.0665V27.0514V27.0363V27.0212V27.006V26.9908V26.9755V26.9602V26.9449V26.9295V26.9141V26.8987V26.8832V26.8677V26.8521V26.8365V26.8209V26.8052V26.7895V26.7737V26.758V26.7421V26.7263V26.7104V26.6945V26.6785V26.6625V26.6465V26.6304V26.6143V26.5982V26.582V26.5658V26.5495V26.5333V26.5169V26.5006V26.4842V26.4678V26.4514V26.4349V26.4184V26.4018V26.3853V26.3687V26.352V26.3354V26.3186V26.3019V26.2851V26.2683V26.2515V26.2347V26.2178V26.2008V26.1839V26.1669V26.1499V26.1329V26.1158V26.0987V26.0815V26.0644V26.0472V26.03V26.0127V25.9955V25.9782V25.9608V25.9435V25.9261V25.9087V25.8912V25.8737V25.8562V25.8387V25.8212V25.8036V25.786V25.7684V25.7507V25.733V25.7153V25.6976V25.6798V25.662V25.6442V25.6264V25.6085V25.5906V25.5727V25.5548V25.5368V25.5189V25.5009V25.4828V25.4648V25.4467V25.4286V25.4105V25.3923V25.3742V25.356V25.3378V25.3195V25.3013V25.283V25.2647V25.2464V25.2281V25.2097V25.1913V25.1729V25.1545V25.1361V25.1176V25.0991V25.0806V25.0621V25.0435V25.025V25.0064V24.9878V24.9692V24.9506V24.9319V24.9132V24.8946V24.8758V24.8571V24.8384V24.8196V24.8008V24.7821V24.7632V24.7444V24.7256V24.7067V24.6878V24.6689V24.65V24.6311V24.6122V24.5932V24.5743V24.5553V24.5363V24.5173V24.4982V24.4792V24.4602V24.4411V24.422V24.4029V24.3838V24.3647V24.3455V24.3264V24.3072V24.2881V24.2689V24.2497V24.2305V24.2113V24.192V24.1728V24.1535V24.1343V24.115V24.0957V24.0764V24.0571V24.0378V24.0185V23.9991V23.9798V23.9604V23.9411V23.9217V23.9023V23.8829V23.8635V23.8441V23.8247V23.8053V23.7858V23.7664V23.7469V23.7275V23.708V23.6886V23.6691V23.6496V23.6301V23.6106V23.5911V23.5716V23.5521V23.5326V23.513V23.4935V23.474V23.4544V23.4349V23.4153V23.3958V23.3762V23.3567V23.3371V23.3175V23.298V23.2784V23.2588V23.2392V23.2196V23.2001V23.1805V23.1609V23.1413V23.1217V23.1021V23.0825V23.0629V23.0433V23.0237V23.0041V22.9845V22.9649V22.9452V22.9256V22.906V22.8864V22.8668V22.8472V22.8276V22.808V22.7884V22.7688V22.7492V22.7296V22.71V22.6904V22.6708V22.6512V22.6316V22.612V22.5924V22.5729V22.5533V22.5337V22.5141V22.4946V22.475V22.4554V22.4359V22.4163V22.3968V22.3772V22.3577V22.3382V22.3186V22.2991V22.2796V22.2601V22.2406V22.2211V22.2016V22.1821V22.1626V22.1432V22.1237V22.1042V22.0848V22.0653V22.0459V22.0265V22.007V21.9876V21.9682V21.9488V21.9294V21.91V21.8907V21.8713V21.852V21.8326V21.8133V21.794V21.7747V21.7553V21.7361V21.7168V21.6975V21.6782V21.659V21.6398V21.6205V21.6013V21.5821V21.5629V21.5437V21.5246V21.5054V21.4863V21.4671V21.448V21.4289V21.4098V21.3908V21.3717V21.3526V21.3336V21.3146V21.2956V21.2766V21.2576V21.2386V21.2197V21.2008V21.1818V21.1629V21.1441V21.1252V21.1063V21.0875V21.0687V21.0499V21.0311V21.0123V20.9936V20.9748V20.9561V20.9374V20.9187V20.9001V20.8814V20.8628V20.8442V20.8256V20.807V20.7885V20.7699V20.7514V20.7329V20.7144V20.696V20.6776V20.6591V20.6407V20.6224V20.604V20.5857V20.5674V20.5491V20.5308V20.5126V20.4943V20.4761V20.458V20.4398V20.4217V20.4036V20.3855V20.3674V20.3494V20.3313V20.3133V20.2954V20.2774V20.2595V20.2416V20.2237C19.5669 20.2199 19.5638 20.2168 19.56 20.2168H16.625C16.625 20.2168 16.6249 20.2167 16.6249 20.2167V19.2168C16.6249 19.2167 16.625 19.2167 16.625 19.2167H19.56C19.5638 19.2167 19.5669 19.2136 19.5669 19.2097V19.1919V19.174V19.156V19.1381V19.1201V19.1021V19.0841V19.066V19.048V19.0299V19.0118V18.9936V18.9755V18.9573V18.9391V18.9209V18.9026V18.8843V18.866V18.8477V18.8294V18.811V18.7927V18.7743V18.7559V18.7374V18.719V18.7005V18.682V18.6635V18.6449V18.6264V18.6078V18.5892V18.5706V18.552V18.5333V18.5147V18.496V18.4773V18.4586V18.4398V18.4211V18.4023V18.3835V18.3647V18.3459V18.327V18.3082V18.2893V18.2704V18.2515V18.2326V18.2137V18.1947V18.1757V18.1568V18.1378V18.1188V18.0997V18.0807V18.0617V18.0426V18.0235V18.0044V17.9853V17.9662V17.9471V17.9279V17.9088V17.8896V17.8704V17.8512V17.832V17.8128V17.7936V17.7743V17.7551V17.7358V17.7165V17.6973V17.678V17.6587V17.6393V17.62V17.6007V17.5813V17.562V17.5426V17.5233V17.5039V17.4845V17.4651V17.4457V17.4263V17.4068V17.3874V17.368V17.3485V17.3291V17.3096V17.2901V17.2707V17.2512V17.2317V17.2122V17.1927V17.1732V17.1537V17.1341V17.1146V17.0951V17.0756V17.056V17.0365V17.0169V16.9974V16.9778V16.9582V16.9387V16.9191V16.8995V16.88V16.8604V16.8408V16.8212V16.8016V16.782V16.7624V16.7428V16.7232V16.7036V16.684V16.6644V16.6448V16.6252V16.6056V16.586V16.5664V16.5468V16.5272V16.5076V16.488V16.4684V16.4488V16.4291V16.4095V16.3899V16.3703V16.3507V16.3311V16.3115V16.2919V16.2723V16.2527V16.2331V16.2136V16.194V16.1744V16.1548V16.1352V16.1156V16.0961V16.0765V16.0569V16.0374V16.0178V15.9983V15.9787V15.9592V15.9397V15.9201V15.9006V15.8811V15.8616V15.842V15.8225V15.803V15.7836V15.7641V15.7446V15.7251V15.7057V15.6862V15.6668V15.6473V15.6279V15.6084V15.589V15.5696V15.5502V15.5308V15.5114V15.4921V15.4727V15.4533V15.434V15.4147V15.3953V15.376V15.3567V15.3374V15.3181V15.2988V15.2796V15.2603V15.2411V15.2218V15.2026V15.1834V15.1642V15.145V15.1259V15.1067V15.0875V15.0684V15.0493V15.0302V15.0111V14.992V14.9729V14.9539V14.9348V14.9158V14.8968V14.8778V14.8588V14.8398V14.8209V14.802V14.783V14.7641V14.7452V14.7264V14.7075V14.6886V14.6698V14.651V14.6322V14.6134V14.5947V14.5759V14.5572V14.5385V14.5198V14.5011V14.4825V14.4638V14.4452V14.4266V14.4081V14.3895V14.3709V14.3524V14.3339V14.3154V14.297V14.2785V14.2601V14.2417V14.2233V14.205V14.1866V14.1683V14.15V14.1317V14.1135V14.0952V14.077V14.0588V14.0407V14.0225V14.0044V13.9863V13.9682V13.9502V13.9321V13.9141V13.8962V13.8782V13.8603V13.8424V13.8245V13.8066V13.7888V13.771V13.7532V13.7354V13.7177V13.7V13.6823V13.6646V13.647V13.6294V13.6118V13.5943V13.5767V13.5592V13.5418V13.5243V13.5069V13.4895V13.4721V13.4548V13.4375V13.4202V13.403V13.3858V13.3686V13.3514V13.3343V13.3172V13.3001V13.283V13.266V13.249V13.2321V13.2152V13.1983V13.1814V13.1646V13.1478V13.131V13.1143V13.0976V13.0809V13.0643V13.0477V13.0311V13.0145V12.998V12.9815V12.9651V12.9487V12.9323V12.916V12.8997V12.8834V12.8671V12.8509V12.8347V12.8186V12.8025V12.7864V12.7704V12.7544V12.7384V12.7225V12.7066V12.6908V12.6749V12.6592V12.6434V12.6277V12.612V12.5964V12.5808V12.5652V12.5497V12.5342V12.5188V12.5033V12.488V12.4726V12.4573V12.4421V12.4269V12.4117V12.3966V12.3815V12.3664V12.3514V12.3364V12.3215V12.3066V12.2917V12.2769V12.2621V12.2474V12.2327V12.218V12.2034V12.1888V12.1743V12.1598V12.1454V12.131V12.1166V12.1023V12.088V12.0738V12.0596V12.0455V12.0314V12.0173V12.0033V11.9893V11.9754V11.9615V11.9477V11.9339V11.9202V11.9065V11.8928V11.8792V11.8656V11.8521V11.8387V11.8252V11.8118V11.7985V11.7852V11.772V11.7588V11.7457V11.7326V11.7195V11.7065V11.6936V11.6807V11.6678V11.655V11.6422V11.6295V11.6169V11.6043V11.5917V11.5792V11.5667V11.5543V11.542V11.5296V11.5174V11.5052V11.493V11.4809V11.4689V11.4568V11.4449V11.433V11.4211V11.4093V11.3976V11.3859V11.3743V11.3627V11.3511V11.3396V11.3282V11.3168V11.3055V11.2942V11.283V11.2719V11.2608V11.2497V11.2387V11.2278V11.2169V11.206V11.1953V11.1845V11.1739V11.1633V11.1527V11.1422V11.1318V11.1214V11.111V11.1008V11.0906V11.0804V11.0703V11.0603V11.0503V11.0403V11.0305V11.0207V11.0109V11.0012V10.9916V10.982V10.9725C19.5669 10.3815 20.0632 10.0725 20.4303 9.92118C20.8344 9.75461 21.3523 9.65944 21.8601 9.60127C22.7817 9.4957 23.8066 9.49879 24.3704 9.50049L24.3704 9.50049C24.465 9.50078 24.5416 9.57748 24.5416 9.67201L24.5416 10.3253C24.5416 10.4222 24.4629 10.5007 24.366 10.5005C23.7964 10.499 22.8324 10.4964 21.9739 10.5948C21.4921 10.65 21.085 10.7329 20.8114 10.8457ZM20.5611 11.0016C20.56 11.0014 20.5623 11.0018 20.5611 11.0016V11.0016ZM20.5611 28.4311C20.56 28.4313 20.5623 28.4309 20.5611 28.4311V28.4311Z" fill="white" fill-opacity="0.1"/>
</g>
<defs>
<filter id="filter0_bii_2077_18962" x="-1.73747" y="13.0342" width="20.3704" height="20.4883" filterUnits="userSpaceOnUse" color-interpolation-filters="sRGB">
<feFlood flood-opacity="0" result="BackgroundImageFix"/>
<feGaussianBlur in="BackgroundImageFix" stdDeviation="2"/>
<feComposite in2="SourceAlpha" operator="in" result="effect1_backgroundBlur_2077_18962"/>
<feBlend mode="normal" in="SourceGraphic" in2="effect1_backgroundBlur_2077_18962" result="shape"/>
<feColorMatrix in="SourceAlpha" type="matrix" values="0 0 0 0 0 0 0 0 0 0 0 0 0 0 0 0 0 0 127 0" result="hardAlpha"/>
<feOffset dy="0.666667"/>
<feGaussianBlur stdDeviation="1.33333"/>
<feComposite in2="hardAlpha" operator="arithmetic" k2="-1" k3="1"/>
<feColorMatrix type="matrix" values="0 0 0 0 1 0 0 0 0 1 0 0 0 0 1 0 0 0 0.15 0"/>
<feBlend mode="normal" in2="shape" result="effect2_innerShadow_2077_18962"/>
<feColorMatrix in="SourceAlpha" type="matrix" values="0 0 0 0 0 0 0 0 0 0 0 0 0 0 0 0 0 0 127 0" result="hardAlpha"/>
<feOffset dy="-4"/>
<feGaussianBlur stdDeviation="3"/>
<feComposite in2="hardAlpha" operator="arithmetic" k2="-1" k3="1"/>
<feColorMatrix type="matrix" values="0 0 0 0 1 0 0 0 0 1 0 0 0 0 1 0 0 0 0.15 0"/>
<feBlend mode="normal" in2="effect2_innerShadow_2077_18962" result="effect3_innerShadow_2077_18962"/>
</filter>
<filter id="filter1_bi_2077_18962" x="2.54166" y="10.958" width="17.0833" height="17.0835" filterUnits="userSpaceOnUse" color-interpolation-filters="sRGB">
<feFlood flood-opacity="0" result="BackgroundImageFix"/>
<feGaussianBlur in="BackgroundImageFix" stdDeviation="1.5"/>
<feComposite in2="SourceAlpha" operator="in" result="effect1_backgroundBlur_2077_18962"/>
<feBlend mode="normal" in="SourceGraphic" in2="effect1_backgroundBlur_2077_18962" result="shape"/>
<feColorMatrix in="SourceAlpha" type="matrix" values="0 0 0 0 0 0 0 0 0 0 0 0 0 0 0 0 0 0 127 0" result="hardAlpha"/>
<feOffset dy="0.5"/>
<feGaussianBlur stdDeviation="1"/>
<feComposite in2="hardAlpha" operator="arithmetic" k2="-1" k3="1"/>
<feColorMatrix type="matrix" values="0 0 0 0 1 0 0 0 0 1 0 0 0 0 1 0 0 0 0.15 0"/>
<feBlend mode="normal" in2="shape" result="effect2_innerShadow_2077_18962"/>
</filter>
<filter id="filter2_bi_2077_18962" x="21.5417" y="3.0415" width="13.9167" height="13.9165" filterUnits="userSpaceOnUse" color-interpolation-filters="sRGB">
<feFlood flood-opacity="0" result="BackgroundImageFix"/>
<feGaussianBlur in="BackgroundImageFix" stdDeviation="1.5"/>
<feComposite in2="SourceAlpha" operator="in" result="effect1_backgroundBlur_2077_18962"/>
<feBlend mode="normal" in="SourceGraphic" in2="effect1_backgroundBlur_2077_18962" result="shape"/>
<feColorMatrix in="SourceAlpha" type="matrix" values="0 0 0 0 0 0 0 0 0 0 0 0 0 0 0 0 0 0 127 0" result="hardAlpha"/>
<feOffset dy="0.5"/>
<feGaussianBlur stdDeviation="1"/>
<feComposite in2="hardAlpha" operator="arithmetic" k2="-1" k3="1"/>
<feColorMatrix type="matrix" values="0 0 0 0 1 0 0 0 0 1 0 0 0 0 1 0 0 0 0.15 0"/>
<feBlend mode="normal" in2="shape" result="effect2_innerShadow_2077_18962"/>
</filter>
<filter id="filter3_bi_2077_18962" x="21.5417" y="22.0415" width="13.9167" height="13.9165" filterUnits="userSpaceOnUse" color-interpolation-filters="sRGB">
<feFlood flood-opacity="0" result="BackgroundImageFix"/>
<feGaussianBlur in="BackgroundImageFix" stdDeviation="1.5"/>
<feComposite in2="SourceAlpha" operator="in" result="effect1_backgroundBlur_2077_18962"/>
<feBlend mode="normal" in="SourceGraphic" in2="effect1_backgroundBlur_2077_18962" result="shape"/>
<feColorMatrix in="SourceAlpha" type="matrix" values="0 0 0 0 0 0 0 0 0 0 0 0 0 0 0 0 0 0 127 0" result="hardAlpha"/>
<feOffset dy="0.5"/>
<feGaussianBlur stdDeviation="1"/>
<feComposite in2="hardAlpha" operator="arithmetic" k2="-1" k3="1"/>
<feColorMatrix type="matrix" values="0 0 0 0 1 0 0 0 0 1 0 0 0 0 1 0 0 0 0.15 0"/>
<feBlend mode="normal" in2="shape" result="effect2_innerShadow_2077_18962"/>
</filter>
<filter id="filter4_i_2077_18962" x="16.6249" y="9.5" width="7.91666" height="21.0993" filterUnits="userSpaceOnUse" color-interpolation-filters="sRGB">
<feFlood flood-opacity="0" result="BackgroundImageFix"/>
<feBlend mode="normal" in="SourceGraphic" in2="BackgroundImageFix" result="shape"/>
<feColorMatrix in="SourceAlpha" type="matrix" values="0 0 0 0 0 0 0 0 0 0 0 0 0 0 0 0 0 0 127 0" result="hardAlpha"/>
<feOffset dy="0.666667"/>
<feGaussianBlur stdDeviation="0.333333"/>
<feComposite in2="hardAlpha" operator="arithmetic" k2="-1" k3="1"/>
<feColorMatrix type="matrix" values="0 0 0 0 1 0 0 0 0 1 0 0 0 0 1 0 0 0 0.5 0"/>
<feBlend mode="normal" in2="shape" result="effect1_innerShadow_2077_18962"/>
</filter>
<linearGradient id="paint0_linear_2077_18962" x1="0" y1="0" x2="14.6128" y2="3.69288" gradientUnits="userSpaceOnUse">
<stop stop-color="white"/>
<stop offset="1" stop-color="#4470FF"/>
</linearGradient>
<linearGradient id="paint1_linear_2077_18962" x1="0.615826" y1="21.2896" x2="11.0414" y2="15.3273" gradientUnits="userSpaceOnUse">
<stop stop-color="#FFC282"/>
<stop offset="1" stop-color="#FF4980"/>
</linearGradient>
<linearGradient id="paint2_linear_2077_18962" x1="5.54166" y1="13.958" x2="18.5975" y2="17.2731" gradientUnits="userSpaceOnUse">
<stop stop-color="#62BDFF"/>
<stop offset="1" stop-color="#3864FF"/>
</linearGradient>
<linearGradient id="paint3_linear_2077_18962" x1="5.88802" y1="14.4618" x2="16.625" y2="14.4618" gradientUnits="userSpaceOnUse">
<stop stop-color="#7EE5FF"/>
<stop offset="1" stop-color="#41A9FF"/>
</linearGradient>
<linearGradient id="paint4_linear_2077_18962" x1="24.5417" y1="6.0415" x2="33.8673" y2="8.40945" gradientUnits="userSpaceOnUse">
<stop stop-color="#62BDFF"/>
<stop offset="1" stop-color="#3864FF"/>
</linearGradient>
<linearGradient id="paint5_linear_2077_18962" x1="24.7891" y1="6.40135" x2="32.4583" y2="6.40135" gradientUnits="userSpaceOnUse">
<stop stop-color="#7EE5FF"/>
<stop offset="1" stop-color="#41A9FF"/>
</linearGradient>
<linearGradient id="paint6_linear_2077_18962" x1="24.5417" y1="25.0415" x2="33.8673" y2="27.4094" gradientUnits="userSpaceOnUse">
<stop stop-color="#62BDFF"/>
<stop offset="1" stop-color="#3864FF"/>
</linearGradient>
<linearGradient id="paint7_linear_2077_18962" x1="24.7891" y1="25.4014" x2="32.4583" y2="25.4014" gradientUnits="userSpaceOnUse">
<stop stop-color="#7EE5FF"/>
<stop offset="1" stop-color="#41A9FF"/>
</linearGradient>
</defs>
</svg>
