<svg width="38" height="39" viewBox="0 0 38 39" fill="none" xmlns="http://www.w3.org/2000/svg">
<g clip-path="url(#clip0_2077_18989)">
<g filter="url(#filter0_bii_2077_18989)">
<ellipse rx="6.19897" ry="6.22847" transform="matrix(0.863957 -0.503565 0.496444 0.868069 9.44773 8.52832)" fill="#1D1D1D" fill-opacity="0.05"/>
<ellipse rx="6.19897" ry="6.22847" transform="matrix(0.863957 -0.503565 0.496444 0.868069 9.44773 8.52832)" fill="url(#paint0_linear_2077_18989)" fill-opacity="0.2"/>
<path d="M14.6882 5.47388C16.3596 8.39654 15.3673 12.1327 12.4736 13.8193C9.57991 15.5059 5.87873 14.5054 4.20728 11.5828C2.53583 8.66011 3.52813 4.92394 6.42184 3.23732C9.31554 1.5507 13.0167 2.55122 14.6882 5.47388Z" stroke="url(#paint1_linear_2077_18989)" stroke-opacity="0.1" stroke-width="0.266667"/>
</g>
<path fill-rule="evenodd" clip-rule="evenodd" d="M8 7.5C8 6.94772 8.44772 6.5 9 6.5H28C28.5523 6.5 29 6.94772 29 7.5V8.14336C29 8.69514 28.5531 9.14254 28.0015 9.14336V10.1993V10.4499L27.8833 10.6709L23.3085 19.2249L27.8784 27.5613L28.0015 27.7858V28.0419V29.1713C28.5531 29.1721 29 29.6195 29 30.1713V30.8147C29 31.367 28.5523 31.8147 28 31.8147H9C8.44772 31.8147 8 31.367 8 30.8147V30.1713C8 29.619 8.44772 29.1713 9 29.1713H9.20282V29.1682V29.1623V29.1564V29.1505V29.1446V29.1387V29.1328V29.1269V29.121V29.1151V29.1092V29.1033V29.0974V29.0915V29.0856V29.0797V29.0738V29.0679V29.062V29.0561V29.0502V29.0443V29.0384V29.0325V29.0266V29.0207V29.0149V29.009V29.0031V28.9972V28.9914V28.9855V28.9796V28.9738V28.9679V28.9621V28.9562V28.9504V28.9445V28.9387V28.9329V28.9271V28.9212V28.9154V28.9096V28.9038V28.898V28.8922V28.8864V28.8807V28.8749V28.8691V28.8634V28.8576V28.8519V28.8462V28.8404V28.8347V28.829V28.8233V28.8176V28.8119V28.8062V28.8005V28.7949V28.7892V28.7836V28.7779V28.7723V28.7667V28.7611V28.7555V28.7499V28.7443V28.7387V28.7332V28.7276V28.7221V28.7166V28.7111V28.7056V28.7001V28.6946V28.6891V28.6837V28.6782V28.6728V28.6674V28.6619V28.6565V28.6512V28.6458V28.6404V28.6351V28.6298V28.6244V28.6191V28.6138V28.6086V28.6033V28.5981V28.5928V28.5876V28.5824V28.5772V28.572V28.5669V28.5617V28.5566V28.5515V28.5464V28.5413V28.5362V28.5312V28.5262V28.5211V28.5161V28.5112V28.5062V28.5013V28.4963V28.4914V28.4865V28.4816V28.4768V28.472V28.4671V28.4623V28.4575V28.4528V28.448V28.4433V28.4386V28.4339V28.4292V28.4246V28.42V28.4154V28.4108V28.4062V28.4017V28.3971V28.3926V28.3881V28.3837V28.3792V28.3748V28.3704V28.366V28.3617V28.3573V28.353V28.3488V28.3445V28.3402V28.336V28.3318V28.3277V28.3235V28.3194V28.3153V28.3112V28.3071V28.3031V28.2991V28.2951V28.2912V28.2872V28.2833V28.2795V28.2756V28.2718V28.268V28.2642V28.2604V28.2567V28.253V28.2493V28.2457V28.2421V28.2385V28.2349V28.2314V28.2279V28.2244V28.2209V28.2175V28.2141V28.2107V28.2074V28.2041V28.2008V28.1975V28.1943V28.1911V28.1879V28.1848V28.1816V28.1786V28.1755V28.1725V28.1695V28.1665V28.1636V28.1607V28.1578V28.155V28.1522V28.1494V28.1467V28.144V28.1413V28.1386V28.136V28.1334V28.1309V28.1283V28.1259V28.1234V28.121V28.1186V28.1162V28.1139V28.1116V28.1094V28.1072V28.105V28.1028V28.1007V28.0986V28.0966V28.0946V28.0926V28.0906V28.0887V28.0869V28.085V28.0832V28.0815V28.0797V28.078V28.0764V28.0748V28.0732V28.0717V28.0701V28.0687V28.0672V28.0658V28.0645V28.0632V28.0619V28.0606V28.0594V28.0583V28.0572V28.0561V28.055V28.054V28.053V28.0521V28.0512V28.0504V28.0496V28.0488V28.0481V28.0474V28.0467V28.0461V28.0455V28.045V28.0445V28.0441V28.0437V28.0433V28.043V28.0427V28.0425V28.0423V28.0421V28.042V28.0419V27.8149L9.30086 27.6101L10.2028 28.0419C9.30086 27.6101 9.30088 27.6101 9.30092 27.61L9.30104 27.6098L9.30149 27.6088L9.30322 27.6052L9.30991 27.5912L9.33593 27.5371L9.43552 27.3302C9.52195 27.1511 9.64697 26.8927 9.80169 26.575C10.1111 25.9397 10.5395 25.0666 11.0159 24.1156C11.8515 22.447 12.852 20.5026 13.6151 19.1905L9.30985 10.6494L9.20282 10.4371V10.1993V9.14336H9C8.44772 9.14336 8 8.69564 8 8.14336V7.5ZM11.2028 9.14336V9.96151L15.6482 18.7806L15.8993 19.2786L15.6075 19.7539C14.875 20.9473 13.7554 23.1117 12.8041 25.0112C12.332 25.9539 11.9069 26.8201 11.5998 27.4507C11.4463 27.7659 11.3223 28.0221 11.2369 28.1992L11.2028 28.2699V28.2718V28.2756V28.2795V28.2833V28.2872V28.2912V28.2951V28.2991V28.3031V28.3071V28.3112V28.3153V28.3194V28.3235V28.3277V28.3318V28.336V28.3402V28.3445V28.3488V28.353V28.3573V28.3617V28.366V28.3704V28.3748V28.3792V28.3837V28.3881V28.3926V28.3971V28.4017V28.4062V28.4108V28.4154V28.42V28.4246V28.4292V28.4339V28.4386V28.4433V28.448V28.4528V28.4575V28.4623V28.4671V28.472V28.4768V28.4816V28.4865V28.4914V28.4963V28.5013V28.5062V28.5112V28.5161V28.5211V28.5262V28.5312V28.5362V28.5413V28.5464V28.5515V28.5566V28.5617V28.5669V28.572V28.5772V28.5824V28.5876V28.5928V28.5981V28.6033V28.6086V28.6138V28.6191V28.6244V28.6298V28.6351V28.6404V28.6458V28.6512V28.6565V28.6619V28.6674V28.6728V28.6782V28.6837V28.6891V28.6946V28.7001V28.7056V28.7111V28.7166V28.7221V28.7276V28.7332V28.7387V28.7443V28.7499V28.7555V28.7611V28.7667V28.7723V28.7779V28.7836V28.7892V28.7949V28.8005V28.8062V28.8119V28.8176V28.8233V28.829V28.8347V28.8404V28.8462V28.8519V28.8576V28.8634V28.8691V28.8749V28.8807V28.8864V28.8922V28.898V28.9038V28.9096V28.9154V28.9212V28.9271V28.9329V28.9387V28.9445V28.9504V28.9562V28.9621V28.9679V28.9738V28.9796V28.9855V28.9914V28.9972V29.0031V29.009V29.0149V29.0207V29.0266V29.0325V29.0384V29.0443V29.0502V29.0561V29.062V29.0679V29.0738V29.0797V29.0856V29.0915V29.0974V29.1033V29.1092V29.1151V29.121V29.1269V29.1328V29.1387V29.1446V29.1505V29.1564V29.1623V29.1682V29.1713H26.0015V28.2981L21.2945 19.7115L21.0342 19.2366L21.2895 18.7592L26.0015 9.94868V9.14335L11.2028 9.14336Z" fill="url(#paint2_linear_2077_18989)"/>
<path d="M17.3661 19.3331C17.8873 18.4905 19.1127 18.4905 19.6339 19.3331L23.7365 25.9652C24.286 26.8535 23.6471 28 22.6026 28H14.3974C13.3529 28 12.714 26.8535 13.2635 25.9652L17.3661 19.3331Z" fill="url(#paint3_linear_2077_18989)"/>
<g filter="url(#filter1_i_2077_18989)">
<path d="M17.3453 22C17.8585 21.1111 19.1415 21.1111 19.6547 22L21.2424 24.75C21.7556 25.6389 21.1141 26.75 20.0877 26.75H16.9123C15.8859 26.75 15.2444 25.6389 15.7576 24.75L17.3453 22Z" fill="white" fill-opacity="0.1"/>
</g>
</g>
<defs>
<filter id="filter0_bii_2077_18989" x="-0.737457" y="-1.71582" width="20.3704" height="20.4883" filterUnits="userSpaceOnUse" color-interpolation-filters="sRGB">
<feFlood flood-opacity="0" result="BackgroundImageFix"/>
<feGaussianBlur in="BackgroundImageFix" stdDeviation="2"/>
<feComposite in2="SourceAlpha" operator="in" result="effect1_backgroundBlur_2077_18989"/>
<feBlend mode="normal" in="SourceGraphic" in2="effect1_backgroundBlur_2077_18989" result="shape"/>
<feColorMatrix in="SourceAlpha" type="matrix" values="0 0 0 0 0 0 0 0 0 0 0 0 0 0 0 0 0 0 127 0" result="hardAlpha"/>
<feOffset dy="0.666667"/>
<feGaussianBlur stdDeviation="1.33333"/>
<feComposite in2="hardAlpha" operator="arithmetic" k2="-1" k3="1"/>
<feColorMatrix type="matrix" values="0 0 0 0 1 0 0 0 0 1 0 0 0 0 1 0 0 0 0.15 0"/>
<feBlend mode="normal" in2="shape" result="effect2_innerShadow_2077_18989"/>
<feColorMatrix in="SourceAlpha" type="matrix" values="0 0 0 0 0 0 0 0 0 0 0 0 0 0 0 0 0 0 127 0" result="hardAlpha"/>
<feOffset dy="-4"/>
<feGaussianBlur stdDeviation="3"/>
<feComposite in2="hardAlpha" operator="arithmetic" k2="-1" k3="1"/>
<feColorMatrix type="matrix" values="0 0 0 0 1 0 0 0 0 1 0 0 0 0 1 0 0 0 0.15 0"/>
<feBlend mode="normal" in2="effect2_innerShadow_2077_18989" result="effect3_innerShadow_2077_18989"/>
</filter>
<filter id="filter1_i_2077_18989" x="15.577" y="21.3335" width="5.84607" height="6.08317" filterUnits="userSpaceOnUse" color-interpolation-filters="sRGB">
<feFlood flood-opacity="0" result="BackgroundImageFix"/>
<feBlend mode="normal" in="SourceGraphic" in2="BackgroundImageFix" result="shape"/>
<feColorMatrix in="SourceAlpha" type="matrix" values="0 0 0 0 0 0 0 0 0 0 0 0 0 0 0 0 0 0 127 0" result="hardAlpha"/>
<feOffset dy="0.666667"/>
<feGaussianBlur stdDeviation="0.333333"/>
<feComposite in2="hardAlpha" operator="arithmetic" k2="-1" k3="1"/>
<feColorMatrix type="matrix" values="0 0 0 0 1 0 0 0 0 1 0 0 0 0 1 0 0 0 0.5 0"/>
<feBlend mode="normal" in2="shape" result="effect1_innerShadow_2077_18989"/>
</filter>
<linearGradient id="paint0_linear_2077_18989" x1="0" y1="0" x2="14.6128" y2="3.69288" gradientUnits="userSpaceOnUse">
<stop stop-color="white"/>
<stop offset="1" stop-color="#4470FF"/>
</linearGradient>
<linearGradient id="paint1_linear_2077_18989" x1="1.61583" y1="6.53959" x2="12.0414" y2="0.577253" gradientUnits="userSpaceOnUse">
<stop stop-color="#FFC282"/>
<stop offset="1" stop-color="#FF4980"/>
</linearGradient>
<linearGradient id="paint2_linear_2077_18989" x1="8" y1="17.7445" x2="28.7705" y2="17.7442" gradientUnits="userSpaceOnUse">
<stop stop-color="#62BDFF"/>
<stop offset="1" stop-color="#3864FF"/>
</linearGradient>
<linearGradient id="paint3_linear_2077_18989" x1="11" y1="23.7187" x2="25.8361" y2="23.7183" gradientUnits="userSpaceOnUse">
<stop stop-color="#62BDFF"/>
<stop offset="1" stop-color="#3864FF"/>
</linearGradient>
<clipPath id="clip0_2077_18989">
<rect width="38" height="38" fill="white" transform="translate(0 0.5)"/>
</clipPath>
</defs>
</svg>
