<svg width="20" height="20" viewBox="0 0 20 20" fill="none" xmlns="http://www.w3.org/2000/svg">
<path d="M11.7247 3.20014C12.1218 2.72756 12.7643 2.61837 13.2438 2.90953C13.7256 3.20214 14.214 3.52584 14.5589 3.81561C14.8959 4.09881 15.2805 4.50478 15.6343 4.91088C15.9975 5.32769 15.9998 5.97214 15.6047 6.44231L7.17323 16.4771C6.83786 16.8762 6.38551 17.1436 5.88985 17.2301C5.27502 17.3374 4.49536 17.4597 3.83547 17.5211C3.50322 17.552 3.22192 17.5654 3.01545 17.5579C2.99749 17.5573 2.98068 17.5565 2.96498 17.5556C2.96139 17.5403 2.95771 17.5238 2.95397 17.5062C2.91103 17.3042 2.87576 17.0247 2.84894 16.6921C2.79567 16.0316 2.78178 15.2425 2.78152 14.6184C2.78131 14.1152 2.96667 13.6236 3.30204 13.2244L11.7247 3.20014ZM2.79398 17.5338C2.79415 17.5337 2.79727 17.5345 2.80282 17.5364C2.79658 17.5349 2.7938 17.5339 2.79398 17.5338ZM3.01181 17.712C3.01468 17.7171 3.01597 17.7201 3.01589 17.7203C3.01581 17.7204 3.01438 17.7179 3.01181 17.712Z" stroke="#4470FF" stroke-width="1.4"/>
<path d="M10.3486 5C10.3486 5 11.214 6.32854 11.9946 6.84249C12.7752 7.35645 13.7501 7.91667 13.7501 7.91667" stroke="#4470FF" stroke-width="1.4" stroke-linecap="round"/>
<line x1="12.3665" y1="17.6333" x2="17.6332" y2="17.6333" stroke="#4470FF" stroke-width="1.4" stroke-linecap="round"/>
</svg>
