<svg width="30" height="30" viewBox="0 0 30 30" fill="none" xmlns="http://www.w3.org/2000/svg">
<g filter="url(#filter0_bii_2702_10930)">
<path d="M14.4203 5.49474C14.4203 5.86984 14.7244 6.17392 15.0995 6.17392C15.7046 6.17392 16.0076 6.90548 15.5797 7.33334L14.2651 8.64799C14.1357 8.77741 14.0709 8.84212 13.9984 8.89271C13.8797 8.9755 13.7444 9.03154 13.6019 9.05695C13.5148 9.07247 13.4233 9.07247 13.2403 9.07247H9.72006C9.25218 9.07247 9.01824 9.07247 8.81432 9.16953C8.61039 9.26659 8.46287 9.44816 8.16783 9.81128L5.71103 12.835C5.65973 12.8982 5.63408 12.9298 5.61444 12.9576C5.31786 13.3782 5.38889 13.9551 5.77862 14.2912C5.80442 14.3135 5.83696 14.3379 5.90205 14.3867C5.96291 14.4323 5.99335 14.4552 6.02054 14.4729C6.42962 14.7401 6.97186 14.6725 7.30288 14.3132C7.32489 14.2893 7.34879 14.2597 7.3966 14.2005L9.18224 11.9897C9.47729 11.6244 9.62481 11.4418 9.82928 11.3441C10.0338 11.2464 10.2685 11.2464 10.7381 11.2464H14.1347C14.4363 11.2464 14.587 11.2464 14.7271 11.2046C14.7926 11.185 14.8559 11.1588 14.916 11.1263C15.0446 11.0568 15.1512 10.9502 15.3645 10.737L17.1015 9.00001C17.5561 8.54541 18.3333 8.86737 18.3333 9.51027C18.3333 9.90881 18.6564 10.2319 19.055 10.2319H19.4203C19.5011 10.2319 19.5414 10.2319 19.5755 10.2296C20.074 10.1955 20.4708 9.79864 20.5049 9.30014C20.5073 9.26605 20.5073 9.22568 20.5073 9.14493V6C20.5073 5.05719 20.5073 4.58579 20.2144 4.29289C19.9215 4 19.4501 4 18.5073 4H15.5073C15.4265 4 15.3861 4 15.3521 4.00233C14.8536 4.03643 14.4567 4.43326 14.4226 4.93176C14.4203 4.96584 14.4203 5.00621 14.4203 5.08696V5.49474Z" fill="#1D1D1D" fill-opacity="0.05"/>
<path d="M14.4203 5.49474C14.4203 5.86984 14.7244 6.17392 15.0995 6.17392C15.7046 6.17392 16.0076 6.90548 15.5797 7.33334L14.2651 8.64799C14.1357 8.77741 14.0709 8.84212 13.9984 8.89271C13.8797 8.9755 13.7444 9.03154 13.6019 9.05695C13.5148 9.07247 13.4233 9.07247 13.2403 9.07247H9.72006C9.25218 9.07247 9.01824 9.07247 8.81432 9.16953C8.61039 9.26659 8.46287 9.44816 8.16783 9.81128L5.71103 12.835C5.65973 12.8982 5.63408 12.9298 5.61444 12.9576C5.31786 13.3782 5.38889 13.9551 5.77862 14.2912C5.80442 14.3135 5.83696 14.3379 5.90205 14.3867C5.96291 14.4323 5.99335 14.4552 6.02054 14.4729C6.42962 14.7401 6.97186 14.6725 7.30288 14.3132C7.32489 14.2893 7.34879 14.2597 7.3966 14.2005L9.18224 11.9897C9.47729 11.6244 9.62481 11.4418 9.82928 11.3441C10.0338 11.2464 10.2685 11.2464 10.7381 11.2464H14.1347C14.4363 11.2464 14.587 11.2464 14.7271 11.2046C14.7926 11.185 14.8559 11.1588 14.916 11.1263C15.0446 11.0568 15.1512 10.9502 15.3645 10.737L17.1015 9.00001C17.5561 8.54541 18.3333 8.86737 18.3333 9.51027C18.3333 9.90881 18.6564 10.2319 19.055 10.2319H19.4203C19.5011 10.2319 19.5414 10.2319 19.5755 10.2296C20.074 10.1955 20.4708 9.79864 20.5049 9.30014C20.5073 9.26605 20.5073 9.22568 20.5073 9.14493V6C20.5073 5.05719 20.5073 4.58579 20.2144 4.29289C19.9215 4 19.4501 4 18.5073 4H15.5073C15.4265 4 15.3861 4 15.3521 4.00233C14.8536 4.03643 14.4567 4.43326 14.4226 4.93176C14.4203 4.96584 14.4203 5.00621 14.4203 5.08696V5.49474Z" fill="url(#paint0_linear_2702_10930)" fill-opacity="0.2"/>
<path d="M5.98205 14.28L5.90205 14.3867L5.98205 14.28C5.91518 14.2299 5.88718 14.2088 5.86569 14.1902C5.52793 13.899 5.46637 13.3989 5.72341 13.0344C5.73976 13.0113 5.76181 12.984 5.81451 12.9191L8.27132 9.89536C8.57435 9.5224 8.70126 9.37101 8.87162 9.28992C9.04199 9.20883 9.23951 9.2058 9.72006 9.2058H13.2403L13.2538 9.2058C13.424 9.20582 13.5265 9.20582 13.6253 9.18821C13.7868 9.15942 13.9401 9.09591 14.0747 9.00207C14.157 8.94467 14.2295 8.87217 14.3498 8.75184L14.3594 8.74227L15.674 7.42762C16.1859 6.91577 15.8233 6.04058 15.0995 6.04058C14.798 6.04058 14.5536 5.7962 14.5536 5.49474V5.08696C14.5536 5.00401 14.5537 4.96925 14.5557 4.94086C14.5852 4.50882 14.9291 4.16491 15.3612 4.13535C15.3895 4.13341 15.4243 4.13333 15.5073 4.13333H18.5073C18.9824 4.13333 19.3254 4.13362 19.5868 4.16876C19.8443 4.20338 20.0025 4.26963 20.1201 4.38717C20.2376 4.50472 20.3039 4.66297 20.3385 4.92049C20.3736 5.18186 20.3739 5.52483 20.3739 6V9.14493C20.3739 9.22788 20.3739 9.26264 20.3719 9.29103C20.3424 9.72307 19.9984 10.067 19.5664 10.0965C19.538 10.0985 19.5033 10.0986 19.4203 10.0986H19.055C18.7301 10.0986 18.4667 9.83517 18.4667 9.51027C18.4667 8.74859 17.5458 8.36713 17.0072 8.90573L15.2702 10.6427C15.0514 10.8615 14.9601 10.9509 14.8527 11.009C14.8005 11.0371 14.7457 11.0598 14.6889 11.0768C14.5719 11.1118 14.4441 11.1131 14.1347 11.1131H10.7381C10.7264 11.1131 10.7147 11.113 10.7032 11.113C10.2673 11.113 10.0038 11.1129 9.77181 11.2238C9.53981 11.3346 9.37426 11.5396 9.10042 11.8788C9.0932 11.8877 9.08589 11.8968 9.07851 11.9059L7.29287 14.1167C7.24376 14.1775 7.22315 14.2029 7.20481 14.2228L7.30288 14.3132L7.20481 14.2228C6.91793 14.5343 6.44798 14.5928 6.09345 14.3613C6.07079 14.3465 6.04457 14.3269 5.98205 14.28Z" stroke="url(#paint1_linear_2702_10930)" stroke-opacity="0.1" stroke-width="0.266667"/>
</g>
<g filter="url(#filter1_bi_2702_10930)">
<path d="M13.9998 14.4348H12.6665C12.1951 14.4348 11.9594 14.4348 11.813 14.5813C11.6665 14.7277 11.6665 14.9634 11.6665 15.4348V24.1595C11.6665 24.6309 11.6665 24.8666 11.813 25.013C11.9594 25.1595 12.1951 25.1595 12.6665 25.1595H13.9998C14.4712 25.1595 14.7069 25.1595 14.8534 25.013C14.9998 24.8666 14.9998 24.6309 14.9998 24.1595V15.4348C14.9998 14.9634 14.9998 14.7277 14.8534 14.5813C14.7069 14.4348 14.4712 14.4348 13.9998 14.4348Z" fill="#F1F1F1" fill-opacity="0.1"/>
<path d="M13.9998 14.4348H12.6665C12.1951 14.4348 11.9594 14.4348 11.813 14.5813C11.6665 14.7277 11.6665 14.9634 11.6665 15.4348V24.1595C11.6665 24.6309 11.6665 24.8666 11.813 25.013C11.9594 25.1595 12.1951 25.1595 12.6665 25.1595H13.9998C14.4712 25.1595 14.7069 25.1595 14.8534 25.013C14.9998 24.8666 14.9998 24.6309 14.9998 24.1595V15.4348C14.9998 14.9634 14.9998 14.7277 14.8534 14.5813C14.7069 14.4348 14.4712 14.4348 13.9998 14.4348Z" fill="url(#paint2_linear_2702_10930)"/>
<path d="M12.6665 14.5348H13.9998C14.2384 14.5348 14.4072 14.535 14.5352 14.5522C14.6602 14.569 14.7311 14.6004 14.7827 14.652C14.8342 14.7035 14.8656 14.7744 14.8824 14.8995C14.8996 15.0274 14.8998 15.1963 14.8998 15.4348V24.1595C14.8998 24.398 14.8996 24.5668 14.8824 24.6948C14.8656 24.8198 14.8342 24.8908 14.7827 24.9423C14.7311 24.9939 14.6602 25.0252 14.5352 25.0421C14.4072 25.0593 14.2384 25.0595 13.9998 25.0595H12.6665C12.428 25.0595 12.2591 25.0593 12.1312 25.0421C12.0061 25.0252 11.9352 24.9939 11.8837 24.9423C11.8321 24.8908 11.8007 24.8198 11.7839 24.6948C11.7667 24.5668 11.7665 24.398 11.7665 24.1595V15.4348C11.7665 15.1963 11.7667 15.0274 11.7839 14.8995C11.8007 14.7744 11.8321 14.7035 11.8837 14.652C11.9352 14.6004 12.0061 14.569 12.1312 14.5522C12.2591 14.535 12.428 14.5348 12.6665 14.5348Z" stroke="url(#paint3_linear_2702_10930)" stroke-opacity="0.1" stroke-width="0.2"/>
</g>
<g filter="url(#filter2_bi_2702_10930)">
<path d="M8.78256 18.2029H7.44922C6.97781 18.2029 6.74211 18.2029 6.59567 18.3493C6.44922 18.4958 6.44922 18.7315 6.44922 19.2029V24.3044C6.44922 24.7758 6.44922 25.0115 6.59567 25.1579C6.74211 25.3044 6.97781 25.3044 7.44922 25.3044H8.78256C9.25396 25.3044 9.48966 25.3044 9.63611 25.1579C9.78256 25.0115 9.78256 24.7758 9.78256 24.3044V19.2029C9.78256 18.7315 9.78256 18.4958 9.63611 18.3493C9.48966 18.2029 9.25396 18.2029 8.78256 18.2029Z" fill="#F1F1F1" fill-opacity="0.1"/>
<path d="M8.78256 18.2029H7.44922C6.97781 18.2029 6.74211 18.2029 6.59567 18.3493C6.44922 18.4958 6.44922 18.7315 6.44922 19.2029V24.3044C6.44922 24.7758 6.44922 25.0115 6.59567 25.1579C6.74211 25.3044 6.97781 25.3044 7.44922 25.3044H8.78256C9.25396 25.3044 9.48966 25.3044 9.63611 25.1579C9.78256 25.0115 9.78256 24.7758 9.78256 24.3044V19.2029C9.78256 18.7315 9.78256 18.4958 9.63611 18.3493C9.48966 18.2029 9.25396 18.2029 8.78256 18.2029Z" fill="url(#paint4_linear_2702_10930)"/>
<path d="M7.44922 18.3029H8.78256C9.02109 18.3029 9.18992 18.3031 9.31787 18.3203C9.44294 18.3371 9.51385 18.3685 9.5654 18.4201C9.61695 18.4716 9.64833 18.5425 9.66514 18.6676C9.68234 18.7955 9.68256 18.9644 9.68256 19.2029V24.3044C9.68256 24.5429 9.68234 24.7117 9.66514 24.8397C9.64833 24.9647 9.61695 25.0356 9.5654 25.0872C9.51385 25.1387 9.44294 25.1701 9.31787 25.1869C9.18992 25.2041 9.02109 25.2044 8.78256 25.2044H7.44922C7.21069 25.2044 7.04185 25.2041 6.91391 25.1869C6.78884 25.1701 6.71792 25.1387 6.66638 25.0872C6.61483 25.0356 6.58345 24.9647 6.56663 24.8397C6.54943 24.7117 6.54922 24.5429 6.54922 24.3044V19.2029C6.54922 18.9644 6.54943 18.7955 6.56663 18.6676C6.58345 18.5425 6.61483 18.4716 6.66638 18.4201C6.71792 18.3685 6.78884 18.3371 6.91391 18.3203C7.04185 18.3031 7.21069 18.3029 7.44922 18.3029Z" stroke="url(#paint5_linear_2702_10930)" stroke-opacity="0.1" stroke-width="0.2"/>
</g>
<g filter="url(#filter3_bi_2702_10930)">
<path d="M19.0726 11.8261H17.7393C17.2679 11.8261 17.0322 11.8261 16.8857 11.9725C16.7393 12.119 16.7393 12.3547 16.7393 12.8261V24.1594C16.7393 24.6308 16.7393 24.8666 16.8857 25.013C17.0322 25.1594 17.2679 25.1594 17.7393 25.1594H19.0726C19.544 25.1594 19.7797 25.1594 19.9261 25.013C20.0726 24.8666 20.0726 24.6308 20.0726 24.1594V12.8261C20.0726 12.3547 20.0726 12.119 19.9261 11.9725C19.7797 11.8261 19.544 11.8261 19.0726 11.8261Z" fill="#F1F1F1" fill-opacity="0.1"/>
<path d="M19.0726 11.8261H17.7393C17.2679 11.8261 17.0322 11.8261 16.8857 11.9725C16.7393 12.119 16.7393 12.3547 16.7393 12.8261V24.1594C16.7393 24.6308 16.7393 24.8666 16.8857 25.013C17.0322 25.1594 17.2679 25.1594 17.7393 25.1594H19.0726C19.544 25.1594 19.7797 25.1594 19.9261 25.013C20.0726 24.8666 20.0726 24.6308 20.0726 24.1594V12.8261C20.0726 12.3547 20.0726 12.119 19.9261 11.9725C19.7797 11.8261 19.544 11.8261 19.0726 11.8261Z" fill="url(#paint6_linear_2702_10930)"/>
<path d="M17.7393 11.9261H19.0726C19.3111 11.9261 19.48 11.9263 19.6079 11.9435C19.733 11.9603 19.8039 11.9917 19.8554 12.0433C19.907 12.0948 19.9384 12.1657 19.9552 12.2908C19.9724 12.4187 19.9726 12.5876 19.9726 12.8261V24.1594C19.9726 24.398 19.9724 24.5668 19.9552 24.6948C19.9384 24.8198 19.907 24.8907 19.8554 24.9423C19.8039 24.9938 19.733 25.0252 19.6079 25.042C19.48 25.0592 19.3111 25.0594 19.0726 25.0594H17.7393C17.5007 25.0594 17.3319 25.0592 17.2039 25.042C17.0789 25.0252 17.008 24.9938 16.9564 24.9423C16.9049 24.8907 16.8735 24.8198 16.8567 24.6948C16.8395 24.5668 16.8393 24.398 16.8393 24.1594V12.8261C16.8393 12.5876 16.8395 12.4187 16.8567 12.2908C16.8735 12.1657 16.9049 12.0948 16.9564 12.0433C17.008 11.9917 17.0789 11.9603 17.2039 11.9435C17.3319 11.9263 17.5007 11.9261 17.7393 11.9261Z" stroke="url(#paint7_linear_2702_10930)" stroke-opacity="0.1" stroke-width="0.2"/>
</g>
<g filter="url(#filter4_bi_2702_10930)">
<path d="M23.9998 6.46379H22.6665C22.1951 6.46379 21.9594 6.46379 21.813 6.61024C21.6665 6.75668 21.6665 6.99239 21.6665 7.46379V24.1595C21.6665 24.6309 21.6665 24.8666 21.813 25.013C21.9594 25.1595 22.1951 25.1595 22.6665 25.1595H23.9998C24.4712 25.1595 24.7069 25.1595 24.8534 25.013C24.9998 24.8666 24.9998 24.6309 24.9998 24.1595V7.46379C24.9998 6.99239 24.9998 6.75668 24.8534 6.61024C24.7069 6.46379 24.4712 6.46379 23.9998 6.46379Z" fill="#F1F1F1" fill-opacity="0.1"/>
<path d="M23.9998 6.46379H22.6665C22.1951 6.46379 21.9594 6.46379 21.813 6.61024C21.6665 6.75668 21.6665 6.99239 21.6665 7.46379V24.1595C21.6665 24.6309 21.6665 24.8666 21.813 25.013C21.9594 25.1595 22.1951 25.1595 22.6665 25.1595H23.9998C24.4712 25.1595 24.7069 25.1595 24.8534 25.013C24.9998 24.8666 24.9998 24.6309 24.9998 24.1595V7.46379C24.9998 6.99239 24.9998 6.75668 24.8534 6.61024C24.7069 6.46379 24.4712 6.46379 23.9998 6.46379Z" fill="url(#paint8_linear_2702_10930)"/>
<path d="M22.6665 6.56379H23.9998C24.2384 6.56379 24.4072 6.564 24.5352 6.58121C24.6602 6.59802 24.7311 6.6294 24.7827 6.68095C24.8342 6.73249 24.8656 6.80341 24.8824 6.92848C24.8996 7.05642 24.8998 7.22526 24.8998 7.46379V24.1595C24.8998 24.398 24.8996 24.5668 24.8824 24.6948C24.8656 24.8198 24.8342 24.8908 24.7827 24.9423C24.7311 24.9939 24.6602 25.0252 24.5352 25.042C24.4072 25.0593 24.2384 25.0595 23.9998 25.0595H22.6665C22.428 25.0595 22.2591 25.0593 22.1312 25.042C22.0061 25.0252 21.9352 24.9939 21.8837 24.9423C21.8321 24.8908 21.8007 24.8198 21.7839 24.6948C21.7667 24.5668 21.7665 24.398 21.7665 24.1595V7.46379C21.7665 7.22526 21.7667 7.05642 21.7839 6.92848C21.8007 6.80341 21.8321 6.73249 21.8837 6.68095C21.9352 6.6294 22.0061 6.59802 22.1312 6.58121C22.2591 6.564 22.428 6.56379 22.6665 6.56379Z" stroke="url(#paint9_linear_2702_10930)" stroke-opacity="0.1" stroke-width="0.2"/>
</g>
<defs>
<filter id="filter0_bii_2702_10930" x="1.43164" y="0" width="23.0757" height="18.6357" filterUnits="userSpaceOnUse" color-interpolation-filters="sRGB">
<feFlood flood-opacity="0" result="BackgroundImageFix"/>

<feComposite in2="SourceAlpha" operator="in" result="effect1_backgroundBlur_2702_10930"/>
<feBlend mode="normal" in="SourceGraphic" in2="effect1_backgroundBlur_2702_10930" result="shape"/>
<feColorMatrix in="SourceAlpha" type="matrix" values="0 0 0 0 0 0 0 0 0 0 0 0 0 0 0 0 0 0 127 0" result="hardAlpha"/>
<feOffset dy="0.666667"/>
<feGaussianBlur stdDeviation="1.33333"/>
<feComposite in2="hardAlpha" operator="arithmetic" k2="-1" k3="1"/>
<feColorMatrix type="matrix" values="0 0 0 0 1 0 0 0 0 1 0 0 0 0 1 0 0 0 0.15 0"/>
<feBlend mode="normal" in2="shape" result="effect2_innerShadow_2702_10930"/>
<feColorMatrix in="SourceAlpha" type="matrix" values="0 0 0 0 0 0 0 0 0 0 0 0 0 0 0 0 0 0 127 0" result="hardAlpha"/>
<feOffset dy="-4"/>
<feGaussianBlur stdDeviation="3"/>
<feComposite in2="hardAlpha" operator="arithmetic" k2="-1" k3="1"/>
<feColorMatrix type="matrix" values="0 0 0 0 1 0 0 0 0 1 0 0 0 0 1 0 0 0 0.15 0"/>
<feBlend mode="normal" in2="effect2_innerShadow_2702_10930" result="effect3_innerShadow_2702_10930"/>
</filter>
<filter id="filter1_bi_2702_10930" x="8.6665" y="11.4348" width="9.3335" height="16.7247" filterUnits="userSpaceOnUse" color-interpolation-filters="sRGB">
<feFlood flood-opacity="0" result="BackgroundImageFix"/>

<feComposite in2="SourceAlpha" operator="in" result="effect1_backgroundBlur_2702_10930"/>
<feBlend mode="normal" in="SourceGraphic" in2="effect1_backgroundBlur_2702_10930" result="shape"/>
<feColorMatrix in="SourceAlpha" type="matrix" values="0 0 0 0 0 0 0 0 0 0 0 0 0 0 0 0 0 0 127 0" result="hardAlpha"/>
<feOffset dy="0.5"/>
<feGaussianBlur stdDeviation="1"/>
<feComposite in2="hardAlpha" operator="arithmetic" k2="-1" k3="1"/>
<feColorMatrix type="matrix" values="0 0 0 0 1 0 0 0 0 1 0 0 0 0 1 0 0 0 0.15 0"/>
<feBlend mode="normal" in2="shape" result="effect2_innerShadow_2702_10930"/>
</filter>
<filter id="filter2_bi_2702_10930" x="3.44922" y="15.2029" width="9.3335" height="13.1015" filterUnits="userSpaceOnUse" color-interpolation-filters="sRGB">
<feFlood flood-opacity="0" result="BackgroundImageFix"/>

<feComposite in2="SourceAlpha" operator="in" result="effect1_backgroundBlur_2702_10930"/>
<feBlend mode="normal" in="SourceGraphic" in2="effect1_backgroundBlur_2702_10930" result="shape"/>
<feColorMatrix in="SourceAlpha" type="matrix" values="0 0 0 0 0 0 0 0 0 0 0 0 0 0 0 0 0 0 127 0" result="hardAlpha"/>
<feOffset dy="0.5"/>
<feGaussianBlur stdDeviation="1"/>
<feComposite in2="hardAlpha" operator="arithmetic" k2="-1" k3="1"/>
<feColorMatrix type="matrix" values="0 0 0 0 1 0 0 0 0 1 0 0 0 0 1 0 0 0 0.15 0"/>
<feBlend mode="normal" in2="shape" result="effect2_innerShadow_2702_10930"/>
</filter>
<filter id="filter3_bi_2702_10930" x="13.7393" y="8.8261" width="9.3335" height="19.3333" filterUnits="userSpaceOnUse" color-interpolation-filters="sRGB">
<feFlood flood-opacity="0" result="BackgroundImageFix"/>

<feComposite in2="SourceAlpha" operator="in" result="effect1_backgroundBlur_2702_10930"/>
<feBlend mode="normal" in="SourceGraphic" in2="effect1_backgroundBlur_2702_10930" result="shape"/>
<feColorMatrix in="SourceAlpha" type="matrix" values="0 0 0 0 0 0 0 0 0 0 0 0 0 0 0 0 0 0 127 0" result="hardAlpha"/>
<feOffset dy="0.5"/>
<feGaussianBlur stdDeviation="1"/>
<feComposite in2="hardAlpha" operator="arithmetic" k2="-1" k3="1"/>
<feColorMatrix type="matrix" values="0 0 0 0 1 0 0 0 0 1 0 0 0 0 1 0 0 0 0.15 0"/>
<feBlend mode="normal" in2="shape" result="effect2_innerShadow_2702_10930"/>
</filter>
<filter id="filter4_bi_2702_10930" x="18.6665" y="3.46379" width="9.3335" height="24.6957" filterUnits="userSpaceOnUse" color-interpolation-filters="sRGB">
<feFlood flood-opacity="0" result="BackgroundImageFix"/>

<feComposite in2="SourceAlpha" operator="in" result="effect1_backgroundBlur_2702_10930"/>
<feBlend mode="normal" in="SourceGraphic" in2="effect1_backgroundBlur_2702_10930" result="shape"/>
<feColorMatrix in="SourceAlpha" type="matrix" values="0 0 0 0 0 0 0 0 0 0 0 0 0 0 0 0 0 0 127 0" result="hardAlpha"/>
<feOffset dy="0.5"/>
<feGaussianBlur stdDeviation="1"/>
<feComposite in2="hardAlpha" operator="arithmetic" k2="-1" k3="1"/>
<feColorMatrix type="matrix" values="0 0 0 0 1 0 0 0 0 1 0 0 0 0 1 0 0 0 0.15 0"/>
<feBlend mode="normal" in2="shape" result="effect2_innerShadow_2702_10930"/>
</filter>
<linearGradient id="paint0_linear_2702_10930" x1="5" y1="4" x2="22.2414" y2="10.1636" gradientUnits="userSpaceOnUse">
<stop stop-color="white"/>
<stop offset="1" stop-color="#4470FF"/>
</linearGradient>
<linearGradient id="paint1_linear_2702_10930" x1="5.4846" y1="4.50066" x2="20.5073" y2="4.50066" gradientUnits="userSpaceOnUse">
<stop stop-color="#FFC282"/>
<stop offset="1" stop-color="#FF4980"/>
</linearGradient>
<linearGradient id="paint2_linear_2702_10930" x1="11.6665" y1="14.4348" x2="15.8204" y2="14.7626" gradientUnits="userSpaceOnUse">
<stop stop-color="#62BDFF"/>
<stop offset="1" stop-color="#3864FF"/>
</linearGradient>
<linearGradient id="paint3_linear_2702_10930" x1="11.7707" y1="14.9223" x2="14.9998" y2="14.9223" gradientUnits="userSpaceOnUse">
<stop stop-color="#7EE5FF"/>
<stop offset="1" stop-color="#41A9FF"/>
</linearGradient>
<linearGradient id="paint4_linear_2702_10930" x1="6.44922" y1="18.2029" x2="10.5704" y2="18.6941" gradientUnits="userSpaceOnUse">
<stop stop-color="#62BDFF"/>
<stop offset="1" stop-color="#3864FF"/>
</linearGradient>
<linearGradient id="paint5_linear_2702_10930" x1="6.55339" y1="18.5257" x2="9.78256" y2="18.5257" gradientUnits="userSpaceOnUse">
<stop stop-color="#7EE5FF"/>
<stop offset="1" stop-color="#41A9FF"/>
</linearGradient>
<linearGradient id="paint6_linear_2702_10930" x1="16.7393" y1="11.8261" x2="20.9022" y2="12.0904" gradientUnits="userSpaceOnUse">
<stop stop-color="#62BDFF"/>
<stop offset="1" stop-color="#3864FF"/>
</linearGradient>
<linearGradient id="paint7_linear_2702_10930" x1="16.8434" y1="12.4322" x2="20.0726" y2="12.4322" gradientUnits="userSpaceOnUse">
<stop stop-color="#7EE5FF"/>
<stop offset="1" stop-color="#41A9FF"/>
</linearGradient>
<linearGradient id="paint8_linear_2702_10930" x1="21.6665" y1="6.46379" x2="25.8377" y2="6.65263" gradientUnits="userSpaceOnUse">
<stop stop-color="#62BDFF"/>
<stop offset="1" stop-color="#3864FF"/>
</linearGradient>
<linearGradient id="paint9_linear_2702_10930" x1="21.7707" y1="7.31359" x2="24.9998" y2="7.31359" gradientUnits="userSpaceOnUse">
<stop stop-color="#7EE5FF"/>
<stop offset="1" stop-color="#41A9FF"/>
</linearGradient>
</defs>
</svg>
