<svg width="16" height="17" viewBox="0 0 16 17" fill="none" xmlns="http://www.w3.org/2000/svg">
<path d="M7.33337 5.16659H8.66671V6.49992H7.33337V5.16659ZM7.33337 7.83325H8.66671V11.8333H7.33337V7.83325ZM8.00004 1.83325C4.32004 1.83325 1.33337 4.81992 1.33337 8.49992C1.33337 12.1799 4.32004 15.1666 8.00004 15.1666C11.68 15.1666 14.6667 12.1799 14.6667 8.49992C14.6667 4.81992 11.68 1.83325 8.00004 1.83325ZM8.00004 13.8333C5.06004 13.8333 2.66671 11.4399 2.66671 8.49992C2.66671 5.55992 5.06004 3.16659 8.00004 3.16659C10.94 3.16659 13.3334 5.55992 13.3334 8.49992C13.3334 11.4399 10.94 13.8333 8.00004 13.8333Z" fill="#4470FF"/>
</svg>
