<svg width="16" height="16" viewBox="0 0 16 16" fill="none" xmlns="http://www.w3.org/2000/svg">
<path fill-rule="evenodd" clip-rule="evenodd" d="M10.8376 9.97087C10.782 9.97072 10.6852 9.97773 10.4295 9.99733C9.62817 10.0588 8.69947 10.1111 7.85702 10.1111C7.04987 10.1111 6.1527 10.0631 5.36224 10.0051C5.09718 9.98561 4.99653 9.97866 4.9398 9.97909C4.17964 9.98491 3.58953 10.4761 3.44585 11.2226C3.43509 11.2785 3.42516 11.3653 3.39952 11.599C3.37485 11.824 3.36636 11.9057 3.36507 11.9683C3.3484 12.7746 3.95915 13.456 4.76244 13.5273C4.82485 13.5329 4.907 13.5333 5.13334 13.5333L10.6651 13.5333C10.9139 13.5333 11.0046 13.5328 11.0714 13.5264C11.911 13.4464 12.5283 12.7033 12.4531 11.8632C12.4471 11.7963 12.431 11.7071 12.3854 11.4625C12.344 11.2406 12.3283 11.1585 12.3138 11.1046C12.126 10.4091 11.558 9.97283 10.8376 9.97087ZM10.3901 9.06428C10.6038 9.04788 10.7419 9.03727 10.8401 9.03754C11.9814 9.04065 12.9174 9.75953 13.2148 10.8614C13.2404 10.9561 13.2632 11.0786 13.2979 11.2647L13.3082 11.3198C13.3467 11.5258 13.3722 11.6627 13.3827 11.78C13.5038 13.1313 12.5107 14.3267 11.16 14.4555C11.0428 14.4667 10.9036 14.4667 10.694 14.4667L5.13334 14.4667C5.12451 14.4667 5.11582 14.4667 5.10726 14.4667C4.91637 14.4667 4.78914 14.4667 4.67989 14.457C3.38763 14.3423 2.40513 13.2461 2.43193 11.949C2.4342 11.8394 2.44808 11.7129 2.46891 11.5232C2.46984 11.5147 2.47079 11.506 2.47175 11.4972C2.4728 11.4877 2.47383 11.4783 2.47485 11.469C2.49632 11.2731 2.5104 11.1446 2.52934 11.0462C2.75707 9.86295 3.72775 9.05502 4.93265 9.04578C5.03291 9.04502 5.17582 9.05552 5.39728 9.07179C5.40818 9.07259 5.41926 9.0734 5.43055 9.07423C6.21049 9.13147 7.08229 9.17779 7.85702 9.17779C8.66562 9.17779 9.56782 9.12733 10.3582 9.06673L10.3901 9.06428Z" fill="white"/>
<path fill-rule="evenodd" clip-rule="evenodd" d="M4.8667 4.66666C4.8667 2.93617 6.26954 1.53333 8.00003 1.53333C9.73052 1.53333 11.1334 2.93617 11.1334 4.66666V5.04761C11.1334 6.56771 9.90108 7.79999 8.38098 7.79999H7.61908C6.09898 7.79999 4.8667 6.56771 4.8667 5.04761V4.66666ZM8.00003 2.46666C6.78501 2.46666 5.80003 3.45163 5.80003 4.66666V5.04761C5.80003 6.05224 6.61445 6.86666 7.61908 6.86666H8.38098C9.38562 6.86666 10.2 6.05224 10.2 5.04761V4.66666C10.2 3.45163 9.21506 2.46666 8.00003 2.46666Z" fill="white"/>
</svg>
