<svg width="38" height="38" viewBox="0 0 38 38" fill="none" xmlns="http://www.w3.org/2000/svg">
<path d="M30.7893 26.5789H16.3157H14.9096H7.2104C6.87014 26.5789 6.70002 26.5789 6.55723 26.598C5.59191 26.7273 4.83256 27.4867 4.70321 28.452C4.68408 28.5948 4.68408 28.7649 4.68408 29.1052C4.68408 29.4454 4.68408 29.6156 4.70321 29.7583C4.83256 30.7237 5.59191 31.483 6.55723 31.6124C6.70002 31.6315 6.87014 31.6315 7.2104 31.6315H30.7893C31.1296 31.6315 31.2997 31.6315 31.4425 31.6124C32.4078 31.483 33.1672 30.7237 33.2965 29.7583C33.3157 29.6156 33.3157 29.4454 33.3157 29.1052C33.3157 28.7649 33.3157 28.5948 33.2965 28.452C33.1672 27.4867 32.4078 26.7273 31.4425 26.598C31.2997 26.5789 31.1296 26.5789 30.7893 26.5789Z" stroke="#7D87A6" stroke-width="0.756"/>
<path d="M18.7294 5.23786C18.9002 5.15501 19.0996 5.15501 19.2704 5.23786L33.1489 11.9686C33.7413 12.2558 33.5367 13.1464 32.8784 13.1464H5.12141C4.46309 13.1464 4.25853 12.2558 4.85086 11.9686L18.7294 5.23786Z" stroke="#7D87A6" stroke-width="0.76"/>
<line x1="10.1168" y1="15.1696" x2="10.1168" y2="24.5148" stroke="#7D87A6" stroke-width="0.76" stroke-linecap="round"/>
<line x1="16.2921" y1="15.1696" x2="16.2921" y2="24.5148" stroke="#7D87A6" stroke-width="0.76" stroke-linecap="round"/>
<line x1="22.4679" y1="15.1696" x2="22.4679" y2="24.5148" stroke="#7D87A6" stroke-width="0.76" stroke-linecap="round"/>
<line x1="28.6432" y1="15.1696" x2="28.6432" y2="24.5148" stroke="#7D87A6" stroke-width="0.76" stroke-linecap="round"/>
</svg>
