<svg width="164" height="34" viewBox="0 0 164 34" fill="none" xmlns="http://www.w3.org/2000/svg">
<path d="M21.9196 1.89626L24.3797 0L26.9852 3.36271L24.5251 5.25897L21.9196 1.89626ZM19.4531 9.18423L23.1275 6.32088L20.5282 2.98345L15.178 7.10467V26.8827L19.7251 30.7131L22.4634 27.4642L19.4531 24.9043V9.18423ZM2.4601 28.7347L0 30.6373L2.60556 34L5.05933 32.1037L2.4601 28.7347ZM7.51943 24.8094L3.85774 27.6538L6.45697 31.0165L11.7819 26.8953V7.11731L7.24117 3.28686L4.49648 6.53579L7.53208 9.09574L7.51943 24.8094Z" fill="white"/>
<path d="M47.4315 15.9096C48.0692 15.406 48.5815 14.7615 48.9283 14.0267C49.275 13.2919 49.4467 12.4869 49.4299 11.6747C49.4347 10.9624 49.295 10.2565 49.0193 9.59966C48.7436 8.94283 48.3375 8.34865 47.8257 7.85302C47.3138 7.35738 46.7068 6.97056 46.0412 6.71592C45.3756 6.46128 44.6653 6.34409 43.9532 6.37144H34.6313V26.7816H44.5856C47.9753 26.7816 50.4354 24.3986 50.4354 21.0928C50.4622 20.0359 50.1957 18.9922 49.6655 18.0774C49.1353 17.1625 48.3621 16.4123 47.4315 15.9096ZM38.5776 10.0692H43.1057C43.3959 10.0639 43.684 10.1176 43.9528 10.2269C44.2215 10.3362 44.4653 10.4989 44.6693 10.7052C44.8733 10.9114 45.0333 11.1569 45.1395 11.4268C45.2458 11.6966 45.2962 11.9853 45.2876 12.2751C45.2926 12.5644 45.2399 12.8517 45.1324 13.1204C45.0249 13.389 44.8649 13.6335 44.6617 13.8395C44.4585 14.0455 44.2163 14.209 43.9491 14.3202C43.6819 14.4315 43.3952 14.4883 43.1057 14.4874H38.5776V10.0692ZM43.7951 23.0838H38.5776V18.0271H43.7951C44.466 18.0271 45.1094 18.2935 45.5838 18.7677C46.0582 19.2418 46.3247 19.8849 46.3247 20.5555C46.3247 21.226 46.0582 21.8691 45.5838 22.3433C45.1094 22.8175 44.466 23.0838 43.7951 23.0838Z" fill="white"/>
<path d="M57.0062 13.1221V11.5356H53.1611V26.7815H57.0062V19.3608C57.0062 16.7756 58.5936 15.2333 61.2497 15.2333H62.1098V11.3017H61.2497C60.4544 11.2919 59.6659 11.4489 58.935 11.7624C58.2041 12.076 57.547 12.5392 57.0062 13.1221Z" fill="white"/>
<path d="M68.4843 11.5356H64.6392V26.7879H68.4843V11.5356Z" fill="white"/>
<path d="M66.5553 4.99984C66.2445 4.99293 65.9355 5.04903 65.6469 5.16475C65.3583 5.28047 65.0962 5.45342 64.8764 5.67316C64.6565 5.89289 64.4835 6.15486 64.3677 6.44327C64.2519 6.73167 64.1958 7.04053 64.2027 7.3512C64.199 7.8216 64.3353 8.28248 64.5945 8.67517C64.8536 9.06786 65.2238 9.37461 65.6579 9.55636C66.092 9.73811 66.5704 9.78664 67.0322 9.69579C67.494 9.60494 67.9183 9.3788 68.2512 9.04617C68.584 8.71353 68.8102 8.28944 68.9011 7.82789C68.992 7.36633 68.9435 6.88817 68.7616 6.45429C68.5798 6.0204 68.2729 5.65041 67.88 5.3914C67.4871 5.13239 67.026 4.99609 66.5553 4.99984Z" fill="white"/>
<path d="M83.9405 13.1158C83.305 12.4915 82.5517 11.9997 81.7245 11.6687C80.8972 11.3378 80.0125 11.1744 79.1215 11.1879C74.84 11.1879 71.6084 14.6138 71.6084 19.1586C71.6084 23.7033 74.84 27.1292 79.1215 27.1292C80.0123 27.1413 80.8966 26.9773 81.7237 26.6464C82.5508 26.3155 83.3042 25.8244 83.9405 25.2013V26.7815H87.7856V5.51178H83.9405V13.1158ZM79.7539 23.3872C79.195 23.3976 78.6397 23.2948 78.1215 23.0851C77.6034 22.8753 77.1331 22.5628 76.739 22.1665C76.3448 21.7703 76.0351 21.2983 75.8283 20.7792C75.6215 20.2601 75.522 19.7045 75.5357 19.1459C75.5138 18.5806 75.6062 18.0167 75.8075 17.488C76.0088 16.9593 76.3148 16.4766 76.7072 16.0689C77.0996 15.6612 77.5703 15.3368 78.0911 15.1153C78.6119 14.8938 79.1721 14.7796 79.7381 14.7796C80.3041 14.7796 80.8643 14.8938 81.3851 15.1153C81.9059 15.3368 82.3766 15.6612 82.769 16.0689C83.1614 16.4766 83.4674 16.9593 83.6687 17.488C83.87 18.0167 83.9625 18.5806 83.9405 19.1459C83.9568 19.7025 83.8601 20.2566 83.6562 20.7748C83.4523 21.293 83.1455 21.7645 82.7542 22.1609C82.3629 22.5573 81.8953 22.8703 81.3797 23.0811C80.864 23.2919 80.311 23.396 79.7539 23.3872Z" fill="white"/>
<path d="M115.663 11.1879C114.615 11.1861 113.575 11.3768 112.596 11.7505C112.079 10.6412 111.257 9.70181 110.226 9.04231C109.195 8.3828 107.998 8.03044 106.774 8.02646C105.55 8.02248 104.35 8.36705 103.314 9.01984C102.279 9.67263 101.451 10.6066 100.928 11.7126C100.769 11.6494 100.605 11.5925 100.441 11.5419C99.6761 11.3079 98.8812 11.1886 98.0817 11.1879C94.0279 11.1879 90.967 14.0702 90.967 17.8944C90.9549 19.5826 91.5988 21.2096 92.763 22.4328C92.2183 22.856 91.7781 23.3988 91.4766 24.0191C91.175 24.6394 91.0201 25.3207 91.0239 26.0104C91.0239 28.387 92.9211 30.0494 95.7038 30.0494H100.719C102.028 30.0494 102.882 30.6815 102.958 31.6802V32.0595L106.961 30.9723L106.91 30.6878C106.455 27.9635 104.317 26.2632 101.32 26.2632H96.3046C95.4508 26.2632 94.9006 25.8334 94.9006 25.176C94.9023 24.9747 94.9485 24.7762 95.036 24.5948C95.1235 24.4134 95.25 24.2535 95.4065 24.1268C96.2662 24.4275 97.1709 24.5792 98.0817 24.5755C102.135 24.5755 105.196 21.6869 105.196 17.8628C105.195 16.5792 104.817 15.3242 104.109 14.2536C104.161 13.6076 104.447 13.0029 104.914 12.5535C105.381 12.1042 105.997 11.8411 106.645 11.8139C107.292 11.7867 107.928 11.9972 108.431 12.4059C108.934 12.8145 109.271 13.393 109.377 14.0323C108.225 15.464 107.608 17.252 107.631 19.089C107.631 23.6653 111.249 27.1165 116.036 27.1165C117.35 27.1439 118.653 26.8738 119.848 26.3265C121.043 25.7792 122.098 24.9688 122.936 23.9561L123.132 23.7222L120.463 21.4404L120.261 21.7059C119.755 22.3091 119.122 22.7922 118.406 23.1203C117.691 23.4483 116.912 23.6129 116.124 23.6021C115.2 23.6546 114.283 23.4065 113.511 22.8949C112.74 22.3834 112.154 21.6358 111.843 20.7641H123.536L123.581 20.4923C123.637 20.0583 123.666 19.6214 123.669 19.1838C123.693 18.1269 123.501 17.0761 123.107 16.0951C122.713 15.114 122.124 14.2229 121.376 13.4757C120.628 12.7284 119.736 12.1404 118.754 11.7472C117.772 11.354 116.72 11.1638 115.663 11.1879ZM98.0817 20.9347C97.6724 20.95 97.2643 20.8827 96.8816 20.7369C96.499 20.591 96.1497 20.3696 95.8545 20.0858C95.5594 19.802 95.3245 19.4617 95.1639 19.0852C95.0032 18.7087 94.9201 18.3037 94.9196 17.8944C94.8956 17.2647 95.0605 16.6423 95.3931 16.107C95.7257 15.5717 96.2107 15.148 96.786 14.8903C97.3613 14.6326 98.0005 14.5526 98.6216 14.6607C99.2427 14.7687 99.8173 15.0598 100.272 15.4967C100.726 15.9335 101.039 16.4961 101.171 17.1122C101.303 17.7283 101.248 18.3698 101.013 18.9543C100.777 19.5389 100.373 20.0397 99.8503 20.3926C99.328 20.7455 98.7121 20.9343 98.0817 20.9347ZM111.818 17.4962C112.082 16.6875 112.595 15.983 113.284 15.4835C113.973 14.9839 114.802 14.7149 115.653 14.7149C116.504 14.7149 117.334 14.9839 118.023 15.4835C118.712 15.983 119.225 16.6875 119.489 17.4962H111.818Z" fill="white"/>
<path d="M139.328 18.7857C139.328 19.9591 138.861 21.0846 138.031 21.9143C137.201 22.7441 136.075 23.2103 134.901 23.2103C133.727 23.2103 132.601 22.7441 131.771 21.9143C130.94 21.0846 130.474 19.9591 130.474 18.7857V6.37146H126.483V18.8426C126.544 21.0414 127.46 23.13 129.037 24.664C130.615 26.1979 132.729 27.0562 134.929 27.0562C137.13 27.0562 139.244 26.1979 140.821 24.664C142.399 23.13 143.315 21.0414 143.375 18.8426V6.37146H139.334L139.328 18.7857Z" fill="white"/>
<path d="M155.847 11.1879C154.95 11.1731 154.06 11.3377 153.228 11.6721C152.396 12.0064 151.639 12.5037 151.002 13.1348V11.5356H147.157V32.2365H151.002V25.1824C151.64 25.8122 152.397 26.3088 153.228 26.643C154.06 26.9773 154.95 27.1426 155.847 27.1292C160.134 27.1292 163.366 23.7033 163.366 19.1586C163.366 14.6138 160.134 11.1879 155.847 11.1879ZM155.214 23.3999C154.655 23.4103 154.1 23.3075 153.582 23.0977C153.064 22.8879 152.593 22.5755 152.199 22.1792C151.805 21.7829 151.495 21.311 151.289 20.7919C151.082 20.2727 150.982 19.7171 150.996 19.1586C150.974 18.5933 151.066 18.0294 151.268 17.5006C151.469 16.9719 151.775 16.4892 152.168 16.0815C152.56 15.6738 153.031 15.3495 153.551 15.1279C154.072 14.9064 154.632 14.7922 155.198 14.7922C155.764 14.7922 156.325 14.9064 156.845 15.1279C157.366 15.3495 157.837 15.6738 158.229 16.0815C158.622 16.4892 158.928 16.9719 159.129 17.5006C159.33 18.0294 159.423 18.5933 159.401 19.1586C159.415 19.7136 159.318 20.2658 159.113 20.7821C158.909 21.2983 158.602 21.768 158.212 22.163C157.822 22.5579 157.355 22.8699 156.841 23.0803C156.327 23.2907 155.776 23.3951 155.221 23.3872L155.214 23.3999Z" fill="white"/>
</svg>
