<svg width="26" height="26" viewBox="0 0 26 26" fill="none" xmlns="http://www.w3.org/2000/svg">
<g filter="url(#filter0_bi)">
<path d="M20.2222 11.5556V0H5.77778V5.77778H0V26H11.5556V20.2222H14.4444V26H26V11.5556H20.2222ZM5.77778 23.1111H2.88889V20.2222H5.77778V23.1111ZM5.77778 17.3333H2.88889V14.4444H5.77778V17.3333ZM5.77778 11.5556H2.88889V8.66667H5.77778V11.5556ZM11.5556 17.3333H8.66667V14.4444H11.5556V17.3333ZM11.5556 11.5556H8.66667V8.66667H11.5556V11.5556ZM11.5556 5.77778H8.66667V2.88889H11.5556V5.77778ZM17.3333 17.3333H14.4444V14.4444H17.3333V17.3333ZM17.3333 11.5556H14.4444V8.66667H17.3333V11.5556ZM17.3333 5.77778H14.4444V2.88889H17.3333V5.77778ZM23.1111 23.1111H20.2222V20.2222H23.1111V23.1111ZM23.1111 17.3333H20.2222V14.4444H23.1111V17.3333Z" fill="#F1F1F1" fill-opacity="0.1"/>
<path d="M20.2222 11.5556V0H5.77778V5.77778H0V26H11.5556V20.2222H14.4444V26H26V11.5556H20.2222ZM5.77778 23.1111H2.88889V20.2222H5.77778V23.1111ZM5.77778 17.3333H2.88889V14.4444H5.77778V17.3333ZM5.77778 11.5556H2.88889V8.66667H5.77778V11.5556ZM11.5556 17.3333H8.66667V14.4444H11.5556V17.3333ZM11.5556 11.5556H8.66667V8.66667H11.5556V11.5556ZM11.5556 5.77778H8.66667V2.88889H11.5556V5.77778ZM17.3333 17.3333H14.4444V14.4444H17.3333V17.3333ZM17.3333 11.5556H14.4444V8.66667H17.3333V11.5556ZM17.3333 5.77778H14.4444V2.88889H17.3333V5.77778ZM23.1111 23.1111H20.2222V20.2222H23.1111V23.1111ZM23.1111 17.3333H20.2222V14.4444H23.1111V17.3333Z" fill="url(#paint0_linear)"/>
<path d="M20.1222 11.5556V11.6556H20.2222H25.9V25.9H14.5444V20.2222V20.1222H14.4444H11.5556H11.4556V20.2222V25.9H0.1V5.87778H5.77778H5.87778V5.77778V0.1H20.1222V11.5556ZM5.77778 23.2111H5.87778V23.1111V20.2222V20.1222H5.77778H2.88889H2.78889V20.2222V23.1111V23.2111H2.88889H5.77778ZM5.77778 17.4333H5.87778V17.3333V14.4444V14.3444H5.77778H2.88889H2.78889V14.4444V17.3333V17.4333H2.88889H5.77778ZM5.77778 11.6556H5.87778V11.5556V8.66667V8.56667H5.77778H2.88889H2.78889V8.66667V11.5556V11.6556H2.88889H5.77778ZM11.5556 17.4333H11.6556V17.3333V14.4444V14.3444H11.5556H8.66667H8.56667V14.4444V17.3333V17.4333H8.66667H11.5556ZM11.5556 11.6556H11.6556V11.5556V8.66667V8.56667H11.5556H8.66667H8.56667V8.66667V11.5556V11.6556H8.66667H11.5556ZM11.5556 5.87778H11.6556V5.77778V2.88889V2.78889H11.5556H8.66667H8.56667V2.88889V5.77778V5.87778H8.66667H11.5556ZM17.3333 17.4333H17.4333V17.3333V14.4444V14.3444H17.3333H14.4444H14.3444V14.4444V17.3333V17.4333H14.4444H17.3333ZM17.3333 11.6556H17.4333V11.5556V8.66667V8.56667H17.3333H14.4444H14.3444V8.66667V11.5556V11.6556H14.4444H17.3333ZM17.3333 5.87778H17.4333V5.77778V2.88889V2.78889H17.3333H14.4444H14.3444V2.88889V5.77778V5.87778H14.4444H17.3333ZM23.1111 23.2111H23.2111V23.1111V20.2222V20.1222H23.1111H20.2222H20.1222V20.2222V23.1111V23.2111H20.2222H23.1111ZM23.1111 17.4333H23.2111V17.3333V14.4444V14.3444H23.1111H20.2222H20.1222V14.4444V17.3333V17.4333H20.2222H23.1111Z" stroke="url(#paint1_linear)" stroke-opacity="0.1" stroke-width="0.2"/>
</g>
<defs>
<filter id="filter0_bi" x="-3" y="-3" width="32" height="32" filterUnits="userSpaceOnUse" color-interpolation-filters="sRGB">
<feFlood flood-opacity="0" result="BackgroundImageFix"/>
<feGaussianBlur in="BackgroundImageFix" stdDeviation="1.5"/>
<feComposite in2="SourceAlpha" operator="in" result="effect1_backgroundBlur"/>
<feBlend mode="normal" in="SourceGraphic" in2="effect1_backgroundBlur" result="shape"/>
<feColorMatrix in="SourceAlpha" type="matrix" values="0 0 0 0 0 0 0 0 0 0 0 0 0 0 0 0 0 0 127 0" result="hardAlpha"/>
<feOffset dy="0.5"/>
<feGaussianBlur stdDeviation="1"/>
<feComposite in2="hardAlpha" operator="arithmetic" k2="-1" k3="1"/>
<feColorMatrix type="matrix" values="0 0 0 0 1 0 0 0 0 1 0 0 0 0 1 0 0 0 0.15 0"/>
<feBlend mode="normal" in2="shape" result="effect2_innerShadow"/>
</filter>
<linearGradient id="paint0_linear" x1="0" y1="0" x2="30.6272" y2="7.77681" gradientUnits="userSpaceOnUse">
<stop stop-color="#62BDFF"/>
<stop offset="1" stop-color="#3864FF"/>
</linearGradient>
<linearGradient id="paint1_linear" x1="0.8125" y1="1.18182" x2="26" y2="1.18182" gradientUnits="userSpaceOnUse">
<stop stop-color="#7EE5FF"/>
<stop offset="1" stop-color="#41A9FF"/>
</linearGradient>
</defs>
</svg>
