<svg width="20" height="20" viewBox="0 0 20 20" fill="none" xmlns="http://www.w3.org/2000/svg">
<path d="M17.5 4.5C17.5 3.39543 16.6046 2.5 15.5 2.5H4.5C3.39543 2.5 2.5 3.39543 2.5 4.5V15.5C2.5 16.6046 3.39543 17.5 4.5 17.5H15.5C16.6046 17.5 17.5 16.6046 17.5 15.5V4.5ZM9.74755 12.7525C8.9665 13.5335 7.70017 13.5335 6.91912 12.7525L4.75458 10.5879C4.42988 10.2632 4.42988 9.73678 4.75458 9.41209C5.07895 9.08772 5.60475 9.08735 5.92957 9.41127L6.91912 10.3981C7.70049 11.1773 8.9653 11.1764 9.74558 10.3961L14.0667 6.075C14.3931 5.74857 14.9226 5.74951 15.2479 6.07709C15.5716 6.40304 15.5706 6.92937 15.2458 7.25417L9.74755 12.7525Z" fill="#7D87A6"/>
</svg>
