<svg width="16" height="19" viewBox="0 0 16 19" fill="none" xmlns="http://www.w3.org/2000/svg">
<path fill-rule="evenodd" clip-rule="evenodd" d="M5.5 0.833374H10.5V2.50004H5.5V0.833374ZM7.16667 11.6667V6.66671H8.83333V11.6667H7.16667ZM13.8583 6.15837L15.0417 4.97504C14.6833 4.55004 14.2917 4.15004 13.8667 3.80004L12.6833 4.98337C11.3917 3.95004 9.76667 3.33337 8 3.33337C3.85833 3.33337 0.5 6.69171 0.5 10.8334C0.5 14.975 3.85 18.3334 8 18.3334C12.15 18.3334 15.5 14.975 15.5 10.8334C15.5 9.06671 14.8833 7.44171 13.8583 6.15837ZM2.16667 10.8334C2.16667 14.0584 4.775 16.6667 8 16.6667C11.225 16.6667 13.8333 14.0584 13.8333 10.8334C13.8333 7.60837 11.225 5.00004 8 5.00004C4.775 5.00004 2.16667 7.60837 2.16667 10.8334Z" fill="#F2F2F2"/>
</svg>
