<svg width="60" height="60" viewBox="0 0 60 60" fill="none" xmlns="http://www.w3.org/2000/svg">
<g filter="url(#filter0_bi)">
<circle cx="30.5996" cy="29.4004" r="15" fill="#F1F1F1" fill-opacity="0.1"/>
<circle cx="30.5996" cy="29.4004" r="15" fill="url(#paint0_linear)" fill-opacity="0.2"/>
<circle cx="30.5996" cy="29.4004" r="14.88" stroke="url(#paint1_linear)" stroke-opacity="0.1" stroke-width="0.24"/>
</g>
<g filter="url(#filter1_bi)">
<path d="M12.9767 31.0824L32.6833 7.98733C35.0118 5.25845 36.176 3.89402 37.0069 4.28883C37.8377 4.68365 37.5151 6.44805 36.8698 9.97683L34.8674 20.9285C34.6274 22.2409 34.5074 22.8971 34.8672 23.3286C35.227 23.7602 35.8941 23.7602 37.2282 23.7602H46.3968C48.643 23.7602 49.7662 23.7602 50.0878 24.4576C50.4095 25.1549 49.6805 26.0093 48.2225 27.718L29.4257 49.7468C26.7796 52.8479 25.4566 54.3985 24.6103 53.9601C23.7641 53.5217 24.2675 51.5466 25.2744 47.5963L27.7118 38.033C28.0628 36.656 28.2382 35.9675 27.8779 35.5039C27.5176 35.0402 26.8071 35.0402 25.3862 35.0402H14.8024C12.5562 35.0402 11.4331 35.0402 11.1114 34.3428C10.7897 33.6455 11.5187 32.7911 12.9767 31.0824Z" fill="#F1F1F1" fill-opacity="0.1"/>
<path d="M12.9767 31.0824L32.6833 7.98733C35.0118 5.25845 36.176 3.89402 37.0069 4.28883C37.8377 4.68365 37.5151 6.44805 36.8698 9.97683L34.8674 20.9285C34.6274 22.2409 34.5074 22.8971 34.8672 23.3286C35.227 23.7602 35.8941 23.7602 37.2282 23.7602H46.3968C48.643 23.7602 49.7662 23.7602 50.0878 24.4576C50.4095 25.1549 49.6805 26.0093 48.2225 27.718L29.4257 49.7468C26.7796 52.8479 25.4566 54.3985 24.6103 53.9601C23.7641 53.5217 24.2675 51.5466 25.2744 47.5963L27.7118 38.033C28.0628 36.656 28.2382 35.9675 27.8779 35.5039C27.5176 35.0402 26.8071 35.0402 25.3862 35.0402H14.8024C12.5562 35.0402 11.4331 35.0402 11.1114 34.3428C10.7897 33.6455 11.5187 32.7911 12.9767 31.0824Z" fill="url(#paint2_linear)"/>
<path d="M13.068 31.1603L32.7746 8.06522C33.9411 6.69808 34.8087 5.68167 35.4881 5.05489C35.8279 4.74137 36.1124 4.5333 36.3564 4.42631C36.5967 4.32098 36.7876 4.31749 36.9553 4.39722C37.1231 4.47695 37.241 4.62716 37.311 4.87996C37.3822 5.13672 37.4006 5.48872 37.3721 5.95021C37.3152 6.87279 37.075 8.18737 36.7518 9.95525L34.7493 20.9069L34.7475 20.917C34.6291 21.5647 34.5378 22.0636 34.5225 22.4542C34.5069 22.8501 34.568 23.1571 34.7751 23.4055C34.9821 23.6539 35.2732 23.7691 35.6654 23.8251C36.0524 23.8802 36.5596 23.8802 37.218 23.8802H37.2282H46.3968C47.524 23.8802 48.3557 23.8805 48.9468 23.9661C49.5402 24.0521 49.8452 24.2179 49.9789 24.5078C50.1126 24.7977 50.0408 25.1373 49.721 25.6445C49.4025 26.1497 48.8629 26.7827 48.1312 27.6401L29.3344 49.669C28.0092 51.222 27.0222 52.3785 26.2609 53.0933C25.88 53.451 25.5638 53.6901 25.297 53.814C25.0334 53.9365 24.8332 53.9404 24.6655 53.8536C24.4979 53.7667 24.3855 53.6009 24.3336 53.3149C24.281 53.0255 24.2938 52.6293 24.3663 52.1118C24.5111 51.0777 24.8864 49.6043 25.3907 47.6259L27.8281 38.0626L27.8307 38.0524C28.004 37.3726 28.1373 36.8494 28.1809 36.4386C28.2251 36.0226 28.1803 35.6974 27.9727 35.4302C27.7651 35.1631 27.461 35.0393 27.047 34.9794C26.6382 34.9202 26.0983 34.9202 25.3968 34.9202H25.3862H14.8024C13.6752 34.9202 12.8435 34.9199 12.2524 34.8343C11.659 34.7483 11.3541 34.5825 11.2203 34.2926C11.0866 34.0027 11.1584 33.6631 11.4782 33.1559C11.7967 32.6507 12.3364 32.0177 13.068 31.1603Z" stroke="url(#paint3_linear)" stroke-opacity="0.1" stroke-width="0.24"/>
</g>
<defs>
<filter id="filter0_bi" x="11.9996" y="10.8004" width="37.2" height="37.2" filterUnits="userSpaceOnUse" color-interpolation-filters="sRGB">
<feFlood flood-opacity="0" result="BackgroundImageFix"/>
<feGaussianBlur in="BackgroundImageFix" stdDeviation="1.8"/>
<feComposite in2="SourceAlpha" operator="in" result="effect1_backgroundBlur"/>
<feBlend mode="normal" in="SourceGraphic" in2="effect1_backgroundBlur" result="shape"/>
<feColorMatrix in="SourceAlpha" type="matrix" values="0 0 0 0 0 0 0 0 0 0 0 0 0 0 0 0 0 0 127 0" result="hardAlpha"/>
<feOffset dy="0.6"/>
<feGaussianBlur stdDeviation="1.2"/>
<feComposite in2="hardAlpha" operator="arithmetic" k2="-1" k3="1"/>
<feColorMatrix type="matrix" values="0 0 0 0 1 0 0 0 0 1 0 0 0 0 1 0 0 0 0.15 0"/>
<feBlend mode="normal" in2="shape" result="effect2_innerShadow"/>
</filter>
<filter id="filter1_bi" x="7.43613" y="0.621802" width="46.3266" height="57.0114" filterUnits="userSpaceOnUse" color-interpolation-filters="sRGB">
<feFlood flood-opacity="0" result="BackgroundImageFix"/>
<feGaussianBlur in="BackgroundImageFix" stdDeviation="1.8"/>
<feComposite in2="SourceAlpha" operator="in" result="effect1_backgroundBlur"/>
<feBlend mode="normal" in="SourceGraphic" in2="effect1_backgroundBlur" result="shape"/>
<feColorMatrix in="SourceAlpha" type="matrix" values="0 0 0 0 0 0 0 0 0 0 0 0 0 0 0 0 0 0 127 0" result="hardAlpha"/>
<feOffset dy="0.6"/>
<feGaussianBlur stdDeviation="1.2"/>
<feComposite in2="hardAlpha" operator="arithmetic" k2="-1" k3="1"/>
<feColorMatrix type="matrix" values="0 0 0 0 1 0 0 0 0 1 0 0 0 0 1 0 0 0 0.15 0"/>
<feBlend mode="normal" in2="shape" result="effect2_innerShadow"/>
</filter>
<linearGradient id="paint0_linear" x1="15.5996" y1="14.4004" x2="50.9387" y2="23.3736" gradientUnits="userSpaceOnUse">
<stop stop-color="#82E8FF"/>
<stop offset="1" stop-color="#379FFF"/>
</linearGradient>
<linearGradient id="paint1_linear" x1="16.5371" y1="15.764" x2="45.5996" y2="15.764" gradientUnits="userSpaceOnUse">
<stop stop-color="#7EE5FF"/>
<stop offset="1" stop-color="#41A9FF"/>
</linearGradient>
<linearGradient id="paint2_linear" x1="9.59961" y1="1.2002" x2="60.4462" y2="10.8147" gradientUnits="userSpaceOnUse">
<stop stop-color="#62BDFF"/>
<stop offset="1" stop-color="#3864FF"/>
</linearGradient>
<linearGradient id="paint3_linear" x1="10.9121" y1="3.76383" x2="51.5996" y2="3.76383" gradientUnits="userSpaceOnUse">
<stop stop-color="#7EE5FF"/>
<stop offset="1" stop-color="#41A9FF"/>
</linearGradient>
</defs>
</svg>
