<svg width="36" height="29" viewBox="0 0 36 29" fill="none" xmlns="http://www.w3.org/2000/svg">
<path d="M16.8293 2.80672C17.1289 2.31649 17.336 1.9788 17.5173 1.74941C17.6978 1.52088 17.8042 1.46461 17.8791 1.44909C17.9586 1.4326 18.0407 1.4326 18.1203 1.44909C18.1951 1.46461 18.3015 1.52088 18.4821 1.74941C18.6633 1.9788 18.8704 2.31649 19.17 2.80672L33.4671 26.2019C33.7896 26.7296 34.0127 27.0959 34.1434 27.3822C34.2747 27.6696 34.2735 27.7961 34.2508 27.8698C34.226 27.9503 34.1843 28.0246 34.1286 28.0877C34.0776 28.1455 33.9702 28.2124 33.6565 28.2503C33.3441 28.288 32.9152 28.2887 32.2967 28.2887H3.70264C3.08418 28.2887 2.65525 28.288 2.34286 28.2503C2.02913 28.2124 1.92175 28.1455 1.87077 28.0877C1.81502 28.0246 1.77336 27.9503 1.74853 27.8698L1.38732 27.9812L1.74853 27.8698C1.72582 27.7961 1.7247 27.6696 1.85597 27.3822C1.98669 27.0959 2.20979 26.7296 2.53228 26.2019L16.8293 2.80672Z" stroke="#7D87A6" stroke-width="0.756"/>
<path d="M18 12.8334V19.1667" stroke="#7D87A6" stroke-width="0.756" stroke-linecap="round"/>
<path d="M18.8383 22.8083C18.8383 23.2713 18.4629 23.6467 17.9999 23.6467C17.5369 23.6467 17.1616 23.2713 17.1616 22.8083C17.1616 22.3453 17.5369 21.97 17.9999 21.97C18.4629 21.97 18.8383 22.3453 18.8383 22.8083Z" fill="#7D87A6" stroke="#7D87A6" stroke-width="0.54"/>
</svg>
