<svg width="19" height="20" viewBox="0 0 19 20" fill="none" xmlns="http://www.w3.org/2000/svg">
<path d="M9.5 3.33337L9.5 11.6667" stroke="#4470FF" stroke-width="1.4" stroke-linecap="round"/>
<line x1="0.6" y1="-0.6" x2="3.9977" y2="-0.6" transform="matrix(0.68875 -0.724999 0.68875 0.724999 9.5 13.0557)" stroke="#4470FF" stroke-width="1.2" stroke-linecap="round"/>
<line x1="0.6" y1="-0.6" x2="3.9977" y2="-0.6" transform="matrix(-0.688749 -0.724999 -0.688749 0.724999 9.5 13.0557)" stroke="#4470FF" stroke-width="1.2" stroke-linecap="round"/>
<path d="M3.075 10.4167C3.075 10.0301 2.7616 9.71675 2.375 9.71675C1.9884 9.71675 1.675 10.0301 1.675 10.4167L3.075 10.4167ZM17.325 10.4167C17.325 10.0301 17.0116 9.71675 16.625 9.71675C16.2384 9.71675 15.925 10.0301 15.925 10.4167L17.325 10.4167ZM15.925 10.4167C15.925 10.4189 15.925 10.4211 15.925 10.4232C15.925 10.4254 15.925 10.4275 15.925 10.4297C15.925 10.4319 15.925 10.434 15.925 10.4362C15.925 10.4383 15.925 10.4405 15.925 10.4426C15.925 10.4448 15.925 10.447 15.925 10.4491C15.925 10.4513 15.925 10.4534 15.925 10.4556C15.925 10.4577 15.925 10.4599 15.925 10.4621C15.925 10.4642 15.925 10.4664 15.925 10.4685C15.925 10.4707 15.925 10.4728 15.925 10.475C15.925 10.4771 15.925 10.4793 15.925 10.4814C15.925 10.4836 15.925 10.4858 15.925 10.4879C15.925 10.4901 15.925 10.4922 15.925 10.4944C15.925 10.4965 15.925 10.4987 15.925 10.5008C15.925 10.503 15.925 10.5051 15.925 10.5073C15.925 10.5094 15.925 10.5116 15.925 10.5138C15.925 10.5159 15.925 10.5181 15.925 10.5202C15.925 10.5224 15.925 10.5245 15.925 10.5267C15.925 10.5288 15.925 10.531 15.925 10.5331C15.925 10.5353 15.925 10.5374 15.925 10.5396C15.925 10.5417 15.925 10.5439 15.925 10.546C15.925 10.5482 15.925 10.5503 15.925 10.5525C15.925 10.5546 15.925 10.5568 15.925 10.5589C15.925 10.5611 15.925 10.5632 15.925 10.5654C15.925 10.5675 15.925 10.5697 15.925 10.5718C15.925 10.574 15.925 10.5761 15.925 10.5783C15.925 10.5804 15.925 10.5826 15.925 10.5847C15.925 10.5869 15.925 10.589 15.925 10.5912C15.925 10.5933 15.925 10.5955 15.925 10.5976C15.925 10.5997 15.925 10.6019 15.925 10.604C15.925 10.6062 15.925 10.6083 15.925 10.6105C15.925 10.6126 15.925 10.6148 15.925 10.6169C15.925 10.6191 15.925 10.6212 15.925 10.6234C15.925 10.6255 15.925 10.6276 15.925 10.6298C15.925 10.6319 15.925 10.6341 15.925 10.6362C15.925 10.6384 15.925 10.6405 15.925 10.6427C15.925 10.6448 15.925 10.647 15.925 10.6491C15.925 10.6512 15.925 10.6534 15.925 10.6555C15.925 10.6577 15.925 10.6598 15.925 10.662C15.925 10.6641 15.925 10.6662 15.925 10.6684C15.925 10.6705 15.925 10.6727 15.925 10.6748C15.925 10.677 15.925 10.6791 15.925 10.6812C15.925 10.6834 15.925 10.6855 15.925 10.6877C15.925 10.6898 15.925 10.6919 15.925 10.6941C15.925 10.6962 15.925 10.6984 15.925 10.7005C15.925 10.7026 15.925 10.7048 15.925 10.7069C15.925 10.7091 15.925 10.7112 15.925 10.7133C15.925 10.7155 15.925 10.7176 15.925 10.7198C15.925 10.7219 15.925 10.724 15.925 10.7262C15.925 10.7283 15.925 10.7304 15.925 10.7326C15.925 10.7347 15.925 10.7369 15.925 10.739C15.925 10.7411 15.925 10.7433 15.925 10.7454C15.925 10.7475 15.925 10.7497 15.925 10.7518C15.925 10.754 15.925 10.7561 15.925 10.7582C15.925 10.7604 15.925 10.7625 15.925 10.7646C15.925 10.7668 15.925 10.7689 15.925 10.771C15.925 10.7732 15.925 10.7753 15.925 10.7774C15.925 10.7796 15.925 10.7817 15.925 10.7838C15.925 10.786 15.925 10.7881 15.925 10.7902C15.925 10.7924 15.925 10.7945 15.925 10.7966C15.925 10.7988 15.925 10.8009 15.925 10.803C15.925 10.8052 15.925 10.8073 15.925 10.8094C15.925 10.8116 15.925 10.8137 15.925 10.8158C15.925 10.818 15.925 10.8201 15.925 10.8222C15.925 10.8244 15.925 10.8265 15.925 10.8286C15.925 10.8308 15.925 10.8329 15.925 10.835C15.925 10.8371 15.925 10.8393 15.925 10.8414C15.925 10.8435 15.925 10.8457 15.925 10.8478C15.925 10.8499 15.925 10.8521 15.925 10.8542C15.925 10.8563 15.925 10.8584 15.925 10.8606C15.925 10.8627 15.925 10.8648 15.925 10.867C15.925 10.8691 15.925 10.8712 15.925 10.8733C15.925 10.8755 15.925 10.8776 15.925 10.8797C15.925 10.8818 15.925 10.884 15.925 10.8861C15.925 10.8882 15.925 10.8903 15.925 10.8925C15.925 10.8946 15.925 10.8967 15.925 10.8989C15.925 10.901 15.925 10.9031 15.925 10.9052C15.925 10.9074 15.925 10.9095 15.925 10.9116C15.925 10.9137 15.925 10.9158 15.925 10.918C15.925 10.9201 15.925 10.9222 15.925 10.9243C15.925 10.9265 15.925 10.9286 15.925 10.9307C15.925 10.9328 15.925 10.935 15.925 10.9371C15.925 10.9392 15.925 10.9413 15.925 10.9434C15.925 10.9456 15.925 10.9477 15.925 10.9498C15.925 10.9519 15.925 10.954 15.925 10.9562C15.925 10.9583 15.925 10.9604 15.925 10.9625C15.925 10.9647 15.925 10.9668 15.925 10.9689C15.925 10.971 15.925 10.9731 15.925 10.9752C15.925 10.9774 15.925 10.9795 15.925 10.9816C15.925 10.9837 15.925 10.9858 15.925 10.988C15.925 10.9901 15.925 10.9922 15.925 10.9943C15.925 10.9964 15.925 10.9985 15.925 11.0007C15.925 11.0028 15.925 11.0049 15.925 11.007C15.925 11.0091 15.925 11.0112 15.925 11.0134C15.925 11.0155 15.925 11.0176 15.925 11.0197C15.925 11.0218 15.925 11.0239 15.925 11.0261C15.925 11.0282 15.925 11.0303 15.925 11.0324C15.925 11.0345 15.925 11.0366 15.925 11.0387C15.925 11.0409 15.925 11.043 15.925 11.0451C15.925 11.0472 15.925 11.0493 15.925 11.0514C15.925 11.0535 15.925 11.0556 15.925 11.0578C15.925 11.0599 15.925 11.062 15.925 11.0641C15.925 11.0662 15.925 11.0683 15.925 11.0704C15.925 11.0725 15.925 11.0746 15.925 11.0768C15.925 11.0789 15.925 11.081 15.925 11.0831C15.925 11.0852 15.925 11.0873 15.925 11.0894C15.925 11.0915 15.925 11.0936 15.925 11.0957C15.925 11.0978 15.925 11.1 15.925 11.1021C15.925 11.1042 15.925 11.1063 15.925 11.1084C15.925 11.1105 15.925 11.1126 15.925 11.1147C15.925 11.1168 15.925 11.1189 15.925 11.121C15.925 11.1231 15.925 11.1252 15.925 11.1273C15.925 11.1295 15.925 11.1316 15.925 11.1337C15.925 11.1358 15.925 11.1379 15.925 11.14C15.925 11.1421 15.925 11.1442 15.925 11.1463C15.925 11.1484 15.925 11.1505 15.925 11.1526C15.925 11.1547 15.925 11.1568 15.925 11.1589C15.925 11.161 15.925 11.1631 15.925 11.1652C15.925 11.1673 15.925 11.1694 15.925 11.1715C15.925 11.1736 15.925 11.1757 15.925 11.1778C15.925 11.1799 15.925 11.182 15.925 11.1841C15.925 11.1862 15.925 11.1883 15.925 11.1904C15.925 11.1925 15.925 11.1946 15.925 11.1967C15.925 11.1988 15.925 11.2009 15.925 11.203C15.925 11.2051 15.925 11.2072 15.925 11.2093C15.925 11.2114 15.925 11.2135 15.925 11.2156C15.925 11.2177 15.925 11.2198 15.925 11.2219C15.925 11.224 15.925 11.2261 15.925 11.2282C15.925 11.2303 15.925 11.2324 15.925 11.2345C15.925 11.2366 15.925 11.2387 15.925 11.2408C15.925 11.2429 15.925 11.245 15.925 11.2471C15.925 11.2492 15.925 11.2513 15.925 11.2534C15.925 11.2555 15.925 11.2575 15.925 11.2596C15.925 11.2617 15.925 11.2638 15.925 11.2659C15.925 11.268 15.925 11.2701 15.925 11.2722C15.925 11.2743 15.925 11.2764 15.925 11.2785C15.925 11.2806 15.925 11.2827 15.925 11.2847C15.925 11.2868 15.925 11.2889 15.925 11.291C15.925 11.2931 15.925 11.2952 15.925 11.2973C15.925 11.2994 15.925 11.3015 15.925 11.3036C15.925 11.3057 15.925 11.3077 15.925 11.3098C15.925 11.3119 15.925 11.314 15.925 11.3161C15.925 11.3182 15.925 11.3203 15.925 11.3224C15.925 11.3244 15.925 11.3265 15.925 11.3286C15.925 11.3307 15.925 11.3328 15.925 11.3349C15.925 11.337 15.925 11.3391 15.925 11.3411C15.925 11.3432 15.925 11.3453 15.925 11.3474C15.925 11.3495 15.925 11.3516 15.925 11.3536C15.925 11.3557 15.925 11.3578 15.925 11.3599C15.925 11.362 15.925 11.3641 15.925 11.3662C15.925 11.3682 15.925 11.3703 15.925 11.3724C15.925 11.3745 15.925 11.3766 15.925 11.3786C15.925 11.3807 15.925 11.3828 15.925 11.3849C15.925 11.387 15.925 11.3891 15.925 11.3911C15.925 11.3932 15.925 11.3953 15.925 11.3974C15.925 11.3995 15.925 11.4015 15.925 11.4036C15.925 11.4057 15.925 11.4078 15.925 11.4099C15.925 11.4119 15.925 11.414 15.925 11.4161C15.925 11.4182 15.925 11.4202 15.925 11.4223C15.925 11.4244 15.925 11.4265 15.925 11.4286C15.925 11.4306 15.925 11.4327 15.925 11.4348C15.925 11.4369 15.925 11.4389 15.925 11.441C15.925 11.4431 15.925 11.4452 15.925 11.4472C15.925 11.4493 15.925 11.4514 15.925 11.4535C15.925 11.4555 15.925 11.4576 15.925 11.4597C15.925 11.4618 15.925 11.4638 15.925 11.4659C15.925 11.468 15.925 11.47 15.925 11.4721C15.925 11.4742 15.925 11.4763 15.925 11.4783C15.925 11.4804 15.925 11.4825 15.925 11.4845C15.925 11.4866 15.925 11.4887 15.925 11.4908C15.925 11.4928 15.925 11.4949 15.925 11.497C15.925 11.499 15.925 11.5011 15.925 11.5032C15.925 11.5052 15.925 11.5073 15.925 11.5094C15.925 11.5115 15.925 11.5135 15.925 11.5156C15.925 11.5177 15.925 11.5197 15.925 11.5218C15.925 11.5239 15.925 11.5259 15.925 11.528C15.925 11.5301 15.925 11.5321 15.925 11.5342C15.925 11.5363 15.925 11.5383 15.925 11.5404C15.925 11.5425 15.925 11.5445 15.925 11.5466C15.925 11.5486 15.925 11.5507 15.925 11.5528C15.925 11.5548 15.925 11.5569 15.925 11.559C15.925 11.561 15.925 11.5631 15.925 11.5652C15.925 11.5672 15.925 11.5693 15.925 11.5713C15.925 11.5734 15.925 11.5755 15.925 11.5775C15.925 11.5796 15.925 11.5816 15.925 11.5837C15.925 11.5858 15.925 11.5878 15.925 11.5899C15.925 11.5919 15.925 11.594 15.925 11.5961C15.925 11.5981 15.925 11.6002 15.925 11.6022C15.925 11.6043 15.925 11.6064 15.925 11.6084C15.925 11.6105 15.925 11.6125 15.925 11.6146C15.925 11.6166 15.925 11.6187 15.925 11.6207C15.925 11.6228 15.925 11.6249 15.925 11.6269C15.925 11.629 15.925 11.631 15.925 11.6331C15.925 11.6351 15.925 11.6372 15.925 11.6392C15.925 11.6413 15.925 11.6434 15.925 11.6454C15.925 11.6475 15.925 11.6495 15.925 11.6516C15.925 11.6536 15.925 11.6557 15.925 11.6577C15.925 11.6598 15.925 11.6618 15.925 11.6639C15.925 11.6659 15.925 11.668 15.925 11.67C15.925 11.6721 15.925 11.6741 15.925 11.6762C15.925 11.6782 15.925 11.6803 15.925 11.6823C15.925 11.6844 15.925 11.6864 15.925 11.6885C15.925 11.6905 15.925 11.6926 15.925 11.6946C15.925 11.6967 15.925 11.6987 15.925 11.7008C15.925 11.7028 15.925 11.7049 15.925 11.7069C15.925 11.7089 15.925 11.711 15.925 11.713C15.925 11.7151 15.925 11.7171 15.925 11.7192C15.925 11.7212 15.925 11.7233 15.925 11.7253C15.925 11.7273 15.925 11.7294 15.925 11.7314C15.925 11.7335 15.925 11.7355 15.925 11.7376C15.925 11.7396 15.925 11.7417 15.925 11.7437C15.925 11.7457 15.925 11.7478 15.925 11.7498C15.925 11.7519 15.925 11.7539 15.925 11.7559C15.925 11.758 15.925 11.76 15.925 11.7621C15.925 11.7641 15.925 11.7661 15.925 11.7682C15.925 11.7702 15.925 11.7723 15.925 11.7743C15.925 11.7763 15.925 11.7784 15.925 11.7804C15.925 11.7824 15.925 11.7845 15.925 11.7865C15.925 11.7886 15.925 11.7906 15.925 11.7926C15.925 11.7947 15.925 11.7967 15.925 11.7987C15.925 11.8008 15.925 11.8028 15.925 11.8048C15.925 11.8069 15.925 11.8089 15.925 11.8109C15.925 11.813 15.925 11.815 15.925 11.817C15.925 11.8191 15.925 11.8211 15.925 11.8231C15.925 11.8252 15.925 11.8272 15.925 11.8292C15.925 11.8313 15.925 11.8333 15.925 11.8353C15.925 11.8374 15.925 11.8394 15.925 11.8414C15.925 11.8435 15.925 11.8455 15.925 11.8475C15.925 11.8495 15.925 11.8516 15.925 11.8536C15.925 11.8556 15.925 11.8577 15.925 11.8597C15.925 11.8617 15.925 11.8637 15.925 11.8658C15.925 11.8678 15.925 11.8698 15.925 11.8718C15.925 11.8739 15.925 11.8759 15.925 11.8779C15.925 11.8799 15.925 11.882 15.925 11.884C15.925 11.886 15.925 11.888 15.925 11.8901C15.925 11.8921 15.925 11.8941 15.925 11.8961C15.925 11.8982 15.925 11.9002 15.925 11.9022C15.925 11.9042 15.925 11.9063 15.925 11.9083C15.925 11.9103 15.925 11.9123 15.925 11.9143C15.925 11.9164 15.925 11.9184 15.925 11.9204C15.925 11.9224 15.925 11.9244 15.925 11.9265C15.925 11.9285 15.925 11.9305 15.925 11.9325C15.925 11.9345 15.925 11.9366 15.925 11.9386C15.925 11.9406 15.925 11.9426 15.925 11.9446C15.925 11.9466 15.925 11.9487 15.925 11.9507C15.925 11.9527 15.925 11.9547 15.925 11.9567C15.925 11.9587 15.925 11.9607 15.925 11.9628C15.925 11.9648 15.925 11.9668 15.925 11.9688C15.925 11.9708 15.925 11.9728 15.925 11.9748C15.925 11.9769 15.925 11.9789 15.925 11.9809C15.925 11.9829 15.925 11.9849 15.925 11.9869C15.925 11.9889 15.925 11.9909 15.925 11.993C15.925 11.995 15.925 11.997 15.925 11.999C15.925 12.001 15.925 12.003 15.925 12.005C15.925 12.007 15.925 12.009 15.925 12.011C15.925 12.013 15.925 12.0151 15.925 12.0171C15.925 12.0191 15.925 12.0211 15.925 12.0231C15.925 12.0251 15.925 12.0271 15.925 12.0291C15.925 12.0311 15.925 12.0331 15.925 12.0351C15.925 12.0371 15.925 12.0391 15.925 12.0411C15.925 12.0431 15.925 12.0451 15.925 12.0471C15.925 12.0491 15.925 12.0512 15.925 12.0532C15.925 12.0552 15.925 12.0572 15.925 12.0592C15.925 12.0612 15.925 12.0632 15.925 12.0652C15.925 12.0672 15.925 12.0692 15.925 12.0712C15.925 12.0732 15.925 12.0752 15.925 12.0772C15.925 12.0792 15.925 12.0812 15.925 12.0832C15.925 12.0852 15.925 12.0872 15.925 12.0892C15.925 12.0912 15.925 12.0932 15.925 12.0952C15.925 12.0971 15.925 12.0991 15.925 12.1011C15.925 12.1031 15.925 12.1051 15.925 12.1071C15.925 12.1091 15.925 12.1111 15.925 12.1131C15.925 12.1151 15.925 12.1171 15.925 12.1191C15.925 12.1211 15.925 12.1231 15.925 12.1251C15.925 12.1271 15.925 12.1291 15.925 12.1311C15.925 12.133 15.925 12.135 15.925 12.137C15.925 12.139 15.925 12.141 15.925 12.143C15.925 12.145 15.925 12.147 15.925 12.149C15.925 12.151 15.925 12.1529 15.925 12.1549C15.925 12.1569 15.925 12.1589 15.925 12.1609C15.925 12.1629 15.925 12.1649 15.925 12.1669C15.925 12.1688 15.925 12.1708 15.925 12.1728C15.925 12.1748 15.925 12.1768 15.925 12.1788C15.925 12.1808 15.925 12.1827 15.925 12.1847C15.925 12.1867 15.925 12.1887 15.925 12.1907C15.925 12.1927 15.925 12.1947 15.925 12.1966C15.925 12.1986 15.925 12.2006 15.925 12.2026C15.925 12.2046 15.925 12.2065 15.925 12.2085C15.925 12.2105 15.925 12.2125 15.925 12.2145C15.925 12.2164 15.925 12.2184 15.925 12.2204C15.925 12.2224 15.925 12.2244 15.925 12.2263C15.925 12.2283 15.925 12.2303 15.925 12.2323C15.925 12.2343 15.925 12.2362 15.925 12.2382C15.925 12.2402 15.925 12.2422 15.925 12.2441C15.925 12.2461 15.925 12.2481 15.925 12.2501C15.925 12.252 15.925 12.254 15.925 12.256C15.925 12.258 15.925 12.2599 15.925 12.2619C15.925 12.2639 15.925 12.2659 15.925 12.2678C15.925 12.2698 15.925 12.2718 15.925 12.2737C15.925 12.2757 15.925 12.2777 15.925 12.2797C15.925 12.2816 15.925 12.2836 15.925 12.2856C15.925 12.2875 15.925 12.2895 15.925 12.2915C15.925 12.2934 15.925 12.2954 15.925 12.2974C15.925 12.2994 15.925 12.3013 15.925 12.3033C15.925 12.3053 15.925 12.3072 15.925 12.3092C15.925 12.3112 15.925 12.3131 15.925 12.3151C15.925 12.317 15.925 12.319 15.925 12.321C15.925 12.3229 15.925 12.3249 15.925 12.3269C15.925 12.3288 15.925 12.3308 15.925 12.3328C15.925 12.3347 15.925 12.3367 15.925 12.3386C15.925 12.3406 15.925 12.3426 15.925 12.3445C15.925 12.3465 15.925 12.3485 15.925 12.3504C15.925 12.3524 15.925 12.3543 15.925 12.3563C15.925 12.3583 15.925 12.3602 15.925 12.3622C15.925 12.3641 15.925 12.3661 15.925 12.368C15.925 12.37 15.925 12.372 15.925 12.3739C15.925 12.3759 15.925 12.3778 15.925 12.3798C15.925 12.3817 15.925 12.3837 15.925 12.3856C15.925 12.3876 15.925 12.3896 15.925 12.3915C15.925 12.3935 15.925 12.3954 15.925 12.3974C15.925 12.3993 15.925 12.4013 15.925 12.4032C15.925 12.4052 15.925 12.4071 15.925 12.4091C15.925 12.411 15.925 12.413 15.925 12.4149C15.925 12.4169 15.925 12.4188 15.925 12.4208C15.925 12.4227 15.925 12.4247 15.925 12.4266C15.925 12.4286 15.925 12.4305 15.925 12.4325C15.925 12.4344 15.925 12.4364 15.925 12.4383C15.925 12.4403 15.925 12.4422 15.925 12.4442C15.925 12.4461 15.925 12.448 15.925 12.45C15.925 12.4519 15.925 12.4539 15.925 12.4558C15.925 12.4578 15.925 12.4597 15.925 12.4616C15.925 12.4636 15.925 12.4655 15.925 12.4675C15.925 12.4694 15.925 12.4714 15.925 12.4733C15.925 12.4752 15.925 12.4772 15.925 12.4791C15.925 12.4811 15.925 12.483 15.925 12.4849C15.925 12.4869 15.925 12.4888 15.925 12.4908C15.925 12.4927 15.925 12.4946 15.925 12.4966C15.925 12.4985 15.925 12.5004 15.925 12.5024C15.925 12.5043 15.925 12.5063 15.925 12.5082C15.925 12.5101 15.925 12.5121 15.925 12.514C15.925 12.5159 15.925 12.5179 15.925 12.5198C15.925 12.5217 15.925 12.5237 15.925 12.5256C15.925 12.5275 15.925 12.5295 15.925 12.5314C15.925 12.5333 15.925 12.5353 15.925 12.5372C15.925 12.5391 15.925 12.541 15.925 12.543C15.925 12.5449 15.925 12.5468 15.925 12.5488C15.925 12.5507 15.925 12.5526 15.925 12.5545C15.925 12.5565 15.925 12.5584 15.925 12.5603C15.925 12.5623 15.925 12.5642 15.925 12.5661C15.925 12.568 15.925 12.57 15.925 12.5719C15.925 12.5738 15.925 12.5757 15.925 12.5777C15.925 12.5796 15.925 12.5815 15.925 12.5834C15.925 12.5854 15.925 12.5873 15.925 12.5892C15.925 12.5911 15.925 12.593 15.925 12.595C15.925 12.5969 15.925 12.5988 15.925 12.6007C15.925 12.6026 15.925 12.6046 15.925 12.6065C15.925 12.6084 15.925 12.6103 15.925 12.6122C15.925 12.6142 15.925 12.6161 15.925 12.618C15.925 12.6199 15.925 12.6218 15.925 12.6237C15.925 12.6257 15.925 12.6276 15.925 12.6295C15.925 12.6314 15.925 12.6333 15.925 12.6352C15.925 12.6371 15.925 12.6391 15.925 12.641C15.925 12.6429 15.925 12.6448 15.925 12.6467C15.925 12.6486 15.925 12.6505 15.925 12.6525C15.925 12.6544 15.925 12.6563 15.925 12.6582C15.925 12.6601 15.925 12.662 15.925 12.6639C15.925 12.6658 15.925 12.6677 15.925 12.6696C15.925 12.6715 15.925 12.6735 15.925 12.6754C15.925 12.6773 15.925 12.6792 15.925 12.6811C15.925 12.683 15.925 12.6849 15.925 12.6868C15.925 12.6887 15.925 12.6906 15.925 12.6925C15.925 12.6944 15.925 12.6963 15.925 12.6982C15.925 12.7001 15.925 12.702 15.925 12.7039C15.925 12.7058 15.925 12.7077 15.925 12.7096C15.925 12.7115 15.925 12.7134 15.925 12.7154C15.925 12.7173 15.925 12.7192 15.925 12.7211C15.925 12.723 15.925 12.7248 15.925 12.7267C15.925 12.7286 15.925 12.7305 15.925 12.7324C15.925 12.7343 15.925 12.7362 15.925 12.7381C15.925 12.74 15.925 12.7419 15.925 12.7438C15.925 12.7457 15.925 12.7476 15.925 12.7495C15.925 12.7514 15.925 12.7533 15.925 12.7552C15.925 12.7571 15.925 12.759 15.925 12.7609C15.925 12.7628 15.925 12.7647 15.925 12.7665C15.925 12.7684 15.925 12.7703 15.925 12.7722C15.925 12.7741 15.925 12.776 15.925 12.7779C15.925 12.7798 15.925 12.7817 15.925 12.7836C15.925 12.7854 15.925 12.7873 15.925 12.7892C15.925 12.7911 15.925 12.793 15.925 12.7949C15.925 12.7968 15.925 12.7987 15.925 12.8005C15.925 12.8024 15.925 12.8043 15.925 12.8062C15.925 12.8081 15.925 12.81 15.925 12.8118C15.925 12.8137 15.925 12.8156 15.925 12.8175C15.925 12.8194 15.925 12.8213 15.925 12.8231C15.925 12.825 15.925 12.8269 15.925 12.8288C15.925 12.8307 15.925 12.8325 15.925 12.8344C15.925 12.8363 15.925 12.8382 15.925 12.8401C15.925 12.8419 15.925 12.8438 15.925 12.8457C15.925 12.8476 15.925 12.8494 15.925 12.8513C15.925 12.8532 15.925 12.8551 15.925 12.857C15.925 12.8588 15.925 12.8607 15.925 12.8626C15.925 12.8644 15.925 12.8663 15.925 12.8682C15.925 12.8701 15.925 12.8719 15.925 12.8738C15.925 12.8757 15.925 12.8776 15.925 12.8794C15.925 12.8813 15.925 12.8832 15.925 12.885C15.925 12.8869 15.925 12.8888 15.925 12.8906C15.925 12.8925 15.925 12.8944 15.925 12.8963C15.925 12.8981 15.925 12.9 15.925 12.9019C15.925 12.9037 15.925 12.9056 15.925 12.9075C15.925 12.9093 15.925 12.9112 15.925 12.9131C15.925 12.9149 15.925 12.9168 15.925 12.9186C15.925 12.9205 15.925 12.9224 15.925 12.9242C15.925 12.9261 15.925 12.928 15.925 12.9298C15.925 12.9317 15.925 12.9335 15.925 12.9354C15.925 12.9373 15.925 12.9391 15.925 12.941C15.925 12.9428 15.925 12.9447 15.925 12.9466C15.925 12.9484 15.925 12.9503 15.925 12.9521C15.925 12.954 15.925 12.9558 15.925 12.9577C15.925 12.9596 15.925 12.9614 15.925 12.9633C15.925 12.9651 15.925 12.967 15.925 12.9688C15.925 12.9707 15.925 12.9725 15.925 12.9744C15.925 12.9762 15.925 12.9781 15.925 12.98C15.925 12.9818 15.925 12.9837 15.925 12.9855C15.925 12.9874 15.925 12.9892 15.925 12.9911C15.925 12.9929 15.925 12.9948 15.925 12.9966C15.925 12.9985 15.925 13.0003 15.925 13.0022C15.925 13.004 15.925 13.0058 15.925 13.0077C15.925 13.0095 15.925 13.0114 15.925 13.0132C15.925 13.0151 15.925 13.0169 15.925 13.0188C15.925 13.0206 15.925 13.0225 15.925 13.0243C15.925 13.0261 15.925 13.028 15.925 13.0298C15.925 13.0317 15.925 13.0335 15.925 13.0354C15.925 13.0372 15.925 13.039 15.925 13.0409C15.925 13.0427 15.925 13.0446 15.925 13.0464C15.925 13.0482 15.925 13.0501 15.925 13.0519C15.925 13.0537 15.925 13.0556 15.925 13.0574C15.925 13.0593 15.925 13.0611 15.925 13.0629C15.925 13.0648 15.925 13.0666 15.925 13.0684C15.925 13.0703 15.925 13.0721 15.925 13.0739C15.925 13.0758 15.925 13.0776 15.925 13.0794C15.925 13.0813 15.925 13.0831 15.925 13.0849C15.925 13.0868 15.925 13.0886 15.925 13.0904C15.925 13.0923 15.925 13.0941 15.925 13.0959C15.925 13.0977 15.925 13.0996 15.925 13.1014C15.925 13.1032 15.925 13.1051 15.925 13.1069C15.925 13.1087 15.925 13.1105 15.925 13.1124C15.925 13.1142 15.925 13.116 15.925 13.1178C15.925 13.1197 15.925 13.1215 15.925 13.1233C15.925 13.1251 15.925 13.127 15.925 13.1288C15.925 13.1306 15.925 13.1324 15.925 13.1342C15.925 13.1361 15.925 13.1379 15.925 13.1397C15.925 13.1415 15.925 13.1433 15.925 13.1452C15.925 13.147 15.925 13.1488 15.925 13.1506C15.925 13.1524 15.925 13.1543 15.925 13.1561C15.925 13.1579 15.925 13.1597 15.925 13.1615C15.925 13.1633 15.925 13.1652 15.925 13.167C15.925 13.1688 15.925 13.1706 15.925 13.1724C15.925 13.1742 15.925 13.176 15.925 13.1778C15.925 13.1797 15.925 13.1815 15.925 13.1833C15.925 13.1851 15.925 13.1869 15.925 13.1887C15.925 13.1905 15.925 13.1923 15.925 13.1941C15.925 13.196 15.925 13.1978 15.925 13.1996C15.925 13.2014 15.925 13.2032 15.925 13.205C15.925 13.2068 15.925 13.2086 15.925 13.2104C15.925 13.2122 15.925 13.214 15.925 13.2158C15.925 13.2176 15.925 13.2194 15.925 13.2212C15.925 13.223 15.925 13.2248 15.925 13.2266C15.925 13.2284 15.925 13.2302 15.925 13.232C15.925 13.2339 15.925 13.2357 15.925 13.2375C15.925 13.2393 15.925 13.241 15.925 13.2428C15.925 13.2446 15.925 13.2464 15.925 13.2482C15.925 13.25 15.925 13.2518 15.925 13.2536C15.925 13.2554 15.925 13.2572 15.925 13.259C15.925 13.2608 15.925 13.2626 15.925 13.2644C15.925 13.2662 15.925 13.268 15.925 13.2698C15.925 13.2716 15.925 13.2734 15.925 13.2752C15.925 13.277 15.925 13.2787 15.925 13.2805C15.925 13.2823 15.925 13.2841 15.925 13.2859C15.925 13.2877 15.925 13.2895 15.925 13.2913C15.925 13.2931 15.925 13.2948 15.925 13.2966C15.925 13.2984 15.925 13.3002 15.925 13.302C15.925 13.3038 15.925 13.3056 15.925 13.3074C15.925 13.3091 15.925 13.3109 15.925 13.3127C15.925 13.3145 15.925 13.3163 15.925 13.3181C15.925 13.3198 15.925 13.3216 15.925 13.3234C15.925 13.3252 15.925 13.327 15.925 13.3287C15.925 13.3305 15.925 13.3323 15.925 13.3341C15.925 13.3359 15.925 13.3376 15.925 13.3394C15.925 13.3412 15.925 13.343 15.925 13.3447C15.925 13.3465 15.925 13.3483 15.925 13.3501C15.925 13.3518 15.925 13.3536 15.925 13.3554C15.925 13.3572 15.925 13.3589 15.925 13.3607C15.925 13.3625 15.925 13.3643 15.925 13.366C15.925 13.3678 15.925 13.3696 15.925 13.3713C15.925 13.3731 15.925 13.3749 15.925 13.3767C15.925 13.3784 15.925 13.3802 15.925 13.382C15.925 13.3837 15.925 13.3855 15.925 13.3873C15.925 13.389 15.925 13.3908 15.925 13.3926C15.925 13.3943 15.925 13.3961 15.925 13.3979C15.925 13.3996 15.925 13.4014 15.925 13.4032C15.925 13.4049 15.925 13.4067 15.925 13.4084C15.925 13.4102 15.925 13.412 15.925 13.4137C15.925 13.4155 15.925 13.4172 15.925 13.419C15.925 13.4208 15.925 13.4225 15.925 13.4243C15.925 13.426 15.925 13.4278 15.925 13.4296C15.925 13.4313 15.925 13.4331 15.925 13.4348C15.925 13.4366 15.925 13.4383 15.925 13.4401C15.925 13.4419 15.925 13.4436 15.925 13.4454C15.925 13.4471 15.925 13.4489 15.925 13.4506C15.925 13.4524 15.925 13.4541 15.925 13.4559C15.925 13.4576 15.925 13.4594 15.925 13.4611C15.925 13.4629 15.925 13.4646 15.925 13.4664C15.925 13.4681 15.925 13.4699 15.925 13.4716L17.325 13.4716C17.325 13.4699 17.325 13.4681 17.325 13.4664C17.325 13.4646 17.325 13.4629 17.325 13.4611C17.325 13.4594 17.325 13.4576 17.325 13.4559C17.325 13.4541 17.325 13.4524 17.325 13.4506C17.325 13.4489 17.325 13.4471 17.325 13.4454C17.325 13.4436 17.325 13.4419 17.325 13.4401C17.325 13.4383 17.325 13.4366 17.325 13.4348C17.325 13.4331 17.325 13.4313 17.325 13.4296C17.325 13.4278 17.325 13.426 17.325 13.4243C17.325 13.4225 17.325 13.4208 17.325 13.419C17.325 13.4172 17.325 13.4155 17.325 13.4137C17.325 13.412 17.325 13.4102 17.325 13.4084C17.325 13.4067 17.325 13.4049 17.325 13.4032C17.325 13.4014 17.325 13.3996 17.325 13.3979C17.325 13.3961 17.325 13.3943 17.325 13.3926C17.325 13.3908 17.325 13.389 17.325 13.3873C17.325 13.3855 17.325 13.3837 17.325 13.382C17.325 13.3802 17.325 13.3784 17.325 13.3767C17.325 13.3749 17.325 13.3731 17.325 13.3713C17.325 13.3696 17.325 13.3678 17.325 13.366C17.325 13.3643 17.325 13.3625 17.325 13.3607C17.325 13.3589 17.325 13.3572 17.325 13.3554C17.325 13.3536 17.325 13.3518 17.325 13.3501C17.325 13.3483 17.325 13.3465 17.325 13.3447C17.325 13.343 17.325 13.3412 17.325 13.3394C17.325 13.3376 17.325 13.3359 17.325 13.3341C17.325 13.3323 17.325 13.3305 17.325 13.3287C17.325 13.327 17.325 13.3252 17.325 13.3234C17.325 13.3216 17.325 13.3198 17.325 13.3181C17.325 13.3163 17.325 13.3145 17.325 13.3127C17.325 13.3109 17.325 13.3091 17.325 13.3074C17.325 13.3056 17.325 13.3038 17.325 13.302C17.325 13.3002 17.325 13.2984 17.325 13.2966C17.325 13.2948 17.325 13.2931 17.325 13.2913C17.325 13.2895 17.325 13.2877 17.325 13.2859C17.325 13.2841 17.325 13.2823 17.325 13.2805C17.325 13.2787 17.325 13.277 17.325 13.2752C17.325 13.2734 17.325 13.2716 17.325 13.2698C17.325 13.268 17.325 13.2662 17.325 13.2644C17.325 13.2626 17.325 13.2608 17.325 13.259C17.325 13.2572 17.325 13.2554 17.325 13.2536C17.325 13.2518 17.325 13.25 17.325 13.2482C17.325 13.2464 17.325 13.2446 17.325 13.2428C17.325 13.241 17.325 13.2393 17.325 13.2375C17.325 13.2357 17.325 13.2339 17.325 13.232C17.325 13.2302 17.325 13.2284 17.325 13.2266C17.325 13.2248 17.325 13.223 17.325 13.2212C17.325 13.2194 17.325 13.2176 17.325 13.2158C17.325 13.214 17.325 13.2122 17.325 13.2104C17.325 13.2086 17.325 13.2068 17.325 13.205C17.325 13.2032 17.325 13.2014 17.325 13.1996C17.325 13.1978 17.325 13.196 17.325 13.1941C17.325 13.1923 17.325 13.1905 17.325 13.1887C17.325 13.1869 17.325 13.1851 17.325 13.1833C17.325 13.1815 17.325 13.1797 17.325 13.1778C17.325 13.176 17.325 13.1742 17.325 13.1724C17.325 13.1706 17.325 13.1688 17.325 13.167C17.325 13.1652 17.325 13.1633 17.325 13.1615C17.325 13.1597 17.325 13.1579 17.325 13.1561C17.325 13.1543 17.325 13.1524 17.325 13.1506C17.325 13.1488 17.325 13.147 17.325 13.1452C17.325 13.1433 17.325 13.1415 17.325 13.1397C17.325 13.1379 17.325 13.1361 17.325 13.1342C17.325 13.1324 17.325 13.1306 17.325 13.1288C17.325 13.127 17.325 13.1251 17.325 13.1233C17.325 13.1215 17.325 13.1197 17.325 13.1178C17.325 13.116 17.325 13.1142 17.325 13.1124C17.325 13.1105 17.325 13.1087 17.325 13.1069C17.325 13.1051 17.325 13.1032 17.325 13.1014C17.325 13.0996 17.325 13.0977 17.325 13.0959C17.325 13.0941 17.325 13.0923 17.325 13.0904C17.325 13.0886 17.325 13.0868 17.325 13.0849C17.325 13.0831 17.325 13.0813 17.325 13.0794C17.325 13.0776 17.325 13.0758 17.325 13.0739C17.325 13.0721 17.325 13.0703 17.325 13.0684C17.325 13.0666 17.325 13.0648 17.325 13.0629C17.325 13.0611 17.325 13.0593 17.325 13.0574C17.325 13.0556 17.325 13.0537 17.325 13.0519C17.325 13.0501 17.325 13.0482 17.325 13.0464C17.325 13.0446 17.325 13.0427 17.325 13.0409C17.325 13.039 17.325 13.0372 17.325 13.0354C17.325 13.0335 17.325 13.0317 17.325 13.0298C17.325 13.028 17.325 13.0261 17.325 13.0243C17.325 13.0225 17.325 13.0206 17.325 13.0188C17.325 13.0169 17.325 13.0151 17.325 13.0132C17.325 13.0114 17.325 13.0095 17.325 13.0077C17.325 13.0058 17.325 13.004 17.325 13.0022C17.325 13.0003 17.325 12.9985 17.325 12.9966C17.325 12.9948 17.325 12.9929 17.325 12.9911C17.325 12.9892 17.325 12.9874 17.325 12.9855C17.325 12.9837 17.325 12.9818 17.325 12.98C17.325 12.9781 17.325 12.9762 17.325 12.9744C17.325 12.9725 17.325 12.9707 17.325 12.9688C17.325 12.967 17.325 12.9651 17.325 12.9633C17.325 12.9614 17.325 12.9596 17.325 12.9577C17.325 12.9558 17.325 12.954 17.325 12.9521C17.325 12.9503 17.325 12.9484 17.325 12.9466C17.325 12.9447 17.325 12.9428 17.325 12.941C17.325 12.9391 17.325 12.9373 17.325 12.9354C17.325 12.9335 17.325 12.9317 17.325 12.9298C17.325 12.928 17.325 12.9261 17.325 12.9242C17.325 12.9224 17.325 12.9205 17.325 12.9186C17.325 12.9168 17.325 12.9149 17.325 12.9131C17.325 12.9112 17.325 12.9093 17.325 12.9075C17.325 12.9056 17.325 12.9037 17.325 12.9019C17.325 12.9 17.325 12.8981 17.325 12.8963C17.325 12.8944 17.325 12.8925 17.325 12.8906C17.325 12.8888 17.325 12.8869 17.325 12.885C17.325 12.8832 17.325 12.8813 17.325 12.8794C17.325 12.8776 17.325 12.8757 17.325 12.8738C17.325 12.8719 17.325 12.8701 17.325 12.8682C17.325 12.8663 17.325 12.8644 17.325 12.8626C17.325 12.8607 17.325 12.8588 17.325 12.857C17.325 12.8551 17.325 12.8532 17.325 12.8513C17.325 12.8494 17.325 12.8476 17.325 12.8457C17.325 12.8438 17.325 12.8419 17.325 12.8401C17.325 12.8382 17.325 12.8363 17.325 12.8344C17.325 12.8325 17.325 12.8307 17.325 12.8288C17.325 12.8269 17.325 12.825 17.325 12.8231C17.325 12.8213 17.325 12.8194 17.325 12.8175C17.325 12.8156 17.325 12.8137 17.325 12.8118C17.325 12.81 17.325 12.8081 17.325 12.8062C17.325 12.8043 17.325 12.8024 17.325 12.8005C17.325 12.7987 17.325 12.7968 17.325 12.7949C17.325 12.793 17.325 12.7911 17.325 12.7892C17.325 12.7873 17.325 12.7854 17.325 12.7836C17.325 12.7817 17.325 12.7798 17.325 12.7779C17.325 12.776 17.325 12.7741 17.325 12.7722C17.325 12.7703 17.325 12.7684 17.325 12.7665C17.325 12.7647 17.325 12.7628 17.325 12.7609C17.325 12.759 17.325 12.7571 17.325 12.7552C17.325 12.7533 17.325 12.7514 17.325 12.7495C17.325 12.7476 17.325 12.7457 17.325 12.7438C17.325 12.7419 17.325 12.74 17.325 12.7381C17.325 12.7362 17.325 12.7343 17.325 12.7324C17.325 12.7305 17.325 12.7286 17.325 12.7267C17.325 12.7248 17.325 12.723 17.325 12.7211C17.325 12.7192 17.325 12.7173 17.325 12.7154C17.325 12.7134 17.325 12.7115 17.325 12.7096C17.325 12.7077 17.325 12.7058 17.325 12.7039C17.325 12.702 17.325 12.7001 17.325 12.6982C17.325 12.6963 17.325 12.6944 17.325 12.6925C17.325 12.6906 17.325 12.6887 17.325 12.6868C17.325 12.6849 17.325 12.683 17.325 12.6811C17.325 12.6792 17.325 12.6773 17.325 12.6754C17.325 12.6735 17.325 12.6715 17.325 12.6696C17.325 12.6677 17.325 12.6658 17.325 12.6639C17.325 12.662 17.325 12.6601 17.325 12.6582C17.325 12.6563 17.325 12.6544 17.325 12.6525C17.325 12.6505 17.325 12.6486 17.325 12.6467C17.325 12.6448 17.325 12.6429 17.325 12.641C17.325 12.6391 17.325 12.6371 17.325 12.6352C17.325 12.6333 17.325 12.6314 17.325 12.6295C17.325 12.6276 17.325 12.6257 17.325 12.6237C17.325 12.6218 17.325 12.6199 17.325 12.618C17.325 12.6161 17.325 12.6142 17.325 12.6122C17.325 12.6103 17.325 12.6084 17.325 12.6065C17.325 12.6046 17.325 12.6026 17.325 12.6007C17.325 12.5988 17.325 12.5969 17.325 12.595C17.325 12.593 17.325 12.5911 17.325 12.5892C17.325 12.5873 17.325 12.5854 17.325 12.5834C17.325 12.5815 17.325 12.5796 17.325 12.5777C17.325 12.5757 17.325 12.5738 17.325 12.5719C17.325 12.57 17.325 12.568 17.325 12.5661C17.325 12.5642 17.325 12.5623 17.325 12.5603C17.325 12.5584 17.325 12.5565 17.325 12.5545C17.325 12.5526 17.325 12.5507 17.325 12.5488C17.325 12.5468 17.325 12.5449 17.325 12.543C17.325 12.541 17.325 12.5391 17.325 12.5372C17.325 12.5353 17.325 12.5333 17.325 12.5314C17.325 12.5295 17.325 12.5275 17.325 12.5256C17.325 12.5237 17.325 12.5217 17.325 12.5198C17.325 12.5179 17.325 12.5159 17.325 12.514C17.325 12.5121 17.325 12.5101 17.325 12.5082C17.325 12.5063 17.325 12.5043 17.325 12.5024C17.325 12.5004 17.325 12.4985 17.325 12.4966C17.325 12.4946 17.325 12.4927 17.325 12.4908C17.325 12.4888 17.325 12.4869 17.325 12.4849C17.325 12.483 17.325 12.4811 17.325 12.4791C17.325 12.4772 17.325 12.4752 17.325 12.4733C17.325 12.4714 17.325 12.4694 17.325 12.4675C17.325 12.4655 17.325 12.4636 17.325 12.4616C17.325 12.4597 17.325 12.4578 17.325 12.4558C17.325 12.4539 17.325 12.4519 17.325 12.45C17.325 12.448 17.325 12.4461 17.325 12.4442C17.325 12.4422 17.325 12.4403 17.325 12.4383C17.325 12.4364 17.325 12.4344 17.325 12.4325C17.325 12.4305 17.325 12.4286 17.325 12.4266C17.325 12.4247 17.325 12.4227 17.325 12.4208C17.325 12.4188 17.325 12.4169 17.325 12.4149C17.325 12.413 17.325 12.411 17.325 12.4091C17.325 12.4071 17.325 12.4052 17.325 12.4032C17.325 12.4013 17.325 12.3993 17.325 12.3974C17.325 12.3954 17.325 12.3935 17.325 12.3915C17.325 12.3896 17.325 12.3876 17.325 12.3856C17.325 12.3837 17.325 12.3817 17.325 12.3798C17.325 12.3778 17.325 12.3759 17.325 12.3739C17.325 12.372 17.325 12.37 17.325 12.368C17.325 12.3661 17.325 12.3641 17.325 12.3622C17.325 12.3602 17.325 12.3583 17.325 12.3563C17.325 12.3543 17.325 12.3524 17.325 12.3504C17.325 12.3485 17.325 12.3465 17.325 12.3445C17.325 12.3426 17.325 12.3406 17.325 12.3386C17.325 12.3367 17.325 12.3347 17.325 12.3328C17.325 12.3308 17.325 12.3288 17.325 12.3269C17.325 12.3249 17.325 12.3229 17.325 12.321C17.325 12.319 17.325 12.317 17.325 12.3151C17.325 12.3131 17.325 12.3112 17.325 12.3092C17.325 12.3072 17.325 12.3053 17.325 12.3033C17.325 12.3013 17.325 12.2994 17.325 12.2974C17.325 12.2954 17.325 12.2934 17.325 12.2915C17.325 12.2895 17.325 12.2875 17.325 12.2856C17.325 12.2836 17.325 12.2816 17.325 12.2797C17.325 12.2777 17.325 12.2757 17.325 12.2737C17.325 12.2718 17.325 12.2698 17.325 12.2678C17.325 12.2659 17.325 12.2639 17.325 12.2619C17.325 12.2599 17.325 12.258 17.325 12.256C17.325 12.254 17.325 12.252 17.325 12.2501C17.325 12.2481 17.325 12.2461 17.325 12.2441C17.325 12.2422 17.325 12.2402 17.325 12.2382C17.325 12.2362 17.325 12.2343 17.325 12.2323C17.325 12.2303 17.325 12.2283 17.325 12.2263C17.325 12.2244 17.325 12.2224 17.325 12.2204C17.325 12.2184 17.325 12.2164 17.325 12.2145C17.325 12.2125 17.325 12.2105 17.325 12.2085C17.325 12.2065 17.325 12.2046 17.325 12.2026C17.325 12.2006 17.325 12.1986 17.325 12.1966C17.325 12.1947 17.325 12.1927 17.325 12.1907C17.325 12.1887 17.325 12.1867 17.325 12.1847C17.325 12.1827 17.325 12.1808 17.325 12.1788C17.325 12.1768 17.325 12.1748 17.325 12.1728C17.325 12.1708 17.325 12.1688 17.325 12.1669C17.325 12.1649 17.325 12.1629 17.325 12.1609C17.325 12.1589 17.325 12.1569 17.325 12.1549C17.325 12.1529 17.325 12.151 17.325 12.149C17.325 12.147 17.325 12.145 17.325 12.143C17.325 12.141 17.325 12.139 17.325 12.137C17.325 12.135 17.325 12.133 17.325 12.1311C17.325 12.1291 17.325 12.1271 17.325 12.1251C17.325 12.1231 17.325 12.1211 17.325 12.1191C17.325 12.1171 17.325 12.1151 17.325 12.1131C17.325 12.1111 17.325 12.1091 17.325 12.1071C17.325 12.1051 17.325 12.1031 17.325 12.1011C17.325 12.0991 17.325 12.0971 17.325 12.0952C17.325 12.0932 17.325 12.0912 17.325 12.0892C17.325 12.0872 17.325 12.0852 17.325 12.0832C17.325 12.0812 17.325 12.0792 17.325 12.0772C17.325 12.0752 17.325 12.0732 17.325 12.0712C17.325 12.0692 17.325 12.0672 17.325 12.0652C17.325 12.0632 17.325 12.0612 17.325 12.0592C17.325 12.0572 17.325 12.0552 17.325 12.0532C17.325 12.0512 17.325 12.0491 17.325 12.0471C17.325 12.0451 17.325 12.0431 17.325 12.0411C17.325 12.0391 17.325 12.0371 17.325 12.0351C17.325 12.0331 17.325 12.0311 17.325 12.0291C17.325 12.0271 17.325 12.0251 17.325 12.0231C17.325 12.0211 17.325 12.0191 17.325 12.0171C17.325 12.0151 17.325 12.013 17.325 12.011C17.325 12.009 17.325 12.007 17.325 12.005C17.325 12.003 17.325 12.001 17.325 11.999C17.325 11.997 17.325 11.995 17.325 11.993C17.325 11.9909 17.325 11.9889 17.325 11.9869C17.325 11.9849 17.325 11.9829 17.325 11.9809C17.325 11.9789 17.325 11.9769 17.325 11.9748C17.325 11.9728 17.325 11.9708 17.325 11.9688C17.325 11.9668 17.325 11.9648 17.325 11.9628C17.325 11.9607 17.325 11.9587 17.325 11.9567C17.325 11.9547 17.325 11.9527 17.325 11.9507C17.325 11.9487 17.325 11.9466 17.325 11.9446C17.325 11.9426 17.325 11.9406 17.325 11.9386C17.325 11.9366 17.325 11.9345 17.325 11.9325C17.325 11.9305 17.325 11.9285 17.325 11.9265C17.325 11.9244 17.325 11.9224 17.325 11.9204C17.325 11.9184 17.325 11.9164 17.325 11.9143C17.325 11.9123 17.325 11.9103 17.325 11.9083C17.325 11.9063 17.325 11.9042 17.325 11.9022C17.325 11.9002 17.325 11.8982 17.325 11.8961C17.325 11.8941 17.325 11.8921 17.325 11.8901C17.325 11.888 17.325 11.886 17.325 11.884C17.325 11.882 17.325 11.8799 17.325 11.8779C17.325 11.8759 17.325 11.8739 17.325 11.8718C17.325 11.8698 17.325 11.8678 17.325 11.8658C17.325 11.8637 17.325 11.8617 17.325 11.8597C17.325 11.8577 17.325 11.8556 17.325 11.8536C17.325 11.8516 17.325 11.8495 17.325 11.8475C17.325 11.8455 17.325 11.8435 17.325 11.8414C17.325 11.8394 17.325 11.8374 17.325 11.8353C17.325 11.8333 17.325 11.8313 17.325 11.8292C17.325 11.8272 17.325 11.8252 17.325 11.8231C17.325 11.8211 17.325 11.8191 17.325 11.817C17.325 11.815 17.325 11.813 17.325 11.8109C17.325 11.8089 17.325 11.8069 17.325 11.8048C17.325 11.8028 17.325 11.8008 17.325 11.7987C17.325 11.7967 17.325 11.7947 17.325 11.7926C17.325 11.7906 17.325 11.7886 17.325 11.7865C17.325 11.7845 17.325 11.7824 17.325 11.7804C17.325 11.7784 17.325 11.7763 17.325 11.7743C17.325 11.7723 17.325 11.7702 17.325 11.7682C17.325 11.7661 17.325 11.7641 17.325 11.7621C17.325 11.76 17.325 11.758 17.325 11.7559C17.325 11.7539 17.325 11.7519 17.325 11.7498C17.325 11.7478 17.325 11.7457 17.325 11.7437C17.325 11.7417 17.325 11.7396 17.325 11.7376C17.325 11.7355 17.325 11.7335 17.325 11.7314C17.325 11.7294 17.325 11.7273 17.325 11.7253C17.325 11.7233 17.325 11.7212 17.325 11.7192C17.325 11.7171 17.325 11.7151 17.325 11.713C17.325 11.711 17.325 11.7089 17.325 11.7069C17.325 11.7049 17.325 11.7028 17.325 11.7008C17.325 11.6987 17.325 11.6967 17.325 11.6946C17.325 11.6926 17.325 11.6905 17.325 11.6885C17.325 11.6864 17.325 11.6844 17.325 11.6823C17.325 11.6803 17.325 11.6782 17.325 11.6762C17.325 11.6741 17.325 11.6721 17.325 11.67C17.325 11.668 17.325 11.6659 17.325 11.6639C17.325 11.6618 17.325 11.6598 17.325 11.6577C17.325 11.6557 17.325 11.6536 17.325 11.6516C17.325 11.6495 17.325 11.6475 17.325 11.6454C17.325 11.6434 17.325 11.6413 17.325 11.6392C17.325 11.6372 17.325 11.6351 17.325 11.6331C17.325 11.631 17.325 11.629 17.325 11.6269C17.325 11.6249 17.325 11.6228 17.325 11.6207C17.325 11.6187 17.325 11.6166 17.325 11.6146C17.325 11.6125 17.325 11.6105 17.325 11.6084C17.325 11.6064 17.325 11.6043 17.325 11.6022C17.325 11.6002 17.325 11.5981 17.325 11.5961C17.325 11.594 17.325 11.5919 17.325 11.5899C17.325 11.5878 17.325 11.5858 17.325 11.5837C17.325 11.5816 17.325 11.5796 17.325 11.5775C17.325 11.5755 17.325 11.5734 17.325 11.5713C17.325 11.5693 17.325 11.5672 17.325 11.5652C17.325 11.5631 17.325 11.561 17.325 11.559C17.325 11.5569 17.325 11.5548 17.325 11.5528C17.325 11.5507 17.325 11.5486 17.325 11.5466C17.325 11.5445 17.325 11.5425 17.325 11.5404C17.325 11.5383 17.325 11.5363 17.325 11.5342C17.325 11.5321 17.325 11.5301 17.325 11.528C17.325 11.5259 17.325 11.5239 17.325 11.5218C17.325 11.5197 17.325 11.5177 17.325 11.5156C17.325 11.5135 17.325 11.5115 17.325 11.5094C17.325 11.5073 17.325 11.5052 17.325 11.5032C17.325 11.5011 17.325 11.499 17.325 11.497C17.325 11.4949 17.325 11.4928 17.325 11.4908C17.325 11.4887 17.325 11.4866 17.325 11.4845C17.325 11.4825 17.325 11.4804 17.325 11.4783C17.325 11.4763 17.325 11.4742 17.325 11.4721C17.325 11.47 17.325 11.468 17.325 11.4659C17.325 11.4638 17.325 11.4618 17.325 11.4597C17.325 11.4576 17.325 11.4555 17.325 11.4535C17.325 11.4514 17.325 11.4493 17.325 11.4472C17.325 11.4452 17.325 11.4431 17.325 11.441C17.325 11.4389 17.325 11.4369 17.325 11.4348C17.325 11.4327 17.325 11.4306 17.325 11.4286C17.325 11.4265 17.325 11.4244 17.325 11.4223C17.325 11.4202 17.325 11.4182 17.325 11.4161C17.325 11.414 17.325 11.4119 17.325 11.4099C17.325 11.4078 17.325 11.4057 17.325 11.4036C17.325 11.4015 17.325 11.3995 17.325 11.3974C17.325 11.3953 17.325 11.3932 17.325 11.3911C17.325 11.3891 17.325 11.387 17.325 11.3849C17.325 11.3828 17.325 11.3807 17.325 11.3786C17.325 11.3766 17.325 11.3745 17.325 11.3724C17.325 11.3703 17.325 11.3682 17.325 11.3662C17.325 11.3641 17.325 11.362 17.325 11.3599C17.325 11.3578 17.325 11.3557 17.325 11.3536C17.325 11.3516 17.325 11.3495 17.325 11.3474C17.325 11.3453 17.325 11.3432 17.325 11.3411C17.325 11.3391 17.325 11.337 17.325 11.3349C17.325 11.3328 17.325 11.3307 17.325 11.3286C17.325 11.3265 17.325 11.3244 17.325 11.3224C17.325 11.3203 17.325 11.3182 17.325 11.3161C17.325 11.314 17.325 11.3119 17.325 11.3098C17.325 11.3077 17.325 11.3057 17.325 11.3036C17.325 11.3015 17.325 11.2994 17.325 11.2973C17.325 11.2952 17.325 11.2931 17.325 11.291C17.325 11.2889 17.325 11.2868 17.325 11.2847C17.325 11.2827 17.325 11.2806 17.325 11.2785C17.325 11.2764 17.325 11.2743 17.325 11.2722C17.325 11.2701 17.325 11.268 17.325 11.2659C17.325 11.2638 17.325 11.2617 17.325 11.2596C17.325 11.2575 17.325 11.2555 17.325 11.2534C17.325 11.2513 17.325 11.2492 17.325 11.2471C17.325 11.245 17.325 11.2429 17.325 11.2408C17.325 11.2387 17.325 11.2366 17.325 11.2345C17.325 11.2324 17.325 11.2303 17.325 11.2282C17.325 11.2261 17.325 11.224 17.325 11.2219C17.325 11.2198 17.325 11.2177 17.325 11.2156C17.325 11.2135 17.325 11.2114 17.325 11.2093C17.325 11.2072 17.325 11.2051 17.325 11.203C17.325 11.2009 17.325 11.1988 17.325 11.1967C17.325 11.1946 17.325 11.1925 17.325 11.1904C17.325 11.1883 17.325 11.1862 17.325 11.1841C17.325 11.182 17.325 11.1799 17.325 11.1778C17.325 11.1757 17.325 11.1736 17.325 11.1715C17.325 11.1694 17.325 11.1673 17.325 11.1652C17.325 11.1631 17.325 11.161 17.325 11.1589C17.325 11.1568 17.325 11.1547 17.325 11.1526C17.325 11.1505 17.325 11.1484 17.325 11.1463C17.325 11.1442 17.325 11.1421 17.325 11.14C17.325 11.1379 17.325 11.1358 17.325 11.1337C17.325 11.1316 17.325 11.1295 17.325 11.1273C17.325 11.1252 17.325 11.1231 17.325 11.121C17.325 11.1189 17.325 11.1168 17.325 11.1147C17.325 11.1126 17.325 11.1105 17.325 11.1084C17.325 11.1063 17.325 11.1042 17.325 11.1021C17.325 11.1 17.325 11.0978 17.325 11.0957C17.325 11.0936 17.325 11.0915 17.325 11.0894C17.325 11.0873 17.325 11.0852 17.325 11.0831C17.325 11.081 17.325 11.0789 17.325 11.0768C17.325 11.0746 17.325 11.0725 17.325 11.0704C17.325 11.0683 17.325 11.0662 17.325 11.0641C17.325 11.062 17.325 11.0599 17.325 11.0578C17.325 11.0556 17.325 11.0535 17.325 11.0514C17.325 11.0493 17.325 11.0472 17.325 11.0451C17.325 11.043 17.325 11.0409 17.325 11.0387C17.325 11.0366 17.325 11.0345 17.325 11.0324C17.325 11.0303 17.325 11.0282 17.325 11.0261C17.325 11.0239 17.325 11.0218 17.325 11.0197C17.325 11.0176 17.325 11.0155 17.325 11.0134C17.325 11.0112 17.325 11.0091 17.325 11.007C17.325 11.0049 17.325 11.0028 17.325 11.0007C17.325 10.9985 17.325 10.9964 17.325 10.9943C17.325 10.9922 17.325 10.9901 17.325 10.988C17.325 10.9858 17.325 10.9837 17.325 10.9816C17.325 10.9795 17.325 10.9774 17.325 10.9752C17.325 10.9731 17.325 10.971 17.325 10.9689C17.325 10.9668 17.325 10.9647 17.325 10.9625C17.325 10.9604 17.325 10.9583 17.325 10.9562C17.325 10.954 17.325 10.9519 17.325 10.9498C17.325 10.9477 17.325 10.9456 17.325 10.9434C17.325 10.9413 17.325 10.9392 17.325 10.9371C17.325 10.935 17.325 10.9328 17.325 10.9307C17.325 10.9286 17.325 10.9265 17.325 10.9243C17.325 10.9222 17.325 10.9201 17.325 10.918C17.325 10.9158 17.325 10.9137 17.325 10.9116C17.325 10.9095 17.325 10.9074 17.325 10.9052C17.325 10.9031 17.325 10.901 17.325 10.8989C17.325 10.8967 17.325 10.8946 17.325 10.8925C17.325 10.8903 17.325 10.8882 17.325 10.8861C17.325 10.884 17.325 10.8818 17.325 10.8797C17.325 10.8776 17.325 10.8755 17.325 10.8733C17.325 10.8712 17.325 10.8691 17.325 10.867C17.325 10.8648 17.325 10.8627 17.325 10.8606C17.325 10.8584 17.325 10.8563 17.325 10.8542C17.325 10.8521 17.325 10.8499 17.325 10.8478C17.325 10.8457 17.325 10.8435 17.325 10.8414C17.325 10.8393 17.325 10.8371 17.325 10.835C17.325 10.8329 17.325 10.8308 17.325 10.8286C17.325 10.8265 17.325 10.8244 17.325 10.8222C17.325 10.8201 17.325 10.818 17.325 10.8158C17.325 10.8137 17.325 10.8116 17.325 10.8094C17.325 10.8073 17.325 10.8052 17.325 10.803C17.325 10.8009 17.325 10.7988 17.325 10.7966C17.325 10.7945 17.325 10.7924 17.325 10.7902C17.325 10.7881 17.325 10.786 17.325 10.7838C17.325 10.7817 17.325 10.7796 17.325 10.7774C17.325 10.7753 17.325 10.7732 17.325 10.771C17.325 10.7689 17.325 10.7668 17.325 10.7646C17.325 10.7625 17.325 10.7604 17.325 10.7582C17.325 10.7561 17.325 10.754 17.325 10.7518C17.325 10.7497 17.325 10.7475 17.325 10.7454C17.325 10.7433 17.325 10.7411 17.325 10.739C17.325 10.7369 17.325 10.7347 17.325 10.7326C17.325 10.7304 17.325 10.7283 17.325 10.7262C17.325 10.724 17.325 10.7219 17.325 10.7198C17.325 10.7176 17.325 10.7155 17.325 10.7133C17.325 10.7112 17.325 10.7091 17.325 10.7069C17.325 10.7048 17.325 10.7026 17.325 10.7005C17.325 10.6984 17.325 10.6962 17.325 10.6941C17.325 10.6919 17.325 10.6898 17.325 10.6877C17.325 10.6855 17.325 10.6834 17.325 10.6812C17.325 10.6791 17.325 10.677 17.325 10.6748C17.325 10.6727 17.325 10.6705 17.325 10.6684C17.325 10.6662 17.325 10.6641 17.325 10.662C17.325 10.6598 17.325 10.6577 17.325 10.6555C17.325 10.6534 17.325 10.6512 17.325 10.6491C17.325 10.647 17.325 10.6448 17.325 10.6427C17.325 10.6405 17.325 10.6384 17.325 10.6362C17.325 10.6341 17.325 10.6319 17.325 10.6298C17.325 10.6276 17.325 10.6255 17.325 10.6234C17.325 10.6212 17.325 10.6191 17.325 10.6169C17.325 10.6148 17.325 10.6126 17.325 10.6105C17.325 10.6083 17.325 10.6062 17.325 10.604C17.325 10.6019 17.325 10.5997 17.325 10.5976C17.325 10.5955 17.325 10.5933 17.325 10.5912C17.325 10.589 17.325 10.5869 17.325 10.5847C17.325 10.5826 17.325 10.5804 17.325 10.5783C17.325 10.5761 17.325 10.574 17.325 10.5718C17.325 10.5697 17.325 10.5675 17.325 10.5654C17.325 10.5632 17.325 10.5611 17.325 10.5589C17.325 10.5568 17.325 10.5546 17.325 10.5525C17.325 10.5503 17.325 10.5482 17.325 10.546C17.325 10.5439 17.325 10.5417 17.325 10.5396C17.325 10.5374 17.325 10.5353 17.325 10.5331C17.325 10.531 17.325 10.5288 17.325 10.5267C17.325 10.5245 17.325 10.5224 17.325 10.5202C17.325 10.5181 17.325 10.5159 17.325 10.5138C17.325 10.5116 17.325 10.5094 17.325 10.5073C17.325 10.5051 17.325 10.503 17.325 10.5008C17.325 10.4987 17.325 10.4965 17.325 10.4944C17.325 10.4922 17.325 10.4901 17.325 10.4879C17.325 10.4858 17.325 10.4836 17.325 10.4814C17.325 10.4793 17.325 10.4771 17.325 10.475C17.325 10.4728 17.325 10.4707 17.325 10.4685C17.325 10.4664 17.325 10.4642 17.325 10.4621C17.325 10.4599 17.325 10.4577 17.325 10.4556C17.325 10.4534 17.325 10.4513 17.325 10.4491C17.325 10.447 17.325 10.4448 17.325 10.4426C17.325 10.4405 17.325 10.4383 17.325 10.4362C17.325 10.434 17.325 10.4319 17.325 10.4297C17.325 10.4275 17.325 10.4254 17.325 10.4232C17.325 10.4211 17.325 10.4189 17.325 10.4167L15.925 10.4167ZM3.075 13.4716C3.075 12.5768 3.075 11.522 3.075 10.4167L1.675 10.4167C1.675 11.522 1.675 12.5768 1.675 13.4716L3.075 13.4716ZM13.9346 15.7024C12.5249 15.8373 10.8239 15.9667 9.5 15.9667L9.5 17.3667C10.8938 17.3667 12.6496 17.2318 14.0681 17.096L13.9346 15.7024ZM9.5 15.9667C8.17606 15.9667 6.47511 15.8373 5.06535 15.7024L4.93191 17.096C6.3504 17.2318 8.10618 17.3667 9.5 17.3667L9.5 15.9667ZM1.675 13.4716C1.675 15.3296 3.05797 16.9165 4.93191 17.096L5.06535 15.7024C3.93393 15.594 3.075 14.6328 3.075 13.4716L1.675 13.4716ZM15.925 13.4716C15.925 14.6328 15.0661 15.594 13.9346 15.7024L14.0681 17.096C15.942 16.9165 17.325 15.3296 17.325 13.4716L15.925 13.4716Z" fill="#4470FF"/>
</svg>
