<svg width="24" height="25" viewBox="0 0 24 25" fill="none" xmlns="http://www.w3.org/2000/svg">
<g clip-path="url(#clip0)">
<rect x="2" y="4.5" width="20" height="16" rx="1" stroke="#7D87A6" stroke-width="1.4"/>
<path d="M16.4556 11.0315C16.7491 10.7799 16.7831 10.338 16.5315 10.0444C16.2799 9.75092 15.838 9.71692 15.5444 9.96852L16.4556 11.0315ZM8.45555 9.96852C8.16203 9.71692 7.72012 9.75092 7.46852 10.0444C7.21692 10.338 7.25092 10.7799 7.54445 11.0315L8.45555 9.96852ZM12 14.2C12.1744 14.2 12.3228 14.143 12.395 14.1131C12.4859 14.0755 12.5774 14.0276 12.6627 13.9789C12.8345 13.8807 13.0331 13.7489 13.2396 13.6031C13.6553 13.3097 14.1526 12.9244 14.6248 12.5466C15.099 12.1673 15.5564 11.7887 15.8947 11.5055C16.064 11.3637 16.2038 11.2455 16.3015 11.1627C16.3504 11.1212 16.3887 11.0886 16.4149 11.0662C16.428 11.0551 16.438 11.0465 16.4449 11.0406C16.4483 11.0377 16.4509 11.0354 16.4527 11.0339C16.4536 11.0331 16.4543 11.0326 16.4548 11.0322C16.455 11.0319 16.4552 11.0318 16.4553 11.0317C16.4554 11.0316 16.4554 11.0316 16.4555 11.0315C16.4555 11.0315 16.4556 11.0315 16 10.5C15.5444 9.96852 15.5445 9.96852 15.5444 9.96852C15.5444 9.96854 15.5444 9.96856 15.5444 9.96859C15.5443 9.96866 15.5441 9.96878 15.544 9.96894C15.5436 9.96926 15.543 9.96976 15.5422 9.97044C15.5406 9.9718 15.5382 9.97386 15.535 9.97661C15.5286 9.98211 15.5189 9.99035 15.5063 10.0011C15.481 10.0227 15.4436 10.0546 15.3957 10.0951C15.3001 10.1763 15.1626 10.2925 14.996 10.432C14.6624 10.7113 14.2135 11.0827 13.7502 11.4534C13.2849 11.8256 12.8134 12.1903 12.4323 12.4594C12.2403 12.5949 12.0834 12.6974 11.9681 12.7633C11.9099 12.7966 11.875 12.8132 11.8597 12.8195C11.8256 12.8336 11.8881 12.8 12 12.8V14.2ZM12 12.8C12.1119 12.8 12.1744 12.8336 12.1403 12.8195C12.125 12.8132 12.0901 12.7966 12.0319 12.7633C11.9166 12.6974 11.7597 12.5949 11.5677 12.4594C11.1866 12.1903 10.7151 11.8256 10.2498 11.4534C9.78647 11.0827 9.33762 10.7113 9.00404 10.432C8.83742 10.2925 8.69994 10.1763 8.60425 10.0951C8.55642 10.0546 8.51905 10.0227 8.49373 10.0011C8.48108 9.99035 8.47143 9.98211 8.465 9.97661C8.46179 9.97386 8.45938 9.9718 8.4578 9.97044C8.457 9.96976 8.45642 9.96926 8.45604 9.96894C8.45586 9.96878 8.45572 9.96866 8.45564 9.96859C8.4556 9.96856 8.45558 9.96854 8.45556 9.96852C8.45555 9.96852 8.45555 9.96852 8 10.5C7.54445 11.0315 7.54448 11.0315 7.54452 11.0315C7.54456 11.0316 7.54461 11.0316 7.54468 11.0317C7.54481 11.0318 7.54499 11.0319 7.54523 11.0322C7.54571 11.0326 7.54639 11.0331 7.54728 11.0339C7.54907 11.0354 7.55168 11.0377 7.55511 11.0406C7.56195 11.0465 7.57202 11.0551 7.58512 11.0662C7.61132 11.0886 7.64964 11.1212 7.69848 11.1627C7.79616 11.2455 7.93602 11.3637 8.10533 11.5055C8.44363 11.7887 8.90103 12.1673 9.37521 12.5466C9.84743 12.9244 10.3447 13.3097 10.7604 13.6031C10.9669 13.7489 11.1655 13.8807 11.3373 13.9789C11.4226 14.0276 11.5141 14.0755 11.605 14.1131C11.6772 14.143 11.8256 14.2 12 14.2V12.8Z" fill="#7D87A6"/>
</g>
<defs>
<clipPath id="clip0">
<rect width="24" height="24" fill="white" transform="translate(0 0.5)"/>
</clipPath>
</defs>
</svg>
