<svg width="20" height="20" viewBox="0 0 20 20" fill="none" xmlns="http://www.w3.org/2000/svg">
<path d="M9.06106 4.54507C9.37356 4.0337 9.57544 3.7057 9.74749 3.48793C9.86569 3.33833 9.92681 3.29825 9.94292 3.28989C9.98041 3.28267 10.0189 3.28267 10.0564 3.28989C10.0725 3.29825 10.1337 3.33833 10.2519 3.48793C10.4239 3.7057 10.6258 4.0337 10.9383 4.54507L16.8954 14.2932C17.2316 14.8432 17.4489 15.2011 17.5737 15.4745C17.6596 15.6625 17.6679 15.7415 17.668 15.7611C17.656 15.7975 17.6371 15.8312 17.6123 15.8605C17.5954 15.8706 17.5238 15.9047 17.3185 15.9295C17.0202 15.9655 16.6014 15.9667 15.9568 15.9667H4.04251C3.39793 15.9667 2.97914 15.9655 2.68085 15.9295C2.47557 15.9047 2.40389 15.8706 2.38702 15.8605C2.36228 15.8312 2.34336 15.7975 2.33131 15.7612C2.33145 15.7415 2.33975 15.6625 2.42564 15.4745C2.55046 15.2011 2.76778 14.8432 3.1039 14.2932L9.06106 4.54507ZM9.94732 3.28802C9.9473 3.28814 9.94611 3.28873 9.94381 3.28944C9.94619 3.28826 9.94734 3.2879 9.94732 3.28802ZM10.052 3.28802C10.052 3.2879 10.0532 3.28826 10.0555 3.28944C10.0532 3.28873 10.052 3.28814 10.052 3.28802ZM17.6677 15.7663C17.6677 15.7662 17.6677 15.7651 17.668 15.763L17.6677 15.7663ZM17.6166 15.8575C17.6166 15.8576 17.6159 15.8583 17.6139 15.8595C17.6155 15.8581 17.6165 15.8575 17.6166 15.8575ZM2.38279 15.8575C2.38287 15.8575 2.38383 15.8581 2.38542 15.8595C2.3835 15.8583 2.3827 15.8576 2.38279 15.8575ZM2.33162 15.7663C2.33154 15.7664 2.33137 15.7653 2.33132 15.763L2.33162 15.7663Z" stroke="white" stroke-width="1.4"/>
<path d="M10 8.3335V11.6668" stroke="white" stroke-width="1.4" stroke-linecap="round"/>
<path d="M10.5827 13.5833C10.5827 13.9055 10.3215 14.1667 9.99935 14.1667C9.67718 14.1667 9.41601 13.9055 9.41601 13.5833C9.41601 13.2612 9.67718 13 9.99935 13C10.3215 13 10.5827 13.2612 10.5827 13.5833Z" fill="white"/>
</svg>
