<svg width="16" height="16" viewBox="0 0 16 16" fill="none" xmlns="http://www.w3.org/2000/svg">
<path fill-rule="evenodd" clip-rule="evenodd" d="M8.00052 1.80003C4.57636 1.80003 1.80052 4.57587 1.80052 8.00003C1.80052 11.4242 4.57636 14.2 8.00052 14.2C11.4247 14.2 14.2005 11.4242 14.2005 8.00003C14.2005 4.57587 11.4247 1.80003 8.00052 1.80003ZM0.867188 8.00003C0.867188 4.0604 4.06089 0.866699 8.00052 0.866699C11.9402 0.866699 15.1339 4.0604 15.1339 8.00003C15.1339 11.9397 11.9402 15.1334 8.00052 15.1334C4.06089 15.1334 0.867188 11.9397 0.867188 8.00003Z" fill="#4470FF"/>
<path d="M8.46849 5.13341C8.46849 5.39115 8.25956 5.60008 8.00182 5.60008C7.74409 5.60008 7.53516 5.39115 7.53516 5.13341C7.53516 4.87568 7.74409 4.66675 8.00182 4.66675C8.25956 4.66675 8.46849 4.87568 8.46849 5.13341Z" fill="#4470FF"/>
<path fill-rule="evenodd" clip-rule="evenodd" d="M8.00208 6.8667C8.25982 6.8667 8.46875 7.07563 8.46875 7.33337V11.3334C8.46875 11.5911 8.25982 11.8 8.00208 11.8C7.74435 11.8 7.53542 11.5911 7.53542 11.3334V7.33337C7.53542 7.07563 7.74435 6.8667 8.00208 6.8667Z" fill="#4470FF"/>
</svg>
