<svg width="20" height="20" viewBox="0 0 20 20" fill="none" xmlns="http://www.w3.org/2000/svg">
<path d="M17.5 4.5C17.5 3.39543 16.6046 2.5 15.5 2.5H4.5C3.39543 2.5 2.5 3.39543 2.5 4.5V15.5C2.5 16.6046 3.39543 17.5 4.5 17.5H15.5C16.6046 17.5 17.5 16.6046 17.5 15.5V4.5ZM14.1667 10C14.1667 10.4602 13.7936 10.8333 13.3333 10.8333H6.66667C6.20643 10.8333 5.83333 10.4602 5.83333 10C5.83333 9.53976 6.20643 9.16667 6.66667 9.16667H13.3333C13.7936 9.16667 14.1667 9.53976 14.1667 10Z" fill="#7D87A6"/>
</svg>
