<svg width="20" height="20" viewBox="0 0 20 20" fill="none" xmlns="http://www.w3.org/2000/svg">
<path d="M6.94336 10L15.2767 10" stroke="#4470FF" stroke-width="1.4" stroke-linecap="round"/>
<line x1="15.8175" y1="10" x2="13.3327" y2="7.5152" stroke="#4470FF" stroke-width="1.2" stroke-linecap="round"/>
<line x1="0.6" y1="-0.6" x2="4.11404" y2="-0.6" transform="matrix(-0.707107 0.707107 0.707107 0.707107 16.666 10)" stroke="#4470FF" stroke-width="1.2" stroke-linecap="round"/>
<path d="M9.58203 3.2C9.96863 3.2 10.282 2.8866 10.282 2.5C10.282 2.1134 9.96863 1.8 9.58203 1.8L9.58203 3.2ZM9.58203 18.2C9.96863 18.2 10.282 17.8866 10.282 17.5C10.282 17.1134 9.96863 16.8 9.58203 16.8L9.58203 18.2ZM3.61052 14.8575L4.30757 14.7932L3.61052 14.8575ZM9.58203 16.8C9.57988 16.8 9.57774 16.8 9.5756 16.8C9.57345 16.8 9.57131 16.8 9.56916 16.8C9.56702 16.8 9.56487 16.8 9.56273 16.8C9.56058 16.8 9.55844 16.8 9.5563 16.8C9.55415 16.8 9.55201 16.8 9.54987 16.8C9.54772 16.8 9.54558 16.8 9.54344 16.8C9.5413 16.8 9.53915 16.8 9.53701 16.8C9.53487 16.8 9.53273 16.8 9.53058 16.8C9.52844 16.8 9.5263 16.8 9.52416 16.8C9.52202 16.8 9.51987 16.8 9.51773 16.8C9.51559 16.8 9.51345 16.8 9.51131 16.8C9.50917 16.8 9.50703 16.8 9.50489 16.8C9.50275 16.8 9.50061 16.8 9.49847 16.8C9.49633 16.8 9.49419 16.8 9.49205 16.8C9.48991 16.8 9.48777 16.8 9.48563 16.8C9.48349 16.8 9.48135 16.8 9.47921 16.8C9.47707 16.8 9.47493 16.8 9.4728 16.8C9.47066 16.8 9.46852 16.8 9.46638 16.8C9.46424 16.8 9.46211 16.8 9.45997 16.8C9.45783 16.8 9.45569 16.8 9.45356 16.8C9.45142 16.8 9.44928 16.8 9.44714 16.8C9.44501 16.8 9.44287 16.8 9.44073 16.8C9.4386 16.8 9.43646 16.8 9.43433 16.8C9.43219 16.8 9.43005 16.8 9.42792 16.8C9.42578 16.8 9.42365 16.8 9.42151 16.8C9.41938 16.8 9.41724 16.8 9.41511 16.8C9.41297 16.8 9.41084 16.8 9.4087 16.8C9.40657 16.8 9.40444 16.8 9.4023 16.8C9.40017 16.8 9.39803 16.8 9.3959 16.8C9.39377 16.8 9.39163 16.8 9.3895 16.8C9.38737 16.8 9.38524 16.8 9.3831 16.8C9.38097 16.8 9.37884 16.8 9.37671 16.8C9.37457 16.8 9.37244 16.8 9.37031 16.8C9.36818 16.8 9.36605 16.8 9.36391 16.8C9.36178 16.8 9.35965 16.8 9.35752 16.8C9.35539 16.8 9.35326 16.8 9.35113 16.8C9.349 16.8 9.34687 16.8 9.34474 16.8C9.34261 16.8 9.34048 16.8 9.33835 16.8C9.33622 16.8 9.33409 16.8 9.33196 16.8C9.32983 16.8 9.3277 16.8 9.32557 16.8C9.32345 16.8 9.32132 16.8 9.31919 16.8C9.31706 16.8 9.31493 16.8 9.31281 16.8C9.31068 16.8 9.30855 16.8 9.30642 16.8C9.3043 16.8 9.30217 16.8 9.30004 16.8C9.29791 16.8 9.29579 16.8 9.29366 16.8C9.29153 16.8 9.28941 16.8 9.28728 16.8C9.28516 16.8 9.28303 16.8 9.28091 16.8C9.27878 16.8 9.27665 16.8 9.27453 16.8C9.2724 16.8 9.27028 16.8 9.26815 16.8C9.26603 16.8 9.26391 16.8 9.26178 16.8C9.25966 16.8 9.25753 16.8 9.25541 16.8C9.25329 16.8 9.25116 16.8 9.24904 16.8C9.24692 16.8 9.24479 16.8 9.24267 16.8C9.24055 16.8 9.23842 16.8 9.2363 16.8C9.23418 16.8 9.23206 16.8 9.22994 16.8C9.22781 16.8 9.22569 16.8 9.22357 16.8C9.22145 16.8 9.21933 16.8 9.21721 16.8C9.21509 16.8 9.21297 16.8 9.21085 16.8C9.20873 16.8 9.20661 16.8 9.20449 16.8C9.20237 16.8 9.20025 16.8 9.19813 16.8C9.19601 16.8 9.19389 16.8 9.19177 16.8C9.18965 16.8 9.18753 16.8 9.18541 16.8C9.18329 16.8 9.18118 16.8 9.17906 16.8C9.17694 16.8 9.17482 16.8 9.1727 16.8C9.17059 16.8 9.16847 16.8 9.16635 16.8C9.16423 16.8 9.16212 16.8 9.16 16.8C9.15788 16.8 9.15577 16.8 9.15365 16.8C9.15154 16.8 9.14942 16.8 9.1473 16.8C9.14519 16.8 9.14307 16.8 9.14096 16.8C9.13884 16.8 9.13673 16.8 9.13461 16.8C9.1325 16.8 9.13038 16.8 9.12827 16.8C9.12616 16.8 9.12404 16.8 9.12193 16.8C9.11982 16.8 9.1177 16.8 9.11559 16.8C9.11348 16.8 9.11136 16.8 9.10925 16.8C9.10714 16.8 9.10502 16.8 9.10291 16.8C9.1008 16.8 9.09869 16.8 9.09658 16.8C9.09447 16.8 9.09235 16.8 9.09024 16.8C9.08813 16.8 9.08602 16.8 9.08391 16.8C9.0818 16.8 9.07969 16.8 9.07758 16.8C9.07547 16.8 9.07336 16.8 9.07125 16.8C9.06914 16.8 9.06703 16.8 9.06492 16.8C9.06281 16.8 9.0607 16.8 9.05859 16.8C9.05649 16.8 9.05438 16.8 9.05227 16.8C9.05016 16.8 9.04805 16.8 9.04595 16.8C9.04384 16.8 9.04173 16.8 9.03962 16.8C9.03752 16.8 9.03541 16.8 9.0333 16.8C9.0312 16.8 9.02909 16.8 9.02698 16.8C9.02488 16.8 9.02277 16.8 9.02067 16.8C9.01856 16.8 9.01646 16.8 9.01435 16.8C9.01225 16.8 9.01014 16.8 9.00804 16.8C9.00593 16.8 9.00383 16.8 9.00172 16.8C8.99962 16.8 8.99752 16.8 8.99541 16.8C8.99331 16.8 8.99121 16.8 8.9891 16.8C8.987 16.8 8.9849 16.8 8.98279 16.8C8.98069 16.8 8.97859 16.8 8.97649 16.8C8.97439 16.8 8.97228 16.8 8.97018 16.8C8.96808 16.8 8.96598 16.8 8.96388 16.8C8.96178 16.8 8.95968 16.8 8.95758 16.8C8.95548 16.8 8.95338 16.8 8.95128 16.8C8.94918 16.8 8.94708 16.8 8.94498 16.8C8.94288 16.8 8.94078 16.8 8.93868 16.8C8.93659 16.8 8.93449 16.8 8.93239 16.8C8.93029 16.8 8.92819 16.8 8.9261 16.8C8.924 16.8 8.9219 16.8 8.9198 16.8C8.91771 16.8 8.91561 16.8 8.91351 16.8C8.91142 16.8 8.90932 16.8 8.90722 16.8C8.90513 16.8 8.90303 16.8 8.90094 16.8C8.89884 16.8 8.89675 16.8 8.89465 16.8C8.89256 16.8 8.89046 16.8 8.88837 16.8C8.88627 16.8 8.88418 16.8 8.88209 16.8C8.87999 16.8 8.8779 16.8 8.87581 16.8C8.87371 16.8 8.87162 16.8 8.86953 16.8C8.86744 16.8 8.86534 16.8 8.86325 16.8C8.86116 16.8 8.85907 16.8 8.85698 16.8C8.85488 16.8 8.85279 16.8 8.8507 16.8C8.84861 16.8 8.84652 16.8 8.84443 16.8C8.84234 16.8 8.84025 16.8 8.83816 16.8C8.83607 16.8 8.83398 16.8 8.83189 16.8C8.8298 16.8 8.82771 16.8 8.82563 16.8C8.82354 16.8 8.82145 16.8 8.81936 16.8C8.81727 16.8 8.81518 16.8 8.8131 16.8C8.81101 16.8 8.80892 16.8 8.80684 16.8C8.80475 16.8 8.80266 16.8 8.80058 16.8C8.79849 16.8 8.7964 16.8 8.79432 16.8C8.79223 16.8 8.79015 16.8 8.78806 16.8C8.78598 16.8 8.78389 16.8 8.78181 16.8C8.77972 16.8 8.77764 16.8 8.77555 16.8C8.77347 16.8 8.77139 16.8 8.7693 16.8C8.76722 16.8 8.76514 16.8 8.76305 16.8C8.76097 16.8 8.75889 16.8 8.7568 16.8C8.75472 16.8 8.75264 16.8 8.75056 16.8C8.74848 16.8 8.7464 16.8 8.74431 16.8C8.74223 16.8 8.74015 16.8 8.73807 16.8C8.73599 16.8 8.73391 16.8 8.73183 16.8C8.72975 16.8 8.72767 16.8 8.72559 16.8C8.72351 16.8 8.72143 16.8 8.71936 16.8C8.71728 16.8 8.7152 16.8 8.71312 16.8C8.71104 16.8 8.70896 16.8 8.70689 16.8C8.70481 16.8 8.70273 16.8 8.70066 16.8C8.69858 16.8 8.6965 16.8 8.69443 16.8C8.69235 16.8 8.69027 16.8 8.6882 16.8C8.68612 16.8 8.68405 16.8 8.68197 16.8C8.6799 16.8 8.67782 16.8 8.67575 16.8C8.67367 16.8 8.6716 16.8 8.66952 16.8C8.66745 16.8 8.66538 16.8 8.6633 16.8C8.66123 16.8 8.65916 16.8 8.65709 16.8C8.65501 16.8 8.65294 16.8 8.65087 16.8C8.6488 16.8 8.64672 16.8 8.64465 16.8C8.64258 16.8 8.64051 16.8 8.63844 16.8C8.63637 16.8 8.6343 16.8 8.63223 16.8C8.63016 16.8 8.62809 16.8 8.62602 16.8C8.62395 16.8 8.62188 16.8 8.61981 16.8C8.61774 16.8 8.61567 16.8 8.6136 16.8C8.61154 16.8 8.60947 16.8 8.6074 16.8C8.60533 16.8 8.60327 16.8 8.6012 16.8C8.59913 16.8 8.59707 16.8 8.595 16.8C8.59293 16.8 8.59087 16.8 8.5888 16.8C8.58673 16.8 8.58467 16.8 8.5826 16.8C8.58054 16.8 8.57847 16.8 8.57641 16.8C8.57434 16.8 8.57228 16.8 8.57022 16.8C8.56815 16.8 8.56609 16.8 8.56403 16.8C8.56196 16.8 8.5599 16.8 8.55784 16.8C8.55577 16.8 8.55371 16.8 8.55165 16.8C8.54959 16.8 8.54753 16.8 8.54547 16.8C8.5434 16.8 8.54134 16.8 8.53928 16.8C8.53722 16.8 8.53516 16.8 8.5331 16.8C8.53104 16.8 8.52898 16.8 8.52692 16.8C8.52486 16.8 8.5228 16.8 8.52074 16.8C8.51869 16.8 8.51663 16.8 8.51457 16.8C8.51251 16.8 8.51045 16.8 8.5084 16.8C8.50634 16.8 8.50428 16.8 8.50222 16.8C8.50017 16.8 8.49811 16.8 8.49605 16.8C8.494 16.8 8.49194 16.8 8.48989 16.8C8.48783 16.8 8.48578 16.8 8.48372 16.8C8.48167 16.8 8.47961 16.8 8.47756 16.8C8.4755 16.8 8.47345 16.8 8.4714 16.8C8.46934 16.8 8.46729 16.8 8.46524 16.8C8.46318 16.8 8.46113 16.8 8.45908 16.8C8.45703 16.8 8.45498 16.8 8.45292 16.8C8.45087 16.8 8.44882 16.8 8.44677 16.8C8.44472 16.8 8.44267 16.8 8.44062 16.8C8.43857 16.8 8.43652 16.8 8.43447 16.8C8.43242 16.8 8.43037 16.8 8.42832 16.8C8.42627 16.8 8.42422 16.8 8.42218 16.8C8.42013 16.8 8.41808 16.8 8.41603 16.8C8.41399 16.8 8.41194 16.8 8.40989 16.8C8.40784 16.8 8.4058 16.8 8.40375 16.8C8.40171 16.8 8.39966 16.8 8.39761 16.8C8.39557 16.8 8.39352 16.8 8.39148 16.8C8.38943 16.8 8.38739 16.8 8.38535 16.8C8.3833 16.8 8.38126 16.8 8.37921 16.8C8.37717 16.8 8.37513 16.8 8.37309 16.8C8.37104 16.8 8.369 16.8 8.36696 16.8C8.36492 16.8 8.36287 16.8 8.36083 16.8C8.35879 16.8 8.35675 16.8 8.35471 16.8C8.35267 16.8 8.35063 16.8 8.34859 16.8C8.34655 16.8 8.34451 16.8 8.34247 16.8C8.34043 16.8 8.33839 16.8 8.33635 16.8C8.33431 16.8 8.33228 16.8 8.33024 16.8C8.3282 16.8 8.32616 16.8 8.32413 16.8C8.32209 16.8 8.32005 16.8 8.31802 16.8C8.31598 16.8 8.31394 16.8 8.31191 16.8C8.30987 16.8 8.30784 16.8 8.3058 16.8C8.30377 16.8 8.30173 16.8 8.2997 16.8C8.29766 16.8 8.29563 16.8 8.29359 16.8C8.29156 16.8 8.28953 16.8 8.28749 16.8C8.28546 16.8 8.28343 16.8 8.2814 16.8C8.27937 16.8 8.27733 16.8 8.2753 16.8C8.27327 16.8 8.27124 16.8 8.26921 16.8C8.26718 16.8 8.26515 16.8 8.26312 16.8C8.26109 16.8 8.25906 16.8 8.25703 16.8C8.255 16.8 8.25297 16.8 8.25094 16.8C8.24891 16.8 8.24688 16.8 8.24486 16.8C8.24283 16.8 8.2408 16.8 8.23877 16.8C8.23675 16.8 8.23472 16.8 8.23269 16.8C8.23067 16.8 8.22864 16.8 8.22661 16.8C8.22459 16.8 8.22256 16.8 8.22054 16.8C8.21851 16.8 8.21649 16.8 8.21446 16.8C8.21244 16.8 8.21042 16.8 8.20839 16.8C8.20637 16.8 8.20435 16.8 8.20232 16.8C8.2003 16.8 8.19828 16.8 8.19625 16.8C8.19423 16.8 8.19221 16.8 8.19019 16.8C8.18817 16.8 8.18615 16.8 8.18413 16.8C8.18211 16.8 8.18009 16.8 8.17807 16.8C8.17605 16.8 8.17403 16.8 8.17201 16.8C8.16999 16.8 8.16797 16.8 8.16595 16.8C8.16393 16.8 8.16191 16.8 8.1599 16.8C8.15788 16.8 8.15586 16.8 8.15384 16.8C8.15183 16.8 8.14981 16.8 8.14779 16.8C8.14578 16.8 8.14376 16.8 8.14175 16.8C8.13973 16.8 8.13772 16.8 8.1357 16.8C8.13369 16.8 8.13167 16.8 8.12966 16.8C8.12765 16.8 8.12563 16.8 8.12362 16.8C8.12161 16.8 8.11959 16.8 8.11758 16.8C8.11557 16.8 8.11356 16.8 8.11154 16.8C8.10953 16.8 8.10752 16.8 8.10551 16.8C8.1035 16.8 8.10149 16.8 8.09948 16.8C8.09747 16.8 8.09546 16.8 8.09345 16.8C8.09144 16.8 8.08943 16.8 8.08742 16.8C8.08541 16.8 8.0834 16.8 8.0814 16.8C8.07939 16.8 8.07738 16.8 8.07537 16.8C8.07337 16.8 8.07136 16.8 8.06935 16.8C8.06735 16.8 8.06534 16.8 8.06334 16.8C8.06133 16.8 8.05933 16.8 8.05732 16.8C8.05532 16.8 8.05331 16.8 8.05131 16.8C8.0493 16.8 8.0473 16.8 8.0453 16.8C8.04329 16.8 8.04129 16.8 8.03929 16.8C8.03729 16.8 8.03528 16.8 8.03328 16.8C8.03128 16.8 8.02928 16.8 8.02728 16.8C8.02528 16.8 8.02328 16.8 8.02128 16.8C8.01928 16.8 8.01728 16.8 8.01528 16.8C8.01328 16.8 8.01128 16.8 8.00928 16.8C8.00728 16.8 8.00528 16.8 8.00329 16.8C8.00129 16.8 7.99929 16.8 7.99729 16.8C7.9953 16.8 7.9933 16.8 7.9913 16.8C7.98931 16.8 7.98731 16.8 7.98532 16.8C7.98332 16.8 7.98132 16.8 7.97933 16.8C7.97734 16.8 7.97534 16.8 7.97335 16.8C7.97135 16.8 7.96936 16.8 7.96737 16.8C7.96537 16.8 7.96338 16.8 7.96139 16.8C7.9594 16.8 7.9574 16.8 7.95541 16.8C7.95342 16.8 7.95143 16.8 7.94944 16.8C7.94745 16.8 7.94546 16.8 7.94347 16.8C7.94148 16.8 7.93949 16.8 7.9375 16.8C7.93551 16.8 7.93352 16.8 7.93153 16.8C7.92955 16.8 7.92756 16.8 7.92557 16.8C7.92358 16.8 7.9216 16.8 7.91961 16.8C7.91762 16.8 7.91564 16.8 7.91365 16.8C7.91167 16.8 7.90968 16.8 7.9077 16.8C7.90571 16.8 7.90373 16.8 7.90174 16.8C7.89976 16.8 7.89777 16.8 7.89579 16.8C7.89381 16.8 7.89182 16.8 7.88984 16.8C7.88786 16.8 7.88588 16.8 7.88389 16.8C7.88191 16.8 7.87993 16.8 7.87795 16.8C7.87597 16.8 7.87399 16.8 7.87201 16.8C7.87003 16.8 7.86805 16.8 7.86607 16.8C7.86409 16.8 7.86211 16.8 7.86013 16.8C7.85815 16.8 7.85618 16.8 7.8542 16.8C7.85222 16.8 7.85024 16.8 7.84827 16.8C7.84629 16.8 7.84431 16.8 7.84234 16.8C7.84036 16.8 7.83839 16.8 7.83641 16.8C7.83443 16.8 7.83246 16.8 7.83049 16.8C7.82851 16.8 7.82654 16.8 7.82456 16.8C7.82259 16.8 7.82062 16.8 7.81864 16.8C7.81667 16.8 7.8147 16.8 7.81273 16.8C7.81076 16.8 7.80878 16.8 7.80681 16.8C7.80484 16.8 7.80287 16.8 7.8009 16.8C7.79893 16.8 7.79696 16.8 7.79499 16.8C7.79302 16.8 7.79105 16.8 7.78909 16.8C7.78712 16.8 7.78515 16.8 7.78318 16.8C7.78121 16.8 7.77925 16.8 7.77728 16.8C7.77531 16.8 7.77335 16.8 7.77138 16.8C7.76941 16.8 7.76745 16.8 7.76548 16.8C7.76352 16.8 7.76155 16.8 7.75959 16.8C7.75763 16.8 7.75566 16.8 7.7537 16.8C7.75173 16.8 7.74977 16.8 7.74781 16.8C7.74585 16.8 7.74388 16.8 7.74192 16.8C7.73996 16.8 7.738 16.8 7.73604 16.8C7.73408 16.8 7.73212 16.8 7.73016 16.8C7.7282 16.8 7.72624 16.8 7.72428 16.8C7.72232 16.8 7.72036 16.8 7.7184 16.8C7.71644 16.8 7.71449 16.8 7.71253 16.8C7.71057 16.8 7.70861 16.8 7.70666 16.8C7.7047 16.8 7.70275 16.8 7.70079 16.8C7.69883 16.8 7.69688 16.8 7.69492 16.8C7.69297 16.8 7.69102 16.8 7.68906 16.8C7.68711 16.8 7.68515 16.8 7.6832 16.8C7.68125 16.8 7.6793 16.8 7.67734 16.8C7.67539 16.8 7.67344 16.8 7.67149 16.8C7.66954 16.8 7.66759 16.8 7.66563 16.8C7.66368 16.8 7.66173 16.8 7.65978 16.8C7.65784 16.8 7.65589 16.8 7.65394 16.8C7.65199 16.8 7.65004 16.8 7.64809 16.8C7.64614 16.8 7.6442 16.8 7.64225 16.8C7.6403 16.8 7.63836 16.8 7.63641 16.8C7.63447 16.8 7.63252 16.8 7.63057 16.8C7.62863 16.8 7.62668 16.8 7.62474 16.8C7.6228 16.8 7.62085 16.8 7.61891 16.8C7.61697 16.8 7.61502 16.8 7.61308 16.8C7.61114 16.8 7.6092 16.8 7.60725 16.8C7.60531 16.8 7.60337 16.8 7.60143 16.8C7.59949 16.8 7.59755 16.8 7.59561 16.8C7.59367 16.8 7.59173 16.8 7.58979 16.8C7.58785 16.8 7.58591 16.8 7.58398 16.8C7.58204 16.8 7.5801 16.8 7.57816 16.8C7.57623 16.8 7.57429 16.8 7.57235 16.8C7.57042 16.8 7.56848 16.8 7.56655 16.8C7.56461 16.8 7.56268 16.8 7.56074 16.8C7.55881 16.8 7.55687 16.8 7.55494 16.8C7.55301 16.8 7.55107 16.8 7.54914 16.8C7.54721 16.8 7.54528 16.8 7.54334 16.8C7.54141 16.8 7.53948 16.8 7.53755 16.8C7.53562 16.8 7.53369 16.8 7.53176 16.8C7.52983 16.8 7.5279 16.8 7.52597 16.8C7.52404 16.8 7.52211 16.8 7.52019 16.8C7.51826 16.8 7.51633 16.8 7.5144 16.8C7.51248 16.8 7.51055 16.8 7.50862 16.8C7.5067 16.8 7.50477 16.8 7.50285 16.8C7.50092 16.8 7.499 16.8 7.49707 16.8C7.49515 16.8 7.49322 16.8 7.4913 16.8C7.48938 16.8 7.48745 16.8 7.48553 16.8C7.48361 16.8 7.48169 16.8 7.47976 16.8C7.47784 16.8 7.47592 16.8 7.474 16.8C7.47208 16.8 7.47016 16.8 7.46824 16.8C7.46632 16.8 7.4644 16.8 7.46248 16.8C7.46056 16.8 7.45865 16.8 7.45673 16.8C7.45481 16.8 7.45289 16.8 7.45098 16.8C7.44906 16.8 7.44714 16.8 7.44523 16.8C7.44331 16.8 7.4414 16.8 7.43948 16.8C7.43757 16.8 7.43565 16.8 7.43374 16.8C7.43182 16.8 7.42991 16.8 7.428 16.8C7.42608 16.8 7.42417 16.8 7.42226 16.8C7.42035 16.8 7.41843 16.8 7.41652 16.8C7.41461 16.8 7.4127 16.8 7.41079 16.8C7.40888 16.8 7.40697 16.8 7.40506 16.8C7.40315 16.8 7.40124 16.8 7.39933 16.8C7.39743 16.8 7.39552 16.8 7.39361 16.8C7.3917 16.8 7.3898 16.8 7.38789 16.8C7.38598 16.8 7.38408 16.8 7.38217 16.8C7.38027 16.8 7.37836 16.8 7.37646 16.8C7.37455 16.8 7.37265 16.8 7.37074 16.8C7.36884 16.8 7.36694 16.8 7.36503 16.8C7.36313 16.8 7.36123 16.8 7.35933 16.8C7.35743 16.8 7.35552 16.8 7.35362 16.8C7.35172 16.8 7.34982 16.8 7.34792 16.8C7.34602 16.8 7.34412 16.8 7.34222 16.8C7.34033 16.8 7.33843 16.8 7.33653 16.8C7.33463 16.8 7.33273 16.8 7.33084 16.8C7.32894 16.8 7.32704 16.8 7.32515 16.8C7.32325 16.8 7.32136 16.8 7.31946 16.8C7.31757 16.8 7.31567 16.8 7.31378 16.8C7.31188 16.8 7.30999 16.8 7.3081 16.8C7.3062 16.8 7.30431 16.8 7.30242 16.8C7.30053 16.8 7.29864 16.8 7.29675 16.8C7.29485 16.8 7.29296 16.8 7.29107 16.8C7.28918 16.8 7.28729 16.8 7.28541 16.8C7.28352 16.8 7.28163 16.8 7.27974 16.8C7.27785 16.8 7.27596 16.8 7.27408 16.8C7.27219 16.8 7.2703 16.8 7.26842 16.8C7.26653 16.8 7.26464 16.8 7.26276 16.8C7.26087 16.8 7.25899 16.8 7.25711 16.8C7.25522 16.8 7.25334 16.8 7.25145 16.8C7.24957 16.8 7.24769 16.8 7.24581 16.8C7.24392 16.8 7.24204 16.8 7.24016 16.8C7.23828 16.8 7.2364 16.8 7.23452 16.8C7.23264 16.8 7.23076 16.8 7.22888 16.8C7.227 16.8 7.22512 16.8 7.22324 16.8C7.22137 16.8 7.21949 16.8 7.21761 16.8C7.21573 16.8 7.21386 16.8 7.21198 16.8C7.21011 16.8 7.20823 16.8 7.20635 16.8C7.20448 16.8 7.2026 16.8 7.20073 16.8C7.19886 16.8 7.19698 16.8 7.19511 16.8C7.19324 16.8 7.19136 16.8 7.18949 16.8C7.18762 16.8 7.18575 16.8 7.18388 16.8C7.18201 16.8 7.18013 16.8 7.17826 16.8C7.17639 16.8 7.17452 16.8 7.17266 16.8C7.17079 16.8 7.16892 16.8 7.16705 16.8C7.16518 16.8 7.16331 16.8 7.16145 16.8C7.15958 16.8 7.15771 16.8 7.15585 16.8C7.15398 16.8 7.15212 16.8 7.15025 16.8C7.14839 16.8 7.14652 16.8 7.14466 16.8C7.14279 16.8 7.14093 16.8 7.13907 16.8C7.1372 16.8 7.13534 16.8 7.13348 16.8C7.13162 16.8 7.12976 16.8 7.12789 16.8C7.12603 16.8 7.12417 16.8 7.12231 16.8C7.12045 16.8 7.11859 16.8 7.11673 16.8C7.11488 16.8 7.11302 16.8 7.11116 16.8C7.1093 16.8 7.10744 16.8 7.10559 16.8C7.10373 16.8 7.10187 16.8 7.10002 16.8C7.09816 16.8 7.09631 16.8 7.09445 16.8C7.0926 16.8 7.09074 16.8 7.08889 16.8C7.08704 16.8 7.08518 16.8 7.08333 16.8C7.08148 16.8 7.07963 16.8 7.07777 16.8C7.07592 16.8 7.07407 16.8 7.07222 16.8C7.07037 16.8 7.06852 16.8 7.06667 16.8C7.06482 16.8 7.06297 16.8 7.06112 16.8C7.05928 16.8 7.05743 16.8 7.05558 16.8C7.05373 16.8 7.05188 16.8 7.05004 16.8C7.04819 16.8 7.04635 16.8 7.0445 16.8C7.04266 16.8 7.04081 16.8 7.03897 16.8C7.03712 16.8 7.03528 16.8 7.03344 16.8C7.03159 16.8 7.02975 16.8 7.02791 16.8C7.02606 16.8 7.02422 16.8 7.02238 16.8C7.02054 16.8 7.0187 16.8 7.01686 16.8C7.01502 16.8 7.01318 16.8 7.01134 16.8C7.0095 16.8 7.00766 16.8 7.00583 16.8C7.00399 16.8 7.00215 16.8 7.00031 16.8C6.99848 16.8 6.99664 16.8 6.9948 16.8C6.99297 16.8 6.99113 16.8 6.9893 16.8C6.98746 16.8 6.98563 16.8 6.9838 16.8C6.98196 16.8 6.98013 16.8 6.9783 16.8C6.97646 16.8 6.97463 16.8 6.9728 16.8C6.97097 16.8 6.96914 16.8 6.96731 16.8C6.96548 16.8 6.96365 16.8 6.96182 16.8C6.95999 16.8 6.95816 16.8 6.95633 16.8C6.9545 16.8 6.95267 16.8 6.95085 16.8C6.94902 16.8 6.94719 16.8 6.94537 16.8C6.94354 16.8 6.94172 16.8 6.93989 16.8C6.93807 16.8 6.93624 16.8 6.93442 16.8C6.93259 16.8 6.93077 16.8 6.92895 16.8C6.92712 16.8 6.9253 16.8 6.92348 16.8C6.92166 16.8 6.91984 16.8 6.91802 16.8C6.91619 16.8 6.91437 16.8 6.91255 16.8C6.91073 16.8 6.90892 16.8 6.9071 16.8C6.90528 16.8 6.90346 16.8 6.90164 16.8C6.89983 16.8 6.89801 16.8 6.89619 16.8C6.89438 16.8 6.89256 16.8 6.89074 16.8C6.88893 16.8 6.88711 16.8 6.8853 16.8C6.88349 16.8 6.88167 16.8 6.87986 16.8C6.87805 16.8 6.87623 16.8 6.87442 16.8C6.87261 16.8 6.8708 16.8 6.86899 16.8C6.86718 16.8 6.86537 16.8 6.86356 16.8C6.86175 16.8 6.85994 16.8 6.85813 16.8C6.85632 16.8 6.85451 16.8 6.8527 16.8C6.8509 16.8 6.84909 16.8 6.84728 16.8C6.84548 16.8 6.84367 16.8 6.84187 16.8C6.84006 16.8 6.83826 16.8 6.83645 16.8C6.83465 16.8 6.83284 16.8 6.83104 16.8C6.82924 16.8 6.82743 16.8 6.82563 16.8C6.82383 16.8 6.82203 16.8 6.82023 16.8C6.81843 16.8 6.81663 16.8 6.81483 16.8C6.81303 16.8 6.81123 16.8 6.80943 16.8C6.80763 16.8 6.80583 16.8 6.80404 16.8C6.80224 16.8 6.80044 16.8 6.79864 16.8C6.79685 16.8 6.79505 16.8 6.79326 16.8C6.79146 16.8 6.78967 16.8 6.78787 16.8C6.78608 16.8 6.78428 16.8 6.78249 16.8C6.7807 16.8 6.77891 16.8 6.77711 16.8C6.77532 16.8 6.77353 16.8 6.77174 16.8C6.76995 16.8 6.76816 16.8 6.76637 16.8C6.76458 16.8 6.76279 16.8 6.761 16.8C6.75921 16.8 6.75743 16.8 6.75564 16.8C6.75385 16.8 6.75206 16.8 6.75028 16.8C6.74849 16.8 6.74671 16.8 6.74492 16.8C6.74314 16.8 6.74135 16.8 6.73957 16.8C6.73778 16.8 6.736 16.8 6.73422 16.8C6.73243 16.8 6.73065 16.8 6.72887 16.8C6.72709 16.8 6.72531 16.8 6.72353 16.8C6.72175 16.8 6.71997 16.8 6.71819 16.8C6.71641 16.8 6.71463 16.8 6.71285 16.8C6.71107 16.8 6.70929 16.8 6.70752 16.8C6.70574 16.8 6.70396 16.8 6.70219 16.8C6.70041 16.8 6.69864 16.8 6.69686 16.8C6.69509 16.8 6.69331 16.8 6.69154 16.8C6.68977 16.8 6.68799 16.8 6.68622 16.8C6.68445 16.8 6.68268 16.8 6.6809 16.8C6.67913 16.8 6.67736 16.8 6.67559 16.8C6.67382 16.8 6.67205 16.8 6.67028 16.8C6.66851 16.8 6.66675 16.8 6.66498 16.8C6.66321 16.8 6.66144 16.8 6.65968 16.8C6.65791 16.8 6.65614 16.8 6.65438 16.8C6.65261 16.8 6.65085 16.8 6.64908 16.8C6.64732 16.8 6.64556 16.8 6.64379 16.8C6.64203 16.8 6.64027 16.8 6.6385 16.8C6.63674 16.8 6.63498 16.8 6.63322 16.8C6.63146 16.8 6.6297 16.8 6.62794 16.8C6.62618 16.8 6.62442 16.8 6.62266 16.8C6.6209 16.8 6.61915 16.8 6.61739 16.8C6.61563 16.8 6.61388 16.8 6.61212 16.8C6.61036 16.8 6.60861 16.8 6.60685 16.8C6.6051 16.8 6.60334 16.8 6.60159 16.8C6.59984 16.8 6.59808 16.8 6.59633 16.8C6.59458 16.8 6.59283 16.8 6.59107 16.8C6.58932 16.8 6.58757 16.8 6.58582 16.8C6.58407 16.8 6.58232 16.8 6.58057 16.8C6.57882 16.8 6.57708 16.8 6.57533 16.8C6.57358 16.8 6.57183 16.8 6.57009 16.8C6.56834 16.8 6.56659 16.8 6.56485 16.8C6.5631 16.8 6.56136 16.8 6.55961 16.8C6.55787 16.8 6.55613 16.8 6.55438 16.8C6.55264 16.8 6.5509 16.8 6.54916 16.8C6.54741 16.8 6.54567 16.8 6.54393 16.8L6.54393 18.2C6.54567 18.2 6.54741 18.2 6.54916 18.2C6.5509 18.2 6.55264 18.2 6.55438 18.2C6.55613 18.2 6.55787 18.2 6.55961 18.2C6.56136 18.2 6.5631 18.2 6.56485 18.2C6.56659 18.2 6.56834 18.2 6.57009 18.2C6.57183 18.2 6.57358 18.2 6.57533 18.2C6.57708 18.2 6.57882 18.2 6.58057 18.2C6.58232 18.2 6.58407 18.2 6.58582 18.2C6.58757 18.2 6.58932 18.2 6.59107 18.2C6.59283 18.2 6.59458 18.2 6.59633 18.2C6.59808 18.2 6.59984 18.2 6.60159 18.2C6.60334 18.2 6.6051 18.2 6.60685 18.2C6.60861 18.2 6.61036 18.2 6.61212 18.2C6.61388 18.2 6.61563 18.2 6.61739 18.2C6.61915 18.2 6.6209 18.2 6.62266 18.2C6.62442 18.2 6.62618 18.2 6.62794 18.2C6.6297 18.2 6.63146 18.2 6.63322 18.2C6.63498 18.2 6.63674 18.2 6.6385 18.2C6.64027 18.2 6.64203 18.2 6.64379 18.2C6.64556 18.2 6.64732 18.2 6.64908 18.2C6.65085 18.2 6.65261 18.2 6.65438 18.2C6.65614 18.2 6.65791 18.2 6.65968 18.2C6.66144 18.2 6.66321 18.2 6.66498 18.2C6.66675 18.2 6.66851 18.2 6.67028 18.2C6.67205 18.2 6.67382 18.2 6.67559 18.2C6.67736 18.2 6.67913 18.2 6.6809 18.2C6.68268 18.2 6.68445 18.2 6.68622 18.2C6.68799 18.2 6.68977 18.2 6.69154 18.2C6.69331 18.2 6.69509 18.2 6.69686 18.2C6.69864 18.2 6.70041 18.2 6.70219 18.2C6.70396 18.2 6.70574 18.2 6.70752 18.2C6.70929 18.2 6.71107 18.2 6.71285 18.2C6.71463 18.2 6.71641 18.2 6.71819 18.2C6.71997 18.2 6.72175 18.2 6.72353 18.2C6.72531 18.2 6.72709 18.2 6.72887 18.2C6.73065 18.2 6.73243 18.2 6.73422 18.2C6.736 18.2 6.73778 18.2 6.73957 18.2C6.74135 18.2 6.74314 18.2 6.74492 18.2C6.74671 18.2 6.74849 18.2 6.75028 18.2C6.75206 18.2 6.75385 18.2 6.75564 18.2C6.75743 18.2 6.75921 18.2 6.761 18.2C6.76279 18.2 6.76458 18.2 6.76637 18.2C6.76816 18.2 6.76995 18.2 6.77174 18.2C6.77353 18.2 6.77532 18.2 6.77711 18.2C6.77891 18.2 6.7807 18.2 6.78249 18.2C6.78428 18.2 6.78608 18.2 6.78787 18.2C6.78967 18.2 6.79146 18.2 6.79326 18.2C6.79505 18.2 6.79685 18.2 6.79864 18.2C6.80044 18.2 6.80224 18.2 6.80403 18.2C6.80583 18.2 6.80763 18.2 6.80943 18.2C6.81123 18.2 6.81303 18.2 6.81483 18.2C6.81663 18.2 6.81843 18.2 6.82023 18.2C6.82203 18.2 6.82383 18.2 6.82563 18.2C6.82743 18.2 6.82924 18.2 6.83104 18.2C6.83284 18.2 6.83465 18.2 6.83645 18.2C6.83826 18.2 6.84006 18.2 6.84187 18.2C6.84367 18.2 6.84548 18.2 6.84728 18.2C6.84909 18.2 6.8509 18.2 6.8527 18.2C6.85451 18.2 6.85632 18.2 6.85813 18.2C6.85994 18.2 6.86175 18.2 6.86356 18.2C6.86537 18.2 6.86718 18.2 6.86899 18.2C6.8708 18.2 6.87261 18.2 6.87442 18.2C6.87623 18.2 6.87805 18.2 6.87986 18.2C6.88167 18.2 6.88349 18.2 6.8853 18.2C6.88711 18.2 6.88893 18.2 6.89074 18.2C6.89256 18.2 6.89438 18.2 6.89619 18.2C6.89801 18.2 6.89983 18.2 6.90164 18.2C6.90346 18.2 6.90528 18.2 6.9071 18.2C6.90892 18.2 6.91073 18.2 6.91255 18.2C6.91437 18.2 6.91619 18.2 6.91802 18.2C6.91984 18.2 6.92166 18.2 6.92348 18.2C6.9253 18.2 6.92712 18.2 6.92895 18.2C6.93077 18.2 6.93259 18.2 6.93442 18.2C6.93624 18.2 6.93807 18.2 6.93989 18.2C6.94172 18.2 6.94354 18.2 6.94537 18.2C6.94719 18.2 6.94902 18.2 6.95085 18.2C6.95267 18.2 6.9545 18.2 6.95633 18.2C6.95816 18.2 6.95999 18.2 6.96182 18.2C6.96365 18.2 6.96548 18.2 6.96731 18.2C6.96914 18.2 6.97097 18.2 6.9728 18.2C6.97463 18.2 6.97646 18.2 6.9783 18.2C6.98013 18.2 6.98196 18.2 6.9838 18.2C6.98563 18.2 6.98746 18.2 6.9893 18.2C6.99113 18.2 6.99297 18.2 6.9948 18.2C6.99664 18.2 6.99848 18.2 7.00031 18.2C7.00215 18.2 7.00399 18.2 7.00583 18.2C7.00766 18.2 7.0095 18.2 7.01134 18.2C7.01318 18.2 7.01502 18.2 7.01686 18.2C7.0187 18.2 7.02054 18.2 7.02238 18.2C7.02422 18.2 7.02606 18.2 7.02791 18.2C7.02975 18.2 7.03159 18.2 7.03344 18.2C7.03528 18.2 7.03712 18.2 7.03897 18.2C7.04081 18.2 7.04266 18.2 7.0445 18.2C7.04635 18.2 7.04819 18.2 7.05004 18.2C7.05188 18.2 7.05373 18.2 7.05558 18.2C7.05743 18.2 7.05927 18.2 7.06112 18.2C7.06297 18.2 7.06482 18.2 7.06667 18.2C7.06852 18.2 7.07037 18.2 7.07222 18.2C7.07407 18.2 7.07592 18.2 7.07777 18.2C7.07963 18.2 7.08148 18.2 7.08333 18.2C7.08518 18.2 7.08704 18.2 7.08889 18.2C7.09074 18.2 7.0926 18.2 7.09445 18.2C7.09631 18.2 7.09816 18.2 7.10002 18.2C7.10187 18.2 7.10373 18.2 7.10559 18.2C7.10744 18.2 7.1093 18.2 7.11116 18.2C7.11302 18.2 7.11488 18.2 7.11673 18.2C7.11859 18.2 7.12045 18.2 7.12231 18.2C7.12417 18.2 7.12603 18.2 7.12789 18.2C7.12976 18.2 7.13162 18.2 7.13348 18.2C7.13534 18.2 7.1372 18.2 7.13907 18.2C7.14093 18.2 7.14279 18.2 7.14466 18.2C7.14652 18.2 7.14839 18.2 7.15025 18.2C7.15212 18.2 7.15398 18.2 7.15585 18.2C7.15771 18.2 7.15958 18.2 7.16145 18.2C7.16331 18.2 7.16518 18.2 7.16705 18.2C7.16892 18.2 7.17079 18.2 7.17266 18.2C7.17452 18.2 7.17639 18.2 7.17826 18.2C7.18013 18.2 7.18201 18.2 7.18388 18.2C7.18575 18.2 7.18762 18.2 7.18949 18.2C7.19136 18.2 7.19324 18.2 7.19511 18.2C7.19698 18.2 7.19886 18.2 7.20073 18.2C7.2026 18.2 7.20448 18.2 7.20635 18.2C7.20823 18.2 7.21011 18.2 7.21198 18.2C7.21386 18.2 7.21573 18.2 7.21761 18.2C7.21949 18.2 7.22137 18.2 7.22324 18.2C7.22512 18.2 7.227 18.2 7.22888 18.2C7.23076 18.2 7.23264 18.2 7.23452 18.2C7.2364 18.2 7.23828 18.2 7.24016 18.2C7.24204 18.2 7.24392 18.2 7.24581 18.2C7.24769 18.2 7.24957 18.2 7.25145 18.2C7.25334 18.2 7.25522 18.2 7.25711 18.2C7.25899 18.2 7.26087 18.2 7.26276 18.2C7.26464 18.2 7.26653 18.2 7.26842 18.2C7.2703 18.2 7.27219 18.2 7.27408 18.2C7.27596 18.2 7.27785 18.2 7.27974 18.2C7.28163 18.2 7.28352 18.2 7.28541 18.2C7.28729 18.2 7.28918 18.2 7.29107 18.2C7.29296 18.2 7.29485 18.2 7.29675 18.2C7.29864 18.2 7.30053 18.2 7.30242 18.2C7.30431 18.2 7.3062 18.2 7.3081 18.2C7.30999 18.2 7.31188 18.2 7.31378 18.2C7.31567 18.2 7.31757 18.2 7.31946 18.2C7.32136 18.2 7.32325 18.2 7.32515 18.2C7.32704 18.2 7.32894 18.2 7.33084 18.2C7.33273 18.2 7.33463 18.2 7.33653 18.2C7.33843 18.2 7.34033 18.2 7.34222 18.2C7.34412 18.2 7.34602 18.2 7.34792 18.2C7.34982 18.2 7.35172 18.2 7.35362 18.2C7.35552 18.2 7.35743 18.2 7.35933 18.2C7.36123 18.2 7.36313 18.2 7.36503 18.2C7.36694 18.2 7.36884 18.2 7.37074 18.2C7.37265 18.2 7.37455 18.2 7.37646 18.2C7.37836 18.2 7.38027 18.2 7.38217 18.2C7.38408 18.2 7.38598 18.2 7.38789 18.2C7.3898 18.2 7.3917 18.2 7.39361 18.2C7.39552 18.2 7.39743 18.2 7.39933 18.2C7.40124 18.2 7.40315 18.2 7.40506 18.2C7.40697 18.2 7.40888 18.2 7.41079 18.2C7.4127 18.2 7.41461 18.2 7.41652 18.2C7.41843 18.2 7.42035 18.2 7.42226 18.2C7.42417 18.2 7.42608 18.2 7.428 18.2C7.42991 18.2 7.43182 18.2 7.43374 18.2C7.43565 18.2 7.43757 18.2 7.43948 18.2C7.4414 18.2 7.44331 18.2 7.44523 18.2C7.44714 18.2 7.44906 18.2 7.45098 18.2C7.45289 18.2 7.45481 18.2 7.45673 18.2C7.45865 18.2 7.46056 18.2 7.46248 18.2C7.4644 18.2 7.46632 18.2 7.46824 18.2C7.47016 18.2 7.47208 18.2 7.474 18.2C7.47592 18.2 7.47784 18.2 7.47976 18.2C7.48169 18.2 7.48361 18.2 7.48553 18.2C7.48745 18.2 7.48938 18.2 7.4913 18.2C7.49322 18.2 7.49515 18.2 7.49707 18.2C7.499 18.2 7.50092 18.2 7.50285 18.2C7.50477 18.2 7.5067 18.2 7.50862 18.2C7.51055 18.2 7.51248 18.2 7.5144 18.2C7.51633 18.2 7.51826 18.2 7.52019 18.2C7.52211 18.2 7.52404 18.2 7.52597 18.2C7.5279 18.2 7.52983 18.2 7.53176 18.2C7.53369 18.2 7.53562 18.2 7.53755 18.2C7.53948 18.2 7.54141 18.2 7.54334 18.2C7.54528 18.2 7.54721 18.2 7.54914 18.2C7.55107 18.2 7.55301 18.2 7.55494 18.2C7.55687 18.2 7.55881 18.2 7.56074 18.2C7.56268 18.2 7.56461 18.2 7.56655 18.2C7.56848 18.2 7.57042 18.2 7.57235 18.2C7.57429 18.2 7.57623 18.2 7.57816 18.2C7.5801 18.2 7.58204 18.2 7.58398 18.2C7.58591 18.2 7.58785 18.2 7.58979 18.2C7.59173 18.2 7.59367 18.2 7.59561 18.2C7.59755 18.2 7.59949 18.2 7.60143 18.2C7.60337 18.2 7.60531 18.2 7.60725 18.2C7.6092 18.2 7.61114 18.2 7.61308 18.2C7.61502 18.2 7.61697 18.2 7.61891 18.2C7.62085 18.2 7.6228 18.2 7.62474 18.2C7.62668 18.2 7.62863 18.2 7.63057 18.2C7.63252 18.2 7.63447 18.2 7.63641 18.2C7.63836 18.2 7.6403 18.2 7.64225 18.2C7.6442 18.2 7.64614 18.2 7.64809 18.2C7.65004 18.2 7.65199 18.2 7.65394 18.2C7.65589 18.2 7.65784 18.2 7.65978 18.2C7.66173 18.2 7.66368 18.2 7.66563 18.2C7.66759 18.2 7.66954 18.2 7.67149 18.2C7.67344 18.2 7.67539 18.2 7.67734 18.2C7.67929 18.2 7.68125 18.2 7.6832 18.2C7.68515 18.2 7.68711 18.2 7.68906 18.2C7.69102 18.2 7.69297 18.2 7.69492 18.2C7.69688 18.2 7.69883 18.2 7.70079 18.2C7.70275 18.2 7.7047 18.2 7.70666 18.2C7.70861 18.2 7.71057 18.2 7.71253 18.2C7.71449 18.2 7.71644 18.2 7.7184 18.2C7.72036 18.2 7.72232 18.2 7.72428 18.2C7.72624 18.2 7.7282 18.2 7.73016 18.2C7.73212 18.2 7.73408 18.2 7.73604 18.2C7.738 18.2 7.73996 18.2 7.74192 18.2C7.74388 18.2 7.74585 18.2 7.74781 18.2C7.74977 18.2 7.75173 18.2 7.7537 18.2C7.75566 18.2 7.75763 18.2 7.75959 18.2C7.76155 18.2 7.76352 18.2 7.76548 18.2C7.76745 18.2 7.76941 18.2 7.77138 18.2C7.77335 18.2 7.77531 18.2 7.77728 18.2C7.77925 18.2 7.78121 18.2 7.78318 18.2C7.78515 18.2 7.78712 18.2 7.78909 18.2C7.79105 18.2 7.79302 18.2 7.79499 18.2C7.79696 18.2 7.79893 18.2 7.8009 18.2C7.80287 18.2 7.80484 18.2 7.80681 18.2C7.80878 18.2 7.81076 18.2 7.81273 18.2C7.8147 18.2 7.81667 18.2 7.81864 18.2C7.82062 18.2 7.82259 18.2 7.82456 18.2C7.82654 18.2 7.82851 18.2 7.83049 18.2C7.83246 18.2 7.83443 18.2 7.83641 18.2C7.83839 18.2 7.84036 18.2 7.84234 18.2C7.84431 18.2 7.84629 18.2 7.84827 18.2C7.85024 18.2 7.85222 18.2 7.8542 18.2C7.85618 18.2 7.85815 18.2 7.86013 18.2C7.86211 18.2 7.86409 18.2 7.86607 18.2C7.86805 18.2 7.87003 18.2 7.87201 18.2C7.87399 18.2 7.87597 18.2 7.87795 18.2C7.87993 18.2 7.88191 18.2 7.88389 18.2C7.88588 18.2 7.88786 18.2 7.88984 18.2C7.89182 18.2 7.89381 18.2 7.89579 18.2C7.89777 18.2 7.89976 18.2 7.90174 18.2C7.90373 18.2 7.90571 18.2 7.90769 18.2C7.90968 18.2 7.91167 18.2 7.91365 18.2C7.91564 18.2 7.91762 18.2 7.91961 18.2C7.9216 18.2 7.92358 18.2 7.92557 18.2C7.92756 18.2 7.92955 18.2 7.93153 18.2C7.93352 18.2 7.93551 18.2 7.9375 18.2C7.93949 18.2 7.94148 18.2 7.94347 18.2C7.94546 18.2 7.94745 18.2 7.94944 18.2C7.95143 18.2 7.95342 18.2 7.95541 18.2C7.9574 18.2 7.9594 18.2 7.96139 18.2C7.96338 18.2 7.96537 18.2 7.96737 18.2C7.96936 18.2 7.97135 18.2 7.97335 18.2C7.97534 18.2 7.97734 18.2 7.97933 18.2C7.98132 18.2 7.98332 18.2 7.98532 18.2C7.98731 18.2 7.98931 18.2 7.9913 18.2C7.9933 18.2 7.9953 18.2 7.99729 18.2C7.99929 18.2 8.00129 18.2 8.00329 18.2C8.00528 18.2 8.00728 18.2 8.00928 18.2C8.01128 18.2 8.01328 18.2 8.01528 18.2C8.01728 18.2 8.01928 18.2 8.02128 18.2C8.02328 18.2 8.02528 18.2 8.02728 18.2C8.02928 18.2 8.03128 18.2 8.03328 18.2C8.03528 18.2 8.03729 18.2 8.03929 18.2C8.04129 18.2 8.04329 18.2 8.0453 18.2C8.0473 18.2 8.0493 18.2 8.05131 18.2C8.05331 18.2 8.05532 18.2 8.05732 18.2C8.05933 18.2 8.06133 18.2 8.06334 18.2C8.06534 18.2 8.06735 18.2 8.06935 18.2C8.07136 18.2 8.07337 18.2 8.07537 18.2C8.07738 18.2 8.07939 18.2 8.0814 18.2C8.0834 18.2 8.08541 18.2 8.08742 18.2C8.08943 18.2 8.09144 18.2 8.09345 18.2C8.09546 18.2 8.09747 18.2 8.09948 18.2C8.10149 18.2 8.1035 18.2 8.10551 18.2C8.10752 18.2 8.10953 18.2 8.11154 18.2C8.11356 18.2 8.11557 18.2 8.11758 18.2C8.11959 18.2 8.12161 18.2 8.12362 18.2C8.12563 18.2 8.12765 18.2 8.12966 18.2C8.13167 18.2 8.13369 18.2 8.1357 18.2C8.13772 18.2 8.13973 18.2 8.14175 18.2C8.14376 18.2 8.14578 18.2 8.14779 18.2C8.14981 18.2 8.15183 18.2 8.15384 18.2C8.15586 18.2 8.15788 18.2 8.1599 18.2C8.16191 18.2 8.16393 18.2 8.16595 18.2C8.16797 18.2 8.16999 18.2 8.17201 18.2C8.17403 18.2 8.17605 18.2 8.17807 18.2C8.18009 18.2 8.18211 18.2 8.18413 18.2C8.18615 18.2 8.18817 18.2 8.19019 18.2C8.19221 18.2 8.19423 18.2 8.19625 18.2C8.19828 18.2 8.2003 18.2 8.20232 18.2C8.20435 18.2 8.20637 18.2 8.20839 18.2C8.21042 18.2 8.21244 18.2 8.21446 18.2C8.21649 18.2 8.21851 18.2 8.22054 18.2C8.22256 18.2 8.22459 18.2 8.22661 18.2C8.22864 18.2 8.23067 18.2 8.23269 18.2C8.23472 18.2 8.23675 18.2 8.23877 18.2C8.2408 18.2 8.24283 18.2 8.24486 18.2C8.24688 18.2 8.24891 18.2 8.25094 18.2C8.25297 18.2 8.255 18.2 8.25703 18.2C8.25906 18.2 8.26109 18.2 8.26312 18.2C8.26515 18.2 8.26718 18.2 8.26921 18.2C8.27124 18.2 8.27327 18.2 8.2753 18.2C8.27733 18.2 8.27936 18.2 8.2814 18.2C8.28343 18.2 8.28546 18.2 8.28749 18.2C8.28953 18.2 8.29156 18.2 8.29359 18.2C8.29563 18.2 8.29766 18.2 8.2997 18.2C8.30173 18.2 8.30377 18.2 8.3058 18.2C8.30784 18.2 8.30987 18.2 8.31191 18.2C8.31394 18.2 8.31598 18.2 8.31802 18.2C8.32005 18.2 8.32209 18.2 8.32413 18.2C8.32616 18.2 8.3282 18.2 8.33024 18.2C8.33228 18.2 8.33431 18.2 8.33635 18.2C8.33839 18.2 8.34043 18.2 8.34247 18.2C8.34451 18.2 8.34655 18.2 8.34859 18.2C8.35063 18.2 8.35267 18.2 8.35471 18.2C8.35675 18.2 8.35879 18.2 8.36083 18.2C8.36287 18.2 8.36492 18.2 8.36696 18.2C8.369 18.2 8.37104 18.2 8.37309 18.2C8.37513 18.2 8.37717 18.2 8.37921 18.2C8.38126 18.2 8.3833 18.2 8.38535 18.2C8.38739 18.2 8.38943 18.2 8.39148 18.2C8.39352 18.2 8.39557 18.2 8.39761 18.2C8.39966 18.2 8.40171 18.2 8.40375 18.2C8.4058 18.2 8.40784 18.2 8.40989 18.2C8.41194 18.2 8.41399 18.2 8.41603 18.2C8.41808 18.2 8.42013 18.2 8.42218 18.2C8.42422 18.2 8.42627 18.2 8.42832 18.2C8.43037 18.2 8.43242 18.2 8.43447 18.2C8.43652 18.2 8.43857 18.2 8.44062 18.2C8.44267 18.2 8.44472 18.2 8.44677 18.2C8.44882 18.2 8.45087 18.2 8.45292 18.2C8.45498 18.2 8.45703 18.2 8.45908 18.2C8.46113 18.2 8.46318 18.2 8.46524 18.2C8.46729 18.2 8.46934 18.2 8.4714 18.2C8.47345 18.2 8.4755 18.2 8.47756 18.2C8.47961 18.2 8.48167 18.2 8.48372 18.2C8.48578 18.2 8.48783 18.2 8.48989 18.2C8.49194 18.2 8.494 18.2 8.49605 18.2C8.49811 18.2 8.50017 18.2 8.50222 18.2C8.50428 18.2 8.50634 18.2 8.5084 18.2C8.51045 18.2 8.51251 18.2 8.51457 18.2C8.51663 18.2 8.51869 18.2 8.52074 18.2C8.5228 18.2 8.52486 18.2 8.52692 18.2C8.52898 18.2 8.53104 18.2 8.5331 18.2C8.53516 18.2 8.53722 18.2 8.53928 18.2C8.54134 18.2 8.5434 18.2 8.54547 18.2C8.54753 18.2 8.54959 18.2 8.55165 18.2C8.55371 18.2 8.55577 18.2 8.55784 18.2C8.5599 18.2 8.56196 18.2 8.56403 18.2C8.56609 18.2 8.56815 18.2 8.57022 18.2C8.57228 18.2 8.57434 18.2 8.57641 18.2C8.57847 18.2 8.58054 18.2 8.5826 18.2C8.58467 18.2 8.58673 18.2 8.5888 18.2C8.59087 18.2 8.59293 18.2 8.595 18.2C8.59706 18.2 8.59913 18.2 8.6012 18.2C8.60327 18.2 8.60533 18.2 8.6074 18.2C8.60947 18.2 8.61154 18.2 8.6136 18.2C8.61567 18.2 8.61774 18.2 8.61981 18.2C8.62188 18.2 8.62395 18.2 8.62602 18.2C8.62809 18.2 8.63016 18.2 8.63223 18.2C8.6343 18.2 8.63637 18.2 8.63844 18.2C8.64051 18.2 8.64258 18.2 8.64465 18.2C8.64672 18.2 8.6488 18.2 8.65087 18.2C8.65294 18.2 8.65501 18.2 8.65709 18.2C8.65916 18.2 8.66123 18.2 8.6633 18.2C8.66538 18.2 8.66745 18.2 8.66952 18.2C8.6716 18.2 8.67367 18.2 8.67575 18.2C8.67782 18.2 8.6799 18.2 8.68197 18.2C8.68405 18.2 8.68612 18.2 8.6882 18.2C8.69027 18.2 8.69235 18.2 8.69443 18.2C8.6965 18.2 8.69858 18.2 8.70066 18.2C8.70273 18.2 8.70481 18.2 8.70689 18.2C8.70896 18.2 8.71104 18.2 8.71312 18.2C8.7152 18.2 8.71728 18.2 8.71936 18.2C8.72143 18.2 8.72351 18.2 8.72559 18.2C8.72767 18.2 8.72975 18.2 8.73183 18.2C8.73391 18.2 8.73599 18.2 8.73807 18.2C8.74015 18.2 8.74223 18.2 8.74431 18.2C8.7464 18.2 8.74848 18.2 8.75056 18.2C8.75264 18.2 8.75472 18.2 8.7568 18.2C8.75889 18.2 8.76097 18.2 8.76305 18.2C8.76514 18.2 8.76722 18.2 8.7693 18.2C8.77139 18.2 8.77347 18.2 8.77555 18.2C8.77764 18.2 8.77972 18.2 8.78181 18.2C8.78389 18.2 8.78598 18.2 8.78806 18.2C8.79015 18.2 8.79223 18.2 8.79432 18.2C8.7964 18.2 8.79849 18.2 8.80058 18.2C8.80266 18.2 8.80475 18.2 8.80684 18.2C8.80892 18.2 8.81101 18.2 8.8131 18.2C8.81518 18.2 8.81727 18.2 8.81936 18.2C8.82145 18.2 8.82354 18.2 8.82563 18.2C8.82771 18.2 8.8298 18.2 8.83189 18.2C8.83398 18.2 8.83607 18.2 8.83816 18.2C8.84025 18.2 8.84234 18.2 8.84443 18.2C8.84652 18.2 8.84861 18.2 8.8507 18.2C8.85279 18.2 8.85488 18.2 8.85698 18.2C8.85907 18.2 8.86116 18.2 8.86325 18.2C8.86534 18.2 8.86744 18.2 8.86953 18.2C8.87162 18.2 8.87371 18.2 8.87581 18.2C8.8779 18.2 8.87999 18.2 8.88209 18.2C8.88418 18.2 8.88627 18.2 8.88837 18.2C8.89046 18.2 8.89256 18.2 8.89465 18.2C8.89675 18.2 8.89884 18.2 8.90094 18.2C8.90303 18.2 8.90513 18.2 8.90722 18.2C8.90932 18.2 8.91142 18.2 8.91351 18.2C8.91561 18.2 8.91771 18.2 8.9198 18.2C8.9219 18.2 8.924 18.2 8.9261 18.2C8.92819 18.2 8.93029 18.2 8.93239 18.2C8.93449 18.2 8.93659 18.2 8.93868 18.2C8.94078 18.2 8.94288 18.2 8.94498 18.2C8.94708 18.2 8.94918 18.2 8.95128 18.2C8.95338 18.2 8.95548 18.2 8.95758 18.2C8.95968 18.2 8.96178 18.2 8.96388 18.2C8.96598 18.2 8.96808 18.2 8.97018 18.2C8.97228 18.2 8.97439 18.2 8.97649 18.2C8.97859 18.2 8.98069 18.2 8.98279 18.2C8.9849 18.2 8.987 18.2 8.9891 18.2C8.99121 18.2 8.99331 18.2 8.99541 18.2C8.99752 18.2 8.99962 18.2 9.00172 18.2C9.00383 18.2 9.00593 18.2 9.00804 18.2C9.01014 18.2 9.01225 18.2 9.01435 18.2C9.01646 18.2 9.01856 18.2 9.02067 18.2C9.02277 18.2 9.02488 18.2 9.02698 18.2C9.02909 18.2 9.0312 18.2 9.0333 18.2C9.03541 18.2 9.03752 18.2 9.03962 18.2C9.04173 18.2 9.04384 18.2 9.04595 18.2C9.04805 18.2 9.05016 18.2 9.05227 18.2C9.05438 18.2 9.05649 18.2 9.05859 18.2C9.0607 18.2 9.06281 18.2 9.06492 18.2C9.06703 18.2 9.06914 18.2 9.07125 18.2C9.07336 18.2 9.07547 18.2 9.07758 18.2C9.07969 18.2 9.0818 18.2 9.08391 18.2C9.08602 18.2 9.08813 18.2 9.09024 18.2C9.09235 18.2 9.09447 18.2 9.09658 18.2C9.09869 18.2 9.1008 18.2 9.10291 18.2C9.10502 18.2 9.10714 18.2 9.10925 18.2C9.11136 18.2 9.11348 18.2 9.11559 18.2C9.1177 18.2 9.11982 18.2 9.12193 18.2C9.12404 18.2 9.12616 18.2 9.12827 18.2C9.13038 18.2 9.1325 18.2 9.13461 18.2C9.13673 18.2 9.13884 18.2 9.14096 18.2C9.14307 18.2 9.14519 18.2 9.1473 18.2C9.14942 18.2 9.15154 18.2 9.15365 18.2C9.15577 18.2 9.15788 18.2 9.16 18.2C9.16212 18.2 9.16423 18.2 9.16635 18.2C9.16847 18.2 9.17059 18.2 9.1727 18.2C9.17482 18.2 9.17694 18.2 9.17906 18.2C9.18118 18.2 9.18329 18.2 9.18541 18.2C9.18753 18.2 9.18965 18.2 9.19177 18.2C9.19389 18.2 9.19601 18.2 9.19813 18.2C9.20025 18.2 9.20237 18.2 9.20449 18.2C9.20661 18.2 9.20873 18.2 9.21085 18.2C9.21297 18.2 9.21509 18.2 9.21721 18.2C9.21933 18.2 9.22145 18.2 9.22357 18.2C9.22569 18.2 9.22781 18.2 9.22994 18.2C9.23206 18.2 9.23418 18.2 9.2363 18.2C9.23842 18.2 9.24055 18.2 9.24267 18.2C9.24479 18.2 9.24692 18.2 9.24904 18.2C9.25116 18.2 9.25329 18.2 9.25541 18.2C9.25753 18.2 9.25966 18.2 9.26178 18.2C9.26391 18.2 9.26603 18.2 9.26815 18.2C9.27028 18.2 9.2724 18.2 9.27453 18.2C9.27665 18.2 9.27878 18.2 9.28091 18.2C9.28303 18.2 9.28516 18.2 9.28728 18.2C9.28941 18.2 9.29153 18.2 9.29366 18.2C9.29579 18.2 9.29791 18.2 9.30004 18.2C9.30217 18.2 9.3043 18.2 9.30642 18.2C9.30855 18.2 9.31068 18.2 9.31281 18.2C9.31493 18.2 9.31706 18.2 9.31919 18.2C9.32132 18.2 9.32345 18.2 9.32557 18.2C9.3277 18.2 9.32983 18.2 9.33196 18.2C9.33409 18.2 9.33622 18.2 9.33835 18.2C9.34048 18.2 9.34261 18.2 9.34474 18.2C9.34687 18.2 9.349 18.2 9.35113 18.2C9.35326 18.2 9.35539 18.2 9.35752 18.2C9.35965 18.2 9.36178 18.2 9.36391 18.2C9.36605 18.2 9.36818 18.2 9.37031 18.2C9.37244 18.2 9.37457 18.2 9.37671 18.2C9.37884 18.2 9.38097 18.2 9.3831 18.2C9.38523 18.2 9.38737 18.2 9.3895 18.2C9.39163 18.2 9.39377 18.2 9.3959 18.2C9.39803 18.2 9.40017 18.2 9.4023 18.2C9.40444 18.2 9.40657 18.2 9.4087 18.2C9.41084 18.2 9.41297 18.2 9.41511 18.2C9.41724 18.2 9.41938 18.2 9.42151 18.2C9.42365 18.2 9.42578 18.2 9.42792 18.2C9.43005 18.2 9.43219 18.2 9.43433 18.2C9.43646 18.2 9.4386 18.2 9.44073 18.2C9.44287 18.2 9.44501 18.2 9.44714 18.2C9.44928 18.2 9.45142 18.2 9.45356 18.2C9.45569 18.2 9.45783 18.2 9.45997 18.2C9.46211 18.2 9.46424 18.2 9.46638 18.2C9.46852 18.2 9.47066 18.2 9.4728 18.2C9.47493 18.2 9.47707 18.2 9.47921 18.2C9.48135 18.2 9.48349 18.2 9.48563 18.2C9.48777 18.2 9.48991 18.2 9.49205 18.2C9.49419 18.2 9.49633 18.2 9.49847 18.2C9.50061 18.2 9.50275 18.2 9.50489 18.2C9.50703 18.2 9.50917 18.2 9.51131 18.2C9.51345 18.2 9.51559 18.2 9.51773 18.2C9.51987 18.2 9.52202 18.2 9.52416 18.2C9.5263 18.2 9.52844 18.2 9.53058 18.2C9.53273 18.2 9.53487 18.2 9.53701 18.2C9.53915 18.2 9.5413 18.2 9.54344 18.2C9.54558 18.2 9.54772 18.2 9.54987 18.2C9.55201 18.2 9.55415 18.2 9.5563 18.2C9.55844 18.2 9.56058 18.2 9.56273 18.2C9.56487 18.2 9.56702 18.2 9.56916 18.2C9.57131 18.2 9.57345 18.2 9.5756 18.2C9.57774 18.2 9.57988 18.2 9.58203 18.2L9.58203 16.8ZM6.54393 3.2C7.43514 3.2 8.48372 3.2 9.58203 3.2L9.58203 1.8C8.48372 1.8 7.43514 1.8 6.54393 1.8L6.54393 3.2ZM4.30757 14.7932C4.1688 13.2874 4.03203 11.435 4.03203 10L2.63203 10C2.63203 11.5026 2.77399 13.4081 2.91348 14.9217L4.30757 14.7932ZM4.03203 10C4.03203 8.56499 4.1688 6.71264 4.30757 5.20676L2.91348 5.0783C2.77399 6.59192 2.63203 8.4974 2.63203 10L4.03203 10ZM6.54393 1.8C4.6764 1.8 3.08684 3.19696 2.91348 5.0783L4.30757 5.20676C4.41257 4.06738 5.37794 3.2 6.54393 3.2L6.54393 1.8ZM6.54393 16.8C5.37794 16.8 4.41257 15.9326 4.30757 14.7932L2.91348 14.9217C3.08684 16.803 4.6764 18.2 6.54393 18.2L6.54393 16.8Z" fill="#4470FF"/>
</svg>
