<svg width="212" height="44" viewBox="0 0 212 44" fill="none" xmlns="http://www.w3.org/2000/svg">
<path d="M28.3136 2.45399L31.4913 0L34.8569 4.35174L31.6792 6.80573L28.3136 2.45399ZM25.1277 11.8855L29.8739 8.17996L26.5164 3.86094L19.6055 9.19427V34.7894L25.479 39.7464L29.0161 35.5419L25.1277 32.229V11.8855ZM3.17772 37.1861L0 39.6483L3.36561 44L6.53516 41.546L3.17772 37.1861ZM9.71289 32.1063L4.98306 35.7873L8.3405 40.1391L15.2188 34.8057V9.21063L9.35345 4.25358L5.80813 8.45808L9.72922 11.771L9.71289 32.1063Z" fill="white"/>
<path d="M61.2671 20.5889C62.0909 19.9371 62.7527 19.1031 63.2006 18.1522C63.6484 17.2013 63.8702 16.1595 63.8485 15.1084C63.8547 14.1866 63.6743 13.2731 63.3181 12.4231C62.962 11.5731 62.4375 10.8041 61.7763 10.1627C61.1152 9.52131 60.331 9.02072 59.4713 8.69119C58.6116 8.36165 57.6941 8.21 56.7742 8.24539H44.7332V34.6585H57.5911C61.9696 34.6585 65.1474 31.5746 65.1474 27.2965C65.1819 25.9288 64.8377 24.5781 64.1529 23.3942C63.468 22.2103 62.4692 21.2394 61.2671 20.5889ZM49.8306 13.0307H55.6796C56.0543 13.0239 56.4265 13.0933 56.7737 13.2348C57.1208 13.3763 57.4357 13.5868 57.6992 13.8537C57.9627 14.1206 58.1694 14.4383 58.3066 14.7876C58.4439 15.1368 58.509 15.5103 58.4978 15.8855C58.5044 16.2598 58.4362 16.6317 58.2974 16.9793C58.1586 17.3269 57.9519 17.6433 57.6894 17.9099C57.427 18.1766 57.114 18.3881 56.7689 18.532C56.4238 18.676 56.0534 18.7496 55.6796 18.7485H49.8306V13.0307ZM56.57 29.8732H49.8306V23.3292H56.57C57.4366 23.3292 58.2677 23.674 58.8805 24.2876C59.4933 24.9012 59.8375 25.7334 59.8375 26.6012C59.8375 27.469 59.4933 28.3012 58.8805 28.9149C58.2677 29.5285 57.4366 29.8732 56.57 29.8732Z" fill="white"/>
<path d="M73.6349 16.9816V14.9285H68.6682V34.6585H73.6349V25.0552C73.6349 21.7096 75.6853 19.7137 79.1163 19.7137H80.2273V14.6258H79.1163C78.089 14.6132 77.0704 14.8163 76.1263 15.2221C75.1822 15.6278 74.3335 16.2272 73.6349 16.9816Z" fill="white"/>
<path d="M88.4616 14.9285H83.4949V34.6667H88.4616V14.9285Z" fill="white"/>
<path d="M85.97 6.47034C85.5685 6.4614 85.1693 6.534 84.7966 6.68376C84.4239 6.83352 84.0853 7.05733 83.8013 7.3417C83.5174 7.62606 83.2938 7.96508 83.1443 8.33831C82.9947 8.71154 82.9222 9.11123 82.9312 9.51328C82.9263 10.122 83.1025 10.7185 83.4372 11.2267C83.7719 11.7348 84.2501 12.1318 84.8109 12.367C85.3716 12.6022 85.9896 12.665 86.5861 12.5475C87.1826 12.4299 87.7306 12.1372 88.1605 11.7068C88.5904 11.2763 88.8827 10.7275 89.0001 10.1302C89.1175 9.53286 89.0548 8.91407 88.8199 8.35257C88.585 7.79107 88.1886 7.31225 87.6811 6.97707C87.1736 6.64188 86.5779 6.46549 85.97 6.47034Z" fill="white"/>
<path d="M108.427 16.9734C107.606 16.1656 106.633 15.529 105.564 15.1008C104.496 14.6725 103.353 14.461 102.202 14.4785C96.6714 14.4785 92.4971 18.9121 92.4971 24.7935C92.4971 30.6749 96.6714 35.1084 102.202 35.1084C103.352 35.1241 104.495 34.9118 105.563 34.4836C106.631 34.0555 107.605 33.4199 108.427 32.6135V34.6585H113.393V7.13293H108.427V16.9734ZM103.019 30.2659C102.297 30.2793 101.579 30.1463 100.91 29.8748C100.241 29.6033 99.6333 29.199 99.1242 28.6862C98.6152 28.1733 98.215 27.5626 97.9479 26.8908C97.6808 26.219 97.5522 25.5 97.57 24.7771C97.5416 24.0456 97.6611 23.3158 97.9211 22.6316C98.1811 21.9473 98.5764 21.3227 99.0832 20.7951C99.5901 20.2675 100.198 19.8477 100.871 19.561C101.544 19.2743 102.267 19.1265 102.998 19.1265C103.729 19.1265 104.453 19.2743 105.126 19.561C105.798 19.8477 106.406 20.2675 106.913 20.7951C107.42 21.3227 107.815 21.9473 108.075 22.6316C108.335 23.3158 108.455 24.0456 108.427 24.7771C108.448 25.4974 108.323 26.2145 108.059 26.8851C107.796 27.5557 107.4 28.1659 106.894 28.6789C106.389 29.1918 105.785 29.5969 105.119 29.8697C104.453 30.1425 103.738 30.2772 103.019 30.2659Z" fill="white"/>
<path d="M149.402 14.4786C148.048 14.4762 146.705 14.7229 145.44 15.2066C144.773 13.771 143.712 12.5554 142.38 11.7019C141.048 10.8484 139.501 10.3924 137.92 10.3873C136.339 10.3821 134.789 10.828 133.451 11.6728C132.114 12.5176 131.045 13.7263 130.368 15.1575C130.164 15.0757 129.952 15.0021 129.739 14.9366C128.752 14.6338 127.725 14.4794 126.692 14.4786C121.456 14.4786 117.502 18.2086 117.502 23.1575C117.487 25.3422 118.318 27.4478 119.822 29.0307C119.118 29.5785 118.55 30.2809 118.16 31.0836C117.771 31.8864 117.571 32.7681 117.576 33.6606C117.576 36.7362 120.026 38.8875 123.621 38.8875H130.099C131.79 38.8875 132.892 39.7055 132.991 40.998V41.4888L138.161 40.0818L138.096 39.7137C137.508 36.1882 134.747 33.9878 130.875 33.9878H124.397C123.294 33.9878 122.583 33.4315 122.583 32.5808C122.585 32.3202 122.645 32.0633 122.758 31.8286C122.871 31.5938 123.035 31.387 123.237 31.2229C124.347 31.6121 125.516 31.8085 126.692 31.8037C131.929 31.8037 135.882 28.0655 135.882 23.1166C135.881 21.4555 135.392 19.8314 134.477 18.4458C134.544 17.6099 134.915 16.8274 135.518 16.2458C136.121 15.6643 136.916 15.3238 137.753 15.2886C138.59 15.2534 139.411 15.5259 140.061 16.0547C140.711 16.5835 141.145 17.3322 141.282 18.1595C139.794 20.0124 138.997 22.3261 139.027 24.7035C139.027 30.6258 143.7 35.092 149.884 35.092C151.581 35.1274 153.265 34.7779 154.808 34.0696C156.351 33.3613 157.715 32.3127 158.796 31.0021L159.049 30.6994L155.602 27.7464L155.341 28.09C154.688 28.8706 153.87 29.4959 152.946 29.9204C152.022 30.3449 151.015 30.5579 149.998 30.544C148.804 30.6119 147.62 30.2909 146.623 29.6288C145.626 28.9668 144.87 27.9993 144.468 26.8712H159.572L159.629 26.5195C159.702 25.9579 159.74 25.3924 159.744 24.8262C159.774 23.4584 159.527 22.0986 159.018 20.829C158.509 19.5594 157.748 18.4062 156.781 17.4391C155.815 16.4721 154.663 15.7112 153.394 15.2023C152.126 14.6935 150.768 14.4473 149.402 14.4786ZM126.692 27.092C126.164 27.1118 125.636 27.0247 125.142 26.836C124.648 26.6472 124.197 26.3607 123.815 25.9935C123.434 25.6262 123.131 25.1858 122.923 24.6986C122.716 24.2113 122.608 23.6872 122.608 23.1575C122.577 22.3427 122.79 21.5372 123.219 20.8445C123.649 20.1517 124.276 19.6034 125.019 19.2699C125.762 18.9363 126.587 18.8329 127.39 18.9727C128.192 19.1125 128.934 19.4892 129.521 20.0546C130.108 20.6199 130.513 21.3479 130.683 22.1453C130.854 22.9426 130.782 23.7728 130.478 24.5292C130.174 25.2857 129.651 25.9338 128.977 26.3905C128.302 26.8471 127.507 27.0915 126.692 27.092ZM144.435 22.6422C144.776 21.5956 145.439 20.684 146.329 20.0375C147.219 19.391 148.29 19.0429 149.39 19.0429C150.489 19.0429 151.56 19.391 152.45 20.0375C153.34 20.684 154.003 21.5956 154.344 22.6422H144.435Z" fill="white"/>
<path d="M179.97 24.3108C179.97 25.8294 179.368 27.2858 178.295 28.3597C177.223 29.4335 175.768 30.0368 174.252 30.0368C172.735 30.0368 171.281 29.4335 170.208 28.3597C169.136 27.2858 168.534 25.8294 168.534 24.3108V8.24536H163.379V24.3844C163.457 27.23 164.64 29.9329 166.678 31.918C168.715 33.9032 171.446 35.0139 174.289 35.0139C177.131 35.0139 179.862 33.9032 181.899 31.918C183.937 29.9329 185.12 27.23 185.198 24.3844V8.24536H179.978L179.97 24.3108Z" fill="white"/>
<path d="M201.308 14.4785C200.15 14.4593 198.999 14.6724 197.925 15.105C196.85 15.5377 195.873 16.1813 195.05 16.9979V14.9284H190.083V41.7177H195.05V32.5889C195.874 33.404 196.851 34.0466 197.926 34.4792C199 34.9118 200.15 35.1257 201.308 35.1083C206.846 35.1083 211.021 30.6748 211.021 24.7934C211.021 18.912 206.846 14.4785 201.308 14.4785ZM200.491 30.2822C199.769 30.2956 199.052 30.1626 198.382 29.8911C197.713 29.6196 197.105 29.2153 196.596 28.7025C196.087 28.1896 195.687 27.5789 195.42 26.9071C195.153 26.2353 195.024 25.5163 195.042 24.7934C195.014 24.0619 195.133 23.3321 195.393 22.6479C195.653 21.9636 196.048 21.339 196.555 20.8114C197.062 20.2838 197.67 19.864 198.343 19.5773C199.016 19.2906 199.739 19.1428 200.47 19.1428C201.201 19.1428 201.925 19.2906 202.598 19.5773C203.27 19.864 203.878 20.2838 204.385 20.8114C204.892 21.339 205.287 21.9636 205.548 22.6479C205.808 23.3321 205.927 24.0619 205.899 24.7934C205.917 25.5116 205.791 26.2263 205.527 26.8944C205.263 27.5625 204.867 28.1704 204.363 28.6815C203.859 29.1926 203.256 29.5964 202.592 29.8686C201.928 30.1409 201.216 30.276 200.499 30.2658L200.491 30.2822Z" fill="white"/>
</svg>
