<svg width="16" height="16" viewBox="0 0 16 16" fill="none" xmlns="http://www.w3.org/2000/svg">
<path d="M5.55542 8L12.2221 8" stroke="#7D87A6" stroke-width="0.93" stroke-linecap="round"/>
<line x1="12.6756" y1="8" x2="10.6666" y2="5.99094" stroke="#7D87A6" stroke-width="0.93" stroke-linecap="round"/>
<line x1="0.465" y1="-0.465" x2="3.30624" y2="-0.465" transform="matrix(-0.707107 0.707107 0.707107 0.707107 13.3333 8)" stroke="#7D87A6" stroke-width="0.93" stroke-linecap="round"/>
<path d="M7.6665 2.465C7.92332 2.465 8.1315 2.25681 8.1315 2C8.1315 1.74319 7.92332 1.535 7.6665 1.535L7.6665 2.465ZM7.6665 14.465C7.92332 14.465 8.1315 14.2568 8.1315 14C8.1315 13.7432 7.92332 13.535 7.6665 13.535L7.6665 14.465ZM2.84233 4.64305L2.37901 4.60352L2.84233 4.64305ZM7.6665 13.535C7.6652 13.535 7.66389 13.535 7.66259 13.535C7.66128 13.535 7.65997 13.535 7.65867 13.535C7.65736 13.535 7.65606 13.535 7.65475 13.535C7.65345 13.535 7.65214 13.535 7.65084 13.535C7.64953 13.535 7.64823 13.535 7.64692 13.535C7.64562 13.535 7.64431 13.535 7.64301 13.535C7.6417 13.535 7.6404 13.535 7.63909 13.535C7.63779 13.535 7.63648 13.535 7.63518 13.535C7.63388 13.535 7.63257 13.535 7.63127 13.535C7.62996 13.535 7.62866 13.535 7.62735 13.535C7.62605 13.535 7.62475 13.535 7.62344 13.535C7.62214 13.535 7.62083 13.535 7.61953 13.535C7.61823 13.535 7.61692 13.535 7.61562 13.535C7.61432 13.535 7.61301 13.535 7.61171 13.535C7.61041 13.535 7.6091 13.535 7.6078 13.535C7.6065 13.535 7.60519 13.535 7.60389 13.535C7.60259 13.535 7.60129 13.535 7.59998 13.535C7.59868 13.535 7.59738 13.535 7.59607 13.535C7.59477 13.535 7.59347 13.535 7.59217 13.535C7.59086 13.535 7.58956 13.535 7.58826 13.535C7.58696 13.535 7.58566 13.535 7.58435 13.535C7.58305 13.535 7.58175 13.535 7.58045 13.535C7.57915 13.535 7.57784 13.535 7.57654 13.535C7.57524 13.535 7.57394 13.535 7.57264 13.535C7.57134 13.535 7.57004 13.535 7.56873 13.535C7.56743 13.535 7.56613 13.535 7.56483 13.535C7.56353 13.535 7.56223 13.535 7.56093 13.535C7.55963 13.535 7.55833 13.535 7.55703 13.535C7.55572 13.535 7.55442 13.535 7.55312 13.535C7.55182 13.535 7.55052 13.535 7.54922 13.535C7.54792 13.535 7.54662 13.535 7.54532 13.535C7.54402 13.535 7.54272 13.535 7.54142 13.535C7.54012 13.535 7.53882 13.535 7.53752 13.535C7.53622 13.535 7.53492 13.535 7.53362 13.535C7.53232 13.535 7.53102 13.535 7.52973 13.535C7.52843 13.535 7.52713 13.535 7.52583 13.535C7.52453 13.535 7.52323 13.535 7.52193 13.535C7.52063 13.535 7.51933 13.535 7.51803 13.535C7.51673 13.535 7.51544 13.535 7.51414 13.535C7.51284 13.535 7.51154 13.535 7.51024 13.535C7.50894 13.535 7.50765 13.535 7.50635 13.535C7.50505 13.535 7.50375 13.535 7.50245 13.535C7.50116 13.535 7.49986 13.535 7.49856 13.535C7.49726 13.535 7.49596 13.535 7.49467 13.535C7.49337 13.535 7.49207 13.535 7.49077 13.535C7.48948 13.535 7.48818 13.535 7.48688 13.535C7.48559 13.535 7.48429 13.535 7.48299 13.535C7.48169 13.535 7.4804 13.535 7.4791 13.535C7.4778 13.535 7.47651 13.535 7.47521 13.535C7.47391 13.535 7.47262 13.535 7.47132 13.535C7.47003 13.535 7.46873 13.535 7.46743 13.535C7.46614 13.535 7.46484 13.535 7.46355 13.535C7.46225 13.535 7.46095 13.535 7.45966 13.535C7.45836 13.535 7.45707 13.535 7.45577 13.535C7.45448 13.535 7.45318 13.535 7.45188 13.535C7.45059 13.535 7.44929 13.535 7.448 13.535C7.4467 13.535 7.44541 13.535 7.44411 13.535C7.44282 13.535 7.44152 13.535 7.44023 13.535C7.43893 13.535 7.43764 13.535 7.43635 13.535C7.43505 13.535 7.43376 13.535 7.43246 13.535C7.43117 13.535 7.42987 13.535 7.42858 13.535C7.42729 13.535 7.42599 13.535 7.4247 13.535C7.4234 13.535 7.42211 13.535 7.42082 13.535C7.41952 13.535 7.41823 13.535 7.41694 13.535C7.41564 13.535 7.41435 13.535 7.41306 13.535C7.41176 13.535 7.41047 13.535 7.40918 13.535C7.40788 13.535 7.40659 13.535 7.4053 13.535C7.40401 13.535 7.40271 13.535 7.40142 13.535C7.40013 13.535 7.39884 13.535 7.39754 13.535C7.39625 13.535 7.39496 13.535 7.39367 13.535C7.39237 13.535 7.39108 13.535 7.38979 13.535C7.3885 13.535 7.38721 13.535 7.38591 13.535C7.38462 13.535 7.38333 13.535 7.38204 13.535C7.38075 13.535 7.37946 13.535 7.37817 13.535C7.37687 13.535 7.37558 13.535 7.37429 13.535C7.373 13.535 7.37171 13.535 7.37042 13.535C7.36913 13.535 7.36784 13.535 7.36655 13.535C7.36526 13.535 7.36397 13.535 7.36268 13.535C7.36138 13.535 7.36009 13.535 7.3588 13.535C7.35751 13.535 7.35622 13.535 7.35493 13.535C7.35364 13.535 7.35235 13.535 7.35106 13.535C7.34977 13.535 7.34849 13.535 7.3472 13.535C7.34591 13.535 7.34462 13.535 7.34333 13.535C7.34204 13.535 7.34075 13.535 7.33946 13.535C7.33817 13.535 7.33688 13.535 7.33559 13.535C7.3343 13.535 7.33302 13.535 7.33173 13.535C7.33044 13.535 7.32915 13.535 7.32786 13.535C7.32657 13.535 7.32528 13.535 7.324 13.535C7.32271 13.535 7.32142 13.535 7.32013 13.535C7.31884 13.535 7.31756 13.535 7.31627 13.535C7.31498 13.535 7.31369 13.535 7.31241 13.535C7.31112 13.535 7.30983 13.535 7.30854 13.535C7.30726 13.535 7.30597 13.535 7.30468 13.535C7.3034 13.535 7.30211 13.535 7.30082 13.535C7.29953 13.535 7.29825 13.535 7.29696 13.535C7.29567 13.535 7.29439 13.535 7.2931 13.535C7.29182 13.535 7.29053 13.535 7.28924 13.535C7.28796 13.535 7.28667 13.535 7.28539 13.535C7.2841 13.535 7.28281 13.535 7.28153 13.535C7.28024 13.535 7.27896 13.535 7.27767 13.535C7.27639 13.535 7.2751 13.535 7.27382 13.535C7.27253 13.535 7.27124 13.535 7.26996 13.535C7.26867 13.535 7.26739 13.535 7.26611 13.535C7.26482 13.535 7.26354 13.535 7.26225 13.535C7.26097 13.535 7.25968 13.535 7.2584 13.535C7.25711 13.535 7.25583 13.535 7.25455 13.535C7.25326 13.535 7.25198 13.535 7.25069 13.535C7.24941 13.535 7.24813 13.535 7.24684 13.535C7.24556 13.535 7.24428 13.535 7.24299 13.535C7.24171 13.535 7.24043 13.535 7.23914 13.535C7.23786 13.535 7.23658 13.535 7.23529 13.535C7.23401 13.535 7.23273 13.535 7.23145 13.535C7.23016 13.535 7.22888 13.535 7.2276 13.535C7.22632 13.535 7.22503 13.535 7.22375 13.535C7.22247 13.535 7.22119 13.535 7.21991 13.535C7.21862 13.535 7.21734 13.535 7.21606 13.535C7.21478 13.535 7.2135 13.535 7.21222 13.535C7.21093 13.535 7.20965 13.535 7.20837 13.535C7.20709 13.535 7.20581 13.535 7.20453 13.535C7.20325 13.535 7.20197 13.535 7.20069 13.535C7.19941 13.535 7.19813 13.535 7.19685 13.535C7.19556 13.535 7.19428 13.535 7.193 13.535C7.19172 13.535 7.19044 13.535 7.18916 13.535C7.18788 13.535 7.1866 13.535 7.18532 13.535C7.18404 13.535 7.18277 13.535 7.18149 13.535C7.18021 13.535 7.17893 13.535 7.17765 13.535C7.17637 13.535 7.17509 13.535 7.17381 13.535C7.17253 13.535 7.17125 13.535 7.16997 13.535C7.1687 13.535 7.16742 13.535 7.16614 13.535C7.16486 13.535 7.16358 13.535 7.1623 13.535C7.16103 13.535 7.15975 13.535 7.15847 13.535C7.15719 13.535 7.15591 13.535 7.15464 13.535C7.15336 13.535 7.15208 13.535 7.1508 13.535C7.14953 13.535 7.14825 13.535 7.14697 13.535C7.14569 13.535 7.14442 13.535 7.14314 13.535C7.14186 13.535 7.14059 13.535 7.13931 13.535C7.13803 13.535 7.13676 13.535 7.13548 13.535C7.1342 13.535 7.13293 13.535 7.13165 13.535C7.13037 13.535 7.1291 13.535 7.12782 13.535C7.12655 13.535 7.12527 13.535 7.12399 13.535C7.12272 13.535 7.12144 13.535 7.12017 13.535C7.11889 13.535 7.11762 13.535 7.11634 13.535C7.11507 13.535 7.11379 13.535 7.11252 13.535C7.11124 13.535 7.10997 13.535 7.10869 13.535C7.10742 13.535 7.10614 13.535 7.10487 13.535C7.10359 13.535 7.10232 13.535 7.10105 13.535C7.09977 13.535 7.0985 13.535 7.09722 13.535C7.09595 13.535 7.09468 13.535 7.0934 13.535C7.09213 13.535 7.09086 13.535 7.08958 13.535C7.08831 13.535 7.08704 13.535 7.08576 13.535C7.08449 13.535 7.08322 13.535 7.08194 13.535C7.08067 13.535 7.0794 13.535 7.07813 13.535C7.07685 13.535 7.07558 13.535 7.07431 13.535C7.07304 13.535 7.07176 13.535 7.07049 13.535C7.06922 13.535 7.06795 13.535 7.06668 13.535C7.0654 13.535 7.06413 13.535 7.06286 13.535C7.06159 13.535 7.06032 13.535 7.05905 13.535C7.05778 13.535 7.0565 13.535 7.05523 13.535C7.05396 13.535 7.05269 13.535 7.05142 13.535C7.05015 13.535 7.04888 13.535 7.04761 13.535C7.04634 13.535 7.04507 13.535 7.0438 13.535C7.04253 13.535 7.04126 13.535 7.03999 13.535C7.03872 13.535 7.03745 13.535 7.03618 13.535C7.03491 13.535 7.03364 13.535 7.03237 13.535C7.0311 13.535 7.02983 13.535 7.02856 13.535C7.02729 13.535 7.02602 13.535 7.02475 13.535C7.02349 13.535 7.02222 13.535 7.02095 13.535C7.01968 13.535 7.01841 13.535 7.01714 13.535C7.01587 13.535 7.01461 13.535 7.01334 13.535C7.01207 13.535 7.0108 13.535 7.00953 13.535C7.00827 13.535 7.007 13.535 7.00573 13.535C7.00446 13.535 7.0032 13.535 7.00193 13.535C7.00066 13.535 6.99939 13.535 6.99813 13.535C6.99686 13.535 6.99559 13.535 6.99433 13.535C6.99306 13.535 6.99179 13.535 6.99053 13.535C6.98926 13.535 6.988 13.535 6.98673 13.535C6.98546 13.535 6.9842 13.535 6.98293 13.535C6.98166 13.535 6.9804 13.535 6.97913 13.535C6.97787 13.535 6.9766 13.535 6.97534 13.535C6.97407 13.535 6.97281 13.535 6.97154 13.535C6.97028 13.535 6.96901 13.535 6.96775 13.535C6.96648 13.535 6.96522 13.535 6.96395 13.535C6.96269 13.535 6.96142 13.535 6.96016 13.535C6.9589 13.535 6.95763 13.535 6.95637 13.535C6.9551 13.535 6.95384 13.535 6.95258 13.535C6.95131 13.535 6.95005 13.535 6.94879 13.535C6.94752 13.535 6.94626 13.535 6.945 13.535C6.94373 13.535 6.94247 13.535 6.94121 13.535C6.93994 13.535 6.93868 13.535 6.93742 13.535C6.93616 13.535 6.93489 13.535 6.93363 13.535C6.93237 13.535 6.93111 13.535 6.92985 13.535C6.92858 13.535 6.92732 13.535 6.92606 13.535C6.9248 13.535 6.92354 13.535 6.92228 13.535C6.92101 13.535 6.91975 13.535 6.91849 13.535C6.91723 13.535 6.91597 13.535 6.91471 13.535C6.91345 13.535 6.91219 13.535 6.91093 13.535C6.90967 13.535 6.90841 13.535 6.90715 13.535C6.90589 13.535 6.90463 13.535 6.90337 13.535C6.90211 13.535 6.90085 13.535 6.89959 13.535C6.89833 13.535 6.89707 13.535 6.89581 13.535C6.89455 13.535 6.89329 13.535 6.89203 13.535C6.89077 13.535 6.88951 13.535 6.88825 13.535C6.88699 13.535 6.88574 13.535 6.88448 13.535C6.88322 13.535 6.88196 13.535 6.8807 13.535C6.87944 13.535 6.87819 13.535 6.87693 13.535C6.87567 13.535 6.87441 13.535 6.87315 13.535C6.8719 13.535 6.87064 13.535 6.86938 13.535C6.86813 13.535 6.86687 13.535 6.86561 13.535C6.86435 13.535 6.8631 13.535 6.86184 13.535C6.86058 13.535 6.85933 13.535 6.85807 13.535C6.85681 13.535 6.85556 13.535 6.8543 13.535C6.85305 13.535 6.85179 13.535 6.85053 13.535C6.84928 13.535 6.84802 13.535 6.84677 13.535C6.84551 13.535 6.84426 13.535 6.843 13.535C6.84174 13.535 6.84049 13.535 6.83923 13.535C6.83798 13.535 6.83672 13.535 6.83547 13.535C6.83422 13.535 6.83296 13.535 6.83171 13.535C6.83045 13.535 6.8292 13.535 6.82794 13.535C6.82669 13.535 6.82544 13.535 6.82418 13.535C6.82293 13.535 6.82167 13.535 6.82042 13.535C6.81917 13.535 6.81791 13.535 6.81666 13.535C6.81541 13.535 6.81415 13.535 6.8129 13.535C6.81165 13.535 6.8104 13.535 6.80914 13.535C6.80789 13.535 6.80664 13.535 6.80539 13.535C6.80413 13.535 6.80288 13.535 6.80163 13.535C6.80038 13.535 6.79913 13.535 6.79787 13.535C6.79662 13.535 6.79537 13.535 6.79412 13.535C6.79287 13.535 6.79162 13.535 6.79037 13.535C6.78912 13.535 6.78786 13.535 6.78661 13.535C6.78536 13.535 6.78411 13.535 6.78286 13.535C6.78161 13.535 6.78036 13.535 6.77911 13.535C6.77786 13.535 6.77661 13.535 6.77536 13.535C6.77411 13.535 6.77286 13.535 6.77161 13.535C6.77036 13.535 6.76911 13.535 6.76786 13.535C6.76661 13.535 6.76537 13.535 6.76412 13.535C6.76287 13.535 6.76162 13.535 6.76037 13.535C6.75912 13.535 6.75787 13.535 6.75662 13.535C6.75538 13.535 6.75413 13.535 6.75288 13.535C6.75163 13.535 6.75038 13.535 6.74914 13.535C6.74789 13.535 6.74664 13.535 6.74539 13.535C6.74415 13.535 6.7429 13.535 6.74165 13.535C6.74041 13.535 6.73916 13.535 6.73791 13.535C6.73666 13.535 6.73542 13.535 6.73417 13.535C6.73293 13.535 6.73168 13.535 6.73043 13.535C6.72919 13.535 6.72794 13.535 6.7267 13.535C6.72545 13.535 6.7242 13.535 6.72296 13.535C6.72171 13.535 6.72047 13.535 6.71922 13.535C6.71798 13.535 6.71673 13.535 6.71549 13.535C6.71424 13.535 6.713 13.535 6.71175 13.535C6.71051 13.535 6.70926 13.535 6.70802 13.535C6.70678 13.535 6.70553 13.535 6.70429 13.535C6.70304 13.535 6.7018 13.535 6.70056 13.535C6.69931 13.535 6.69807 13.535 6.69683 13.535C6.69558 13.535 6.69434 13.535 6.6931 13.535C6.69185 13.535 6.69061 13.535 6.68937 13.535C6.68813 13.535 6.68688 13.535 6.68564 13.535C6.6844 13.535 6.68316 13.535 6.68191 13.535C6.68067 13.535 6.67943 13.535 6.67819 13.535C6.67695 13.535 6.67571 13.535 6.67446 13.535C6.67322 13.535 6.67198 13.535 6.67074 13.535C6.6695 13.535 6.66826 13.535 6.66702 13.535C6.66578 13.535 6.66454 13.535 6.6633 13.535C6.66206 13.535 6.66082 13.535 6.65958 13.535C6.65834 13.535 6.6571 13.535 6.65586 13.535C6.65462 13.535 6.65338 13.535 6.65214 13.535C6.6509 13.535 6.64966 13.535 6.64842 13.535C6.64718 13.535 6.64594 13.535 6.6447 13.535C6.64346 13.535 6.64223 13.535 6.64099 13.535C6.63975 13.535 6.63851 13.535 6.63727 13.535C6.63603 13.535 6.6348 13.535 6.63356 13.535C6.63232 13.535 6.63108 13.535 6.62985 13.535C6.62861 13.535 6.62737 13.535 6.62613 13.535C6.6249 13.535 6.62366 13.535 6.62242 13.535C6.62119 13.535 6.61995 13.535 6.61871 13.535C6.61748 13.535 6.61624 13.535 6.615 13.535C6.61377 13.535 6.61253 13.535 6.6113 13.535C6.61006 13.535 6.60883 13.535 6.60759 13.535C6.60635 13.535 6.60512 13.535 6.60388 13.535C6.60265 13.535 6.60141 13.535 6.60018 13.535C6.59894 13.535 6.59771 13.535 6.59647 13.535C6.59524 13.535 6.59401 13.535 6.59277 13.535C6.59154 13.535 6.5903 13.535 6.58907 13.535C6.58784 13.535 6.5866 13.535 6.58537 13.535C6.58414 13.535 6.5829 13.535 6.58167 13.535C6.58044 13.535 6.5792 13.535 6.57797 13.535C6.57674 13.535 6.57551 13.535 6.57427 13.535C6.57304 13.535 6.57181 13.535 6.57058 13.535C6.56934 13.535 6.56811 13.535 6.56688 13.535C6.56565 13.535 6.56442 13.535 6.56319 13.535C6.56195 13.535 6.56072 13.535 6.55949 13.535C6.55826 13.535 6.55703 13.535 6.5558 13.535C6.55457 13.535 6.55334 13.535 6.55211 13.535C6.55088 13.535 6.54965 13.535 6.54842 13.535C6.54719 13.535 6.54596 13.535 6.54473 13.535C6.5435 13.535 6.54227 13.535 6.54104 13.535C6.53981 13.535 6.53858 13.535 6.53735 13.535C6.53612 13.535 6.53489 13.535 6.53366 13.535C6.53243 13.535 6.53121 13.535 6.52998 13.535C6.52875 13.535 6.52752 13.535 6.52629 13.535C6.52507 13.535 6.52384 13.535 6.52261 13.535C6.52138 13.535 6.52015 13.535 6.51893 13.535C6.5177 13.535 6.51647 13.535 6.51525 13.535C6.51402 13.535 6.51279 13.535 6.51157 13.535C6.51034 13.535 6.50911 13.535 6.50789 13.535C6.50666 13.535 6.50543 13.535 6.50421 13.535C6.50298 13.535 6.50176 13.535 6.50053 13.535C6.49931 13.535 6.49808 13.535 6.49685 13.535C6.49563 13.535 6.4944 13.535 6.49318 13.535C6.49195 13.535 6.49073 13.535 6.48951 13.535C6.48828 13.535 6.48706 13.535 6.48583 13.535C6.48461 13.535 6.48338 13.535 6.48216 13.535C6.48094 13.535 6.47971 13.535 6.47849 13.535C6.47727 13.535 6.47604 13.535 6.47482 13.535C6.4736 13.535 6.47237 13.535 6.47115 13.535C6.46993 13.535 6.4687 13.535 6.46748 13.535C6.46626 13.535 6.46504 13.535 6.46382 13.535C6.46259 13.535 6.46137 13.535 6.46015 13.535C6.45893 13.535 6.45771 13.535 6.45649 13.535C6.45526 13.535 6.45404 13.535 6.45282 13.535C6.4516 13.535 6.45038 13.535 6.44916 13.535C6.44794 13.535 6.44672 13.535 6.4455 13.535C6.44428 13.535 6.44306 13.535 6.44184 13.535C6.44062 13.535 6.4394 13.535 6.43818 13.535C6.43696 13.535 6.43574 13.535 6.43452 13.535C6.4333 13.535 6.43208 13.535 6.43086 13.535C6.42964 13.535 6.42843 13.535 6.42721 13.535C6.42599 13.535 6.42477 13.535 6.42355 13.535C6.42233 13.535 6.42112 13.535 6.4199 13.535C6.41868 13.535 6.41746 13.535 6.41625 13.535C6.41503 13.535 6.41381 13.535 6.41259 13.535C6.41138 13.535 6.41016 13.535 6.40894 13.535C6.40773 13.535 6.40651 13.535 6.40529 13.535C6.40408 13.535 6.40286 13.535 6.40165 13.535C6.40043 13.535 6.39921 13.535 6.398 13.535C6.39678 13.535 6.39557 13.535 6.39435 13.535C6.39314 13.535 6.39192 13.535 6.39071 13.535C6.38949 13.535 6.38828 13.535 6.38706 13.535C6.38585 13.535 6.38463 13.535 6.38342 13.535C6.38221 13.535 6.38099 13.535 6.37978 13.535C6.37856 13.535 6.37735 13.535 6.37614 13.535C6.37492 13.535 6.37371 13.535 6.3725 13.535C6.37128 13.535 6.37007 13.535 6.36886 13.535C6.36765 13.535 6.36643 13.535 6.36522 13.535C6.36401 13.535 6.3628 13.535 6.36158 13.535C6.36037 13.535 6.35916 13.535 6.35795 13.535C6.35674 13.535 6.35553 13.535 6.35432 13.535C6.3531 13.535 6.35189 13.535 6.35068 13.535C6.34947 13.535 6.34826 13.535 6.34705 13.535C6.34584 13.535 6.34463 13.535 6.34342 13.535C6.34221 13.535 6.341 13.535 6.33979 13.535C6.33858 13.535 6.33737 13.535 6.33616 13.535C6.33495 13.535 6.33374 13.535 6.33253 13.535C6.33133 13.535 6.33012 13.535 6.32891 13.535C6.3277 13.535 6.32649 13.535 6.32528 13.535C6.32407 13.535 6.32287 13.535 6.32166 13.535C6.32045 13.535 6.31924 13.535 6.31804 13.535C6.31683 13.535 6.31562 13.535 6.31441 13.535C6.31321 13.535 6.312 13.535 6.31079 13.535C6.30959 13.535 6.30838 13.535 6.30717 13.535C6.30597 13.535 6.30476 13.535 6.30356 13.535C6.30235 13.535 6.30114 13.535 6.29994 13.535C6.29873 13.535 6.29753 13.535 6.29632 13.535C6.29512 13.535 6.29391 13.535 6.29271 13.535C6.2915 13.535 6.2903 13.535 6.28909 13.535C6.28789 13.535 6.28669 13.535 6.28548 13.535C6.28428 13.535 6.28307 13.535 6.28187 13.535C6.28067 13.535 6.27946 13.535 6.27826 13.535C6.27706 13.535 6.27585 13.535 6.27465 13.535C6.27345 13.535 6.27224 13.535 6.27104 13.535C6.26984 13.535 6.26864 13.535 6.26744 13.535C6.26623 13.535 6.26503 13.535 6.26383 13.535C6.26263 13.535 6.26143 13.535 6.26022 13.535C6.25902 13.535 6.25782 13.535 6.25662 13.535C6.25542 13.535 6.25422 13.535 6.25302 13.535C6.25182 13.535 6.25062 13.535 6.24942 13.535C6.24822 13.535 6.24702 13.535 6.24582 13.535C6.24462 13.535 6.24342 13.535 6.24222 13.535C6.24102 13.535 6.23982 13.535 6.23862 13.535C6.23742 13.535 6.23622 13.535 6.23503 13.535C6.23383 13.535 6.23263 13.535 6.23143 13.535C6.23023 13.535 6.22903 13.535 6.22784 13.535C6.22664 13.535 6.22544 13.535 6.22424 13.535C6.22305 13.535 6.22185 13.535 6.22065 13.535C6.21945 13.535 6.21826 13.535 6.21706 13.535C6.21586 13.535 6.21467 13.535 6.21347 13.535C6.21227 13.535 6.21108 13.535 6.20988 13.535C6.20869 13.535 6.20749 13.535 6.2063 13.535C6.2051 13.535 6.20391 13.535 6.20271 13.535C6.20151 13.535 6.20032 13.535 6.19913 13.535C6.19793 13.535 6.19674 13.535 6.19554 13.535C6.19435 13.535 6.19315 13.535 6.19196 13.535C6.19077 13.535 6.18957 13.535 6.18838 13.535C6.18719 13.535 6.18599 13.535 6.1848 13.535C6.18361 13.535 6.18241 13.535 6.18122 13.535C6.18003 13.535 6.17883 13.535 6.17764 13.535C6.17645 13.535 6.17526 13.535 6.17407 13.535C6.17287 13.535 6.17168 13.535 6.17049 13.535C6.1693 13.535 6.16811 13.535 6.16692 13.535C6.16573 13.535 6.16454 13.535 6.16334 13.535C6.16215 13.535 6.16096 13.535 6.15977 13.535C6.15858 13.535 6.15739 13.535 6.1562 13.535C6.15501 13.535 6.15382 13.535 6.15263 13.535C6.15144 13.535 6.15025 13.535 6.14907 13.535C6.14788 13.535 6.14669 13.535 6.1455 13.535C6.14431 13.535 6.14312 13.535 6.14193 13.535C6.14075 13.535 6.13956 13.535 6.13837 13.535C6.13718 13.535 6.13599 13.535 6.13481 13.535C6.13362 13.535 6.13243 13.535 6.13124 13.535C6.13006 13.535 6.12887 13.535 6.12768 13.535C6.1265 13.535 6.12531 13.535 6.12412 13.535C6.12294 13.535 6.12175 13.535 6.12057 13.535C6.11938 13.535 6.11819 13.535 6.11701 13.535C6.11582 13.535 6.11464 13.535 6.11345 13.535C6.11227 13.535 6.11108 13.535 6.1099 13.535C6.10871 13.535 6.10753 13.535 6.10635 13.535C6.10516 13.535 6.10398 13.535 6.10279 13.535C6.10161 13.535 6.10043 13.535 6.09924 13.535C6.09806 13.535 6.09688 13.535 6.09569 13.535C6.09451 13.535 6.09333 13.535 6.09214 13.535C6.09096 13.535 6.08978 13.535 6.0886 13.535C6.08742 13.535 6.08623 13.535 6.08505 13.535C6.08387 13.535 6.08269 13.535 6.08151 13.535C6.08033 13.535 6.07914 13.535 6.07796 13.535C6.07678 13.535 6.0756 13.535 6.07442 13.535C6.07324 13.535 6.07206 13.535 6.07088 13.535C6.0697 13.535 6.06852 13.535 6.06734 13.535C6.06616 13.535 6.06498 13.535 6.0638 13.535C6.06262 13.535 6.06144 13.535 6.06027 13.535C6.05909 13.535 6.05791 13.535 6.05673 13.535C6.05555 13.535 6.05437 13.535 6.0532 13.535C6.05202 13.535 6.05084 13.535 6.04966 13.535C6.04848 13.535 6.04731 13.535 6.04613 13.535C6.04495 13.535 6.04378 13.535 6.0426 13.535C6.04142 13.535 6.04025 13.535 6.03907 13.535C6.03789 13.535 6.03672 13.535 6.03554 13.535C6.03437 13.535 6.03319 13.535 6.03201 13.535C6.03084 13.535 6.02966 13.535 6.02849 13.535C6.02731 13.535 6.02614 13.535 6.02496 13.535C6.02379 13.535 6.02261 13.535 6.02144 13.535C6.02027 13.535 6.01909 13.535 6.01792 13.535C6.01675 13.535 6.01557 13.535 6.0144 13.535C6.01322 13.535 6.01205 13.535 6.01088 13.535C6.00971 13.535 6.00853 13.535 6.00736 13.535C6.00619 13.535 6.00502 13.535 6.00384 13.535C6.00267 13.535 6.0015 13.535 6.00033 13.535C5.99916 13.535 5.99798 13.535 5.99681 13.535C5.99564 13.535 5.99447 13.535 5.9933 13.535C5.99213 13.535 5.99096 13.535 5.98979 13.535C5.98862 13.535 5.98745 13.535 5.98628 13.535C5.98511 13.535 5.98394 13.535 5.98277 13.535C5.9816 13.535 5.98043 13.535 5.97926 13.535C5.97809 13.535 5.97692 13.535 5.97576 13.535C5.97459 13.535 5.97342 13.535 5.97225 13.535C5.97108 13.535 5.96991 13.535 5.96875 13.535C5.96758 13.535 5.96641 13.535 5.96524 13.535C5.96408 13.535 5.96291 13.535 5.96174 13.535C5.96057 13.535 5.95941 13.535 5.95824 13.535C5.95708 13.535 5.95591 13.535 5.95474 13.535C5.95358 13.535 5.95241 13.535 5.95125 13.535C5.95008 13.535 5.94891 13.535 5.94775 13.535C5.94658 13.535 5.94542 13.535 5.94425 13.535C5.94309 13.535 5.94193 13.535 5.94076 13.535C5.9396 13.535 5.93843 13.535 5.93727 13.535C5.9361 13.535 5.93494 13.535 5.93378 13.535C5.93261 13.535 5.93145 13.535 5.93029 13.535C5.92912 13.535 5.92796 13.535 5.9268 13.535C5.92564 13.535 5.92447 13.535 5.92331 13.535C5.92215 13.535 5.92099 13.535 5.91983 13.535C5.91867 13.535 5.9175 13.535 5.91634 13.535C5.91518 13.535 5.91402 13.535 5.91286 13.535C5.9117 13.535 5.91054 13.535 5.90938 13.535C5.90822 13.535 5.90706 13.535 5.9059 13.535C5.90474 13.535 5.90358 13.535 5.90242 13.535C5.90126 13.535 5.9001 13.535 5.89894 13.535C5.89778 13.535 5.89662 13.535 5.89546 13.535C5.89431 13.535 5.89315 13.535 5.89199 13.535C5.89083 13.535 5.88967 13.535 5.88852 13.535C5.88736 13.535 5.8862 13.535 5.88504 13.535C5.88389 13.535 5.88273 13.535 5.88157 13.535C5.88042 13.535 5.87926 13.535 5.8781 13.535C5.87695 13.535 5.87579 13.535 5.87463 13.535C5.87348 13.535 5.87232 13.535 5.87117 13.535C5.87001 13.535 5.86886 13.535 5.8677 13.535C5.86655 13.535 5.86539 13.535 5.86424 13.535C5.86308 13.535 5.86193 13.535 5.86077 13.535C5.85962 13.535 5.85847 13.535 5.85731 13.535C5.85616 13.535 5.85501 13.535 5.85385 13.535C5.8527 13.535 5.85155 13.535 5.85039 13.535C5.84924 13.535 5.84809 13.535 5.84694 13.535C5.84578 13.535 5.84463 13.535 5.84348 13.535C5.84233 13.535 5.84118 13.535 5.84002 13.535C5.83887 13.535 5.83772 13.535 5.83657 13.535C5.83542 13.535 5.83427 13.535 5.83312 13.535C5.83197 13.535 5.83082 13.535 5.82967 13.535C5.82852 13.535 5.82737 13.535 5.82622 13.535C5.82507 13.535 5.82392 13.535 5.82277 13.535C5.82162 13.535 5.82047 13.535 5.81932 13.535C5.81818 13.535 5.81703 13.535 5.81588 13.535C5.81473 13.535 5.81358 13.535 5.81243 13.535C5.81129 13.535 5.81014 13.535 5.80899 13.535C5.80785 13.535 5.8067 13.535 5.80555 13.535C5.8044 13.535 5.80326 13.535 5.80211 13.535C5.80097 13.535 5.79982 13.535 5.79867 13.535C5.79753 13.535 5.79638 13.535 5.79524 13.535C5.79409 13.535 5.79295 13.535 5.7918 13.535C5.79066 13.535 5.78951 13.535 5.78837 13.535C5.78722 13.535 5.78608 13.535 5.78493 13.535C5.78379 13.535 5.78265 13.535 5.7815 13.535C5.78036 13.535 5.77921 13.535 5.77807 13.535C5.77693 13.535 5.77579 13.535 5.77464 13.535C5.7735 13.535 5.77236 13.535 5.77122 13.535C5.77007 13.535 5.76893 13.535 5.76779 13.535L5.76779 14.465C5.76893 14.465 5.77007 14.465 5.77122 14.465C5.77236 14.465 5.7735 14.465 5.77464 14.465C5.77579 14.465 5.77693 14.465 5.77807 14.465C5.77921 14.465 5.78036 14.465 5.7815 14.465C5.78265 14.465 5.78379 14.465 5.78493 14.465C5.78608 14.465 5.78722 14.465 5.78837 14.465C5.78951 14.465 5.79066 14.465 5.7918 14.465C5.79295 14.465 5.79409 14.465 5.79524 14.465C5.79638 14.465 5.79753 14.465 5.79867 14.465C5.79982 14.465 5.80097 14.465 5.80211 14.465C5.80326 14.465 5.8044 14.465 5.80555 14.465C5.8067 14.465 5.80785 14.465 5.80899 14.465C5.81014 14.465 5.81129 14.465 5.81243 14.465C5.81358 14.465 5.81473 14.465 5.81588 14.465C5.81703 14.465 5.81818 14.465 5.81932 14.465C5.82047 14.465 5.82162 14.465 5.82277 14.465C5.82392 14.465 5.82507 14.465 5.82622 14.465C5.82737 14.465 5.82852 14.465 5.82967 14.465C5.83082 14.465 5.83197 14.465 5.83312 14.465C5.83427 14.465 5.83542 14.465 5.83657 14.465C5.83772 14.465 5.83887 14.465 5.84002 14.465C5.84118 14.465 5.84233 14.465 5.84348 14.465C5.84463 14.465 5.84578 14.465 5.84694 14.465C5.84809 14.465 5.84924 14.465 5.85039 14.465C5.85155 14.465 5.8527 14.465 5.85385 14.465C5.85501 14.465 5.85616 14.465 5.85731 14.465C5.85847 14.465 5.85962 14.465 5.86077 14.465C5.86193 14.465 5.86308 14.465 5.86424 14.465C5.86539 14.465 5.86655 14.465 5.8677 14.465C5.86886 14.465 5.87001 14.465 5.87117 14.465C5.87232 14.465 5.87348 14.465 5.87463 14.465C5.87579 14.465 5.87695 14.465 5.8781 14.465C5.87926 14.465 5.88042 14.465 5.88157 14.465C5.88273 14.465 5.88389 14.465 5.88504 14.465C5.8862 14.465 5.88736 14.465 5.88852 14.465C5.88967 14.465 5.89083 14.465 5.89199 14.465C5.89315 14.465 5.89431 14.465 5.89546 14.465C5.89662 14.465 5.89778 14.465 5.89894 14.465C5.9001 14.465 5.90126 14.465 5.90242 14.465C5.90358 14.465 5.90474 14.465 5.9059 14.465C5.90706 14.465 5.90822 14.465 5.90938 14.465C5.91054 14.465 5.9117 14.465 5.91286 14.465C5.91402 14.465 5.91518 14.465 5.91634 14.465C5.9175 14.465 5.91867 14.465 5.91983 14.465C5.92099 14.465 5.92215 14.465 5.92331 14.465C5.92447 14.465 5.92564 14.465 5.9268 14.465C5.92796 14.465 5.92912 14.465 5.93029 14.465C5.93145 14.465 5.93261 14.465 5.93378 14.465C5.93494 14.465 5.9361 14.465 5.93727 14.465C5.93843 14.465 5.9396 14.465 5.94076 14.465C5.94192 14.465 5.94309 14.465 5.94425 14.465C5.94542 14.465 5.94658 14.465 5.94775 14.465C5.94891 14.465 5.95008 14.465 5.95125 14.465C5.95241 14.465 5.95358 14.465 5.95474 14.465C5.95591 14.465 5.95708 14.465 5.95824 14.465C5.95941 14.465 5.96057 14.465 5.96174 14.465C5.96291 14.465 5.96408 14.465 5.96524 14.465C5.96641 14.465 5.96758 14.465 5.96875 14.465C5.96991 14.465 5.97108 14.465 5.97225 14.465C5.97342 14.465 5.97459 14.465 5.97576 14.465C5.97692 14.465 5.97809 14.465 5.97926 14.465C5.98043 14.465 5.9816 14.465 5.98277 14.465C5.98394 14.465 5.98511 14.465 5.98628 14.465C5.98745 14.465 5.98862 14.465 5.98979 14.465C5.99096 14.465 5.99213 14.465 5.9933 14.465C5.99447 14.465 5.99564 14.465 5.99681 14.465C5.99798 14.465 5.99916 14.465 6.00033 14.465C6.0015 14.465 6.00267 14.465 6.00384 14.465C6.00502 14.465 6.00619 14.465 6.00736 14.465C6.00853 14.465 6.00971 14.465 6.01088 14.465C6.01205 14.465 6.01322 14.465 6.0144 14.465C6.01557 14.465 6.01675 14.465 6.01792 14.465C6.01909 14.465 6.02027 14.465 6.02144 14.465C6.02261 14.465 6.02379 14.465 6.02496 14.465C6.02614 14.465 6.02731 14.465 6.02849 14.465C6.02966 14.465 6.03084 14.465 6.03201 14.465C6.03319 14.465 6.03437 14.465 6.03554 14.465C6.03672 14.465 6.03789 14.465 6.03907 14.465C6.04025 14.465 6.04142 14.465 6.0426 14.465C6.04378 14.465 6.04495 14.465 6.04613 14.465C6.04731 14.465 6.04848 14.465 6.04966 14.465C6.05084 14.465 6.05202 14.465 6.0532 14.465C6.05437 14.465 6.05555 14.465 6.05673 14.465C6.05791 14.465 6.05909 14.465 6.06027 14.465C6.06144 14.465 6.06262 14.465 6.0638 14.465C6.06498 14.465 6.06616 14.465 6.06734 14.465C6.06852 14.465 6.0697 14.465 6.07088 14.465C6.07206 14.465 6.07324 14.465 6.07442 14.465C6.0756 14.465 6.07678 14.465 6.07796 14.465C6.07914 14.465 6.08033 14.465 6.08151 14.465C6.08269 14.465 6.08387 14.465 6.08505 14.465C6.08623 14.465 6.08742 14.465 6.0886 14.465C6.08978 14.465 6.09096 14.465 6.09214 14.465C6.09333 14.465 6.09451 14.465 6.09569 14.465C6.09688 14.465 6.09806 14.465 6.09924 14.465C6.10043 14.465 6.10161 14.465 6.10279 14.465C6.10398 14.465 6.10516 14.465 6.10635 14.465C6.10753 14.465 6.10871 14.465 6.1099 14.465C6.11108 14.465 6.11227 14.465 6.11345 14.465C6.11464 14.465 6.11582 14.465 6.11701 14.465C6.11819 14.465 6.11938 14.465 6.12057 14.465C6.12175 14.465 6.12294 14.465 6.12412 14.465C6.12531 14.465 6.1265 14.465 6.12768 14.465C6.12887 14.465 6.13006 14.465 6.13124 14.465C6.13243 14.465 6.13362 14.465 6.13481 14.465C6.13599 14.465 6.13718 14.465 6.13837 14.465C6.13956 14.465 6.14074 14.465 6.14193 14.465C6.14312 14.465 6.14431 14.465 6.1455 14.465C6.14669 14.465 6.14788 14.465 6.14907 14.465C6.15025 14.465 6.15144 14.465 6.15263 14.465C6.15382 14.465 6.15501 14.465 6.1562 14.465C6.15739 14.465 6.15858 14.465 6.15977 14.465C6.16096 14.465 6.16215 14.465 6.16334 14.465C6.16453 14.465 6.16573 14.465 6.16692 14.465C6.16811 14.465 6.1693 14.465 6.17049 14.465C6.17168 14.465 6.17287 14.465 6.17407 14.465C6.17526 14.465 6.17645 14.465 6.17764 14.465C6.17883 14.465 6.18003 14.465 6.18122 14.465C6.18241 14.465 6.18361 14.465 6.1848 14.465C6.18599 14.465 6.18718 14.465 6.18838 14.465C6.18957 14.465 6.19077 14.465 6.19196 14.465C6.19315 14.465 6.19435 14.465 6.19554 14.465C6.19674 14.465 6.19793 14.465 6.19913 14.465C6.20032 14.465 6.20151 14.465 6.20271 14.465C6.20391 14.465 6.2051 14.465 6.2063 14.465C6.20749 14.465 6.20869 14.465 6.20988 14.465C6.21108 14.465 6.21227 14.465 6.21347 14.465C6.21467 14.465 6.21586 14.465 6.21706 14.465C6.21826 14.465 6.21945 14.465 6.22065 14.465C6.22185 14.465 6.22305 14.465 6.22424 14.465C6.22544 14.465 6.22664 14.465 6.22784 14.465C6.22903 14.465 6.23023 14.465 6.23143 14.465C6.23263 14.465 6.23383 14.465 6.23503 14.465C6.23622 14.465 6.23742 14.465 6.23862 14.465C6.23982 14.465 6.24102 14.465 6.24222 14.465C6.24342 14.465 6.24462 14.465 6.24582 14.465C6.24702 14.465 6.24822 14.465 6.24942 14.465C6.25062 14.465 6.25182 14.465 6.25302 14.465C6.25422 14.465 6.25542 14.465 6.25662 14.465C6.25782 14.465 6.25902 14.465 6.26022 14.465C6.26143 14.465 6.26263 14.465 6.26383 14.465C6.26503 14.465 6.26623 14.465 6.26744 14.465C6.26864 14.465 6.26984 14.465 6.27104 14.465C6.27224 14.465 6.27345 14.465 6.27465 14.465C6.27585 14.465 6.27706 14.465 6.27826 14.465C6.27946 14.465 6.28067 14.465 6.28187 14.465C6.28307 14.465 6.28428 14.465 6.28548 14.465C6.28669 14.465 6.28789 14.465 6.28909 14.465C6.2903 14.465 6.2915 14.465 6.29271 14.465C6.29391 14.465 6.29512 14.465 6.29632 14.465C6.29753 14.465 6.29873 14.465 6.29994 14.465C6.30114 14.465 6.30235 14.465 6.30356 14.465C6.30476 14.465 6.30597 14.465 6.30717 14.465C6.30838 14.465 6.30959 14.465 6.31079 14.465C6.312 14.465 6.31321 14.465 6.31441 14.465C6.31562 14.465 6.31683 14.465 6.31804 14.465C6.31924 14.465 6.32045 14.465 6.32166 14.465C6.32287 14.465 6.32407 14.465 6.32528 14.465C6.32649 14.465 6.3277 14.465 6.32891 14.465C6.33012 14.465 6.33133 14.465 6.33253 14.465C6.33374 14.465 6.33495 14.465 6.33616 14.465C6.33737 14.465 6.33858 14.465 6.33979 14.465C6.341 14.465 6.34221 14.465 6.34342 14.465C6.34463 14.465 6.34584 14.465 6.34705 14.465C6.34826 14.465 6.34947 14.465 6.35068 14.465C6.35189 14.465 6.3531 14.465 6.35432 14.465C6.35553 14.465 6.35674 14.465 6.35795 14.465C6.35916 14.465 6.36037 14.465 6.36158 14.465C6.3628 14.465 6.36401 14.465 6.36522 14.465C6.36643 14.465 6.36765 14.465 6.36886 14.465C6.37007 14.465 6.37128 14.465 6.3725 14.465C6.37371 14.465 6.37492 14.465 6.37614 14.465C6.37735 14.465 6.37856 14.465 6.37978 14.465C6.38099 14.465 6.38221 14.465 6.38342 14.465C6.38463 14.465 6.38585 14.465 6.38706 14.465C6.38828 14.465 6.38949 14.465 6.39071 14.465C6.39192 14.465 6.39314 14.465 6.39435 14.465C6.39557 14.465 6.39678 14.465 6.398 14.465C6.39921 14.465 6.40043 14.465 6.40165 14.465C6.40286 14.465 6.40408 14.465 6.40529 14.465C6.40651 14.465 6.40773 14.465 6.40894 14.465C6.41016 14.465 6.41138 14.465 6.41259 14.465C6.41381 14.465 6.41503 14.465 6.41625 14.465C6.41746 14.465 6.41868 14.465 6.4199 14.465C6.42112 14.465 6.42233 14.465 6.42355 14.465C6.42477 14.465 6.42599 14.465 6.42721 14.465C6.42843 14.465 6.42964 14.465 6.43086 14.465C6.43208 14.465 6.4333 14.465 6.43452 14.465C6.43574 14.465 6.43696 14.465 6.43818 14.465C6.4394 14.465 6.44062 14.465 6.44184 14.465C6.44306 14.465 6.44428 14.465 6.4455 14.465C6.44672 14.465 6.44794 14.465 6.44916 14.465C6.45038 14.465 6.4516 14.465 6.45282 14.465C6.45404 14.465 6.45526 14.465 6.45649 14.465C6.45771 14.465 6.45893 14.465 6.46015 14.465C6.46137 14.465 6.46259 14.465 6.46382 14.465C6.46504 14.465 6.46626 14.465 6.46748 14.465C6.4687 14.465 6.46993 14.465 6.47115 14.465C6.47237 14.465 6.4736 14.465 6.47482 14.465C6.47604 14.465 6.47727 14.465 6.47849 14.465C6.47971 14.465 6.48094 14.465 6.48216 14.465C6.48338 14.465 6.48461 14.465 6.48583 14.465C6.48706 14.465 6.48828 14.465 6.48951 14.465C6.49073 14.465 6.49195 14.465 6.49318 14.465C6.4944 14.465 6.49563 14.465 6.49685 14.465C6.49808 14.465 6.49931 14.465 6.50053 14.465C6.50176 14.465 6.50298 14.465 6.50421 14.465C6.50543 14.465 6.50666 14.465 6.50789 14.465C6.50911 14.465 6.51034 14.465 6.51157 14.465C6.51279 14.465 6.51402 14.465 6.51525 14.465C6.51647 14.465 6.5177 14.465 6.51893 14.465C6.52015 14.465 6.52138 14.465 6.52261 14.465C6.52384 14.465 6.52507 14.465 6.52629 14.465C6.52752 14.465 6.52875 14.465 6.52998 14.465C6.53121 14.465 6.53243 14.465 6.53366 14.465C6.53489 14.465 6.53612 14.465 6.53735 14.465C6.53858 14.465 6.53981 14.465 6.54104 14.465C6.54227 14.465 6.5435 14.465 6.54473 14.465C6.54596 14.465 6.54719 14.465 6.54842 14.465C6.54965 14.465 6.55088 14.465 6.55211 14.465C6.55334 14.465 6.55457 14.465 6.5558 14.465C6.55703 14.465 6.55826 14.465 6.55949 14.465C6.56072 14.465 6.56195 14.465 6.56319 14.465C6.56442 14.465 6.56565 14.465 6.56688 14.465C6.56811 14.465 6.56934 14.465 6.57058 14.465C6.57181 14.465 6.57304 14.465 6.57427 14.465C6.57551 14.465 6.57674 14.465 6.57797 14.465C6.5792 14.465 6.58044 14.465 6.58167 14.465C6.5829 14.465 6.58414 14.465 6.58537 14.465C6.5866 14.465 6.58784 14.465 6.58907 14.465C6.5903 14.465 6.59154 14.465 6.59277 14.465C6.59401 14.465 6.59524 14.465 6.59647 14.465C6.59771 14.465 6.59894 14.465 6.60018 14.465C6.60141 14.465 6.60265 14.465 6.60388 14.465C6.60512 14.465 6.60635 14.465 6.60759 14.465C6.60883 14.465 6.61006 14.465 6.6113 14.465C6.61253 14.465 6.61377 14.465 6.615 14.465C6.61624 14.465 6.61748 14.465 6.61871 14.465C6.61995 14.465 6.62119 14.465 6.62242 14.465C6.62366 14.465 6.6249 14.465 6.62613 14.465C6.62737 14.465 6.62861 14.465 6.62985 14.465C6.63108 14.465 6.63232 14.465 6.63356 14.465C6.6348 14.465 6.63603 14.465 6.63727 14.465C6.63851 14.465 6.63975 14.465 6.64099 14.465C6.64223 14.465 6.64346 14.465 6.6447 14.465C6.64594 14.465 6.64718 14.465 6.64842 14.465C6.64966 14.465 6.6509 14.465 6.65214 14.465C6.65338 14.465 6.65462 14.465 6.65586 14.465C6.6571 14.465 6.65834 14.465 6.65958 14.465C6.66082 14.465 6.66206 14.465 6.6633 14.465C6.66454 14.465 6.66578 14.465 6.66702 14.465C6.66826 14.465 6.6695 14.465 6.67074 14.465C6.67198 14.465 6.67322 14.465 6.67446 14.465C6.67571 14.465 6.67695 14.465 6.67819 14.465C6.67943 14.465 6.68067 14.465 6.68191 14.465C6.68316 14.465 6.6844 14.465 6.68564 14.465C6.68688 14.465 6.68813 14.465 6.68937 14.465C6.69061 14.465 6.69185 14.465 6.6931 14.465C6.69434 14.465 6.69558 14.465 6.69683 14.465C6.69807 14.465 6.69931 14.465 6.70056 14.465C6.7018 14.465 6.70304 14.465 6.70429 14.465C6.70553 14.465 6.70678 14.465 6.70802 14.465C6.70926 14.465 6.71051 14.465 6.71175 14.465C6.713 14.465 6.71424 14.465 6.71549 14.465C6.71673 14.465 6.71798 14.465 6.71922 14.465C6.72047 14.465 6.72171 14.465 6.72296 14.465C6.7242 14.465 6.72545 14.465 6.7267 14.465C6.72794 14.465 6.72919 14.465 6.73043 14.465C6.73168 14.465 6.73293 14.465 6.73417 14.465C6.73542 14.465 6.73666 14.465 6.73791 14.465C6.73916 14.465 6.74041 14.465 6.74165 14.465C6.7429 14.465 6.74415 14.465 6.74539 14.465C6.74664 14.465 6.74789 14.465 6.74914 14.465C6.75038 14.465 6.75163 14.465 6.75288 14.465C6.75413 14.465 6.75538 14.465 6.75662 14.465C6.75787 14.465 6.75912 14.465 6.76037 14.465C6.76162 14.465 6.76287 14.465 6.76412 14.465C6.76537 14.465 6.76661 14.465 6.76786 14.465C6.76911 14.465 6.77036 14.465 6.77161 14.465C6.77286 14.465 6.77411 14.465 6.77536 14.465C6.77661 14.465 6.77786 14.465 6.77911 14.465C6.78036 14.465 6.78161 14.465 6.78286 14.465C6.78411 14.465 6.78536 14.465 6.78661 14.465C6.78786 14.465 6.78912 14.465 6.79037 14.465C6.79162 14.465 6.79287 14.465 6.79412 14.465C6.79537 14.465 6.79662 14.465 6.79787 14.465C6.79913 14.465 6.80038 14.465 6.80163 14.465C6.80288 14.465 6.80413 14.465 6.80539 14.465C6.80664 14.465 6.80789 14.465 6.80914 14.465C6.8104 14.465 6.81165 14.465 6.8129 14.465C6.81415 14.465 6.81541 14.465 6.81666 14.465C6.81791 14.465 6.81917 14.465 6.82042 14.465C6.82167 14.465 6.82293 14.465 6.82418 14.465C6.82544 14.465 6.82669 14.465 6.82794 14.465C6.8292 14.465 6.83045 14.465 6.83171 14.465C6.83296 14.465 6.83422 14.465 6.83547 14.465C6.83672 14.465 6.83798 14.465 6.83923 14.465C6.84049 14.465 6.84174 14.465 6.843 14.465C6.84426 14.465 6.84551 14.465 6.84677 14.465C6.84802 14.465 6.84928 14.465 6.85053 14.465C6.85179 14.465 6.85305 14.465 6.8543 14.465C6.85556 14.465 6.85681 14.465 6.85807 14.465C6.85933 14.465 6.86058 14.465 6.86184 14.465C6.8631 14.465 6.86435 14.465 6.86561 14.465C6.86687 14.465 6.86813 14.465 6.86938 14.465C6.87064 14.465 6.8719 14.465 6.87315 14.465C6.87441 14.465 6.87567 14.465 6.87693 14.465C6.87819 14.465 6.87944 14.465 6.8807 14.465C6.88196 14.465 6.88322 14.465 6.88448 14.465C6.88574 14.465 6.88699 14.465 6.88825 14.465C6.88951 14.465 6.89077 14.465 6.89203 14.465C6.89329 14.465 6.89455 14.465 6.89581 14.465C6.89707 14.465 6.89833 14.465 6.89959 14.465C6.90085 14.465 6.90211 14.465 6.90337 14.465C6.90463 14.465 6.90589 14.465 6.90715 14.465C6.90841 14.465 6.90967 14.465 6.91093 14.465C6.91219 14.465 6.91345 14.465 6.91471 14.465C6.91597 14.465 6.91723 14.465 6.91849 14.465C6.91975 14.465 6.92101 14.465 6.92228 14.465C6.92354 14.465 6.9248 14.465 6.92606 14.465C6.92732 14.465 6.92858 14.465 6.92985 14.465C6.93111 14.465 6.93237 14.465 6.93363 14.465C6.93489 14.465 6.93616 14.465 6.93742 14.465C6.93868 14.465 6.93994 14.465 6.94121 14.465C6.94247 14.465 6.94373 14.465 6.945 14.465C6.94626 14.465 6.94752 14.465 6.94879 14.465C6.95005 14.465 6.95131 14.465 6.95258 14.465C6.95384 14.465 6.9551 14.465 6.95637 14.465C6.95763 14.465 6.9589 14.465 6.96016 14.465C6.96142 14.465 6.96269 14.465 6.96395 14.465C6.96522 14.465 6.96648 14.465 6.96775 14.465C6.96901 14.465 6.97028 14.465 6.97154 14.465C6.97281 14.465 6.97407 14.465 6.97534 14.465C6.9766 14.465 6.97787 14.465 6.97913 14.465C6.9804 14.465 6.98166 14.465 6.98293 14.465C6.9842 14.465 6.98546 14.465 6.98673 14.465C6.988 14.465 6.98926 14.465 6.99053 14.465C6.99179 14.465 6.99306 14.465 6.99433 14.465C6.99559 14.465 6.99686 14.465 6.99813 14.465C6.99939 14.465 7.00066 14.465 7.00193 14.465C7.0032 14.465 7.00446 14.465 7.00573 14.465C7.007 14.465 7.00827 14.465 7.00953 14.465C7.0108 14.465 7.01207 14.465 7.01334 14.465C7.01461 14.465 7.01587 14.465 7.01714 14.465C7.01841 14.465 7.01968 14.465 7.02095 14.465C7.02222 14.465 7.02349 14.465 7.02475 14.465C7.02602 14.465 7.02729 14.465 7.02856 14.465C7.02983 14.465 7.0311 14.465 7.03237 14.465C7.03364 14.465 7.03491 14.465 7.03618 14.465C7.03745 14.465 7.03872 14.465 7.03999 14.465C7.04126 14.465 7.04253 14.465 7.0438 14.465C7.04507 14.465 7.04634 14.465 7.04761 14.465C7.04888 14.465 7.05015 14.465 7.05142 14.465C7.05269 14.465 7.05396 14.465 7.05523 14.465C7.0565 14.465 7.05778 14.465 7.05905 14.465C7.06032 14.465 7.06159 14.465 7.06286 14.465C7.06413 14.465 7.0654 14.465 7.06668 14.465C7.06795 14.465 7.06922 14.465 7.07049 14.465C7.07176 14.465 7.07304 14.465 7.07431 14.465C7.07558 14.465 7.07685 14.465 7.07813 14.465C7.0794 14.465 7.08067 14.465 7.08194 14.465C7.08322 14.465 7.08449 14.465 7.08576 14.465C7.08704 14.465 7.08831 14.465 7.08958 14.465C7.09086 14.465 7.09213 14.465 7.0934 14.465C7.09468 14.465 7.09595 14.465 7.09722 14.465C7.0985 14.465 7.09977 14.465 7.10105 14.465C7.10232 14.465 7.10359 14.465 7.10487 14.465C7.10614 14.465 7.10742 14.465 7.10869 14.465C7.10997 14.465 7.11124 14.465 7.11252 14.465C7.11379 14.465 7.11507 14.465 7.11634 14.465C7.11762 14.465 7.11889 14.465 7.12017 14.465C7.12144 14.465 7.12272 14.465 7.12399 14.465C7.12527 14.465 7.12655 14.465 7.12782 14.465C7.1291 14.465 7.13037 14.465 7.13165 14.465C7.13293 14.465 7.1342 14.465 7.13548 14.465C7.13676 14.465 7.13803 14.465 7.13931 14.465C7.14059 14.465 7.14186 14.465 7.14314 14.465C7.14442 14.465 7.14569 14.465 7.14697 14.465C7.14825 14.465 7.14953 14.465 7.1508 14.465C7.15208 14.465 7.15336 14.465 7.15464 14.465C7.15591 14.465 7.15719 14.465 7.15847 14.465C7.15975 14.465 7.16103 14.465 7.1623 14.465C7.16358 14.465 7.16486 14.465 7.16614 14.465C7.16742 14.465 7.1687 14.465 7.16997 14.465C7.17125 14.465 7.17253 14.465 7.17381 14.465C7.17509 14.465 7.17637 14.465 7.17765 14.465C7.17893 14.465 7.18021 14.465 7.18149 14.465C7.18277 14.465 7.18404 14.465 7.18532 14.465C7.1866 14.465 7.18788 14.465 7.18916 14.465C7.19044 14.465 7.19172 14.465 7.193 14.465C7.19428 14.465 7.19556 14.465 7.19684 14.465C7.19813 14.465 7.19941 14.465 7.20069 14.465C7.20197 14.465 7.20325 14.465 7.20453 14.465C7.20581 14.465 7.20709 14.465 7.20837 14.465C7.20965 14.465 7.21093 14.465 7.21222 14.465C7.2135 14.465 7.21478 14.465 7.21606 14.465C7.21734 14.465 7.21862 14.465 7.21991 14.465C7.22119 14.465 7.22247 14.465 7.22375 14.465C7.22503 14.465 7.22632 14.465 7.2276 14.465C7.22888 14.465 7.23016 14.465 7.23145 14.465C7.23273 14.465 7.23401 14.465 7.23529 14.465C7.23658 14.465 7.23786 14.465 7.23914 14.465C7.24043 14.465 7.24171 14.465 7.24299 14.465C7.24428 14.465 7.24556 14.465 7.24684 14.465C7.24813 14.465 7.24941 14.465 7.25069 14.465C7.25198 14.465 7.25326 14.465 7.25455 14.465C7.25583 14.465 7.25711 14.465 7.2584 14.465C7.25968 14.465 7.26097 14.465 7.26225 14.465C7.26354 14.465 7.26482 14.465 7.26611 14.465C7.26739 14.465 7.26867 14.465 7.26996 14.465C7.27124 14.465 7.27253 14.465 7.27382 14.465C7.2751 14.465 7.27639 14.465 7.27767 14.465C7.27896 14.465 7.28024 14.465 7.28153 14.465C7.28281 14.465 7.2841 14.465 7.28539 14.465C7.28667 14.465 7.28796 14.465 7.28924 14.465C7.29053 14.465 7.29182 14.465 7.2931 14.465C7.29439 14.465 7.29567 14.465 7.29696 14.465C7.29825 14.465 7.29953 14.465 7.30082 14.465C7.30211 14.465 7.3034 14.465 7.30468 14.465C7.30597 14.465 7.30726 14.465 7.30854 14.465C7.30983 14.465 7.31112 14.465 7.31241 14.465C7.31369 14.465 7.31498 14.465 7.31627 14.465C7.31756 14.465 7.31884 14.465 7.32013 14.465C7.32142 14.465 7.32271 14.465 7.324 14.465C7.32528 14.465 7.32657 14.465 7.32786 14.465C7.32915 14.465 7.33044 14.465 7.33173 14.465C7.33302 14.465 7.3343 14.465 7.33559 14.465C7.33688 14.465 7.33817 14.465 7.33946 14.465C7.34075 14.465 7.34204 14.465 7.34333 14.465C7.34462 14.465 7.34591 14.465 7.3472 14.465C7.34849 14.465 7.34977 14.465 7.35106 14.465C7.35235 14.465 7.35364 14.465 7.35493 14.465C7.35622 14.465 7.35751 14.465 7.3588 14.465C7.36009 14.465 7.36138 14.465 7.36268 14.465C7.36397 14.465 7.36526 14.465 7.36655 14.465C7.36784 14.465 7.36913 14.465 7.37042 14.465C7.37171 14.465 7.373 14.465 7.37429 14.465C7.37558 14.465 7.37687 14.465 7.37817 14.465C7.37946 14.465 7.38075 14.465 7.38204 14.465C7.38333 14.465 7.38462 14.465 7.38591 14.465C7.38721 14.465 7.3885 14.465 7.38979 14.465C7.39108 14.465 7.39237 14.465 7.39367 14.465C7.39496 14.465 7.39625 14.465 7.39754 14.465C7.39884 14.465 7.40013 14.465 7.40142 14.465C7.40271 14.465 7.40401 14.465 7.4053 14.465C7.40659 14.465 7.40788 14.465 7.40918 14.465C7.41047 14.465 7.41176 14.465 7.41306 14.465C7.41435 14.465 7.41564 14.465 7.41694 14.465C7.41823 14.465 7.41952 14.465 7.42082 14.465C7.42211 14.465 7.4234 14.465 7.4247 14.465C7.42599 14.465 7.42729 14.465 7.42858 14.465C7.42987 14.465 7.43117 14.465 7.43246 14.465C7.43376 14.465 7.43505 14.465 7.43635 14.465C7.43764 14.465 7.43893 14.465 7.44023 14.465C7.44152 14.465 7.44282 14.465 7.44411 14.465C7.44541 14.465 7.4467 14.465 7.448 14.465C7.44929 14.465 7.45059 14.465 7.45188 14.465C7.45318 14.465 7.45448 14.465 7.45577 14.465C7.45707 14.465 7.45836 14.465 7.45966 14.465C7.46095 14.465 7.46225 14.465 7.46354 14.465C7.46484 14.465 7.46614 14.465 7.46743 14.465C7.46873 14.465 7.47003 14.465 7.47132 14.465C7.47262 14.465 7.47391 14.465 7.47521 14.465C7.47651 14.465 7.4778 14.465 7.4791 14.465C7.4804 14.465 7.48169 14.465 7.48299 14.465C7.48429 14.465 7.48559 14.465 7.48688 14.465C7.48818 14.465 7.48948 14.465 7.49077 14.465C7.49207 14.465 7.49337 14.465 7.49467 14.465C7.49596 14.465 7.49726 14.465 7.49856 14.465C7.49986 14.465 7.50116 14.465 7.50245 14.465C7.50375 14.465 7.50505 14.465 7.50635 14.465C7.50765 14.465 7.50894 14.465 7.51024 14.465C7.51154 14.465 7.51284 14.465 7.51414 14.465C7.51544 14.465 7.51673 14.465 7.51803 14.465C7.51933 14.465 7.52063 14.465 7.52193 14.465C7.52323 14.465 7.52453 14.465 7.52583 14.465C7.52713 14.465 7.52843 14.465 7.52973 14.465C7.53102 14.465 7.53232 14.465 7.53362 14.465C7.53492 14.465 7.53622 14.465 7.53752 14.465C7.53882 14.465 7.54012 14.465 7.54142 14.465C7.54272 14.465 7.54402 14.465 7.54532 14.465C7.54662 14.465 7.54792 14.465 7.54922 14.465C7.55052 14.465 7.55182 14.465 7.55312 14.465C7.55442 14.465 7.55572 14.465 7.55703 14.465C7.55833 14.465 7.55963 14.465 7.56093 14.465C7.56223 14.465 7.56353 14.465 7.56483 14.465C7.56613 14.465 7.56743 14.465 7.56873 14.465C7.57004 14.465 7.57134 14.465 7.57264 14.465C7.57394 14.465 7.57524 14.465 7.57654 14.465C7.57784 14.465 7.57915 14.465 7.58045 14.465C7.58175 14.465 7.58305 14.465 7.58435 14.465C7.58566 14.465 7.58696 14.465 7.58826 14.465C7.58956 14.465 7.59086 14.465 7.59217 14.465C7.59347 14.465 7.59477 14.465 7.59607 14.465C7.59738 14.465 7.59868 14.465 7.59998 14.465C7.60129 14.465 7.60259 14.465 7.60389 14.465C7.60519 14.465 7.6065 14.465 7.6078 14.465C7.6091 14.465 7.61041 14.465 7.61171 14.465C7.61301 14.465 7.61432 14.465 7.61562 14.465C7.61692 14.465 7.61823 14.465 7.61953 14.465C7.62083 14.465 7.62214 14.465 7.62344 14.465C7.62475 14.465 7.62605 14.465 7.62735 14.465C7.62866 14.465 7.62996 14.465 7.63127 14.465C7.63257 14.465 7.63388 14.465 7.63518 14.465C7.63648 14.465 7.63779 14.465 7.63909 14.465C7.6404 14.465 7.6417 14.465 7.64301 14.465C7.64431 14.465 7.64562 14.465 7.64692 14.465C7.64823 14.465 7.64953 14.465 7.65084 14.465C7.65214 14.465 7.65345 14.465 7.65475 14.465C7.65606 14.465 7.65736 14.465 7.65867 14.465C7.65997 14.465 7.66128 14.465 7.66259 14.465C7.66389 14.465 7.6652 14.465 7.6665 14.465L7.6665 13.535ZM5.76779 2.465C6.35236 2.465 6.99792 2.465 7.6665 2.465L7.6665 1.535C6.99792 1.535 6.35236 1.535 5.76779 1.535L5.76779 2.465ZM3.30564 11.3174C3.21228 10.2231 3.1315 8.98848 3.1315 8L2.2015 8C2.2015 9.02886 2.28504 10.295 2.37901 11.3965L3.30564 11.3174ZM3.1315 8C3.1315 7.01152 3.21228 5.77686 3.30564 4.68258L2.37901 4.60352C2.28504 5.70495 2.2015 6.97114 2.2015 8L3.1315 8ZM5.76779 1.535C4.01913 1.535 2.52928 2.8422 2.37901 4.60352L3.30564 4.68258C3.41325 3.42137 4.48293 2.465 5.76779 2.465L5.76779 1.535ZM5.76779 13.535C4.48293 13.535 3.41325 12.5786 3.30564 11.3174L2.37901 11.3965C2.52928 13.1578 4.01913 14.465 5.76779 14.465L5.76779 13.535Z" fill="#7D87A6"/>
</svg>
