<svg width="233" height="113" viewBox="0 0 233 113" fill="none" xmlns="http://www.w3.org/2000/svg">
<path d="M58.1664 57.2132H0L58.1664 0.613281V57.2132Z" fill="#0D1626"/>
<path d="M116.309 113.251H232.641V0H116.309V113.251Z" fill="#111B2C"/>
<path d="M116.333 0V113.251H0L116.333 0Z" fill="#0D1626"/>
<path d="M232.639 113.251V56.6509H174.473C174.48 71.6648 180.611 86.0612 191.518 96.675C202.426 107.289 217.217 113.251 232.639 113.251Z" fill="#0D1626"/>
<path d="M174.473 0.0249023V56.6505H232.639C232.639 41.6325 226.511 27.2296 215.602 16.6105C204.694 5.99096 189.899 0.0249023 174.473 0.0249023Z" fill="#141E31"/>
<path d="M58.2812 113.225H116.448V56.6255C101.025 56.6255 86.2347 62.5879 75.3272 73.2017C64.4196 83.8156 58.2882 98.2119 58.2812 113.225Z" fill="#141E31"/>
<path d="M174.476 113.251H116.336L174.476 56.6255V113.251Z" fill="#0D1626"/>
<path d="M174.476 56.6256H116.336L174.476 0V56.6256Z" fill="#0D1626"/>
</svg>
