<svg width="689" height="316" viewBox="0 0 689 316" fill="none" xmlns="http://www.w3.org/2000/svg">
<g filter="url(#filter0_dddddd)">
<path d="M160.84 204.712V161.8H80.488V120.616L175.528 0.231993H206.92V120.616H232.264V161.8H206.92V204.712H160.84ZM126.28 120.616H166.024V69.352L126.28 120.616ZM345.82 207.88C331.036 207.88 317.98 204.712 306.652 198.376C295.324 191.848 285.82 183.496 278.14 173.32C270.652 162.952 264.988 151.72 261.148 139.624C257.308 127.528 255.388 115.72 255.388 104.2C255.388 91.912 257.404 79.624 261.436 67.336C265.66 55.048 271.708 43.912 279.58 33.928C287.452 23.752 296.956 15.688 308.092 9.73599C319.228 3.59199 331.804 0.519989 345.82 0.519989C360.796 0.519989 373.948 3.78399 385.276 10.312C396.604 16.84 406.012 25.288 413.5 35.656C421.18 46.024 426.94 57.256 430.78 69.352C434.62 81.448 436.54 93.064 436.54 104.2C436.54 116.68 434.428 129.064 430.204 141.352C426.172 153.448 420.22 164.584 412.348 174.76C404.476 184.744 394.876 192.808 383.548 198.952C372.412 204.904 359.836 207.88 345.82 207.88ZM303.196 104.2C303.196 111.304 304.06 118.504 305.788 125.8C307.516 133.096 310.108 139.816 313.564 145.96C317.02 151.912 321.436 156.712 326.812 160.36C332.188 164.008 338.524 165.832 345.82 165.832C353.5 165.832 360.028 163.912 365.404 160.072C370.972 156.04 375.388 150.952 378.652 144.808C382.108 138.472 384.604 131.752 386.14 124.648C387.868 117.544 388.732 110.728 388.732 104.2C388.732 97.096 387.868 89.896 386.14 82.6C384.412 75.304 381.724 68.68 378.076 62.728C374.62 56.584 370.204 51.688 364.828 48.04C359.452 44.392 353.116 42.568 345.82 42.568C338.332 42.568 331.804 44.584 326.236 48.616C320.86 52.456 316.444 57.544 312.988 63.88C309.724 70.024 307.228 76.648 305.5 83.752C303.964 90.856 303.196 97.672 303.196 104.2ZM536.621 204.712V161.8H456.269V120.616L551.309 0.231993H582.701V120.616H608.045V161.8H582.701V204.712H536.621ZM502.061 120.616H541.805V69.352L502.061 120.616Z" fill="#1B2434"/>
<path d="M160.84 204.712H159.84V205.712H160.84V204.712ZM160.84 161.8H161.84V160.8H160.84V161.8ZM80.488 161.8H79.488V162.8H80.488V161.8ZM80.488 120.616L79.7031 119.996L79.488 120.269V120.616H80.488ZM175.528 0.231995V-0.768005H175.043L174.743 -0.38765L175.528 0.231995ZM206.92 0.231995H207.92V-0.768005H206.92V0.231995ZM206.92 120.616H205.92V121.616H206.92V120.616ZM232.264 120.616H233.264V119.616H232.264V120.616ZM232.264 161.8V162.8H233.264V161.8H232.264ZM206.92 161.8V160.8H205.92V161.8H206.92ZM206.92 204.712V205.712H207.92V204.712H206.92ZM126.28 120.616L125.49 120.003L124.239 121.616H126.28V120.616ZM166.024 120.616V121.616H167.024V120.616H166.024ZM166.024 69.352H167.024V66.4301L165.234 68.7393L166.024 69.352ZM161.84 204.712V161.8H159.84V204.712H161.84ZM160.84 160.8H80.488V162.8H160.84V160.8ZM81.488 161.8V120.616H79.488V161.8H81.488ZM81.2729 121.236L176.313 0.851639L174.743 -0.38765L79.7031 119.996L81.2729 121.236ZM175.528 1.23199H206.92V-0.768005H175.528V1.23199ZM205.92 0.231995V120.616H207.92V0.231995H205.92ZM206.92 121.616H232.264V119.616H206.92V121.616ZM231.264 120.616V161.8H233.264V120.616H231.264ZM232.264 160.8H206.92V162.8H232.264V160.8ZM205.92 161.8V204.712H207.92V161.8H205.92ZM206.92 203.712H160.84V205.712H206.92V203.712ZM126.28 121.616H166.024V119.616H126.28V121.616ZM167.024 120.616V69.352H165.024V120.616H167.024ZM165.234 68.7393L125.49 120.003L127.07 121.229L166.814 69.9647L165.234 68.7393ZM306.652 198.376L306.153 199.242L306.164 199.249L306.652 198.376ZM278.14 173.32L277.33 173.905L277.336 173.914L277.342 173.922L278.14 173.32ZM261.148 139.624L262.101 139.321L261.148 139.624ZM261.436 67.336L260.49 67.0109L260.486 67.0242L261.436 67.336ZM279.58 33.928L280.366 34.5472L280.371 34.5399L279.58 33.928ZM308.092 9.73599L308.564 10.618L308.575 10.6116L308.092 9.73599ZM385.276 10.312L385.776 9.44556L385.276 10.312ZM413.5 35.656L412.69 36.2415L412.697 36.2512L413.5 35.656ZM430.78 69.352L429.827 69.6546L430.78 69.352ZM430.204 141.352L429.259 141.027L429.256 141.036L430.204 141.352ZM412.348 174.76L413.134 175.379L413.139 175.372L412.348 174.76ZM383.548 198.952L384.02 199.834L384.025 199.831L383.548 198.952ZM305.788 125.8L306.761 125.57L305.788 125.8ZM313.564 145.96L312.693 146.45L312.699 146.462L313.564 145.96ZM326.812 160.36L326.251 161.187L326.812 160.36ZM365.404 160.072L365.986 160.886L365.991 160.882L365.404 160.072ZM378.652 144.808L377.774 144.329L377.769 144.339L378.652 144.808ZM386.14 124.648L385.169 124.412L385.166 124.424L385.163 124.437L386.14 124.648ZM386.14 82.6L385.167 82.8305L386.14 82.6ZM378.076 62.728L377.205 63.2183L377.214 63.2346L377.224 63.2506L378.076 62.728ZM326.236 48.616L326.818 49.4297L326.823 49.4259L326.236 48.616ZM312.988 63.88L312.11 63.4011L312.105 63.4108L312.988 63.88ZM305.5 83.752L304.529 83.5156L304.526 83.5281L304.523 83.5407L305.5 83.752ZM345.82 206.88C331.183 206.88 318.3 203.745 307.14 197.503L306.164 199.249C317.661 205.679 330.889 208.88 345.82 208.88V206.88ZM307.152 197.51C295.937 191.047 286.535 182.784 278.938 172.718L277.342 173.922C285.105 184.208 294.712 192.649 306.153 199.242L307.152 197.51ZM278.951 172.734C271.525 162.452 265.909 151.315 262.101 139.321L260.195 139.927C264.068 152.125 269.78 163.452 277.33 173.905L278.951 172.734ZM262.101 139.321C258.289 127.313 256.388 115.607 256.388 104.2H254.388C254.388 115.833 256.327 127.743 260.195 139.927L262.101 139.321ZM256.388 104.2C256.388 92.0233 258.386 79.8404 262.386 67.6478L260.486 67.0242C256.423 79.4075 254.388 91.8006 254.388 104.2H256.388ZM262.382 67.6611C266.57 55.477 272.565 44.4409 280.366 34.5471L278.795 33.3088C270.852 43.3831 264.75 54.6189 260.491 67.0109L262.382 67.6611ZM280.371 34.5399C288.159 24.4732 297.554 16.5022 308.564 10.6179L307.621 8.85406C296.358 14.8738 286.746 23.0307 278.789 33.3161L280.371 34.5399ZM308.575 10.6116C319.549 4.5573 331.956 1.51999 345.82 1.51999V-0.480011C331.653 -0.480011 318.908 2.62669 307.609 8.86041L308.575 10.6116ZM345.82 1.51999C360.647 1.51999 373.622 4.75 384.777 11.1784L385.776 9.44556C374.275 2.81798 360.946 -0.480011 345.82 -0.480011V1.51999ZM384.777 11.1784C395.985 17.6375 405.286 25.9907 412.69 36.2415L414.311 35.0705C406.738 24.5853 397.223 16.0425 385.776 9.44556L384.777 11.1784ZM412.697 36.2512C420.312 46.5321 426.021 57.6655 429.827 69.6546L431.733 69.0494C427.859 56.8465 422.048 45.5159 414.304 35.0608L412.697 36.2512ZM429.827 69.6546C433.64 81.6661 435.54 93.1799 435.54 104.2H437.54C437.54 92.9481 435.6 81.2298 431.733 69.0494L429.827 69.6546ZM435.54 104.2C435.54 116.565 433.448 128.839 429.259 141.027L431.15 141.677C435.408 129.289 437.54 116.795 437.54 104.2H435.54ZM429.256 141.036C425.259 153.024 419.361 164.06 411.557 174.148L413.139 175.372C421.079 165.108 427.085 153.872 431.153 141.668L429.256 141.036ZM411.563 174.141C403.776 184.017 394.282 191.993 383.072 198.073L384.025 199.831C395.471 193.623 405.176 185.471 413.134 175.379L411.563 174.141ZM383.077 198.07C372.101 203.936 359.69 206.88 345.82 206.88V208.88C359.982 208.88 372.723 205.872 384.02 199.834L383.077 198.07ZM302.196 104.2C302.196 111.386 303.07 118.663 304.815 126.03L306.761 125.57C305.05 118.345 304.196 111.222 304.196 104.2H302.196ZM304.815 126.03C306.563 133.412 309.188 140.22 312.693 146.45L314.436 145.47C311.028 139.412 308.469 132.78 306.761 125.57L304.815 126.03ZM312.699 146.462C316.226 152.536 320.743 157.45 326.251 161.187L327.374 159.533C322.129 155.974 317.814 151.288 314.429 145.458L312.699 146.462ZM326.251 161.187C331.812 164.961 338.35 166.832 345.82 166.832V164.832C338.699 164.832 332.564 163.055 327.374 159.533L326.251 161.187ZM345.82 166.832C353.674 166.832 360.413 164.866 365.986 160.886L364.823 159.258C359.643 162.958 353.327 164.832 345.82 164.832V166.832ZM365.991 160.882C371.684 156.759 376.201 151.554 379.535 145.277L377.769 144.339C374.576 150.35 370.261 155.321 364.818 159.262L365.991 160.882ZM379.53 145.287C383.032 138.866 385.562 132.056 387.118 124.859L385.163 124.437C383.647 131.448 381.184 138.078 377.774 144.329L379.53 145.287ZM387.112 124.884C388.857 117.712 389.732 110.816 389.732 104.2H387.732C387.732 110.64 386.88 117.376 385.169 124.412L387.112 124.884ZM389.732 104.2C389.732 97.0142 388.858 89.7369 387.113 82.3695L385.167 82.8305C386.878 90.0551 387.732 97.1778 387.732 104.2H389.732ZM387.113 82.3695C385.363 74.978 382.636 68.2543 378.929 62.2054L377.224 63.2506C380.812 69.1057 383.462 75.63 385.167 82.8305L387.113 82.3695ZM378.948 62.2377C375.423 55.9705 370.904 50.9547 365.39 47.2125L364.267 48.8675C369.504 52.4213 373.818 57.1974 377.205 63.2183L378.948 62.2377ZM365.39 47.2125C359.828 43.4386 353.291 41.568 345.82 41.568V43.568C352.942 43.568 359.076 45.3454 364.267 48.8675L365.39 47.2125ZM345.82 41.568C338.141 41.568 331.404 43.6394 325.65 47.806L326.823 49.4259C332.205 45.5286 338.523 43.568 345.82 43.568V41.568ZM325.655 47.8023C320.145 51.7379 315.632 56.945 312.11 63.4011L313.866 64.3589C317.257 58.143 321.575 53.1741 326.817 49.4297L325.655 47.8023ZM312.105 63.4108C308.8 69.6321 306.275 76.3348 304.529 83.5156L306.472 83.9883C308.181 76.9612 310.648 70.4159 313.871 64.3492L312.105 63.4108ZM304.523 83.5407C302.973 90.7064 302.196 97.5935 302.196 104.2H304.196C304.196 97.7505 304.955 91.0056 306.478 83.9633L304.523 83.5407ZM536.621 204.712H535.621V205.712H536.621V204.712ZM536.621 161.8H537.621V160.8H536.621V161.8ZM456.269 161.8H455.269V162.8H456.269V161.8ZM456.269 120.616L455.484 119.996L455.269 120.269V120.616H456.269ZM551.309 0.231995V-0.768005H550.825L550.524 -0.38765L551.309 0.231995ZM582.701 0.231995H583.701V-0.768005H582.701V0.231995ZM582.701 120.616H581.701V121.616H582.701V120.616ZM608.045 120.616H609.045V119.616H608.045V120.616ZM608.045 161.8V162.8H609.045V161.8H608.045ZM582.701 161.8V160.8H581.701V161.8H582.701ZM582.701 204.712V205.712H583.701V204.712H582.701ZM502.061 120.616L501.271 120.003L500.021 121.616H502.061V120.616ZM541.805 120.616V121.616H542.805V120.616H541.805ZM541.805 69.352H542.805V66.4301L541.015 68.7393L541.805 69.352ZM537.621 204.712V161.8H535.621V204.712H537.621ZM536.621 160.8H456.269V162.8H536.621V160.8ZM457.269 161.8V120.616H455.269V161.8H457.269ZM457.054 121.236L552.094 0.851639L550.524 -0.38765L455.484 119.996L457.054 121.236ZM551.309 1.23199H582.701V-0.768005H551.309V1.23199ZM581.701 0.231995V120.616H583.701V0.231995H581.701ZM582.701 121.616H608.045V119.616H582.701V121.616ZM607.045 120.616V161.8H609.045V120.616H607.045ZM608.045 160.8H582.701V162.8H608.045V160.8ZM581.701 161.8V204.712H583.701V161.8H581.701ZM582.701 203.712H536.621V205.712H582.701V203.712ZM502.061 121.616H541.805V119.616H502.061V121.616ZM542.805 120.616V69.352H540.805V120.616H542.805ZM541.015 68.7393L501.271 120.003L502.852 121.229L542.596 69.9647L541.015 68.7393Z" fill="#2E405F"/>
</g>
<defs>
<filter id="filter0_dddddd" x="0.488007" y="0.231995" width="687.557" height="515.648" filterUnits="userSpaceOnUse" color-interpolation-filters="sRGB">
<feFlood flood-opacity="0" result="BackgroundImageFix"/>
<feColorMatrix in="SourceAlpha" type="matrix" values="0 0 0 0 0 0 0 0 0 0 0 0 0 0 0 0 0 0 127 0" result="hardAlpha"/> 
<feOffset dy="6.30934"/> 
<feGaussianBlur stdDeviation="1.1069"/>
<feColorMatrix type="matrix" values="0 0 0 0 0 0 0 0 0 0 0 0 0 0 0 0 0 0 0.106835 0"/>
<feBlend mode="normal" in2="BackgroundImageFix" result="effect1_dropShadow"/>
<feColorMatrix in="SourceAlpha" type="matrix" values="0 0 0 0 0 0 0 0 0 0 0 0 0 0 0 0 0 0 127 0" result="hardAlpha"/> 
<feOffset dy="15.1622"/>
<feGaussianBlur stdDeviation="2.66004"/>
<feColorMatrix type="matrix" values="0 0 0 0 0 0 0 0 0 0 0 0 0 0 0 0 0 0 0.153479 0"/> 
<feBlend mode="normal" in2="effect1_dropShadow" result="effect2_dropShadow"/>
<feColorMatrix in="SourceAlpha" type="matrix" values="0 0 0 0 0 0 0 0 0 0 0 0 0 0 0 0 0 0 127 0" result="hardAlpha"/>
<feOffset dy="28.5491"/> 
<feGaussianBlur stdDeviation="5.00862"/>
<feColorMatrix type="matrix" values="0 0 0 0 0 0 0 0 0 0 0 0 0 0 0 0 0 0 0.19 0"/>
<feBlend mode="normal" in2="effect2_dropShadow" result="effect3_dropShadow"/> 
<feColorMatrix in="SourceAlpha" type="matrix" values="0 0 0 0 0 0 0 0 0 0 0 0 0 0 0 0 0 0 127 0" result="hardAlpha"/>
<feOffset dy="50.9268"/>
<feGaussianBlur stdDeviation="8.93452"/>
<feColorMatrix type="matrix" values="0 0 0 0 0 0 0 0 0 0 0 0 0 0 0 0 0 0 0.226521 0"/> 
<feBlend mode="normal" in2="effect3_dropShadow" result="effect4_dropShadow"/>
<feColorMatrix in="SourceAlpha" type="matrix" values="0 0 0 0 0 0 0 0 0 0 0 0 0 0 0 0 0 0 127 0" result="hardAlpha"/>
<feOffset dy="95.253"/> 
<feGaussianBlur stdDeviation="16.711"/>
<feColorMatrix type="matrix" values="0 0 0 0 0 0 0 0 0 0 0 0 0 0 0 0 0 0 0.273165 0"/>
<feBlend mode="normal" in2="effect4_dropShadow" result="effect5_dropShadow"/> 
<feColorMatrix in="SourceAlpha" type="matrix" values="0 0 0 0 0 0 0 0 0 0 0 0 0 0 0 0 0 0 127 0" result="hardAlpha"/>
<feOffset dy="228"/>
<feGaussianBlur stdDeviation="40"/> 
<feColorMatrix type="matrix" values="0 0 0 0 0 0 0 0 0 0 0 0 0 0 0 0 0 0 0.38 0"/> 
<feBlend mode="normal" in2="effect5_dropShadow" result="effect6_dropShadow"/>
<feBlend mode="normal" in="SourceGraphic" in2="effect6_dropShadow" result="shape"/>
</filter>
</defs>
</svg>
