<svg width="126" height="25" viewBox="0 0 126 25" fill="none" xmlns="http://www.w3.org/2000/svg">
<path fill-rule="evenodd" clip-rule="evenodd" d="M0.316406 10.7619C0.316406 4.62556 5.25001 -0.348389 11.3355 -0.348389C17.4214 -0.348389 22.3545 4.62556 22.3545 10.7619C22.3545 16.8977 17.4214 21.8722 11.3355 21.8722C5.25001 21.8722 0.316406 16.8977 0.316406 10.7619Z" fill="white"/>
<path fill-rule="evenodd" clip-rule="evenodd" d="M7.65995 6.44092C5.29354 6.44092 3.375 8.37534 3.375 10.7616C3.375 13.1478 5.29354 15.0823 7.65995 15.0823H8.27236V13.4772H7.65995C6.17482 13.4772 4.96664 12.259 4.96664 10.7616C4.96664 9.26392 6.17482 8.04574 7.65995 8.04574H9.13111V16.4402C9.13111 17.3263 9.84368 18.045 10.7228 18.045V6.44092H7.65995Z" fill="#1E2738"/>
<path fill-rule="evenodd" clip-rule="evenodd" d="M15.0081 15.0828C17.3748 15.0828 19.2933 13.1484 19.2933 10.7622C19.2933 8.37593 17.3748 6.4415 15.0081 6.4415H14.396V8.04632H15.0081C16.4932 8.04632 17.7017 9.26475 17.7017 10.7622C17.7017 12.2598 16.4932 13.478 15.0081 13.478H13.537V5.08358C13.537 4.19723 12.8244 3.47876 11.9453 3.47876V15.0828H15.0081Z" fill="#1E2738"/>
<path fill-rule="evenodd" clip-rule="evenodd" d="M26.6406 7.67775H27.8456V2.81836H26.6406V7.67775Z" fill="white"/>
<path fill-rule="evenodd" clip-rule="evenodd" d="M29.0781 2.81823H30.2226V3.59744H30.2427C30.4535 3.11179 31.026 2.67627 31.7386 2.67627C32.9941 2.67627 33.5161 3.6483 33.5161 4.64032V7.67763H32.3114V4.98449C32.3114 4.40775 32.1806 3.68854 31.4073 3.68854C30.6445 3.68854 30.2829 4.35713 30.2829 5.00474V7.67763H29.0781V2.81823Z" fill="white"/>
<path fill-rule="evenodd" clip-rule="evenodd" d="M43.313 7.67775H42.1685V6.89806H42.1482C41.9376 7.38419 41.3651 7.81947 40.6523 7.81947C39.3968 7.81947 38.875 6.84794 38.875 5.85542V2.81836H40.08V5.51125C40.08 6.08824 40.2105 6.8072 40.9838 6.8072C41.7466 6.8072 42.1082 6.13885 42.1082 5.491V2.81836H43.313V7.67775Z" fill="white"/>
<path fill-rule="evenodd" clip-rule="evenodd" d="M44.5469 7.67775H45.7519V2.81836H44.5469V7.67775Z" fill="white"/>
<path fill-rule="evenodd" clip-rule="evenodd" d="M38.0397 2.81543H34.1328V3.89189H35.4837V7.67778H36.6887V3.89189H38.0397V2.81543Z" fill="white"/>
<path fill-rule="evenodd" clip-rule="evenodd" d="M35.3555 1.44765C35.3555 1.04224 35.6814 0.713379 36.0835 0.713379C36.4858 0.713379 36.8117 1.04224 36.8117 1.44765C36.8117 1.85305 36.4858 2.18191 36.0835 2.18191C35.6814 2.18191 35.3555 1.85305 35.3555 1.44765Z" fill="white"/>
<path fill-rule="evenodd" clip-rule="evenodd" d="M50.5045 2.81543H46.5977V3.89189H47.9488V7.67778H49.1536V3.89189H50.5045V2.81543Z" fill="white"/>
<path fill-rule="evenodd" clip-rule="evenodd" d="M47.8242 1.44765C47.8242 1.04224 48.1501 0.713379 48.5522 0.713379C48.9543 0.713379 49.2802 1.04224 49.2802 1.44765C49.2802 1.85305 48.9543 2.18191 48.5522 2.18191C48.1501 2.18191 47.8242 1.85305 47.8242 1.44765Z" fill="white"/>
<path fill-rule="evenodd" clip-rule="evenodd" d="M78.5722 12.4137C80.2647 12.4137 81.1068 13.8607 81.1068 15.2051C81.1068 16.6112 80.1895 18.035 78.5722 18.035C76.994 18.035 76.0512 16.6156 76.0512 15.2434C76.0512 13.8825 77.015 12.4137 78.5722 12.4137ZM79.0861 10.1988C77.89 10.1988 77.0087 10.7262 76.1764 11.5125H76.1274V5.20435H73.5117V20.0193H76.0133V18.669H76.0525C76.6421 19.6445 77.8141 20.2882 79.0293 20.2882C81.7295 20.2882 83.7763 18.1505 83.7763 15.2051C83.7763 12.3043 81.7535 10.1988 79.0861 10.1988Z" fill="white"/>
<path fill-rule="evenodd" clip-rule="evenodd" d="M58.193 12.4519C58.871 12.4519 59.7283 12.7948 60.0648 13.277L61.7507 11.5833C60.9345 10.7162 59.6338 10.1987 58.193 10.1987C55.261 10.1987 53.1328 12.3203 53.1328 15.2433C53.1328 18.2137 55.2372 20.2881 58.2503 20.2881C59.684 20.2881 61.009 19.8649 61.7945 19.0134L60.1546 17.2389C59.7758 17.7041 58.982 18.0349 58.2694 18.0349C56.677 18.0349 55.8741 16.6 55.8741 15.2129C55.8741 13.8256 56.7451 12.4519 58.193 12.4519Z" fill="white"/>
<path fill-rule="evenodd" clip-rule="evenodd" d="M117.874 10.4677H114.5L111.123 14.4311H111.065V5.20435H108.449V20.0193H111.065V15.308H111.123L114.627 20.0193H118.069L113.997 14.7994L117.874 10.4677Z" fill="white"/>
<path fill-rule="evenodd" clip-rule="evenodd" d="M72.5263 10.4677H69.1527L65.7755 14.4311H65.7172V5.20435H63.1016V20.0193H65.7172V15.308H65.7755L69.2793 20.0193H72.7217L68.6495 14.7994L72.5263 10.4677Z" fill="white"/>
<path fill-rule="evenodd" clip-rule="evenodd" d="M25.2969 15.205C25.2969 18.1505 27.1936 20.2881 29.8938 20.2881C31.1201 20.2881 32.2717 19.6331 32.9394 18.8709H32.9781V24.7226H35.5938V10.4676H33.0736V11.6803H33.0156C32.6461 11.2683 31.6448 10.1987 30.0194 10.1987C27.3523 10.1987 25.2969 12.3043 25.2969 15.205ZM33.0543 15.2433C33.0543 16.6155 32.1115 18.0349 30.5336 18.0349C28.9163 18.0349 27.9965 16.6113 27.9965 15.205C27.9965 13.8607 28.8411 12.4136 30.5336 12.4136C32.0907 12.4136 33.0543 13.8824 33.0543 15.2433Z" fill="white"/>
<path fill-rule="evenodd" clip-rule="evenodd" d="M44.0861 15.7042C44.0861 16.8266 43.3605 18.0349 42.0081 18.0349C40.9655 18.0349 40.4087 17.285 40.4087 15.7427V10.4675H37.793V16.3957C37.793 18.3682 38.7693 20.288 41.3796 20.288C42.6105 20.288 43.6416 19.3108 44.1613 18.5899H44.2004V20.0192H46.7018V10.4675H44.0861V15.7042Z" fill="white"/>
<path fill-rule="evenodd" clip-rule="evenodd" d="M48.8398 20.0192H51.4558V10.4675H48.8398V20.0192Z" fill="white"/>
<path fill-rule="evenodd" clip-rule="evenodd" d="M90.1171 18.0349C88.4113 18.0349 87.6341 16.5679 87.6341 15.205C87.6341 13.8607 88.4113 12.4136 90.1171 12.4136C91.8228 12.4136 92.5998 13.8607 92.5998 15.205C92.5998 16.5679 91.8228 18.0349 90.1171 18.0349ZM90.1171 10.1987C87.1407 10.1987 84.9805 12.3043 84.9805 15.205C84.9805 18.2068 87.1887 20.3138 90.1171 20.3138C93.0452 20.3138 95.2534 18.1868 95.2534 15.205C95.2534 12.3043 93.0932 10.1987 90.1171 10.1987Z" fill="white"/>
<path fill-rule="evenodd" clip-rule="evenodd" d="M101.609 18.0349C99.9035 18.0349 99.1263 16.5679 99.1263 15.205C99.1263 13.8607 99.9035 12.4136 101.609 12.4136C103.315 12.4136 104.092 13.8607 104.092 15.205C104.092 16.5679 103.315 18.0349 101.609 18.0349ZM101.609 10.1987C98.6329 10.1987 96.4727 12.3043 96.4727 15.205C96.4727 18.2068 98.6809 20.3138 101.609 20.3138C104.537 20.3138 106.746 18.1868 106.746 15.205C106.746 12.3043 104.585 10.1987 101.609 10.1987Z" fill="white"/>
<path fill-rule="evenodd" clip-rule="evenodd" d="M122.385 12.168C123.196 12.168 124.113 12.6568 124.458 13.1207L126.001 11.6287C125.287 10.7251 123.885 10.1987 122.404 10.1987C120.51 10.1987 118.523 11.1589 118.523 13.3034C118.523 15.1453 119.954 15.701 121.355 16.0393C122.832 16.3859 123.358 16.6392 123.358 17.2389C123.358 18.1231 122.363 18.2673 122.021 18.2673C121.166 18.2673 120.174 17.7735 119.639 17.1333L118.051 18.7564C118.918 19.7262 120.403 20.3101 121.926 20.3101C124.483 20.3101 126.001 19.0808 126.001 17.0525C126.001 15.1119 124.143 14.4596 122.822 14.1404C121.476 13.8165 121.001 13.6419 121.001 13.0923C121.001 12.3344 121.953 12.168 122.385 12.168Z" fill="white"/>
<path fill-rule="evenodd" clip-rule="evenodd" d="M26.6406 7.67775H27.8456V2.81836H26.6406V7.67775Z" fill="white"/>
<path fill-rule="evenodd" clip-rule="evenodd" d="M8.30453 0.0771484C8.29433 0.0798857 8.28389 0.0828722 8.27344 0.0858583L8.30453 0.0771484Z" fill="#34BFFF"/>
<path fill-rule="evenodd" clip-rule="evenodd" d="M14.3975 0.08537C14.3876 0.0826327 14.3774 0.0796463 14.3672 0.0766602L14.3975 0.08537Z" fill="#34BFFF"/>
</svg>
