<svg width="22" height="23" viewBox="0 0 22 23" fill="none" xmlns="http://www.w3.org/2000/svg">
<path d="M14.2902 6.61158C13.9109 6.68616 13.5429 6.43911 13.4683 6.05977C13.3937 5.68043 13.6408 5.31246 14.0201 5.23788L14.2902 6.61158ZM16.3356 1.0919C16.2001 0.72981 16.3838 0.326464 16.7459 0.190999C17.108 0.0555341 17.5114 0.239249 17.6468 0.601338L16.3356 1.0919ZM18.8035 5.18978C18.6973 5.38004 18.532 5.48041 18.4802 5.51179C18.4003 5.56012 18.3143 5.59983 18.2376 5.63184C18.0818 5.69688 17.8894 5.76071 17.6875 5.82113C17.2795 5.94326 16.7635 6.07178 16.2657 6.18745C15.7653 6.30375 15.2717 6.4097 14.9041 6.48643C14.72 6.52485 14.567 6.55604 14.4598 6.57767C14.4062 6.58849 14.3641 6.59692 14.3352 6.60267C14.3208 6.60554 14.3096 6.60775 14.3021 6.60924C14.2983 6.60999 14.2954 6.61057 14.2934 6.61096C14.2924 6.61115 14.2916 6.6113 14.2911 6.61141C14.2908 6.61146 14.2906 6.6115 14.2905 6.61153C14.2904 6.61155 14.2903 6.61156 14.2903 6.61157C14.2902 6.61158 14.2902 6.61158 14.1552 5.92473C14.0201 5.23788 14.0201 5.23788 14.0201 5.23788C14.0201 5.23788 14.0202 5.23787 14.0202 5.23787C14.0203 5.23785 14.0204 5.23782 14.0206 5.23778C14.021 5.2377 14.0217 5.23758 14.0225 5.23741C14.0243 5.23707 14.0269 5.23655 14.0304 5.23585C14.0375 5.23446 14.048 5.23236 14.0619 5.2296C14.0896 5.22408 14.1306 5.21589 14.1829 5.20534C14.2875 5.18423 14.4374 5.15366 14.618 5.11596C14.9797 5.04049 15.4622 4.93688 15.9489 4.82379C16.4383 4.71006 16.9205 4.58935 17.2861 4.47992C17.471 4.42457 17.6093 4.37704 17.6984 4.33983C17.7442 4.32072 17.7594 4.31157 17.7555 4.31392C17.7532 4.31532 17.7347 4.32645 17.709 4.34859C17.6871 4.36741 17.6305 4.4189 17.5812 4.50715L18.8035 5.18978ZM17.5812 4.50715C17.532 4.59539 17.5178 4.67055 17.5132 4.69907C17.5079 4.73261 17.5081 4.75418 17.5081 4.75688C17.5082 4.76141 17.508 4.74371 17.5003 4.69469C17.4852 4.59925 17.4531 4.45659 17.4032 4.27011C17.3047 3.90147 17.1545 3.42758 16.9946 2.95124C16.8357 2.47756 16.6708 2.0124 16.5454 1.66492C16.4828 1.49139 16.4301 1.34769 16.3933 1.24755C16.3748 1.19749 16.3603 1.15834 16.3505 1.13182C16.3455 1.11856 16.3418 1.10846 16.3393 1.10173C16.338 1.09837 16.3371 1.09585 16.3365 1.0942C16.3361 1.09338 16.3359 1.09277 16.3358 1.09239C16.3357 1.0922 16.3357 1.09206 16.3356 1.09198C16.3356 1.09194 16.3356 1.09192 16.3356 1.0919C16.3356 1.09189 16.3356 1.0919 16.9912 0.846619C17.6468 0.601338 17.6468 0.601375 17.6469 0.601425C17.6469 0.601461 17.6469 0.601526 17.6469 0.601597C17.647 0.601739 17.6471 0.601937 17.6471 0.602191C17.6473 0.602699 17.6476 0.603428 17.648 0.604376C17.6487 0.606273 17.6497 0.609043 17.6511 0.612662C17.6538 0.619899 17.6577 0.630527 17.6628 0.644332C17.6731 0.671939 17.688 0.712258 17.7069 0.763564C17.7447 0.866157 17.7984 1.01279 17.8622 1.18964C17.9898 1.5429 18.1584 2.0187 18.3219 2.5058C18.4845 2.99026 18.6457 3.497 18.7557 3.90845C18.8102 4.11202 18.8567 4.30928 18.8831 4.47609C18.8961 4.55819 18.9073 4.65219 18.9081 4.74556C18.9086 4.80618 18.9098 4.99952 18.8035 5.18978L17.5812 4.50715Z" fill="#4470FF"/>
<path d="M17 4C6.5 -1 1 6.47716 1 12C1 17.5229 5.47715 22 11 22C16.5228 22 21 17.5229 21 12" stroke="#4470FF" stroke-width="1.4" stroke-linecap="round" stroke-linejoin="round"/>
</svg>
