<svg width="22" height="23" viewBox="0 0 22 23" fill="none" xmlns="http://www.w3.org/2000/svg">
<path d="M14.2912 6.61165C13.9118 6.68622 13.5439 6.43917 13.4693 6.05983C13.3947 5.68049 13.6418 5.31252 14.0211 5.23794L14.2912 6.61165ZM16.3366 1.09196C16.2011 0.729871 16.3848 0.326525 16.7469 0.19106C17.109 0.0555951 17.5123 0.23931 17.6478 0.601399L16.3366 1.09196ZM18.8045 5.18984C18.6983 5.3801 18.533 5.48048 18.4811 5.51185C18.4012 5.56019 18.3153 5.59989 18.2386 5.6319C18.0827 5.69694 17.8904 5.76077 17.6885 5.82119C17.2805 5.94332 16.7645 6.07185 16.2667 6.18751C15.7662 6.30381 15.2727 6.40976 14.905 6.48649C14.721 6.52491 14.568 6.5561 14.4608 6.57773C14.4072 6.58855 14.3651 6.59698 14.3362 6.60273C14.3217 6.6056 14.3106 6.60781 14.303 6.60931C14.2992 6.61005 14.2963 6.61063 14.2944 6.61102C14.2934 6.61121 14.2926 6.61136 14.2921 6.61147C14.2918 6.61152 14.2916 6.61156 14.2914 6.61159C14.2914 6.61161 14.2913 6.61162 14.2913 6.61163C14.2912 6.61164 14.2912 6.61165 14.1561 5.92479C14.0211 5.23794 14.0211 5.23794 14.0211 5.23794C14.0211 5.23794 14.0211 5.23794 14.0212 5.23793C14.0213 5.23791 14.0214 5.23788 14.0216 5.23784C14.022 5.23776 14.0226 5.23764 14.0235 5.23747C14.0252 5.23713 14.0279 5.23661 14.0314 5.23591C14.0384 5.23452 14.049 5.23242 14.0629 5.22966C14.0906 5.22414 14.1316 5.21595 14.1839 5.2054C14.2885 5.18429 14.4384 5.15372 14.619 5.11602C14.9806 5.04055 15.4632 4.93694 15.9498 4.82385C16.4392 4.71012 16.9215 4.58941 17.287 4.47999C17.472 4.42463 17.6102 4.3771 17.6994 4.33989C17.7452 4.32078 17.7604 4.31163 17.7565 4.31398C17.7542 4.31538 17.7357 4.32651 17.71 4.34865C17.688 4.36747 17.6315 4.41897 17.5822 4.50721L18.8045 5.18984ZM17.5822 4.50721C17.5329 4.59545 17.5188 4.67061 17.5142 4.69913C17.5089 4.73267 17.5091 4.75424 17.5091 4.75694C17.5091 4.76148 17.509 4.74377 17.5012 4.69475C17.4861 4.59931 17.4541 4.45665 17.4042 4.27017C17.3056 3.90153 17.1555 3.42764 16.9956 2.9513C16.8367 2.47762 16.6718 2.01247 16.5464 1.66498C16.4837 1.49145 16.4311 1.34775 16.3942 1.24761C16.3758 1.19755 16.3613 1.1584 16.3514 1.13188C16.3465 1.11862 16.3427 1.10852 16.3402 1.10179C16.339 1.09843 16.338 1.09591 16.3374 1.09427C16.3371 1.09344 16.3369 1.09283 16.3368 1.09245C16.3367 1.09226 16.3366 1.09212 16.3366 1.09204C16.3366 1.092 16.3366 1.09198 16.3366 1.09196C16.3366 1.09195 16.3366 1.09196 16.9922 0.84668C17.6478 0.601399 17.6478 0.601436 17.6478 0.601486C17.6479 0.601522 17.6479 0.601587 17.6479 0.601658C17.648 0.6018 17.648 0.601999 17.6481 0.602252C17.6483 0.60276 17.6486 0.603489 17.6489 0.604437C17.6497 0.606334 17.6507 0.609104 17.652 0.612723C17.6547 0.61996 17.6587 0.630588 17.6638 0.644393C17.6741 0.672 17.689 0.712319 17.7079 0.763625C17.7457 0.866218 17.7994 1.01285 17.8632 1.1897C17.9907 1.54296 18.1594 2.01876 18.3229 2.50587C18.4855 2.99032 18.6467 3.49706 18.7567 3.90851C18.8111 4.11209 18.8577 4.30934 18.8841 4.47615C18.897 4.55825 18.9083 4.65225 18.9091 4.74562C18.9096 4.80624 18.9108 4.99959 18.8045 5.18984L17.5822 4.50721Z" fill="#7D87A6"/>
<path d="M17 4C6.5 -1 1 6.47716 1 12C1 17.5229 5.47715 22 11 22C16.5228 22 21 17.5229 21 12" stroke="#7D87A6" stroke-width="1.4" stroke-linecap="round" stroke-linejoin="round"/>
</svg>
