<svg width="16" height="16" viewBox="0 0 16 16" fill="none" xmlns="http://www.w3.org/2000/svg">
<path d="M6.53028 7.87638C6.27791 7.58352 5.83591 7.55069 5.54305 7.80305C5.25018 8.05542 5.21735 8.49742 5.46972 8.79028L6.53028 7.87638ZM10.5797 6.39242C10.7964 6.07229 10.7126 5.63707 10.3924 5.42034C10.0723 5.20361 9.63707 5.28744 9.42034 5.60758L10.5797 6.39242ZM6 8.33333C5.46972 8.79028 5.46974 8.79031 5.46977 8.79034C5.46978 8.79036 5.46982 8.79039 5.46984 8.79043C5.4699 8.7905 5.46998 8.79058 5.47007 8.79069C5.47026 8.79091 5.47052 8.79121 5.47084 8.79158C5.47149 8.79234 5.47242 8.79341 5.47361 8.79479C5.47599 8.79754 5.47943 8.80153 5.48388 8.80666C5.49277 8.81692 5.50566 8.83177 5.52204 8.85056C5.55478 8.88813 5.60154 8.94153 5.65815 9.00551C5.77103 9.1331 5.92462 9.30449 6.08516 9.47695C6.24364 9.6472 6.41756 9.82787 6.56905 9.96956C6.64321 10.0389 6.72542 10.1117 6.80559 10.1712C6.84489 10.2004 6.89886 10.2379 6.9618 10.2711C7.00318 10.2928 7.14448 10.3667 7.33333 10.3667V8.96667C7.49914 8.96667 7.60986 9.03007 7.61416 9.03233C7.64001 9.04595 7.65038 9.05478 7.64062 9.04752C7.62267 9.03418 7.58487 9.00274 7.52539 8.9471C7.40959 8.8388 7.2617 8.68614 7.1099 8.52306C6.96015 8.36218 6.81497 8.20023 6.70666 8.07782C6.65268 8.0168 6.60823 7.96604 6.57742 7.93069C6.56202 7.91302 6.55005 7.89923 6.54202 7.88996C6.538 7.88532 6.53497 7.88182 6.533 7.87953C6.53201 7.87838 6.53128 7.87754 6.53082 7.87701C6.5306 7.87675 6.53044 7.87657 6.53035 7.87646C6.5303 7.87641 6.53027 7.87637 6.53026 7.87636C6.53025 7.87635 6.53026 7.87636 6.53026 7.87636C6.53027 7.87637 6.53028 7.87638 6 8.33333ZM7.33333 10.3667C7.47181 10.3667 7.57668 10.3264 7.62679 10.3042C7.68316 10.2793 7.72652 10.2517 7.75343 10.2332C7.80685 10.1965 7.84927 10.1581 7.87543 10.1333C7.93043 10.0811 7.98524 10.0199 8.03343 9.96339C8.13308 9.84655 8.25541 9.68968 8.38713 9.51461C8.65289 9.16141 8.98578 8.69548 9.3087 8.23558C9.63256 7.77432 9.95022 7.31364 10.1867 6.96865C10.305 6.79606 10.4031 6.65219 10.4717 6.5514C10.506 6.501 10.5329 6.46136 10.5513 6.43427C10.5605 6.42072 10.5675 6.41031 10.5723 6.40326C10.5747 6.39974 10.5765 6.39705 10.5778 6.39524C10.5784 6.39433 10.5788 6.39364 10.5792 6.39317C10.5793 6.39293 10.5794 6.39275 10.5795 6.39263C10.5796 6.39257 10.5796 6.39252 10.5796 6.39248C10.5796 6.39245 10.5797 6.39242 10 6C9.42034 5.60758 9.42034 5.60758 9.42033 5.6076C9.42031 5.60762 9.42029 5.60766 9.42025 5.60771C9.42019 5.6078 9.42008 5.60796 9.41994 5.60817C9.41966 5.60858 9.41923 5.60922 9.41865 5.61008C9.41749 5.61179 9.41575 5.61436 9.41343 5.61777C9.40881 5.6246 9.4019 5.63478 9.39287 5.64809C9.3748 5.67471 9.34822 5.71384 9.31429 5.76371C9.24641 5.86344 9.14916 6.00603 9.03186 6.17718C8.79711 6.51969 8.48267 6.97568 8.16292 7.43109C7.84221 7.88785 7.51996 8.33859 7.26843 8.67289C7.14151 8.84157 7.03966 8.97115 6.96828 9.05484C6.95106 9.07503 6.93727 9.09059 6.9267 9.10208C6.91562 9.11413 6.91101 9.11849 6.9119 9.11765C6.91255 9.11703 6.91644 9.11336 6.92318 9.10768C6.92943 9.10242 6.94236 9.09187 6.96098 9.07908C6.97778 9.06754 7.01209 9.04524 7.06049 9.02383C7.10264 9.00519 7.20062 8.96667 7.33333 8.96667V10.3667Z" fill="#0C0E13"/>
<rect x="2.03398" y="2.03325" width="11.9333" height="11.9333" rx="5.96667" stroke="#0C0E13" stroke-width="1.4"/>
</svg>
