<svg width="12" height="11" viewBox="0 0 12 11" fill="none" xmlns="http://www.w3.org/2000/svg">
<path d="M1.52611 6.26552C1.27109 5.97496 0.82881 5.94615 0.53825 6.20117C0.24769 6.45618 0.218877 6.89846 0.473895 7.18902L1.52611 6.26552ZM11.5763 1.39736C11.7957 1.07909 11.7156 0.643173 11.3974 0.423716C11.0791 0.204259 10.6432 0.284365 10.4237 0.602638L11.5763 1.39736ZM1 6.72727C0.473895 7.18902 0.473924 7.18906 0.473963 7.1891C0.473991 7.18913 0.474042 7.18919 0.474098 7.18925C0.474209 7.18938 0.474364 7.18956 0.474563 7.18978C0.474959 7.19024 0.475529 7.19088 0.47627 7.19173C0.477751 7.19341 0.479915 7.19587 0.482741 7.19908C0.488393 7.20551 0.496697 7.21494 0.507489 7.22717C0.529073 7.25163 0.56062 7.28731 0.600838 7.33261C0.681258 7.42321 0.796432 7.55236 0.936006 7.70724C1.21482 8.01663 1.59252 8.43041 1.98583 8.84525C2.37708 9.25792 2.79247 9.68088 3.14457 10.0042C3.31905 10.1644 3.49135 10.3126 3.64519 10.4249C3.72135 10.4804 3.80792 10.5382 3.89843 10.585C3.96793 10.621 4.13034 10.7 4.33333 10.7V9.3C4.41698 9.3 4.47685 9.31746 4.50061 9.32522C4.51487 9.32988 4.52526 9.33411 4.5313 9.33673C4.53745 9.3394 4.54092 9.34118 4.54145 9.34145C4.54202 9.34174 4.53598 9.33861 4.5225 9.32996C4.5094 9.32155 4.4921 9.30976 4.47034 9.29389C4.37886 9.22714 4.25114 9.11965 4.09151 8.97305C3.7754 8.68276 3.38627 8.28754 3.0018 7.88202C2.61939 7.47868 2.25019 7.07427 1.97602 6.77003C1.83911 6.6181 1.72627 6.49157 1.64781 6.40318C1.60858 6.35899 1.57797 6.32437 1.55725 6.30089C1.54689 6.28915 1.53901 6.2802 1.53377 6.27424C1.53114 6.27126 1.52918 6.26902 1.5279 6.26756C1.52726 6.26683 1.52678 6.26629 1.52648 6.26595C1.52633 6.26578 1.52623 6.26566 1.52616 6.26559C1.52613 6.26555 1.52612 6.26554 1.5261 6.26552C1.5261 6.26551 1.52611 6.26552 1 6.72727ZM4.33333 10.7C4.57691 10.7 4.75168 10.5766 4.7843 10.5546C4.85289 10.5084 4.91372 10.4554 4.96126 10.4112C5.05895 10.3202 5.16813 10.2018 5.28056 10.0724C5.5087 9.80977 5.79931 9.44461 6.12507 9.01954C6.77891 8.16635 7.60325 7.03376 8.4089 5.90719C9.21552 4.77926 10.0073 3.65192 10.5971 2.80693C10.8921 2.38433 11.1368 2.03213 11.3077 1.78551C11.3932 1.66219 11.4603 1.56526 11.506 1.4991C11.5289 1.46603 11.5464 1.44064 11.5582 1.4235C11.5642 1.41493 11.5687 1.40842 11.5717 1.40404C11.5732 1.40185 11.5743 1.4002 11.5751 1.39908C11.5755 1.39852 11.5758 1.3981 11.576 1.39781C11.5761 1.39767 11.5761 1.39756 11.5762 1.39748C11.5763 1.39741 11.5763 1.39736 11 1C10.4237 0.602638 10.4237 0.602662 10.4237 0.602721C10.4236 0.602786 10.4235 0.602879 10.4235 0.603009C10.4233 0.60327 10.423 0.603666 10.4226 0.604198C10.4219 0.605262 10.4208 0.606866 10.4193 0.609002C10.4164 0.613274 10.412 0.619674 10.4061 0.628133C10.3944 0.645051 10.3771 0.670205 10.3544 0.703046C10.309 0.768728 10.2423 0.865154 10.1571 0.987931C9.98693 1.23349 9.74316 1.58442 9.44917 2.00557C8.86104 2.84808 8.07257 3.97074 7.27013 5.09281C6.46674 6.21624 5.65322 7.33365 5.01385 8.16796C4.693 8.58664 4.42317 8.9246 4.2237 9.15419C4.12233 9.27088 4.05092 9.34585 4.00707 9.3867C3.98383 9.40834 3.98365 9.40594 4.00172 9.39376C4.01099 9.38751 4.0383 9.36963 4.08028 9.3514C4.11618 9.33581 4.20741 9.3 4.33333 9.3V10.7Z" fill="#F0F4F8"/>
</svg>
