<svg width="24" height="24" viewBox="0 0 24 24" fill="none" xmlns="http://www.w3.org/2000/svg">
<circle cx="12" cy="12" r="11.5" stroke="white"/>
<path d="M8.53028 12.2097C8.27791 11.9169 7.83591 11.884 7.54305 12.1364C7.25018 12.3888 7.21735 12.8308 7.46972 13.1236L8.53028 12.2097ZM16.5797 8.39242C16.7964 8.07229 16.7126 7.63707 16.3924 7.42034C16.0723 7.20361 15.6371 7.28744 15.4203 7.60758L16.5797 8.39242ZM8 12.6667C7.46972 13.1236 7.46975 13.1236 7.46978 13.1237C7.46981 13.1237 7.46985 13.1238 7.4699 13.1238C7.46999 13.1239 7.47012 13.1241 7.47028 13.1243C7.47061 13.1246 7.47107 13.1252 7.47168 13.1259C7.47288 13.1273 7.47463 13.1293 7.47691 13.1319C7.48147 13.1372 7.48815 13.145 7.49683 13.155C7.51417 13.175 7.5395 13.2042 7.57177 13.2412C7.63629 13.3152 7.72864 13.4207 7.84055 13.5472C8.06404 13.7998 8.367 14.1378 8.68268 14.4769C8.99631 14.8139 9.33113 15.1612 9.61627 15.4279C9.75725 15.5598 9.89946 15.6846 10.0287 15.7806C10.0925 15.828 10.1683 15.8798 10.2498 15.9227C10.3097 15.9543 10.4663 16.0333 10.6667 16.0333V14.6333C10.755 14.6333 10.8196 14.6522 10.8476 14.6615C10.8788 14.6719 10.8979 14.6818 10.9021 14.684C10.9094 14.6879 10.898 14.6824 10.8637 14.6569C10.7967 14.6071 10.6989 14.5236 10.5726 14.4054C10.3232 14.1721 10.0144 13.8528 9.70742 13.5231C9.40253 13.1955 9.10797 12.8669 8.88907 12.6195C8.77979 12.496 8.68974 12.3931 8.62715 12.3213C8.59586 12.2854 8.57146 12.2573 8.55497 12.2383C8.54672 12.2287 8.54046 12.2215 8.5363 12.2167C8.53422 12.2143 8.53267 12.2125 8.53166 12.2113C8.53115 12.2107 8.53079 12.2103 8.53055 12.21C8.53044 12.2099 8.53036 12.2098 8.53031 12.2098C8.53029 12.2097 8.53028 12.2097 8.53027 12.2097C8.53027 12.2097 8.53028 12.2097 8 12.6667ZM10.6667 16.0333C10.808 16.0333 10.9163 15.9921 10.9704 15.9682C11.0308 15.9415 11.0787 15.9113 11.1106 15.8894C11.1742 15.8457 11.2288 15.7971 11.2691 15.7588C11.3524 15.6798 11.4433 15.5791 11.5343 15.4725C11.7195 15.2554 11.9539 14.9553 12.2149 14.6084C12.7393 13.9114 13.3998 12.9871 14.0445 12.0689C14.6902 11.1493 15.3239 10.2303 15.7959 9.54157C16.032 9.1971 16.2278 8.91 16.3646 8.70895C16.4331 8.60842 16.4868 8.52939 16.5234 8.47544C16.5417 8.44847 16.5557 8.42777 16.5652 8.41378C16.5699 8.40679 16.5735 8.40147 16.576 8.3979C16.5772 8.39611 16.5781 8.39475 16.5787 8.39384C16.579 8.39338 16.5792 8.39303 16.5794 8.3928C16.5795 8.39268 16.5795 8.39259 16.5796 8.39253C16.5796 8.39246 16.5797 8.39242 16 8C15.4203 7.60758 15.4203 7.6076 15.4203 7.60764C15.4203 7.60769 15.4202 7.60777 15.4201 7.60787C15.42 7.60808 15.4198 7.6084 15.4195 7.60883C15.4189 7.6097 15.418 7.611 15.4168 7.61273C15.4145 7.61621 15.411 7.62141 15.4063 7.62829C15.397 7.64206 15.3831 7.66253 15.3649 7.68927C15.3287 7.74274 15.2753 7.82127 15.2073 7.92126C15.0712 8.12125 14.8762 8.40707 14.6411 8.7501C14.1708 9.43636 13.5403 10.3507 12.8987 11.2644C12.2562 12.1795 11.6064 13.0886 11.0962 13.7666C10.84 14.1072 10.626 14.38 10.4691 14.564C10.389 14.6579 10.3355 14.7147 10.3056 14.7431C10.2893 14.7586 10.2951 14.7511 10.3182 14.7352C10.3299 14.7272 10.3597 14.7075 10.4041 14.6878C10.4423 14.671 10.5368 14.6333 10.6667 14.6333V16.0333Z" fill="#F0F4F8"/>
</svg>
