<svg width="28" height="29" viewBox="0 0 28 29" fill="none" xmlns="http://www.w3.org/2000/svg">
<g filter="url(#filter0_bii)">
<path d="M13.227 2.32636C13.227 2.82649 13.6325 3.23193 14.1326 3.23193C14.9394 3.23193 15.3434 4.20735 14.7729 4.77782L13.0201 6.53069C12.8475 6.70325 12.7612 6.78953 12.6645 6.85699C12.5062 6.96738 12.3258 7.0421 12.1358 7.07597C12.0197 7.09667 11.8977 7.09667 11.6537 7.09667H6.96004C6.3362 7.09667 6.02428 7.09667 5.75238 7.22608C5.48048 7.3555 5.28379 7.59758 4.8904 8.08175L1.61467 12.1134C1.54626 12.1976 1.51206 12.2397 1.48588 12.2768C1.09044 12.8376 1.18515 13.6069 1.70479 14.055C1.73918 14.0847 1.78258 14.1172 1.86936 14.1823C1.95051 14.2432 1.99109 14.2736 2.02735 14.2973C2.57278 14.6535 3.29577 14.5634 3.73714 14.0843C3.76648 14.0524 3.79835 14.013 3.86209 13.934L6.24294 10.9863C6.63634 10.4993 6.83304 10.2557 7.10567 10.1255C7.3783 9.99522 7.69135 9.99522 8.31745 9.99522H12.8462C13.2483 9.99522 13.4493 9.99522 13.6361 9.93945C13.7234 9.91336 13.8078 9.87839 13.888 9.83509C14.0595 9.74249 14.2016 9.60034 14.4859 9.31605L16.8019 7.00005C17.408 6.39392 18.4444 6.8232 18.4444 7.6804C18.4444 8.21179 18.8752 8.64256 19.4066 8.64256H19.8937C20.0014 8.64256 20.0552 8.64256 20.1006 8.63945C20.7653 8.59399 21.2944 8.06489 21.3399 7.40022C21.343 7.35478 21.343 7.30095 21.343 7.19329V3.00004C21.343 1.74296 21.343 1.11442 20.9525 0.723898C20.5619 0.333374 19.9334 0.333374 18.6763 0.333374H14.6763C14.5686 0.333374 14.5148 0.333374 14.4694 0.336482C13.8047 0.381948 13.2756 0.911048 13.2301 1.57572C13.227 1.62116 13.227 1.67499 13.227 1.78265V2.32636Z" fill="#1D1D1D" fill-opacity="0.05"/>
<path d="M13.227 2.32636C13.227 2.82649 13.6325 3.23193 14.1326 3.23193C14.9394 3.23193 15.3434 4.20735 14.7729 4.77782L13.0201 6.53069C12.8475 6.70325 12.7612 6.78953 12.6645 6.85699C12.5062 6.96738 12.3258 7.0421 12.1358 7.07597C12.0197 7.09667 11.8977 7.09667 11.6537 7.09667H6.96004C6.3362 7.09667 6.02428 7.09667 5.75238 7.22608C5.48048 7.3555 5.28379 7.59758 4.8904 8.08175L1.61467 12.1134C1.54626 12.1976 1.51206 12.2397 1.48588 12.2768C1.09044 12.8376 1.18515 13.6069 1.70479 14.055C1.73918 14.0847 1.78258 14.1172 1.86936 14.1823C1.95051 14.2432 1.99109 14.2736 2.02735 14.2973C2.57278 14.6535 3.29577 14.5634 3.73714 14.0843C3.76648 14.0524 3.79835 14.013 3.86209 13.934L6.24294 10.9863C6.63634 10.4993 6.83304 10.2557 7.10567 10.1255C7.3783 9.99522 7.69135 9.99522 8.31745 9.99522H12.8462C13.2483 9.99522 13.4493 9.99522 13.6361 9.93945C13.7234 9.91336 13.8078 9.87839 13.888 9.83509C14.0595 9.74249 14.2016 9.60034 14.4859 9.31605L16.8019 7.00005C17.408 6.39392 18.4444 6.8232 18.4444 7.6804C18.4444 8.21179 18.8752 8.64256 19.4066 8.64256H19.8937C20.0014 8.64256 20.0552 8.64256 20.1006 8.63945C20.7653 8.59399 21.2944 8.06489 21.3399 7.40022C21.343 7.35478 21.343 7.30095 21.343 7.19329V3.00004C21.343 1.74296 21.343 1.11442 20.9525 0.723898C20.5619 0.333374 19.9334 0.333374 18.6763 0.333374H14.6763C14.5686 0.333374 14.5148 0.333374 14.4694 0.336482C13.8047 0.381948 13.2756 0.911048 13.2301 1.57572C13.227 1.62116 13.227 1.67499 13.227 1.78265V2.32636Z" fill="url(#paint0_linear)" fill-opacity="0.2"/>
<path d="M2.12456 14.1484L2.02735 14.2973L2.12456 14.1484C2.09434 14.1287 2.05939 14.1026 1.97603 14.0401C1.88687 13.9732 1.84953 13.9451 1.82088 13.9204L1.70479 14.055L1.82088 13.9204C1.37053 13.532 1.28845 12.8653 1.63117 12.3793C1.65297 12.3484 1.68237 12.312 1.75264 12.2255L5.02838 8.19386C5.43242 7.69658 5.60163 7.49472 5.82879 7.38661C6.05594 7.27849 6.31931 7.27444 6.96004 7.27444H11.6537L11.6717 7.27445C11.8986 7.27446 12.0353 7.27447 12.167 7.25099C12.3823 7.2126 12.5868 7.12792 12.7662 7.00281C12.8759 6.92627 12.9726 6.82959 13.133 6.66915L13.1458 6.6564L14.8986 4.90353C15.5811 4.22106 15.0977 3.05415 14.1326 3.05415C13.7306 3.05415 13.4048 2.72831 13.4048 2.32636V1.78265C13.4048 1.67205 13.4049 1.6257 13.4075 1.58785C13.4469 1.0118 13.9055 0.553249 14.4815 0.513846C14.5194 0.511256 14.5657 0.511152 14.6763 0.511152H18.6763C19.3099 0.511152 19.7672 0.511529 20.1157 0.558382C20.459 0.604547 20.67 0.692881 20.8267 0.849606C20.9835 1.00633 21.0718 1.21733 21.118 1.5607C21.1648 1.90919 21.1652 2.36648 21.1652 3.00004V7.19329C21.1652 7.30389 21.1651 7.35023 21.1625 7.38809C21.1231 7.96413 20.6645 8.42269 20.0885 8.46209C20.0506 8.46468 20.0043 8.46478 19.8937 8.46478H19.4066C18.9734 8.46478 18.6222 8.1136 18.6222 7.6804C18.6222 6.66482 17.3943 6.15622 16.6762 6.87434L14.3602 9.19034C14.0685 9.48207 13.9468 9.60128 13.8035 9.67866C13.734 9.71619 13.6609 9.7465 13.5852 9.76911C13.4291 9.81571 13.2588 9.81744 12.8462 9.81744H8.31745C8.30178 9.81744 8.28628 9.81744 8.27094 9.81744C7.68974 9.81734 7.33837 9.81728 7.02904 9.96506C6.71971 10.1128 6.49897 10.3862 6.13387 10.8384C6.12423 10.8504 6.11449 10.8624 6.10464 10.8746L3.72378 13.8223C3.65831 13.9034 3.63083 13.9373 3.60638 13.9638C3.22386 14.3791 2.59727 14.4572 2.12456 14.1484Z" stroke="url(#paint1_linear)" stroke-opacity="0.1" stroke-width="0.355556"/>
</g>
<g filter="url(#filter1_bi)">
<path d="M12.6665 14.2466H10.8888C10.2602 14.2466 9.94594 14.2466 9.75068 14.4418C9.55542 14.6371 9.55542 14.9514 9.55542 15.5799V27.2128C9.55542 27.8413 9.55542 28.1556 9.75068 28.3509C9.94594 28.5461 10.2602 28.5461 10.8888 28.5461H12.6665C13.2951 28.5461 13.6093 28.5461 13.8046 28.3509C13.9999 28.1556 13.9999 27.8413 13.9999 27.2128V15.5799C13.9999 14.9514 13.9999 14.6371 13.8046 14.4418C13.6093 14.2466 13.2951 14.2466 12.6665 14.2466Z" fill="#F1F1F1" fill-opacity="0.1"/>
<path d="M12.6665 14.2466H10.8888C10.2602 14.2466 9.94594 14.2466 9.75068 14.4418C9.55542 14.6371 9.55542 14.9514 9.55542 15.5799V27.2128C9.55542 27.8413 9.55542 28.1556 9.75068 28.3509C9.94594 28.5461 10.2602 28.5461 10.8888 28.5461H12.6665C13.2951 28.5461 13.6093 28.5461 13.8046 28.3509C13.9999 28.1556 13.9999 27.8413 13.9999 27.2128V15.5799C13.9999 14.9514 13.9999 14.6371 13.8046 14.4418C13.6093 14.2466 13.2951 14.2466 12.6665 14.2466Z" fill="url(#paint2_linear)"/>
<path d="M10.8888 14.3799H12.6665C12.9846 14.3799 13.2097 14.3802 13.3803 14.4031C13.547 14.4256 13.6416 14.4674 13.7103 14.5361C13.7791 14.6049 13.8209 14.6994 13.8433 14.8662C13.8663 15.0368 13.8665 15.2619 13.8665 15.5799V27.2128C13.8665 27.5308 13.8663 27.7559 13.8433 27.9265C13.8209 28.0933 13.7791 28.1878 13.7103 28.2566C13.6416 28.3253 13.547 28.3671 13.3803 28.3896C13.2097 28.4125 12.9846 28.4128 12.6665 28.4128H10.8888C10.5707 28.4128 10.3456 28.4125 10.175 28.3896C10.0082 28.3671 9.91369 28.3253 9.84496 28.2566C9.77623 28.1878 9.73439 28.0933 9.71197 27.9265C9.68904 27.7559 9.68875 27.5308 9.68875 27.2128V15.5799C9.68875 15.2619 9.68904 15.0368 9.71197 14.8662C9.73439 14.6994 9.77623 14.6049 9.84496 14.5361C9.91369 14.4674 10.0082 14.4256 10.175 14.4031C10.3456 14.3802 10.5707 14.3799 10.8888 14.3799Z" stroke="url(#paint3_linear)" stroke-opacity="0.1" stroke-width="0.266667"/>
</g>
<g filter="url(#filter2_bi)">
<path d="M5.71024 19.2706H3.93245C3.30392 19.2706 2.98965 19.2706 2.79438 19.4659C2.59912 19.6612 2.59912 19.9754 2.59912 20.604V27.4059C2.59912 28.0344 2.59912 28.3487 2.79438 28.544C2.98965 28.7392 3.30392 28.7392 3.93245 28.7392H5.71024C6.33878 28.7392 6.65305 28.7392 6.84831 28.544C7.04357 28.3487 7.04357 28.0344 7.04357 27.4059V20.604C7.04357 19.9754 7.04357 19.6612 6.84831 19.4659C6.65305 19.2706 6.33878 19.2706 5.71024 19.2706Z" fill="#F1F1F1" fill-opacity="0.1"/>
<path d="M5.71024 19.2706H3.93245C3.30392 19.2706 2.98965 19.2706 2.79438 19.4659C2.59912 19.6612 2.59912 19.9754 2.59912 20.604V27.4059C2.59912 28.0344 2.59912 28.3487 2.79438 28.544C2.98965 28.7392 3.30392 28.7392 3.93245 28.7392H5.71024C6.33878 28.7392 6.65305 28.7392 6.84831 28.544C7.04357 28.3487 7.04357 28.0344 7.04357 27.4059V20.604C7.04357 19.9754 7.04357 19.6612 6.84831 19.4659C6.65305 19.2706 6.33878 19.2706 5.71024 19.2706Z" fill="url(#paint4_linear)"/>
<path d="M3.93245 19.404H5.71024C6.02828 19.404 6.25339 19.4042 6.42399 19.4272C6.59074 19.4496 6.6853 19.4914 6.75403 19.5602C6.82276 19.6289 6.8646 19.7235 6.88702 19.8902C6.90995 20.0608 6.91024 20.2859 6.91024 20.604V27.4059C6.91024 27.7239 6.90995 27.9491 6.88702 28.1197C6.8646 28.2864 6.82276 28.381 6.75403 28.4497C6.6853 28.5184 6.59074 28.5603 6.42399 28.5827C6.25339 28.6056 6.02828 28.6059 5.71024 28.6059H3.93245C3.61442 28.6059 3.3893 28.6056 3.21871 28.5827C3.05195 28.5603 2.95739 28.5184 2.88866 28.4497C2.81994 28.381 2.77809 28.2864 2.75567 28.1197C2.73274 27.9491 2.73245 27.7239 2.73245 27.4059V20.604C2.73245 20.2859 2.73274 20.0608 2.75567 19.8902C2.77809 19.7235 2.81994 19.6289 2.88866 19.5602C2.95739 19.4914 3.05195 19.4496 3.21871 19.4272C3.3893 19.4042 3.61442 19.404 3.93245 19.404Z" stroke="url(#paint5_linear)" stroke-opacity="0.1" stroke-width="0.266667"/>
</g>
<g filter="url(#filter3_bi)">
<path d="M19.4302 10.7683H17.6524C17.0239 10.7683 16.7096 10.7683 16.5144 10.9636C16.3191 11.1588 16.3191 11.4731 16.3191 12.1016V27.2128C16.3191 27.8413 16.3191 28.1556 16.5144 28.3508C16.7096 28.5461 17.0239 28.5461 17.6524 28.5461H19.4302C20.0587 28.5461 20.373 28.5461 20.5683 28.3508C20.7635 28.1556 20.7635 27.8413 20.7635 27.2128V12.1016C20.7635 11.4731 20.7635 11.1588 20.5683 10.9636C20.373 10.7683 20.0587 10.7683 19.4302 10.7683Z" fill="#F1F1F1" fill-opacity="0.1"/>
<path d="M19.4302 10.7683H17.6524C17.0239 10.7683 16.7096 10.7683 16.5144 10.9636C16.3191 11.1588 16.3191 11.4731 16.3191 12.1016V27.2128C16.3191 27.8413 16.3191 28.1556 16.5144 28.3508C16.7096 28.5461 17.0239 28.5461 17.6524 28.5461H19.4302C20.0587 28.5461 20.373 28.5461 20.5683 28.3508C20.7635 28.1556 20.7635 27.8413 20.7635 27.2128V12.1016C20.7635 11.4731 20.7635 11.1588 20.5683 10.9636C20.373 10.7683 20.0587 10.7683 19.4302 10.7683Z" fill="url(#paint6_linear)"/>
<path d="M17.6524 10.9016H19.4302C19.7482 10.9016 19.9734 10.9019 20.144 10.9249C20.3107 10.9473 20.4053 10.9891 20.474 11.0579C20.5427 11.1266 20.5846 11.2211 20.607 11.3879C20.6299 11.5585 20.6302 11.7836 20.6302 12.1016V27.2128C20.6302 27.5308 20.6299 27.7559 20.607 27.9265C20.5846 28.0933 20.5427 28.1878 20.474 28.2566C20.4053 28.3253 20.3107 28.3671 20.144 28.3896C19.9734 28.4125 19.7482 28.4128 19.4302 28.4128H17.6524C17.3344 28.4128 17.1093 28.4125 16.9387 28.3896C16.7719 28.3671 16.6774 28.3253 16.6086 28.2566C16.5399 28.1878 16.4981 28.0933 16.4756 27.9265C16.4527 27.7559 16.4524 27.5308 16.4524 27.2128V12.1016C16.4524 11.7836 16.4527 11.5585 16.4756 11.3879C16.4981 11.2211 16.5399 11.1266 16.6086 11.0579C16.6774 10.9891 16.7719 10.9473 16.9387 10.9249C17.1093 10.9019 17.3344 10.9016 17.6524 10.9016Z" stroke="url(#paint7_linear)" stroke-opacity="0.1" stroke-width="0.266667"/>
</g>
<g filter="url(#filter4_bi)">
<path d="M25.9999 3.61865H24.2221C23.5936 3.61865 23.2793 3.61865 23.0841 3.81391C22.8888 4.00918 22.8888 4.32345 22.8888 4.95199V27.2129C22.8888 27.8414 22.8888 28.1557 23.0841 28.351C23.2793 28.5462 23.5936 28.5462 24.2221 28.5462H25.9999C26.6285 28.5462 26.9427 28.5462 27.138 28.351C27.3332 28.1557 27.3332 27.8414 27.3332 27.2129V4.95199C27.3332 4.32345 27.3332 4.00918 27.138 3.81391C26.9427 3.61865 26.6285 3.61865 25.9999 3.61865Z" fill="#F1F1F1" fill-opacity="0.1"/>
<path d="M25.9999 3.61865H24.2221C23.5936 3.61865 23.2793 3.61865 23.0841 3.81391C22.8888 4.00918 22.8888 4.32345 22.8888 4.95199V27.2129C22.8888 27.8414 22.8888 28.1557 23.0841 28.351C23.2793 28.5462 23.5936 28.5462 24.2221 28.5462H25.9999C26.6285 28.5462 26.9427 28.5462 27.138 28.351C27.3332 28.1557 27.3332 27.8414 27.3332 27.2129V4.95199C27.3332 4.32345 27.3332 4.00918 27.138 3.81391C26.9427 3.61865 26.6285 3.61865 25.9999 3.61865Z" fill="url(#paint8_linear)"/>
<path d="M24.2221 3.75199H25.9999C26.318 3.75199 26.5431 3.75227 26.7137 3.7752C26.8804 3.79762 26.975 3.83947 27.0437 3.9082C27.1124 3.97692 27.1543 4.07148 27.1767 4.23824C27.1996 4.40883 27.1999 4.63395 27.1999 4.95199V27.2129C27.1999 27.5309 27.1996 27.756 27.1767 27.9266C27.1543 28.0934 27.1124 28.1879 27.0437 28.2567C26.975 28.3254 26.8804 28.3672 26.7137 28.3897C26.5431 28.4126 26.318 28.4129 25.9999 28.4129H24.2221C23.9041 28.4129 23.679 28.4126 23.5084 28.3897C23.3416 28.3672 23.2471 28.3254 23.1783 28.2567C23.1096 28.1879 23.0678 28.0934 23.0453 27.9266C23.0224 27.756 23.0221 27.5309 23.0221 27.2129V4.95199C23.0221 4.63395 23.0224 4.40883 23.0453 4.23824C23.0678 4.07148 23.1096 3.97692 23.1783 3.9082C23.2471 3.83947 23.3416 3.79762 23.5084 3.7752C23.679 3.75227 23.9041 3.75199 24.2221 3.75199Z" stroke="url(#paint9_linear)" stroke-opacity="0.1" stroke-width="0.266667"/>
</g>
<defs>
<filter id="filter0_bii" x="-4.09115" y="-4.99996" width="30.7675" height="24.8476" filterUnits="userSpaceOnUse" color-interpolation-filters="sRGB">
<feFlood flood-opacity="0" result="BackgroundImageFix"/>
<feGaussianBlur in="BackgroundImageFix" stdDeviation="2.66667"/>
<feComposite in2="SourceAlpha" operator="in" result="effect1_backgroundBlur"/>
<feBlend mode="normal" in="SourceGraphic" in2="effect1_backgroundBlur" result="shape"/>
<feColorMatrix in="SourceAlpha" type="matrix" values="0 0 0 0 0 0 0 0 0 0 0 0 0 0 0 0 0 0 127 0" result="hardAlpha"/>
<feOffset dy="0.888889"/>
<feGaussianBlur stdDeviation="1.77778"/>
<feComposite in2="hardAlpha" operator="arithmetic" k2="-1" k3="1"/>
<feColorMatrix type="matrix" values="0 0 0 0 1 0 0 0 0 1 0 0 0 0 1 0 0 0 0.15 0"/>
<feBlend mode="normal" in2="shape" result="effect2_innerShadow"/>
<feColorMatrix in="SourceAlpha" type="matrix" values="0 0 0 0 0 0 0 0 0 0 0 0 0 0 0 0 0 0 127 0" result="hardAlpha"/>
<feOffset dy="-5.33333"/>
<feGaussianBlur stdDeviation="4"/>
<feComposite in2="hardAlpha" operator="arithmetic" k2="-1" k3="1"/>
<feColorMatrix type="matrix" values="0 0 0 0 1 0 0 0 0 1 0 0 0 0 1 0 0 0 0.15 0"/>
<feBlend mode="normal" in2="effect2_innerShadow" result="effect3_innerShadow"/>
</filter>
<filter id="filter1_bi" x="6.55542" y="11.2466" width="10.4444" height="20.2995" filterUnits="userSpaceOnUse" color-interpolation-filters="sRGB">
<feFlood flood-opacity="0" result="BackgroundImageFix"/>
<feGaussianBlur in="BackgroundImageFix" stdDeviation="1.5"/>
<feComposite in2="SourceAlpha" operator="in" result="effect1_backgroundBlur"/>
<feBlend mode="normal" in="SourceGraphic" in2="effect1_backgroundBlur" result="shape"/>
<feColorMatrix in="SourceAlpha" type="matrix" values="0 0 0 0 0 0 0 0 0 0 0 0 0 0 0 0 0 0 127 0" result="hardAlpha"/>
<feOffset dy="0.5"/>
<feGaussianBlur stdDeviation="1"/>
<feComposite in2="hardAlpha" operator="arithmetic" k2="-1" k3="1"/>
<feColorMatrix type="matrix" values="0 0 0 0 1 0 0 0 0 1 0 0 0 0 1 0 0 0 0.15 0"/>
<feBlend mode="normal" in2="shape" result="effect2_innerShadow"/>
</filter>
<filter id="filter2_bi" x="-0.400879" y="16.2706" width="10.4444" height="15.4686" filterUnits="userSpaceOnUse" color-interpolation-filters="sRGB">
<feFlood flood-opacity="0" result="BackgroundImageFix"/>
<feGaussianBlur in="BackgroundImageFix" stdDeviation="1.5"/>
<feComposite in2="SourceAlpha" operator="in" result="effect1_backgroundBlur"/>
<feBlend mode="normal" in="SourceGraphic" in2="effect1_backgroundBlur" result="shape"/>
<feColorMatrix in="SourceAlpha" type="matrix" values="0 0 0 0 0 0 0 0 0 0 0 0 0 0 0 0 0 0 127 0" result="hardAlpha"/>
<feOffset dy="0.5"/>
<feGaussianBlur stdDeviation="1"/>
<feComposite in2="hardAlpha" operator="arithmetic" k2="-1" k3="1"/>
<feColorMatrix type="matrix" values="0 0 0 0 1 0 0 0 0 1 0 0 0 0 1 0 0 0 0.15 0"/>
<feBlend mode="normal" in2="shape" result="effect2_innerShadow"/>
</filter>
<filter id="filter3_bi" x="13.3191" y="7.76831" width="10.4444" height="23.7778" filterUnits="userSpaceOnUse" color-interpolation-filters="sRGB">
<feFlood flood-opacity="0" result="BackgroundImageFix"/>
<feGaussianBlur in="BackgroundImageFix" stdDeviation="1.5"/>
<feComposite in2="SourceAlpha" operator="in" result="effect1_backgroundBlur"/>
<feBlend mode="normal" in="SourceGraphic" in2="effect1_backgroundBlur" result="shape"/>
<feColorMatrix in="SourceAlpha" type="matrix" values="0 0 0 0 0 0 0 0 0 0 0 0 0 0 0 0 0 0 127 0" result="hardAlpha"/>
<feOffset dy="0.5"/>
<feGaussianBlur stdDeviation="1"/>
<feComposite in2="hardAlpha" operator="arithmetic" k2="-1" k3="1"/>
<feColorMatrix type="matrix" values="0 0 0 0 1 0 0 0 0 1 0 0 0 0 1 0 0 0 0.15 0"/>
<feBlend mode="normal" in2="shape" result="effect2_innerShadow"/>
</filter>
<filter id="filter4_bi" x="19.8888" y="0.618652" width="10.4445" height="30.9276" filterUnits="userSpaceOnUse" color-interpolation-filters="sRGB">
<feFlood flood-opacity="0" result="BackgroundImageFix"/>
<feGaussianBlur in="BackgroundImageFix" stdDeviation="1.5"/>
<feComposite in2="SourceAlpha" operator="in" result="effect1_backgroundBlur"/>
<feBlend mode="normal" in="SourceGraphic" in2="effect1_backgroundBlur" result="shape"/>
<feColorMatrix in="SourceAlpha" type="matrix" values="0 0 0 0 0 0 0 0 0 0 0 0 0 0 0 0 0 0 127 0" result="hardAlpha"/>
<feOffset dy="0.5"/>
<feGaussianBlur stdDeviation="1"/>
<feComposite in2="hardAlpha" operator="arithmetic" k2="-1" k3="1"/>
<feColorMatrix type="matrix" values="0 0 0 0 1 0 0 0 0 1 0 0 0 0 1 0 0 0 0.15 0"/>
<feBlend mode="normal" in2="shape" result="effect2_innerShadow"/>
</filter>
<linearGradient id="paint0_linear" x1="0.666626" y1="0.333374" x2="23.6552" y2="8.55156" gradientUnits="userSpaceOnUse">
<stop stop-color="white"/>
<stop offset="1" stop-color="#4470FF"/>
</linearGradient>
<linearGradient id="paint1_linear" x1="1.31276" y1="1.00092" x2="21.343" y2="1.00092" gradientUnits="userSpaceOnUse">
<stop stop-color="#FFC282"/>
<stop offset="1" stop-color="#FF4980"/>
</linearGradient>
<linearGradient id="paint2_linear" x1="9.55542" y1="14.2466" x2="15.0939" y2="14.6837" gradientUnits="userSpaceOnUse">
<stop stop-color="#62BDFF"/>
<stop offset="1" stop-color="#3864FF"/>
</linearGradient>
<linearGradient id="paint3_linear" x1="9.69431" y1="14.8966" x2="13.9999" y2="14.8966" gradientUnits="userSpaceOnUse">
<stop stop-color="#7EE5FF"/>
<stop offset="1" stop-color="#41A9FF"/>
</linearGradient>
<linearGradient id="paint4_linear" x1="2.59912" y1="19.2706" x2="8.09404" y2="19.9255" gradientUnits="userSpaceOnUse">
<stop stop-color="#62BDFF"/>
<stop offset="1" stop-color="#3864FF"/>
</linearGradient>
<linearGradient id="paint5_linear" x1="2.73801" y1="19.701" x2="7.04357" y2="19.701" gradientUnits="userSpaceOnUse">
<stop stop-color="#7EE5FF"/>
<stop offset="1" stop-color="#41A9FF"/>
</linearGradient>
<linearGradient id="paint6_linear" x1="16.3191" y1="10.7683" x2="21.8697" y2="11.1207" gradientUnits="userSpaceOnUse">
<stop stop-color="#62BDFF"/>
<stop offset="1" stop-color="#3864FF"/>
</linearGradient>
<linearGradient id="paint7_linear" x1="16.458" y1="11.5764" x2="20.7635" y2="11.5764" gradientUnits="userSpaceOnUse">
<stop stop-color="#7EE5FF"/>
<stop offset="1" stop-color="#41A9FF"/>
</linearGradient>
<linearGradient id="paint8_linear" x1="22.8888" y1="3.61865" x2="28.4504" y2="3.87044" gradientUnits="userSpaceOnUse">
<stop stop-color="#62BDFF"/>
<stop offset="1" stop-color="#3864FF"/>
</linearGradient>
<linearGradient id="paint9_linear" x1="23.0277" y1="4.75172" x2="27.3332" y2="4.75172" gradientUnits="userSpaceOnUse">
<stop stop-color="#7EE5FF"/>
<stop offset="1" stop-color="#41A9FF"/>
</linearGradient>
</defs>
</svg>
