<svg width="128" height="54" viewBox="0 0 128 54" fill="none" xmlns="http://www.w3.org/2000/svg">
<path d="M15 30.0557L15 21.7223" stroke="#F0F4F8" stroke-width="1.4" stroke-linecap="round"/>
<line x1="15" y1="21.1819" x2="12.5152" y2="23.6667" stroke="#F0F4F8" stroke-width="1.2" stroke-linecap="round"/>
<line x1="0.6" y1="-0.6" x2="4.11404" y2="-0.6" transform="matrix(0.707107 0.707107 0.707107 -0.707107 15 20.3334)" stroke="#F0F4F8" stroke-width="1.2" stroke-linecap="round"/>
<path d="M8.2 27.4167C8.2 27.0301 7.8866 26.7167 7.5 26.7167C7.1134 26.7167 6.8 27.0301 6.8 27.4167H8.2ZM23.2 27.4167C23.2 27.0301 22.8866 26.7167 22.5 26.7167C22.1134 26.7167 21.8 27.0301 21.8 27.4167H23.2ZM19.8575 33.3883L19.7932 32.6912L19.8575 33.3883ZM21.8 27.4167C21.8 27.4189 21.8 27.421 21.8 27.4232C21.8 27.4253 21.8 27.4275 21.8 27.4296C21.8 27.4318 21.8 27.4339 21.8 27.436C21.8 27.4382 21.8 27.4403 21.8 27.4425C21.8 27.4446 21.8 27.4468 21.8 27.4489C21.8 27.4511 21.8 27.4532 21.8 27.4553C21.8 27.4575 21.8 27.4596 21.8 27.4618C21.8 27.4639 21.8 27.4661 21.8 27.4682C21.8 27.4703 21.8 27.4725 21.8 27.4746C21.8 27.4768 21.8 27.4789 21.8 27.481C21.8 27.4832 21.8 27.4853 21.8 27.4875C21.8 27.4896 21.8 27.4918 21.8 27.4939C21.8 27.496 21.8 27.4982 21.8 27.5003C21.8 27.5025 21.8 27.5046 21.8 27.5067C21.8 27.5089 21.8 27.511 21.8 27.5131C21.8 27.5153 21.8 27.5174 21.8 27.5196C21.8 27.5217 21.8 27.5238 21.8 27.526C21.8 27.5281 21.8 27.5303 21.8 27.5324C21.8 27.5345 21.8 27.5367 21.8 27.5388C21.8 27.5409 21.8 27.5431 21.8 27.5452C21.8 27.5474 21.8 27.5495 21.8 27.5516C21.8 27.5538 21.8 27.5559 21.8 27.558C21.8 27.5602 21.8 27.5623 21.8 27.5645C21.8 27.5666 21.8 27.5687 21.8 27.5709C21.8 27.573 21.8 27.5751 21.8 27.5773C21.8 27.5794 21.8 27.5815 21.8 27.5837C21.8 27.5858 21.8 27.5879 21.8 27.5901C21.8 27.5922 21.8 27.5943 21.8 27.5965C21.8 27.5986 21.8 27.6007 21.8 27.6029C21.8 27.605 21.8 27.6071 21.8 27.6093C21.8 27.6114 21.8 27.6135 21.8 27.6157C21.8 27.6178 21.8 27.6199 21.8 27.6221C21.8 27.6242 21.8 27.6263 21.8 27.6285C21.8 27.6306 21.8 27.6327 21.8 27.6349C21.8 27.637 21.8 27.6391 21.8 27.6413C21.8 27.6434 21.8 27.6455 21.8 27.6476C21.8 27.6498 21.8 27.6519 21.8 27.654C21.8 27.6562 21.8 27.6583 21.8 27.6604C21.8 27.6626 21.8 27.6647 21.8 27.6668C21.8 27.6689 21.8 27.6711 21.8 27.6732C21.8 27.6753 21.8 27.6775 21.8 27.6796C21.8 27.6817 21.8 27.6838 21.8 27.686C21.8 27.6881 21.8 27.6902 21.8 27.6924C21.8 27.6945 21.8 27.6966 21.8 27.6987C21.8 27.7009 21.8 27.703 21.8 27.7051C21.8 27.7072 21.8 27.7094 21.8 27.7115C21.8 27.7136 21.8 27.7157 21.8 27.7179C21.8 27.72 21.8 27.7221 21.8 27.7242C21.8 27.7264 21.8 27.7285 21.8 27.7306C21.8 27.7327 21.8 27.7349 21.8 27.737C21.8 27.7391 21.8 27.7412 21.8 27.7434C21.8 27.7455 21.8 27.7476 21.8 27.7497C21.8 27.7519 21.8 27.754 21.8 27.7561C21.8 27.7582 21.8 27.7604 21.8 27.7625C21.8 27.7646 21.8 27.7667 21.8 27.7688C21.8 27.771 21.8 27.7731 21.8 27.7752C21.8 27.7773 21.8 27.7794 21.8 27.7816C21.8 27.7837 21.8 27.7858 21.8 27.7879C21.8 27.7901 21.8 27.7922 21.8 27.7943C21.8 27.7964 21.8 27.7985 21.8 27.8007C21.8 27.8028 21.8 27.8049 21.8 27.807C21.8 27.8091 21.8 27.8112 21.8 27.8134C21.8 27.8155 21.8 27.8176 21.8 27.8197C21.8 27.8218 21.8 27.824 21.8 27.8261C21.8 27.8282 21.8 27.8303 21.8 27.8324C21.8 27.8345 21.8 27.8367 21.8 27.8388C21.8 27.8409 21.8 27.843 21.8 27.8451C21.8 27.8472 21.8 27.8494 21.8 27.8515C21.8 27.8536 21.8 27.8557 21.8 27.8578C21.8 27.8599 21.8 27.8621 21.8 27.8642C21.8 27.8663 21.8 27.8684 21.8 27.8705C21.8 27.8726 21.8 27.8747 21.8 27.8768C21.8 27.879 21.8 27.8811 21.8 27.8832C21.8 27.8853 21.8 27.8874 21.8 27.8895C21.8 27.8916 21.8 27.8938 21.8 27.8959C21.8 27.898 21.8 27.9001 21.8 27.9022C21.8 27.9043 21.8 27.9064 21.8 27.9085C21.8 27.9106 21.8 27.9128 21.8 27.9149C21.8 27.917 21.8 27.9191 21.8 27.9212C21.8 27.9233 21.8 27.9254 21.8 27.9275C21.8 27.9296 21.8 27.9317 21.8 27.9339C21.8 27.936 21.8 27.9381 21.8 27.9402C21.8 27.9423 21.8 27.9444 21.8 27.9465C21.8 27.9486 21.8 27.9507 21.8 27.9528C21.8 27.9549 21.8 27.957 21.8 27.9592C21.8 27.9613 21.8 27.9634 21.8 27.9655C21.8 27.9676 21.8 27.9697 21.8 27.9718C21.8 27.9739 21.8 27.976 21.8 27.9781C21.8 27.9802 21.8 27.9823 21.8 27.9844C21.8 27.9865 21.8 27.9886 21.8 27.9907C21.8 27.9928 21.8 27.995 21.8 27.9971C21.8 27.9992 21.8 28.0013 21.8 28.0034C21.8 28.0055 21.8 28.0076 21.8 28.0097C21.8 28.0118 21.8 28.0139 21.8 28.016C21.8 28.0181 21.8 28.0202 21.8 28.0223C21.8 28.0244 21.8 28.0265 21.8 28.0286C21.8 28.0307 21.8 28.0328 21.8 28.0349C21.8 28.037 21.8 28.0391 21.8 28.0412C21.8 28.0433 21.8 28.0454 21.8 28.0475C21.8 28.0496 21.8 28.0517 21.8 28.0538C21.8 28.0559 21.8 28.058 21.8 28.0601C21.8 28.0622 21.8 28.0643 21.8 28.0664C21.8 28.0685 21.8 28.0706 21.8 28.0727C21.8 28.0748 21.8 28.0769 21.8 28.079C21.8 28.0811 21.8 28.0832 21.8 28.0853C21.8 28.0874 21.8 28.0895 21.8 28.0916C21.8 28.0936 21.8 28.0957 21.8 28.0978C21.8 28.0999 21.8 28.102 21.8 28.1041C21.8 28.1062 21.8 28.1083 21.8 28.1104C21.8 28.1125 21.8 28.1146 21.8 28.1167C21.8 28.1188 21.8 28.1209 21.8 28.123C21.8 28.1251 21.8 28.1272 21.8 28.1293C21.8 28.1313 21.8 28.1334 21.8 28.1355C21.8 28.1376 21.8 28.1397 21.8 28.1418C21.8 28.1439 21.8 28.146 21.8 28.1481C21.8 28.1502 21.8 28.1523 21.8 28.1543C21.8 28.1564 21.8 28.1585 21.8 28.1606C21.8 28.1627 21.8 28.1648 21.8 28.1669C21.8 28.169 21.8 28.1711 21.8 28.1732C21.8 28.1752 21.8 28.1773 21.8 28.1794C21.8 28.1815 21.8 28.1836 21.8 28.1857C21.8 28.1878 21.8 28.1899 21.8 28.1919C21.8 28.194 21.8 28.1961 21.8 28.1982C21.8 28.2003 21.8 28.2024 21.8 28.2045C21.8 28.2065 21.8 28.2086 21.8 28.2107C21.8 28.2128 21.8 28.2149 21.8 28.217C21.8 28.2191 21.8 28.2211 21.8 28.2232C21.8 28.2253 21.8 28.2274 21.8 28.2295C21.8 28.2316 21.8 28.2336 21.8 28.2357C21.8 28.2378 21.8 28.2399 21.8 28.242C21.8 28.2441 21.8 28.2461 21.8 28.2482C21.8 28.2503 21.8 28.2524 21.8 28.2545C21.8 28.2565 21.8 28.2586 21.8 28.2607C21.8 28.2628 21.8 28.2649 21.8 28.2669C21.8 28.269 21.8 28.2711 21.8 28.2732C21.8 28.2753 21.8 28.2773 21.8 28.2794C21.8 28.2815 21.8 28.2836 21.8 28.2857C21.8 28.2877 21.8 28.2898 21.8 28.2919C21.8 28.294 21.8 28.296 21.8 28.2981C21.8 28.3002 21.8 28.3023 21.8 28.3044C21.8 28.3064 21.8 28.3085 21.8 28.3106C21.8 28.3127 21.8 28.3147 21.8 28.3168C21.8 28.3189 21.8 28.321 21.8 28.323C21.8 28.3251 21.8 28.3272 21.8 28.3293C21.8 28.3313 21.8 28.3334 21.8 28.3355C21.8 28.3375 21.8 28.3396 21.8 28.3417C21.8 28.3438 21.8 28.3458 21.8 28.3479C21.8 28.35 21.8 28.3521 21.8 28.3541C21.8 28.3562 21.8 28.3583 21.8 28.3603C21.8 28.3624 21.8 28.3645 21.8 28.3666C21.8 28.3686 21.8 28.3707 21.8 28.3728C21.8 28.3748 21.8 28.3769 21.8 28.379C21.8 28.381 21.8 28.3831 21.8 28.3852C21.8 28.3872 21.8 28.3893 21.8 28.3914C21.8 28.3934 21.8 28.3955 21.8 28.3976C21.8 28.3996 21.8 28.4017 21.8 28.4038C21.8 28.4058 21.8 28.4079 21.8 28.41C21.8 28.412 21.8 28.4141 21.8 28.4162C21.8 28.4182 21.8 28.4203 21.8 28.4224C21.8 28.4244 21.8 28.4265 21.8 28.4286C21.8 28.4306 21.8 28.4327 21.8 28.4348C21.8 28.4368 21.8 28.4389 21.8 28.4409C21.8 28.443 21.8 28.4451 21.8 28.4471C21.8 28.4492 21.8 28.4513 21.8 28.4533C21.8 28.4554 21.8 28.4574 21.8 28.4595C21.8 28.4616 21.8 28.4636 21.8 28.4657C21.8 28.4677 21.8 28.4698 21.8 28.4719C21.8 28.4739 21.8 28.476 21.8 28.478C21.8 28.4801 21.8 28.4822 21.8 28.4842C21.8 28.4863 21.8 28.4883 21.8 28.4904C21.8 28.4924 21.8 28.4945 21.8 28.4966C21.8 28.4986 21.8 28.5007 21.8 28.5027C21.8 28.5048 21.8 28.5068 21.8 28.5089C21.8 28.5109 21.8 28.513 21.8 28.5151C21.8 28.5171 21.8 28.5192 21.8 28.5212C21.8 28.5233 21.8 28.5253 21.8 28.5274C21.8 28.5294 21.8 28.5315 21.8 28.5335C21.8 28.5356 21.8 28.5376 21.8 28.5397C21.8 28.5418 21.8 28.5438 21.8 28.5459C21.8 28.5479 21.8 28.55 21.8 28.552C21.8 28.5541 21.8 28.5561 21.8 28.5582C21.8 28.5602 21.8 28.5623 21.8 28.5643C21.8 28.5664 21.8 28.5684 21.8 28.5705C21.8 28.5725 21.8 28.5746 21.8 28.5766C21.8 28.5787 21.8 28.5807 21.8 28.5827C21.8 28.5848 21.8 28.5868 21.8 28.5889C21.8 28.5909 21.8 28.593 21.8 28.595C21.8 28.5971 21.8 28.5991 21.8 28.6012C21.8 28.6032 21.8 28.6053 21.8 28.6073C21.8 28.6093 21.8 28.6114 21.8 28.6134C21.8 28.6155 21.8 28.6175 21.8 28.6196C21.8 28.6216 21.8 28.6237 21.8 28.6257C21.8 28.6277 21.8 28.6298 21.8 28.6318C21.8 28.6339 21.8 28.6359 21.8 28.6379C21.8 28.64 21.8 28.642 21.8 28.6441C21.8 28.6461 21.8 28.6481 21.8 28.6502C21.8 28.6522 21.8 28.6543 21.8 28.6563C21.8 28.6583 21.8 28.6604 21.8 28.6624C21.8 28.6645 21.8 28.6665 21.8 28.6685C21.8 28.6706 21.8 28.6726 21.8 28.6747C21.8 28.6767 21.8 28.6787 21.8 28.6808C21.8 28.6828 21.8 28.6848 21.8 28.6869C21.8 28.6889 21.8 28.6909 21.8 28.693C21.8 28.695 21.8 28.697 21.8 28.6991C21.8 28.7011 21.8 28.7032 21.8 28.7052C21.8 28.7072 21.8 28.7093 21.8 28.7113C21.8 28.7133 21.8 28.7153 21.8 28.7174C21.8 28.7194 21.8 28.7214 21.8 28.7235C21.8 28.7255 21.8 28.7275 21.8 28.7296C21.8 28.7316 21.8 28.7336 21.8 28.7357C21.8 28.7377 21.8 28.7397 21.8 28.7418C21.8 28.7438 21.8 28.7458 21.8 28.7478C21.8 28.7499 21.8 28.7519 21.8 28.7539C21.8 28.756 21.8 28.758 21.8 28.76C21.8 28.762 21.8 28.7641 21.8 28.7661C21.8 28.7681 21.8 28.7701 21.8 28.7722C21.8 28.7742 21.8 28.7762 21.8 28.7782C21.8 28.7803 21.8 28.7823 21.8 28.7843C21.8 28.7863 21.8 28.7884 21.8 28.7904C21.8 28.7924 21.8 28.7944 21.8 28.7965C21.8 28.7985 21.8 28.8005 21.8 28.8025C21.8 28.8045 21.8 28.8066 21.8 28.8086C21.8 28.8106 21.8 28.8126 21.8 28.8147C21.8 28.8167 21.8 28.8187 21.8 28.8207C21.8 28.8227 21.8 28.8248 21.8 28.8268C21.8 28.8288 21.8 28.8308 21.8 28.8328C21.8 28.8348 21.8 28.8369 21.8 28.8389C21.8 28.8409 21.8 28.8429 21.8 28.8449C21.8 28.847 21.8 28.849 21.8 28.851C21.8 28.853 21.8 28.855 21.8 28.857C21.8 28.859 21.8 28.8611 21.8 28.8631C21.8 28.8651 21.8 28.8671 21.8 28.8691C21.8 28.8711 21.8 28.8731 21.8 28.8752C21.8 28.8772 21.8 28.8792 21.8 28.8812C21.8 28.8832 21.8 28.8852 21.8 28.8872C21.8 28.8892 21.8 28.8913 21.8 28.8933C21.8 28.8953 21.8 28.8973 21.8 28.8993C21.8 28.9013 21.8 28.9033 21.8 28.9053C21.8 28.9073 21.8 28.9093 21.8 28.9114C21.8 28.9134 21.8 28.9154 21.8 28.9174C21.8 28.9194 21.8 28.9214 21.8 28.9234C21.8 28.9254 21.8 28.9274 21.8 28.9294C21.8 28.9314 21.8 28.9334 21.8 28.9354C21.8 28.9374 21.8 28.9395 21.8 28.9415C21.8 28.9435 21.8 28.9455 21.8 28.9475C21.8 28.9495 21.8 28.9515 21.8 28.9535C21.8 28.9555 21.8 28.9575 21.8 28.9595C21.8 28.9615 21.8 28.9635 21.8 28.9655C21.8 28.9675 21.8 28.9695 21.8 28.9715C21.8 28.9735 21.8 28.9755 21.8 28.9775C21.8 28.9795 21.8 28.9815 21.8 28.9835C21.8 28.9855 21.8 28.9875 21.8 28.9895C21.8 28.9915 21.8 28.9935 21.8 28.9955C21.8 28.9975 21.8 28.9995 21.8 29.0015C21.8 29.0035 21.8 29.0055 21.8 29.0075C21.8 29.0095 21.8 29.0115 21.8 29.0135C21.8 29.0155 21.8 29.0175 21.8 29.0194C21.8 29.0214 21.8 29.0234 21.8 29.0254C21.8 29.0274 21.8 29.0294 21.8 29.0314C21.8 29.0334 21.8 29.0354 21.8 29.0374C21.8 29.0394 21.8 29.0414 21.8 29.0434C21.8 29.0454 21.8 29.0473 21.8 29.0493C21.8 29.0513 21.8 29.0533 21.8 29.0553C21.8 29.0573 21.8 29.0593 21.8 29.0613C21.8 29.0633 21.8 29.0653 21.8 29.0672C21.8 29.0692 21.8 29.0712 21.8 29.0732C21.8 29.0752 21.8 29.0772 21.8 29.0792C21.8 29.0812 21.8 29.0831 21.8 29.0851C21.8 29.0871 21.8 29.0891 21.8 29.0911C21.8 29.0931 21.8 29.0951 21.8 29.097C21.8 29.099 21.8 29.101 21.8 29.103C21.8 29.105 21.8 29.107 21.8 29.1089C21.8 29.1109 21.8 29.1129 21.8 29.1149C21.8 29.1169 21.8 29.1188 21.8 29.1208C21.8 29.1228 21.8 29.1248 21.8 29.1268C21.8 29.1288 21.8 29.1307 21.8 29.1327C21.8 29.1347 21.8 29.1367 21.8 29.1386C21.8 29.1406 21.8 29.1426 21.8 29.1446C21.8 29.1466 21.8 29.1485 21.8 29.1505C21.8 29.1525 21.8 29.1545 21.8 29.1564C21.8 29.1584 21.8 29.1604 21.8 29.1624C21.8 29.1643 21.8 29.1663 21.8 29.1683C21.8 29.1703 21.8 29.1722 21.8 29.1742C21.8 29.1762 21.8 29.1782 21.8 29.1801C21.8 29.1821 21.8 29.1841 21.8 29.1861C21.8 29.188 21.8 29.19 21.8 29.192C21.8 29.1939 21.8 29.1959 21.8 29.1979C21.8 29.1998 21.8 29.2018 21.8 29.2038C21.8 29.2058 21.8 29.2077 21.8 29.2097C21.8 29.2117 21.8 29.2136 21.8 29.2156C21.8 29.2176 21.8 29.2195 21.8 29.2215C21.8 29.2235 21.8 29.2254 21.8 29.2274C21.8 29.2294 21.8 29.2313 21.8 29.2333C21.8 29.2353 21.8 29.2372 21.8 29.2392C21.8 29.2412 21.8 29.2431 21.8 29.2451C21.8 29.247 21.8 29.249 21.8 29.251C21.8 29.2529 21.8 29.2549 21.8 29.2569C21.8 29.2588 21.8 29.2608 21.8 29.2627C21.8 29.2647 21.8 29.2667 21.8 29.2686C21.8 29.2706 21.8 29.2725 21.8 29.2745C21.8 29.2765 21.8 29.2784 21.8 29.2804C21.8 29.2823 21.8 29.2843 21.8 29.2862C21.8 29.2882 21.8 29.2902 21.8 29.2921C21.8 29.2941 21.8 29.296 21.8 29.298C21.8 29.2999 21.8 29.3019 21.8 29.3039C21.8 29.3058 21.8 29.3078 21.8 29.3097C21.8 29.3117 21.8 29.3136 21.8 29.3156C21.8 29.3175 21.8 29.3195 21.8 29.3214C21.8 29.3234 21.8 29.3253 21.8 29.3273C21.8 29.3292 21.8 29.3312 21.8 29.3331C21.8 29.3351 21.8 29.337 21.8 29.339C21.8 29.3409 21.8 29.3429 21.8 29.3448C21.8 29.3468 21.8 29.3487 21.8 29.3507C21.8 29.3526 21.8 29.3546 21.8 29.3565C21.8 29.3585 21.8 29.3604 21.8 29.3624C21.8 29.3643 21.8 29.3663 21.8 29.3682C21.8 29.3701 21.8 29.3721 21.8 29.374C21.8 29.376 21.8 29.3779 21.8 29.3799C21.8 29.3818 21.8 29.3838 21.8 29.3857C21.8 29.3876 21.8 29.3896 21.8 29.3915C21.8 29.3935 21.8 29.3954 21.8 29.3973C21.8 29.3993 21.8 29.4012 21.8 29.4032C21.8 29.4051 21.8 29.407 21.8 29.409C21.8 29.4109 21.8 29.4129 21.8 29.4148C21.8 29.4167 21.8 29.4187 21.8 29.4206C21.8 29.4226 21.8 29.4245 21.8 29.4264C21.8 29.4284 21.8 29.4303 21.8 29.4322C21.8 29.4342 21.8 29.4361 21.8 29.438C21.8 29.44 21.8 29.4419 21.8 29.4438C21.8 29.4458 21.8 29.4477 21.8 29.4496C21.8 29.4516 21.8 29.4535 21.8 29.4554C21.8 29.4574 21.8 29.4593 21.8 29.4612C21.8 29.4632 21.8 29.4651 21.8 29.467C21.8 29.4689 21.8 29.4709 21.8 29.4728C21.8 29.4747 21.8 29.4767 21.8 29.4786C21.8 29.4805 21.8 29.4824 21.8 29.4844C21.8 29.4863 21.8 29.4882 21.8 29.4902C21.8 29.4921 21.8 29.494 21.8 29.4959C21.8 29.4979 21.8 29.4998 21.8 29.5017C21.8 29.5036 21.8 29.5056 21.8 29.5075C21.8 29.5094 21.8 29.5113 21.8 29.5132C21.8 29.5152 21.8 29.5171 21.8 29.519C21.8 29.5209 21.8 29.5229 21.8 29.5248C21.8 29.5267 21.8 29.5286 21.8 29.5305C21.8 29.5325 21.8 29.5344 21.8 29.5363C21.8 29.5382 21.8 29.5401 21.8 29.5421C21.8 29.544 21.8 29.5459 21.8 29.5478C21.8 29.5497 21.8 29.5516 21.8 29.5536C21.8 29.5555 21.8 29.5574 21.8 29.5593C21.8 29.5612 21.8 29.5631 21.8 29.565C21.8 29.567 21.8 29.5689 21.8 29.5708C21.8 29.5727 21.8 29.5746 21.8 29.5765C21.8 29.5784 21.8 29.5803 21.8 29.5823C21.8 29.5842 21.8 29.5861 21.8 29.588C21.8 29.5899 21.8 29.5918 21.8 29.5937C21.8 29.5956 21.8 29.5975 21.8 29.5994C21.8 29.6014 21.8 29.6033 21.8 29.6052C21.8 29.6071 21.8 29.609 21.8 29.6109C21.8 29.6128 21.8 29.6147 21.8 29.6166C21.8 29.6185 21.8 29.6204 21.8 29.6223C21.8 29.6242 21.8 29.6261 21.8 29.628C21.8 29.6299 21.8 29.6318 21.8 29.6337C21.8 29.6356 21.8 29.6375 21.8 29.6395C21.8 29.6414 21.8 29.6433 21.8 29.6452C21.8 29.6471 21.8 29.649 21.8 29.6509C21.8 29.6528 21.8 29.6547 21.8 29.6566C21.8 29.6585 21.8 29.6604 21.8 29.6622C21.8 29.6641 21.8 29.666 21.8 29.6679C21.8 29.6698 21.8 29.6717 21.8 29.6736C21.8 29.6755 21.8 29.6774 21.8 29.6793C21.8 29.6812 21.8 29.6831 21.8 29.685C21.8 29.6869 21.8 29.6888 21.8 29.6907C21.8 29.6926 21.8 29.6945 21.8 29.6964C21.8 29.6983 21.8 29.7001 21.8 29.702C21.8 29.7039 21.8 29.7058 21.8 29.7077C21.8 29.7096 21.8 29.7115 21.8 29.7134C21.8 29.7153 21.8 29.7172 21.8 29.719C21.8 29.7209 21.8 29.7228 21.8 29.7247C21.8 29.7266 21.8 29.7285 21.8 29.7304C21.8 29.7322 21.8 29.7341 21.8 29.736C21.8 29.7379 21.8 29.7398 21.8 29.7417C21.8 29.7436 21.8 29.7454 21.8 29.7473C21.8 29.7492 21.8 29.7511 21.8 29.753C21.8 29.7549 21.8 29.7567 21.8 29.7586C21.8 29.7605 21.8 29.7624 21.8 29.7643C21.8 29.7661 21.8 29.768 21.8 29.7699C21.8 29.7718 21.8 29.7737 21.8 29.7755C21.8 29.7774 21.8 29.7793 21.8 29.7812C21.8 29.783 21.8 29.7849 21.8 29.7868C21.8 29.7887 21.8 29.7905 21.8 29.7924C21.8 29.7943 21.8 29.7962 21.8 29.798C21.8 29.7999 21.8 29.8018 21.8 29.8037C21.8 29.8055 21.8 29.8074 21.8 29.8093C21.8 29.8112 21.8 29.813 21.8 29.8149C21.8 29.8168 21.8 29.8186 21.8 29.8205C21.8 29.8224 21.8 29.8243 21.8 29.8261C21.8 29.828 21.8 29.8299 21.8 29.8317C21.8 29.8336 21.8 29.8355 21.8 29.8373C21.8 29.8392 21.8 29.8411 21.8 29.8429C21.8 29.8448 21.8 29.8467 21.8 29.8485C21.8 29.8504 21.8 29.8523 21.8 29.8541C21.8 29.856 21.8 29.8578 21.8 29.8597C21.8 29.8616 21.8 29.8634 21.8 29.8653C21.8 29.8672 21.8 29.869 21.8 29.8709C21.8 29.8727 21.8 29.8746 21.8 29.8765C21.8 29.8783 21.8 29.8802 21.8 29.882C21.8 29.8839 21.8 29.8858 21.8 29.8876C21.8 29.8895 21.8 29.8913 21.8 29.8932C21.8 29.895 21.8 29.8969 21.8 29.8988C21.8 29.9006 21.8 29.9025 21.8 29.9043C21.8 29.9062 21.8 29.908 21.8 29.9099C21.8 29.9117 21.8 29.9136 21.8 29.9154C21.8 29.9173 21.8 29.9192 21.8 29.921C21.8 29.9229 21.8 29.9247 21.8 29.9266C21.8 29.9284 21.8 29.9303 21.8 29.9321C21.8 29.934 21.8 29.9358 21.8 29.9377C21.8 29.9395 21.8 29.9414 21.8 29.9432C21.8 29.945 21.8 29.9469 21.8 29.9487C21.8 29.9506 21.8 29.9524 21.8 29.9543C21.8 29.9561 21.8 29.958 21.8 29.9598C21.8 29.9617 21.8 29.9635 21.8 29.9653C21.8 29.9672 21.8 29.969 21.8 29.9709C21.8 29.9727 21.8 29.9746 21.8 29.9764C21.8 29.9782 21.8 29.9801 21.8 29.9819C21.8 29.9838 21.8 29.9856 21.8 29.9874C21.8 29.9893 21.8 29.9911 21.8 29.993C21.8 29.9948 21.8 29.9966 21.8 29.9985C21.8 30.0003 21.8 30.0021 21.8 30.004C21.8 30.0058 21.8 30.0076 21.8 30.0095C21.8 30.0113 21.8 30.0131 21.8 30.015C21.8 30.0168 21.8 30.0186 21.8 30.0205C21.8 30.0223 21.8 30.0241 21.8 30.026C21.8 30.0278 21.8 30.0296 21.8 30.0315C21.8 30.0333 21.8 30.0351 21.8 30.037C21.8 30.0388 21.8 30.0406 21.8 30.0424C21.8 30.0443 21.8 30.0461 21.8 30.0479C21.8 30.0498 21.8 30.0516 21.8 30.0534C21.8 30.0552 21.8 30.0571 21.8 30.0589C21.8 30.0607 21.8 30.0625 21.8 30.0644C21.8 30.0662 21.8 30.068 21.8 30.0698C21.8 30.0717 21.8 30.0735 21.8 30.0753C21.8 30.0771 21.8 30.0789 21.8 30.0808C21.8 30.0826 21.8 30.0844 21.8 30.0862C21.8 30.088 21.8 30.0899 21.8 30.0917C21.8 30.0935 21.8 30.0953 21.8 30.0971C21.8 30.099 21.8 30.1008 21.8 30.1026C21.8 30.1044 21.8 30.1062 21.8 30.108C21.8 30.1098 21.8 30.1117 21.8 30.1135C21.8 30.1153 21.8 30.1171 21.8 30.1189C21.8 30.1207 21.8 30.1225 21.8 30.1244C21.8 30.1262 21.8 30.128 21.8 30.1298C21.8 30.1316 21.8 30.1334 21.8 30.1352C21.8 30.137 21.8 30.1388 21.8 30.1406C21.8 30.1425 21.8 30.1443 21.8 30.1461C21.8 30.1479 21.8 30.1497 21.8 30.1515C21.8 30.1533 21.8 30.1551 21.8 30.1569C21.8 30.1587 21.8 30.1605 21.8 30.1623C21.8 30.1641 21.8 30.1659 21.8 30.1677C21.8 30.1695 21.8 30.1713 21.8 30.1731C21.8 30.1749 21.8 30.1767 21.8 30.1786C21.8 30.1804 21.8 30.1822 21.8 30.184C21.8 30.1858 21.8 30.1876 21.8 30.1893C21.8 30.1911 21.8 30.1929 21.8 30.1947C21.8 30.1965 21.8 30.1983 21.8 30.2001C21.8 30.2019 21.8 30.2037 21.8 30.2055C21.8 30.2073 21.8 30.2091 21.8 30.2109C21.8 30.2127 21.8 30.2145 21.8 30.2163C21.8 30.2181 21.8 30.2199 21.8 30.2217C21.8 30.2235 21.8 30.2252 21.8 30.227C21.8 30.2288 21.8 30.2306 21.8 30.2324C21.8 30.2342 21.8 30.236 21.8 30.2378C21.8 30.2396 21.8 30.2414 21.8 30.2431C21.8 30.2449 21.8 30.2467 21.8 30.2485C21.8 30.2503 21.8 30.2521 21.8 30.2539C21.8 30.2556 21.8 30.2574 21.8 30.2592C21.8 30.261 21.8 30.2628 21.8 30.2646C21.8 30.2663 21.8 30.2681 21.8 30.2699C21.8 30.2717 21.8 30.2735 21.8 30.2753C21.8 30.277 21.8 30.2788 21.8 30.2806C21.8 30.2824 21.8 30.2841 21.8 30.2859C21.8 30.2877 21.8 30.2895 21.8 30.2913C21.8 30.293 21.8 30.2948 21.8 30.2966C21.8 30.2984 21.8 30.3001 21.8 30.3019C21.8 30.3037 21.8 30.3055 21.8 30.3072C21.8 30.309 21.8 30.3108 21.8 30.3126C21.8 30.3143 21.8 30.3161 21.8 30.3179C21.8 30.3196 21.8 30.3214 21.8 30.3232C21.8 30.325 21.8 30.3267 21.8 30.3285C21.8 30.3303 21.8 30.332 21.8 30.3338C21.8 30.3356 21.8 30.3373 21.8 30.3391C21.8 30.3409 21.8 30.3426 21.8 30.3444C21.8 30.3462 21.8 30.3479 21.8 30.3497C21.8 30.3515 21.8 30.3532 21.8 30.355C21.8 30.3567 21.8 30.3585 21.8 30.3603C21.8 30.362 21.8 30.3638 21.8 30.3656C21.8 30.3673 21.8 30.3691 21.8 30.3708C21.8 30.3726 21.8 30.3744 21.8 30.3761C21.8 30.3779 21.8 30.3796 21.8 30.3814C21.8 30.3831 21.8 30.3849 21.8 30.3867C21.8 30.3884 21.8 30.3902 21.8 30.3919C21.8 30.3937 21.8 30.3954 21.8 30.3972C21.8 30.3989 21.8 30.4007 21.8 30.4024C21.8 30.4042 21.8 30.406 21.8 30.4077C21.8 30.4095 21.8 30.4112 21.8 30.413C21.8 30.4147 21.8 30.4165 21.8 30.4182C21.8 30.42 21.8 30.4217 21.8 30.4235C21.8 30.4252 21.8 30.4269 21.8 30.4287C21.8 30.4304 21.8 30.4322 21.8 30.4339C21.8 30.4357 21.8 30.4374 21.8 30.4392C21.8 30.4409 21.8 30.4427 21.8 30.4444C21.8 30.4461 21.8 30.4479 21.8 30.4496C21.8 30.4514 21.8 30.4531 21.8 30.4548H23.2C23.2 30.4531 23.2 30.4514 23.2 30.4496C23.2 30.4479 23.2 30.4461 23.2 30.4444C23.2 30.4427 23.2 30.4409 23.2 30.4392C23.2 30.4374 23.2 30.4357 23.2 30.4339C23.2 30.4322 23.2 30.4304 23.2 30.4287C23.2 30.4269 23.2 30.4252 23.2 30.4235C23.2 30.4217 23.2 30.42 23.2 30.4182C23.2 30.4165 23.2 30.4147 23.2 30.413C23.2 30.4112 23.2 30.4095 23.2 30.4077C23.2 30.406 23.2 30.4042 23.2 30.4024C23.2 30.4007 23.2 30.3989 23.2 30.3972C23.2 30.3954 23.2 30.3937 23.2 30.3919C23.2 30.3902 23.2 30.3884 23.2 30.3867C23.2 30.3849 23.2 30.3831 23.2 30.3814C23.2 30.3796 23.2 30.3779 23.2 30.3761C23.2 30.3744 23.2 30.3726 23.2 30.3708C23.2 30.3691 23.2 30.3673 23.2 30.3656C23.2 30.3638 23.2 30.362 23.2 30.3603C23.2 30.3585 23.2 30.3567 23.2 30.355C23.2 30.3532 23.2 30.3515 23.2 30.3497C23.2 30.3479 23.2 30.3462 23.2 30.3444C23.2 30.3426 23.2 30.3409 23.2 30.3391C23.2 30.3373 23.2 30.3356 23.2 30.3338C23.2 30.332 23.2 30.3303 23.2 30.3285C23.2 30.3267 23.2 30.325 23.2 30.3232C23.2 30.3214 23.2 30.3196 23.2 30.3179C23.2 30.3161 23.2 30.3143 23.2 30.3126C23.2 30.3108 23.2 30.309 23.2 30.3072C23.2 30.3055 23.2 30.3037 23.2 30.3019C23.2 30.3001 23.2 30.2984 23.2 30.2966C23.2 30.2948 23.2 30.293 23.2 30.2913C23.2 30.2895 23.2 30.2877 23.2 30.2859C23.2 30.2841 23.2 30.2824 23.2 30.2806C23.2 30.2788 23.2 30.277 23.2 30.2753C23.2 30.2735 23.2 30.2717 23.2 30.2699C23.2 30.2681 23.2 30.2663 23.2 30.2646C23.2 30.2628 23.2 30.261 23.2 30.2592C23.2 30.2574 23.2 30.2556 23.2 30.2539C23.2 30.2521 23.2 30.2503 23.2 30.2485C23.2 30.2467 23.2 30.2449 23.2 30.2431C23.2 30.2414 23.2 30.2396 23.2 30.2378C23.2 30.236 23.2 30.2342 23.2 30.2324C23.2 30.2306 23.2 30.2288 23.2 30.227C23.2 30.2252 23.2 30.2235 23.2 30.2217C23.2 30.2199 23.2 30.2181 23.2 30.2163C23.2 30.2145 23.2 30.2127 23.2 30.2109C23.2 30.2091 23.2 30.2073 23.2 30.2055C23.2 30.2037 23.2 30.2019 23.2 30.2001C23.2 30.1983 23.2 30.1965 23.2 30.1947C23.2 30.1929 23.2 30.1911 23.2 30.1893C23.2 30.1876 23.2 30.1858 23.2 30.184C23.2 30.1822 23.2 30.1804 23.2 30.1786C23.2 30.1767 23.2 30.1749 23.2 30.1731C23.2 30.1713 23.2 30.1695 23.2 30.1677C23.2 30.1659 23.2 30.1641 23.2 30.1623C23.2 30.1605 23.2 30.1587 23.2 30.1569C23.2 30.1551 23.2 30.1533 23.2 30.1515C23.2 30.1497 23.2 30.1479 23.2 30.1461C23.2 30.1443 23.2 30.1425 23.2 30.1406C23.2 30.1388 23.2 30.137 23.2 30.1352C23.2 30.1334 23.2 30.1316 23.2 30.1298C23.2 30.128 23.2 30.1262 23.2 30.1244C23.2 30.1225 23.2 30.1207 23.2 30.1189C23.2 30.1171 23.2 30.1153 23.2 30.1135C23.2 30.1117 23.2 30.1098 23.2 30.108C23.2 30.1062 23.2 30.1044 23.2 30.1026C23.2 30.1008 23.2 30.099 23.2 30.0971C23.2 30.0953 23.2 30.0935 23.2 30.0917C23.2 30.0899 23.2 30.088 23.2 30.0862C23.2 30.0844 23.2 30.0826 23.2 30.0808C23.2 30.0789 23.2 30.0771 23.2 30.0753C23.2 30.0735 23.2 30.0717 23.2 30.0698C23.2 30.068 23.2 30.0662 23.2 30.0644C23.2 30.0625 23.2 30.0607 23.2 30.0589C23.2 30.0571 23.2 30.0552 23.2 30.0534C23.2 30.0516 23.2 30.0498 23.2 30.0479C23.2 30.0461 23.2 30.0443 23.2 30.0424C23.2 30.0406 23.2 30.0388 23.2 30.037C23.2 30.0351 23.2 30.0333 23.2 30.0315C23.2 30.0296 23.2 30.0278 23.2 30.026C23.2 30.0241 23.2 30.0223 23.2 30.0205C23.2 30.0186 23.2 30.0168 23.2 30.015C23.2 30.0131 23.2 30.0113 23.2 30.0095C23.2 30.0076 23.2 30.0058 23.2 30.004C23.2 30.0021 23.2 30.0003 23.2 29.9985C23.2 29.9966 23.2 29.9948 23.2 29.993C23.2 29.9911 23.2 29.9893 23.2 29.9874C23.2 29.9856 23.2 29.9838 23.2 29.9819C23.2 29.9801 23.2 29.9782 23.2 29.9764C23.2 29.9746 23.2 29.9727 23.2 29.9709C23.2 29.969 23.2 29.9672 23.2 29.9653C23.2 29.9635 23.2 29.9617 23.2 29.9598C23.2 29.958 23.2 29.9561 23.2 29.9543C23.2 29.9524 23.2 29.9506 23.2 29.9487C23.2 29.9469 23.2 29.945 23.2 29.9432C23.2 29.9414 23.2 29.9395 23.2 29.9377C23.2 29.9358 23.2 29.934 23.2 29.9321C23.2 29.9303 23.2 29.9284 23.2 29.9266C23.2 29.9247 23.2 29.9229 23.2 29.921C23.2 29.9192 23.2 29.9173 23.2 29.9154C23.2 29.9136 23.2 29.9117 23.2 29.9099C23.2 29.908 23.2 29.9062 23.2 29.9043C23.2 29.9025 23.2 29.9006 23.2 29.8988C23.2 29.8969 23.2 29.895 23.2 29.8932C23.2 29.8913 23.2 29.8895 23.2 29.8876C23.2 29.8858 23.2 29.8839 23.2 29.882C23.2 29.8802 23.2 29.8783 23.2 29.8765C23.2 29.8746 23.2 29.8727 23.2 29.8709C23.2 29.869 23.2 29.8672 23.2 29.8653C23.2 29.8634 23.2 29.8616 23.2 29.8597C23.2 29.8578 23.2 29.856 23.2 29.8541C23.2 29.8523 23.2 29.8504 23.2 29.8485C23.2 29.8467 23.2 29.8448 23.2 29.8429C23.2 29.8411 23.2 29.8392 23.2 29.8373C23.2 29.8355 23.2 29.8336 23.2 29.8317C23.2 29.8299 23.2 29.828 23.2 29.8261C23.2 29.8243 23.2 29.8224 23.2 29.8205C23.2 29.8186 23.2 29.8168 23.2 29.8149C23.2 29.813 23.2 29.8112 23.2 29.8093C23.2 29.8074 23.2 29.8055 23.2 29.8037C23.2 29.8018 23.2 29.7999 23.2 29.798C23.2 29.7962 23.2 29.7943 23.2 29.7924C23.2 29.7905 23.2 29.7887 23.2 29.7868C23.2 29.7849 23.2 29.783 23.2 29.7812C23.2 29.7793 23.2 29.7774 23.2 29.7755C23.2 29.7737 23.2 29.7718 23.2 29.7699C23.2 29.768 23.2 29.7661 23.2 29.7643C23.2 29.7624 23.2 29.7605 23.2 29.7586C23.2 29.7567 23.2 29.7549 23.2 29.753C23.2 29.7511 23.2 29.7492 23.2 29.7473C23.2 29.7454 23.2 29.7436 23.2 29.7417C23.2 29.7398 23.2 29.7379 23.2 29.736C23.2 29.7341 23.2 29.7322 23.2 29.7304C23.2 29.7285 23.2 29.7266 23.2 29.7247C23.2 29.7228 23.2 29.7209 23.2 29.719C23.2 29.7172 23.2 29.7153 23.2 29.7134C23.2 29.7115 23.2 29.7096 23.2 29.7077C23.2 29.7058 23.2 29.7039 23.2 29.702C23.2 29.7001 23.2 29.6983 23.2 29.6964C23.2 29.6945 23.2 29.6926 23.2 29.6907C23.2 29.6888 23.2 29.6869 23.2 29.685C23.2 29.6831 23.2 29.6812 23.2 29.6793C23.2 29.6774 23.2 29.6755 23.2 29.6736C23.2 29.6717 23.2 29.6698 23.2 29.6679C23.2 29.666 23.2 29.6641 23.2 29.6622C23.2 29.6604 23.2 29.6585 23.2 29.6566C23.2 29.6547 23.2 29.6528 23.2 29.6509C23.2 29.649 23.2 29.6471 23.2 29.6452C23.2 29.6433 23.2 29.6414 23.2 29.6395C23.2 29.6375 23.2 29.6356 23.2 29.6337C23.2 29.6318 23.2 29.6299 23.2 29.628C23.2 29.6261 23.2 29.6242 23.2 29.6223C23.2 29.6204 23.2 29.6185 23.2 29.6166C23.2 29.6147 23.2 29.6128 23.2 29.6109C23.2 29.609 23.2 29.6071 23.2 29.6052C23.2 29.6033 23.2 29.6014 23.2 29.5994C23.2 29.5975 23.2 29.5956 23.2 29.5937C23.2 29.5918 23.2 29.5899 23.2 29.588C23.2 29.5861 23.2 29.5842 23.2 29.5823C23.2 29.5803 23.2 29.5784 23.2 29.5765C23.2 29.5746 23.2 29.5727 23.2 29.5708C23.2 29.5689 23.2 29.567 23.2 29.565C23.2 29.5631 23.2 29.5612 23.2 29.5593C23.2 29.5574 23.2 29.5555 23.2 29.5536C23.2 29.5516 23.2 29.5497 23.2 29.5478C23.2 29.5459 23.2 29.544 23.2 29.5421C23.2 29.5401 23.2 29.5382 23.2 29.5363C23.2 29.5344 23.2 29.5325 23.2 29.5305C23.2 29.5286 23.2 29.5267 23.2 29.5248C23.2 29.5229 23.2 29.5209 23.2 29.519C23.2 29.5171 23.2 29.5152 23.2 29.5132C23.2 29.5113 23.2 29.5094 23.2 29.5075C23.2 29.5056 23.2 29.5036 23.2 29.5017C23.2 29.4998 23.2 29.4979 23.2 29.4959C23.2 29.494 23.2 29.4921 23.2 29.4902C23.2 29.4882 23.2 29.4863 23.2 29.4844C23.2 29.4824 23.2 29.4805 23.2 29.4786C23.2 29.4767 23.2 29.4747 23.2 29.4728C23.2 29.4709 23.2 29.4689 23.2 29.467C23.2 29.4651 23.2 29.4632 23.2 29.4612C23.2 29.4593 23.2 29.4574 23.2 29.4554C23.2 29.4535 23.2 29.4516 23.2 29.4496C23.2 29.4477 23.2 29.4458 23.2 29.4438C23.2 29.4419 23.2 29.44 23.2 29.438C23.2 29.4361 23.2 29.4342 23.2 29.4322C23.2 29.4303 23.2 29.4284 23.2 29.4264C23.2 29.4245 23.2 29.4226 23.2 29.4206C23.2 29.4187 23.2 29.4167 23.2 29.4148C23.2 29.4129 23.2 29.4109 23.2 29.409C23.2 29.407 23.2 29.4051 23.2 29.4032C23.2 29.4012 23.2 29.3993 23.2 29.3973C23.2 29.3954 23.2 29.3935 23.2 29.3915C23.2 29.3896 23.2 29.3876 23.2 29.3857C23.2 29.3838 23.2 29.3818 23.2 29.3799C23.2 29.3779 23.2 29.376 23.2 29.374C23.2 29.3721 23.2 29.3701 23.2 29.3682C23.2 29.3663 23.2 29.3643 23.2 29.3624C23.2 29.3604 23.2 29.3585 23.2 29.3565C23.2 29.3546 23.2 29.3526 23.2 29.3507C23.2 29.3487 23.2 29.3468 23.2 29.3448C23.2 29.3429 23.2 29.3409 23.2 29.339C23.2 29.337 23.2 29.3351 23.2 29.3331C23.2 29.3312 23.2 29.3292 23.2 29.3273C23.2 29.3253 23.2 29.3234 23.2 29.3214C23.2 29.3195 23.2 29.3175 23.2 29.3156C23.2 29.3136 23.2 29.3117 23.2 29.3097C23.2 29.3078 23.2 29.3058 23.2 29.3039C23.2 29.3019 23.2 29.2999 23.2 29.298C23.2 29.296 23.2 29.2941 23.2 29.2921C23.2 29.2902 23.2 29.2882 23.2 29.2862C23.2 29.2843 23.2 29.2823 23.2 29.2804C23.2 29.2784 23.2 29.2765 23.2 29.2745C23.2 29.2725 23.2 29.2706 23.2 29.2686C23.2 29.2667 23.2 29.2647 23.2 29.2627C23.2 29.2608 23.2 29.2588 23.2 29.2569C23.2 29.2549 23.2 29.2529 23.2 29.251C23.2 29.249 23.2 29.247 23.2 29.2451C23.2 29.2431 23.2 29.2412 23.2 29.2392C23.2 29.2372 23.2 29.2353 23.2 29.2333C23.2 29.2313 23.2 29.2294 23.2 29.2274C23.2 29.2254 23.2 29.2235 23.2 29.2215C23.2 29.2195 23.2 29.2176 23.2 29.2156C23.2 29.2136 23.2 29.2117 23.2 29.2097C23.2 29.2077 23.2 29.2058 23.2 29.2038C23.2 29.2018 23.2 29.1998 23.2 29.1979C23.2 29.1959 23.2 29.1939 23.2 29.192C23.2 29.19 23.2 29.188 23.2 29.1861C23.2 29.1841 23.2 29.1821 23.2 29.1801C23.2 29.1782 23.2 29.1762 23.2 29.1742C23.2 29.1722 23.2 29.1703 23.2 29.1683C23.2 29.1663 23.2 29.1643 23.2 29.1624C23.2 29.1604 23.2 29.1584 23.2 29.1564C23.2 29.1545 23.2 29.1525 23.2 29.1505C23.2 29.1485 23.2 29.1466 23.2 29.1446C23.2 29.1426 23.2 29.1406 23.2 29.1386C23.2 29.1367 23.2 29.1347 23.2 29.1327C23.2 29.1307 23.2 29.1288 23.2 29.1268C23.2 29.1248 23.2 29.1228 23.2 29.1208C23.2 29.1188 23.2 29.1169 23.2 29.1149C23.2 29.1129 23.2 29.1109 23.2 29.1089C23.2 29.107 23.2 29.105 23.2 29.103C23.2 29.101 23.2 29.099 23.2 29.097C23.2 29.0951 23.2 29.0931 23.2 29.0911C23.2 29.0891 23.2 29.0871 23.2 29.0851C23.2 29.0831 23.2 29.0812 23.2 29.0792C23.2 29.0772 23.2 29.0752 23.2 29.0732C23.2 29.0712 23.2 29.0692 23.2 29.0672C23.2 29.0653 23.2 29.0633 23.2 29.0613C23.2 29.0593 23.2 29.0573 23.2 29.0553C23.2 29.0533 23.2 29.0513 23.2 29.0493C23.2 29.0473 23.2 29.0454 23.2 29.0434C23.2 29.0414 23.2 29.0394 23.2 29.0374C23.2 29.0354 23.2 29.0334 23.2 29.0314C23.2 29.0294 23.2 29.0274 23.2 29.0254C23.2 29.0234 23.2 29.0214 23.2 29.0194C23.2 29.0175 23.2 29.0155 23.2 29.0135C23.2 29.0115 23.2 29.0095 23.2 29.0075C23.2 29.0055 23.2 29.0035 23.2 29.0015C23.2 28.9995 23.2 28.9975 23.2 28.9955C23.2 28.9935 23.2 28.9915 23.2 28.9895C23.2 28.9875 23.2 28.9855 23.2 28.9835C23.2 28.9815 23.2 28.9795 23.2 28.9775C23.2 28.9755 23.2 28.9735 23.2 28.9715C23.2 28.9695 23.2 28.9675 23.2 28.9655C23.2 28.9635 23.2 28.9615 23.2 28.9595C23.2 28.9575 23.2 28.9555 23.2 28.9535C23.2 28.9515 23.2 28.9495 23.2 28.9475C23.2 28.9455 23.2 28.9435 23.2 28.9415C23.2 28.9395 23.2 28.9374 23.2 28.9354C23.2 28.9334 23.2 28.9314 23.2 28.9294C23.2 28.9274 23.2 28.9254 23.2 28.9234C23.2 28.9214 23.2 28.9194 23.2 28.9174C23.2 28.9154 23.2 28.9134 23.2 28.9114C23.2 28.9093 23.2 28.9073 23.2 28.9053C23.2 28.9033 23.2 28.9013 23.2 28.8993C23.2 28.8973 23.2 28.8953 23.2 28.8933C23.2 28.8913 23.2 28.8892 23.2 28.8872C23.2 28.8852 23.2 28.8832 23.2 28.8812C23.2 28.8792 23.2 28.8772 23.2 28.8752C23.2 28.8731 23.2 28.8711 23.2 28.8691C23.2 28.8671 23.2 28.8651 23.2 28.8631C23.2 28.8611 23.2 28.859 23.2 28.857C23.2 28.855 23.2 28.853 23.2 28.851C23.2 28.849 23.2 28.847 23.2 28.8449C23.2 28.8429 23.2 28.8409 23.2 28.8389C23.2 28.8369 23.2 28.8348 23.2 28.8328C23.2 28.8308 23.2 28.8288 23.2 28.8268C23.2 28.8248 23.2 28.8227 23.2 28.8207C23.2 28.8187 23.2 28.8167 23.2 28.8147C23.2 28.8126 23.2 28.8106 23.2 28.8086C23.2 28.8066 23.2 28.8045 23.2 28.8025C23.2 28.8005 23.2 28.7985 23.2 28.7965C23.2 28.7944 23.2 28.7924 23.2 28.7904C23.2 28.7884 23.2 28.7863 23.2 28.7843C23.2 28.7823 23.2 28.7803 23.2 28.7782C23.2 28.7762 23.2 28.7742 23.2 28.7722C23.2 28.7701 23.2 28.7681 23.2 28.7661C23.2 28.7641 23.2 28.762 23.2 28.76C23.2 28.758 23.2 28.756 23.2 28.7539C23.2 28.7519 23.2 28.7499 23.2 28.7478C23.2 28.7458 23.2 28.7438 23.2 28.7418C23.2 28.7397 23.2 28.7377 23.2 28.7357C23.2 28.7336 23.2 28.7316 23.2 28.7296C23.2 28.7275 23.2 28.7255 23.2 28.7235C23.2 28.7214 23.2 28.7194 23.2 28.7174C23.2 28.7153 23.2 28.7133 23.2 28.7113C23.2 28.7093 23.2 28.7072 23.2 28.7052C23.2 28.7032 23.2 28.7011 23.2 28.6991C23.2 28.697 23.2 28.695 23.2 28.693C23.2 28.6909 23.2 28.6889 23.2 28.6869C23.2 28.6848 23.2 28.6828 23.2 28.6808C23.2 28.6787 23.2 28.6767 23.2 28.6747C23.2 28.6726 23.2 28.6706 23.2 28.6685C23.2 28.6665 23.2 28.6645 23.2 28.6624C23.2 28.6604 23.2 28.6583 23.2 28.6563C23.2 28.6543 23.2 28.6522 23.2 28.6502C23.2 28.6481 23.2 28.6461 23.2 28.6441C23.2 28.642 23.2 28.64 23.2 28.6379C23.2 28.6359 23.2 28.6339 23.2 28.6318C23.2 28.6298 23.2 28.6277 23.2 28.6257C23.2 28.6237 23.2 28.6216 23.2 28.6196C23.2 28.6175 23.2 28.6155 23.2 28.6134C23.2 28.6114 23.2 28.6093 23.2 28.6073C23.2 28.6053 23.2 28.6032 23.2 28.6012C23.2 28.5991 23.2 28.5971 23.2 28.595C23.2 28.593 23.2 28.5909 23.2 28.5889C23.2 28.5868 23.2 28.5848 23.2 28.5827C23.2 28.5807 23.2 28.5787 23.2 28.5766C23.2 28.5746 23.2 28.5725 23.2 28.5705C23.2 28.5684 23.2 28.5664 23.2 28.5643C23.2 28.5623 23.2 28.5602 23.2 28.5582C23.2 28.5561 23.2 28.5541 23.2 28.552C23.2 28.55 23.2 28.5479 23.2 28.5459C23.2 28.5438 23.2 28.5418 23.2 28.5397C23.2 28.5376 23.2 28.5356 23.2 28.5335C23.2 28.5315 23.2 28.5294 23.2 28.5274C23.2 28.5253 23.2 28.5233 23.2 28.5212C23.2 28.5192 23.2 28.5171 23.2 28.5151C23.2 28.513 23.2 28.5109 23.2 28.5089C23.2 28.5068 23.2 28.5048 23.2 28.5027C23.2 28.5007 23.2 28.4986 23.2 28.4966C23.2 28.4945 23.2 28.4924 23.2 28.4904C23.2 28.4883 23.2 28.4863 23.2 28.4842C23.2 28.4822 23.2 28.4801 23.2 28.478C23.2 28.476 23.2 28.4739 23.2 28.4719C23.2 28.4698 23.2 28.4677 23.2 28.4657C23.2 28.4636 23.2 28.4616 23.2 28.4595C23.2 28.4574 23.2 28.4554 23.2 28.4533C23.2 28.4513 23.2 28.4492 23.2 28.4471C23.2 28.4451 23.2 28.443 23.2 28.4409C23.2 28.4389 23.2 28.4368 23.2 28.4348C23.2 28.4327 23.2 28.4306 23.2 28.4286C23.2 28.4265 23.2 28.4244 23.2 28.4224C23.2 28.4203 23.2 28.4182 23.2 28.4162C23.2 28.4141 23.2 28.412 23.2 28.41C23.2 28.4079 23.2 28.4058 23.2 28.4038C23.2 28.4017 23.2 28.3996 23.2 28.3976C23.2 28.3955 23.2 28.3934 23.2 28.3914C23.2 28.3893 23.2 28.3872 23.2 28.3852C23.2 28.3831 23.2 28.381 23.2 28.379C23.2 28.3769 23.2 28.3748 23.2 28.3728C23.2 28.3707 23.2 28.3686 23.2 28.3666C23.2 28.3645 23.2 28.3624 23.2 28.3603C23.2 28.3583 23.2 28.3562 23.2 28.3541C23.2 28.3521 23.2 28.35 23.2 28.3479C23.2 28.3458 23.2 28.3438 23.2 28.3417C23.2 28.3396 23.2 28.3375 23.2 28.3355C23.2 28.3334 23.2 28.3313 23.2 28.3293C23.2 28.3272 23.2 28.3251 23.2 28.323C23.2 28.321 23.2 28.3189 23.2 28.3168C23.2 28.3147 23.2 28.3127 23.2 28.3106C23.2 28.3085 23.2 28.3064 23.2 28.3044C23.2 28.3023 23.2 28.3002 23.2 28.2981C23.2 28.296 23.2 28.294 23.2 28.2919C23.2 28.2898 23.2 28.2877 23.2 28.2857C23.2 28.2836 23.2 28.2815 23.2 28.2794C23.2 28.2773 23.2 28.2753 23.2 28.2732C23.2 28.2711 23.2 28.269 23.2 28.2669C23.2 28.2649 23.2 28.2628 23.2 28.2607C23.2 28.2586 23.2 28.2565 23.2 28.2545C23.2 28.2524 23.2 28.2503 23.2 28.2482C23.2 28.2461 23.2 28.2441 23.2 28.242C23.2 28.2399 23.2 28.2378 23.2 28.2357C23.2 28.2336 23.2 28.2316 23.2 28.2295C23.2 28.2274 23.2 28.2253 23.2 28.2232C23.2 28.2211 23.2 28.2191 23.2 28.217C23.2 28.2149 23.2 28.2128 23.2 28.2107C23.2 28.2086 23.2 28.2065 23.2 28.2045C23.2 28.2024 23.2 28.2003 23.2 28.1982C23.2 28.1961 23.2 28.194 23.2 28.1919C23.2 28.1899 23.2 28.1878 23.2 28.1857C23.2 28.1836 23.2 28.1815 23.2 28.1794C23.2 28.1773 23.2 28.1752 23.2 28.1732C23.2 28.1711 23.2 28.169 23.2 28.1669C23.2 28.1648 23.2 28.1627 23.2 28.1606C23.2 28.1585 23.2 28.1564 23.2 28.1543C23.2 28.1523 23.2 28.1502 23.2 28.1481C23.2 28.146 23.2 28.1439 23.2 28.1418C23.2 28.1397 23.2 28.1376 23.2 28.1355C23.2 28.1334 23.2 28.1313 23.2 28.1293C23.2 28.1272 23.2 28.1251 23.2 28.123C23.2 28.1209 23.2 28.1188 23.2 28.1167C23.2 28.1146 23.2 28.1125 23.2 28.1104C23.2 28.1083 23.2 28.1062 23.2 28.1041C23.2 28.102 23.2 28.0999 23.2 28.0978C23.2 28.0957 23.2 28.0936 23.2 28.0916C23.2 28.0895 23.2 28.0874 23.2 28.0853C23.2 28.0832 23.2 28.0811 23.2 28.079C23.2 28.0769 23.2 28.0748 23.2 28.0727C23.2 28.0706 23.2 28.0685 23.2 28.0664C23.2 28.0643 23.2 28.0622 23.2 28.0601C23.2 28.058 23.2 28.0559 23.2 28.0538C23.2 28.0517 23.2 28.0496 23.2 28.0475C23.2 28.0454 23.2 28.0433 23.2 28.0412C23.2 28.0391 23.2 28.037 23.2 28.0349C23.2 28.0328 23.2 28.0307 23.2 28.0286C23.2 28.0265 23.2 28.0244 23.2 28.0223C23.2 28.0202 23.2 28.0181 23.2 28.016C23.2 28.0139 23.2 28.0118 23.2 28.0097C23.2 28.0076 23.2 28.0055 23.2 28.0034C23.2 28.0013 23.2 27.9992 23.2 27.9971C23.2 27.995 23.2 27.9928 23.2 27.9907C23.2 27.9886 23.2 27.9865 23.2 27.9844C23.2 27.9823 23.2 27.9802 23.2 27.9781C23.2 27.976 23.2 27.9739 23.2 27.9718C23.2 27.9697 23.2 27.9676 23.2 27.9655C23.2 27.9634 23.2 27.9613 23.2 27.9592C23.2 27.957 23.2 27.9549 23.2 27.9528C23.2 27.9507 23.2 27.9486 23.2 27.9465C23.2 27.9444 23.2 27.9423 23.2 27.9402C23.2 27.9381 23.2 27.936 23.2 27.9339C23.2 27.9317 23.2 27.9296 23.2 27.9275C23.2 27.9254 23.2 27.9233 23.2 27.9212C23.2 27.9191 23.2 27.917 23.2 27.9149C23.2 27.9128 23.2 27.9106 23.2 27.9085C23.2 27.9064 23.2 27.9043 23.2 27.9022C23.2 27.9001 23.2 27.898 23.2 27.8959C23.2 27.8938 23.2 27.8916 23.2 27.8895C23.2 27.8874 23.2 27.8853 23.2 27.8832C23.2 27.8811 23.2 27.879 23.2 27.8768C23.2 27.8747 23.2 27.8726 23.2 27.8705C23.2 27.8684 23.2 27.8663 23.2 27.8642C23.2 27.8621 23.2 27.8599 23.2 27.8578C23.2 27.8557 23.2 27.8536 23.2 27.8515C23.2 27.8494 23.2 27.8472 23.2 27.8451C23.2 27.843 23.2 27.8409 23.2 27.8388C23.2 27.8367 23.2 27.8345 23.2 27.8324C23.2 27.8303 23.2 27.8282 23.2 27.8261C23.2 27.824 23.2 27.8218 23.2 27.8197C23.2 27.8176 23.2 27.8155 23.2 27.8134C23.2 27.8112 23.2 27.8091 23.2 27.807C23.2 27.8049 23.2 27.8028 23.2 27.8007C23.2 27.7985 23.2 27.7964 23.2 27.7943C23.2 27.7922 23.2 27.7901 23.2 27.7879C23.2 27.7858 23.2 27.7837 23.2 27.7816C23.2 27.7794 23.2 27.7773 23.2 27.7752C23.2 27.7731 23.2 27.771 23.2 27.7688C23.2 27.7667 23.2 27.7646 23.2 27.7625C23.2 27.7604 23.2 27.7582 23.2 27.7561C23.2 27.754 23.2 27.7519 23.2 27.7497C23.2 27.7476 23.2 27.7455 23.2 27.7434C23.2 27.7412 23.2 27.7391 23.2 27.737C23.2 27.7349 23.2 27.7327 23.2 27.7306C23.2 27.7285 23.2 27.7264 23.2 27.7242C23.2 27.7221 23.2 27.72 23.2 27.7179C23.2 27.7157 23.2 27.7136 23.2 27.7115C23.2 27.7094 23.2 27.7072 23.2 27.7051C23.2 27.703 23.2 27.7009 23.2 27.6987C23.2 27.6966 23.2 27.6945 23.2 27.6924C23.2 27.6902 23.2 27.6881 23.2 27.686C23.2 27.6838 23.2 27.6817 23.2 27.6796C23.2 27.6775 23.2 27.6753 23.2 27.6732C23.2 27.6711 23.2 27.6689 23.2 27.6668C23.2 27.6647 23.2 27.6626 23.2 27.6604C23.2 27.6583 23.2 27.6562 23.2 27.654C23.2 27.6519 23.2 27.6498 23.2 27.6476C23.2 27.6455 23.2 27.6434 23.2 27.6413C23.2 27.6391 23.2 27.637 23.2 27.6349C23.2 27.6327 23.2 27.6306 23.2 27.6285C23.2 27.6263 23.2 27.6242 23.2 27.6221C23.2 27.6199 23.2 27.6178 23.2 27.6157C23.2 27.6135 23.2 27.6114 23.2 27.6093C23.2 27.6071 23.2 27.605 23.2 27.6029C23.2 27.6007 23.2 27.5986 23.2 27.5965C23.2 27.5943 23.2 27.5922 23.2 27.5901C23.2 27.5879 23.2 27.5858 23.2 27.5837C23.2 27.5815 23.2 27.5794 23.2 27.5773C23.2 27.5751 23.2 27.573 23.2 27.5709C23.2 27.5687 23.2 27.5666 23.2 27.5645C23.2 27.5623 23.2 27.5602 23.2 27.558C23.2 27.5559 23.2 27.5538 23.2 27.5516C23.2 27.5495 23.2 27.5474 23.2 27.5452C23.2 27.5431 23.2 27.5409 23.2 27.5388C23.2 27.5367 23.2 27.5345 23.2 27.5324C23.2 27.5303 23.2 27.5281 23.2 27.526C23.2 27.5238 23.2 27.5217 23.2 27.5196C23.2 27.5174 23.2 27.5153 23.2 27.5131C23.2 27.511 23.2 27.5089 23.2 27.5067C23.2 27.5046 23.2 27.5025 23.2 27.5003C23.2 27.4982 23.2 27.496 23.2 27.4939C23.2 27.4918 23.2 27.4896 23.2 27.4875C23.2 27.4853 23.2 27.4832 23.2 27.481C23.2 27.4789 23.2 27.4768 23.2 27.4746C23.2 27.4725 23.2 27.4703 23.2 27.4682C23.2 27.4661 23.2 27.4639 23.2 27.4618C23.2 27.4596 23.2 27.4575 23.2 27.4553C23.2 27.4532 23.2 27.4511 23.2 27.4489C23.2 27.4468 23.2 27.4446 23.2 27.4425C23.2 27.4403 23.2 27.4382 23.2 27.436C23.2 27.4339 23.2 27.4318 23.2 27.4296C23.2 27.4275 23.2 27.4253 23.2 27.4232C23.2 27.421 23.2 27.4189 23.2 27.4167H21.8ZM8.2 30.4548C8.2 29.5636 8.2 28.5151 8.2 27.4167H6.8C6.8 28.5151 6.8 29.5636 6.8 30.4548L8.2 30.4548ZM19.7932 32.6912C18.2874 32.83 16.435 32.9667 15 32.9667V34.3667C16.5026 34.3667 18.4081 34.2248 19.9217 34.0853L19.7932 32.6912ZM15 32.9667C13.565 32.9667 11.7126 32.83 10.2068 32.6912L10.0783 34.0853C11.5919 34.2248 13.4974 34.3667 15 34.3667V32.9667ZM6.8 30.4548C6.8 32.3224 8.19696 33.9119 10.0783 34.0853L10.2068 32.6912C9.06738 32.5862 8.2 31.6208 8.2 30.4548L6.8 30.4548ZM21.8 30.4548C21.8 31.6208 20.9326 32.5862 19.7932 32.6912L19.9217 34.0853C21.803 33.9119 23.2 32.3224 23.2 30.4548H21.8Z" fill="#F0F4F8"/>
<path d="M40.25 31.57C39.4567 31.57 38.78 31.4393 38.22 31.178C37.6693 30.9073 37.2213 30.5387 36.876 30.072C36.54 29.6053 36.2927 29.078 36.134 28.49C35.9753 27.8927 35.896 27.272 35.896 26.628V21.56H37.828V26.628C37.828 27.1787 37.9027 27.7013 38.052 28.196C38.2013 28.6907 38.4533 29.092 38.808 29.4C39.1627 29.708 39.6387 29.862 40.236 29.862C40.852 29.862 41.3373 29.708 41.692 29.4C42.0467 29.0827 42.2987 28.6767 42.448 28.182C42.5973 27.6873 42.672 27.1693 42.672 26.628V21.56H44.59V26.628C44.59 27.3093 44.506 27.9487 44.338 28.546C44.1793 29.1433 43.9227 29.6707 43.568 30.128C43.2227 30.576 42.7747 30.9307 42.224 31.192C41.6733 31.444 41.0153 31.57 40.25 31.57ZM46.536 31.5V21.56H50.75C51.2073 21.56 51.6273 21.6533 52.01 21.84C52.402 22.0267 52.738 22.2787 53.018 22.596C53.298 22.9133 53.5173 23.268 53.676 23.66C53.8347 24.052 53.914 24.4533 53.914 24.864C53.914 25.424 53.7833 25.956 53.522 26.46C53.2607 26.964 52.8967 27.3747 52.43 27.692C51.9727 28.0093 51.436 28.168 50.82 28.168H48.468V31.5H46.536ZM48.468 26.474H50.708C51.0627 26.474 51.3567 26.3293 51.59 26.04C51.8327 25.7413 51.954 25.3493 51.954 24.864C51.954 24.3507 51.8187 23.954 51.548 23.674C51.2773 23.394 50.9693 23.254 50.624 23.254H48.468V26.474ZM55.2587 31.5V21.56H57.1907V29.806H62.2587V31.5H55.2587ZM67.4577 31.57C66.7297 31.57 66.067 31.43 65.4697 31.15C64.8817 30.87 64.373 30.492 63.9437 30.016C63.5237 29.5307 63.197 28.9893 62.9637 28.392C62.7304 27.7853 62.6137 27.1647 62.6137 26.53C62.6137 25.8673 62.735 25.2373 62.9777 24.64C63.2204 24.0333 63.561 23.4967 63.9997 23.03C64.4384 22.554 64.9517 22.1807 65.5397 21.91C66.137 21.63 66.7904 21.49 67.4997 21.49C68.2184 21.49 68.8717 21.6347 69.4597 21.924C70.057 22.2133 70.5657 22.6007 70.9857 23.086C71.415 23.5713 71.7417 24.1173 71.9657 24.724C72.199 25.3213 72.3157 25.9327 72.3157 26.558C72.3157 27.2113 72.1944 27.8413 71.9517 28.448C71.709 29.0453 71.3684 29.582 70.9297 30.058C70.5004 30.5247 69.987 30.8933 69.3897 31.164C68.8017 31.4347 68.1577 31.57 67.4577 31.57ZM64.5737 26.53C64.5737 27.1087 64.6857 27.65 64.9097 28.154C65.143 28.658 65.4744 29.0687 65.9037 29.386C66.3424 29.7033 66.865 29.862 67.4717 29.862C68.097 29.862 68.6244 29.6987 69.0537 29.372C69.483 29.0453 69.8097 28.6253 70.0337 28.112C70.2577 27.5987 70.3697 27.0713 70.3697 26.53C70.3697 25.9513 70.253 25.41 70.0197 24.906C69.7864 24.402 69.4504 23.996 69.0117 23.688C68.5824 23.3707 68.069 23.212 67.4717 23.212C66.8464 23.212 66.319 23.3753 65.8897 23.702C65.4604 24.0287 65.1337 24.4487 64.9097 24.962C64.6857 25.466 64.5737 25.9887 64.5737 26.53ZM76.1169 21.56H78.0769L81.7309 31.5H79.7429L78.8189 29.022H75.3469L74.4369 31.5H72.4489L76.1169 21.56ZM78.4689 27.664L77.0969 23.562L75.6689 27.664H78.4689ZM82.8212 31.5V21.56H86.4332C87.5158 21.56 88.4212 21.784 89.1492 22.232C89.8772 22.6707 90.4232 23.268 90.7872 24.024C91.1512 24.7707 91.3332 25.6013 91.3332 26.516C91.3332 27.524 91.1325 28.4013 90.7312 29.148C90.3298 29.8947 89.7605 30.4733 89.0232 30.884C88.2858 31.2947 87.4225 31.5 86.4332 31.5H82.8212ZM89.3872 26.516C89.3872 25.872 89.2705 25.3073 89.0372 24.822C88.8038 24.3273 88.4678 23.9447 88.0292 23.674C87.5905 23.394 87.0585 23.254 86.4332 23.254H84.7532V29.806H86.4332C87.0678 29.806 87.6045 29.666 88.0432 29.386C88.4818 29.0967 88.8132 28.7047 89.0372 28.21C89.2705 27.706 89.3872 27.1413 89.3872 26.516ZM96.2059 31.5V21.56H102.884V23.254H98.1379V25.816H102.086V27.384H98.1379V31.5H96.2059ZM104.245 31.5V21.56H106.177V31.5H104.245ZM108.251 31.5V21.56H110.183V29.806H115.251V31.5H108.251ZM123.329 29.806V31.5H116.427V21.56H123.203V23.254H118.359V25.648H122.545V27.216H118.359V29.806H123.329Z" fill="white"/>
</svg>
