<svg width="20" height="17" viewBox="0 0 20 17" fill="none" xmlns="http://www.w3.org/2000/svg">
<path d="M10 11.6667L10 1.66675" stroke="#F2F2F2" stroke-width="1.4" stroke-linecap="round"/>
<line x1="10" y1="0.848528" x2="6.84853" y2="4" stroke="#F2F2F2" stroke-width="1.2" stroke-linecap="round"/>
<line x1="0.6" y1="-0.6" x2="5.05685" y2="-0.6" transform="matrix(0.707107 0.707107 0.707107 -0.707107 10 0)" stroke="#F2F2F2" stroke-width="1.2" stroke-linecap="round"/>
<path d="M1.7 8.5C1.7 8.1134 1.3866 7.8 1 7.8C0.613401 7.8 0.3 8.1134 0.3 8.5H1.7ZM19.7 8.5C19.7 8.1134 19.3866 7.8 19 7.8C18.6134 7.8 18.3 8.1134 18.3 8.5H19.7ZM3.64065 15.6158L3.57347 16.3126L3.64065 15.6158ZM16.3593 15.6158L16.2922 14.919L16.3593 15.6158ZM18.3 8.5C18.3 8.50302 18.3 8.50603 18.3 8.50904C18.3 8.51206 18.3 8.51507 18.3 8.51808C18.3 8.5211 18.3 8.52411 18.3 8.52712C18.3 8.53014 18.3 8.53315 18.3 8.53616C18.3 8.53917 18.3 8.54218 18.3 8.54519C18.3 8.54821 18.3 8.55122 18.3 8.55423C18.3 8.55724 18.3 8.56025 18.3 8.56326C18.3 8.56627 18.3 8.56928 18.3 8.57229C18.3 8.5753 18.3 8.57831 18.3 8.58132C18.3 8.58432 18.3 8.58733 18.3 8.59034C18.3 8.59335 18.3 8.59636 18.3 8.59936C18.3 8.60237 18.3 8.60538 18.3 8.60838C18.3 8.61139 18.3 8.6144 18.3 8.6174C18.3 8.62041 18.3 8.62342 18.3 8.62642C18.3 8.62943 18.3 8.63243 18.3 8.63544C18.3 8.63844 18.3 8.64145 18.3 8.64445C18.3 8.64745 18.3 8.65046 18.3 8.65346C18.3 8.65647 18.3 8.65947 18.3 8.66247C18.3 8.66547 18.3 8.66848 18.3 8.67148C18.3 8.67448 18.3 8.67748 18.3 8.68048C18.3 8.68348 18.3 8.68649 18.3 8.68949C18.3 8.69249 18.3 8.69549 18.3 8.69849C18.3 8.70149 18.3 8.70449 18.3 8.70749C18.3 8.71049 18.3 8.71348 18.3 8.71648C18.3 8.71948 18.3 8.72248 18.3 8.72548C18.3 8.72848 18.3 8.73147 18.3 8.73447C18.3 8.73747 18.3 8.74047 18.3 8.74346C18.3 8.74646 18.3 8.74945 18.3 8.75245C18.3 8.75545 18.3 8.75844 18.3 8.76144C18.3 8.76443 18.3 8.76743 18.3 8.77042C18.3 8.77341 18.3 8.77641 18.3 8.7794C18.3 8.7824 18.3 8.78539 18.3 8.78838C18.3 8.79138 18.3 8.79437 18.3 8.79736C18.3 8.80035 18.3 8.80334 18.3 8.80634C18.3 8.80933 18.3 8.81232 18.3 8.81531C18.3 8.8183 18.3 8.82129 18.3 8.82428C18.3 8.82727 18.3 8.83026 18.3 8.83325C18.3 8.83624 18.3 8.83923 18.3 8.84222C18.3 8.8452 18.3 8.84819 18.3 8.85118C18.3 8.85417 18.3 8.85716 18.3 8.86014C18.3 8.86313 18.3 8.86612 18.3 8.8691C18.3 8.87209 18.3 8.87507 18.3 8.87806C18.3 8.88105 18.3 8.88403 18.3 8.88702C18.3 8.89 18.3 8.89298 18.3 8.89597C18.3 8.89895 18.3 8.90194 18.3 8.90492C18.3 8.9079 18.3 8.91089 18.3 8.91387C18.3 8.91685 18.3 8.91983 18.3 8.92281C18.3 8.9258 18.3 8.92878 18.3 8.93176C18.3 8.93474 18.3 8.93772 18.3 8.9407C18.3 8.94368 18.3 8.94666 18.3 8.94964C18.3 8.95262 18.3 8.9556 18.3 8.95858C18.3 8.96156 18.3 8.96453 18.3 8.96751C18.3 8.97049 18.3 8.97347 18.3 8.97644C18.3 8.97942 18.3 8.9824 18.3 8.98537C18.3 8.98835 18.3 8.99133 18.3 8.9943C18.3 8.99728 18.3 9.00025 18.3 9.00323C18.3 9.0062 18.3 9.00918 18.3 9.01215C18.3 9.01512 18.3 9.0181 18.3 9.02107C18.3 9.02404 18.3 9.02702 18.3 9.02999C18.3 9.03296 18.3 9.03593 18.3 9.0389C18.3 9.04188 18.3 9.04485 18.3 9.04782C18.3 9.05079 18.3 9.05376 18.3 9.05673C18.3 9.0597 18.3 9.06267 18.3 9.06564C18.3 9.06861 18.3 9.07157 18.3 9.07454C18.3 9.07751 18.3 9.08048 18.3 9.08345C18.3 9.08641 18.3 9.08938 18.3 9.09235C18.3 9.09531 18.3 9.09828 18.3 9.10124C18.3 9.10421 18.3 9.10718 18.3 9.11014C18.3 9.11311 18.3 9.11607 18.3 9.11903C18.3 9.122 18.3 9.12496 18.3 9.12792C18.3 9.13089 18.3 9.13385 18.3 9.13681C18.3 9.13978 18.3 9.14274 18.3 9.1457C18.3 9.14866 18.3 9.15162 18.3 9.15458C18.3 9.15754 18.3 9.1605 18.3 9.16346C18.3 9.16642 18.3 9.16938 18.3 9.17234C18.3 9.1753 18.3 9.17826 18.3 9.18122C18.3 9.18417 18.3 9.18713 18.3 9.19009C18.3 9.19305 18.3 9.196 18.3 9.19896C18.3 9.20192 18.3 9.20487 18.3 9.20783C18.3 9.21078 18.3 9.21374 18.3 9.21669C18.3 9.21965 18.3 9.2226 18.3 9.22556C18.3 9.22851 18.3 9.23146 18.3 9.23442C18.3 9.23737 18.3 9.24032 18.3 9.24327C18.3 9.24623 18.3 9.24918 18.3 9.25213C18.3 9.25508 18.3 9.25803 18.3 9.26098C18.3 9.26393 18.3 9.26688 18.3 9.26983C18.3 9.27278 18.3 9.27573 18.3 9.27868C18.3 9.28162 18.3 9.28457 18.3 9.28752C18.3 9.29047 18.3 9.29342 18.3 9.29636C18.3 9.29931 18.3 9.30225 18.3 9.3052C18.3 9.30815 18.3 9.31109 18.3 9.31404C18.3 9.31698 18.3 9.31993 18.3 9.32287C18.3 9.32581 18.3 9.32876 18.3 9.3317C18.3 9.33464 18.3 9.33759 18.3 9.34053C18.3 9.34347 18.3 9.34641 18.3 9.34935C18.3 9.35229 18.3 9.35524 18.3 9.35818C18.3 9.36112 18.3 9.36406 18.3 9.36699C18.3 9.36993 18.3 9.37287 18.3 9.37581C18.3 9.37875 18.3 9.38169 18.3 9.38463C18.3 9.38756 18.3 9.3905 18.3 9.39344C18.3 9.39637 18.3 9.39931 18.3 9.40225C18.3 9.40518 18.3 9.40812 18.3 9.41105C18.3 9.41399 18.3 9.41692 18.3 9.41985C18.3 9.42279 18.3 9.42572 18.3 9.42865C18.3 9.43159 18.3 9.43452 18.3 9.43745C18.3 9.44038 18.3 9.44331 18.3 9.44624C18.3 9.44918 18.3 9.45211 18.3 9.45504C18.3 9.45797 18.3 9.4609 18.3 9.46382C18.3 9.46675 18.3 9.46968 18.3 9.47261C18.3 9.47554 18.3 9.47847 18.3 9.48139C18.3 9.48432 18.3 9.48725 18.3 9.49017C18.3 9.4931 18.3 9.49602 18.3 9.49895C18.3 9.50188 18.3 9.5048 18.3 9.50772C18.3 9.51065 18.3 9.51357 18.3 9.5165C18.3 9.51942 18.3 9.52234 18.3 9.52526C18.3 9.52819 18.3 9.53111 18.3 9.53403C18.3 9.53695 18.3 9.53987 18.3 9.54279C18.3 9.54571 18.3 9.54863 18.3 9.55155C18.3 9.55447 18.3 9.55739 18.3 9.56031C18.3 9.56322 18.3 9.56614 18.3 9.56906C18.3 9.57198 18.3 9.57489 18.3 9.57781C18.3 9.58073 18.3 9.58364 18.3 9.58656C18.3 9.58947 18.3 9.59239 18.3 9.5953C18.3 9.59822 18.3 9.60113 18.3 9.60404C18.3 9.60696 18.3 9.60987 18.3 9.61278C18.3 9.61569 18.3 9.61861 18.3 9.62152C18.3 9.62443 18.3 9.62734 18.3 9.63025C18.3 9.63316 18.3 9.63607 18.3 9.63898C18.3 9.64189 18.3 9.6448 18.3 9.64771C18.3 9.65061 18.3 9.65352 18.3 9.65643C18.3 9.65934 18.3 9.66224 18.3 9.66515C18.3 9.66805 18.3 9.67096 18.3 9.67387C18.3 9.67677 18.3 9.67968 18.3 9.68258C18.3 9.68548 18.3 9.68839 18.3 9.69129C18.3 9.69419 18.3 9.6971 18.3 9.7C18.3 9.7029 18.3 9.7058 18.3 9.7087C18.3 9.7116 18.3 9.7145 18.3 9.7174C18.3 9.7203 18.3 9.7232 18.3 9.7261C18.3 9.729 18.3 9.7319 18.3 9.7348C18.3 9.73769 18.3 9.74059 18.3 9.74349C18.3 9.74639 18.3 9.74928 18.3 9.75218C18.3 9.75507 18.3 9.75797 18.3 9.76086C18.3 9.76376 18.3 9.76665 18.3 9.76955C18.3 9.77244 18.3 9.77533 18.3 9.77822C18.3 9.78112 18.3 9.78401 18.3 9.7869C18.3 9.78979 18.3 9.79268 18.3 9.79557C18.3 9.79846 18.3 9.80135 18.3 9.80424C18.3 9.80713 18.3 9.81002 18.3 9.81291C18.3 9.8158 18.3 9.81869 18.3 9.82157C18.3 9.82446 18.3 9.82735 18.3 9.83023C18.3 9.83312 18.3 9.836 18.3 9.83889C18.3 9.84177 18.3 9.84466 18.3 9.84754C18.3 9.85043 18.3 9.85331 18.3 9.85619C18.3 9.85907 18.3 9.86196 18.3 9.86484C18.3 9.86772 18.3 9.8706 18.3 9.87348C18.3 9.87636 18.3 9.87924 18.3 9.88212C18.3 9.885 18.3 9.88788 18.3 9.89076C18.3 9.89364 18.3 9.89651 18.3 9.89939C18.3 9.90227 18.3 9.90515 18.3 9.90802C18.3 9.9109 18.3 9.91377 18.3 9.91665C18.3 9.91952 18.3 9.9224 18.3 9.92527C18.3 9.92815 18.3 9.93102 18.3 9.93389C18.3 9.93677 18.3 9.93964 18.3 9.94251C18.3 9.94538 18.3 9.94825 18.3 9.95112C18.3 9.95399 18.3 9.95686 18.3 9.95973C18.3 9.9626 18.3 9.96547 18.3 9.96834C18.3 9.97121 18.3 9.97407 18.3 9.97694C18.3 9.97981 18.3 9.98268 18.3 9.98554C18.3 9.98841 18.3 9.99127 18.3 9.99414C18.3 9.997 18.3 9.99987 18.3 10.0027C18.3 10.0056 18.3 10.0085 18.3 10.0113C18.3 10.0142 18.3 10.017 18.3 10.0199C18.3 10.0228 18.3 10.0256 18.3 10.0285C18.3 10.0313 18.3 10.0342 18.3 10.0371C18.3 10.0399 18.3 10.0428 18.3 10.0456C18.3 10.0485 18.3 10.0514 18.3 10.0542C18.3 10.0571 18.3 10.0599 18.3 10.0628C18.3 10.0656 18.3 10.0685 18.3 10.0713C18.3 10.0742 18.3 10.0771 18.3 10.0799C18.3 10.0828 18.3 10.0856 18.3 10.0885C18.3 10.0913 18.3 10.0942 18.3 10.097C18.3 10.0999 18.3 10.1027 18.3 10.1056C18.3 10.1084 18.3 10.1113 18.3 10.1141C18.3 10.117 18.3 10.1198 18.3 10.1227C18.3 10.1255 18.3 10.1284 18.3 10.1312C18.3 10.134 18.3 10.1369 18.3 10.1397C18.3 10.1426 18.3 10.1454 18.3 10.1483C18.3 10.1511 18.3 10.154 18.3 10.1568C18.3 10.1596 18.3 10.1625 18.3 10.1653C18.3 10.1682 18.3 10.171 18.3 10.1738C18.3 10.1767 18.3 10.1795 18.3 10.1824C18.3 10.1852 18.3 10.188 18.3 10.1909C18.3 10.1937 18.3 10.1966 18.3 10.1994C18.3 10.2022 18.3 10.2051 18.3 10.2079C18.3 10.2107 18.3 10.2136 18.3 10.2164C18.3 10.2192 18.3 10.2221 18.3 10.2249C18.3 10.2277 18.3 10.2306 18.3 10.2334C18.3 10.2362 18.3 10.2391 18.3 10.2419C18.3 10.2447 18.3 10.2476 18.3 10.2504C18.3 10.2532 18.3 10.256 18.3 10.2589C18.3 10.2617 18.3 10.2645 18.3 10.2673C18.3 10.2702 18.3 10.273 18.3 10.2758C18.3 10.2787 18.3 10.2815 18.3 10.2843C18.3 10.2871 18.3 10.2899 18.3 10.2928C18.3 10.2956 18.3 10.2984 18.3 10.3012C18.3 10.3041 18.3 10.3069 18.3 10.3097C18.3 10.3125 18.3 10.3153 18.3 10.3182C18.3 10.321 18.3 10.3238 18.3 10.3266C18.3 10.3294 18.3 10.3322 18.3 10.3351C18.3 10.3379 18.3 10.3407 18.3 10.3435C18.3 10.3463 18.3 10.3491 18.3 10.352C18.3 10.3548 18.3 10.3576 18.3 10.3604C18.3 10.3632 18.3 10.366 18.3 10.3688C18.3 10.3716 18.3 10.3745 18.3 10.3773C18.3 10.3801 18.3 10.3829 18.3 10.3857C18.3 10.3885 18.3 10.3913 18.3 10.3941C18.3 10.3969 18.3 10.3997 18.3 10.4025C18.3 10.4053 18.3 10.4081 18.3 10.411C18.3 10.4138 18.3 10.4166 18.3 10.4194C18.3 10.4222 18.3 10.425 18.3 10.4278C18.3 10.4306 18.3 10.4334 18.3 10.4362C18.3 10.439 18.3 10.4418 18.3 10.4446C18.3 10.4474 18.3 10.4502 18.3 10.453C18.3 10.4558 18.3 10.4586 18.3 10.4614C18.3 10.4642 18.3 10.467 18.3 10.4698C18.3 10.4726 18.3 10.4754 18.3 10.4781C18.3 10.4809 18.3 10.4837 18.3 10.4865C18.3 10.4893 18.3 10.4921 18.3 10.4949C18.3 10.4977 18.3 10.5005 18.3 10.5033C18.3 10.5061 18.3 10.5089 18.3 10.5116C18.3 10.5144 18.3 10.5172 18.3 10.52C18.3 10.5228 18.3 10.5256 18.3 10.5284C18.3 10.5312 18.3 10.5339 18.3 10.5367C18.3 10.5395 18.3 10.5423 18.3 10.5451C18.3 10.5479 18.3 10.5507 18.3 10.5534C18.3 10.5562 18.3 10.559 18.3 10.5618C18.3 10.5646 18.3 10.5673 18.3 10.5701C18.3 10.5729 18.3 10.5757 18.3 10.5785C18.3 10.5812 18.3 10.584 18.3 10.5868C18.3 10.5896 18.3 10.5923 18.3 10.5951C18.3 10.5979 18.3 10.6007 18.3 10.6034C18.3 10.6062 18.3 10.609 18.3 10.6118C18.3 10.6145 18.3 10.6173 18.3 10.6201C18.3 10.6229 18.3 10.6256 18.3 10.6284C18.3 10.6312 18.3 10.6339 18.3 10.6367C18.3 10.6395 18.3 10.6422 18.3 10.645C18.3 10.6478 18.3 10.6505 18.3 10.6533C18.3 10.6561 18.3 10.6588 18.3 10.6616C18.3 10.6644 18.3 10.6671 18.3 10.6699C18.3 10.6727 18.3 10.6754 18.3 10.6782C18.3 10.6809 18.3 10.6837 18.3 10.6865C18.3 10.6892 18.3 10.692 18.3 10.6947C18.3 10.6975 18.3 10.7003 18.3 10.703C18.3 10.7058 18.3 10.7085 18.3 10.7113C18.3 10.714 18.3 10.7168 18.3 10.7196C18.3 10.7223 18.3 10.7251 18.3 10.7278C18.3 10.7306 18.3 10.7333 18.3 10.7361C18.3 10.7388 18.3 10.7416 18.3 10.7443C18.3 10.7471 18.3 10.7498 18.3 10.7526C18.3 10.7553 18.3 10.7581 18.3 10.7608C18.3 10.7636 18.3 10.7663 18.3 10.7691C18.3 10.7718 18.3 10.7746 18.3 10.7773C18.3 10.78 18.3 10.7828 18.3 10.7855C18.3 10.7883 18.3 10.791 18.3 10.7938C18.3 10.7965 18.3 10.7992 18.3 10.802C18.3 10.8047 18.3 10.8075 18.3 10.8102C18.3 10.8129 18.3 10.8157 18.3 10.8184C18.3 10.8212 18.3 10.8239 18.3 10.8266C18.3 10.8294 18.3 10.8321 18.3 10.8348C18.3 10.8376 18.3 10.8403 18.3 10.843C18.3 10.8458 18.3 10.8485 18.3 10.8512C18.3 10.854 18.3 10.8567 18.3 10.8594C18.3 10.8622 18.3 10.8649 18.3 10.8676C18.3 10.8703 18.3 10.8731 18.3 10.8758C18.3 10.8785 18.3 10.8813 18.3 10.884C18.3 10.8867 18.3 10.8894 18.3 10.8922C18.3 10.8949 18.3 10.8976 18.3 10.9003C18.3 10.9031 18.3 10.9058 18.3 10.9085C18.3 10.9112 18.3 10.9139 18.3 10.9167C18.3 10.9194 18.3 10.9221 18.3 10.9248C18.3 10.9275 18.3 10.9303 18.3 10.933C18.3 10.9357 18.3 10.9384 18.3 10.9411C18.3 10.9438 18.3 10.9465 18.3 10.9493C18.3 10.952 18.3 10.9547 18.3 10.9574C18.3 10.9601 18.3 10.9628 18.3 10.9655C18.3 10.9682 18.3 10.971 18.3 10.9737C18.3 10.9764 18.3 10.9791 18.3 10.9818C18.3 10.9845 18.3 10.9872 18.3 10.9899C18.3 10.9926 18.3 10.9953 18.3 10.998C18.3 11.0007 18.3 11.0034 18.3 11.0061C18.3 11.0088 18.3 11.0116 18.3 11.0143C18.3 11.017 18.3 11.0197 18.3 11.0224C18.3 11.0251 18.3 11.0278 18.3 11.0305C18.3 11.0332 18.3 11.0359 18.3 11.0385C18.3 11.0412 18.3 11.0439 18.3 11.0466C18.3 11.0493 18.3 11.052 18.3 11.0547C18.3 11.0574 18.3 11.0601 18.3 11.0628C18.3 11.0655 18.3 11.0682 18.3 11.0709C18.3 11.0736 18.3 11.0763 18.3 11.079C18.3 11.0816 18.3 11.0843 18.3 11.087C18.3 11.0897 18.3 11.0924 18.3 11.0951C18.3 11.0978 18.3 11.1005 18.3 11.1031C18.3 11.1058 18.3 11.1085 18.3 11.1112C18.3 11.1139 18.3 11.1166 18.3 11.1192C18.3 11.1219 18.3 11.1246 18.3 11.1273C18.3 11.13 18.3 11.1326 18.3 11.1353C18.3 11.138 18.3 11.1407 18.3 11.1434C18.3 11.146 18.3 11.1487 18.3 11.1514C18.3 11.1541 18.3 11.1567 18.3 11.1594C18.3 11.1621 18.3 11.1648 18.3 11.1674C18.3 11.1701 18.3 11.1728 18.3 11.1754C18.3 11.1781 18.3 11.1808 18.3 11.1835C18.3 11.1861 18.3 11.1888 18.3 11.1915C18.3 11.1941 18.3 11.1968 18.3 11.1995C18.3 11.2021 18.3 11.2048 18.3 11.2075C18.3 11.2101 18.3 11.2128 18.3 11.2154C18.3 11.2181 18.3 11.2208 18.3 11.2234C18.3 11.2261 18.3 11.2288 18.3 11.2314C18.3 11.2341 18.3 11.2367 18.3 11.2394C18.3 11.242 18.3 11.2447 18.3 11.2474C18.3 11.25 18.3 11.2527 18.3 11.2553C18.3 11.258 18.3 11.2606 18.3 11.2633C18.3 11.2659 18.3 11.2686 18.3 11.2712C18.3 11.2739 18.3 11.2765 18.3 11.2792C18.3 11.2818 18.3 11.2845 18.3 11.2871C18.3 11.2898 18.3 11.2924 18.3 11.2951C18.3 11.2977 18.3 11.3004 18.3 11.303C18.3 11.3057 18.3 11.3083 18.3 11.311C18.3 11.3136 18.3 11.3162 18.3 11.3189C18.3 11.3215 18.3 11.3242 18.3 11.3268C18.3 11.3294 18.3 11.3321 18.3 11.3347C18.3 11.3374 18.3 11.34 18.3 11.3426C18.3 11.3453 18.3 11.3479 18.3 11.3505C18.3 11.3532 18.3 11.3558 18.3 11.3584C18.3 11.3611 18.3 11.3637 18.3 11.3663C18.3 11.369 18.3 11.3716 18.3 11.3742C18.3 11.3769 18.3 11.3795 18.3 11.3821C18.3 11.3848 18.3 11.3874 18.3 11.39C18.3 11.3926 18.3 11.3953 18.3 11.3979C18.3 11.4005 18.3 11.4031 18.3 11.4058C18.3 11.4084 18.3 11.411 18.3 11.4136C18.3 11.4163 18.3 11.4189 18.3 11.4215C18.3 11.4241 18.3 11.4267 18.3 11.4294C18.3 11.432 18.3 11.4346 18.3 11.4372C18.3 11.4398 18.3 11.4424 18.3 11.4451C18.3 11.4477 18.3 11.4503 18.3 11.4529C18.3 11.4555 18.3 11.4581 18.3 11.4607C18.3 11.4633 18.3 11.466 18.3 11.4686C18.3 11.4712 18.3 11.4738 18.3 11.4764C18.3 11.479 18.3 11.4816 18.3 11.4842C18.3 11.4868 18.3 11.4894 18.3 11.492C18.3 11.4946 18.3 11.4972 18.3 11.4998C18.3 11.5024 18.3 11.5051 18.3 11.5077C18.3 11.5103 18.3 11.5129 18.3 11.5155C18.3 11.5181 18.3 11.5207 18.3 11.5233C18.3 11.5258 18.3 11.5284 18.3 11.531C18.3 11.5336 18.3 11.5362 18.3 11.5388C18.3 11.5414 18.3 11.544 18.3 11.5466C18.3 11.5492 18.3 11.5518 18.3 11.5544C18.3 11.557 18.3 11.5596 18.3 11.5622C18.3 11.5647 18.3 11.5673 18.3 11.5699C18.3 11.5725 18.3 11.5751 18.3 11.5777C18.3 11.5803 18.3 11.5829 18.3 11.5854C18.3 11.588 18.3 11.5906 18.3 11.5932C18.3 11.5958 18.3 11.5984 18.3 11.6009C18.3 11.6035 18.3 11.6061 18.3 11.6087C18.3 11.6113 18.3 11.6138 18.3 11.6164C18.3 11.619 18.3 11.6216 18.3 11.6241C18.3 11.6267 18.3 11.6293 18.3 11.6319C18.3 11.6344 18.3 11.637 18.3 11.6396C18.3 11.6421 18.3 11.6447 18.3 11.6473C18.3 11.6499 18.3 11.6524 18.3 11.655C18.3 11.6576 18.3 11.6601 18.3 11.6627C18.3 11.6653 18.3 11.6678 18.3 11.6704C18.3 11.673 18.3 11.6755 18.3 11.6781C18.3 11.6807 18.3 11.6832 18.3 11.6858C18.3 11.6883 18.3 11.6909 18.3 11.6935C18.3 11.696 18.3 11.6986 18.3 11.7011C18.3 11.7037 18.3 11.7062 18.3 11.7088C18.3 11.7114 18.3 11.7139 18.3 11.7165C18.3 11.719 18.3 11.7216 18.3 11.7241C18.3 11.7267 18.3 11.7292 18.3 11.7318C18.3 11.7343 18.3 11.7369 18.3 11.7394C18.3 11.742 18.3 11.7445 18.3 11.7471C18.3 11.7496 18.3 11.7522 18.3 11.7547C18.3 11.7573 18.3 11.7598 18.3 11.7623C18.3 11.7649 18.3 11.7674 18.3 11.77C18.3 11.7725 18.3 11.7751 18.3 11.7776C18.3 11.7801 18.3 11.7827 18.3 11.7852C18.3 11.7877 18.3 11.7903 18.3 11.7928C18.3 11.7954 18.3 11.7979 18.3 11.8004C18.3 11.803 18.3 11.8055 18.3 11.808C18.3 11.8106 18.3 11.8131 18.3 11.8156C18.3 11.8181 18.3 11.8207 18.3 11.8232C18.3 11.8257 18.3 11.8283 18.3 11.8308C18.3 11.8333 18.3 11.8358 18.3 11.8384C18.3 11.8409 18.3 11.8434 18.3 11.8459C18.3 11.8485 18.3 11.851 18.3 11.8535C18.3 11.856 18.3 11.8585 18.3 11.8611C18.3 11.8636 18.3 11.8661 18.3 11.8686C18.3 11.8711 18.3 11.8737 18.3 11.8762C18.3 11.8787 18.3 11.8812 18.3 11.8837C18.3 11.8862 18.3 11.8887 18.3 11.8912C18.3 11.8938 18.3 11.8963 18.3 11.8988C18.3 11.9013 18.3 11.9038 18.3 11.9063C18.3 11.9088 18.3 11.9113 18.3 11.9138C18.3 11.9163 18.3 11.9188 18.3 11.9213C18.3 11.9239 18.3 11.9264 18.3 11.9289C18.3 11.9314 18.3 11.9339 18.3 11.9364C18.3 11.9389 18.3 11.9414 18.3 11.9439C18.3 11.9464 18.3 11.9489 18.3 11.9514C18.3 11.9538 18.3 11.9563 18.3 11.9588C18.3 11.9613 18.3 11.9638 18.3 11.9663C18.3 11.9688 18.3 11.9713 18.3 11.9738C18.3 11.9763 18.3 11.9788 18.3 11.9813C18.3 11.9838 18.3 11.9862 18.3 11.9887C18.3 11.9912 18.3 11.9937 18.3 11.9962C18.3 11.9987 18.3 12.0012 18.3 12.0036C18.3 12.0061 18.3 12.0086 18.3 12.0111C18.3 12.0136 18.3 12.0161 18.3 12.0185C18.3 12.021 18.3 12.0235 18.3 12.026C18.3 12.0284 18.3 12.0309 18.3 12.0334C18.3 12.0359 18.3 12.0384 18.3 12.0408C18.3 12.0433 18.3 12.0458 18.3 12.0482C18.3 12.0507 18.3 12.0532 18.3 12.0557C18.3 12.0581 18.3 12.0606 18.3 12.0631C18.3 12.0655 18.3 12.068 18.3 12.0705C18.3 12.0729 18.3 12.0754 18.3 12.0779C18.3 12.0803 18.3 12.0828 18.3 12.0852C18.3 12.0877 18.3 12.0902 18.3 12.0926C18.3 12.0951 18.3 12.0976 18.3 12.1C18.3 12.1025 18.3 12.1049 18.3 12.1074C18.3 12.1098 18.3 12.1123 18.3 12.1147C18.3 12.1172 18.3 12.1197 18.3 12.1221C18.3 12.1246 18.3 12.127 18.3 12.1295C18.3 12.1319 18.3 12.1344 18.3 12.1368C18.3 12.1393 18.3 12.1417 18.3 12.1442C18.3 12.1466 18.3 12.149 18.3 12.1515C18.3 12.1539 18.3 12.1564 18.3 12.1588C18.3 12.1613 18.3 12.1637 18.3 12.1661C18.3 12.1686 18.3 12.171 18.3 12.1735C18.3 12.1759 18.3 12.1783 18.3 12.1808C18.3 12.1832 18.3 12.1856 18.3 12.1881C18.3 12.1905 18.3 12.193 18.3 12.1954C18.3 12.1978 18.3 12.2002 18.3 12.2027C18.3 12.2051 18.3 12.2075 18.3 12.21C18.3 12.2124 18.3 12.2148 18.3 12.2173C18.3 12.2197 18.3 12.2221 18.3 12.2245C18.3 12.227 18.3 12.2294 18.3 12.2318C18.3 12.2342 18.3 12.2366 18.3 12.2391C18.3 12.2415 18.3 12.2439 18.3 12.2463C18.3 12.2487 18.3 12.2512 18.3 12.2536C18.3 12.256 18.3 12.2584 18.3 12.2608C18.3 12.2632 18.3 12.2656 18.3 12.2681C18.3 12.2705 18.3 12.2729 18.3 12.2753C18.3 12.2777 18.3 12.2801 18.3 12.2825C18.3 12.2849 18.3 12.2873 18.3 12.2897C18.3 12.2922 18.3 12.2946 18.3 12.297C18.3 12.2994 18.3 12.3018 18.3 12.3042C18.3 12.3066 18.3 12.309 18.3 12.3114C18.3 12.3138 18.3 12.3162 18.3 12.3186C18.3 12.321 18.3 12.3234 18.3 12.3258C18.3 12.3282 18.3 12.3306 18.3 12.3329C18.3 12.3353 18.3 12.3377 18.3 12.3401C18.3 12.3425 18.3 12.3449 18.3 12.3473C18.3 12.3497 18.3 12.3521 18.3 12.3545C18.3 12.3569 18.3 12.3592 18.3 12.3616C18.3 12.364 18.3 12.3664 18.3 12.3688C18.3 12.3712 18.3 12.3735 18.3 12.3759C18.3 12.3783 18.3 12.3807 18.3 12.3831C18.3 12.3855 18.3 12.3878 18.3 12.3902C18.3 12.3926 18.3 12.395 18.3 12.3973C18.3 12.3997 18.3 12.4021 18.3 12.4045C18.3 12.4068 18.3 12.4092 18.3 12.4116C18.3 12.4139 18.3 12.4163 18.3 12.4187C18.3 12.4211 18.3 12.4234 18.3 12.4258C18.3 12.4282 18.3 12.4305 18.3 12.4329C18.3 12.4353 18.3 12.4376 18.3 12.44C18.3 12.4423 18.3 12.4447 18.3 12.4471C18.3 12.4494 18.3 12.4518 18.3 12.4541C18.3 12.4565 18.3 12.4589 18.3 12.4612C18.3 12.4636 18.3 12.4659 18.3 12.4683C18.3 12.4706 18.3 12.473 18.3 12.4753C18.3 12.4777 18.3 12.4801 18.3 12.4824C18.3 12.4848 18.3 12.4871 18.3 12.4894C18.3 12.4918 18.3 12.4941 18.3 12.4965C18.3 12.4988 18.3 12.5012 18.3 12.5035C18.3 12.5059 18.3 12.5082 18.3 12.5106C18.3 12.5129 18.3 12.5152 18.3 12.5176C18.3 12.5199 18.3 12.5223 18.3 12.5246C18.3 12.5269 18.3 12.5293 18.3 12.5316C18.3 12.5339 18.3 12.5363 18.3 12.5386C18.3 12.5409 18.3 12.5433 18.3 12.5456C18.3 12.5479 18.3 12.5503 18.3 12.5526C18.3 12.5549 18.3 12.5572 18.3 12.5596C18.3 12.5619 18.3 12.5642 18.3 12.5665C18.3 12.5689 18.3 12.5712 18.3 12.5735C18.3 12.5758 18.3 12.5782 18.3 12.5805C18.3 12.5828 18.3 12.5851 18.3 12.5874C18.3 12.5898 18.3 12.5921 18.3 12.5944C18.3 12.5967 18.3 12.599 18.3 12.6013C18.3 12.6036 18.3 12.606 18.3 12.6083C18.3 12.6106 18.3 12.6129 18.3 12.6152C18.3 12.6175 18.3 12.6198 18.3 12.6221C18.3 12.6244 18.3 12.6267 18.3 12.629C18.3 12.6314 18.3 12.6337 18.3 12.636C18.3 12.6383 18.3 12.6406 18.3 12.6429C18.3 12.6452 18.3 12.6475 18.3 12.6498C18.3 12.6521 18.3 12.6544 18.3 12.6567C18.3 12.659 18.3 12.6612 18.3 12.6635C18.3 12.6658 18.3 12.6681 18.3 12.6704C18.3 12.6727 18.3 12.675 18.3 12.6773H19.7C19.7 12.675 19.7 12.6727 19.7 12.6704C19.7 12.6681 19.7 12.6658 19.7 12.6635C19.7 12.6612 19.7 12.659 19.7 12.6567C19.7 12.6544 19.7 12.6521 19.7 12.6498C19.7 12.6475 19.7 12.6452 19.7 12.6429C19.7 12.6406 19.7 12.6383 19.7 12.636C19.7 12.6337 19.7 12.6314 19.7 12.629C19.7 12.6267 19.7 12.6244 19.7 12.6221C19.7 12.6198 19.7 12.6175 19.7 12.6152C19.7 12.6129 19.7 12.6106 19.7 12.6083C19.7 12.606 19.7 12.6036 19.7 12.6013C19.7 12.599 19.7 12.5967 19.7 12.5944C19.7 12.5921 19.7 12.5898 19.7 12.5874C19.7 12.5851 19.7 12.5828 19.7 12.5805C19.7 12.5782 19.7 12.5758 19.7 12.5735C19.7 12.5712 19.7 12.5689 19.7 12.5665C19.7 12.5642 19.7 12.5619 19.7 12.5596C19.7 12.5572 19.7 12.5549 19.7 12.5526C19.7 12.5503 19.7 12.5479 19.7 12.5456C19.7 12.5433 19.7 12.5409 19.7 12.5386C19.7 12.5363 19.7 12.5339 19.7 12.5316C19.7 12.5293 19.7 12.5269 19.7 12.5246C19.7 12.5223 19.7 12.5199 19.7 12.5176C19.7 12.5152 19.7 12.5129 19.7 12.5106C19.7 12.5082 19.7 12.5059 19.7 12.5035C19.7 12.5012 19.7 12.4988 19.7 12.4965C19.7 12.4941 19.7 12.4918 19.7 12.4894C19.7 12.4871 19.7 12.4848 19.7 12.4824C19.7 12.4801 19.7 12.4777 19.7 12.4753C19.7 12.473 19.7 12.4706 19.7 12.4683C19.7 12.4659 19.7 12.4636 19.7 12.4612C19.7 12.4589 19.7 12.4565 19.7 12.4541C19.7 12.4518 19.7 12.4494 19.7 12.4471C19.7 12.4447 19.7 12.4423 19.7 12.44C19.7 12.4376 19.7 12.4353 19.7 12.4329C19.7 12.4305 19.7 12.4282 19.7 12.4258C19.7 12.4234 19.7 12.4211 19.7 12.4187C19.7 12.4163 19.7 12.4139 19.7 12.4116C19.7 12.4092 19.7 12.4068 19.7 12.4045C19.7 12.4021 19.7 12.3997 19.7 12.3973C19.7 12.395 19.7 12.3926 19.7 12.3902C19.7 12.3878 19.7 12.3855 19.7 12.3831C19.7 12.3807 19.7 12.3783 19.7 12.3759C19.7 12.3735 19.7 12.3712 19.7 12.3688C19.7 12.3664 19.7 12.364 19.7 12.3616C19.7 12.3592 19.7 12.3569 19.7 12.3545C19.7 12.3521 19.7 12.3497 19.7 12.3473C19.7 12.3449 19.7 12.3425 19.7 12.3401C19.7 12.3377 19.7 12.3353 19.7 12.3329C19.7 12.3306 19.7 12.3282 19.7 12.3258C19.7 12.3234 19.7 12.321 19.7 12.3186C19.7 12.3162 19.7 12.3138 19.7 12.3114C19.7 12.309 19.7 12.3066 19.7 12.3042C19.7 12.3018 19.7 12.2994 19.7 12.297C19.7 12.2946 19.7 12.2922 19.7 12.2897C19.7 12.2873 19.7 12.2849 19.7 12.2825C19.7 12.2801 19.7 12.2777 19.7 12.2753C19.7 12.2729 19.7 12.2705 19.7 12.2681C19.7 12.2656 19.7 12.2632 19.7 12.2608C19.7 12.2584 19.7 12.256 19.7 12.2536C19.7 12.2512 19.7 12.2487 19.7 12.2463C19.7 12.2439 19.7 12.2415 19.7 12.2391C19.7 12.2366 19.7 12.2342 19.7 12.2318C19.7 12.2294 19.7 12.227 19.7 12.2245C19.7 12.2221 19.7 12.2197 19.7 12.2173C19.7 12.2148 19.7 12.2124 19.7 12.21C19.7 12.2075 19.7 12.2051 19.7 12.2027C19.7 12.2002 19.7 12.1978 19.7 12.1954C19.7 12.193 19.7 12.1905 19.7 12.1881C19.7 12.1856 19.7 12.1832 19.7 12.1808C19.7 12.1783 19.7 12.1759 19.7 12.1735C19.7 12.171 19.7 12.1686 19.7 12.1661C19.7 12.1637 19.7 12.1613 19.7 12.1588C19.7 12.1564 19.7 12.1539 19.7 12.1515C19.7 12.149 19.7 12.1466 19.7 12.1442C19.7 12.1417 19.7 12.1393 19.7 12.1368C19.7 12.1344 19.7 12.1319 19.7 12.1295C19.7 12.127 19.7 12.1246 19.7 12.1221C19.7 12.1197 19.7 12.1172 19.7 12.1147C19.7 12.1123 19.7 12.1098 19.7 12.1074C19.7 12.1049 19.7 12.1025 19.7 12.1C19.7 12.0976 19.7 12.0951 19.7 12.0926C19.7 12.0902 19.7 12.0877 19.7 12.0852C19.7 12.0828 19.7 12.0803 19.7 12.0779C19.7 12.0754 19.7 12.0729 19.7 12.0705C19.7 12.068 19.7 12.0655 19.7 12.0631C19.7 12.0606 19.7 12.0581 19.7 12.0557C19.7 12.0532 19.7 12.0507 19.7 12.0482C19.7 12.0458 19.7 12.0433 19.7 12.0408C19.7 12.0384 19.7 12.0359 19.7 12.0334C19.7 12.0309 19.7 12.0284 19.7 12.026C19.7 12.0235 19.7 12.021 19.7 12.0185C19.7 12.0161 19.7 12.0136 19.7 12.0111C19.7 12.0086 19.7 12.0061 19.7 12.0036C19.7 12.0012 19.7 11.9987 19.7 11.9962C19.7 11.9937 19.7 11.9912 19.7 11.9887C19.7 11.9862 19.7 11.9838 19.7 11.9813C19.7 11.9788 19.7 11.9763 19.7 11.9738C19.7 11.9713 19.7 11.9688 19.7 11.9663C19.7 11.9638 19.7 11.9613 19.7 11.9588C19.7 11.9563 19.7 11.9538 19.7 11.9514C19.7 11.9489 19.7 11.9464 19.7 11.9439C19.7 11.9414 19.7 11.9389 19.7 11.9364C19.7 11.9339 19.7 11.9314 19.7 11.9289C19.7 11.9264 19.7 11.9239 19.7 11.9213C19.7 11.9188 19.7 11.9163 19.7 11.9138C19.7 11.9113 19.7 11.9088 19.7 11.9063C19.7 11.9038 19.7 11.9013 19.7 11.8988C19.7 11.8963 19.7 11.8938 19.7 11.8912C19.7 11.8887 19.7 11.8862 19.7 11.8837C19.7 11.8812 19.7 11.8787 19.7 11.8762C19.7 11.8737 19.7 11.8711 19.7 11.8686C19.7 11.8661 19.7 11.8636 19.7 11.8611C19.7 11.8585 19.7 11.856 19.7 11.8535C19.7 11.851 19.7 11.8485 19.7 11.8459C19.7 11.8434 19.7 11.8409 19.7 11.8384C19.7 11.8358 19.7 11.8333 19.7 11.8308C19.7 11.8283 19.7 11.8257 19.7 11.8232C19.7 11.8207 19.7 11.8181 19.7 11.8156C19.7 11.8131 19.7 11.8106 19.7 11.808C19.7 11.8055 19.7 11.803 19.7 11.8004C19.7 11.7979 19.7 11.7954 19.7 11.7928C19.7 11.7903 19.7 11.7877 19.7 11.7852C19.7 11.7827 19.7 11.7801 19.7 11.7776C19.7 11.7751 19.7 11.7725 19.7 11.77C19.7 11.7674 19.7 11.7649 19.7 11.7623C19.7 11.7598 19.7 11.7573 19.7 11.7547C19.7 11.7522 19.7 11.7496 19.7 11.7471C19.7 11.7445 19.7 11.742 19.7 11.7394C19.7 11.7369 19.7 11.7343 19.7 11.7318C19.7 11.7292 19.7 11.7267 19.7 11.7241C19.7 11.7216 19.7 11.719 19.7 11.7165C19.7 11.7139 19.7 11.7114 19.7 11.7088C19.7 11.7062 19.7 11.7037 19.7 11.7011C19.7 11.6986 19.7 11.696 19.7 11.6935C19.7 11.6909 19.7 11.6883 19.7 11.6858C19.7 11.6832 19.7 11.6807 19.7 11.6781C19.7 11.6755 19.7 11.673 19.7 11.6704C19.7 11.6678 19.7 11.6653 19.7 11.6627C19.7 11.6601 19.7 11.6576 19.7 11.655C19.7 11.6524 19.7 11.6499 19.7 11.6473C19.7 11.6447 19.7 11.6421 19.7 11.6396C19.7 11.637 19.7 11.6344 19.7 11.6319C19.7 11.6293 19.7 11.6267 19.7 11.6241C19.7 11.6216 19.7 11.619 19.7 11.6164C19.7 11.6138 19.7 11.6113 19.7 11.6087C19.7 11.6061 19.7 11.6035 19.7 11.6009C19.7 11.5984 19.7 11.5958 19.7 11.5932C19.7 11.5906 19.7 11.588 19.7 11.5854C19.7 11.5829 19.7 11.5803 19.7 11.5777C19.7 11.5751 19.7 11.5725 19.7 11.5699C19.7 11.5673 19.7 11.5647 19.7 11.5622C19.7 11.5596 19.7 11.557 19.7 11.5544C19.7 11.5518 19.7 11.5492 19.7 11.5466C19.7 11.544 19.7 11.5414 19.7 11.5388C19.7 11.5362 19.7 11.5336 19.7 11.531C19.7 11.5284 19.7 11.5258 19.7 11.5233C19.7 11.5207 19.7 11.5181 19.7 11.5155C19.7 11.5129 19.7 11.5103 19.7 11.5077C19.7 11.5051 19.7 11.5024 19.7 11.4998C19.7 11.4972 19.7 11.4946 19.7 11.492C19.7 11.4894 19.7 11.4868 19.7 11.4842C19.7 11.4816 19.7 11.479 19.7 11.4764C19.7 11.4738 19.7 11.4712 19.7 11.4686C19.7 11.466 19.7 11.4633 19.7 11.4607C19.7 11.4581 19.7 11.4555 19.7 11.4529C19.7 11.4503 19.7 11.4477 19.7 11.4451C19.7 11.4424 19.7 11.4398 19.7 11.4372C19.7 11.4346 19.7 11.432 19.7 11.4294C19.7 11.4267 19.7 11.4241 19.7 11.4215C19.7 11.4189 19.7 11.4163 19.7 11.4136C19.7 11.411 19.7 11.4084 19.7 11.4058C19.7 11.4031 19.7 11.4005 19.7 11.3979C19.7 11.3953 19.7 11.3926 19.7 11.39C19.7 11.3874 19.7 11.3848 19.7 11.3821C19.7 11.3795 19.7 11.3769 19.7 11.3742C19.7 11.3716 19.7 11.369 19.7 11.3663C19.7 11.3637 19.7 11.3611 19.7 11.3584C19.7 11.3558 19.7 11.3532 19.7 11.3505C19.7 11.3479 19.7 11.3453 19.7 11.3426C19.7 11.34 19.7 11.3374 19.7 11.3347C19.7 11.3321 19.7 11.3294 19.7 11.3268C19.7 11.3242 19.7 11.3215 19.7 11.3189C19.7 11.3162 19.7 11.3136 19.7 11.311C19.7 11.3083 19.7 11.3057 19.7 11.303C19.7 11.3004 19.7 11.2977 19.7 11.2951C19.7 11.2924 19.7 11.2898 19.7 11.2871C19.7 11.2845 19.7 11.2818 19.7 11.2792C19.7 11.2765 19.7 11.2739 19.7 11.2712C19.7 11.2686 19.7 11.2659 19.7 11.2633C19.7 11.2606 19.7 11.258 19.7 11.2553C19.7 11.2527 19.7 11.25 19.7 11.2474C19.7 11.2447 19.7 11.242 19.7 11.2394C19.7 11.2367 19.7 11.2341 19.7 11.2314C19.7 11.2288 19.7 11.2261 19.7 11.2234C19.7 11.2208 19.7 11.2181 19.7 11.2154C19.7 11.2128 19.7 11.2101 19.7 11.2075C19.7 11.2048 19.7 11.2021 19.7 11.1995C19.7 11.1968 19.7 11.1941 19.7 11.1915C19.7 11.1888 19.7 11.1861 19.7 11.1835C19.7 11.1808 19.7 11.1781 19.7 11.1754C19.7 11.1728 19.7 11.1701 19.7 11.1674C19.7 11.1648 19.7 11.1621 19.7 11.1594C19.7 11.1567 19.7 11.1541 19.7 11.1514C19.7 11.1487 19.7 11.146 19.7 11.1434C19.7 11.1407 19.7 11.138 19.7 11.1353C19.7 11.1326 19.7 11.13 19.7 11.1273C19.7 11.1246 19.7 11.1219 19.7 11.1192C19.7 11.1166 19.7 11.1139 19.7 11.1112C19.7 11.1085 19.7 11.1058 19.7 11.1031C19.7 11.1005 19.7 11.0978 19.7 11.0951C19.7 11.0924 19.7 11.0897 19.7 11.087C19.7 11.0843 19.7 11.0816 19.7 11.079C19.7 11.0763 19.7 11.0736 19.7 11.0709C19.7 11.0682 19.7 11.0655 19.7 11.0628C19.7 11.0601 19.7 11.0574 19.7 11.0547C19.7 11.052 19.7 11.0493 19.7 11.0466C19.7 11.0439 19.7 11.0412 19.7 11.0385C19.7 11.0359 19.7 11.0332 19.7 11.0305C19.7 11.0278 19.7 11.0251 19.7 11.0224C19.7 11.0197 19.7 11.017 19.7 11.0143C19.7 11.0116 19.7 11.0088 19.7 11.0061C19.7 11.0034 19.7 11.0007 19.7 10.998C19.7 10.9953 19.7 10.9926 19.7 10.9899C19.7 10.9872 19.7 10.9845 19.7 10.9818C19.7 10.9791 19.7 10.9764 19.7 10.9737C19.7 10.971 19.7 10.9682 19.7 10.9655C19.7 10.9628 19.7 10.9601 19.7 10.9574C19.7 10.9547 19.7 10.952 19.7 10.9493C19.7 10.9465 19.7 10.9438 19.7 10.9411C19.7 10.9384 19.7 10.9357 19.7 10.933C19.7 10.9303 19.7 10.9275 19.7 10.9248C19.7 10.9221 19.7 10.9194 19.7 10.9167C19.7 10.9139 19.7 10.9112 19.7 10.9085C19.7 10.9058 19.7 10.9031 19.7 10.9003C19.7 10.8976 19.7 10.8949 19.7 10.8922C19.7 10.8894 19.7 10.8867 19.7 10.884C19.7 10.8813 19.7 10.8785 19.7 10.8758C19.7 10.8731 19.7 10.8703 19.7 10.8676C19.7 10.8649 19.7 10.8622 19.7 10.8594C19.7 10.8567 19.7 10.854 19.7 10.8512C19.7 10.8485 19.7 10.8458 19.7 10.843C19.7 10.8403 19.7 10.8376 19.7 10.8348C19.7 10.8321 19.7 10.8294 19.7 10.8266C19.7 10.8239 19.7 10.8212 19.7 10.8184C19.7 10.8157 19.7 10.8129 19.7 10.8102C19.7 10.8075 19.7 10.8047 19.7 10.802C19.7 10.7992 19.7 10.7965 19.7 10.7938C19.7 10.791 19.7 10.7883 19.7 10.7855C19.7 10.7828 19.7 10.78 19.7 10.7773C19.7 10.7746 19.7 10.7718 19.7 10.7691C19.7 10.7663 19.7 10.7636 19.7 10.7608C19.7 10.7581 19.7 10.7553 19.7 10.7526C19.7 10.7498 19.7 10.7471 19.7 10.7443C19.7 10.7416 19.7 10.7388 19.7 10.7361C19.7 10.7333 19.7 10.7306 19.7 10.7278C19.7 10.7251 19.7 10.7223 19.7 10.7196C19.7 10.7168 19.7 10.714 19.7 10.7113C19.7 10.7085 19.7 10.7058 19.7 10.703C19.7 10.7003 19.7 10.6975 19.7 10.6947C19.7 10.692 19.7 10.6892 19.7 10.6865C19.7 10.6837 19.7 10.6809 19.7 10.6782C19.7 10.6754 19.7 10.6727 19.7 10.6699C19.7 10.6671 19.7 10.6644 19.7 10.6616C19.7 10.6588 19.7 10.6561 19.7 10.6533C19.7 10.6505 19.7 10.6478 19.7 10.645C19.7 10.6422 19.7 10.6395 19.7 10.6367C19.7 10.6339 19.7 10.6312 19.7 10.6284C19.7 10.6256 19.7 10.6229 19.7 10.6201C19.7 10.6173 19.7 10.6145 19.7 10.6118C19.7 10.609 19.7 10.6062 19.7 10.6034C19.7 10.6007 19.7 10.5979 19.7 10.5951C19.7 10.5923 19.7 10.5896 19.7 10.5868C19.7 10.584 19.7 10.5812 19.7 10.5785C19.7 10.5757 19.7 10.5729 19.7 10.5701C19.7 10.5673 19.7 10.5646 19.7 10.5618C19.7 10.559 19.7 10.5562 19.7 10.5534C19.7 10.5507 19.7 10.5479 19.7 10.5451C19.7 10.5423 19.7 10.5395 19.7 10.5367C19.7 10.5339 19.7 10.5312 19.7 10.5284C19.7 10.5256 19.7 10.5228 19.7 10.52C19.7 10.5172 19.7 10.5144 19.7 10.5116C19.7 10.5089 19.7 10.5061 19.7 10.5033C19.7 10.5005 19.7 10.4977 19.7 10.4949C19.7 10.4921 19.7 10.4893 19.7 10.4865C19.7 10.4837 19.7 10.4809 19.7 10.4781C19.7 10.4754 19.7 10.4726 19.7 10.4698C19.7 10.467 19.7 10.4642 19.7 10.4614C19.7 10.4586 19.7 10.4558 19.7 10.453C19.7 10.4502 19.7 10.4474 19.7 10.4446C19.7 10.4418 19.7 10.439 19.7 10.4362C19.7 10.4334 19.7 10.4306 19.7 10.4278C19.7 10.425 19.7 10.4222 19.7 10.4194C19.7 10.4166 19.7 10.4138 19.7 10.411C19.7 10.4081 19.7 10.4053 19.7 10.4025C19.7 10.3997 19.7 10.3969 19.7 10.3941C19.7 10.3913 19.7 10.3885 19.7 10.3857C19.7 10.3829 19.7 10.3801 19.7 10.3773C19.7 10.3745 19.7 10.3716 19.7 10.3688C19.7 10.366 19.7 10.3632 19.7 10.3604C19.7 10.3576 19.7 10.3548 19.7 10.352C19.7 10.3491 19.7 10.3463 19.7 10.3435C19.7 10.3407 19.7 10.3379 19.7 10.3351C19.7 10.3322 19.7 10.3294 19.7 10.3266C19.7 10.3238 19.7 10.321 19.7 10.3182C19.7 10.3153 19.7 10.3125 19.7 10.3097C19.7 10.3069 19.7 10.3041 19.7 10.3012C19.7 10.2984 19.7 10.2956 19.7 10.2928C19.7 10.2899 19.7 10.2871 19.7 10.2843C19.7 10.2815 19.7 10.2787 19.7 10.2758C19.7 10.273 19.7 10.2702 19.7 10.2673C19.7 10.2645 19.7 10.2617 19.7 10.2589C19.7 10.256 19.7 10.2532 19.7 10.2504C19.7 10.2476 19.7 10.2447 19.7 10.2419C19.7 10.2391 19.7 10.2362 19.7 10.2334C19.7 10.2306 19.7 10.2277 19.7 10.2249C19.7 10.2221 19.7 10.2192 19.7 10.2164C19.7 10.2136 19.7 10.2107 19.7 10.2079C19.7 10.2051 19.7 10.2022 19.7 10.1994C19.7 10.1966 19.7 10.1937 19.7 10.1909C19.7 10.188 19.7 10.1852 19.7 10.1824C19.7 10.1795 19.7 10.1767 19.7 10.1738C19.7 10.171 19.7 10.1682 19.7 10.1653C19.7 10.1625 19.7 10.1596 19.7 10.1568C19.7 10.154 19.7 10.1511 19.7 10.1483C19.7 10.1454 19.7 10.1426 19.7 10.1397C19.7 10.1369 19.7 10.134 19.7 10.1312C19.7 10.1284 19.7 10.1255 19.7 10.1227C19.7 10.1198 19.7 10.117 19.7 10.1141C19.7 10.1113 19.7 10.1084 19.7 10.1056C19.7 10.1027 19.7 10.0999 19.7 10.097C19.7 10.0942 19.7 10.0913 19.7 10.0885C19.7 10.0856 19.7 10.0828 19.7 10.0799C19.7 10.0771 19.7 10.0742 19.7 10.0713C19.7 10.0685 19.7 10.0656 19.7 10.0628C19.7 10.0599 19.7 10.0571 19.7 10.0542C19.7 10.0514 19.7 10.0485 19.7 10.0456C19.7 10.0428 19.7 10.0399 19.7 10.0371C19.7 10.0342 19.7 10.0313 19.7 10.0285C19.7 10.0256 19.7 10.0228 19.7 10.0199C19.7 10.017 19.7 10.0142 19.7 10.0113C19.7 10.0085 19.7 10.0056 19.7 10.0027C19.7 9.99987 19.7 9.997 19.7 9.99414C19.7 9.99127 19.7 9.98841 19.7 9.98554C19.7 9.98268 19.7 9.97981 19.7 9.97694C19.7 9.97407 19.7 9.97121 19.7 9.96834C19.7 9.96547 19.7 9.9626 19.7 9.95973C19.7 9.95686 19.7 9.95399 19.7 9.95112C19.7 9.94825 19.7 9.94538 19.7 9.94251C19.7 9.93964 19.7 9.93677 19.7 9.93389C19.7 9.93102 19.7 9.92815 19.7 9.92527C19.7 9.9224 19.7 9.91952 19.7 9.91665C19.7 9.91377 19.7 9.9109 19.7 9.90802C19.7 9.90515 19.7 9.90227 19.7 9.89939C19.7 9.89651 19.7 9.89364 19.7 9.89076C19.7 9.88788 19.7 9.885 19.7 9.88212C19.7 9.87924 19.7 9.87636 19.7 9.87348C19.7 9.8706 19.7 9.86772 19.7 9.86484C19.7 9.86196 19.7 9.85907 19.7 9.85619C19.7 9.85331 19.7 9.85043 19.7 9.84754C19.7 9.84466 19.7 9.84177 19.7 9.83889C19.7 9.836 19.7 9.83312 19.7 9.83023C19.7 9.82735 19.7 9.82446 19.7 9.82157C19.7 9.81869 19.7 9.8158 19.7 9.81291C19.7 9.81002 19.7 9.80713 19.7 9.80424C19.7 9.80135 19.7 9.79846 19.7 9.79557C19.7 9.79268 19.7 9.78979 19.7 9.7869C19.7 9.78401 19.7 9.78112 19.7 9.77822C19.7 9.77533 19.7 9.77244 19.7 9.76955C19.7 9.76665 19.7 9.76376 19.7 9.76086C19.7 9.75797 19.7 9.75507 19.7 9.75218C19.7 9.74928 19.7 9.74639 19.7 9.74349C19.7 9.74059 19.7 9.73769 19.7 9.7348C19.7 9.7319 19.7 9.729 19.7 9.7261C19.7 9.7232 19.7 9.7203 19.7 9.7174C19.7 9.7145 19.7 9.7116 19.7 9.7087C19.7 9.7058 19.7 9.7029 19.7 9.7C19.7 9.6971 19.7 9.69419 19.7 9.69129C19.7 9.68839 19.7 9.68548 19.7 9.68258C19.7 9.67968 19.7 9.67677 19.7 9.67387C19.7 9.67096 19.7 9.66805 19.7 9.66515C19.7 9.66224 19.7 9.65934 19.7 9.65643C19.7 9.65352 19.7 9.65061 19.7 9.64771C19.7 9.6448 19.7 9.64189 19.7 9.63898C19.7 9.63607 19.7 9.63316 19.7 9.63025C19.7 9.62734 19.7 9.62443 19.7 9.62152C19.7 9.61861 19.7 9.61569 19.7 9.61278C19.7 9.60987 19.7 9.60696 19.7 9.60404C19.7 9.60113 19.7 9.59822 19.7 9.5953C19.7 9.59239 19.7 9.58947 19.7 9.58656C19.7 9.58364 19.7 9.58073 19.7 9.57781C19.7 9.57489 19.7 9.57198 19.7 9.56906C19.7 9.56614 19.7 9.56322 19.7 9.56031C19.7 9.55739 19.7 9.55447 19.7 9.55155C19.7 9.54863 19.7 9.54571 19.7 9.54279C19.7 9.53987 19.7 9.53695 19.7 9.53403C19.7 9.53111 19.7 9.52819 19.7 9.52526C19.7 9.52234 19.7 9.51942 19.7 9.5165C19.7 9.51357 19.7 9.51065 19.7 9.50772C19.7 9.5048 19.7 9.50188 19.7 9.49895C19.7 9.49602 19.7 9.4931 19.7 9.49017C19.7 9.48725 19.7 9.48432 19.7 9.48139C19.7 9.47847 19.7 9.47554 19.7 9.47261C19.7 9.46968 19.7 9.46675 19.7 9.46382C19.7 9.4609 19.7 9.45797 19.7 9.45504C19.7 9.45211 19.7 9.44918 19.7 9.44624C19.7 9.44331 19.7 9.44038 19.7 9.43745C19.7 9.43452 19.7 9.43159 19.7 9.42865C19.7 9.42572 19.7 9.42279 19.7 9.41985C19.7 9.41692 19.7 9.41399 19.7 9.41105C19.7 9.40812 19.7 9.40518 19.7 9.40225C19.7 9.39931 19.7 9.39637 19.7 9.39344C19.7 9.3905 19.7 9.38756 19.7 9.38463C19.7 9.38169 19.7 9.37875 19.7 9.37581C19.7 9.37287 19.7 9.36993 19.7 9.36699C19.7 9.36406 19.7 9.36112 19.7 9.35818C19.7 9.35524 19.7 9.35229 19.7 9.34935C19.7 9.34641 19.7 9.34347 19.7 9.34053C19.7 9.33759 19.7 9.33464 19.7 9.3317C19.7 9.32876 19.7 9.32581 19.7 9.32287C19.7 9.31993 19.7 9.31698 19.7 9.31404C19.7 9.31109 19.7 9.30815 19.7 9.3052C19.7 9.30225 19.7 9.29931 19.7 9.29636C19.7 9.29342 19.7 9.29047 19.7 9.28752C19.7 9.28457 19.7 9.28162 19.7 9.27868C19.7 9.27573 19.7 9.27278 19.7 9.26983C19.7 9.26688 19.7 9.26393 19.7 9.26098C19.7 9.25803 19.7 9.25508 19.7 9.25213C19.7 9.24918 19.7 9.24623 19.7 9.24327C19.7 9.24032 19.7 9.23737 19.7 9.23442C19.7 9.23146 19.7 9.22851 19.7 9.22556C19.7 9.2226 19.7 9.21965 19.7 9.21669C19.7 9.21374 19.7 9.21078 19.7 9.20783C19.7 9.20487 19.7 9.20192 19.7 9.19896C19.7 9.196 19.7 9.19305 19.7 9.19009C19.7 9.18713 19.7 9.18417 19.7 9.18122C19.7 9.17826 19.7 9.1753 19.7 9.17234C19.7 9.16938 19.7 9.16642 19.7 9.16346C19.7 9.1605 19.7 9.15754 19.7 9.15458C19.7 9.15162 19.7 9.14866 19.7 9.1457C19.7 9.14274 19.7 9.13978 19.7 9.13681C19.7 9.13385 19.7 9.13089 19.7 9.12792C19.7 9.12496 19.7 9.122 19.7 9.11903C19.7 9.11607 19.7 9.11311 19.7 9.11014C19.7 9.10718 19.7 9.10421 19.7 9.10124C19.7 9.09828 19.7 9.09531 19.7 9.09235C19.7 9.08938 19.7 9.08641 19.7 9.08345C19.7 9.08048 19.7 9.07751 19.7 9.07454C19.7 9.07157 19.7 9.06861 19.7 9.06564C19.7 9.06267 19.7 9.0597 19.7 9.05673C19.7 9.05376 19.7 9.05079 19.7 9.04782C19.7 9.04485 19.7 9.04188 19.7 9.0389C19.7 9.03593 19.7 9.03296 19.7 9.02999C19.7 9.02702 19.7 9.02404 19.7 9.02107C19.7 9.0181 19.7 9.01512 19.7 9.01215C19.7 9.00918 19.7 9.0062 19.7 9.00323C19.7 9.00025 19.7 8.99728 19.7 8.9943C19.7 8.99133 19.7 8.98835 19.7 8.98537C19.7 8.9824 19.7 8.97942 19.7 8.97644C19.7 8.97347 19.7 8.97049 19.7 8.96751C19.7 8.96453 19.7 8.96156 19.7 8.95858C19.7 8.9556 19.7 8.95262 19.7 8.94964C19.7 8.94666 19.7 8.94368 19.7 8.9407C19.7 8.93772 19.7 8.93474 19.7 8.93176C19.7 8.92878 19.7 8.9258 19.7 8.92281C19.7 8.91983 19.7 8.91685 19.7 8.91387C19.7 8.91089 19.7 8.9079 19.7 8.90492C19.7 8.90194 19.7 8.89895 19.7 8.89597C19.7 8.89298 19.7 8.89 19.7 8.88702C19.7 8.88403 19.7 8.88105 19.7 8.87806C19.7 8.87507 19.7 8.87209 19.7 8.8691C19.7 8.86612 19.7 8.86313 19.7 8.86014C19.7 8.85716 19.7 8.85417 19.7 8.85118C19.7 8.84819 19.7 8.8452 19.7 8.84222C19.7 8.83923 19.7 8.83624 19.7 8.83325C19.7 8.83026 19.7 8.82727 19.7 8.82428C19.7 8.82129 19.7 8.8183 19.7 8.81531C19.7 8.81232 19.7 8.80933 19.7 8.80634C19.7 8.80334 19.7 8.80035 19.7 8.79736C19.7 8.79437 19.7 8.79138 19.7 8.78838C19.7 8.78539 19.7 8.7824 19.7 8.7794C19.7 8.77641 19.7 8.77341 19.7 8.77042C19.7 8.76743 19.7 8.76443 19.7 8.76144C19.7 8.75844 19.7 8.75545 19.7 8.75245C19.7 8.74945 19.7 8.74646 19.7 8.74346C19.7 8.74047 19.7 8.73747 19.7 8.73447C19.7 8.73147 19.7 8.72848 19.7 8.72548C19.7 8.72248 19.7 8.71948 19.7 8.71648C19.7 8.71348 19.7 8.71049 19.7 8.70749C19.7 8.70449 19.7 8.70149 19.7 8.69849C19.7 8.69549 19.7 8.69249 19.7 8.68949C19.7 8.68649 19.7 8.68348 19.7 8.68048C19.7 8.67748 19.7 8.67448 19.7 8.67148C19.7 8.66848 19.7 8.66547 19.7 8.66247C19.7 8.65947 19.7 8.65647 19.7 8.65346C19.7 8.65046 19.7 8.64745 19.7 8.64445C19.7 8.64145 19.7 8.63844 19.7 8.63544C19.7 8.63243 19.7 8.62943 19.7 8.62642C19.7 8.62342 19.7 8.62041 19.7 8.6174C19.7 8.6144 19.7 8.61139 19.7 8.60838C19.7 8.60538 19.7 8.60237 19.7 8.59936C19.7 8.59636 19.7 8.59335 19.7 8.59034C19.7 8.58733 19.7 8.58432 19.7 8.58132C19.7 8.57831 19.7 8.5753 19.7 8.57229C19.7 8.56928 19.7 8.56627 19.7 8.56326C19.7 8.56025 19.7 8.55724 19.7 8.55423C19.7 8.55122 19.7 8.54821 19.7 8.54519C19.7 8.54218 19.7 8.53917 19.7 8.53616C19.7 8.53315 19.7 8.53014 19.7 8.52712C19.7 8.52411 19.7 8.5211 19.7 8.51808C19.7 8.51507 19.7 8.51206 19.7 8.50904C19.7 8.50603 19.7 8.50302 19.7 8.5H18.3ZM1.7 12.6773C1.7 11.505 1.7 10.0434 1.7 8.5H0.3C0.3 10.0434 0.3 11.505 0.3 12.6773H1.7ZM16.2922 14.919C14.4096 15.1005 11.9032 15.3 10 15.3V16.7C11.9752 16.7 14.5386 16.4946 16.4265 16.3126L16.2922 14.919ZM10 15.3C8.09679 15.3 5.59036 15.1005 3.70783 14.919L3.57347 16.3126C5.46142 16.4946 8.02481 16.7 10 16.7V15.3ZM0.3 12.6773C0.3 14.5453 1.69559 16.1315 3.57347 16.3126L3.70783 14.919C2.5662 14.809 1.7 13.8428 1.7 12.6773H0.3ZM18.3 12.6773C18.3 13.8428 17.4338 14.809 16.2922 14.919L16.4265 16.3126C18.3044 16.1315 19.7 14.5453 19.7 12.6773H18.3Z" fill="#F2F2F2"/>
</svg>
