<svg width="40" height="51" viewBox="0 0 40 51" fill="none" xmlns="http://www.w3.org/2000/svg">
<g filter="url(#filter0_bi)">
<path d="M1.97674 27.0824L21.6833 3.98733C24.0118 1.25845 25.176 -0.105984 26.0069 0.288834C26.8377 0.683651 26.5151 2.44805 25.8698 5.97683L23.8674 16.9285C23.6274 18.2409 23.5074 18.8971 23.8672 19.3286C24.227 19.7602 24.8941 19.7602 26.2282 19.7602H35.3968C37.643 19.7602 38.7662 19.7602 39.0878 20.4576C39.4095 21.1549 38.6805 22.0093 37.2225 23.718L18.4257 45.7468C15.7796 48.8479 14.4566 50.3985 13.6103 49.9601C12.7641 49.5217 13.2675 47.5466 14.2744 43.5963L16.7118 34.033C17.0628 32.656 17.2382 31.9675 16.8779 31.5039C16.5176 31.0402 15.8071 31.0402 14.3862 31.0402H3.80244C1.55618 31.0402 0.433052 31.0402 0.111371 30.3428C-0.210311 29.6455 0.518707 28.7911 1.97674 27.0824Z" fill="#F1F1F1" fill-opacity="0.1"/>
<path d="M1.97674 27.0824L21.6833 3.98733C24.0118 1.25845 25.176 -0.105984 26.0069 0.288834C26.8377 0.683651 26.5151 2.44805 25.8698 5.97683L23.8674 16.9285C23.6274 18.2409 23.5074 18.8971 23.8672 19.3286C24.227 19.7602 24.8941 19.7602 26.2282 19.7602H35.3968C37.643 19.7602 38.7662 19.7602 39.0878 20.4576C39.4095 21.1549 38.6805 22.0093 37.2225 23.718L18.4257 45.7468C15.7796 48.8479 14.4566 50.3985 13.6103 49.9601C12.7641 49.5217 13.2675 47.5466 14.2744 43.5963L16.7118 34.033C17.0628 32.656 17.2382 31.9675 16.8779 31.5039C16.5176 31.0402 15.8071 31.0402 14.3862 31.0402H3.80244C1.55618 31.0402 0.433052 31.0402 0.111371 30.3428C-0.210311 29.6455 0.518707 28.7911 1.97674 27.0824Z" fill="url(#paint0_linear)"/>
<path d="M2.06803 27.1603L21.7746 4.06522C22.9411 2.69808 23.8087 1.68167 24.4881 1.05489C24.8279 0.741374 25.1124 0.533299 25.3564 0.426312C25.5967 0.320976 25.7876 0.31749 25.9553 0.397218C26.1231 0.476946 26.241 0.627161 26.311 0.87996C26.3822 1.13672 26.4006 1.48872 26.3721 1.95021C26.3152 2.87279 26.075 4.18737 25.7518 5.95525L23.7493 16.9069L23.7475 16.917C23.6291 17.5647 23.5378 18.0636 23.5225 18.4542C23.5069 18.8501 23.568 19.1571 23.7751 19.4055C23.9821 19.6539 24.2732 19.7691 24.6654 19.8251C25.0524 19.8802 25.5596 19.8802 26.218 19.8802H26.2282H35.3968C36.524 19.8802 37.3557 19.8805 37.9468 19.9661C38.5402 20.0521 38.8452 20.2179 38.9789 20.5078C39.1126 20.7977 39.0408 21.1373 38.721 21.6445C38.4025 22.1497 37.8629 22.7827 37.1312 23.6401L18.3344 45.669C17.0092 47.222 16.0222 48.3785 15.2609 49.0933C14.88 49.451 14.5638 49.6901 14.297 49.814C14.0334 49.9365 13.8332 49.9404 13.6655 49.8536C13.4979 49.7667 13.3855 49.6009 13.3336 49.3149C13.281 49.0255 13.2938 48.6293 13.3663 48.1118C13.5111 47.0777 13.8864 45.6043 14.3907 43.6259L16.8281 34.0626L16.8307 34.0524C17.004 33.3726 17.1373 32.8494 17.1809 32.4386C17.2251 32.0226 17.1803 31.6974 16.9727 31.4302C16.7651 31.1631 16.461 31.0393 16.047 30.9794C15.6382 30.9202 15.0983 30.9202 14.3968 30.9202H14.3862H3.80244C2.67524 30.9202 1.84348 30.9199 1.25239 30.8343C0.658988 30.7483 0.354058 30.5825 0.220336 30.2926C0.0866143 30.0027 0.158383 29.6631 0.478171 29.1559C0.79671 28.6507 1.33637 28.0177 2.06803 27.1603Z" stroke="url(#paint1_linear)" stroke-opacity="0.1" stroke-width="0.24"/>
</g>
<defs>
<filter id="filter0_bi" x="-3.56387" y="-3.3782" width="46.3266" height="57.0114" filterUnits="userSpaceOnUse" color-interpolation-filters="sRGB">
<feFlood flood-opacity="0" result="BackgroundImageFix"/>
<feGaussianBlur in="BackgroundImageFix" stdDeviation="1.8"/>
<feComposite in2="SourceAlpha" operator="in" result="effect1_backgroundBlur"/>
<feBlend mode="normal" in="SourceGraphic" in2="effect1_backgroundBlur" result="shape"/>
<feColorMatrix in="SourceAlpha" type="matrix" values="0 0 0 0 0 0 0 0 0 0 0 0 0 0 0 0 0 0 127 0" result="hardAlpha"/>
<feOffset dy="0.6"/>
<feGaussianBlur stdDeviation="1.2"/>
<feComposite in2="hardAlpha" operator="arithmetic" k2="-1" k3="1"/>
<feColorMatrix type="matrix" values="0 0 0 0 1 0 0 0 0 1 0 0 0 0 1 0 0 0 0.15 0"/>
<feBlend mode="normal" in2="shape" result="effect2_innerShadow"/>
</filter>
<linearGradient id="paint0_linear" x1="-1.40039" y1="-2.7998" x2="49.4462" y2="6.81469" gradientUnits="userSpaceOnUse">
<stop stop-color="#62BDFF"/>
<stop offset="1" stop-color="#3864FF"/>
</linearGradient>
<linearGradient id="paint1_linear" x1="-0.0878905" y1="-0.236167" x2="40.5996" y2="-0.236167" gradientUnits="userSpaceOnUse">
<stop stop-color="#7EE5FF"/>
<stop offset="1" stop-color="#41A9FF"/>
</linearGradient>
</defs>
</svg>
