<svg width="128" height="53" viewBox="0 0 128 53" fill="none" xmlns="http://www.w3.org/2000/svg">
<path d="M99.9775 19.3247V36.4716L97.6484 38.788V22.0083L99.9775 19.3247Z" fill="white"/>
<path d="M84.713 19.3388L82.3008 22.0083L82.4255 22.1778L97.5502 22.1213L97.6888 22.0083L99.9762 19.3247L84.713 19.3388Z" fill="white"/>
<path d="M82.3008 22.0083H97.6887V38.8021H82.3008V22.0083Z" fill="white"/>
<path d="M95.3476 28.0536C95.0427 27.2768 94.5852 26.5706 93.9891 25.9632C93.4207 25.37 92.783 24.918 92.0621 24.6214C91.3551 24.3248 90.5926 24.1694 89.7609 24.1694C88.9291 24.1694 88.1528 24.3248 87.4457 24.6214C86.7249 24.918 86.0872 25.37 85.5188 25.9632C84.9227 26.5706 84.4791 27.2768 84.1741 28.0536C83.8691 28.8305 83.7305 29.6779 83.7305 30.6101C83.7305 31.5141 83.883 32.3615 84.1879 33.1525C84.4929 33.9434 84.9365 34.6497 85.5327 35.2711C86.0872 35.8502 86.7249 36.2881 87.4319 36.5847C88.1389 36.8813 88.9291 37.0367 89.7747 37.0367C90.5926 37.0367 91.3551 36.8813 92.0621 36.5847C92.7691 36.2881 93.4207 35.8502 93.9891 35.2711C94.5852 34.6497 95.0427 33.9434 95.3476 33.1666C95.6526 32.3898 95.8051 31.5282 95.8051 30.6242C95.8051 29.6779 95.6526 28.8305 95.3476 28.0536ZM92.173 33.5903C91.5769 34.3107 90.7867 34.6779 89.7609 34.6779C88.735 34.6779 87.931 34.3107 87.3348 33.5903C86.7387 32.87 86.4476 31.8672 86.4476 30.596C86.4476 29.2966 86.7526 28.2937 87.3348 27.5593C87.931 26.8248 88.7211 26.4717 89.7609 26.4717C90.7867 26.4717 91.5769 26.8389 92.173 27.5593C92.7553 28.2937 93.0603 29.2966 93.0603 30.596C93.0603 31.8672 92.7691 32.87 92.173 33.5903Z" fill="#1E2738"/>
<path d="M80.7883 17.9268V18.0115L82.7568 33.4211L81.6062 36.6697L81.4537 36.5567L79.4297 21.7827L79.4713 21.5849L80.7328 18.0115L80.7883 17.9268Z" fill="white"/>
<path d="M65.6393 20.0737L80.7916 17.9268L79.5162 21.6273L79.336 21.8251L65.168 23.9437L65.2373 21.3025L65.6393 20.0737Z" fill="white"/>
<path d="M79.5153 21.6274L81.6086 36.6698L66.6781 38.8026L64.668 24.2687L65.5413 23.5766L79.5153 21.6274Z" fill="white"/>
<path d="M76.9796 24.5086C76.9103 24.0425 76.7578 23.6893 76.5083 23.4492C76.3003 23.2656 76.0508 23.1667 75.7597 23.1667C75.6904 23.1667 75.6072 23.1667 75.524 23.1809C75.1358 23.2374 74.8447 23.421 74.6645 23.7176C74.5259 23.9295 74.4704 24.1978 74.4704 24.5086C74.4704 24.6216 74.4843 24.7487 74.4981 24.8758L75.0388 28.7882L70.7413 29.4379L70.2006 25.5255C70.1313 25.0735 69.9788 24.7204 69.7293 24.4803C69.5213 24.2826 69.2718 24.1837 68.9945 24.1837C68.9252 24.1837 68.8559 24.1837 68.7866 24.1978C68.3846 24.2543 68.0796 24.4379 67.8855 24.7345C67.7469 24.9464 67.6914 25.2148 67.6914 25.5255C67.6914 25.6385 67.7053 25.7656 67.7191 25.9069L69.1886 36.0905C69.2579 36.5566 69.4104 36.9097 69.6877 37.1498C69.8956 37.3334 70.1452 37.4182 70.4501 37.4182C70.5333 37.4182 70.6165 37.4182 70.6997 37.404C71.074 37.3475 71.3512 37.1639 71.5315 36.8673C71.6562 36.6554 71.7117 36.4012 71.7117 36.1046C71.7117 35.9916 71.6978 35.8645 71.684 35.7374L71.0878 31.7119L75.3854 31.0622L75.9815 35.0877C76.0508 35.5538 76.2033 35.9069 76.4667 36.1328C76.6746 36.3165 76.9242 36.4153 77.2153 36.4153C77.2846 36.4153 77.3678 36.4153 77.451 36.4012C77.8391 36.3447 78.1303 36.1611 78.3105 35.8645C78.4352 35.6526 78.5046 35.3984 78.5046 35.0877C78.5046 34.9747 78.4907 34.8475 78.4768 34.7204L76.9796 24.5086Z" fill="#1E2738"/>
<path d="M51.4552 14L46.0625 27.0508L46.7972 32.7853L46.8388 32.7712L52.897 18.887L52.8693 18.5904L51.5662 14.1836L51.4552 14Z" fill="white"/>
<path d="M51.457 14L52.8572 18.7881L52.8849 18.887L66.2212 24.9746L66.2628 24.9463L65.1261 20.3701L51.457 14Z" fill="white"/>
<path d="M52.855 18.7881L66.2607 24.9463L60.2025 38.9435L46.7969 32.7853L52.855 18.7881Z" fill="white"/>
<path d="M62.1977 26.0761C61.9065 25.2852 61.5045 24.6072 60.9777 24.0422C60.4509 23.4773 59.8132 23.0253 59.0646 22.7004C58.316 22.3756 57.5674 22.2202 56.8049 22.2202H56.7633C55.987 22.2202 55.2245 22.4038 54.4759 22.7428C53.6857 23.0959 53.0065 23.5761 52.4242 24.2117C51.842 24.8332 51.3706 25.5959 51.0102 26.4716C50.6497 27.3332 50.4557 28.2089 50.4141 29.0705V29.3671C50.4141 30.1298 50.5388 30.8784 50.8022 31.6129C51.0795 32.3897 51.4815 33.0535 52.0083 33.6185C52.5351 34.1835 53.1867 34.6355 53.963 34.9603C54.6977 35.2852 55.4463 35.4405 56.2088 35.4405H56.2227C56.9851 35.4405 57.7476 35.271 58.4962 34.9462C59.2864 34.5931 59.9796 34.0987 60.5618 33.4631C61.1441 32.8417 61.6293 32.0931 61.9897 31.2174C62.3501 30.3417 62.5442 29.4801 62.5858 28.6185V28.3643C62.5997 27.5874 62.4749 26.8247 62.1977 26.0761ZM59.5221 30.1439C59.023 31.3586 58.3437 32.192 57.5258 32.6439C57.0822 32.884 56.6247 33.0112 56.1672 33.0112C55.7652 33.0112 55.3354 32.9123 54.9057 32.7287C53.963 32.3191 53.3808 31.6694 53.1312 30.7372C53.048 30.4264 53.0065 30.1016 53.0065 29.7626C53.0065 29.0846 53.1728 28.336 53.5055 27.5309C54.0185 26.288 54.6977 25.4405 55.5157 24.9744C55.9593 24.7202 56.4168 24.6072 56.8742 24.6072C57.2901 24.6072 57.706 24.7061 58.1496 24.8897C59.0785 25.2993 59.6607 25.949 59.9102 26.8812C59.9934 27.1778 60.035 27.5027 60.035 27.8417C60.035 28.5479 59.8687 29.3106 59.5221 30.1439Z" fill="#1E2738"/>
<path d="M44.9993 16.2178L47.1897 31.1613L46.1915 36.4155L46.0529 36.2319L43.918 21.7969V21.5144L44.8607 16.472L44.9993 16.2178Z" fill="white"/>
<path d="M29 23.9438L30.0397 18.6613L44.998 16.2178L43.986 21.5991V21.9522L29.1802 24.085L29 23.9438Z" fill="white"/>
<path d="M43.986 21.5991L46.1902 36.4155L31.3844 38.7743L29 23.9438L43.986 21.5991Z" fill="white"/>
<path d="M42.3928 34.0568C42.2819 33.9155 42.1155 33.8167 41.9214 33.746C41.7274 33.6754 41.4917 33.6472 41.2006 33.6472C40.9372 33.6472 40.6322 33.6754 40.2995 33.7319L36.3901 34.4099C36.4317 34.0992 36.5842 33.7037 36.8476 33.2093C37.1387 32.6585 37.5823 31.9946 38.1507 31.2319C38.3448 30.9636 38.4973 30.7658 38.6082 30.6246C38.6775 30.5257 38.7884 30.3986 38.927 30.215C39.8281 29.0144 40.3688 28.0398 40.5906 27.2771C40.7154 26.8393 40.7847 26.4014 40.8124 25.9636C40.8263 25.8364 40.8263 25.7234 40.8263 25.6104C40.8263 25.2997 40.7985 24.989 40.7431 24.6782C40.7015 24.3958 40.6322 24.1698 40.5351 23.9861C40.4381 23.8025 40.3272 23.6613 40.1886 23.5765C40.0361 23.4777 39.8004 23.4353 39.5093 23.4353C39.2736 23.4353 38.9825 23.4636 38.6359 23.52L34.1165 24.311C33.5759 24.4099 33.16 24.5652 32.9105 24.8195C32.7025 25.0172 32.6055 25.2715 32.6055 25.5539C32.6055 25.6246 32.6055 25.7093 32.6193 25.7941C32.6886 26.1895 32.8827 26.472 33.2016 26.6133C33.3957 26.698 33.6175 26.7404 33.8947 26.7404C34.075 26.7404 34.2829 26.7263 34.5047 26.6839L38.2755 26.0059C38.2755 26.0765 38.2893 26.1472 38.2893 26.2037C38.2893 26.4438 38.2477 26.6839 38.1646 26.9099C38.0536 27.2347 37.7764 27.6867 37.3189 28.2658C37.1941 28.4212 37.0001 28.6754 36.7367 29.0003C35.7108 30.2573 34.9899 31.3308 34.5463 32.2206C34.2274 32.8421 34.0195 33.4353 33.8947 34.0427C33.8254 34.3958 33.7838 34.7206 33.7838 35.0455C33.7838 35.2715 33.7977 35.4975 33.8393 35.7093C33.8947 36.0201 33.964 36.2743 34.0611 36.472C34.1581 36.6698 34.2968 36.8251 34.4493 36.9099C34.6017 36.9946 34.8097 37.0229 35.1147 37.0229C35.489 37.0229 36.0019 36.9664 36.6535 36.8534L40.7569 36.1331C41.4778 36.0059 41.9908 35.8223 42.2819 35.5822C42.5175 35.3845 42.6423 35.1161 42.6423 34.8054C42.6423 34.7206 42.6285 34.6359 42.6146 34.5511C42.5869 34.3675 42.5175 34.198 42.3928 34.0568Z" fill="#1E2738"/>
</svg>
