<svg width="24" height="25" viewBox="0 0 24 25" fill="none" xmlns="http://www.w3.org/2000/svg">
<path d="M14.1681 4.00553C14.5635 3.53502 15.2081 3.42188 15.6984 3.7118C16.3521 4.09832 17.0702 4.55924 17.5609 4.97154C18.0429 5.37651 18.5955 5.97844 19.0676 6.53451C19.4315 6.96307 19.4299 7.61043 19.0368 8.07836L8.58077 20.5226C8.24564 20.9215 7.79294 21.1892 7.29545 21.2781C6.56742 21.4081 5.57996 21.5687 4.72955 21.6537C4.302 21.6964 3.92946 21.7178 3.64989 21.7105C3.56811 21.7084 3.50107 21.7039 3.44759 21.6983C3.4328 21.6466 3.41686 21.5813 3.40067 21.5011C3.34535 21.227 3.30221 20.8563 3.27058 20.4278C3.20767 19.5755 3.19575 18.5751 3.19834 17.8356C3.20011 17.3302 3.38584 16.8381 3.72096 16.4393L14.1681 4.00553ZM3.31421 21.6749C3.31434 21.6748 3.31664 21.6755 3.32077 21.6771C3.31616 21.6758 3.31409 21.675 3.31421 21.6749ZM3.49031 21.8195C3.49261 21.8233 3.49365 21.8255 3.4936 21.8256C3.49355 21.8257 3.49241 21.8238 3.49031 21.8195Z" stroke="#4470FF" stroke-width="1.4"/>
<path d="M12.4185 6.5C12.4185 6.5 13.4568 8.09424 14.3936 8.71099C15.3304 9.32774 16.5002 10 16.5002 10" stroke="#4470FF" stroke-width="1.4" stroke-linecap="round"/>
<line x1="14.7" y1="21.8" x2="21.3" y2="21.8" stroke="#4470FF" stroke-width="1.4" stroke-linecap="round"/>
</svg>
