<svg width="30" height="30" viewBox="0 0 30 30" fill="none" xmlns="http://www.w3.org/2000/svg">
<g filter="url(#filter0_bi_2544_38437)">
<circle cx="15" cy="15" r="15" fill="#F1F1F1" fill-opacity="0.1"/>
<circle cx="15" cy="15" r="15" fill="url(#paint0_linear_2544_38437)" fill-opacity="0.2"/>
<circle cx="15" cy="15" r="14.8667" stroke="url(#paint1_linear_2544_38437)" stroke-opacity="0.1" stroke-width="0.266667"/>
</g>
<path d="M11.6667 11.909V11C11.6667 9.15901 13.1591 7.66663 15.0001 7.66663V7.66663C16.841 7.66663 18.3334 9.15901 18.3334 11V11.5391C18.3334 12.3322 18.0899 13.1062 17.6358 13.7565L15.3705 17" stroke="url(#paint2_linear_2544_38437)" stroke-width="3" stroke-linecap="round" stroke-linejoin="round"/>
<g filter="url(#filter1_bi_2544_38437)">
<path d="M14.3321 20.9998C14.3321 20.2634 14.9291 19.6665 15.6654 19.6665C16.4018 19.6665 16.9988 20.2634 16.9988 20.9998C16.9988 21.7362 16.4018 22.3331 15.6654 22.3331C14.9291 22.3331 14.3321 21.7362 14.3321 20.9998Z" fill="#F1F1F1" fill-opacity="0.1"/>
<path d="M14.3321 20.9998C14.3321 20.2634 14.9291 19.6665 15.6654 19.6665C16.4018 19.6665 16.9988 20.2634 16.9988 20.9998C16.9988 21.7362 16.4018 22.3331 15.6654 22.3331C14.9291 22.3331 14.3321 21.7362 14.3321 20.9998Z" fill="url(#paint3_linear_2544_38437)"/>
<path d="M14.4321 20.9998C14.4321 20.3186 14.9843 19.7665 15.6654 19.7665C16.3466 19.7665 16.8988 20.3186 16.8988 20.9998C16.8988 21.6809 16.3466 22.2331 15.6654 22.2331C14.9843 22.2331 14.4321 21.6809 14.4321 20.9998Z" stroke="url(#paint4_linear_2544_38437)" stroke-opacity="0.1" stroke-width="0.2"/>
</g>
<defs>
<filter id="filter0_bi_2544_38437" x="-4" y="-4" width="38" height="38" filterUnits="userSpaceOnUse" color-interpolation-filters="sRGB">
<feFlood flood-opacity="0" result="BackgroundImageFix"/>
<feGaussianBlur in="BackgroundImageFix" stdDeviation="2"/>
<feComposite in2="SourceAlpha" operator="in" result="effect1_backgroundBlur_2544_38437"/>
<feBlend mode="normal" in="SourceGraphic" in2="effect1_backgroundBlur_2544_38437" result="shape"/>
<feColorMatrix in="SourceAlpha" type="matrix" values="0 0 0 0 0 0 0 0 0 0 0 0 0 0 0 0 0 0 127 0" result="hardAlpha"/>
<feOffset dy="0.666667"/>
<feGaussianBlur stdDeviation="1.33333"/>
<feComposite in2="hardAlpha" operator="arithmetic" k2="-1" k3="1"/>
<feColorMatrix type="matrix" values="0 0 0 0 1 0 0 0 0 1 0 0 0 0 1 0 0 0 0.15 0"/>
<feBlend mode="normal" in2="shape" result="effect2_innerShadow_2544_38437"/>
</filter>
<filter id="filter1_bi_2544_38437" x="10.332" y="15.6664" width="10.6667" height="10.6667" filterUnits="userSpaceOnUse" color-interpolation-filters="sRGB">
<feFlood flood-opacity="0" result="BackgroundImageFix"/>
<feGaussianBlur in="BackgroundImageFix" stdDeviation="2"/>
<feComposite in2="SourceAlpha" operator="in" result="effect1_backgroundBlur_2544_38437"/>
<feBlend mode="normal" in="SourceGraphic" in2="effect1_backgroundBlur_2544_38437" result="shape"/>
<feColorMatrix in="SourceAlpha" type="matrix" values="0 0 0 0 0 0 0 0 0 0 0 0 0 0 0 0 0 0 127 0" result="hardAlpha"/>
<feOffset dy="0.666667"/>
<feGaussianBlur stdDeviation="1.33333"/>
<feComposite in2="hardAlpha" operator="arithmetic" k2="-1" k3="1"/>
<feColorMatrix type="matrix" values="0 0 0 0 1 0 0 0 0 1 0 0 0 0 1 0 0 0 0.15 0"/>
<feBlend mode="normal" in2="shape" result="effect2_innerShadow_2544_38437"/>
</filter>
<linearGradient id="paint0_linear_2544_38437" x1="0" y1="0" x2="35.3391" y2="8.97325" gradientUnits="userSpaceOnUse">
<stop stop-color="#82E8FF"/>
<stop offset="1" stop-color="#379FFF"/>
</linearGradient>
<linearGradient id="paint1_linear_2544_38437" x1="0.9375" y1="1.36364" x2="30" y2="1.36364" gradientUnits="userSpaceOnUse">
<stop stop-color="#7EE5FF"/>
<stop offset="1" stop-color="#41A9FF"/>
</linearGradient>
<linearGradient id="paint2_linear_2544_38437" x1="12.4075" y1="8.51511" x2="19.974" y2="15.1208" gradientUnits="userSpaceOnUse">
<stop stop-color="#4470FF"/>
<stop offset="1" stop-color="#62BDFF"/>
</linearGradient>
<linearGradient id="paint3_linear_2544_38437" x1="16.9988" y1="22.3331" x2="13.8575" y2="21.5355" gradientUnits="userSpaceOnUse">
<stop stop-color="#62BDFF"/>
<stop offset="1" stop-color="#3864FF"/>
</linearGradient>
<linearGradient id="paint4_linear_2544_38437" x1="16.9154" y1="22.2119" x2="14.3321" y2="22.2119" gradientUnits="userSpaceOnUse">
<stop stop-color="#7EE5FF"/>
<stop offset="1" stop-color="#41A9FF"/>
</linearGradient>
</defs>
</svg>
