<svg width="16" height="15" viewBox="0 0 16 15" fill="none" xmlns="http://www.w3.org/2000/svg">
<path d="M1.76169 8.62478C1.40384 8.20411 0.772723 8.15319 0.352055 8.51104C-0.0686133 8.86889 -0.119537 9.5 0.238313 9.92067L1.76169 8.62478ZM15.8314 1.55565C16.1383 1.09647 16.0148 0.475455 15.5556 0.168581C15.0965 -0.138294 14.4755 -0.0148256 14.1686 0.444355L15.8314 1.55565ZM1 9.27273C0.238313 9.92067 0.238353 9.92072 0.238409 9.92078C0.238448 9.92083 0.238519 9.92091 0.238597 9.92101C0.238753 9.92119 0.23897 9.92144 0.239248 9.92177C0.239803 9.92242 0.240601 9.92336 0.241637 9.92458C0.243711 9.92701 0.24674 9.93057 0.250696 9.9352C0.258609 9.94448 0.270233 9.9581 0.285342 9.97577C0.315558 10.0111 0.359722 10.0626 0.416026 10.1281C0.528612 10.2589 0.689853 10.4455 0.885254 10.6692C1.27558 11.1161 1.80437 11.7138 2.35502 12.313C2.90274 12.909 3.48437 13.5201 3.97747 13.9873C4.22174 14.2187 4.46338 14.4332 4.67946 14.5958C4.78635 14.6763 4.90867 14.7606 5.03722 14.8292C5.13442 14.8811 5.36981 15 5.66667 15V13C5.79105 13 5.88025 13.0268 5.91594 13.0388C5.95621 13.0524 5.97842 13.0645 5.9786 13.0646C5.98043 13.0656 5.97272 13.0615 5.95428 13.0493C5.93639 13.0375 5.91251 13.0207 5.88228 12.9979C5.75493 12.9021 5.57652 12.7472 5.35304 12.5354C4.91065 12.1163 4.36595 11.5455 3.82767 10.9597C3.29231 10.3771 2.77543 9.793 2.39158 9.35353C2.1999 9.13407 2.04193 8.9513 1.93208 8.82363C1.87716 8.7598 1.8343 8.70978 1.8053 8.67587C1.79079 8.65891 1.77976 8.64598 1.77242 8.63737C1.76874 8.63307 1.76599 8.62984 1.7642 8.62773C1.7633 8.62667 1.76264 8.6259 1.76222 8.62541C1.76201 8.62516 1.76186 8.62498 1.76177 8.62488C1.76173 8.62483 1.7617 8.6248 1.76168 8.62478C1.76168 8.62477 1.76169 8.62478 1 9.27273ZM5.66667 15C5.87298 15 6.03153 14.9391 6.11162 14.9032C6.20084 14.8632 6.27235 14.8176 6.32122 14.7837C6.41842 14.716 6.50419 14.639 6.57073 14.575C6.7077 14.4434 6.8606 14.2723 7.01792 14.0855C7.33723 13.7063 7.74401 13.179 8.20002 12.565C9.1153 11.3328 10.2693 9.69691 11.3972 8.06967C12.5264 6.44049 13.6349 4.81214 14.4607 3.59162C14.8736 2.98122 15.2162 2.4725 15.4555 2.11627C15.5752 1.93815 15.669 1.79814 15.7331 1.70259C15.7651 1.65482 15.7896 1.61815 15.8062 1.5934C15.8145 1.58102 15.8207 1.57162 15.825 1.56529C15.8271 1.56213 15.8287 1.55974 15.8298 1.55813C15.8303 1.55732 15.8307 1.55671 15.831 1.55629C15.8311 1.55609 15.8312 1.55593 15.8313 1.55582C15.8314 1.55571 15.8314 1.55565 15 1C14.1686 0.444355 14.1686 0.44439 14.1685 0.444475C14.1684 0.44457 14.1683 0.444704 14.1682 0.444892C14.168 0.445269 14.1676 0.445842 14.1671 0.44661C14.166 0.448147 14.1645 0.450465 14.1624 0.453551C14.1583 0.459722 14.1521 0.468968 14.1439 0.481187C14.1276 0.505626 14.1033 0.541962 14.0715 0.589401C14.0079 0.68428 13.9145 0.823566 13.7954 1.00092C13.5571 1.35563 13.2158 1.86253 12.8042 2.47088C11.9808 3.68786 10.8769 5.30951 9.75345 6.93033C8.62867 8.55309 7.48968 10.1672 6.59446 11.3725C6.14522 11.9773 5.76738 12.4656 5.48805 12.7973C5.34604 12.9659 5.24612 13.0742 5.18493 13.133C5.15239 13.1642 5.15274 13.1602 5.17921 13.1418C5.19272 13.1324 5.23254 13.1055 5.29387 13.078C5.34607 13.0546 5.48052 13 5.66667 13V15Z" fill="#38EF7D"/>
</svg>
